G04 #@! TF.GenerationSoftware,KiCad,Pcbnew,(5.1.4)-1*
G04 #@! TF.CreationDate,2020-01-21T02:52:09+01:00*
G04 #@! TF.ProjectId,Z80Backplane,5a383042-6163-46b7-906c-616e652e6b69,rev?*
G04 #@! TF.SameCoordinates,Original*
G04 #@! TF.FileFunction,Legend,Top*
G04 #@! TF.FilePolarity,Positive*
%FSLAX46Y46*%
G04 Gerber Fmt 4.6, Leading zero omitted, Abs format (unit mm)*
G04 Created by KiCad (PCBNEW (5.1.4)-1) date 2020-01-21 02:52:09*
%MOMM*%
%LPD*%
G04 APERTURE LIST*
%ADD10C,0.300000*%
%ADD11C,0.150000*%
%ADD12C,0.120000*%
G04 APERTURE END LIST*
D10*
X58527142Y-38988571D02*
X58527142Y-37845714D01*
X59098571Y-38417142D02*
X57955714Y-38417142D01*
X59098571Y-37060000D02*
X59098571Y-36774285D01*
X59027142Y-36631428D01*
X58955714Y-36560000D01*
X58741428Y-36417142D01*
X58455714Y-36345714D01*
X57884285Y-36345714D01*
X57741428Y-36417142D01*
X57670000Y-36488571D01*
X57598571Y-36631428D01*
X57598571Y-36917142D01*
X57670000Y-37060000D01*
X57741428Y-37131428D01*
X57884285Y-37202857D01*
X58241428Y-37202857D01*
X58384285Y-37131428D01*
X58455714Y-37060000D01*
X58527142Y-36917142D01*
X58527142Y-36631428D01*
X58455714Y-36488571D01*
X58384285Y-36417142D01*
X58241428Y-36345714D01*
X57598571Y-35917142D02*
X59098571Y-35417142D01*
X57598571Y-34917142D01*
X59098571Y-34417142D02*
X57598571Y-34417142D01*
X57598571Y-34060000D01*
X57670000Y-33845714D01*
X57812857Y-33702857D01*
X57955714Y-33631428D01*
X58241428Y-33560000D01*
X58455714Y-33560000D01*
X58741428Y-33631428D01*
X58884285Y-33702857D01*
X59027142Y-33845714D01*
X59098571Y-34060000D01*
X59098571Y-34417142D01*
X58955714Y-32060000D02*
X59027142Y-32131428D01*
X59098571Y-32345714D01*
X59098571Y-32488571D01*
X59027142Y-32702857D01*
X58884285Y-32845714D01*
X58741428Y-32917142D01*
X58455714Y-32988571D01*
X58241428Y-32988571D01*
X57955714Y-32917142D01*
X57812857Y-32845714D01*
X57670000Y-32702857D01*
X57598571Y-32488571D01*
X57598571Y-32345714D01*
X57670000Y-32131428D01*
X57741428Y-32060000D01*
X44970000Y-36702857D02*
X44898571Y-36845714D01*
X44898571Y-37060000D01*
X44970000Y-37274285D01*
X45112857Y-37417142D01*
X45255714Y-37488571D01*
X45541428Y-37560000D01*
X45755714Y-37560000D01*
X46041428Y-37488571D01*
X46184285Y-37417142D01*
X46327142Y-37274285D01*
X46398571Y-37060000D01*
X46398571Y-36917142D01*
X46327142Y-36702857D01*
X46255714Y-36631428D01*
X45755714Y-36631428D01*
X45755714Y-36917142D01*
X46398571Y-35988571D02*
X44898571Y-35988571D01*
X46398571Y-35131428D01*
X44898571Y-35131428D01*
X46398571Y-34417142D02*
X44898571Y-34417142D01*
X44898571Y-34060000D01*
X44970000Y-33845714D01*
X45112857Y-33702857D01*
X45255714Y-33631428D01*
X45541428Y-33560000D01*
X45755714Y-33560000D01*
X46041428Y-33631428D01*
X46184285Y-33702857D01*
X46327142Y-33845714D01*
X46398571Y-34060000D01*
X46398571Y-34417142D01*
D11*
X29138571Y-107362380D02*
X29186190Y-107219523D01*
X29233809Y-107171904D01*
X29329047Y-107124285D01*
X29471904Y-107124285D01*
X29567142Y-107171904D01*
X29614761Y-107219523D01*
X29662380Y-107314761D01*
X29662380Y-107695714D01*
X28662380Y-107695714D01*
X28662380Y-107362380D01*
X28710000Y-107267142D01*
X28757619Y-107219523D01*
X28852857Y-107171904D01*
X28948095Y-107171904D01*
X29043333Y-107219523D01*
X29090952Y-107267142D01*
X29138571Y-107362380D01*
X29138571Y-107695714D01*
X28662380Y-106695714D02*
X29471904Y-106695714D01*
X29567142Y-106648095D01*
X29614761Y-106600476D01*
X29662380Y-106505238D01*
X29662380Y-106314761D01*
X29614761Y-106219523D01*
X29567142Y-106171904D01*
X29471904Y-106124285D01*
X28662380Y-106124285D01*
X29614761Y-105695714D02*
X29662380Y-105552857D01*
X29662380Y-105314761D01*
X29614761Y-105219523D01*
X29567142Y-105171904D01*
X29471904Y-105124285D01*
X29376666Y-105124285D01*
X29281428Y-105171904D01*
X29233809Y-105219523D01*
X29186190Y-105314761D01*
X29138571Y-105505238D01*
X29090952Y-105600476D01*
X29043333Y-105648095D01*
X28948095Y-105695714D01*
X28852857Y-105695714D01*
X28757619Y-105648095D01*
X28710000Y-105600476D01*
X28662380Y-105505238D01*
X28662380Y-105267142D01*
X28710000Y-105124285D01*
X29662380Y-104124285D02*
X29186190Y-104457619D01*
X29662380Y-104695714D02*
X28662380Y-104695714D01*
X28662380Y-104314761D01*
X28710000Y-104219523D01*
X28757619Y-104171904D01*
X28852857Y-104124285D01*
X28995714Y-104124285D01*
X29090952Y-104171904D01*
X29138571Y-104219523D01*
X29186190Y-104314761D01*
X29186190Y-104695714D01*
X29757619Y-103029047D02*
X29710000Y-103124285D01*
X29614761Y-103219523D01*
X29471904Y-103362380D01*
X29424285Y-103457619D01*
X29424285Y-103552857D01*
X29662380Y-103505238D02*
X29614761Y-103600476D01*
X29519523Y-103695714D01*
X29329047Y-103743333D01*
X28995714Y-103743333D01*
X28805238Y-103695714D01*
X28710000Y-103600476D01*
X28662380Y-103505238D01*
X28662380Y-103314761D01*
X28710000Y-103219523D01*
X28805238Y-103124285D01*
X28995714Y-103076666D01*
X29329047Y-103076666D01*
X29519523Y-103124285D01*
X29614761Y-103219523D01*
X29662380Y-103314761D01*
X29662380Y-103505238D01*
D10*
X117041428Y-33468571D02*
X118041428Y-33468571D01*
X117041428Y-34968571D01*
X118041428Y-34968571D01*
X118827142Y-34111428D02*
X118684285Y-34040000D01*
X118612857Y-33968571D01*
X118541428Y-33825714D01*
X118541428Y-33754285D01*
X118612857Y-33611428D01*
X118684285Y-33540000D01*
X118827142Y-33468571D01*
X119112857Y-33468571D01*
X119255714Y-33540000D01*
X119327142Y-33611428D01*
X119398571Y-33754285D01*
X119398571Y-33825714D01*
X119327142Y-33968571D01*
X119255714Y-34040000D01*
X119112857Y-34111428D01*
X118827142Y-34111428D01*
X118684285Y-34182857D01*
X118612857Y-34254285D01*
X118541428Y-34397142D01*
X118541428Y-34682857D01*
X118612857Y-34825714D01*
X118684285Y-34897142D01*
X118827142Y-34968571D01*
X119112857Y-34968571D01*
X119255714Y-34897142D01*
X119327142Y-34825714D01*
X119398571Y-34682857D01*
X119398571Y-34397142D01*
X119327142Y-34254285D01*
X119255714Y-34182857D01*
X119112857Y-34111428D01*
X120327142Y-33468571D02*
X120470000Y-33468571D01*
X120612857Y-33540000D01*
X120684285Y-33611428D01*
X120755714Y-33754285D01*
X120827142Y-34040000D01*
X120827142Y-34397142D01*
X120755714Y-34682857D01*
X120684285Y-34825714D01*
X120612857Y-34897142D01*
X120470000Y-34968571D01*
X120327142Y-34968571D01*
X120184285Y-34897142D01*
X120112857Y-34825714D01*
X120041428Y-34682857D01*
X119970000Y-34397142D01*
X119970000Y-34040000D01*
X120041428Y-33754285D01*
X120112857Y-33611428D01*
X120184285Y-33540000D01*
X120327142Y-33468571D01*
X121470000Y-34968571D02*
X121470000Y-33468571D01*
X121970000Y-34540000D01*
X122470000Y-33468571D01*
X122470000Y-34968571D01*
X123184285Y-34968571D02*
X123184285Y-33968571D01*
X123184285Y-33468571D02*
X123112857Y-33540000D01*
X123184285Y-33611428D01*
X123255714Y-33540000D01*
X123184285Y-33468571D01*
X123184285Y-33611428D01*
X123898571Y-33968571D02*
X123898571Y-34968571D01*
X123898571Y-34111428D02*
X123970000Y-34040000D01*
X124112857Y-33968571D01*
X124327142Y-33968571D01*
X124470000Y-34040000D01*
X124541428Y-34182857D01*
X124541428Y-34968571D01*
X125255714Y-34968571D02*
X125255714Y-33968571D01*
X125255714Y-33468571D02*
X125184285Y-33540000D01*
X125255714Y-33611428D01*
X125327142Y-33540000D01*
X125255714Y-33468571D01*
X125255714Y-33611428D01*
X126470000Y-34182857D02*
X125970000Y-34182857D01*
X125970000Y-34968571D02*
X125970000Y-33468571D01*
X126684285Y-33468571D01*
X127255714Y-34968571D02*
X127255714Y-33968571D01*
X127255714Y-34254285D02*
X127327142Y-34111428D01*
X127398571Y-34040000D01*
X127541428Y-33968571D01*
X127684285Y-33968571D01*
X128827142Y-34968571D02*
X128827142Y-34182857D01*
X128755714Y-34040000D01*
X128612857Y-33968571D01*
X128327142Y-33968571D01*
X128184285Y-34040000D01*
X128827142Y-34897142D02*
X128684285Y-34968571D01*
X128327142Y-34968571D01*
X128184285Y-34897142D01*
X128112857Y-34754285D01*
X128112857Y-34611428D01*
X128184285Y-34468571D01*
X128327142Y-34397142D01*
X128684285Y-34397142D01*
X128827142Y-34325714D01*
X129541428Y-34968571D02*
X129541428Y-33968571D01*
X129541428Y-34111428D02*
X129612857Y-34040000D01*
X129755714Y-33968571D01*
X129970000Y-33968571D01*
X130112857Y-34040000D01*
X130184285Y-34182857D01*
X130184285Y-34968571D01*
X130184285Y-34182857D02*
X130255714Y-34040000D01*
X130398571Y-33968571D01*
X130612857Y-33968571D01*
X130755714Y-34040000D01*
X130827142Y-34182857D01*
X130827142Y-34968571D01*
X132112857Y-34897142D02*
X131970000Y-34968571D01*
X131684285Y-34968571D01*
X131541428Y-34897142D01*
X131470000Y-34754285D01*
X131470000Y-34182857D01*
X131541428Y-34040000D01*
X131684285Y-33968571D01*
X131970000Y-33968571D01*
X132112857Y-34040000D01*
X132184285Y-34182857D01*
X132184285Y-34325714D01*
X131470000Y-34468571D01*
X134470000Y-34182857D02*
X134684285Y-34254285D01*
X134755714Y-34325714D01*
X134827142Y-34468571D01*
X134827142Y-34682857D01*
X134755714Y-34825714D01*
X134684285Y-34897142D01*
X134541428Y-34968571D01*
X133970000Y-34968571D01*
X133970000Y-33468571D01*
X134470000Y-33468571D01*
X134612857Y-33540000D01*
X134684285Y-33611428D01*
X134755714Y-33754285D01*
X134755714Y-33897142D01*
X134684285Y-34040000D01*
X134612857Y-34111428D01*
X134470000Y-34182857D01*
X133970000Y-34182857D01*
X136112857Y-34968571D02*
X136112857Y-34182857D01*
X136041428Y-34040000D01*
X135898571Y-33968571D01*
X135612857Y-33968571D01*
X135470000Y-34040000D01*
X136112857Y-34897142D02*
X135970000Y-34968571D01*
X135612857Y-34968571D01*
X135470000Y-34897142D01*
X135398571Y-34754285D01*
X135398571Y-34611428D01*
X135470000Y-34468571D01*
X135612857Y-34397142D01*
X135970000Y-34397142D01*
X136112857Y-34325714D01*
X137470000Y-34897142D02*
X137327142Y-34968571D01*
X137041428Y-34968571D01*
X136898571Y-34897142D01*
X136827142Y-34825714D01*
X136755714Y-34682857D01*
X136755714Y-34254285D01*
X136827142Y-34111428D01*
X136898571Y-34040000D01*
X137041428Y-33968571D01*
X137327142Y-33968571D01*
X137470000Y-34040000D01*
X138112857Y-34968571D02*
X138112857Y-33468571D01*
X138255714Y-34397142D02*
X138684285Y-34968571D01*
X138684285Y-33968571D02*
X138112857Y-34540000D01*
X139327142Y-33968571D02*
X139327142Y-35468571D01*
X139327142Y-34040000D02*
X139470000Y-33968571D01*
X139755714Y-33968571D01*
X139898571Y-34040000D01*
X139970000Y-34111428D01*
X140041428Y-34254285D01*
X140041428Y-34682857D01*
X139970000Y-34825714D01*
X139898571Y-34897142D01*
X139755714Y-34968571D01*
X139470000Y-34968571D01*
X139327142Y-34897142D01*
X140898571Y-34968571D02*
X140755714Y-34897142D01*
X140684285Y-34754285D01*
X140684285Y-33468571D01*
X142112857Y-34968571D02*
X142112857Y-34182857D01*
X142041428Y-34040000D01*
X141898571Y-33968571D01*
X141612857Y-33968571D01*
X141470000Y-34040000D01*
X142112857Y-34897142D02*
X141970000Y-34968571D01*
X141612857Y-34968571D01*
X141470000Y-34897142D01*
X141398571Y-34754285D01*
X141398571Y-34611428D01*
X141470000Y-34468571D01*
X141612857Y-34397142D01*
X141970000Y-34397142D01*
X142112857Y-34325714D01*
X142827142Y-33968571D02*
X142827142Y-34968571D01*
X142827142Y-34111428D02*
X142898571Y-34040000D01*
X143041428Y-33968571D01*
X143255714Y-33968571D01*
X143398571Y-34040000D01*
X143470000Y-34182857D01*
X143470000Y-34968571D01*
X144755714Y-34897142D02*
X144612857Y-34968571D01*
X144327142Y-34968571D01*
X144184285Y-34897142D01*
X144112857Y-34754285D01*
X144112857Y-34182857D01*
X144184285Y-34040000D01*
X144327142Y-33968571D01*
X144612857Y-33968571D01*
X144755714Y-34040000D01*
X144827142Y-34182857D01*
X144827142Y-34325714D01*
X144112857Y-34468571D01*
X146470000Y-33968571D02*
X146827142Y-34968571D01*
X147184285Y-33968571D01*
X148541428Y-34968571D02*
X147684285Y-34968571D01*
X148112857Y-34968571D02*
X148112857Y-33468571D01*
X147970000Y-33682857D01*
X147827142Y-33825714D01*
X147684285Y-33897142D01*
X149184285Y-34825714D02*
X149255714Y-34897142D01*
X149184285Y-34968571D01*
X149112857Y-34897142D01*
X149184285Y-34825714D01*
X149184285Y-34968571D01*
X150184285Y-33468571D02*
X150327142Y-33468571D01*
X150470000Y-33540000D01*
X150541428Y-33611428D01*
X150612857Y-33754285D01*
X150684285Y-34040000D01*
X150684285Y-34397142D01*
X150612857Y-34682857D01*
X150541428Y-34825714D01*
X150470000Y-34897142D01*
X150327142Y-34968571D01*
X150184285Y-34968571D01*
X150041428Y-34897142D01*
X149970000Y-34825714D01*
X149898571Y-34682857D01*
X149827142Y-34397142D01*
X149827142Y-34040000D01*
X149898571Y-33754285D01*
X149970000Y-33611428D01*
X150041428Y-33540000D01*
X150184285Y-33468571D01*
X152898571Y-35540000D02*
X152827142Y-35468571D01*
X152684285Y-35254285D01*
X152612857Y-35111428D01*
X152541428Y-34897142D01*
X152470000Y-34540000D01*
X152470000Y-34254285D01*
X152541428Y-33897142D01*
X152612857Y-33682857D01*
X152684285Y-33540000D01*
X152827142Y-33325714D01*
X152898571Y-33254285D01*
X153255714Y-33468571D02*
X154112857Y-33468571D01*
X153684285Y-34968571D02*
X153684285Y-33468571D01*
X155470000Y-34825714D02*
X155398571Y-34897142D01*
X155184285Y-34968571D01*
X155041428Y-34968571D01*
X154827142Y-34897142D01*
X154684285Y-34754285D01*
X154612857Y-34611428D01*
X154541428Y-34325714D01*
X154541428Y-34111428D01*
X154612857Y-33825714D01*
X154684285Y-33682857D01*
X154827142Y-33540000D01*
X155041428Y-33468571D01*
X155184285Y-33468571D01*
X155398571Y-33540000D01*
X155470000Y-33611428D01*
X156970000Y-34825714D02*
X156898571Y-34897142D01*
X156684285Y-34968571D01*
X156541428Y-34968571D01*
X156327142Y-34897142D01*
X156184285Y-34754285D01*
X156112857Y-34611428D01*
X156041428Y-34325714D01*
X156041428Y-34111428D01*
X156112857Y-33825714D01*
X156184285Y-33682857D01*
X156327142Y-33540000D01*
X156541428Y-33468571D01*
X156684285Y-33468571D01*
X156898571Y-33540000D01*
X156970000Y-33611428D01*
X158684285Y-33611428D02*
X158755714Y-33540000D01*
X158898571Y-33468571D01*
X159255714Y-33468571D01*
X159398571Y-33540000D01*
X159470000Y-33611428D01*
X159541428Y-33754285D01*
X159541428Y-33897142D01*
X159470000Y-34111428D01*
X158612857Y-34968571D01*
X159541428Y-34968571D01*
X160470000Y-33468571D02*
X160612857Y-33468571D01*
X160755714Y-33540000D01*
X160827142Y-33611428D01*
X160898571Y-33754285D01*
X160970000Y-34040000D01*
X160970000Y-34397142D01*
X160898571Y-34682857D01*
X160827142Y-34825714D01*
X160755714Y-34897142D01*
X160612857Y-34968571D01*
X160470000Y-34968571D01*
X160327142Y-34897142D01*
X160255714Y-34825714D01*
X160184285Y-34682857D01*
X160112857Y-34397142D01*
X160112857Y-34040000D01*
X160184285Y-33754285D01*
X160255714Y-33611428D01*
X160327142Y-33540000D01*
X160470000Y-33468571D01*
X161541428Y-33611428D02*
X161612857Y-33540000D01*
X161755714Y-33468571D01*
X162112857Y-33468571D01*
X162255714Y-33540000D01*
X162327142Y-33611428D01*
X162398571Y-33754285D01*
X162398571Y-33897142D01*
X162327142Y-34111428D01*
X161470000Y-34968571D01*
X162398571Y-34968571D01*
X163327142Y-33468571D02*
X163469999Y-33468571D01*
X163612857Y-33540000D01*
X163684285Y-33611428D01*
X163755714Y-33754285D01*
X163827142Y-34040000D01*
X163827142Y-34397142D01*
X163755714Y-34682857D01*
X163684285Y-34825714D01*
X163612857Y-34897142D01*
X163469999Y-34968571D01*
X163327142Y-34968571D01*
X163184285Y-34897142D01*
X163112857Y-34825714D01*
X163041428Y-34682857D01*
X162969999Y-34397142D01*
X162969999Y-34040000D01*
X163041428Y-33754285D01*
X163112857Y-33611428D01*
X163184285Y-33540000D01*
X163327142Y-33468571D01*
X164327142Y-35540000D02*
X164398571Y-35468571D01*
X164541428Y-35254285D01*
X164612857Y-35111428D01*
X164684285Y-34897142D01*
X164755714Y-34540000D01*
X164755714Y-34254285D01*
X164684285Y-33897142D01*
X164612857Y-33682857D01*
X164541428Y-33540000D01*
X164398571Y-33325714D01*
X164327142Y-33254285D01*
X103160000Y-32428571D02*
X103160000Y-30928571D01*
X103160000Y-31642857D02*
X104017142Y-31642857D01*
X104017142Y-32428571D02*
X104017142Y-30928571D01*
X104660000Y-32000000D02*
X105374285Y-32000000D01*
X104517142Y-32428571D02*
X105017142Y-30928571D01*
X105517142Y-32428571D01*
X106731428Y-32428571D02*
X106017142Y-32428571D01*
X106017142Y-30928571D01*
X107017142Y-30928571D02*
X107874285Y-30928571D01*
X107445714Y-32428571D02*
X107445714Y-30928571D01*
X75470000Y-32428571D02*
X75470000Y-30928571D01*
X76041428Y-30928571D01*
X76184285Y-31000000D01*
X76255714Y-31071428D01*
X76327142Y-31214285D01*
X76327142Y-31428571D01*
X76255714Y-31571428D01*
X76184285Y-31642857D01*
X76041428Y-31714285D01*
X75470000Y-31714285D01*
X76827142Y-30928571D02*
X77184285Y-32428571D01*
X77470000Y-31357142D01*
X77755714Y-32428571D01*
X78112857Y-30928571D01*
X79541428Y-32428571D02*
X79041428Y-31714285D01*
X78684285Y-32428571D02*
X78684285Y-30928571D01*
X79255714Y-30928571D01*
X79398571Y-31000000D01*
X79470000Y-31071428D01*
X79541428Y-31214285D01*
X79541428Y-31428571D01*
X79470000Y-31571428D01*
X79398571Y-31642857D01*
X79255714Y-31714285D01*
X78684285Y-31714285D01*
D12*
X46990000Y-39370000D02*
X57150000Y-39370000D01*
X46990000Y-31750000D02*
X46990000Y-39370000D01*
X57150000Y-31750000D02*
X46990000Y-31750000D01*
X57150000Y-39370000D02*
X57150000Y-31750000D01*
X57150000Y-38100000D02*
X46990000Y-38100000D01*
X104140000Y-48490000D02*
X104140000Y-47720000D01*
X104140000Y-40410000D02*
X104140000Y-41180000D01*
X105510000Y-47720000D02*
X105510000Y-41180000D01*
X102770000Y-47720000D02*
X105510000Y-47720000D01*
X102770000Y-41180000D02*
X102770000Y-47720000D01*
X105510000Y-41180000D02*
X102770000Y-41180000D01*
X54670000Y-106620000D02*
X54670000Y-107950000D01*
X53340000Y-106620000D02*
X54670000Y-106620000D01*
X52070000Y-106620000D02*
X52070000Y-109280000D01*
X52070000Y-109280000D02*
X46930000Y-109280000D01*
X52070000Y-106620000D02*
X46930000Y-106620000D01*
X46930000Y-106620000D02*
X46930000Y-109280000D01*
X61020000Y-113090000D02*
X59690000Y-113090000D01*
X61020000Y-111760000D02*
X61020000Y-113090000D01*
X61020000Y-110490000D02*
X58360000Y-110490000D01*
X58360000Y-110490000D02*
X58360000Y-105350000D01*
X61020000Y-110490000D02*
X61020000Y-105350000D01*
X61020000Y-105350000D02*
X58360000Y-105350000D01*
X60420000Y-63480000D02*
G75*
G03X60420000Y-63480000I-3270000J0D01*
G01*
X52800000Y-63480000D02*
G75*
G03X52800000Y-63480000I-3270000J0D01*
G01*
X54610000Y-54540000D02*
X54610000Y-57354000D01*
X52070000Y-54540000D02*
X52070000Y-57354000D01*
X49530000Y-54540000D02*
X49530000Y-57370000D01*
X56190000Y-43300000D02*
X56190000Y-54540000D01*
X47950000Y-43300000D02*
X47950000Y-54540000D01*
X47950000Y-43300000D02*
X56190000Y-43300000D01*
X47950000Y-54540000D02*
X56190000Y-54540000D01*
X76200000Y-40410000D02*
X76200000Y-41180000D01*
X76200000Y-48490000D02*
X76200000Y-47720000D01*
X74830000Y-41180000D02*
X74830000Y-47720000D01*
X77570000Y-41180000D02*
X74830000Y-41180000D01*
X77570000Y-47720000D02*
X77570000Y-41180000D01*
X74830000Y-47720000D02*
X77570000Y-47720000D01*
X58190000Y-78640000D02*
X58190000Y-81380000D01*
X50950000Y-78640000D02*
X50950000Y-81380000D01*
X50950000Y-81380000D02*
X58190000Y-81380000D01*
X50950000Y-78640000D02*
X58190000Y-78640000D01*
X46840000Y-78640000D02*
X46840000Y-81380000D01*
X39600000Y-78640000D02*
X39600000Y-81380000D01*
X39600000Y-81380000D02*
X46840000Y-81380000D01*
X39600000Y-78640000D02*
X46840000Y-78640000D01*
X114300000Y-48490000D02*
X114300000Y-47720000D01*
X114300000Y-40410000D02*
X114300000Y-41180000D01*
X115670000Y-47720000D02*
X115670000Y-41180000D01*
X112930000Y-47720000D02*
X115670000Y-47720000D01*
X112930000Y-41180000D02*
X112930000Y-47720000D01*
X115670000Y-41180000D02*
X112930000Y-41180000D01*
X109220000Y-40410000D02*
X109220000Y-41180000D01*
X109220000Y-48490000D02*
X109220000Y-47720000D01*
X107850000Y-41180000D02*
X107850000Y-47720000D01*
X110590000Y-41180000D02*
X107850000Y-41180000D01*
X110590000Y-47720000D02*
X110590000Y-41180000D01*
X107850000Y-47720000D02*
X110590000Y-47720000D01*
X114868478Y-37398478D02*
G75*
G03X113030000Y-32960000I-1838478J1838478D01*
G01*
X111191522Y-37398478D02*
G75*
G02X113030000Y-32960000I1838478J1838478D01*
G01*
X111230000Y-37410000D02*
X114830000Y-37410000D01*
X106970000Y-34480000D02*
X106970000Y-34324000D01*
X106970000Y-36796000D02*
X106970000Y-36640000D01*
X104368870Y-34480163D02*
G75*
G02X106450961Y-34480000I1041130J-1079837D01*
G01*
X104368870Y-36639837D02*
G75*
G03X106450961Y-36640000I1041130J1079837D01*
G01*
X103737665Y-34481392D02*
G75*
G02X106970000Y-34324484I1672335J-1078608D01*
G01*
X103737665Y-36638608D02*
G75*
G03X106970000Y-36795516I1672335J1078608D01*
G01*
X33080000Y-109280000D02*
X31750000Y-109280000D01*
X33080000Y-107950000D02*
X33080000Y-109280000D01*
X33080000Y-106680000D02*
X30420000Y-106680000D01*
X30420000Y-106680000D02*
X30420000Y-101540000D01*
X33080000Y-106680000D02*
X33080000Y-101540000D01*
X33080000Y-101540000D02*
X30420000Y-101540000D01*
X58480000Y-82430000D02*
X48200000Y-82430000D01*
X58480000Y-102990000D02*
X58480000Y-82430000D01*
X48200000Y-102990000D02*
X58480000Y-102990000D01*
X48200000Y-82430000D02*
X48200000Y-102990000D01*
X55990000Y-82490000D02*
X54340000Y-82490000D01*
X55990000Y-102930000D02*
X55990000Y-82490000D01*
X50690000Y-102930000D02*
X55990000Y-102930000D01*
X50690000Y-82490000D02*
X50690000Y-102930000D01*
X52340000Y-82490000D02*
X50690000Y-82490000D01*
X54340000Y-82490000D02*
G75*
G02X52340000Y-82490000I-1000000J0D01*
G01*
X47050000Y-82430000D02*
X36770000Y-82430000D01*
X47050000Y-102990000D02*
X47050000Y-82430000D01*
X36770000Y-102990000D02*
X47050000Y-102990000D01*
X36770000Y-82430000D02*
X36770000Y-102990000D01*
X44560000Y-82490000D02*
X42910000Y-82490000D01*
X44560000Y-102930000D02*
X44560000Y-82490000D01*
X39260000Y-102930000D02*
X44560000Y-102930000D01*
X39260000Y-82490000D02*
X39260000Y-102930000D01*
X40910000Y-82490000D02*
X39260000Y-82490000D01*
X42910000Y-82490000D02*
G75*
G02X40910000Y-82490000I-1000000J0D01*
G01*
X164089283Y-118623283D02*
G75*
G03X164089283Y-118623283I-1529283J0D01*
G01*
X159639000Y-122174000D02*
G75*
G02X158242000Y-120777000I0J1397000D01*
G01*
X165481000Y-122174000D02*
X159639000Y-122174000D01*
X166878000Y-120777000D02*
G75*
G02X165481000Y-122174000I-1397000J0D01*
G01*
X159639000Y-50546000D02*
X165481000Y-50546000D01*
X158242000Y-51943000D02*
G75*
G02X159639000Y-50546000I1397000J0D01*
G01*
X165481000Y-50546000D02*
G75*
G02X166878000Y-51943000I0J-1397000D01*
G01*
X164089283Y-54096717D02*
G75*
G03X164089283Y-54096717I-1529283J0D01*
G01*
X166878000Y-120777000D02*
X166878000Y-51943000D01*
X158242000Y-51943000D02*
X158242000Y-120777000D01*
X132339283Y-118623283D02*
G75*
G03X132339283Y-118623283I-1529283J0D01*
G01*
X127889000Y-122174000D02*
G75*
G02X126492000Y-120777000I0J1397000D01*
G01*
X133731000Y-122174000D02*
X127889000Y-122174000D01*
X135128000Y-120777000D02*
G75*
G02X133731000Y-122174000I-1397000J0D01*
G01*
X127889000Y-50546000D02*
X133731000Y-50546000D01*
X126492000Y-51943000D02*
G75*
G02X127889000Y-50546000I1397000J0D01*
G01*
X133731000Y-50546000D02*
G75*
G02X135128000Y-51943000I0J-1397000D01*
G01*
X132339283Y-54096717D02*
G75*
G03X132339283Y-54096717I-1529283J0D01*
G01*
X135128000Y-120777000D02*
X135128000Y-51943000D01*
X126492000Y-51943000D02*
X126492000Y-120777000D01*
X99319283Y-118623283D02*
G75*
G03X99319283Y-118623283I-1529283J0D01*
G01*
X94869000Y-122174000D02*
G75*
G02X93472000Y-120777000I0J1397000D01*
G01*
X100711000Y-122174000D02*
X94869000Y-122174000D01*
X102108000Y-120777000D02*
G75*
G02X100711000Y-122174000I-1397000J0D01*
G01*
X94869000Y-50546000D02*
X100711000Y-50546000D01*
X93472000Y-51943000D02*
G75*
G02X94869000Y-50546000I1397000J0D01*
G01*
X100711000Y-50546000D02*
G75*
G02X102108000Y-51943000I0J-1397000D01*
G01*
X99319283Y-54096717D02*
G75*
G03X99319283Y-54096717I-1529283J0D01*
G01*
X102108000Y-120777000D02*
X102108000Y-51943000D01*
X93472000Y-51943000D02*
X93472000Y-120777000D01*
X68839283Y-118623283D02*
G75*
G03X68839283Y-118623283I-1529283J0D01*
G01*
X64389000Y-122174000D02*
G75*
G02X62992000Y-120777000I0J1397000D01*
G01*
X70231000Y-122174000D02*
X64389000Y-122174000D01*
X71628000Y-120777000D02*
G75*
G02X70231000Y-122174000I-1397000J0D01*
G01*
X64389000Y-50546000D02*
X70231000Y-50546000D01*
X62992000Y-51943000D02*
G75*
G02X64389000Y-50546000I1397000J0D01*
G01*
X70231000Y-50546000D02*
G75*
G02X71628000Y-51943000I0J-1397000D01*
G01*
X68839283Y-54096717D02*
G75*
G03X68839283Y-54096717I-1529283J0D01*
G01*
X71628000Y-120777000D02*
X71628000Y-51943000D01*
X62992000Y-51943000D02*
X62992000Y-120777000D01*
X79030000Y-34480000D02*
X79030000Y-34324000D01*
X79030000Y-36796000D02*
X79030000Y-36640000D01*
X76428870Y-34480163D02*
G75*
G02X78510961Y-34480000I1041130J-1079837D01*
G01*
X76428870Y-36639837D02*
G75*
G03X78510961Y-36640000I1041130J1079837D01*
G01*
X75797665Y-34481392D02*
G75*
G02X79030000Y-34324484I1672335J-1078608D01*
G01*
X75797665Y-36638608D02*
G75*
G03X79030000Y-36795516I1672335J1078608D01*
G01*
X69250000Y-49730000D02*
X69250000Y-46790000D01*
X69010000Y-49730000D02*
X69010000Y-46790000D01*
X69130000Y-49730000D02*
X69130000Y-46790000D01*
X64590000Y-46790000D02*
X64590000Y-47120000D01*
X70030000Y-46790000D02*
X64590000Y-46790000D01*
X70030000Y-47120000D02*
X70030000Y-46790000D01*
X64590000Y-49730000D02*
X64590000Y-49400000D01*
X70030000Y-49730000D02*
X64590000Y-49730000D01*
X70030000Y-49400000D02*
X70030000Y-49730000D01*
X71910000Y-44180000D02*
X69810000Y-44180000D01*
X72210000Y-44480000D02*
X72210000Y-42880000D01*
X70510000Y-44480000D02*
X72210000Y-44480000D01*
X62710000Y-44180000D02*
X62710000Y-42380000D01*
X64810000Y-44180000D02*
X62710000Y-44180000D01*
X71910000Y-29480000D02*
X71910000Y-44180000D01*
X62710000Y-29480000D02*
X71910000Y-29480000D01*
X62710000Y-37980000D02*
X62710000Y-29480000D01*
D11*
X51736666Y-29932380D02*
X51736666Y-30646666D01*
X51689047Y-30789523D01*
X51593809Y-30884761D01*
X51450952Y-30932380D01*
X51355714Y-30932380D01*
X52689047Y-29932380D02*
X52212857Y-29932380D01*
X52165238Y-30408571D01*
X52212857Y-30360952D01*
X52308095Y-30313333D01*
X52546190Y-30313333D01*
X52641428Y-30360952D01*
X52689047Y-30408571D01*
X52736666Y-30503809D01*
X52736666Y-30741904D01*
X52689047Y-30837142D01*
X52641428Y-30884761D01*
X52546190Y-30932380D01*
X52308095Y-30932380D01*
X52212857Y-30884761D01*
X52165238Y-30837142D01*
X102052380Y-44616666D02*
X101576190Y-44950000D01*
X102052380Y-45188095D02*
X101052380Y-45188095D01*
X101052380Y-44807142D01*
X101100000Y-44711904D01*
X101147619Y-44664285D01*
X101242857Y-44616666D01*
X101385714Y-44616666D01*
X101480952Y-44664285D01*
X101528571Y-44711904D01*
X101576190Y-44807142D01*
X101576190Y-45188095D01*
X101385714Y-43759523D02*
X102052380Y-43759523D01*
X101004761Y-43997619D02*
X101719047Y-44235714D01*
X101719047Y-43616666D01*
X49966666Y-109942380D02*
X49966666Y-110656666D01*
X49919047Y-110799523D01*
X49823809Y-110894761D01*
X49680952Y-110942380D01*
X49585714Y-110942380D01*
X50442857Y-110942380D02*
X50442857Y-109942380D01*
X50823809Y-109942380D01*
X50919047Y-109990000D01*
X50966666Y-110037619D01*
X51014285Y-110132857D01*
X51014285Y-110275714D01*
X50966666Y-110370952D01*
X50919047Y-110418571D01*
X50823809Y-110466190D01*
X50442857Y-110466190D01*
X51347619Y-109942380D02*
X51966666Y-109942380D01*
X51633333Y-110323333D01*
X51776190Y-110323333D01*
X51871428Y-110370952D01*
X51919047Y-110418571D01*
X51966666Y-110513809D01*
X51966666Y-110751904D01*
X51919047Y-110847142D01*
X51871428Y-110894761D01*
X51776190Y-110942380D01*
X51490476Y-110942380D01*
X51395238Y-110894761D01*
X51347619Y-110847142D01*
X58856666Y-113542380D02*
X58856666Y-114256666D01*
X58809047Y-114399523D01*
X58713809Y-114494761D01*
X58570952Y-114542380D01*
X58475714Y-114542380D01*
X59332857Y-114542380D02*
X59332857Y-113542380D01*
X59713809Y-113542380D01*
X59809047Y-113590000D01*
X59856666Y-113637619D01*
X59904285Y-113732857D01*
X59904285Y-113875714D01*
X59856666Y-113970952D01*
X59809047Y-114018571D01*
X59713809Y-114066190D01*
X59332857Y-114066190D01*
X60285238Y-113637619D02*
X60332857Y-113590000D01*
X60428095Y-113542380D01*
X60666190Y-113542380D01*
X60761428Y-113590000D01*
X60809047Y-113637619D01*
X60856666Y-113732857D01*
X60856666Y-113828095D01*
X60809047Y-113970952D01*
X60237619Y-114542380D01*
X60856666Y-114542380D01*
X61907142Y-63646666D02*
X61954761Y-63694285D01*
X62002380Y-63837142D01*
X62002380Y-63932380D01*
X61954761Y-64075238D01*
X61859523Y-64170476D01*
X61764285Y-64218095D01*
X61573809Y-64265714D01*
X61430952Y-64265714D01*
X61240476Y-64218095D01*
X61145238Y-64170476D01*
X61050000Y-64075238D01*
X61002380Y-63932380D01*
X61002380Y-63837142D01*
X61050000Y-63694285D01*
X61097619Y-63646666D01*
X61097619Y-63265714D02*
X61050000Y-63218095D01*
X61002380Y-63122857D01*
X61002380Y-62884761D01*
X61050000Y-62789523D01*
X61097619Y-62741904D01*
X61192857Y-62694285D01*
X61288095Y-62694285D01*
X61430952Y-62741904D01*
X62002380Y-63313333D01*
X62002380Y-62694285D01*
X54287142Y-63646666D02*
X54334761Y-63694285D01*
X54382380Y-63837142D01*
X54382380Y-63932380D01*
X54334761Y-64075238D01*
X54239523Y-64170476D01*
X54144285Y-64218095D01*
X53953809Y-64265714D01*
X53810952Y-64265714D01*
X53620476Y-64218095D01*
X53525238Y-64170476D01*
X53430000Y-64075238D01*
X53382380Y-63932380D01*
X53382380Y-63837142D01*
X53430000Y-63694285D01*
X53477619Y-63646666D01*
X54382380Y-62694285D02*
X54382380Y-63265714D01*
X54382380Y-62980000D02*
X53382380Y-62980000D01*
X53525238Y-63075238D01*
X53620476Y-63170476D01*
X53668095Y-63265714D01*
X51308095Y-41752380D02*
X51308095Y-42561904D01*
X51355714Y-42657142D01*
X51403333Y-42704761D01*
X51498571Y-42752380D01*
X51689047Y-42752380D01*
X51784285Y-42704761D01*
X51831904Y-42657142D01*
X51879523Y-42561904D01*
X51879523Y-41752380D01*
X52879523Y-42752380D02*
X52308095Y-42752380D01*
X52593809Y-42752380D02*
X52593809Y-41752380D01*
X52498571Y-41895238D01*
X52403333Y-41990476D01*
X52308095Y-42038095D01*
X74282380Y-44616666D02*
X73806190Y-44950000D01*
X74282380Y-45188095D02*
X73282380Y-45188095D01*
X73282380Y-44807142D01*
X73330000Y-44711904D01*
X73377619Y-44664285D01*
X73472857Y-44616666D01*
X73615714Y-44616666D01*
X73710952Y-44664285D01*
X73758571Y-44711904D01*
X73806190Y-44807142D01*
X73806190Y-45188095D01*
X74282380Y-43664285D02*
X74282380Y-44235714D01*
X74282380Y-43950000D02*
X73282380Y-43950000D01*
X73425238Y-44045238D01*
X73520476Y-44140476D01*
X73568095Y-44235714D01*
X54403333Y-77867142D02*
X54355714Y-77914761D01*
X54212857Y-77962380D01*
X54117619Y-77962380D01*
X53974761Y-77914761D01*
X53879523Y-77819523D01*
X53831904Y-77724285D01*
X53784285Y-77533809D01*
X53784285Y-77390952D01*
X53831904Y-77200476D01*
X53879523Y-77105238D01*
X53974761Y-77010000D01*
X54117619Y-76962380D01*
X54212857Y-76962380D01*
X54355714Y-77010000D01*
X54403333Y-77057619D01*
X55260476Y-77295714D02*
X55260476Y-77962380D01*
X55022380Y-76914761D02*
X54784285Y-77629047D01*
X55403333Y-77629047D01*
X43053333Y-77867142D02*
X43005714Y-77914761D01*
X42862857Y-77962380D01*
X42767619Y-77962380D01*
X42624761Y-77914761D01*
X42529523Y-77819523D01*
X42481904Y-77724285D01*
X42434285Y-77533809D01*
X42434285Y-77390952D01*
X42481904Y-77200476D01*
X42529523Y-77105238D01*
X42624761Y-77010000D01*
X42767619Y-76962380D01*
X42862857Y-76962380D01*
X43005714Y-77010000D01*
X43053333Y-77057619D01*
X43386666Y-76962380D02*
X44005714Y-76962380D01*
X43672380Y-77343333D01*
X43815238Y-77343333D01*
X43910476Y-77390952D01*
X43958095Y-77438571D01*
X44005714Y-77533809D01*
X44005714Y-77771904D01*
X43958095Y-77867142D01*
X43910476Y-77914761D01*
X43815238Y-77962380D01*
X43529523Y-77962380D01*
X43434285Y-77914761D01*
X43386666Y-77867142D01*
X112212380Y-44616666D02*
X111736190Y-44950000D01*
X112212380Y-45188095D02*
X111212380Y-45188095D01*
X111212380Y-44807142D01*
X111260000Y-44711904D01*
X111307619Y-44664285D01*
X111402857Y-44616666D01*
X111545714Y-44616666D01*
X111640952Y-44664285D01*
X111688571Y-44711904D01*
X111736190Y-44807142D01*
X111736190Y-45188095D01*
X111212380Y-44283333D02*
X111212380Y-43664285D01*
X111593333Y-43997619D01*
X111593333Y-43854761D01*
X111640952Y-43759523D01*
X111688571Y-43711904D01*
X111783809Y-43664285D01*
X112021904Y-43664285D01*
X112117142Y-43711904D01*
X112164761Y-43759523D01*
X112212380Y-43854761D01*
X112212380Y-44140476D01*
X112164761Y-44235714D01*
X112117142Y-44283333D01*
X107302380Y-44616666D02*
X106826190Y-44950000D01*
X107302380Y-45188095D02*
X106302380Y-45188095D01*
X106302380Y-44807142D01*
X106350000Y-44711904D01*
X106397619Y-44664285D01*
X106492857Y-44616666D01*
X106635714Y-44616666D01*
X106730952Y-44664285D01*
X106778571Y-44711904D01*
X106826190Y-44807142D01*
X106826190Y-45188095D01*
X106397619Y-44235714D02*
X106350000Y-44188095D01*
X106302380Y-44092857D01*
X106302380Y-43854761D01*
X106350000Y-43759523D01*
X106397619Y-43711904D01*
X106492857Y-43664285D01*
X106588095Y-43664285D01*
X106730952Y-43711904D01*
X107302380Y-44283333D01*
X107302380Y-43664285D01*
X112934761Y-32547619D02*
X112839523Y-32500000D01*
X112744285Y-32404761D01*
X112601428Y-32261904D01*
X112506190Y-32214285D01*
X112410952Y-32214285D01*
X112458571Y-32452380D02*
X112363333Y-32404761D01*
X112268095Y-32309523D01*
X112220476Y-32119047D01*
X112220476Y-31785714D01*
X112268095Y-31595238D01*
X112363333Y-31500000D01*
X112458571Y-31452380D01*
X112649047Y-31452380D01*
X112744285Y-31500000D01*
X112839523Y-31595238D01*
X112887142Y-31785714D01*
X112887142Y-32119047D01*
X112839523Y-32309523D01*
X112744285Y-32404761D01*
X112649047Y-32452380D01*
X112458571Y-32452380D01*
X113839523Y-32452380D02*
X113268095Y-32452380D01*
X113553809Y-32452380D02*
X113553809Y-31452380D01*
X113458571Y-31595238D01*
X113363333Y-31690476D01*
X113268095Y-31738095D01*
X100861904Y-36012380D02*
X100861904Y-35012380D01*
X101100000Y-35012380D01*
X101242857Y-35060000D01*
X101338095Y-35155238D01*
X101385714Y-35250476D01*
X101433333Y-35440952D01*
X101433333Y-35583809D01*
X101385714Y-35774285D01*
X101338095Y-35869523D01*
X101242857Y-35964761D01*
X101100000Y-36012380D01*
X100861904Y-36012380D01*
X101766666Y-35012380D02*
X102385714Y-35012380D01*
X102052380Y-35393333D01*
X102195238Y-35393333D01*
X102290476Y-35440952D01*
X102338095Y-35488571D01*
X102385714Y-35583809D01*
X102385714Y-35821904D01*
X102338095Y-35917142D01*
X102290476Y-35964761D01*
X102195238Y-36012380D01*
X101909523Y-36012380D01*
X101814285Y-35964761D01*
X101766666Y-35917142D01*
X30416666Y-110894761D02*
X30559523Y-110942380D01*
X30797619Y-110942380D01*
X30892857Y-110894761D01*
X30940476Y-110847142D01*
X30988095Y-110751904D01*
X30988095Y-110656666D01*
X30940476Y-110561428D01*
X30892857Y-110513809D01*
X30797619Y-110466190D01*
X30607142Y-110418571D01*
X30511904Y-110370952D01*
X30464285Y-110323333D01*
X30416666Y-110228095D01*
X30416666Y-110132857D01*
X30464285Y-110037619D01*
X30511904Y-109990000D01*
X30607142Y-109942380D01*
X30845238Y-109942380D01*
X30988095Y-109990000D01*
X31321428Y-109942380D02*
X31559523Y-110942380D01*
X31750000Y-110228095D01*
X31940476Y-110942380D01*
X32178571Y-109942380D01*
X33083333Y-110942380D02*
X32511904Y-110942380D01*
X32797619Y-110942380D02*
X32797619Y-109942380D01*
X32702380Y-110085238D01*
X32607142Y-110180476D01*
X32511904Y-110228095D01*
X52578095Y-80942380D02*
X52578095Y-81751904D01*
X52625714Y-81847142D01*
X52673333Y-81894761D01*
X52768571Y-81942380D01*
X52959047Y-81942380D01*
X53054285Y-81894761D01*
X53101904Y-81847142D01*
X53149523Y-81751904D01*
X53149523Y-80942380D01*
X53530476Y-80942380D02*
X54149523Y-80942380D01*
X53816190Y-81323333D01*
X53959047Y-81323333D01*
X54054285Y-81370952D01*
X54101904Y-81418571D01*
X54149523Y-81513809D01*
X54149523Y-81751904D01*
X54101904Y-81847142D01*
X54054285Y-81894761D01*
X53959047Y-81942380D01*
X53673333Y-81942380D01*
X53578095Y-81894761D01*
X53530476Y-81847142D01*
X41148095Y-80942380D02*
X41148095Y-81751904D01*
X41195714Y-81847142D01*
X41243333Y-81894761D01*
X41338571Y-81942380D01*
X41529047Y-81942380D01*
X41624285Y-81894761D01*
X41671904Y-81847142D01*
X41719523Y-81751904D01*
X41719523Y-80942380D01*
X42148095Y-81037619D02*
X42195714Y-80990000D01*
X42290952Y-80942380D01*
X42529047Y-80942380D01*
X42624285Y-80990000D01*
X42671904Y-81037619D01*
X42719523Y-81132857D01*
X42719523Y-81228095D01*
X42671904Y-81370952D01*
X42100476Y-81942380D01*
X42719523Y-81942380D01*
X162226666Y-59432380D02*
X162226666Y-60146666D01*
X162179047Y-60289523D01*
X162083809Y-60384761D01*
X161940952Y-60432380D01*
X161845714Y-60432380D01*
X163131428Y-59765714D02*
X163131428Y-60432380D01*
X162893333Y-59384761D02*
X162655238Y-60099047D01*
X163274285Y-60099047D01*
X157408571Y-120331904D02*
X157408571Y-119998571D01*
X157932380Y-119855714D02*
X157932380Y-120331904D01*
X156932380Y-120331904D01*
X156932380Y-119855714D01*
X156932380Y-119522380D02*
X157932380Y-118855714D01*
X156932380Y-118855714D02*
X157932380Y-119522380D01*
X157932380Y-118474761D02*
X156932380Y-118474761D01*
X156932380Y-118093809D01*
X156980000Y-117998571D01*
X157027619Y-117950952D01*
X157122857Y-117903333D01*
X157265714Y-117903333D01*
X157360952Y-117950952D01*
X157408571Y-117998571D01*
X157456190Y-118093809D01*
X157456190Y-118474761D01*
X157646666Y-117522380D02*
X157646666Y-117046190D01*
X157932380Y-117617619D02*
X156932380Y-117284285D01*
X157932380Y-116950952D01*
X157932380Y-116617619D02*
X156932380Y-116617619D01*
X157932380Y-116046190D01*
X156932380Y-116046190D01*
X157884761Y-115617619D02*
X157932380Y-115474761D01*
X157932380Y-115236666D01*
X157884761Y-115141428D01*
X157837142Y-115093809D01*
X157741904Y-115046190D01*
X157646666Y-115046190D01*
X157551428Y-115093809D01*
X157503809Y-115141428D01*
X157456190Y-115236666D01*
X157408571Y-115427142D01*
X157360952Y-115522380D01*
X157313333Y-115570000D01*
X157218095Y-115617619D01*
X157122857Y-115617619D01*
X157027619Y-115570000D01*
X156980000Y-115522380D01*
X156932380Y-115427142D01*
X156932380Y-115189047D01*
X156980000Y-115046190D01*
X157932380Y-114617619D02*
X156932380Y-114617619D01*
X156932380Y-113950952D02*
X156932380Y-113760476D01*
X156980000Y-113665238D01*
X157075238Y-113570000D01*
X157265714Y-113522380D01*
X157599047Y-113522380D01*
X157789523Y-113570000D01*
X157884761Y-113665238D01*
X157932380Y-113760476D01*
X157932380Y-113950952D01*
X157884761Y-114046190D01*
X157789523Y-114141428D01*
X157599047Y-114189047D01*
X157265714Y-114189047D01*
X157075238Y-114141428D01*
X156980000Y-114046190D01*
X156932380Y-113950952D01*
X157932380Y-113093809D02*
X156932380Y-113093809D01*
X157932380Y-112522380D01*
X156932380Y-112522380D01*
X158027619Y-112284285D02*
X158027619Y-111522380D01*
X157027619Y-111331904D02*
X156980000Y-111284285D01*
X156932380Y-111189047D01*
X156932380Y-110950952D01*
X156980000Y-110855714D01*
X157027619Y-110808095D01*
X157122857Y-110760476D01*
X157218095Y-110760476D01*
X157360952Y-110808095D01*
X157932380Y-111379523D01*
X157932380Y-110760476D01*
X130476666Y-59432380D02*
X130476666Y-60146666D01*
X130429047Y-60289523D01*
X130333809Y-60384761D01*
X130190952Y-60432380D01*
X130095714Y-60432380D01*
X130857619Y-59432380D02*
X131476666Y-59432380D01*
X131143333Y-59813333D01*
X131286190Y-59813333D01*
X131381428Y-59860952D01*
X131429047Y-59908571D01*
X131476666Y-60003809D01*
X131476666Y-60241904D01*
X131429047Y-60337142D01*
X131381428Y-60384761D01*
X131286190Y-60432380D01*
X131000476Y-60432380D01*
X130905238Y-60384761D01*
X130857619Y-60337142D01*
X125658571Y-120331904D02*
X125658571Y-119998571D01*
X126182380Y-119855714D02*
X126182380Y-120331904D01*
X125182380Y-120331904D01*
X125182380Y-119855714D01*
X125182380Y-119522380D02*
X126182380Y-118855714D01*
X125182380Y-118855714D02*
X126182380Y-119522380D01*
X126182380Y-118474761D02*
X125182380Y-118474761D01*
X125182380Y-118093809D01*
X125230000Y-117998571D01*
X125277619Y-117950952D01*
X125372857Y-117903333D01*
X125515714Y-117903333D01*
X125610952Y-117950952D01*
X125658571Y-117998571D01*
X125706190Y-118093809D01*
X125706190Y-118474761D01*
X125896666Y-117522380D02*
X125896666Y-117046190D01*
X126182380Y-117617619D02*
X125182380Y-117284285D01*
X126182380Y-116950952D01*
X126182380Y-116617619D02*
X125182380Y-116617619D01*
X126182380Y-116046190D01*
X125182380Y-116046190D01*
X126134761Y-115617619D02*
X126182380Y-115474761D01*
X126182380Y-115236666D01*
X126134761Y-115141428D01*
X126087142Y-115093809D01*
X125991904Y-115046190D01*
X125896666Y-115046190D01*
X125801428Y-115093809D01*
X125753809Y-115141428D01*
X125706190Y-115236666D01*
X125658571Y-115427142D01*
X125610952Y-115522380D01*
X125563333Y-115570000D01*
X125468095Y-115617619D01*
X125372857Y-115617619D01*
X125277619Y-115570000D01*
X125230000Y-115522380D01*
X125182380Y-115427142D01*
X125182380Y-115189047D01*
X125230000Y-115046190D01*
X126182380Y-114617619D02*
X125182380Y-114617619D01*
X125182380Y-113950952D02*
X125182380Y-113760476D01*
X125230000Y-113665238D01*
X125325238Y-113570000D01*
X125515714Y-113522380D01*
X125849047Y-113522380D01*
X126039523Y-113570000D01*
X126134761Y-113665238D01*
X126182380Y-113760476D01*
X126182380Y-113950952D01*
X126134761Y-114046190D01*
X126039523Y-114141428D01*
X125849047Y-114189047D01*
X125515714Y-114189047D01*
X125325238Y-114141428D01*
X125230000Y-114046190D01*
X125182380Y-113950952D01*
X126182380Y-113093809D02*
X125182380Y-113093809D01*
X126182380Y-112522380D01*
X125182380Y-112522380D01*
X126277619Y-112284285D02*
X126277619Y-111522380D01*
X126182380Y-110760476D02*
X126182380Y-111331904D01*
X126182380Y-111046190D02*
X125182380Y-111046190D01*
X125325238Y-111141428D01*
X125420476Y-111236666D01*
X125468095Y-111331904D01*
X97456666Y-59432380D02*
X97456666Y-60146666D01*
X97409047Y-60289523D01*
X97313809Y-60384761D01*
X97170952Y-60432380D01*
X97075714Y-60432380D01*
X97885238Y-59527619D02*
X97932857Y-59480000D01*
X98028095Y-59432380D01*
X98266190Y-59432380D01*
X98361428Y-59480000D01*
X98409047Y-59527619D01*
X98456666Y-59622857D01*
X98456666Y-59718095D01*
X98409047Y-59860952D01*
X97837619Y-60432380D01*
X98456666Y-60432380D01*
X92210000Y-119902857D02*
X92162380Y-119998095D01*
X92162380Y-120140952D01*
X92210000Y-120283809D01*
X92305238Y-120379047D01*
X92400476Y-120426666D01*
X92590952Y-120474285D01*
X92733809Y-120474285D01*
X92924285Y-120426666D01*
X93019523Y-120379047D01*
X93114761Y-120283809D01*
X93162380Y-120140952D01*
X93162380Y-120045714D01*
X93114761Y-119902857D01*
X93067142Y-119855238D01*
X92733809Y-119855238D01*
X92733809Y-120045714D01*
X93162380Y-118855238D02*
X92686190Y-119188571D01*
X93162380Y-119426666D02*
X92162380Y-119426666D01*
X92162380Y-119045714D01*
X92210000Y-118950476D01*
X92257619Y-118902857D01*
X92352857Y-118855238D01*
X92495714Y-118855238D01*
X92590952Y-118902857D01*
X92638571Y-118950476D01*
X92686190Y-119045714D01*
X92686190Y-119426666D01*
X92876666Y-118474285D02*
X92876666Y-117998095D01*
X93162380Y-118569523D02*
X92162380Y-118236190D01*
X93162380Y-117902857D01*
X93162380Y-117569523D02*
X92162380Y-117569523D01*
X92162380Y-117188571D01*
X92210000Y-117093333D01*
X92257619Y-117045714D01*
X92352857Y-116998095D01*
X92495714Y-116998095D01*
X92590952Y-117045714D01*
X92638571Y-117093333D01*
X92686190Y-117188571D01*
X92686190Y-117569523D01*
X93162380Y-116569523D02*
X92162380Y-116569523D01*
X92638571Y-116569523D02*
X92638571Y-115998095D01*
X93162380Y-115998095D02*
X92162380Y-115998095D01*
X93162380Y-115521904D02*
X92162380Y-115521904D01*
X93067142Y-114474285D02*
X93114761Y-114521904D01*
X93162380Y-114664761D01*
X93162380Y-114760000D01*
X93114761Y-114902857D01*
X93019523Y-114998095D01*
X92924285Y-115045714D01*
X92733809Y-115093333D01*
X92590952Y-115093333D01*
X92400476Y-115045714D01*
X92305238Y-114998095D01*
X92210000Y-114902857D01*
X92162380Y-114760000D01*
X92162380Y-114664761D01*
X92210000Y-114521904D01*
X92257619Y-114474285D01*
X93114761Y-114093333D02*
X93162380Y-113950476D01*
X93162380Y-113712380D01*
X93114761Y-113617142D01*
X93067142Y-113569523D01*
X92971904Y-113521904D01*
X92876666Y-113521904D01*
X92781428Y-113569523D01*
X92733809Y-113617142D01*
X92686190Y-113712380D01*
X92638571Y-113902857D01*
X92590952Y-113998095D01*
X92543333Y-114045714D01*
X92448095Y-114093333D01*
X92352857Y-114093333D01*
X92257619Y-114045714D01*
X92210000Y-113998095D01*
X92162380Y-113902857D01*
X92162380Y-113664761D01*
X92210000Y-113521904D01*
X93257619Y-113331428D02*
X93257619Y-112569523D01*
X93114761Y-112379047D02*
X93162380Y-112236190D01*
X93162380Y-111998095D01*
X93114761Y-111902857D01*
X93067142Y-111855238D01*
X92971904Y-111807619D01*
X92876666Y-111807619D01*
X92781428Y-111855238D01*
X92733809Y-111902857D01*
X92686190Y-111998095D01*
X92638571Y-112188571D01*
X92590952Y-112283809D01*
X92543333Y-112331428D01*
X92448095Y-112379047D01*
X92352857Y-112379047D01*
X92257619Y-112331428D01*
X92210000Y-112283809D01*
X92162380Y-112188571D01*
X92162380Y-111950476D01*
X92210000Y-111807619D01*
X92162380Y-111188571D02*
X92162380Y-110998095D01*
X92210000Y-110902857D01*
X92305238Y-110807619D01*
X92495714Y-110760000D01*
X92829047Y-110760000D01*
X93019523Y-110807619D01*
X93114761Y-110902857D01*
X93162380Y-110998095D01*
X93162380Y-111188571D01*
X93114761Y-111283809D01*
X93019523Y-111379047D01*
X92829047Y-111426666D01*
X92495714Y-111426666D01*
X92305238Y-111379047D01*
X92210000Y-111283809D01*
X92162380Y-111188571D01*
X92162380Y-110331428D02*
X92971904Y-110331428D01*
X93067142Y-110283809D01*
X93114761Y-110236190D01*
X93162380Y-110140952D01*
X93162380Y-109950476D01*
X93114761Y-109855238D01*
X93067142Y-109807619D01*
X92971904Y-109760000D01*
X92162380Y-109760000D01*
X93162380Y-109283809D02*
X92162380Y-109283809D01*
X93162380Y-108712380D01*
X92162380Y-108712380D01*
X93162380Y-108236190D02*
X92162380Y-108236190D01*
X92162380Y-107998095D01*
X92210000Y-107855238D01*
X92305238Y-107760000D01*
X92400476Y-107712380D01*
X92590952Y-107664761D01*
X92733809Y-107664761D01*
X92924285Y-107712380D01*
X93019523Y-107760000D01*
X93114761Y-107855238D01*
X93162380Y-107998095D01*
X93162380Y-108236190D01*
X93257619Y-107474285D02*
X93257619Y-106712380D01*
X93067142Y-105902857D02*
X93114761Y-105950476D01*
X93162380Y-106093333D01*
X93162380Y-106188571D01*
X93114761Y-106331428D01*
X93019523Y-106426666D01*
X92924285Y-106474285D01*
X92733809Y-106521904D01*
X92590952Y-106521904D01*
X92400476Y-106474285D01*
X92305238Y-106426666D01*
X92210000Y-106331428D01*
X92162380Y-106188571D01*
X92162380Y-106093333D01*
X92210000Y-105950476D01*
X92257619Y-105902857D01*
X92876666Y-105521904D02*
X92876666Y-105045714D01*
X93162380Y-105617142D02*
X92162380Y-105283809D01*
X93162380Y-104950476D01*
X93162380Y-104045714D02*
X92686190Y-104379047D01*
X93162380Y-104617142D02*
X92162380Y-104617142D01*
X92162380Y-104236190D01*
X92210000Y-104140952D01*
X92257619Y-104093333D01*
X92352857Y-104045714D01*
X92495714Y-104045714D01*
X92590952Y-104093333D01*
X92638571Y-104140952D01*
X92686190Y-104236190D01*
X92686190Y-104617142D01*
X93162380Y-103617142D02*
X92162380Y-103617142D01*
X92162380Y-103379047D01*
X92210000Y-103236190D01*
X92305238Y-103140952D01*
X92400476Y-103093333D01*
X92590952Y-103045714D01*
X92733809Y-103045714D01*
X92924285Y-103093333D01*
X93019523Y-103140952D01*
X93114761Y-103236190D01*
X93162380Y-103379047D01*
X93162380Y-103617142D01*
X112966666Y-100592380D02*
X112633333Y-100116190D01*
X112395238Y-100592380D02*
X112395238Y-99592380D01*
X112776190Y-99592380D01*
X112871428Y-99640000D01*
X112919047Y-99687619D01*
X112966666Y-99782857D01*
X112966666Y-99925714D01*
X112919047Y-100020952D01*
X112871428Y-100068571D01*
X112776190Y-100116190D01*
X112395238Y-100116190D01*
X113395238Y-100068571D02*
X113728571Y-100068571D01*
X113871428Y-100592380D02*
X113395238Y-100592380D01*
X113395238Y-99592380D01*
X113871428Y-99592380D01*
X114633333Y-100068571D02*
X114300000Y-100068571D01*
X114300000Y-100592380D02*
X114300000Y-99592380D01*
X114776190Y-99592380D01*
X115300000Y-99592380D02*
X115300000Y-99830476D01*
X115061904Y-99735238D02*
X115300000Y-99830476D01*
X115538095Y-99735238D01*
X115157142Y-100020952D02*
X115300000Y-99830476D01*
X115442857Y-100020952D01*
X116061904Y-99592380D02*
X116061904Y-99830476D01*
X115823809Y-99735238D02*
X116061904Y-99830476D01*
X116300000Y-99735238D01*
X115919047Y-100020952D02*
X116061904Y-99830476D01*
X116204761Y-100020952D01*
X66976666Y-59432380D02*
X66976666Y-60146666D01*
X66929047Y-60289523D01*
X66833809Y-60384761D01*
X66690952Y-60432380D01*
X66595714Y-60432380D01*
X67976666Y-60432380D02*
X67405238Y-60432380D01*
X67690952Y-60432380D02*
X67690952Y-59432380D01*
X67595714Y-59575238D01*
X67500476Y-59670476D01*
X67405238Y-59718095D01*
X62587142Y-120498571D02*
X62634761Y-120546190D01*
X62682380Y-120689047D01*
X62682380Y-120784285D01*
X62634761Y-120927142D01*
X62539523Y-121022380D01*
X62444285Y-121070000D01*
X62253809Y-121117619D01*
X62110952Y-121117619D01*
X61920476Y-121070000D01*
X61825238Y-121022380D01*
X61730000Y-120927142D01*
X61682380Y-120784285D01*
X61682380Y-120689047D01*
X61730000Y-120546190D01*
X61777619Y-120498571D01*
X62682380Y-120070000D02*
X61682380Y-120070000D01*
X61682380Y-119689047D01*
X61730000Y-119593809D01*
X61777619Y-119546190D01*
X61872857Y-119498571D01*
X62015714Y-119498571D01*
X62110952Y-119546190D01*
X62158571Y-119593809D01*
X62206190Y-119689047D01*
X62206190Y-120070000D01*
X61682380Y-119070000D02*
X62491904Y-119070000D01*
X62587142Y-119022380D01*
X62634761Y-118974761D01*
X62682380Y-118879523D01*
X62682380Y-118689047D01*
X62634761Y-118593809D01*
X62587142Y-118546190D01*
X62491904Y-118498571D01*
X61682380Y-118498571D01*
X62301428Y-118022380D02*
X62301428Y-117260476D01*
X62682380Y-116784285D02*
X61682380Y-116784285D01*
X61682380Y-116117619D02*
X61682380Y-115927142D01*
X61730000Y-115831904D01*
X61825238Y-115736666D01*
X62015714Y-115689047D01*
X62349047Y-115689047D01*
X62539523Y-115736666D01*
X62634761Y-115831904D01*
X62682380Y-115927142D01*
X62682380Y-116117619D01*
X62634761Y-116212857D01*
X62539523Y-116308095D01*
X62349047Y-116355714D01*
X62015714Y-116355714D01*
X61825238Y-116308095D01*
X61730000Y-116212857D01*
X61682380Y-116117619D01*
X62158571Y-114165238D02*
X62206190Y-114022380D01*
X62253809Y-113974761D01*
X62349047Y-113927142D01*
X62491904Y-113927142D01*
X62587142Y-113974761D01*
X62634761Y-114022380D01*
X62682380Y-114117619D01*
X62682380Y-114498571D01*
X61682380Y-114498571D01*
X61682380Y-114165238D01*
X61730000Y-114070000D01*
X61777619Y-114022380D01*
X61872857Y-113974761D01*
X61968095Y-113974761D01*
X62063333Y-114022380D01*
X62110952Y-114070000D01*
X62158571Y-114165238D01*
X62158571Y-114498571D01*
X61682380Y-113308095D02*
X61682380Y-113117619D01*
X61730000Y-113022380D01*
X61825238Y-112927142D01*
X62015714Y-112879523D01*
X62349047Y-112879523D01*
X62539523Y-112927142D01*
X62634761Y-113022380D01*
X62682380Y-113117619D01*
X62682380Y-113308095D01*
X62634761Y-113403333D01*
X62539523Y-113498571D01*
X62349047Y-113546190D01*
X62015714Y-113546190D01*
X61825238Y-113498571D01*
X61730000Y-113403333D01*
X61682380Y-113308095D01*
X62396666Y-112498571D02*
X62396666Y-112022380D01*
X62682380Y-112593809D02*
X61682380Y-112260476D01*
X62682380Y-111927142D01*
X62682380Y-111022380D02*
X62206190Y-111355714D01*
X62682380Y-111593809D02*
X61682380Y-111593809D01*
X61682380Y-111212857D01*
X61730000Y-111117619D01*
X61777619Y-111070000D01*
X61872857Y-111022380D01*
X62015714Y-111022380D01*
X62110952Y-111070000D01*
X62158571Y-111117619D01*
X62206190Y-111212857D01*
X62206190Y-111593809D01*
X62682380Y-110593809D02*
X61682380Y-110593809D01*
X61682380Y-110355714D01*
X61730000Y-110212857D01*
X61825238Y-110117619D01*
X61920476Y-110070000D01*
X62110952Y-110022380D01*
X62253809Y-110022380D01*
X62444285Y-110070000D01*
X62539523Y-110117619D01*
X62634761Y-110212857D01*
X62682380Y-110355714D01*
X62682380Y-110593809D01*
X32956666Y-113292380D02*
X32623333Y-112816190D01*
X32385238Y-113292380D02*
X32385238Y-112292380D01*
X32766190Y-112292380D01*
X32861428Y-112340000D01*
X32909047Y-112387619D01*
X32956666Y-112482857D01*
X32956666Y-112625714D01*
X32909047Y-112720952D01*
X32861428Y-112768571D01*
X32766190Y-112816190D01*
X32385238Y-112816190D01*
X33385238Y-112768571D02*
X33718571Y-112768571D01*
X33861428Y-113292380D02*
X33385238Y-113292380D01*
X33385238Y-112292380D01*
X33861428Y-112292380D01*
X34623333Y-112768571D02*
X34290000Y-112768571D01*
X34290000Y-113292380D02*
X34290000Y-112292380D01*
X34766190Y-112292380D01*
X35290000Y-112292380D02*
X35290000Y-112530476D01*
X35051904Y-112435238D02*
X35290000Y-112530476D01*
X35528095Y-112435238D01*
X35147142Y-112720952D02*
X35290000Y-112530476D01*
X35432857Y-112720952D01*
X36051904Y-112292380D02*
X36051904Y-112530476D01*
X35813809Y-112435238D02*
X36051904Y-112530476D01*
X36290000Y-112435238D01*
X35909047Y-112720952D02*
X36051904Y-112530476D01*
X36194761Y-112720952D01*
X32956666Y-33282380D02*
X32623333Y-32806190D01*
X32385238Y-33282380D02*
X32385238Y-32282380D01*
X32766190Y-32282380D01*
X32861428Y-32330000D01*
X32909047Y-32377619D01*
X32956666Y-32472857D01*
X32956666Y-32615714D01*
X32909047Y-32710952D01*
X32861428Y-32758571D01*
X32766190Y-32806190D01*
X32385238Y-32806190D01*
X33385238Y-32758571D02*
X33718571Y-32758571D01*
X33861428Y-33282380D02*
X33385238Y-33282380D01*
X33385238Y-32282380D01*
X33861428Y-32282380D01*
X34623333Y-32758571D02*
X34290000Y-32758571D01*
X34290000Y-33282380D02*
X34290000Y-32282380D01*
X34766190Y-32282380D01*
X35290000Y-32282380D02*
X35290000Y-32520476D01*
X35051904Y-32425238D02*
X35290000Y-32520476D01*
X35528095Y-32425238D01*
X35147142Y-32710952D02*
X35290000Y-32520476D01*
X35432857Y-32710952D01*
X36051904Y-32282380D02*
X36051904Y-32520476D01*
X35813809Y-32425238D02*
X36051904Y-32520476D01*
X36290000Y-32425238D01*
X35909047Y-32710952D02*
X36051904Y-32520476D01*
X36194761Y-32710952D01*
X168846666Y-33282380D02*
X168513333Y-32806190D01*
X168275238Y-33282380D02*
X168275238Y-32282380D01*
X168656190Y-32282380D01*
X168751428Y-32330000D01*
X168799047Y-32377619D01*
X168846666Y-32472857D01*
X168846666Y-32615714D01*
X168799047Y-32710952D01*
X168751428Y-32758571D01*
X168656190Y-32806190D01*
X168275238Y-32806190D01*
X169275238Y-32758571D02*
X169608571Y-32758571D01*
X169751428Y-33282380D02*
X169275238Y-33282380D01*
X169275238Y-32282380D01*
X169751428Y-32282380D01*
X170513333Y-32758571D02*
X170180000Y-32758571D01*
X170180000Y-33282380D02*
X170180000Y-32282380D01*
X170656190Y-32282380D01*
X171180000Y-32282380D02*
X171180000Y-32520476D01*
X170941904Y-32425238D02*
X171180000Y-32520476D01*
X171418095Y-32425238D01*
X171037142Y-32710952D02*
X171180000Y-32520476D01*
X171322857Y-32710952D01*
X171941904Y-32282380D02*
X171941904Y-32520476D01*
X171703809Y-32425238D02*
X171941904Y-32520476D01*
X172180000Y-32425238D01*
X171799047Y-32710952D02*
X171941904Y-32520476D01*
X172084761Y-32710952D01*
X72921904Y-36012380D02*
X72921904Y-35012380D01*
X73160000Y-35012380D01*
X73302857Y-35060000D01*
X73398095Y-35155238D01*
X73445714Y-35250476D01*
X73493333Y-35440952D01*
X73493333Y-35583809D01*
X73445714Y-35774285D01*
X73398095Y-35869523D01*
X73302857Y-35964761D01*
X73160000Y-36012380D01*
X72921904Y-36012380D01*
X73874285Y-35107619D02*
X73921904Y-35060000D01*
X74017142Y-35012380D01*
X74255238Y-35012380D01*
X74350476Y-35060000D01*
X74398095Y-35107619D01*
X74445714Y-35202857D01*
X74445714Y-35298095D01*
X74398095Y-35440952D01*
X73826666Y-36012380D01*
X74445714Y-36012380D01*
X66571904Y-51182380D02*
X66571904Y-50182380D01*
X66810000Y-50182380D01*
X66952857Y-50230000D01*
X67048095Y-50325238D01*
X67095714Y-50420476D01*
X67143333Y-50610952D01*
X67143333Y-50753809D01*
X67095714Y-50944285D01*
X67048095Y-51039523D01*
X66952857Y-51134761D01*
X66810000Y-51182380D01*
X66571904Y-51182380D01*
X68095714Y-51182380D02*
X67524285Y-51182380D01*
X67810000Y-51182380D02*
X67810000Y-50182380D01*
X67714761Y-50325238D01*
X67619523Y-50420476D01*
X67524285Y-50468095D01*
X70858095Y-50612380D02*
X70858095Y-49612380D01*
X71429523Y-50612380D02*
X71000952Y-50040952D01*
X71429523Y-49612380D02*
X70858095Y-50183809D01*
X66476666Y-45132380D02*
X66476666Y-45846666D01*
X66429047Y-45989523D01*
X66333809Y-46084761D01*
X66190952Y-46132380D01*
X66095714Y-46132380D01*
X66952857Y-46132380D02*
X66952857Y-45132380D01*
X67333809Y-45132380D01*
X67429047Y-45180000D01*
X67476666Y-45227619D01*
X67524285Y-45322857D01*
X67524285Y-45465714D01*
X67476666Y-45560952D01*
X67429047Y-45608571D01*
X67333809Y-45656190D01*
X66952857Y-45656190D01*
X68476666Y-46132380D02*
X67905238Y-46132380D01*
X68190952Y-46132380D02*
X68190952Y-45132380D01*
X68095714Y-45275238D01*
X68000476Y-45370476D01*
X67905238Y-45418095D01*
M02*
