M48
INCH,TZ
T1C0.0157
T2C0.0295
T3C0.0315
T4C0.0354
T5C0.0394
T6C0.0598
T7C0.1181
%
G90
G05
T1
X20000Y-41000
X20500Y-40500
X21000Y-29500
X24500Y-46500
X29000Y-41500
X37000Y-46500
X37500Y-23500
X45000Y-23000
X50500Y-23500
X50500Y-46000
X52500Y-45500
X62500Y-23500
T2
X44000Y-14000
X44500Y-14000
X45000Y-14000
T3
X20500Y-31500
X22469Y-31500
X41000Y-15500
X41000Y-19500
X19500Y-24500
X19500Y-25484
X45000Y-15500
X45000Y-19500
X15000Y-33000
X15000Y-34000
X15000Y-35000
X15000Y-36000
X15000Y-37000
X15000Y-38000
X15000Y-39000
X15000Y-40000
X18000Y-33000
X18000Y-34000
X18000Y-35000
X18000Y-36000
X18000Y-37000
X18000Y-38000
X18000Y-39000
X18000Y-40000
X16031Y-31500
X18000Y-31500
X19500Y-33000
X19500Y-34000
X19500Y-35000
X19500Y-36000
X19500Y-37000
X19500Y-38000
X19500Y-39000
X19500Y-40000
X22500Y-33000
X22500Y-34000
X22500Y-35000
X22500Y-36000
X22500Y-37000
X22500Y-38000
X22500Y-39000
X22500Y-40000
X30000Y-15500
X30000Y-19500
X43000Y-15500
X43000Y-19500
X22500Y-24500
X22500Y-25484
T4
X25000Y-19000
X28000Y-19000
X30000Y-14000
X31000Y-14000
X41000Y-14000
X42000Y-14000
T5
X25516Y-24500
X25516Y-25500
X25516Y-26500
X25516Y-27500
X25516Y-28500
X25516Y-29500
X25516Y-30500
X25516Y-31500
X25516Y-32500
X25516Y-33500
X25516Y-34500
X25516Y-35500
X25516Y-36500
X25516Y-37500
X25516Y-38500
X25516Y-39500
X25516Y-40500
X25516Y-41500
X25516Y-42500
X25516Y-43500
X26500Y-21300
X27484Y-24500
X27484Y-25500
X27484Y-26500
X27484Y-27500
X27484Y-28500
X27484Y-29500
X27484Y-30500
X27484Y-31500
X27484Y-32500
X27484Y-33500
X27484Y-34500
X27484Y-35500
X27484Y-36500
X27484Y-37500
X27484Y-38500
X27484Y-39500
X27484Y-40500
X27484Y-41500
X27484Y-42500
X27484Y-43500
X37516Y-24500
X37516Y-25500
X37516Y-26500
X37516Y-27500
X37516Y-28500
X37516Y-29500
X37516Y-30500
X37516Y-31500
X37516Y-32500
X37516Y-33500
X37516Y-34500
X37516Y-35500
X37516Y-36500
X37516Y-37500
X37516Y-38500
X37516Y-39500
X37516Y-40500
X37516Y-41500
X37516Y-42500
X37516Y-43500
X39484Y-24500
X39484Y-25500
X39484Y-26500
X39484Y-27500
X39484Y-28500
X39484Y-29500
X39484Y-30500
X39484Y-31500
X39484Y-32500
X39484Y-33500
X39484Y-34500
X39484Y-35500
X39484Y-36500
X39484Y-37500
X39484Y-38500
X39484Y-39500
X39484Y-40500
X39484Y-41500
X39484Y-42500
X39484Y-43500
X63016Y-24500
X63016Y-25500
X63016Y-26500
X63016Y-27500
X63016Y-28500
X63016Y-29500
X63016Y-30500
X63016Y-31500
X63016Y-32500
X63016Y-33500
X63016Y-34500
X63016Y-35500
X63016Y-36500
X63016Y-37500
X63016Y-38500
X63016Y-39500
X63016Y-40500
X63016Y-41500
X63016Y-42500
X63016Y-43500
X64984Y-24500
X64984Y-25500
X64984Y-26500
X64984Y-27500
X64984Y-28500
X64984Y-29500
X64984Y-30500
X64984Y-31500
X64984Y-32500
X64984Y-33500
X64984Y-34500
X64984Y-35500
X64984Y-36500
X64984Y-37500
X64984Y-38500
X64984Y-39500
X64984Y-40500
X64984Y-41500
X64984Y-42500
X64984Y-43500
X12500Y-40500
X12500Y-41500
X12500Y-42500
X19000Y-42500
X20000Y-42500
X21000Y-42500
X50516Y-24500
X50516Y-25500
X50516Y-26500
X50516Y-27500
X50516Y-28500
X50516Y-29500
X50516Y-30500
X50516Y-31500
X50516Y-32500
X50516Y-33500
X50516Y-34500
X50516Y-35500
X50516Y-36500
X50516Y-37500
X50516Y-38500
X50516Y-39500
X50516Y-40500
X50516Y-41500
X50516Y-42500
X50516Y-43500
X52484Y-24500
X52484Y-25500
X52484Y-26500
X52484Y-27500
X52484Y-28500
X52484Y-29500
X52484Y-30500
X52484Y-31500
X52484Y-32500
X52484Y-33500
X52484Y-34500
X52484Y-35500
X52484Y-36500
X52484Y-37500
X52484Y-38500
X52484Y-39500
X52484Y-40500
X52484Y-41500
X52484Y-42500
X52484Y-43500
X19500Y-23000
X20500Y-23000
X21500Y-23000
X23500Y-42000
X23500Y-43000
X23500Y-44000
T6
X19500Y-14000
X21500Y-14000
T7
X45000Y-41000
X67000Y-14500
X13500Y-46000
X13500Y-14500
T3
G00X24610Y-15386
M15
G01X24610Y-16252
M16
G05
G00X26933Y-14717
M15
G01X26067Y-14717
M16
G05
G00X27012Y-17000
M15
G01X25988Y-17000
M16
G05
T0
M30
