%FSLAX45Y45*%
G04 Gerber Fmt 4.5, Leading zero omitted, Abs format (unit mm)*
G04 Created by KiCad (PCBNEW (5.1.4)-1) date 2020-01-21 02:51:56*
%MOMM*%
%LPD*%
G04 APERTURE LIST*
%ADD10C,0.050000*%
%ADD11C,0.200000*%
%ADD12C,0.300000*%
G04 APERTURE END LIST*
D10*
X17780000Y-2921000D02*
X2667000Y-2921000D01*
X17780000Y-12319000D02*
X17780000Y-2921000D01*
X2667000Y-12319000D02*
X17780000Y-12319000D01*
X2667000Y-2921000D02*
X2667000Y-12319000D01*
D11*
X5060000Y-10394000D02*
X5100000Y-10434000D01*
X5100000Y-10394000D02*
X5060000Y-10434000D01*
X5187000Y-10267000D02*
X5227000Y-10307000D01*
X5227000Y-10267000D02*
X5187000Y-10307000D01*
X5314000Y-7473000D02*
X5354000Y-7513000D01*
X5354000Y-7473000D02*
X5314000Y-7513000D01*
X6203000Y-11791000D02*
X6243000Y-11831000D01*
X6243000Y-11791000D02*
X6203000Y-11831000D01*
X7346000Y-10521000D02*
X7386000Y-10561000D01*
X7386000Y-10521000D02*
X7346000Y-10561000D01*
X9378000Y-11791000D02*
X9418000Y-11831000D01*
X9418000Y-11791000D02*
X9378000Y-11831000D01*
X9505000Y-5949000D02*
X9545000Y-5989000D01*
X9545000Y-5949000D02*
X9505000Y-5989000D01*
X11410000Y-5822000D02*
X11450000Y-5862000D01*
X11450000Y-5822000D02*
X11410000Y-5862000D01*
X12807000Y-5949000D02*
X12847000Y-5989000D01*
X12847000Y-5949000D02*
X12807000Y-5989000D01*
X12807000Y-11664000D02*
X12847000Y-11704000D01*
X12847000Y-11664000D02*
X12807000Y-11704000D01*
X13315000Y-11537000D02*
X13355000Y-11577000D01*
X13355000Y-11537000D02*
X13315000Y-11577000D01*
X15855000Y-5949000D02*
X15895000Y-5989000D01*
X15895000Y-5949000D02*
X15855000Y-5989000D01*
X11213500Y-3556000D02*
G75*
G03X11213500Y-3556000I-37500J0D01*
G01*
X11340500Y-3556000D02*
G75*
G03X11340500Y-3556000I-37500J0D01*
G01*
X11467500Y-3556000D02*
G75*
G03X11467500Y-3556000I-37500J0D01*
G01*
X5207000Y-7961000D02*
X5207000Y-8041000D01*
X5167000Y-8001000D02*
X5247000Y-8001000D01*
X5707000Y-7961000D02*
X5707000Y-8041000D01*
X5667000Y-8001000D02*
X5747000Y-8001000D01*
X10414000Y-3897000D02*
X10414000Y-3977000D01*
X10374000Y-3937000D02*
X10454000Y-3937000D01*
X10414000Y-4913000D02*
X10414000Y-4993000D01*
X10374000Y-4953000D02*
X10454000Y-4953000D01*
X4953000Y-6183000D02*
X4953000Y-6263000D01*
X4913000Y-6223000D02*
X4993000Y-6223000D01*
X4953000Y-6433000D02*
X4953000Y-6513000D01*
X4913000Y-6473000D02*
X4993000Y-6473000D01*
X11430000Y-3897000D02*
X11430000Y-3977000D01*
X11390000Y-3937000D02*
X11470000Y-3937000D01*
X11430000Y-4913000D02*
X11430000Y-4993000D01*
X11390000Y-4953000D02*
X11470000Y-4953000D01*
X3810000Y-8342000D02*
X3810000Y-8422000D01*
X3770000Y-8382000D02*
X3850000Y-8382000D01*
X3810000Y-8596000D02*
X3810000Y-8676000D01*
X3770000Y-8636000D02*
X3850000Y-8636000D01*
X3810000Y-8850000D02*
X3810000Y-8930000D01*
X3770000Y-8890000D02*
X3850000Y-8890000D01*
X3810000Y-9104000D02*
X3810000Y-9184000D01*
X3770000Y-9144000D02*
X3850000Y-9144000D01*
X3810000Y-9358000D02*
X3810000Y-9438000D01*
X3770000Y-9398000D02*
X3850000Y-9398000D01*
X3810000Y-9612000D02*
X3810000Y-9692000D01*
X3770000Y-9652000D02*
X3850000Y-9652000D01*
X3810000Y-9866000D02*
X3810000Y-9946000D01*
X3770000Y-9906000D02*
X3850000Y-9906000D01*
X3810000Y-10120000D02*
X3810000Y-10200000D01*
X3770000Y-10160000D02*
X3850000Y-10160000D01*
X4572000Y-8342000D02*
X4572000Y-8422000D01*
X4532000Y-8382000D02*
X4612000Y-8382000D01*
X4572000Y-8596000D02*
X4572000Y-8676000D01*
X4532000Y-8636000D02*
X4612000Y-8636000D01*
X4572000Y-8850000D02*
X4572000Y-8930000D01*
X4532000Y-8890000D02*
X4612000Y-8890000D01*
X4572000Y-9104000D02*
X4572000Y-9184000D01*
X4532000Y-9144000D02*
X4612000Y-9144000D01*
X4572000Y-9358000D02*
X4572000Y-9438000D01*
X4532000Y-9398000D02*
X4612000Y-9398000D01*
X4572000Y-9612000D02*
X4572000Y-9692000D01*
X4532000Y-9652000D02*
X4612000Y-9652000D01*
X4572000Y-9866000D02*
X4572000Y-9946000D01*
X4532000Y-9906000D02*
X4612000Y-9906000D01*
X4572000Y-10120000D02*
X4572000Y-10200000D01*
X4532000Y-10160000D02*
X4612000Y-10160000D01*
X6251000Y-3978000D02*
X6251000Y-4058000D01*
X6211000Y-4018000D02*
X6291000Y-4018000D01*
X6221000Y-3908000D02*
X6221000Y-4128000D01*
X6281000Y-3908000D02*
X6281000Y-4128000D01*
X6221000Y-4128000D02*
G75*
G03X6281000Y-4128000I30000J0D01*
G01*
X6281000Y-3908000D02*
G75*
G03X6221000Y-3908000I-30000J0D01*
G01*
X6731000Y-3698000D02*
X6731000Y-3778000D01*
X6691000Y-3738000D02*
X6771000Y-3738000D01*
X6841000Y-3708000D02*
X6621000Y-3708000D01*
X6841000Y-3768000D02*
X6621000Y-3768000D01*
X6621000Y-3708000D02*
G75*
G03X6621000Y-3768000I0J-30000D01*
G01*
X6841000Y-3768000D02*
G75*
G03X6841000Y-3708000I0J30000D01*
G01*
X6731000Y-4278000D02*
X6731000Y-4358000D01*
X6691000Y-4318000D02*
X6771000Y-4318000D01*
X6861000Y-4288000D02*
X6601000Y-4288000D01*
X6861000Y-4348000D02*
X6601000Y-4348000D01*
X6601000Y-4288000D02*
G75*
G03X6601000Y-4348000I0J-30000D01*
G01*
X6861000Y-4348000D02*
G75*
G03X6861000Y-4288000I0J30000D01*
G01*
X4072000Y-7961000D02*
X4072000Y-8041000D01*
X4032000Y-8001000D02*
X4112000Y-8001000D01*
X4572000Y-7961000D02*
X4572000Y-8041000D01*
X4532000Y-8001000D02*
X4612000Y-8001000D01*
X4953000Y-8342000D02*
X4953000Y-8422000D01*
X4913000Y-8382000D02*
X4993000Y-8382000D01*
X4953000Y-8596000D02*
X4953000Y-8676000D01*
X4913000Y-8636000D02*
X4993000Y-8636000D01*
X4953000Y-8850000D02*
X4953000Y-8930000D01*
X4913000Y-8890000D02*
X4993000Y-8890000D01*
X4953000Y-9104000D02*
X4953000Y-9184000D01*
X4913000Y-9144000D02*
X4993000Y-9144000D01*
X4953000Y-9358000D02*
X4953000Y-9438000D01*
X4913000Y-9398000D02*
X4993000Y-9398000D01*
X4953000Y-9612000D02*
X4953000Y-9692000D01*
X4913000Y-9652000D02*
X4993000Y-9652000D01*
X4953000Y-9866000D02*
X4953000Y-9946000D01*
X4913000Y-9906000D02*
X4993000Y-9906000D01*
X4953000Y-10120000D02*
X4953000Y-10200000D01*
X4913000Y-10160000D02*
X4993000Y-10160000D01*
X5715000Y-8342000D02*
X5715000Y-8422000D01*
X5675000Y-8382000D02*
X5755000Y-8382000D01*
X5715000Y-8596000D02*
X5715000Y-8676000D01*
X5675000Y-8636000D02*
X5755000Y-8636000D01*
X5715000Y-8850000D02*
X5715000Y-8930000D01*
X5675000Y-8890000D02*
X5755000Y-8890000D01*
X5715000Y-9104000D02*
X5715000Y-9184000D01*
X5675000Y-9144000D02*
X5755000Y-9144000D01*
X5715000Y-9358000D02*
X5715000Y-9438000D01*
X5675000Y-9398000D02*
X5755000Y-9398000D01*
X5715000Y-9612000D02*
X5715000Y-9692000D01*
X5675000Y-9652000D02*
X5755000Y-9652000D01*
X5715000Y-9866000D02*
X5715000Y-9946000D01*
X5675000Y-9906000D02*
X5755000Y-9906000D01*
X5715000Y-10120000D02*
X5715000Y-10200000D01*
X5675000Y-10160000D02*
X5755000Y-10160000D01*
X7620000Y-3897000D02*
X7620000Y-3977000D01*
X7580000Y-3937000D02*
X7660000Y-3937000D01*
X7620000Y-4913000D02*
X7620000Y-4993000D01*
X7580000Y-4953000D02*
X7660000Y-4953000D01*
X10922000Y-3897000D02*
X10922000Y-3977000D01*
X10882000Y-3937000D02*
X10962000Y-3937000D01*
X10922000Y-4913000D02*
X10922000Y-4993000D01*
X10882000Y-4953000D02*
X10962000Y-4953000D01*
X5715000Y-6183000D02*
X5715000Y-6263000D01*
X5675000Y-6223000D02*
X5755000Y-6223000D01*
X5715000Y-6433000D02*
X5715000Y-6513000D01*
X5675000Y-6473000D02*
X5755000Y-6473000D01*
X6381820Y-4857820D02*
X6381820Y-4794180D01*
X6318180Y-4794180D01*
X6318180Y-4857820D01*
X6381820Y-4857820D01*
X7143820Y-4857820D02*
X7143820Y-4794180D01*
X7080180Y-4794180D01*
X7080180Y-4857820D01*
X7143820Y-4857820D01*
X7651820Y-3587820D02*
X7651820Y-3524180D01*
X7588180Y-3524180D01*
X7588180Y-3587820D01*
X7651820Y-3587820D01*
X7905820Y-3587820D02*
X7905820Y-3524180D01*
X7842180Y-3524180D01*
X7842180Y-3587820D01*
X7905820Y-3587820D01*
X10445820Y-3587820D02*
X10445820Y-3524180D01*
X10382180Y-3524180D01*
X10382180Y-3587820D01*
X10445820Y-3587820D01*
X10699820Y-3587820D02*
X10699820Y-3524180D01*
X10636180Y-3524180D01*
X10636180Y-3587820D01*
X10699820Y-3587820D01*
X6481000Y-6273000D02*
X6531000Y-6223000D01*
X6481000Y-6173000D01*
X6431000Y-6223000D01*
X6481000Y-6273000D01*
X6481000Y-6527000D02*
X6531000Y-6477000D01*
X6481000Y-6427000D01*
X6431000Y-6477000D01*
X6481000Y-6527000D01*
X6481000Y-6781000D02*
X6531000Y-6731000D01*
X6481000Y-6681000D01*
X6431000Y-6731000D01*
X6481000Y-6781000D01*
X6481000Y-7035000D02*
X6531000Y-6985000D01*
X6481000Y-6935000D01*
X6431000Y-6985000D01*
X6481000Y-7035000D01*
X6481000Y-7289000D02*
X6531000Y-7239000D01*
X6481000Y-7189000D01*
X6431000Y-7239000D01*
X6481000Y-7289000D01*
X6481000Y-7543000D02*
X6531000Y-7493000D01*
X6481000Y-7443000D01*
X6431000Y-7493000D01*
X6481000Y-7543000D01*
X6481000Y-7797000D02*
X6531000Y-7747000D01*
X6481000Y-7697000D01*
X6431000Y-7747000D01*
X6481000Y-7797000D01*
X6481000Y-8051000D02*
X6531000Y-8001000D01*
X6481000Y-7951000D01*
X6431000Y-8001000D01*
X6481000Y-8051000D01*
X6481000Y-8305000D02*
X6531000Y-8255000D01*
X6481000Y-8205000D01*
X6431000Y-8255000D01*
X6481000Y-8305000D01*
X6481000Y-8559000D02*
X6531000Y-8509000D01*
X6481000Y-8459000D01*
X6431000Y-8509000D01*
X6481000Y-8559000D01*
X6481000Y-8813000D02*
X6531000Y-8763000D01*
X6481000Y-8713000D01*
X6431000Y-8763000D01*
X6481000Y-8813000D01*
X6481000Y-9067000D02*
X6531000Y-9017000D01*
X6481000Y-8967000D01*
X6431000Y-9017000D01*
X6481000Y-9067000D01*
X6481000Y-9321000D02*
X6531000Y-9271000D01*
X6481000Y-9221000D01*
X6431000Y-9271000D01*
X6481000Y-9321000D01*
X6481000Y-9575000D02*
X6531000Y-9525000D01*
X6481000Y-9475000D01*
X6431000Y-9525000D01*
X6481000Y-9575000D01*
X6481000Y-9829000D02*
X6531000Y-9779000D01*
X6481000Y-9729000D01*
X6431000Y-9779000D01*
X6481000Y-9829000D01*
X6481000Y-10083000D02*
X6531000Y-10033000D01*
X6481000Y-9983000D01*
X6431000Y-10033000D01*
X6481000Y-10083000D01*
X6481000Y-10337000D02*
X6531000Y-10287000D01*
X6481000Y-10237000D01*
X6431000Y-10287000D01*
X6481000Y-10337000D01*
X6481000Y-10591000D02*
X6531000Y-10541000D01*
X6481000Y-10491000D01*
X6431000Y-10541000D01*
X6481000Y-10591000D01*
X6481000Y-10845000D02*
X6531000Y-10795000D01*
X6481000Y-10745000D01*
X6431000Y-10795000D01*
X6481000Y-10845000D01*
X6481000Y-11099000D02*
X6531000Y-11049000D01*
X6481000Y-10999000D01*
X6431000Y-11049000D01*
X6481000Y-11099000D01*
X6731000Y-5460200D02*
X6781000Y-5410200D01*
X6731000Y-5360200D01*
X6681000Y-5410200D01*
X6731000Y-5460200D01*
X6981000Y-6273000D02*
X7031000Y-6223000D01*
X6981000Y-6173000D01*
X6931000Y-6223000D01*
X6981000Y-6273000D01*
X6981000Y-6527000D02*
X7031000Y-6477000D01*
X6981000Y-6427000D01*
X6931000Y-6477000D01*
X6981000Y-6527000D01*
X6981000Y-6781000D02*
X7031000Y-6731000D01*
X6981000Y-6681000D01*
X6931000Y-6731000D01*
X6981000Y-6781000D01*
X6981000Y-7035000D02*
X7031000Y-6985000D01*
X6981000Y-6935000D01*
X6931000Y-6985000D01*
X6981000Y-7035000D01*
X6981000Y-7289000D02*
X7031000Y-7239000D01*
X6981000Y-7189000D01*
X6931000Y-7239000D01*
X6981000Y-7289000D01*
X6981000Y-7543000D02*
X7031000Y-7493000D01*
X6981000Y-7443000D01*
X6931000Y-7493000D01*
X6981000Y-7543000D01*
X6981000Y-7797000D02*
X7031000Y-7747000D01*
X6981000Y-7697000D01*
X6931000Y-7747000D01*
X6981000Y-7797000D01*
X6981000Y-8051000D02*
X7031000Y-8001000D01*
X6981000Y-7951000D01*
X6931000Y-8001000D01*
X6981000Y-8051000D01*
X6981000Y-8305000D02*
X7031000Y-8255000D01*
X6981000Y-8205000D01*
X6931000Y-8255000D01*
X6981000Y-8305000D01*
X6981000Y-8559000D02*
X7031000Y-8509000D01*
X6981000Y-8459000D01*
X6931000Y-8509000D01*
X6981000Y-8559000D01*
X6981000Y-8813000D02*
X7031000Y-8763000D01*
X6981000Y-8713000D01*
X6931000Y-8763000D01*
X6981000Y-8813000D01*
X6981000Y-9067000D02*
X7031000Y-9017000D01*
X6981000Y-8967000D01*
X6931000Y-9017000D01*
X6981000Y-9067000D01*
X6981000Y-9321000D02*
X7031000Y-9271000D01*
X6981000Y-9221000D01*
X6931000Y-9271000D01*
X6981000Y-9321000D01*
X6981000Y-9575000D02*
X7031000Y-9525000D01*
X6981000Y-9475000D01*
X6931000Y-9525000D01*
X6981000Y-9575000D01*
X6981000Y-9829000D02*
X7031000Y-9779000D01*
X6981000Y-9729000D01*
X6931000Y-9779000D01*
X6981000Y-9829000D01*
X6981000Y-10083000D02*
X7031000Y-10033000D01*
X6981000Y-9983000D01*
X6931000Y-10033000D01*
X6981000Y-10083000D01*
X6981000Y-10337000D02*
X7031000Y-10287000D01*
X6981000Y-10237000D01*
X6931000Y-10287000D01*
X6981000Y-10337000D01*
X6981000Y-10591000D02*
X7031000Y-10541000D01*
X6981000Y-10491000D01*
X6931000Y-10541000D01*
X6981000Y-10591000D01*
X6981000Y-10845000D02*
X7031000Y-10795000D01*
X6981000Y-10745000D01*
X6931000Y-10795000D01*
X6981000Y-10845000D01*
X6981000Y-11099000D02*
X7031000Y-11049000D01*
X6981000Y-10999000D01*
X6931000Y-11049000D01*
X6981000Y-11099000D01*
X9529000Y-6273000D02*
X9579000Y-6223000D01*
X9529000Y-6173000D01*
X9479000Y-6223000D01*
X9529000Y-6273000D01*
X9529000Y-6527000D02*
X9579000Y-6477000D01*
X9529000Y-6427000D01*
X9479000Y-6477000D01*
X9529000Y-6527000D01*
X9529000Y-6781000D02*
X9579000Y-6731000D01*
X9529000Y-6681000D01*
X9479000Y-6731000D01*
X9529000Y-6781000D01*
X9529000Y-7035000D02*
X9579000Y-6985000D01*
X9529000Y-6935000D01*
X9479000Y-6985000D01*
X9529000Y-7035000D01*
X9529000Y-7289000D02*
X9579000Y-7239000D01*
X9529000Y-7189000D01*
X9479000Y-7239000D01*
X9529000Y-7289000D01*
X9529000Y-7543000D02*
X9579000Y-7493000D01*
X9529000Y-7443000D01*
X9479000Y-7493000D01*
X9529000Y-7543000D01*
X9529000Y-7797000D02*
X9579000Y-7747000D01*
X9529000Y-7697000D01*
X9479000Y-7747000D01*
X9529000Y-7797000D01*
X9529000Y-8051000D02*
X9579000Y-8001000D01*
X9529000Y-7951000D01*
X9479000Y-8001000D01*
X9529000Y-8051000D01*
X9529000Y-8305000D02*
X9579000Y-8255000D01*
X9529000Y-8205000D01*
X9479000Y-8255000D01*
X9529000Y-8305000D01*
X9529000Y-8559000D02*
X9579000Y-8509000D01*
X9529000Y-8459000D01*
X9479000Y-8509000D01*
X9529000Y-8559000D01*
X9529000Y-8813000D02*
X9579000Y-8763000D01*
X9529000Y-8713000D01*
X9479000Y-8763000D01*
X9529000Y-8813000D01*
X9529000Y-9067000D02*
X9579000Y-9017000D01*
X9529000Y-8967000D01*
X9479000Y-9017000D01*
X9529000Y-9067000D01*
X9529000Y-9321000D02*
X9579000Y-9271000D01*
X9529000Y-9221000D01*
X9479000Y-9271000D01*
X9529000Y-9321000D01*
X9529000Y-9575000D02*
X9579000Y-9525000D01*
X9529000Y-9475000D01*
X9479000Y-9525000D01*
X9529000Y-9575000D01*
X9529000Y-9829000D02*
X9579000Y-9779000D01*
X9529000Y-9729000D01*
X9479000Y-9779000D01*
X9529000Y-9829000D01*
X9529000Y-10083000D02*
X9579000Y-10033000D01*
X9529000Y-9983000D01*
X9479000Y-10033000D01*
X9529000Y-10083000D01*
X9529000Y-10337000D02*
X9579000Y-10287000D01*
X9529000Y-10237000D01*
X9479000Y-10287000D01*
X9529000Y-10337000D01*
X9529000Y-10591000D02*
X9579000Y-10541000D01*
X9529000Y-10491000D01*
X9479000Y-10541000D01*
X9529000Y-10591000D01*
X9529000Y-10845000D02*
X9579000Y-10795000D01*
X9529000Y-10745000D01*
X9479000Y-10795000D01*
X9529000Y-10845000D01*
X9529000Y-11099000D02*
X9579000Y-11049000D01*
X9529000Y-10999000D01*
X9479000Y-11049000D01*
X9529000Y-11099000D01*
X10029000Y-6273000D02*
X10079000Y-6223000D01*
X10029000Y-6173000D01*
X9979000Y-6223000D01*
X10029000Y-6273000D01*
X10029000Y-6527000D02*
X10079000Y-6477000D01*
X10029000Y-6427000D01*
X9979000Y-6477000D01*
X10029000Y-6527000D01*
X10029000Y-6781000D02*
X10079000Y-6731000D01*
X10029000Y-6681000D01*
X9979000Y-6731000D01*
X10029000Y-6781000D01*
X10029000Y-7035000D02*
X10079000Y-6985000D01*
X10029000Y-6935000D01*
X9979000Y-6985000D01*
X10029000Y-7035000D01*
X10029000Y-7289000D02*
X10079000Y-7239000D01*
X10029000Y-7189000D01*
X9979000Y-7239000D01*
X10029000Y-7289000D01*
X10029000Y-7543000D02*
X10079000Y-7493000D01*
X10029000Y-7443000D01*
X9979000Y-7493000D01*
X10029000Y-7543000D01*
X10029000Y-7797000D02*
X10079000Y-7747000D01*
X10029000Y-7697000D01*
X9979000Y-7747000D01*
X10029000Y-7797000D01*
X10029000Y-8051000D02*
X10079000Y-8001000D01*
X10029000Y-7951000D01*
X9979000Y-8001000D01*
X10029000Y-8051000D01*
X10029000Y-8305000D02*
X10079000Y-8255000D01*
X10029000Y-8205000D01*
X9979000Y-8255000D01*
X10029000Y-8305000D01*
X10029000Y-8559000D02*
X10079000Y-8509000D01*
X10029000Y-8459000D01*
X9979000Y-8509000D01*
X10029000Y-8559000D01*
X10029000Y-8813000D02*
X10079000Y-8763000D01*
X10029000Y-8713000D01*
X9979000Y-8763000D01*
X10029000Y-8813000D01*
X10029000Y-9067000D02*
X10079000Y-9017000D01*
X10029000Y-8967000D01*
X9979000Y-9017000D01*
X10029000Y-9067000D01*
X10029000Y-9321000D02*
X10079000Y-9271000D01*
X10029000Y-9221000D01*
X9979000Y-9271000D01*
X10029000Y-9321000D01*
X10029000Y-9575000D02*
X10079000Y-9525000D01*
X10029000Y-9475000D01*
X9979000Y-9525000D01*
X10029000Y-9575000D01*
X10029000Y-9829000D02*
X10079000Y-9779000D01*
X10029000Y-9729000D01*
X9979000Y-9779000D01*
X10029000Y-9829000D01*
X10029000Y-10083000D02*
X10079000Y-10033000D01*
X10029000Y-9983000D01*
X9979000Y-10033000D01*
X10029000Y-10083000D01*
X10029000Y-10337000D02*
X10079000Y-10287000D01*
X10029000Y-10237000D01*
X9979000Y-10287000D01*
X10029000Y-10337000D01*
X10029000Y-10591000D02*
X10079000Y-10541000D01*
X10029000Y-10491000D01*
X9979000Y-10541000D01*
X10029000Y-10591000D01*
X10029000Y-10845000D02*
X10079000Y-10795000D01*
X10029000Y-10745000D01*
X9979000Y-10795000D01*
X10029000Y-10845000D01*
X10029000Y-11099000D02*
X10079000Y-11049000D01*
X10029000Y-10999000D01*
X9979000Y-11049000D01*
X10029000Y-11099000D01*
X16006000Y-6273000D02*
X16056000Y-6223000D01*
X16006000Y-6173000D01*
X15956000Y-6223000D01*
X16006000Y-6273000D01*
X16006000Y-6527000D02*
X16056000Y-6477000D01*
X16006000Y-6427000D01*
X15956000Y-6477000D01*
X16006000Y-6527000D01*
X16006000Y-6781000D02*
X16056000Y-6731000D01*
X16006000Y-6681000D01*
X15956000Y-6731000D01*
X16006000Y-6781000D01*
X16006000Y-7035000D02*
X16056000Y-6985000D01*
X16006000Y-6935000D01*
X15956000Y-6985000D01*
X16006000Y-7035000D01*
X16006000Y-7289000D02*
X16056000Y-7239000D01*
X16006000Y-7189000D01*
X15956000Y-7239000D01*
X16006000Y-7289000D01*
X16006000Y-7543000D02*
X16056000Y-7493000D01*
X16006000Y-7443000D01*
X15956000Y-7493000D01*
X16006000Y-7543000D01*
X16006000Y-7797000D02*
X16056000Y-7747000D01*
X16006000Y-7697000D01*
X15956000Y-7747000D01*
X16006000Y-7797000D01*
X16006000Y-8051000D02*
X16056000Y-8001000D01*
X16006000Y-7951000D01*
X15956000Y-8001000D01*
X16006000Y-8051000D01*
X16006000Y-8305000D02*
X16056000Y-8255000D01*
X16006000Y-8205000D01*
X15956000Y-8255000D01*
X16006000Y-8305000D01*
X16006000Y-8559000D02*
X16056000Y-8509000D01*
X16006000Y-8459000D01*
X15956000Y-8509000D01*
X16006000Y-8559000D01*
X16006000Y-8813000D02*
X16056000Y-8763000D01*
X16006000Y-8713000D01*
X15956000Y-8763000D01*
X16006000Y-8813000D01*
X16006000Y-9067000D02*
X16056000Y-9017000D01*
X16006000Y-8967000D01*
X15956000Y-9017000D01*
X16006000Y-9067000D01*
X16006000Y-9321000D02*
X16056000Y-9271000D01*
X16006000Y-9221000D01*
X15956000Y-9271000D01*
X16006000Y-9321000D01*
X16006000Y-9575000D02*
X16056000Y-9525000D01*
X16006000Y-9475000D01*
X15956000Y-9525000D01*
X16006000Y-9575000D01*
X16006000Y-9829000D02*
X16056000Y-9779000D01*
X16006000Y-9729000D01*
X15956000Y-9779000D01*
X16006000Y-9829000D01*
X16006000Y-10083000D02*
X16056000Y-10033000D01*
X16006000Y-9983000D01*
X15956000Y-10033000D01*
X16006000Y-10083000D01*
X16006000Y-10337000D02*
X16056000Y-10287000D01*
X16006000Y-10237000D01*
X15956000Y-10287000D01*
X16006000Y-10337000D01*
X16006000Y-10591000D02*
X16056000Y-10541000D01*
X16006000Y-10491000D01*
X15956000Y-10541000D01*
X16006000Y-10591000D01*
X16006000Y-10845000D02*
X16056000Y-10795000D01*
X16006000Y-10745000D01*
X15956000Y-10795000D01*
X16006000Y-10845000D01*
X16006000Y-11099000D02*
X16056000Y-11049000D01*
X16006000Y-10999000D01*
X15956000Y-11049000D01*
X16006000Y-11099000D01*
X16506000Y-6273000D02*
X16556000Y-6223000D01*
X16506000Y-6173000D01*
X16456000Y-6223000D01*
X16506000Y-6273000D01*
X16506000Y-6527000D02*
X16556000Y-6477000D01*
X16506000Y-6427000D01*
X16456000Y-6477000D01*
X16506000Y-6527000D01*
X16506000Y-6781000D02*
X16556000Y-6731000D01*
X16506000Y-6681000D01*
X16456000Y-6731000D01*
X16506000Y-6781000D01*
X16506000Y-7035000D02*
X16556000Y-6985000D01*
X16506000Y-6935000D01*
X16456000Y-6985000D01*
X16506000Y-7035000D01*
X16506000Y-7289000D02*
X16556000Y-7239000D01*
X16506000Y-7189000D01*
X16456000Y-7239000D01*
X16506000Y-7289000D01*
X16506000Y-7543000D02*
X16556000Y-7493000D01*
X16506000Y-7443000D01*
X16456000Y-7493000D01*
X16506000Y-7543000D01*
X16506000Y-7797000D02*
X16556000Y-7747000D01*
X16506000Y-7697000D01*
X16456000Y-7747000D01*
X16506000Y-7797000D01*
X16506000Y-8051000D02*
X16556000Y-8001000D01*
X16506000Y-7951000D01*
X16456000Y-8001000D01*
X16506000Y-8051000D01*
X16506000Y-8305000D02*
X16556000Y-8255000D01*
X16506000Y-8205000D01*
X16456000Y-8255000D01*
X16506000Y-8305000D01*
X16506000Y-8559000D02*
X16556000Y-8509000D01*
X16506000Y-8459000D01*
X16456000Y-8509000D01*
X16506000Y-8559000D01*
X16506000Y-8813000D02*
X16556000Y-8763000D01*
X16506000Y-8713000D01*
X16456000Y-8763000D01*
X16506000Y-8813000D01*
X16506000Y-9067000D02*
X16556000Y-9017000D01*
X16506000Y-8967000D01*
X16456000Y-9017000D01*
X16506000Y-9067000D01*
X16506000Y-9321000D02*
X16556000Y-9271000D01*
X16506000Y-9221000D01*
X16456000Y-9271000D01*
X16506000Y-9321000D01*
X16506000Y-9575000D02*
X16556000Y-9525000D01*
X16506000Y-9475000D01*
X16456000Y-9525000D01*
X16506000Y-9575000D01*
X16506000Y-9829000D02*
X16556000Y-9779000D01*
X16506000Y-9729000D01*
X16456000Y-9779000D01*
X16506000Y-9829000D01*
X16506000Y-10083000D02*
X16556000Y-10033000D01*
X16506000Y-9983000D01*
X16456000Y-10033000D01*
X16506000Y-10083000D01*
X16506000Y-10337000D02*
X16556000Y-10287000D01*
X16506000Y-10237000D01*
X16456000Y-10287000D01*
X16506000Y-10337000D01*
X16506000Y-10591000D02*
X16556000Y-10541000D01*
X16506000Y-10491000D01*
X16456000Y-10541000D01*
X16506000Y-10591000D01*
X16506000Y-10845000D02*
X16556000Y-10795000D01*
X16506000Y-10745000D01*
X16456000Y-10795000D01*
X16506000Y-10845000D01*
X16506000Y-11099000D02*
X16556000Y-11049000D01*
X16506000Y-10999000D01*
X16456000Y-11049000D01*
X16506000Y-11099000D01*
X3175000Y-10337000D02*
X3225000Y-10287000D01*
X3175000Y-10237000D01*
X3125000Y-10287000D01*
X3175000Y-10337000D01*
X3175000Y-10591000D02*
X3225000Y-10541000D01*
X3175000Y-10491000D01*
X3125000Y-10541000D01*
X3175000Y-10591000D01*
X3175000Y-10845000D02*
X3225000Y-10795000D01*
X3175000Y-10745000D01*
X3125000Y-10795000D01*
X3175000Y-10845000D01*
X4826000Y-10845000D02*
X4876000Y-10795000D01*
X4826000Y-10745000D01*
X4776000Y-10795000D01*
X4826000Y-10845000D01*
X5080000Y-10845000D02*
X5130000Y-10795000D01*
X5080000Y-10745000D01*
X5030000Y-10795000D01*
X5080000Y-10845000D01*
X5334000Y-10845000D02*
X5384000Y-10795000D01*
X5334000Y-10745000D01*
X5284000Y-10795000D01*
X5334000Y-10845000D01*
X12831000Y-6273000D02*
X12881000Y-6223000D01*
X12831000Y-6173000D01*
X12781000Y-6223000D01*
X12831000Y-6273000D01*
X12831000Y-6527000D02*
X12881000Y-6477000D01*
X12831000Y-6427000D01*
X12781000Y-6477000D01*
X12831000Y-6527000D01*
X12831000Y-6781000D02*
X12881000Y-6731000D01*
X12831000Y-6681000D01*
X12781000Y-6731000D01*
X12831000Y-6781000D01*
X12831000Y-7035000D02*
X12881000Y-6985000D01*
X12831000Y-6935000D01*
X12781000Y-6985000D01*
X12831000Y-7035000D01*
X12831000Y-7289000D02*
X12881000Y-7239000D01*
X12831000Y-7189000D01*
X12781000Y-7239000D01*
X12831000Y-7289000D01*
X12831000Y-7543000D02*
X12881000Y-7493000D01*
X12831000Y-7443000D01*
X12781000Y-7493000D01*
X12831000Y-7543000D01*
X12831000Y-7797000D02*
X12881000Y-7747000D01*
X12831000Y-7697000D01*
X12781000Y-7747000D01*
X12831000Y-7797000D01*
X12831000Y-8051000D02*
X12881000Y-8001000D01*
X12831000Y-7951000D01*
X12781000Y-8001000D01*
X12831000Y-8051000D01*
X12831000Y-8305000D02*
X12881000Y-8255000D01*
X12831000Y-8205000D01*
X12781000Y-8255000D01*
X12831000Y-8305000D01*
X12831000Y-8559000D02*
X12881000Y-8509000D01*
X12831000Y-8459000D01*
X12781000Y-8509000D01*
X12831000Y-8559000D01*
X12831000Y-8813000D02*
X12881000Y-8763000D01*
X12831000Y-8713000D01*
X12781000Y-8763000D01*
X12831000Y-8813000D01*
X12831000Y-9067000D02*
X12881000Y-9017000D01*
X12831000Y-8967000D01*
X12781000Y-9017000D01*
X12831000Y-9067000D01*
X12831000Y-9321000D02*
X12881000Y-9271000D01*
X12831000Y-9221000D01*
X12781000Y-9271000D01*
X12831000Y-9321000D01*
X12831000Y-9575000D02*
X12881000Y-9525000D01*
X12831000Y-9475000D01*
X12781000Y-9525000D01*
X12831000Y-9575000D01*
X12831000Y-9829000D02*
X12881000Y-9779000D01*
X12831000Y-9729000D01*
X12781000Y-9779000D01*
X12831000Y-9829000D01*
X12831000Y-10083000D02*
X12881000Y-10033000D01*
X12831000Y-9983000D01*
X12781000Y-10033000D01*
X12831000Y-10083000D01*
X12831000Y-10337000D02*
X12881000Y-10287000D01*
X12831000Y-10237000D01*
X12781000Y-10287000D01*
X12831000Y-10337000D01*
X12831000Y-10591000D02*
X12881000Y-10541000D01*
X12831000Y-10491000D01*
X12781000Y-10541000D01*
X12831000Y-10591000D01*
X12831000Y-10845000D02*
X12881000Y-10795000D01*
X12831000Y-10745000D01*
X12781000Y-10795000D01*
X12831000Y-10845000D01*
X12831000Y-11099000D02*
X12881000Y-11049000D01*
X12831000Y-10999000D01*
X12781000Y-11049000D01*
X12831000Y-11099000D01*
X13331000Y-6273000D02*
X13381000Y-6223000D01*
X13331000Y-6173000D01*
X13281000Y-6223000D01*
X13331000Y-6273000D01*
X13331000Y-6527000D02*
X13381000Y-6477000D01*
X13331000Y-6427000D01*
X13281000Y-6477000D01*
X13331000Y-6527000D01*
X13331000Y-6781000D02*
X13381000Y-6731000D01*
X13331000Y-6681000D01*
X13281000Y-6731000D01*
X13331000Y-6781000D01*
X13331000Y-7035000D02*
X13381000Y-6985000D01*
X13331000Y-6935000D01*
X13281000Y-6985000D01*
X13331000Y-7035000D01*
X13331000Y-7289000D02*
X13381000Y-7239000D01*
X13331000Y-7189000D01*
X13281000Y-7239000D01*
X13331000Y-7289000D01*
X13331000Y-7543000D02*
X13381000Y-7493000D01*
X13331000Y-7443000D01*
X13281000Y-7493000D01*
X13331000Y-7543000D01*
X13331000Y-7797000D02*
X13381000Y-7747000D01*
X13331000Y-7697000D01*
X13281000Y-7747000D01*
X13331000Y-7797000D01*
X13331000Y-8051000D02*
X13381000Y-8001000D01*
X13331000Y-7951000D01*
X13281000Y-8001000D01*
X13331000Y-8051000D01*
X13331000Y-8305000D02*
X13381000Y-8255000D01*
X13331000Y-8205000D01*
X13281000Y-8255000D01*
X13331000Y-8305000D01*
X13331000Y-8559000D02*
X13381000Y-8509000D01*
X13331000Y-8459000D01*
X13281000Y-8509000D01*
X13331000Y-8559000D01*
X13331000Y-8813000D02*
X13381000Y-8763000D01*
X13331000Y-8713000D01*
X13281000Y-8763000D01*
X13331000Y-8813000D01*
X13331000Y-9067000D02*
X13381000Y-9017000D01*
X13331000Y-8967000D01*
X13281000Y-9017000D01*
X13331000Y-9067000D01*
X13331000Y-9321000D02*
X13381000Y-9271000D01*
X13331000Y-9221000D01*
X13281000Y-9271000D01*
X13331000Y-9321000D01*
X13331000Y-9575000D02*
X13381000Y-9525000D01*
X13331000Y-9475000D01*
X13281000Y-9525000D01*
X13331000Y-9575000D01*
X13331000Y-9829000D02*
X13381000Y-9779000D01*
X13331000Y-9729000D01*
X13281000Y-9779000D01*
X13331000Y-9829000D01*
X13331000Y-10083000D02*
X13381000Y-10033000D01*
X13331000Y-9983000D01*
X13281000Y-10033000D01*
X13331000Y-10083000D01*
X13331000Y-10337000D02*
X13381000Y-10287000D01*
X13331000Y-10237000D01*
X13281000Y-10287000D01*
X13331000Y-10337000D01*
X13331000Y-10591000D02*
X13381000Y-10541000D01*
X13331000Y-10491000D01*
X13281000Y-10541000D01*
X13331000Y-10591000D01*
X13331000Y-10845000D02*
X13381000Y-10795000D01*
X13331000Y-10745000D01*
X13281000Y-10795000D01*
X13331000Y-10845000D01*
X13331000Y-11099000D02*
X13381000Y-11049000D01*
X13331000Y-10999000D01*
X13281000Y-11049000D01*
X13331000Y-11099000D01*
X4953000Y-5892000D02*
X5003000Y-5842000D01*
X4953000Y-5792000D01*
X4903000Y-5842000D01*
X4953000Y-5892000D01*
X5207000Y-5892000D02*
X5257000Y-5842000D01*
X5207000Y-5792000D01*
X5157000Y-5842000D01*
X5207000Y-5892000D01*
X5461000Y-5892000D02*
X5511000Y-5842000D01*
X5461000Y-5792000D01*
X5411000Y-5842000D01*
X5461000Y-5892000D01*
X5969000Y-10718000D02*
X6019000Y-10668000D01*
X5969000Y-10618000D01*
X5919000Y-10668000D01*
X5969000Y-10718000D01*
X5969000Y-10972000D02*
X6019000Y-10922000D01*
X5969000Y-10872000D01*
X5919000Y-10922000D01*
X5969000Y-10972000D01*
X5969000Y-11226000D02*
X6019000Y-11176000D01*
X5969000Y-11126000D01*
X5919000Y-11176000D01*
X5969000Y-11226000D01*
X4877000Y-3480000D02*
X5029000Y-3632000D01*
X5029000Y-3480000D02*
X4877000Y-3632000D01*
X5029000Y-3556000D02*
G75*
G03X5029000Y-3556000I-76000J0D01*
G01*
X5385000Y-3480000D02*
X5537000Y-3632000D01*
X5537000Y-3480000D02*
X5385000Y-3632000D01*
X5537000Y-3556000D02*
G75*
G03X5537000Y-3556000I-76000J0D01*
G01*
X11280000Y-10264000D02*
X11580000Y-10564000D01*
X11580000Y-10264000D02*
X11280000Y-10564000D01*
X11430000Y-10264000D02*
X11430000Y-10564000D01*
X11280000Y-10414000D02*
X11580000Y-10414000D01*
X16868000Y-3533000D02*
X17168000Y-3833000D01*
X17168000Y-3533000D02*
X16868000Y-3833000D01*
X17018000Y-3533000D02*
X17018000Y-3833000D01*
X16868000Y-3683000D02*
X17168000Y-3683000D01*
X3279000Y-11534000D02*
X3579000Y-11834000D01*
X3579000Y-11534000D02*
X3279000Y-11834000D01*
X3429000Y-11534000D02*
X3429000Y-11834000D01*
X3279000Y-11684000D02*
X3579000Y-11684000D01*
X3279000Y-3533000D02*
X3579000Y-3833000D01*
X3579000Y-3533000D02*
X3279000Y-3833000D01*
X3429000Y-3533000D02*
X3429000Y-3833000D01*
X3279000Y-3683000D02*
X3579000Y-3683000D01*
D12*
X2950928Y-12787214D02*
X2950928Y-12487214D01*
X3022357Y-12487214D01*
X3065214Y-12501500D01*
X3093786Y-12530071D01*
X3108071Y-12558643D01*
X3122357Y-12615786D01*
X3122357Y-12658643D01*
X3108071Y-12715786D01*
X3093786Y-12744357D01*
X3065214Y-12772929D01*
X3022357Y-12787214D01*
X2950928Y-12787214D01*
X3250928Y-12787214D02*
X3250928Y-12587214D01*
X3250928Y-12644357D02*
X3265214Y-12615786D01*
X3279500Y-12601500D01*
X3308071Y-12587214D01*
X3336643Y-12587214D01*
X3436643Y-12787214D02*
X3436643Y-12587214D01*
X3436643Y-12487214D02*
X3422357Y-12501500D01*
X3436643Y-12515786D01*
X3450928Y-12501500D01*
X3436643Y-12487214D01*
X3436643Y-12515786D01*
X3622357Y-12787214D02*
X3593786Y-12772929D01*
X3579500Y-12744357D01*
X3579500Y-12487214D01*
X3779500Y-12787214D02*
X3750928Y-12772929D01*
X3736643Y-12744357D01*
X3736643Y-12487214D01*
X4122357Y-12787214D02*
X4122357Y-12487214D01*
X4222357Y-12701500D01*
X4322357Y-12487214D01*
X4322357Y-12787214D01*
X4593786Y-12787214D02*
X4593786Y-12630071D01*
X4579500Y-12601500D01*
X4550928Y-12587214D01*
X4493786Y-12587214D01*
X4465214Y-12601500D01*
X4593786Y-12772929D02*
X4565214Y-12787214D01*
X4493786Y-12787214D01*
X4465214Y-12772929D01*
X4450928Y-12744357D01*
X4450928Y-12715786D01*
X4465214Y-12687214D01*
X4493786Y-12672929D01*
X4565214Y-12672929D01*
X4593786Y-12658643D01*
X4736643Y-12587214D02*
X4736643Y-12887214D01*
X4736643Y-12601500D02*
X4765214Y-12587214D01*
X4822357Y-12587214D01*
X4850928Y-12601500D01*
X4865214Y-12615786D01*
X4879500Y-12644357D01*
X4879500Y-12730071D01*
X4865214Y-12758643D01*
X4850928Y-12772929D01*
X4822357Y-12787214D01*
X4765214Y-12787214D01*
X4736643Y-12772929D01*
X5008071Y-12758643D02*
X5022357Y-12772929D01*
X5008071Y-12787214D01*
X4993786Y-12772929D01*
X5008071Y-12758643D01*
X5008071Y-12787214D01*
X5008071Y-12601500D02*
X5022357Y-12615786D01*
X5008071Y-12630071D01*
X4993786Y-12615786D01*
X5008071Y-12601500D01*
X5008071Y-12630071D01*
X2624500Y-13261500D02*
X2664500Y-13301500D01*
X2664500Y-13261500D02*
X2624500Y-13301500D01*
X3008071Y-13117214D02*
X3036643Y-13117214D01*
X3065214Y-13131500D01*
X3079500Y-13145786D01*
X3093786Y-13174357D01*
X3108071Y-13231500D01*
X3108071Y-13302929D01*
X3093786Y-13360071D01*
X3079500Y-13388643D01*
X3065214Y-13402929D01*
X3036643Y-13417214D01*
X3008071Y-13417214D01*
X2979500Y-13402929D01*
X2965214Y-13388643D01*
X2950928Y-13360071D01*
X2936643Y-13302929D01*
X2936643Y-13231500D01*
X2950928Y-13174357D01*
X2965214Y-13145786D01*
X2979500Y-13131500D01*
X3008071Y-13117214D01*
X3236643Y-13388643D02*
X3250928Y-13402929D01*
X3236643Y-13417214D01*
X3222357Y-13402929D01*
X3236643Y-13388643D01*
X3236643Y-13417214D01*
X3508071Y-13217214D02*
X3508071Y-13417214D01*
X3436643Y-13102929D02*
X3365214Y-13317214D01*
X3550928Y-13317214D01*
X3722357Y-13117214D02*
X3750928Y-13117214D01*
X3779500Y-13131500D01*
X3793786Y-13145786D01*
X3808071Y-13174357D01*
X3822357Y-13231500D01*
X3822357Y-13302929D01*
X3808071Y-13360071D01*
X3793786Y-13388643D01*
X3779500Y-13402929D01*
X3750928Y-13417214D01*
X3722357Y-13417214D01*
X3693786Y-13402929D01*
X3679500Y-13388643D01*
X3665214Y-13360071D01*
X3650928Y-13302929D01*
X3650928Y-13231500D01*
X3665214Y-13174357D01*
X3679500Y-13145786D01*
X3693786Y-13131500D01*
X3722357Y-13117214D01*
X3950928Y-13417214D02*
X3950928Y-13217214D01*
X3950928Y-13245786D02*
X3965214Y-13231500D01*
X3993786Y-13217214D01*
X4036643Y-13217214D01*
X4065214Y-13231500D01*
X4079500Y-13260071D01*
X4079500Y-13417214D01*
X4079500Y-13260071D02*
X4093786Y-13231500D01*
X4122357Y-13217214D01*
X4165214Y-13217214D01*
X4193786Y-13231500D01*
X4208071Y-13260071D01*
X4208071Y-13417214D01*
X4350928Y-13417214D02*
X4350928Y-13217214D01*
X4350928Y-13245786D02*
X4365214Y-13231500D01*
X4393786Y-13217214D01*
X4436643Y-13217214D01*
X4465214Y-13231500D01*
X4479500Y-13260071D01*
X4479500Y-13417214D01*
X4479500Y-13260071D02*
X4493786Y-13231500D01*
X4522357Y-13217214D01*
X4565214Y-13217214D01*
X4593786Y-13231500D01*
X4608071Y-13260071D01*
X4608071Y-13417214D01*
X5193786Y-13102929D02*
X4936643Y-13488643D01*
X5579500Y-13117214D02*
X5608071Y-13117214D01*
X5636643Y-13131500D01*
X5650928Y-13145786D01*
X5665214Y-13174357D01*
X5679500Y-13231500D01*
X5679500Y-13302929D01*
X5665214Y-13360071D01*
X5650928Y-13388643D01*
X5636643Y-13402929D01*
X5608071Y-13417214D01*
X5579500Y-13417214D01*
X5550928Y-13402929D01*
X5536643Y-13388643D01*
X5522357Y-13360071D01*
X5508071Y-13302929D01*
X5508071Y-13231500D01*
X5522357Y-13174357D01*
X5536643Y-13145786D01*
X5550928Y-13131500D01*
X5579500Y-13117214D01*
X5808071Y-13388643D02*
X5822357Y-13402929D01*
X5808071Y-13417214D01*
X5793786Y-13402929D01*
X5808071Y-13388643D01*
X5808071Y-13417214D01*
X6008071Y-13117214D02*
X6036643Y-13117214D01*
X6065214Y-13131500D01*
X6079500Y-13145786D01*
X6093786Y-13174357D01*
X6108071Y-13231500D01*
X6108071Y-13302929D01*
X6093786Y-13360071D01*
X6079500Y-13388643D01*
X6065214Y-13402929D01*
X6036643Y-13417214D01*
X6008071Y-13417214D01*
X5979500Y-13402929D01*
X5965214Y-13388643D01*
X5950928Y-13360071D01*
X5936643Y-13302929D01*
X5936643Y-13231500D01*
X5950928Y-13174357D01*
X5965214Y-13145786D01*
X5979500Y-13131500D01*
X6008071Y-13117214D01*
X6393786Y-13417214D02*
X6222357Y-13417214D01*
X6308071Y-13417214D02*
X6308071Y-13117214D01*
X6279500Y-13160071D01*
X6250928Y-13188643D01*
X6222357Y-13202929D01*
X6650928Y-13117214D02*
X6593786Y-13117214D01*
X6565214Y-13131500D01*
X6550928Y-13145786D01*
X6522357Y-13188643D01*
X6508071Y-13245786D01*
X6508071Y-13360071D01*
X6522357Y-13388643D01*
X6536643Y-13402929D01*
X6565214Y-13417214D01*
X6622357Y-13417214D01*
X6650928Y-13402929D01*
X6665214Y-13388643D01*
X6679500Y-13360071D01*
X6679500Y-13288643D01*
X6665214Y-13260071D01*
X6650928Y-13245786D01*
X6622357Y-13231500D01*
X6565214Y-13231500D01*
X6536643Y-13245786D01*
X6522357Y-13260071D01*
X6508071Y-13288643D01*
X6793786Y-13117214D02*
X6793786Y-13174357D01*
X6908071Y-13117214D02*
X6908071Y-13174357D01*
X7350928Y-13531500D02*
X7336643Y-13517214D01*
X7308071Y-13474357D01*
X7293786Y-13445786D01*
X7279500Y-13402929D01*
X7265214Y-13331500D01*
X7265214Y-13274357D01*
X7279500Y-13202929D01*
X7293786Y-13160071D01*
X7308071Y-13131500D01*
X7336643Y-13088643D01*
X7350928Y-13074357D01*
X7622357Y-13417214D02*
X7450928Y-13417214D01*
X7536643Y-13417214D02*
X7536643Y-13117214D01*
X7508071Y-13160071D01*
X7479500Y-13188643D01*
X7450928Y-13202929D01*
X7736643Y-13145786D02*
X7750928Y-13131500D01*
X7779500Y-13117214D01*
X7850928Y-13117214D01*
X7879500Y-13131500D01*
X7893786Y-13145786D01*
X7908071Y-13174357D01*
X7908071Y-13202929D01*
X7893786Y-13245786D01*
X7722357Y-13417214D01*
X7908071Y-13417214D01*
X8265214Y-13417214D02*
X8265214Y-13117214D01*
X8393786Y-13417214D02*
X8393786Y-13260071D01*
X8379500Y-13231500D01*
X8350928Y-13217214D01*
X8308071Y-13217214D01*
X8279500Y-13231500D01*
X8265214Y-13245786D01*
X8579500Y-13417214D02*
X8550928Y-13402929D01*
X8536643Y-13388643D01*
X8522357Y-13360071D01*
X8522357Y-13274357D01*
X8536643Y-13245786D01*
X8550928Y-13231500D01*
X8579500Y-13217214D01*
X8622357Y-13217214D01*
X8650928Y-13231500D01*
X8665214Y-13245786D01*
X8679500Y-13274357D01*
X8679500Y-13360071D01*
X8665214Y-13388643D01*
X8650928Y-13402929D01*
X8622357Y-13417214D01*
X8579500Y-13417214D01*
X8850928Y-13417214D02*
X8822357Y-13402929D01*
X8808071Y-13374357D01*
X8808071Y-13117214D01*
X9079500Y-13402929D02*
X9050928Y-13417214D01*
X8993786Y-13417214D01*
X8965214Y-13402929D01*
X8950928Y-13374357D01*
X8950928Y-13260071D01*
X8965214Y-13231500D01*
X8993786Y-13217214D01*
X9050928Y-13217214D01*
X9079500Y-13231500D01*
X9093786Y-13260071D01*
X9093786Y-13288643D01*
X8950928Y-13317214D01*
X9208071Y-13402929D02*
X9236643Y-13417214D01*
X9293786Y-13417214D01*
X9322357Y-13402929D01*
X9336643Y-13374357D01*
X9336643Y-13360071D01*
X9322357Y-13331500D01*
X9293786Y-13317214D01*
X9250928Y-13317214D01*
X9222357Y-13302929D01*
X9208071Y-13274357D01*
X9208071Y-13260071D01*
X9222357Y-13231500D01*
X9250928Y-13217214D01*
X9293786Y-13217214D01*
X9322357Y-13231500D01*
X9436643Y-13531500D02*
X9450928Y-13517214D01*
X9479500Y-13474357D01*
X9493786Y-13445786D01*
X9508071Y-13402929D01*
X9522357Y-13331500D01*
X9522357Y-13274357D01*
X9508071Y-13202929D01*
X9493786Y-13160071D01*
X9479500Y-13131500D01*
X9450928Y-13088643D01*
X9436643Y-13074357D01*
X2664500Y-13677500D02*
G75*
G03X2664500Y-13677500I-37500J0D01*
G01*
X3008071Y-13513214D02*
X3036643Y-13513214D01*
X3065214Y-13527500D01*
X3079500Y-13541786D01*
X3093786Y-13570357D01*
X3108071Y-13627500D01*
X3108071Y-13698929D01*
X3093786Y-13756071D01*
X3079500Y-13784643D01*
X3065214Y-13798929D01*
X3036643Y-13813214D01*
X3008071Y-13813214D01*
X2979500Y-13798929D01*
X2965214Y-13784643D01*
X2950928Y-13756071D01*
X2936643Y-13698929D01*
X2936643Y-13627500D01*
X2950928Y-13570357D01*
X2965214Y-13541786D01*
X2979500Y-13527500D01*
X3008071Y-13513214D01*
X3236643Y-13784643D02*
X3250928Y-13798929D01*
X3236643Y-13813214D01*
X3222357Y-13798929D01*
X3236643Y-13784643D01*
X3236643Y-13813214D01*
X3350928Y-13513214D02*
X3550928Y-13513214D01*
X3422357Y-13813214D01*
X3808071Y-13513214D02*
X3665214Y-13513214D01*
X3650928Y-13656071D01*
X3665214Y-13641786D01*
X3693786Y-13627500D01*
X3765214Y-13627500D01*
X3793786Y-13641786D01*
X3808071Y-13656071D01*
X3822357Y-13684643D01*
X3822357Y-13756071D01*
X3808071Y-13784643D01*
X3793786Y-13798929D01*
X3765214Y-13813214D01*
X3693786Y-13813214D01*
X3665214Y-13798929D01*
X3650928Y-13784643D01*
X3950928Y-13813214D02*
X3950928Y-13613214D01*
X3950928Y-13641786D02*
X3965214Y-13627500D01*
X3993786Y-13613214D01*
X4036643Y-13613214D01*
X4065214Y-13627500D01*
X4079500Y-13656071D01*
X4079500Y-13813214D01*
X4079500Y-13656071D02*
X4093786Y-13627500D01*
X4122357Y-13613214D01*
X4165214Y-13613214D01*
X4193786Y-13627500D01*
X4208071Y-13656071D01*
X4208071Y-13813214D01*
X4350928Y-13813214D02*
X4350928Y-13613214D01*
X4350928Y-13641786D02*
X4365214Y-13627500D01*
X4393786Y-13613214D01*
X4436643Y-13613214D01*
X4465214Y-13627500D01*
X4479500Y-13656071D01*
X4479500Y-13813214D01*
X4479500Y-13656071D02*
X4493786Y-13627500D01*
X4522357Y-13613214D01*
X4565214Y-13613214D01*
X4593786Y-13627500D01*
X4608071Y-13656071D01*
X4608071Y-13813214D01*
X5193786Y-13498929D02*
X4936643Y-13884643D01*
X5579500Y-13513214D02*
X5608071Y-13513214D01*
X5636643Y-13527500D01*
X5650928Y-13541786D01*
X5665214Y-13570357D01*
X5679500Y-13627500D01*
X5679500Y-13698929D01*
X5665214Y-13756071D01*
X5650928Y-13784643D01*
X5636643Y-13798929D01*
X5608071Y-13813214D01*
X5579500Y-13813214D01*
X5550928Y-13798929D01*
X5536643Y-13784643D01*
X5522357Y-13756071D01*
X5508071Y-13698929D01*
X5508071Y-13627500D01*
X5522357Y-13570357D01*
X5536643Y-13541786D01*
X5550928Y-13527500D01*
X5579500Y-13513214D01*
X5808071Y-13784643D02*
X5822357Y-13798929D01*
X5808071Y-13813214D01*
X5793786Y-13798929D01*
X5808071Y-13784643D01*
X5808071Y-13813214D01*
X6008071Y-13513214D02*
X6036643Y-13513214D01*
X6065214Y-13527500D01*
X6079500Y-13541786D01*
X6093786Y-13570357D01*
X6108071Y-13627500D01*
X6108071Y-13698929D01*
X6093786Y-13756071D01*
X6079500Y-13784643D01*
X6065214Y-13798929D01*
X6036643Y-13813214D01*
X6008071Y-13813214D01*
X5979500Y-13798929D01*
X5965214Y-13784643D01*
X5950928Y-13756071D01*
X5936643Y-13698929D01*
X5936643Y-13627500D01*
X5950928Y-13570357D01*
X5965214Y-13541786D01*
X5979500Y-13527500D01*
X6008071Y-13513214D01*
X6208071Y-13513214D02*
X6393786Y-13513214D01*
X6293786Y-13627500D01*
X6336643Y-13627500D01*
X6365214Y-13641786D01*
X6379500Y-13656071D01*
X6393786Y-13684643D01*
X6393786Y-13756071D01*
X6379500Y-13784643D01*
X6365214Y-13798929D01*
X6336643Y-13813214D01*
X6250928Y-13813214D01*
X6222357Y-13798929D01*
X6208071Y-13784643D01*
X6579500Y-13513214D02*
X6608071Y-13513214D01*
X6636643Y-13527500D01*
X6650928Y-13541786D01*
X6665214Y-13570357D01*
X6679500Y-13627500D01*
X6679500Y-13698929D01*
X6665214Y-13756071D01*
X6650928Y-13784643D01*
X6636643Y-13798929D01*
X6608071Y-13813214D01*
X6579500Y-13813214D01*
X6550928Y-13798929D01*
X6536643Y-13784643D01*
X6522357Y-13756071D01*
X6508071Y-13698929D01*
X6508071Y-13627500D01*
X6522357Y-13570357D01*
X6536643Y-13541786D01*
X6550928Y-13527500D01*
X6579500Y-13513214D01*
X6793786Y-13513214D02*
X6793786Y-13570357D01*
X6908071Y-13513214D02*
X6908071Y-13570357D01*
X7350928Y-13927500D02*
X7336643Y-13913214D01*
X7308071Y-13870357D01*
X7293786Y-13841786D01*
X7279500Y-13798929D01*
X7265214Y-13727500D01*
X7265214Y-13670357D01*
X7279500Y-13598929D01*
X7293786Y-13556071D01*
X7308071Y-13527500D01*
X7336643Y-13484643D01*
X7350928Y-13470357D01*
X7436643Y-13513214D02*
X7622357Y-13513214D01*
X7522357Y-13627500D01*
X7565214Y-13627500D01*
X7593786Y-13641786D01*
X7608071Y-13656071D01*
X7622357Y-13684643D01*
X7622357Y-13756071D01*
X7608071Y-13784643D01*
X7593786Y-13798929D01*
X7565214Y-13813214D01*
X7479500Y-13813214D01*
X7450928Y-13798929D01*
X7436643Y-13784643D01*
X7979500Y-13813214D02*
X7979500Y-13513214D01*
X8108071Y-13813214D02*
X8108071Y-13656071D01*
X8093786Y-13627500D01*
X8065214Y-13613214D01*
X8022357Y-13613214D01*
X7993786Y-13627500D01*
X7979500Y-13641786D01*
X8293786Y-13813214D02*
X8265214Y-13798929D01*
X8250928Y-13784643D01*
X8236643Y-13756071D01*
X8236643Y-13670357D01*
X8250928Y-13641786D01*
X8265214Y-13627500D01*
X8293786Y-13613214D01*
X8336643Y-13613214D01*
X8365214Y-13627500D01*
X8379500Y-13641786D01*
X8393786Y-13670357D01*
X8393786Y-13756071D01*
X8379500Y-13784643D01*
X8365214Y-13798929D01*
X8336643Y-13813214D01*
X8293786Y-13813214D01*
X8565214Y-13813214D02*
X8536643Y-13798929D01*
X8522357Y-13770357D01*
X8522357Y-13513214D01*
X8793786Y-13798929D02*
X8765214Y-13813214D01*
X8708071Y-13813214D01*
X8679500Y-13798929D01*
X8665214Y-13770357D01*
X8665214Y-13656071D01*
X8679500Y-13627500D01*
X8708071Y-13613214D01*
X8765214Y-13613214D01*
X8793786Y-13627500D01*
X8808071Y-13656071D01*
X8808071Y-13684643D01*
X8665214Y-13713214D01*
X8922357Y-13798929D02*
X8950928Y-13813214D01*
X9008071Y-13813214D01*
X9036643Y-13798929D01*
X9050928Y-13770357D01*
X9050928Y-13756071D01*
X9036643Y-13727500D01*
X9008071Y-13713214D01*
X8965214Y-13713214D01*
X8936643Y-13698929D01*
X8922357Y-13670357D01*
X8922357Y-13656071D01*
X8936643Y-13627500D01*
X8965214Y-13613214D01*
X9008071Y-13613214D01*
X9036643Y-13627500D01*
X9150928Y-13927500D02*
X9165214Y-13913214D01*
X9193786Y-13870357D01*
X9208071Y-13841786D01*
X9222357Y-13798929D01*
X9236643Y-13727500D01*
X9236643Y-13670357D01*
X9222357Y-13598929D01*
X9208071Y-13556071D01*
X9193786Y-13527500D01*
X9165214Y-13484643D01*
X9150928Y-13470357D01*
X2624500Y-14033500D02*
X2624500Y-14113500D01*
X2584500Y-14073500D02*
X2664500Y-14073500D01*
X3008071Y-13909214D02*
X3036643Y-13909214D01*
X3065214Y-13923500D01*
X3079500Y-13937786D01*
X3093786Y-13966357D01*
X3108071Y-14023500D01*
X3108071Y-14094929D01*
X3093786Y-14152071D01*
X3079500Y-14180643D01*
X3065214Y-14194929D01*
X3036643Y-14209214D01*
X3008071Y-14209214D01*
X2979500Y-14194929D01*
X2965214Y-14180643D01*
X2950928Y-14152071D01*
X2936643Y-14094929D01*
X2936643Y-14023500D01*
X2950928Y-13966357D01*
X2965214Y-13937786D01*
X2979500Y-13923500D01*
X3008071Y-13909214D01*
X3236643Y-14180643D02*
X3250928Y-14194929D01*
X3236643Y-14209214D01*
X3222357Y-14194929D01*
X3236643Y-14180643D01*
X3236643Y-14209214D01*
X3422357Y-14037786D02*
X3393786Y-14023500D01*
X3379500Y-14009214D01*
X3365214Y-13980643D01*
X3365214Y-13966357D01*
X3379500Y-13937786D01*
X3393786Y-13923500D01*
X3422357Y-13909214D01*
X3479500Y-13909214D01*
X3508071Y-13923500D01*
X3522357Y-13937786D01*
X3536643Y-13966357D01*
X3536643Y-13980643D01*
X3522357Y-14009214D01*
X3508071Y-14023500D01*
X3479500Y-14037786D01*
X3422357Y-14037786D01*
X3393786Y-14052071D01*
X3379500Y-14066357D01*
X3365214Y-14094929D01*
X3365214Y-14152071D01*
X3379500Y-14180643D01*
X3393786Y-14194929D01*
X3422357Y-14209214D01*
X3479500Y-14209214D01*
X3508071Y-14194929D01*
X3522357Y-14180643D01*
X3536643Y-14152071D01*
X3536643Y-14094929D01*
X3522357Y-14066357D01*
X3508071Y-14052071D01*
X3479500Y-14037786D01*
X3722357Y-13909214D02*
X3750928Y-13909214D01*
X3779500Y-13923500D01*
X3793786Y-13937786D01*
X3808071Y-13966357D01*
X3822357Y-14023500D01*
X3822357Y-14094929D01*
X3808071Y-14152071D01*
X3793786Y-14180643D01*
X3779500Y-14194929D01*
X3750928Y-14209214D01*
X3722357Y-14209214D01*
X3693786Y-14194929D01*
X3679500Y-14180643D01*
X3665214Y-14152071D01*
X3650928Y-14094929D01*
X3650928Y-14023500D01*
X3665214Y-13966357D01*
X3679500Y-13937786D01*
X3693786Y-13923500D01*
X3722357Y-13909214D01*
X3950928Y-14209214D02*
X3950928Y-14009214D01*
X3950928Y-14037786D02*
X3965214Y-14023500D01*
X3993786Y-14009214D01*
X4036643Y-14009214D01*
X4065214Y-14023500D01*
X4079500Y-14052071D01*
X4079500Y-14209214D01*
X4079500Y-14052071D02*
X4093786Y-14023500D01*
X4122357Y-14009214D01*
X4165214Y-14009214D01*
X4193786Y-14023500D01*
X4208071Y-14052071D01*
X4208071Y-14209214D01*
X4350928Y-14209214D02*
X4350928Y-14009214D01*
X4350928Y-14037786D02*
X4365214Y-14023500D01*
X4393786Y-14009214D01*
X4436643Y-14009214D01*
X4465214Y-14023500D01*
X4479500Y-14052071D01*
X4479500Y-14209214D01*
X4479500Y-14052071D02*
X4493786Y-14023500D01*
X4522357Y-14009214D01*
X4565214Y-14009214D01*
X4593786Y-14023500D01*
X4608071Y-14052071D01*
X4608071Y-14209214D01*
X5193786Y-13894929D02*
X4936643Y-14280643D01*
X5579500Y-13909214D02*
X5608071Y-13909214D01*
X5636643Y-13923500D01*
X5650928Y-13937786D01*
X5665214Y-13966357D01*
X5679500Y-14023500D01*
X5679500Y-14094929D01*
X5665214Y-14152071D01*
X5650928Y-14180643D01*
X5636643Y-14194929D01*
X5608071Y-14209214D01*
X5579500Y-14209214D01*
X5550928Y-14194929D01*
X5536643Y-14180643D01*
X5522357Y-14152071D01*
X5508071Y-14094929D01*
X5508071Y-14023500D01*
X5522357Y-13966357D01*
X5536643Y-13937786D01*
X5550928Y-13923500D01*
X5579500Y-13909214D01*
X5808071Y-14180643D02*
X5822357Y-14194929D01*
X5808071Y-14209214D01*
X5793786Y-14194929D01*
X5808071Y-14180643D01*
X5808071Y-14209214D01*
X6008071Y-13909214D02*
X6036643Y-13909214D01*
X6065214Y-13923500D01*
X6079500Y-13937786D01*
X6093786Y-13966357D01*
X6108071Y-14023500D01*
X6108071Y-14094929D01*
X6093786Y-14152071D01*
X6079500Y-14180643D01*
X6065214Y-14194929D01*
X6036643Y-14209214D01*
X6008071Y-14209214D01*
X5979500Y-14194929D01*
X5965214Y-14180643D01*
X5950928Y-14152071D01*
X5936643Y-14094929D01*
X5936643Y-14023500D01*
X5950928Y-13966357D01*
X5965214Y-13937786D01*
X5979500Y-13923500D01*
X6008071Y-13909214D01*
X6208071Y-13909214D02*
X6393786Y-13909214D01*
X6293786Y-14023500D01*
X6336643Y-14023500D01*
X6365214Y-14037786D01*
X6379500Y-14052071D01*
X6393786Y-14080643D01*
X6393786Y-14152071D01*
X6379500Y-14180643D01*
X6365214Y-14194929D01*
X6336643Y-14209214D01*
X6250928Y-14209214D01*
X6222357Y-14194929D01*
X6208071Y-14180643D01*
X6679500Y-14209214D02*
X6508071Y-14209214D01*
X6593786Y-14209214D02*
X6593786Y-13909214D01*
X6565214Y-13952071D01*
X6536643Y-13980643D01*
X6508071Y-13994929D01*
X6793786Y-13909214D02*
X6793786Y-13966357D01*
X6908071Y-13909214D02*
X6908071Y-13966357D01*
X7350928Y-14323500D02*
X7336643Y-14309214D01*
X7308071Y-14266357D01*
X7293786Y-14237786D01*
X7279500Y-14194929D01*
X7265214Y-14123500D01*
X7265214Y-14066357D01*
X7279500Y-13994929D01*
X7293786Y-13952071D01*
X7308071Y-13923500D01*
X7336643Y-13880643D01*
X7350928Y-13866357D01*
X7593786Y-14009214D02*
X7593786Y-14209214D01*
X7522357Y-13894929D02*
X7450928Y-14109214D01*
X7636643Y-14109214D01*
X7793786Y-14037786D02*
X7765214Y-14023500D01*
X7750928Y-14009214D01*
X7736643Y-13980643D01*
X7736643Y-13966357D01*
X7750928Y-13937786D01*
X7765214Y-13923500D01*
X7793786Y-13909214D01*
X7850928Y-13909214D01*
X7879500Y-13923500D01*
X7893786Y-13937786D01*
X7908071Y-13966357D01*
X7908071Y-13980643D01*
X7893786Y-14009214D01*
X7879500Y-14023500D01*
X7850928Y-14037786D01*
X7793786Y-14037786D01*
X7765214Y-14052071D01*
X7750928Y-14066357D01*
X7736643Y-14094929D01*
X7736643Y-14152071D01*
X7750928Y-14180643D01*
X7765214Y-14194929D01*
X7793786Y-14209214D01*
X7850928Y-14209214D01*
X7879500Y-14194929D01*
X7893786Y-14180643D01*
X7908071Y-14152071D01*
X7908071Y-14094929D01*
X7893786Y-14066357D01*
X7879500Y-14052071D01*
X7850928Y-14037786D01*
X8265214Y-14209214D02*
X8265214Y-13909214D01*
X8393786Y-14209214D02*
X8393786Y-14052071D01*
X8379500Y-14023500D01*
X8350928Y-14009214D01*
X8308071Y-14009214D01*
X8279500Y-14023500D01*
X8265214Y-14037786D01*
X8579500Y-14209214D02*
X8550928Y-14194929D01*
X8536643Y-14180643D01*
X8522357Y-14152071D01*
X8522357Y-14066357D01*
X8536643Y-14037786D01*
X8550928Y-14023500D01*
X8579500Y-14009214D01*
X8622357Y-14009214D01*
X8650928Y-14023500D01*
X8665214Y-14037786D01*
X8679500Y-14066357D01*
X8679500Y-14152071D01*
X8665214Y-14180643D01*
X8650928Y-14194929D01*
X8622357Y-14209214D01*
X8579500Y-14209214D01*
X8850928Y-14209214D02*
X8822357Y-14194929D01*
X8808071Y-14166357D01*
X8808071Y-13909214D01*
X9079500Y-14194929D02*
X9050928Y-14209214D01*
X8993786Y-14209214D01*
X8965214Y-14194929D01*
X8950928Y-14166357D01*
X8950928Y-14052071D01*
X8965214Y-14023500D01*
X8993786Y-14009214D01*
X9050928Y-14009214D01*
X9079500Y-14023500D01*
X9093786Y-14052071D01*
X9093786Y-14080643D01*
X8950928Y-14109214D01*
X9208071Y-14194929D02*
X9236643Y-14209214D01*
X9293786Y-14209214D01*
X9322357Y-14194929D01*
X9336643Y-14166357D01*
X9336643Y-14152071D01*
X9322357Y-14123500D01*
X9293786Y-14109214D01*
X9250928Y-14109214D01*
X9222357Y-14094929D01*
X9208071Y-14066357D01*
X9208071Y-14052071D01*
X9222357Y-14023500D01*
X9250928Y-14009214D01*
X9293786Y-14009214D01*
X9322357Y-14023500D01*
X9693786Y-14094929D02*
X9922357Y-14094929D01*
X9808071Y-14209214D02*
X9808071Y-13980643D01*
X10265214Y-13909214D02*
X10450928Y-13909214D01*
X10350928Y-14023500D01*
X10393786Y-14023500D01*
X10422357Y-14037786D01*
X10436643Y-14052071D01*
X10450928Y-14080643D01*
X10450928Y-14152071D01*
X10436643Y-14180643D01*
X10422357Y-14194929D01*
X10393786Y-14209214D01*
X10308071Y-14209214D01*
X10279500Y-14194929D01*
X10265214Y-14180643D01*
X10793786Y-14194929D02*
X10822357Y-14209214D01*
X10879500Y-14209214D01*
X10908071Y-14194929D01*
X10922357Y-14166357D01*
X10922357Y-14152071D01*
X10908071Y-14123500D01*
X10879500Y-14109214D01*
X10836643Y-14109214D01*
X10808071Y-14094929D01*
X10793786Y-14066357D01*
X10793786Y-14052071D01*
X10808071Y-14023500D01*
X10836643Y-14009214D01*
X10879500Y-14009214D01*
X10908071Y-14023500D01*
X11093786Y-14209214D02*
X11065214Y-14194929D01*
X11050928Y-14166357D01*
X11050928Y-13909214D01*
X11250928Y-14209214D02*
X11222357Y-14194929D01*
X11208071Y-14180643D01*
X11193786Y-14152071D01*
X11193786Y-14066357D01*
X11208071Y-14037786D01*
X11222357Y-14023500D01*
X11250928Y-14009214D01*
X11293786Y-14009214D01*
X11322357Y-14023500D01*
X11336643Y-14037786D01*
X11350928Y-14066357D01*
X11350928Y-14152071D01*
X11336643Y-14180643D01*
X11322357Y-14194929D01*
X11293786Y-14209214D01*
X11250928Y-14209214D01*
X11436643Y-14009214D02*
X11550928Y-14009214D01*
X11479500Y-13909214D02*
X11479500Y-14166357D01*
X11493786Y-14194929D01*
X11522357Y-14209214D01*
X11550928Y-14209214D01*
X11636643Y-14194929D02*
X11665214Y-14209214D01*
X11722357Y-14209214D01*
X11750928Y-14194929D01*
X11765214Y-14166357D01*
X11765214Y-14152071D01*
X11750928Y-14123500D01*
X11722357Y-14109214D01*
X11679500Y-14109214D01*
X11650928Y-14094929D01*
X11636643Y-14066357D01*
X11636643Y-14052071D01*
X11650928Y-14023500D01*
X11679500Y-14009214D01*
X11722357Y-14009214D01*
X11750928Y-14023500D01*
X11865214Y-14323500D02*
X11879500Y-14309214D01*
X11908071Y-14266357D01*
X11922357Y-14237786D01*
X11936643Y-14194929D01*
X11950928Y-14123500D01*
X11950928Y-14066357D01*
X11936643Y-13994929D01*
X11922357Y-13952071D01*
X11908071Y-13923500D01*
X11879500Y-13880643D01*
X11865214Y-13866357D01*
X2651320Y-14501320D02*
X2651320Y-14437680D01*
X2587680Y-14437680D01*
X2587680Y-14501320D01*
X2651320Y-14501320D01*
X3008071Y-14305214D02*
X3036643Y-14305214D01*
X3065214Y-14319500D01*
X3079500Y-14333786D01*
X3093786Y-14362357D01*
X3108071Y-14419500D01*
X3108071Y-14490929D01*
X3093786Y-14548071D01*
X3079500Y-14576643D01*
X3065214Y-14590929D01*
X3036643Y-14605214D01*
X3008071Y-14605214D01*
X2979500Y-14590929D01*
X2965214Y-14576643D01*
X2950928Y-14548071D01*
X2936643Y-14490929D01*
X2936643Y-14419500D01*
X2950928Y-14362357D01*
X2965214Y-14333786D01*
X2979500Y-14319500D01*
X3008071Y-14305214D01*
X3236643Y-14576643D02*
X3250928Y-14590929D01*
X3236643Y-14605214D01*
X3222357Y-14590929D01*
X3236643Y-14576643D01*
X3236643Y-14605214D01*
X3393786Y-14605214D02*
X3450928Y-14605214D01*
X3479500Y-14590929D01*
X3493786Y-14576643D01*
X3522357Y-14533786D01*
X3536643Y-14476643D01*
X3536643Y-14362357D01*
X3522357Y-14333786D01*
X3508071Y-14319500D01*
X3479500Y-14305214D01*
X3422357Y-14305214D01*
X3393786Y-14319500D01*
X3379500Y-14333786D01*
X3365214Y-14362357D01*
X3365214Y-14433786D01*
X3379500Y-14462357D01*
X3393786Y-14476643D01*
X3422357Y-14490929D01*
X3479500Y-14490929D01*
X3508071Y-14476643D01*
X3522357Y-14462357D01*
X3536643Y-14433786D01*
X3722357Y-14305214D02*
X3750928Y-14305214D01*
X3779500Y-14319500D01*
X3793786Y-14333786D01*
X3808071Y-14362357D01*
X3822357Y-14419500D01*
X3822357Y-14490929D01*
X3808071Y-14548071D01*
X3793786Y-14576643D01*
X3779500Y-14590929D01*
X3750928Y-14605214D01*
X3722357Y-14605214D01*
X3693786Y-14590929D01*
X3679500Y-14576643D01*
X3665214Y-14548071D01*
X3650928Y-14490929D01*
X3650928Y-14419500D01*
X3665214Y-14362357D01*
X3679500Y-14333786D01*
X3693786Y-14319500D01*
X3722357Y-14305214D01*
X3950928Y-14605214D02*
X3950928Y-14405214D01*
X3950928Y-14433786D02*
X3965214Y-14419500D01*
X3993786Y-14405214D01*
X4036643Y-14405214D01*
X4065214Y-14419500D01*
X4079500Y-14448071D01*
X4079500Y-14605214D01*
X4079500Y-14448071D02*
X4093786Y-14419500D01*
X4122357Y-14405214D01*
X4165214Y-14405214D01*
X4193786Y-14419500D01*
X4208071Y-14448071D01*
X4208071Y-14605214D01*
X4350928Y-14605214D02*
X4350928Y-14405214D01*
X4350928Y-14433786D02*
X4365214Y-14419500D01*
X4393786Y-14405214D01*
X4436643Y-14405214D01*
X4465214Y-14419500D01*
X4479500Y-14448071D01*
X4479500Y-14605214D01*
X4479500Y-14448071D02*
X4493786Y-14419500D01*
X4522357Y-14405214D01*
X4565214Y-14405214D01*
X4593786Y-14419500D01*
X4608071Y-14448071D01*
X4608071Y-14605214D01*
X5193786Y-14290929D02*
X4936643Y-14676643D01*
X5579500Y-14305214D02*
X5608071Y-14305214D01*
X5636643Y-14319500D01*
X5650928Y-14333786D01*
X5665214Y-14362357D01*
X5679500Y-14419500D01*
X5679500Y-14490929D01*
X5665214Y-14548071D01*
X5650928Y-14576643D01*
X5636643Y-14590929D01*
X5608071Y-14605214D01*
X5579500Y-14605214D01*
X5550928Y-14590929D01*
X5536643Y-14576643D01*
X5522357Y-14548071D01*
X5508071Y-14490929D01*
X5508071Y-14419500D01*
X5522357Y-14362357D01*
X5536643Y-14333786D01*
X5550928Y-14319500D01*
X5579500Y-14305214D01*
X5808071Y-14576643D02*
X5822357Y-14590929D01*
X5808071Y-14605214D01*
X5793786Y-14590929D01*
X5808071Y-14576643D01*
X5808071Y-14605214D01*
X6008071Y-14305214D02*
X6036643Y-14305214D01*
X6065214Y-14319500D01*
X6079500Y-14333786D01*
X6093786Y-14362357D01*
X6108071Y-14419500D01*
X6108071Y-14490929D01*
X6093786Y-14548071D01*
X6079500Y-14576643D01*
X6065214Y-14590929D01*
X6036643Y-14605214D01*
X6008071Y-14605214D01*
X5979500Y-14590929D01*
X5965214Y-14576643D01*
X5950928Y-14548071D01*
X5936643Y-14490929D01*
X5936643Y-14419500D01*
X5950928Y-14362357D01*
X5965214Y-14333786D01*
X5979500Y-14319500D01*
X6008071Y-14305214D01*
X6208071Y-14305214D02*
X6393786Y-14305214D01*
X6293786Y-14419500D01*
X6336643Y-14419500D01*
X6365214Y-14433786D01*
X6379500Y-14448071D01*
X6393786Y-14476643D01*
X6393786Y-14548071D01*
X6379500Y-14576643D01*
X6365214Y-14590929D01*
X6336643Y-14605214D01*
X6250928Y-14605214D01*
X6222357Y-14590929D01*
X6208071Y-14576643D01*
X6665214Y-14305214D02*
X6522357Y-14305214D01*
X6508071Y-14448071D01*
X6522357Y-14433786D01*
X6550928Y-14419500D01*
X6622357Y-14419500D01*
X6650928Y-14433786D01*
X6665214Y-14448071D01*
X6679500Y-14476643D01*
X6679500Y-14548071D01*
X6665214Y-14576643D01*
X6650928Y-14590929D01*
X6622357Y-14605214D01*
X6550928Y-14605214D01*
X6522357Y-14590929D01*
X6508071Y-14576643D01*
X6793786Y-14305214D02*
X6793786Y-14362357D01*
X6908071Y-14305214D02*
X6908071Y-14362357D01*
X7350928Y-14719500D02*
X7336643Y-14705214D01*
X7308071Y-14662357D01*
X7293786Y-14633786D01*
X7279500Y-14590929D01*
X7265214Y-14519500D01*
X7265214Y-14462357D01*
X7279500Y-14390929D01*
X7293786Y-14348071D01*
X7308071Y-14319500D01*
X7336643Y-14276643D01*
X7350928Y-14262357D01*
X7593786Y-14305214D02*
X7536643Y-14305214D01*
X7508071Y-14319500D01*
X7493786Y-14333786D01*
X7465214Y-14376643D01*
X7450928Y-14433786D01*
X7450928Y-14548071D01*
X7465214Y-14576643D01*
X7479500Y-14590929D01*
X7508071Y-14605214D01*
X7565214Y-14605214D01*
X7593786Y-14590929D01*
X7608071Y-14576643D01*
X7622357Y-14548071D01*
X7622357Y-14476643D01*
X7608071Y-14448071D01*
X7593786Y-14433786D01*
X7565214Y-14419500D01*
X7508071Y-14419500D01*
X7479500Y-14433786D01*
X7465214Y-14448071D01*
X7450928Y-14476643D01*
X7979500Y-14605214D02*
X7979500Y-14305214D01*
X8108071Y-14605214D02*
X8108071Y-14448071D01*
X8093786Y-14419500D01*
X8065214Y-14405214D01*
X8022357Y-14405214D01*
X7993786Y-14419500D01*
X7979500Y-14433786D01*
X8293786Y-14605214D02*
X8265214Y-14590929D01*
X8250928Y-14576643D01*
X8236643Y-14548071D01*
X8236643Y-14462357D01*
X8250928Y-14433786D01*
X8265214Y-14419500D01*
X8293786Y-14405214D01*
X8336643Y-14405214D01*
X8365214Y-14419500D01*
X8379500Y-14433786D01*
X8393786Y-14462357D01*
X8393786Y-14548071D01*
X8379500Y-14576643D01*
X8365214Y-14590929D01*
X8336643Y-14605214D01*
X8293786Y-14605214D01*
X8565214Y-14605214D02*
X8536643Y-14590929D01*
X8522357Y-14562357D01*
X8522357Y-14305214D01*
X8793786Y-14590929D02*
X8765214Y-14605214D01*
X8708071Y-14605214D01*
X8679500Y-14590929D01*
X8665214Y-14562357D01*
X8665214Y-14448071D01*
X8679500Y-14419500D01*
X8708071Y-14405214D01*
X8765214Y-14405214D01*
X8793786Y-14419500D01*
X8808071Y-14448071D01*
X8808071Y-14476643D01*
X8665214Y-14505214D01*
X8922357Y-14590929D02*
X8950928Y-14605214D01*
X9008071Y-14605214D01*
X9036643Y-14590929D01*
X9050928Y-14562357D01*
X9050928Y-14548071D01*
X9036643Y-14519500D01*
X9008071Y-14505214D01*
X8965214Y-14505214D01*
X8936643Y-14490929D01*
X8922357Y-14462357D01*
X8922357Y-14448071D01*
X8936643Y-14419500D01*
X8965214Y-14405214D01*
X9008071Y-14405214D01*
X9036643Y-14419500D01*
X9150928Y-14719500D02*
X9165214Y-14705214D01*
X9193786Y-14662357D01*
X9208071Y-14633786D01*
X9222357Y-14590929D01*
X9236643Y-14519500D01*
X9236643Y-14462357D01*
X9222357Y-14390929D01*
X9208071Y-14348071D01*
X9193786Y-14319500D01*
X9165214Y-14276643D01*
X9150928Y-14262357D01*
X2614500Y-14915500D02*
X2664500Y-14865500D01*
X2614500Y-14815500D01*
X2564500Y-14865500D01*
X2614500Y-14915500D01*
X3108071Y-15001214D02*
X2936643Y-15001214D01*
X3022357Y-15001214D02*
X3022357Y-14701214D01*
X2993786Y-14744071D01*
X2965214Y-14772643D01*
X2936643Y-14786929D01*
X3236643Y-14972643D02*
X3250928Y-14986929D01*
X3236643Y-15001214D01*
X3222357Y-14986929D01*
X3236643Y-14972643D01*
X3236643Y-15001214D01*
X3436643Y-14701214D02*
X3465214Y-14701214D01*
X3493786Y-14715500D01*
X3508071Y-14729786D01*
X3522357Y-14758357D01*
X3536643Y-14815500D01*
X3536643Y-14886929D01*
X3522357Y-14944071D01*
X3508071Y-14972643D01*
X3493786Y-14986929D01*
X3465214Y-15001214D01*
X3436643Y-15001214D01*
X3408071Y-14986929D01*
X3393786Y-14972643D01*
X3379500Y-14944071D01*
X3365214Y-14886929D01*
X3365214Y-14815500D01*
X3379500Y-14758357D01*
X3393786Y-14729786D01*
X3408071Y-14715500D01*
X3436643Y-14701214D01*
X3722357Y-14701214D02*
X3750928Y-14701214D01*
X3779500Y-14715500D01*
X3793786Y-14729786D01*
X3808071Y-14758357D01*
X3822357Y-14815500D01*
X3822357Y-14886929D01*
X3808071Y-14944071D01*
X3793786Y-14972643D01*
X3779500Y-14986929D01*
X3750928Y-15001214D01*
X3722357Y-15001214D01*
X3693786Y-14986929D01*
X3679500Y-14972643D01*
X3665214Y-14944071D01*
X3650928Y-14886929D01*
X3650928Y-14815500D01*
X3665214Y-14758357D01*
X3679500Y-14729786D01*
X3693786Y-14715500D01*
X3722357Y-14701214D01*
X3950928Y-15001214D02*
X3950928Y-14801214D01*
X3950928Y-14829786D02*
X3965214Y-14815500D01*
X3993786Y-14801214D01*
X4036643Y-14801214D01*
X4065214Y-14815500D01*
X4079500Y-14844071D01*
X4079500Y-15001214D01*
X4079500Y-14844071D02*
X4093786Y-14815500D01*
X4122357Y-14801214D01*
X4165214Y-14801214D01*
X4193786Y-14815500D01*
X4208071Y-14844071D01*
X4208071Y-15001214D01*
X4350928Y-15001214D02*
X4350928Y-14801214D01*
X4350928Y-14829786D02*
X4365214Y-14815500D01*
X4393786Y-14801214D01*
X4436643Y-14801214D01*
X4465214Y-14815500D01*
X4479500Y-14844071D01*
X4479500Y-15001214D01*
X4479500Y-14844071D02*
X4493786Y-14815500D01*
X4522357Y-14801214D01*
X4565214Y-14801214D01*
X4593786Y-14815500D01*
X4608071Y-14844071D01*
X4608071Y-15001214D01*
X5193786Y-14686929D02*
X4936643Y-15072643D01*
X5579500Y-14701214D02*
X5608071Y-14701214D01*
X5636643Y-14715500D01*
X5650928Y-14729786D01*
X5665214Y-14758357D01*
X5679500Y-14815500D01*
X5679500Y-14886929D01*
X5665214Y-14944071D01*
X5650928Y-14972643D01*
X5636643Y-14986929D01*
X5608071Y-15001214D01*
X5579500Y-15001214D01*
X5550928Y-14986929D01*
X5536643Y-14972643D01*
X5522357Y-14944071D01*
X5508071Y-14886929D01*
X5508071Y-14815500D01*
X5522357Y-14758357D01*
X5536643Y-14729786D01*
X5550928Y-14715500D01*
X5579500Y-14701214D01*
X5808071Y-14972643D02*
X5822357Y-14986929D01*
X5808071Y-15001214D01*
X5793786Y-14986929D01*
X5808071Y-14972643D01*
X5808071Y-15001214D01*
X6008071Y-14701214D02*
X6036643Y-14701214D01*
X6065214Y-14715500D01*
X6079500Y-14729786D01*
X6093786Y-14758357D01*
X6108071Y-14815500D01*
X6108071Y-14886929D01*
X6093786Y-14944071D01*
X6079500Y-14972643D01*
X6065214Y-14986929D01*
X6036643Y-15001214D01*
X6008071Y-15001214D01*
X5979500Y-14986929D01*
X5965214Y-14972643D01*
X5950928Y-14944071D01*
X5936643Y-14886929D01*
X5936643Y-14815500D01*
X5950928Y-14758357D01*
X5965214Y-14729786D01*
X5979500Y-14715500D01*
X6008071Y-14701214D01*
X6208071Y-14701214D02*
X6393786Y-14701214D01*
X6293786Y-14815500D01*
X6336643Y-14815500D01*
X6365214Y-14829786D01*
X6379500Y-14844071D01*
X6393786Y-14872643D01*
X6393786Y-14944071D01*
X6379500Y-14972643D01*
X6365214Y-14986929D01*
X6336643Y-15001214D01*
X6250928Y-15001214D01*
X6222357Y-14986929D01*
X6208071Y-14972643D01*
X6536643Y-15001214D02*
X6593786Y-15001214D01*
X6622357Y-14986929D01*
X6636643Y-14972643D01*
X6665214Y-14929786D01*
X6679500Y-14872643D01*
X6679500Y-14758357D01*
X6665214Y-14729786D01*
X6650928Y-14715500D01*
X6622357Y-14701214D01*
X6565214Y-14701214D01*
X6536643Y-14715500D01*
X6522357Y-14729786D01*
X6508071Y-14758357D01*
X6508071Y-14829786D01*
X6522357Y-14858357D01*
X6536643Y-14872643D01*
X6565214Y-14886929D01*
X6622357Y-14886929D01*
X6650928Y-14872643D01*
X6665214Y-14858357D01*
X6679500Y-14829786D01*
X6793786Y-14701214D02*
X6793786Y-14758357D01*
X6908071Y-14701214D02*
X6908071Y-14758357D01*
X7350928Y-15115500D02*
X7336643Y-15101214D01*
X7308071Y-15058357D01*
X7293786Y-15029786D01*
X7279500Y-14986929D01*
X7265214Y-14915500D01*
X7265214Y-14858357D01*
X7279500Y-14786929D01*
X7293786Y-14744071D01*
X7308071Y-14715500D01*
X7336643Y-14672643D01*
X7350928Y-14658357D01*
X7622357Y-15001214D02*
X7450928Y-15001214D01*
X7536643Y-15001214D02*
X7536643Y-14701214D01*
X7508071Y-14744071D01*
X7479500Y-14772643D01*
X7450928Y-14786929D01*
X7722357Y-14701214D02*
X7922357Y-14701214D01*
X7793786Y-15001214D01*
X8008071Y-14701214D02*
X8193786Y-14701214D01*
X8093786Y-14815500D01*
X8136643Y-14815500D01*
X8165214Y-14829786D01*
X8179500Y-14844071D01*
X8193786Y-14872643D01*
X8193786Y-14944071D01*
X8179500Y-14972643D01*
X8165214Y-14986929D01*
X8136643Y-15001214D01*
X8050928Y-15001214D01*
X8022357Y-14986929D01*
X8008071Y-14972643D01*
X8550928Y-15001214D02*
X8550928Y-14701214D01*
X8679500Y-15001214D02*
X8679500Y-14844071D01*
X8665214Y-14815500D01*
X8636643Y-14801214D01*
X8593786Y-14801214D01*
X8565214Y-14815500D01*
X8550928Y-14829786D01*
X8865214Y-15001214D02*
X8836643Y-14986929D01*
X8822357Y-14972643D01*
X8808071Y-14944071D01*
X8808071Y-14858357D01*
X8822357Y-14829786D01*
X8836643Y-14815500D01*
X8865214Y-14801214D01*
X8908071Y-14801214D01*
X8936643Y-14815500D01*
X8950928Y-14829786D01*
X8965214Y-14858357D01*
X8965214Y-14944071D01*
X8950928Y-14972643D01*
X8936643Y-14986929D01*
X8908071Y-15001214D01*
X8865214Y-15001214D01*
X9136643Y-15001214D02*
X9108071Y-14986929D01*
X9093786Y-14958357D01*
X9093786Y-14701214D01*
X9365214Y-14986929D02*
X9336643Y-15001214D01*
X9279500Y-15001214D01*
X9250928Y-14986929D01*
X9236643Y-14958357D01*
X9236643Y-14844071D01*
X9250928Y-14815500D01*
X9279500Y-14801214D01*
X9336643Y-14801214D01*
X9365214Y-14815500D01*
X9379500Y-14844071D01*
X9379500Y-14872643D01*
X9236643Y-14901214D01*
X9493786Y-14986929D02*
X9522357Y-15001214D01*
X9579500Y-15001214D01*
X9608071Y-14986929D01*
X9622357Y-14958357D01*
X9622357Y-14944071D01*
X9608071Y-14915500D01*
X9579500Y-14901214D01*
X9536643Y-14901214D01*
X9508071Y-14886929D01*
X9493786Y-14858357D01*
X9493786Y-14844071D01*
X9508071Y-14815500D01*
X9536643Y-14801214D01*
X9579500Y-14801214D01*
X9608071Y-14815500D01*
X9722357Y-15115500D02*
X9736643Y-15101214D01*
X9765214Y-15058357D01*
X9779500Y-15029786D01*
X9793786Y-14986929D01*
X9808071Y-14915500D01*
X9808071Y-14858357D01*
X9793786Y-14786929D01*
X9779500Y-14744071D01*
X9765214Y-14715500D01*
X9736643Y-14672643D01*
X9722357Y-14658357D01*
X2512500Y-15185500D02*
X2664500Y-15337500D01*
X2664500Y-15185500D02*
X2512500Y-15337500D01*
X2664500Y-15261500D02*
G75*
G03X2664500Y-15261500I-76000J0D01*
G01*
X3108071Y-15397214D02*
X2936643Y-15397214D01*
X3022357Y-15397214D02*
X3022357Y-15097214D01*
X2993786Y-15140071D01*
X2965214Y-15168643D01*
X2936643Y-15182929D01*
X3236643Y-15368643D02*
X3250928Y-15382929D01*
X3236643Y-15397214D01*
X3222357Y-15382929D01*
X3236643Y-15368643D01*
X3236643Y-15397214D01*
X3522357Y-15097214D02*
X3379500Y-15097214D01*
X3365214Y-15240071D01*
X3379500Y-15225786D01*
X3408071Y-15211500D01*
X3479500Y-15211500D01*
X3508071Y-15225786D01*
X3522357Y-15240071D01*
X3536643Y-15268643D01*
X3536643Y-15340071D01*
X3522357Y-15368643D01*
X3508071Y-15382929D01*
X3479500Y-15397214D01*
X3408071Y-15397214D01*
X3379500Y-15382929D01*
X3365214Y-15368643D01*
X3650928Y-15125786D02*
X3665214Y-15111500D01*
X3693786Y-15097214D01*
X3765214Y-15097214D01*
X3793786Y-15111500D01*
X3808071Y-15125786D01*
X3822357Y-15154357D01*
X3822357Y-15182929D01*
X3808071Y-15225786D01*
X3636643Y-15397214D01*
X3822357Y-15397214D01*
X3950928Y-15397214D02*
X3950928Y-15197214D01*
X3950928Y-15225786D02*
X3965214Y-15211500D01*
X3993786Y-15197214D01*
X4036643Y-15197214D01*
X4065214Y-15211500D01*
X4079500Y-15240071D01*
X4079500Y-15397214D01*
X4079500Y-15240071D02*
X4093786Y-15211500D01*
X4122357Y-15197214D01*
X4165214Y-15197214D01*
X4193786Y-15211500D01*
X4208071Y-15240071D01*
X4208071Y-15397214D01*
X4350928Y-15397214D02*
X4350928Y-15197214D01*
X4350928Y-15225786D02*
X4365214Y-15211500D01*
X4393786Y-15197214D01*
X4436643Y-15197214D01*
X4465214Y-15211500D01*
X4479500Y-15240071D01*
X4479500Y-15397214D01*
X4479500Y-15240071D02*
X4493786Y-15211500D01*
X4522357Y-15197214D01*
X4565214Y-15197214D01*
X4593786Y-15211500D01*
X4608071Y-15240071D01*
X4608071Y-15397214D01*
X5193786Y-15082929D02*
X4936643Y-15468643D01*
X5579500Y-15097214D02*
X5608071Y-15097214D01*
X5636643Y-15111500D01*
X5650928Y-15125786D01*
X5665214Y-15154357D01*
X5679500Y-15211500D01*
X5679500Y-15282929D01*
X5665214Y-15340071D01*
X5650928Y-15368643D01*
X5636643Y-15382929D01*
X5608071Y-15397214D01*
X5579500Y-15397214D01*
X5550928Y-15382929D01*
X5536643Y-15368643D01*
X5522357Y-15340071D01*
X5508071Y-15282929D01*
X5508071Y-15211500D01*
X5522357Y-15154357D01*
X5536643Y-15125786D01*
X5550928Y-15111500D01*
X5579500Y-15097214D01*
X5808071Y-15368643D02*
X5822357Y-15382929D01*
X5808071Y-15397214D01*
X5793786Y-15382929D01*
X5808071Y-15368643D01*
X5808071Y-15397214D01*
X6008071Y-15097214D02*
X6036643Y-15097214D01*
X6065214Y-15111500D01*
X6079500Y-15125786D01*
X6093786Y-15154357D01*
X6108071Y-15211500D01*
X6108071Y-15282929D01*
X6093786Y-15340071D01*
X6079500Y-15368643D01*
X6065214Y-15382929D01*
X6036643Y-15397214D01*
X6008071Y-15397214D01*
X5979500Y-15382929D01*
X5965214Y-15368643D01*
X5950928Y-15340071D01*
X5936643Y-15282929D01*
X5936643Y-15211500D01*
X5950928Y-15154357D01*
X5965214Y-15125786D01*
X5979500Y-15111500D01*
X6008071Y-15097214D01*
X6365214Y-15097214D02*
X6308071Y-15097214D01*
X6279500Y-15111500D01*
X6265214Y-15125786D01*
X6236643Y-15168643D01*
X6222357Y-15225786D01*
X6222357Y-15340071D01*
X6236643Y-15368643D01*
X6250928Y-15382929D01*
X6279500Y-15397214D01*
X6336643Y-15397214D01*
X6365214Y-15382929D01*
X6379500Y-15368643D01*
X6393786Y-15340071D01*
X6393786Y-15268643D01*
X6379500Y-15240071D01*
X6365214Y-15225786D01*
X6336643Y-15211500D01*
X6279500Y-15211500D01*
X6250928Y-15225786D01*
X6236643Y-15240071D01*
X6222357Y-15268643D01*
X6579500Y-15097214D02*
X6608071Y-15097214D01*
X6636643Y-15111500D01*
X6650928Y-15125786D01*
X6665214Y-15154357D01*
X6679500Y-15211500D01*
X6679500Y-15282929D01*
X6665214Y-15340071D01*
X6650928Y-15368643D01*
X6636643Y-15382929D01*
X6608071Y-15397214D01*
X6579500Y-15397214D01*
X6550928Y-15382929D01*
X6536643Y-15368643D01*
X6522357Y-15340071D01*
X6508071Y-15282929D01*
X6508071Y-15211500D01*
X6522357Y-15154357D01*
X6536643Y-15125786D01*
X6550928Y-15111500D01*
X6579500Y-15097214D01*
X6793786Y-15097214D02*
X6793786Y-15154357D01*
X6908071Y-15097214D02*
X6908071Y-15154357D01*
X7350928Y-15511500D02*
X7336643Y-15497214D01*
X7308071Y-15454357D01*
X7293786Y-15425786D01*
X7279500Y-15382929D01*
X7265214Y-15311500D01*
X7265214Y-15254357D01*
X7279500Y-15182929D01*
X7293786Y-15140071D01*
X7308071Y-15111500D01*
X7336643Y-15068643D01*
X7350928Y-15054357D01*
X7450928Y-15125786D02*
X7465214Y-15111500D01*
X7493786Y-15097214D01*
X7565214Y-15097214D01*
X7593786Y-15111500D01*
X7608071Y-15125786D01*
X7622357Y-15154357D01*
X7622357Y-15182929D01*
X7608071Y-15225786D01*
X7436643Y-15397214D01*
X7622357Y-15397214D01*
X7979500Y-15397214D02*
X7979500Y-15097214D01*
X8108071Y-15397214D02*
X8108071Y-15240071D01*
X8093786Y-15211500D01*
X8065214Y-15197214D01*
X8022357Y-15197214D01*
X7993786Y-15211500D01*
X7979500Y-15225786D01*
X8293786Y-15397214D02*
X8265214Y-15382929D01*
X8250928Y-15368643D01*
X8236643Y-15340071D01*
X8236643Y-15254357D01*
X8250928Y-15225786D01*
X8265214Y-15211500D01*
X8293786Y-15197214D01*
X8336643Y-15197214D01*
X8365214Y-15211500D01*
X8379500Y-15225786D01*
X8393786Y-15254357D01*
X8393786Y-15340071D01*
X8379500Y-15368643D01*
X8365214Y-15382929D01*
X8336643Y-15397214D01*
X8293786Y-15397214D01*
X8565214Y-15397214D02*
X8536643Y-15382929D01*
X8522357Y-15354357D01*
X8522357Y-15097214D01*
X8793786Y-15382929D02*
X8765214Y-15397214D01*
X8708071Y-15397214D01*
X8679500Y-15382929D01*
X8665214Y-15354357D01*
X8665214Y-15240071D01*
X8679500Y-15211500D01*
X8708071Y-15197214D01*
X8765214Y-15197214D01*
X8793786Y-15211500D01*
X8808071Y-15240071D01*
X8808071Y-15268643D01*
X8665214Y-15297214D01*
X8922357Y-15382929D02*
X8950928Y-15397214D01*
X9008071Y-15397214D01*
X9036643Y-15382929D01*
X9050928Y-15354357D01*
X9050928Y-15340071D01*
X9036643Y-15311500D01*
X9008071Y-15297214D01*
X8965214Y-15297214D01*
X8936643Y-15282929D01*
X8922357Y-15254357D01*
X8922357Y-15240071D01*
X8936643Y-15211500D01*
X8965214Y-15197214D01*
X9008071Y-15197214D01*
X9036643Y-15211500D01*
X9150928Y-15511500D02*
X9165214Y-15497214D01*
X9193786Y-15454357D01*
X9208071Y-15425786D01*
X9222357Y-15382929D01*
X9236643Y-15311500D01*
X9236643Y-15254357D01*
X9222357Y-15182929D01*
X9208071Y-15140071D01*
X9193786Y-15111500D01*
X9165214Y-15068643D01*
X9150928Y-15054357D01*
X2364500Y-15507500D02*
X2664500Y-15807500D01*
X2664500Y-15507500D02*
X2364500Y-15807500D01*
X2514500Y-15507500D02*
X2514500Y-15807500D01*
X2364500Y-15657500D02*
X2664500Y-15657500D01*
X2922357Y-15493214D02*
X3108071Y-15493214D01*
X3008071Y-15607500D01*
X3050928Y-15607500D01*
X3079500Y-15621786D01*
X3093786Y-15636071D01*
X3108071Y-15664643D01*
X3108071Y-15736071D01*
X3093786Y-15764643D01*
X3079500Y-15778929D01*
X3050928Y-15793214D01*
X2965214Y-15793214D01*
X2936643Y-15778929D01*
X2922357Y-15764643D01*
X3236643Y-15764643D02*
X3250928Y-15778929D01*
X3236643Y-15793214D01*
X3222357Y-15778929D01*
X3236643Y-15764643D01*
X3236643Y-15793214D01*
X3436643Y-15493214D02*
X3465214Y-15493214D01*
X3493786Y-15507500D01*
X3508071Y-15521786D01*
X3522357Y-15550357D01*
X3536643Y-15607500D01*
X3536643Y-15678929D01*
X3522357Y-15736071D01*
X3508071Y-15764643D01*
X3493786Y-15778929D01*
X3465214Y-15793214D01*
X3436643Y-15793214D01*
X3408071Y-15778929D01*
X3393786Y-15764643D01*
X3379500Y-15736071D01*
X3365214Y-15678929D01*
X3365214Y-15607500D01*
X3379500Y-15550357D01*
X3393786Y-15521786D01*
X3408071Y-15507500D01*
X3436643Y-15493214D01*
X3722357Y-15493214D02*
X3750928Y-15493214D01*
X3779500Y-15507500D01*
X3793786Y-15521786D01*
X3808071Y-15550357D01*
X3822357Y-15607500D01*
X3822357Y-15678929D01*
X3808071Y-15736071D01*
X3793786Y-15764643D01*
X3779500Y-15778929D01*
X3750928Y-15793214D01*
X3722357Y-15793214D01*
X3693786Y-15778929D01*
X3679500Y-15764643D01*
X3665214Y-15736071D01*
X3650928Y-15678929D01*
X3650928Y-15607500D01*
X3665214Y-15550357D01*
X3679500Y-15521786D01*
X3693786Y-15507500D01*
X3722357Y-15493214D01*
X3950928Y-15793214D02*
X3950928Y-15593214D01*
X3950928Y-15621786D02*
X3965214Y-15607500D01*
X3993786Y-15593214D01*
X4036643Y-15593214D01*
X4065214Y-15607500D01*
X4079500Y-15636071D01*
X4079500Y-15793214D01*
X4079500Y-15636071D02*
X4093786Y-15607500D01*
X4122357Y-15593214D01*
X4165214Y-15593214D01*
X4193786Y-15607500D01*
X4208071Y-15636071D01*
X4208071Y-15793214D01*
X4350928Y-15793214D02*
X4350928Y-15593214D01*
X4350928Y-15621786D02*
X4365214Y-15607500D01*
X4393786Y-15593214D01*
X4436643Y-15593214D01*
X4465214Y-15607500D01*
X4479500Y-15636071D01*
X4479500Y-15793214D01*
X4479500Y-15636071D02*
X4493786Y-15607500D01*
X4522357Y-15593214D01*
X4565214Y-15593214D01*
X4593786Y-15607500D01*
X4608071Y-15636071D01*
X4608071Y-15793214D01*
X5193786Y-15478929D02*
X4936643Y-15864643D01*
X5579500Y-15493214D02*
X5608071Y-15493214D01*
X5636643Y-15507500D01*
X5650928Y-15521786D01*
X5665214Y-15550357D01*
X5679500Y-15607500D01*
X5679500Y-15678929D01*
X5665214Y-15736071D01*
X5650928Y-15764643D01*
X5636643Y-15778929D01*
X5608071Y-15793214D01*
X5579500Y-15793214D01*
X5550928Y-15778929D01*
X5536643Y-15764643D01*
X5522357Y-15736071D01*
X5508071Y-15678929D01*
X5508071Y-15607500D01*
X5522357Y-15550357D01*
X5536643Y-15521786D01*
X5550928Y-15507500D01*
X5579500Y-15493214D01*
X5808071Y-15764643D02*
X5822357Y-15778929D01*
X5808071Y-15793214D01*
X5793786Y-15778929D01*
X5808071Y-15764643D01*
X5808071Y-15793214D01*
X6108071Y-15793214D02*
X5936643Y-15793214D01*
X6022357Y-15793214D02*
X6022357Y-15493214D01*
X5993786Y-15536071D01*
X5965214Y-15564643D01*
X5936643Y-15578929D01*
X6393786Y-15793214D02*
X6222357Y-15793214D01*
X6308071Y-15793214D02*
X6308071Y-15493214D01*
X6279500Y-15536071D01*
X6250928Y-15564643D01*
X6222357Y-15578929D01*
X6565214Y-15621786D02*
X6536643Y-15607500D01*
X6522357Y-15593214D01*
X6508071Y-15564643D01*
X6508071Y-15550357D01*
X6522357Y-15521786D01*
X6536643Y-15507500D01*
X6565214Y-15493214D01*
X6622357Y-15493214D01*
X6650928Y-15507500D01*
X6665214Y-15521786D01*
X6679500Y-15550357D01*
X6679500Y-15564643D01*
X6665214Y-15593214D01*
X6650928Y-15607500D01*
X6622357Y-15621786D01*
X6565214Y-15621786D01*
X6536643Y-15636071D01*
X6522357Y-15650357D01*
X6508071Y-15678929D01*
X6508071Y-15736071D01*
X6522357Y-15764643D01*
X6536643Y-15778929D01*
X6565214Y-15793214D01*
X6622357Y-15793214D01*
X6650928Y-15778929D01*
X6665214Y-15764643D01*
X6679500Y-15736071D01*
X6679500Y-15678929D01*
X6665214Y-15650357D01*
X6650928Y-15636071D01*
X6622357Y-15621786D01*
X6793786Y-15493214D02*
X6793786Y-15550357D01*
X6908071Y-15493214D02*
X6908071Y-15550357D01*
X7350928Y-15907500D02*
X7336643Y-15893214D01*
X7308071Y-15850357D01*
X7293786Y-15821786D01*
X7279500Y-15778929D01*
X7265214Y-15707500D01*
X7265214Y-15650357D01*
X7279500Y-15578929D01*
X7293786Y-15536071D01*
X7308071Y-15507500D01*
X7336643Y-15464643D01*
X7350928Y-15450357D01*
X7593786Y-15593214D02*
X7593786Y-15793214D01*
X7522357Y-15478929D02*
X7450928Y-15693214D01*
X7636643Y-15693214D01*
X7979500Y-15793214D02*
X7979500Y-15493214D01*
X8108071Y-15793214D02*
X8108071Y-15636071D01*
X8093786Y-15607500D01*
X8065214Y-15593214D01*
X8022357Y-15593214D01*
X7993786Y-15607500D01*
X7979500Y-15621786D01*
X8293786Y-15793214D02*
X8265214Y-15778929D01*
X8250928Y-15764643D01*
X8236643Y-15736071D01*
X8236643Y-15650357D01*
X8250928Y-15621786D01*
X8265214Y-15607500D01*
X8293786Y-15593214D01*
X8336643Y-15593214D01*
X8365214Y-15607500D01*
X8379500Y-15621786D01*
X8393786Y-15650357D01*
X8393786Y-15736071D01*
X8379500Y-15764643D01*
X8365214Y-15778929D01*
X8336643Y-15793214D01*
X8293786Y-15793214D01*
X8565214Y-15793214D02*
X8536643Y-15778929D01*
X8522357Y-15750357D01*
X8522357Y-15493214D01*
X8793786Y-15778929D02*
X8765214Y-15793214D01*
X8708071Y-15793214D01*
X8679500Y-15778929D01*
X8665214Y-15750357D01*
X8665214Y-15636071D01*
X8679500Y-15607500D01*
X8708071Y-15593214D01*
X8765214Y-15593214D01*
X8793786Y-15607500D01*
X8808071Y-15636071D01*
X8808071Y-15664643D01*
X8665214Y-15693214D01*
X8922357Y-15778929D02*
X8950928Y-15793214D01*
X9008071Y-15793214D01*
X9036643Y-15778929D01*
X9050928Y-15750357D01*
X9050928Y-15736071D01*
X9036643Y-15707500D01*
X9008071Y-15693214D01*
X8965214Y-15693214D01*
X8936643Y-15678929D01*
X8922357Y-15650357D01*
X8922357Y-15636071D01*
X8936643Y-15607500D01*
X8965214Y-15593214D01*
X9008071Y-15593214D01*
X9036643Y-15607500D01*
X9150928Y-15907500D02*
X9165214Y-15893214D01*
X9193786Y-15850357D01*
X9208071Y-15821786D01*
X9222357Y-15778929D01*
X9236643Y-15707500D01*
X9236643Y-15650357D01*
X9222357Y-15578929D01*
X9208071Y-15536071D01*
X9193786Y-15507500D01*
X9165214Y-15464643D01*
X9150928Y-15450357D01*
M02*
