M48
INCH,TZ
T1C0.0394
T2C0.0400
%
G90
G05
T1
X50500Y-27500
X50500Y-28500
X50500Y-29500
X50500Y-30500
X50500Y-31500
X50500Y-32500
X50500Y-33500
X50500Y-34500
X50500Y-35500
X50500Y-36500
X50500Y-37500
X50500Y-38500
X50500Y-39500
X50500Y-40500
X50500Y-41500
X50500Y-42500
X50500Y-43500
X50500Y-44500
X50500Y-45500
X50500Y-46500
X60000Y-31500
X60000Y-32500
X60000Y-33500
X60000Y-34500
X60000Y-35500
X60000Y-36500
X60000Y-37500
X60000Y-38500
X56500Y-27500
X56500Y-28500
X56500Y-29500
X56500Y-30500
X56500Y-31500
X56500Y-32500
X56500Y-33500
X56500Y-34500
X56500Y-35500
X56500Y-36500
X56500Y-37500
X56500Y-38500
X56500Y-39500
X56500Y-40500
X56500Y-41500
X56500Y-42500
X56500Y-43500
X56500Y-44500
X56500Y-45500
X56500Y-46500
T2
X53000Y-27500
X53000Y-28500
X53000Y-29500
X53000Y-30500
X53000Y-31500
X53000Y-32500
X53000Y-33500
X53000Y-34500
X53000Y-35500
X53000Y-36500
X53000Y-37500
X53000Y-38500
X53000Y-39500
X53000Y-40500
X53000Y-41500
X53000Y-42500
X53000Y-43500
X53000Y-44500
X53000Y-45500
X53000Y-46500
X54000Y-27500
X54000Y-28500
X54000Y-29500
X54000Y-30500
X54000Y-31500
X54000Y-32500
X54000Y-33500
X54000Y-34500
X54000Y-35500
X54000Y-36500
X54000Y-37500
X54000Y-38500
X54000Y-39500
X54000Y-40500
X54000Y-41500
X54000Y-42500
X54000Y-43500
X54000Y-44500
X54000Y-45500
X54000Y-46500
T0
M30
