%TF.GenerationSoftware,KiCad,Pcbnew,(5.1.6)-1*%
%TF.CreationDate,2020-08-11T03:39:42+02:00*%
%TF.ProjectId,Z80MiniFrameProtoConn,5a38304d-696e-4694-9672-616d6550726f,rev?*%
%TF.SameCoordinates,Original*%
%TF.FileFunction,Copper,L1,Top*%
%TF.FilePolarity,Positive*%
%FSLAX46Y46*%
G04 Gerber Fmt 4.6, Leading zero omitted, Abs format (unit mm)*
G04 Created by KiCad (PCBNEW (5.1.6)-1) date 2020-08-11 03:39:42*
%MOMM*%
%LPD*%
G01*
G04 APERTURE LIST*
%TA.AperFunction,ComponentPad*%
%ADD10O,1.700000X1.700000*%
%TD*%
%TA.AperFunction,ComponentPad*%
%ADD11R,1.700000X1.700000*%
%TD*%
%TA.AperFunction,ComponentPad*%
%ADD12O,1.727200X1.727200*%
%TD*%
%TA.AperFunction,ComponentPad*%
%ADD13R,1.727200X1.727200*%
%TD*%
%TA.AperFunction,Conductor*%
%ADD14C,0.250000*%
%TD*%
G04 APERTURE END LIST*
D10*
%TO.P,J4,8*%
%TO.N,/D7*%
X152400000Y-97790000D03*
%TO.P,J4,7*%
%TO.N,/D6*%
X152400000Y-95250000D03*
%TO.P,J4,6*%
%TO.N,/D5*%
X152400000Y-92710000D03*
%TO.P,J4,5*%
%TO.N,/D4*%
X152400000Y-90170000D03*
%TO.P,J4,4*%
%TO.N,/D3*%
X152400000Y-87630000D03*
%TO.P,J4,3*%
%TO.N,/D2*%
X152400000Y-85090000D03*
%TO.P,J4,2*%
%TO.N,/D1*%
X152400000Y-82550000D03*
D11*
%TO.P,J4,1*%
%TO.N,/D0*%
X152400000Y-80010000D03*
%TD*%
D10*
%TO.P,J3,20*%
%TO.N,Net-(J1-Pad40)*%
X143510000Y-118110000D03*
%TO.P,J3,19*%
%TO.N,Net-(J1-Pad38)*%
X143510000Y-115570000D03*
%TO.P,J3,18*%
%TO.N,Net-(J1-Pad36)*%
X143510000Y-113030000D03*
%TO.P,J3,17*%
%TO.N,GND*%
X143510000Y-110490000D03*
%TO.P,J3,16*%
%TO.N,Net-(J1-Pad32)*%
X143510000Y-107950000D03*
%TO.P,J3,15*%
%TO.N,Net-(J1-Pad30)*%
X143510000Y-105410000D03*
%TO.P,J3,14*%
%TO.N,Net-(J1-Pad28)*%
X143510000Y-102870000D03*
%TO.P,J3,13*%
%TO.N,Net-(J1-Pad26)*%
X143510000Y-100330000D03*
%TO.P,J3,12*%
%TO.N,Net-(J1-Pad24)*%
X143510000Y-97790000D03*
%TO.P,J3,11*%
%TO.N,Net-(J1-Pad22)*%
X143510000Y-95250000D03*
%TO.P,J3,10*%
%TO.N,Net-(J1-Pad20)*%
X143510000Y-92710000D03*
%TO.P,J3,9*%
%TO.N,Net-(J1-Pad18)*%
X143510000Y-90170000D03*
%TO.P,J3,8*%
%TO.N,/D6*%
X143510000Y-87630000D03*
%TO.P,J3,7*%
%TO.N,/D4*%
X143510000Y-85090000D03*
%TO.P,J3,6*%
%TO.N,/D2*%
X143510000Y-82550000D03*
%TO.P,J3,5*%
%TO.N,/D0*%
X143510000Y-80010000D03*
%TO.P,J3,4*%
%TO.N,Net-(J1-Pad8)*%
X143510000Y-77470000D03*
%TO.P,J3,3*%
%TO.N,Net-(J1-Pad6)*%
X143510000Y-74930000D03*
%TO.P,J3,2*%
%TO.N,Net-(J1-Pad4)*%
X143510000Y-72390000D03*
D11*
%TO.P,J3,1*%
%TO.N,Net-(J1-Pad2)*%
X143510000Y-69850000D03*
%TD*%
D10*
%TO.P,J2,20*%
%TO.N,Net-(J1-Pad39)*%
X128270000Y-118110000D03*
%TO.P,J2,19*%
%TO.N,Net-(J1-Pad37)*%
X128270000Y-115570000D03*
%TO.P,J2,18*%
%TO.N,Net-(J1-Pad35)*%
X128270000Y-113030000D03*
%TO.P,J2,17*%
%TO.N,Net-(J1-Pad33)*%
X128270000Y-110490000D03*
%TO.P,J2,16*%
%TO.N,Net-(J1-Pad31)*%
X128270000Y-107950000D03*
%TO.P,J2,15*%
%TO.N,Net-(J1-Pad29)*%
X128270000Y-105410000D03*
%TO.P,J2,14*%
%TO.N,Net-(J1-Pad27)*%
X128270000Y-102870000D03*
%TO.P,J2,13*%
%TO.N,Net-(J1-Pad25)*%
X128270000Y-100330000D03*
%TO.P,J2,12*%
%TO.N,Net-(J1-Pad23)*%
X128270000Y-97790000D03*
%TO.P,J2,11*%
%TO.N,Net-(J1-Pad21)*%
X128270000Y-95250000D03*
%TO.P,J2,10*%
%TO.N,Net-(J1-Pad19)*%
X128270000Y-92710000D03*
%TO.P,J2,9*%
%TO.N,/D7*%
X128270000Y-90170000D03*
%TO.P,J2,8*%
%TO.N,/D5*%
X128270000Y-87630000D03*
%TO.P,J2,7*%
%TO.N,/D3*%
X128270000Y-85090000D03*
%TO.P,J2,6*%
%TO.N,/D1*%
X128270000Y-82550000D03*
%TO.P,J2,5*%
%TO.N,VCC*%
X128270000Y-80010000D03*
%TO.P,J2,4*%
%TO.N,Net-(J1-Pad7)*%
X128270000Y-77470000D03*
%TO.P,J2,3*%
%TO.N,Net-(J1-Pad5)*%
X128270000Y-74930000D03*
%TO.P,J2,2*%
%TO.N,Net-(J1-Pad3)*%
X128270000Y-72390000D03*
D11*
%TO.P,J2,1*%
%TO.N,Net-(J1-Pad1)*%
X128270000Y-69850000D03*
%TD*%
D12*
%TO.P,J1,40*%
%TO.N,Net-(J1-Pad40)*%
X137160000Y-118110000D03*
%TO.P,J1,39*%
%TO.N,Net-(J1-Pad39)*%
X134620000Y-118110000D03*
%TO.P,J1,38*%
%TO.N,Net-(J1-Pad38)*%
X137160000Y-115570000D03*
%TO.P,J1,37*%
%TO.N,Net-(J1-Pad37)*%
X134620000Y-115570000D03*
%TO.P,J1,36*%
%TO.N,Net-(J1-Pad36)*%
X137160000Y-113030000D03*
%TO.P,J1,35*%
%TO.N,Net-(J1-Pad35)*%
X134620000Y-113030000D03*
%TO.P,J1,34*%
%TO.N,GND*%
X137160000Y-110490000D03*
%TO.P,J1,33*%
%TO.N,Net-(J1-Pad33)*%
X134620000Y-110490000D03*
%TO.P,J1,32*%
%TO.N,Net-(J1-Pad32)*%
X137160000Y-107950000D03*
%TO.P,J1,31*%
%TO.N,Net-(J1-Pad31)*%
X134620000Y-107950000D03*
%TO.P,J1,30*%
%TO.N,Net-(J1-Pad30)*%
X137160000Y-105410000D03*
%TO.P,J1,29*%
%TO.N,Net-(J1-Pad29)*%
X134620000Y-105410000D03*
%TO.P,J1,28*%
%TO.N,Net-(J1-Pad28)*%
X137160000Y-102870000D03*
%TO.P,J1,27*%
%TO.N,Net-(J1-Pad27)*%
X134620000Y-102870000D03*
%TO.P,J1,26*%
%TO.N,Net-(J1-Pad26)*%
X137160000Y-100330000D03*
%TO.P,J1,25*%
%TO.N,Net-(J1-Pad25)*%
X134620000Y-100330000D03*
%TO.P,J1,24*%
%TO.N,Net-(J1-Pad24)*%
X137160000Y-97790000D03*
%TO.P,J1,23*%
%TO.N,Net-(J1-Pad23)*%
X134620000Y-97790000D03*
%TO.P,J1,22*%
%TO.N,Net-(J1-Pad22)*%
X137160000Y-95250000D03*
%TO.P,J1,21*%
%TO.N,Net-(J1-Pad21)*%
X134620000Y-95250000D03*
%TO.P,J1,20*%
%TO.N,Net-(J1-Pad20)*%
X137160000Y-92710000D03*
%TO.P,J1,19*%
%TO.N,Net-(J1-Pad19)*%
X134620000Y-92710000D03*
%TO.P,J1,18*%
%TO.N,Net-(J1-Pad18)*%
X137160000Y-90170000D03*
%TO.P,J1,17*%
%TO.N,/D7*%
X134620000Y-90170000D03*
%TO.P,J1,16*%
%TO.N,/D6*%
X137160000Y-87630000D03*
%TO.P,J1,15*%
%TO.N,/D5*%
X134620000Y-87630000D03*
%TO.P,J1,14*%
%TO.N,/D4*%
X137160000Y-85090000D03*
%TO.P,J1,13*%
%TO.N,/D3*%
X134620000Y-85090000D03*
%TO.P,J1,12*%
%TO.N,/D2*%
X137160000Y-82550000D03*
%TO.P,J1,11*%
%TO.N,/D1*%
X134620000Y-82550000D03*
%TO.P,J1,10*%
%TO.N,/D0*%
X137160000Y-80010000D03*
%TO.P,J1,9*%
%TO.N,VCC*%
X134620000Y-80010000D03*
%TO.P,J1,8*%
%TO.N,Net-(J1-Pad8)*%
X137160000Y-77470000D03*
%TO.P,J1,7*%
%TO.N,Net-(J1-Pad7)*%
X134620000Y-77470000D03*
%TO.P,J1,6*%
%TO.N,Net-(J1-Pad6)*%
X137160000Y-74930000D03*
%TO.P,J1,5*%
%TO.N,Net-(J1-Pad5)*%
X134620000Y-74930000D03*
%TO.P,J1,4*%
%TO.N,Net-(J1-Pad4)*%
X137160000Y-72390000D03*
%TO.P,J1,3*%
%TO.N,Net-(J1-Pad3)*%
X134620000Y-72390000D03*
%TO.P,J1,2*%
%TO.N,Net-(J1-Pad2)*%
X137160000Y-69850000D03*
D13*
%TO.P,J1,1*%
%TO.N,Net-(J1-Pad1)*%
X134620000Y-69850000D03*
%TD*%
D14*
%TO.N,Net-(J1-Pad40)*%
X137160000Y-118110000D02*
X143510000Y-118110000D01*
%TO.N,Net-(J1-Pad37)*%
X128270000Y-115570000D02*
X134620000Y-115570000D01*
%TO.N,Net-(J1-Pad36)*%
X137160000Y-113030000D02*
X143510000Y-113030000D01*
%TO.N,Net-(J1-Pad33)*%
X128270000Y-110490000D02*
X134620000Y-110490000D01*
%TO.N,Net-(J1-Pad32)*%
X137160000Y-107950000D02*
X143510000Y-107950000D01*
%TO.N,Net-(J1-Pad29)*%
X128270000Y-105410000D02*
X134620000Y-105410000D01*
%TO.N,Net-(J1-Pad28)*%
X137160000Y-102870000D02*
X143510000Y-102870000D01*
%TO.N,Net-(J1-Pad25)*%
X134620000Y-100330000D02*
X128270000Y-100330000D01*
%TO.N,Net-(J1-Pad24)*%
X137160000Y-97790000D02*
X143510000Y-97790000D01*
%TO.N,Net-(J1-Pad21)*%
X128270000Y-95250000D02*
X134620000Y-95250000D01*
%TO.N,Net-(J1-Pad20)*%
X137160000Y-92710000D02*
X143510000Y-92710000D01*
%TO.N,/D7*%
X134620000Y-90170000D02*
X128270000Y-90170000D01*
%TO.N,/D6*%
X143510000Y-87630000D02*
X137160000Y-87630000D01*
%TO.N,/D3*%
X128270000Y-85090000D02*
X134620000Y-85090000D01*
%TO.N,/D2*%
X137160000Y-82550000D02*
X143510000Y-82550000D01*
%TO.N,Net-(J1-Pad8)*%
X137160000Y-77470000D02*
X143510000Y-77470000D01*
%TO.N,Net-(J1-Pad5)*%
X128270000Y-74930000D02*
X134620000Y-74930000D01*
%TO.N,Net-(J1-Pad4)*%
X137160000Y-72390000D02*
X143510000Y-72390000D01*
%TO.N,Net-(J1-Pad1)*%
X128270000Y-69850000D02*
X134620000Y-69850000D01*
%TO.N,VCC*%
X128270000Y-80010000D02*
X134620000Y-80010000D01*
%TO.N,/D7*%
X135971399Y-91521399D02*
X146131399Y-91521399D01*
X134620000Y-90170000D02*
X135971399Y-91521399D01*
X146131399Y-91521399D02*
X152400000Y-97790000D01*
%TO.N,/D6*%
X151130000Y-95250000D02*
X152400000Y-95250000D01*
X143510000Y-87630000D02*
X151130000Y-95250000D01*
%TO.N,/D3*%
X151048601Y-86278601D02*
X152400000Y-87630000D01*
X135808601Y-86278601D02*
X151048601Y-86278601D01*
X134620000Y-85090000D02*
X135808601Y-86278601D01*
%TO.N,/D2*%
X149860000Y-82550000D02*
X152400000Y-85090000D01*
X143510000Y-82550000D02*
X149860000Y-82550000D01*
%TD*%
M02*
