%FSLAX45Y45*%
G04 Gerber Fmt 4.5, Leading zero omitted, Abs format (unit mm)*
G04 Created by KiCad (PCBNEW (5.1.6)-1) date 2020-08-11 03:39:34*
%MOMM*%
%LPD*%
G01*
G04 APERTURE LIST*
%TA.AperFunction,Profile*%
%ADD10C,0.050000*%
%TD*%
%ADD11C,0.200000*%
%ADD12C,0.300000*%
G04 APERTURE END LIST*
D10*
X12192000Y-12827000D02*
X12065000Y-12827000D01*
X12192000Y-5969000D02*
X12065000Y-5969000D01*
X15621000Y-12827000D02*
X14986000Y-12827000D01*
X15621000Y-5969000D02*
X15621000Y-12827000D01*
X15494000Y-5969000D02*
X15621000Y-5969000D01*
X14986000Y-5969000D02*
X15494000Y-5969000D01*
X12065000Y-12827000D02*
X12065000Y-5969000D01*
X14986000Y-12827000D02*
X12192000Y-12827000D01*
X12192000Y-5969000D02*
X14986000Y-5969000D01*
D11*
D12*
X12348928Y-13295214D02*
X12348928Y-12995214D01*
X12420357Y-12995214D01*
X12463214Y-13009500D01*
X12491786Y-13038071D01*
X12506071Y-13066643D01*
X12520357Y-13123786D01*
X12520357Y-13166643D01*
X12506071Y-13223786D01*
X12491786Y-13252357D01*
X12463214Y-13280929D01*
X12420357Y-13295214D01*
X12348928Y-13295214D01*
X12648928Y-13295214D02*
X12648928Y-13095214D01*
X12648928Y-13152357D02*
X12663214Y-13123786D01*
X12677500Y-13109500D01*
X12706071Y-13095214D01*
X12734643Y-13095214D01*
X12834643Y-13295214D02*
X12834643Y-13095214D01*
X12834643Y-12995214D02*
X12820357Y-13009500D01*
X12834643Y-13023786D01*
X12848928Y-13009500D01*
X12834643Y-12995214D01*
X12834643Y-13023786D01*
X13020357Y-13295214D02*
X12991786Y-13280929D01*
X12977500Y-13252357D01*
X12977500Y-12995214D01*
X13177500Y-13295214D02*
X13148928Y-13280929D01*
X13134643Y-13252357D01*
X13134643Y-12995214D01*
X13520357Y-13295214D02*
X13520357Y-12995214D01*
X13620357Y-13209500D01*
X13720357Y-12995214D01*
X13720357Y-13295214D01*
X13991786Y-13295214D02*
X13991786Y-13138071D01*
X13977500Y-13109500D01*
X13948928Y-13095214D01*
X13891786Y-13095214D01*
X13863214Y-13109500D01*
X13991786Y-13280929D02*
X13963214Y-13295214D01*
X13891786Y-13295214D01*
X13863214Y-13280929D01*
X13848928Y-13252357D01*
X13848928Y-13223786D01*
X13863214Y-13195214D01*
X13891786Y-13180929D01*
X13963214Y-13180929D01*
X13991786Y-13166643D01*
X14134643Y-13095214D02*
X14134643Y-13395214D01*
X14134643Y-13109500D02*
X14163214Y-13095214D01*
X14220357Y-13095214D01*
X14248928Y-13109500D01*
X14263214Y-13123786D01*
X14277500Y-13152357D01*
X14277500Y-13238071D01*
X14263214Y-13266643D01*
X14248928Y-13280929D01*
X14220357Y-13295214D01*
X14163214Y-13295214D01*
X14134643Y-13280929D01*
X14406071Y-13266643D02*
X14420357Y-13280929D01*
X14406071Y-13295214D01*
X14391786Y-13280929D01*
X14406071Y-13266643D01*
X14406071Y-13295214D01*
X14406071Y-13109500D02*
X14420357Y-13123786D01*
X14406071Y-13138071D01*
X14391786Y-13123786D01*
X14406071Y-13109500D01*
X14406071Y-13138071D01*
M02*
