%TF.GenerationSoftware,KiCad,Pcbnew,(5.1.6)-1*%
%TF.CreationDate,2020-08-11T03:39:42+02:00*%
%TF.ProjectId,Z80MiniFrameProtoConn,5a38304d-696e-4694-9672-616d6550726f,rev?*%
%TF.SameCoordinates,Original*%
%TF.FileFunction,Legend,Top*%
%TF.FilePolarity,Positive*%
%FSLAX46Y46*%
G04 Gerber Fmt 4.6, Leading zero omitted, Abs format (unit mm)*
G04 Created by KiCad (PCBNEW (5.1.6)-1) date 2020-08-11 03:39:42*
%MOMM*%
%LPD*%
G01*
G04 APERTURE LIST*
%ADD10C,0.150000*%
%ADD11C,0.120000*%
G04 APERTURE END LIST*
D10*
X122507619Y-112958571D02*
X122650476Y-113006190D01*
X122698095Y-113053809D01*
X122745714Y-113149047D01*
X122745714Y-113291904D01*
X122698095Y-113387142D01*
X122650476Y-113434761D01*
X122555238Y-113482380D01*
X122174285Y-113482380D01*
X122174285Y-112482380D01*
X122507619Y-112482380D01*
X122602857Y-112530000D01*
X122650476Y-112577619D01*
X122698095Y-112672857D01*
X122698095Y-112768095D01*
X122650476Y-112863333D01*
X122602857Y-112910952D01*
X122507619Y-112958571D01*
X122174285Y-112958571D01*
X123174285Y-112482380D02*
X123174285Y-113291904D01*
X123221904Y-113387142D01*
X123269523Y-113434761D01*
X123364761Y-113482380D01*
X123555238Y-113482380D01*
X123650476Y-113434761D01*
X123698095Y-113387142D01*
X123745714Y-113291904D01*
X123745714Y-112482380D01*
X124174285Y-113434761D02*
X124317142Y-113482380D01*
X124555238Y-113482380D01*
X124650476Y-113434761D01*
X124698095Y-113387142D01*
X124745714Y-113291904D01*
X124745714Y-113196666D01*
X124698095Y-113101428D01*
X124650476Y-113053809D01*
X124555238Y-113006190D01*
X124364761Y-112958571D01*
X124269523Y-112910952D01*
X124221904Y-112863333D01*
X124174285Y-112768095D01*
X124174285Y-112672857D01*
X124221904Y-112577619D01*
X124269523Y-112530000D01*
X124364761Y-112482380D01*
X124602857Y-112482380D01*
X124745714Y-112530000D01*
X125745714Y-113482380D02*
X125412380Y-113006190D01*
X125174285Y-113482380D02*
X125174285Y-112482380D01*
X125555238Y-112482380D01*
X125650476Y-112530000D01*
X125698095Y-112577619D01*
X125745714Y-112672857D01*
X125745714Y-112815714D01*
X125698095Y-112910952D01*
X125650476Y-112958571D01*
X125555238Y-113006190D01*
X125174285Y-113006190D01*
X126840952Y-113577619D02*
X126745714Y-113530000D01*
X126650476Y-113434761D01*
X126507619Y-113291904D01*
X126412380Y-113244285D01*
X126317142Y-113244285D01*
X126364761Y-113482380D02*
X126269523Y-113434761D01*
X126174285Y-113339523D01*
X126126666Y-113149047D01*
X126126666Y-112815714D01*
X126174285Y-112625238D01*
X126269523Y-112530000D01*
X126364761Y-112482380D01*
X126555238Y-112482380D01*
X126650476Y-112530000D01*
X126745714Y-112625238D01*
X126793333Y-112815714D01*
X126793333Y-113149047D01*
X126745714Y-113339523D01*
X126650476Y-113434761D01*
X126555238Y-113482380D01*
X126364761Y-113482380D01*
X123269523Y-115736666D02*
X123745714Y-115736666D01*
X123174285Y-116022380D02*
X123507619Y-115022380D01*
X123840952Y-116022380D01*
X124698095Y-116022380D02*
X124126666Y-116022380D01*
X124412380Y-116022380D02*
X124412380Y-115022380D01*
X124317142Y-115165238D01*
X124221904Y-115260476D01*
X124126666Y-115308095D01*
X125031428Y-115022380D02*
X125650476Y-115022380D01*
X125317142Y-115403333D01*
X125460000Y-115403333D01*
X125555238Y-115450952D01*
X125602857Y-115498571D01*
X125650476Y-115593809D01*
X125650476Y-115831904D01*
X125602857Y-115927142D01*
X125555238Y-115974761D01*
X125460000Y-116022380D01*
X125174285Y-116022380D01*
X125079047Y-115974761D01*
X125031428Y-115927142D01*
X123269523Y-118276666D02*
X123745714Y-118276666D01*
X123174285Y-118562380D02*
X123507619Y-117562380D01*
X123840952Y-118562380D01*
X124698095Y-118562380D02*
X124126666Y-118562380D01*
X124412380Y-118562380D02*
X124412380Y-117562380D01*
X124317142Y-117705238D01*
X124221904Y-117800476D01*
X124126666Y-117848095D01*
X125602857Y-117562380D02*
X125126666Y-117562380D01*
X125079047Y-118038571D01*
X125126666Y-117990952D01*
X125221904Y-117943333D01*
X125460000Y-117943333D01*
X125555238Y-117990952D01*
X125602857Y-118038571D01*
X125650476Y-118133809D01*
X125650476Y-118371904D01*
X125602857Y-118467142D01*
X125555238Y-118514761D01*
X125460000Y-118562380D01*
X125221904Y-118562380D01*
X125126666Y-118514761D01*
X125079047Y-118467142D01*
X146605714Y-117514761D02*
X145748571Y-118800476D01*
X146939047Y-118562380D02*
X146939047Y-117562380D01*
X147415238Y-118562380D02*
X147415238Y-117562380D01*
X147986666Y-118562380D01*
X147986666Y-117562380D01*
X148320000Y-117562380D02*
X148891428Y-117562380D01*
X148605714Y-118562380D02*
X148605714Y-117562380D01*
X146129523Y-115736666D02*
X146605714Y-115736666D01*
X146034285Y-116022380D02*
X146367619Y-115022380D01*
X146700952Y-116022380D01*
X147558095Y-116022380D02*
X146986666Y-116022380D01*
X147272380Y-116022380D02*
X147272380Y-115022380D01*
X147177142Y-115165238D01*
X147081904Y-115260476D01*
X146986666Y-115308095D01*
X148415238Y-115355714D02*
X148415238Y-116022380D01*
X148177142Y-114974761D02*
X147939047Y-115689047D01*
X148558095Y-115689047D01*
X145700952Y-113434761D02*
X145843809Y-113482380D01*
X146081904Y-113482380D01*
X146177142Y-113434761D01*
X146224761Y-113387142D01*
X146272380Y-113291904D01*
X146272380Y-113196666D01*
X146224761Y-113101428D01*
X146177142Y-113053809D01*
X146081904Y-113006190D01*
X145891428Y-112958571D01*
X145796190Y-112910952D01*
X145748571Y-112863333D01*
X145700952Y-112768095D01*
X145700952Y-112672857D01*
X145748571Y-112577619D01*
X145796190Y-112530000D01*
X145891428Y-112482380D01*
X146129523Y-112482380D01*
X146272380Y-112530000D01*
X146700952Y-112958571D02*
X147034285Y-112958571D01*
X147177142Y-113482380D02*
X146700952Y-113482380D01*
X146700952Y-112482380D01*
X147177142Y-112482380D01*
X148081904Y-113482380D02*
X147605714Y-113482380D01*
X147605714Y-112482380D01*
X148367619Y-112577619D02*
X148415238Y-112530000D01*
X148510476Y-112482380D01*
X148748571Y-112482380D01*
X148843809Y-112530000D01*
X148891428Y-112577619D01*
X148939047Y-112672857D01*
X148939047Y-112768095D01*
X148891428Y-112910952D01*
X148320000Y-113482380D01*
X148939047Y-113482380D01*
X122840952Y-110894761D02*
X122983809Y-110942380D01*
X123221904Y-110942380D01*
X123317142Y-110894761D01*
X123364761Y-110847142D01*
X123412380Y-110751904D01*
X123412380Y-110656666D01*
X123364761Y-110561428D01*
X123317142Y-110513809D01*
X123221904Y-110466190D01*
X123031428Y-110418571D01*
X122936190Y-110370952D01*
X122888571Y-110323333D01*
X122840952Y-110228095D01*
X122840952Y-110132857D01*
X122888571Y-110037619D01*
X122936190Y-109990000D01*
X123031428Y-109942380D01*
X123269523Y-109942380D01*
X123412380Y-109990000D01*
X123840952Y-110418571D02*
X124174285Y-110418571D01*
X124317142Y-110942380D02*
X123840952Y-110942380D01*
X123840952Y-109942380D01*
X124317142Y-109942380D01*
X125221904Y-110942380D02*
X124745714Y-110942380D01*
X124745714Y-109942380D01*
X126079047Y-110942380D02*
X125507619Y-110942380D01*
X125793333Y-110942380D02*
X125793333Y-109942380D01*
X125698095Y-110085238D01*
X125602857Y-110180476D01*
X125507619Y-110228095D01*
X146391428Y-89622380D02*
X146629523Y-90622380D01*
X146820000Y-89908095D01*
X147010476Y-90622380D01*
X147248571Y-89622380D01*
X148200952Y-90622380D02*
X147867619Y-90146190D01*
X147629523Y-90622380D02*
X147629523Y-89622380D01*
X148010476Y-89622380D01*
X148105714Y-89670000D01*
X148153333Y-89717619D01*
X148200952Y-89812857D01*
X148200952Y-89955714D01*
X148153333Y-90050952D01*
X148105714Y-90098571D01*
X148010476Y-90146190D01*
X147629523Y-90146190D01*
X146605714Y-92876666D02*
X147081904Y-92876666D01*
X146510476Y-93162380D02*
X146843809Y-92162380D01*
X147177142Y-93162380D01*
X148034285Y-93162380D02*
X147462857Y-93162380D01*
X147748571Y-93162380D02*
X147748571Y-92162380D01*
X147653333Y-92305238D01*
X147558095Y-92400476D01*
X147462857Y-92448095D01*
X146605714Y-95416666D02*
X147081904Y-95416666D01*
X146510476Y-95702380D02*
X146843809Y-94702380D01*
X147177142Y-95702380D01*
X147415238Y-94702380D02*
X148034285Y-94702380D01*
X147700952Y-95083333D01*
X147843809Y-95083333D01*
X147939047Y-95130952D01*
X147986666Y-95178571D01*
X148034285Y-95273809D01*
X148034285Y-95511904D01*
X147986666Y-95607142D01*
X147939047Y-95654761D01*
X147843809Y-95702380D01*
X147558095Y-95702380D01*
X147462857Y-95654761D01*
X147415238Y-95607142D01*
X146605714Y-97956666D02*
X147081904Y-97956666D01*
X146510476Y-98242380D02*
X146843809Y-97242380D01*
X147177142Y-98242380D01*
X147986666Y-97242380D02*
X147510476Y-97242380D01*
X147462857Y-97718571D01*
X147510476Y-97670952D01*
X147605714Y-97623333D01*
X147843809Y-97623333D01*
X147939047Y-97670952D01*
X147986666Y-97718571D01*
X148034285Y-97813809D01*
X148034285Y-98051904D01*
X147986666Y-98147142D01*
X147939047Y-98194761D01*
X147843809Y-98242380D01*
X147605714Y-98242380D01*
X147510476Y-98194761D01*
X147462857Y-98147142D01*
X146605714Y-100496666D02*
X147081904Y-100496666D01*
X146510476Y-100782380D02*
X146843809Y-99782380D01*
X147177142Y-100782380D01*
X147415238Y-99782380D02*
X148081904Y-99782380D01*
X147653333Y-100782380D01*
X146605714Y-103036666D02*
X147081904Y-103036666D01*
X146510476Y-103322380D02*
X146843809Y-102322380D01*
X147177142Y-103322380D01*
X147558095Y-103322380D02*
X147748571Y-103322380D01*
X147843809Y-103274761D01*
X147891428Y-103227142D01*
X147986666Y-103084285D01*
X148034285Y-102893809D01*
X148034285Y-102512857D01*
X147986666Y-102417619D01*
X147939047Y-102370000D01*
X147843809Y-102322380D01*
X147653333Y-102322380D01*
X147558095Y-102370000D01*
X147510476Y-102417619D01*
X147462857Y-102512857D01*
X147462857Y-102750952D01*
X147510476Y-102846190D01*
X147558095Y-102893809D01*
X147653333Y-102941428D01*
X147843809Y-102941428D01*
X147939047Y-102893809D01*
X147986666Y-102846190D01*
X148034285Y-102750952D01*
X146129523Y-105576666D02*
X146605714Y-105576666D01*
X146034285Y-105862380D02*
X146367619Y-104862380D01*
X146700952Y-105862380D01*
X147558095Y-105862380D02*
X146986666Y-105862380D01*
X147272380Y-105862380D02*
X147272380Y-104862380D01*
X147177142Y-105005238D01*
X147081904Y-105100476D01*
X146986666Y-105148095D01*
X148510476Y-105862380D02*
X147939047Y-105862380D01*
X148224761Y-105862380D02*
X148224761Y-104862380D01*
X148129523Y-105005238D01*
X148034285Y-105100476D01*
X147939047Y-105148095D01*
X146232857Y-107878571D02*
X146375714Y-107926190D01*
X146423333Y-107973809D01*
X146470952Y-108069047D01*
X146470952Y-108211904D01*
X146423333Y-108307142D01*
X146375714Y-108354761D01*
X146280476Y-108402380D01*
X145899523Y-108402380D01*
X145899523Y-107402380D01*
X146232857Y-107402380D01*
X146328095Y-107450000D01*
X146375714Y-107497619D01*
X146423333Y-107592857D01*
X146423333Y-107688095D01*
X146375714Y-107783333D01*
X146328095Y-107830952D01*
X146232857Y-107878571D01*
X145899523Y-107878571D01*
X146899523Y-107402380D02*
X146899523Y-108211904D01*
X146947142Y-108307142D01*
X146994761Y-108354761D01*
X147090000Y-108402380D01*
X147280476Y-108402380D01*
X147375714Y-108354761D01*
X147423333Y-108307142D01*
X147470952Y-108211904D01*
X147470952Y-107402380D01*
X147899523Y-108354761D02*
X148042380Y-108402380D01*
X148280476Y-108402380D01*
X148375714Y-108354761D01*
X148423333Y-108307142D01*
X148470952Y-108211904D01*
X148470952Y-108116666D01*
X148423333Y-108021428D01*
X148375714Y-107973809D01*
X148280476Y-107926190D01*
X148090000Y-107878571D01*
X147994761Y-107830952D01*
X147947142Y-107783333D01*
X147899523Y-107688095D01*
X147899523Y-107592857D01*
X147947142Y-107497619D01*
X147994761Y-107450000D01*
X148090000Y-107402380D01*
X148328095Y-107402380D01*
X148470952Y-107450000D01*
X148851904Y-108116666D02*
X149328095Y-108116666D01*
X148756666Y-108402380D02*
X149090000Y-107402380D01*
X149423333Y-108402380D01*
X150328095Y-108307142D02*
X150280476Y-108354761D01*
X150137619Y-108402380D01*
X150042380Y-108402380D01*
X149899523Y-108354761D01*
X149804285Y-108259523D01*
X149756666Y-108164285D01*
X149709047Y-107973809D01*
X149709047Y-107830952D01*
X149756666Y-107640476D01*
X149804285Y-107545238D01*
X149899523Y-107450000D01*
X150042380Y-107402380D01*
X150137619Y-107402380D01*
X150280476Y-107450000D01*
X150328095Y-107497619D01*
X150756666Y-108402380D02*
X150756666Y-107402380D01*
X151328095Y-108402380D02*
X150899523Y-107830952D01*
X151328095Y-107402380D02*
X150756666Y-107973809D01*
X123269523Y-108116666D02*
X123745714Y-108116666D01*
X123174285Y-108402380D02*
X123507619Y-107402380D01*
X123840952Y-108402380D01*
X124698095Y-108402380D02*
X124126666Y-108402380D01*
X124412380Y-108402380D02*
X124412380Y-107402380D01*
X124317142Y-107545238D01*
X124221904Y-107640476D01*
X124126666Y-107688095D01*
X125079047Y-107497619D02*
X125126666Y-107450000D01*
X125221904Y-107402380D01*
X125460000Y-107402380D01*
X125555238Y-107450000D01*
X125602857Y-107497619D01*
X125650476Y-107592857D01*
X125650476Y-107688095D01*
X125602857Y-107830952D01*
X125031428Y-108402380D01*
X125650476Y-108402380D01*
X123269523Y-105576666D02*
X123745714Y-105576666D01*
X123174285Y-105862380D02*
X123507619Y-104862380D01*
X123840952Y-105862380D01*
X124698095Y-105862380D02*
X124126666Y-105862380D01*
X124412380Y-105862380D02*
X124412380Y-104862380D01*
X124317142Y-105005238D01*
X124221904Y-105100476D01*
X124126666Y-105148095D01*
X125317142Y-104862380D02*
X125412380Y-104862380D01*
X125507619Y-104910000D01*
X125555238Y-104957619D01*
X125602857Y-105052857D01*
X125650476Y-105243333D01*
X125650476Y-105481428D01*
X125602857Y-105671904D01*
X125555238Y-105767142D01*
X125507619Y-105814761D01*
X125412380Y-105862380D01*
X125317142Y-105862380D01*
X125221904Y-105814761D01*
X125174285Y-105767142D01*
X125126666Y-105671904D01*
X125079047Y-105481428D01*
X125079047Y-105243333D01*
X125126666Y-105052857D01*
X125174285Y-104957619D01*
X125221904Y-104910000D01*
X125317142Y-104862380D01*
X123745714Y-103036666D02*
X124221904Y-103036666D01*
X123650476Y-103322380D02*
X123983809Y-102322380D01*
X124317142Y-103322380D01*
X124793333Y-102750952D02*
X124698095Y-102703333D01*
X124650476Y-102655714D01*
X124602857Y-102560476D01*
X124602857Y-102512857D01*
X124650476Y-102417619D01*
X124698095Y-102370000D01*
X124793333Y-102322380D01*
X124983809Y-102322380D01*
X125079047Y-102370000D01*
X125126666Y-102417619D01*
X125174285Y-102512857D01*
X125174285Y-102560476D01*
X125126666Y-102655714D01*
X125079047Y-102703333D01*
X124983809Y-102750952D01*
X124793333Y-102750952D01*
X124698095Y-102798571D01*
X124650476Y-102846190D01*
X124602857Y-102941428D01*
X124602857Y-103131904D01*
X124650476Y-103227142D01*
X124698095Y-103274761D01*
X124793333Y-103322380D01*
X124983809Y-103322380D01*
X125079047Y-103274761D01*
X125126666Y-103227142D01*
X125174285Y-103131904D01*
X125174285Y-102941428D01*
X125126666Y-102846190D01*
X125079047Y-102798571D01*
X124983809Y-102750952D01*
X123745714Y-100496666D02*
X124221904Y-100496666D01*
X123650476Y-100782380D02*
X123983809Y-99782380D01*
X124317142Y-100782380D01*
X125079047Y-99782380D02*
X124888571Y-99782380D01*
X124793333Y-99830000D01*
X124745714Y-99877619D01*
X124650476Y-100020476D01*
X124602857Y-100210952D01*
X124602857Y-100591904D01*
X124650476Y-100687142D01*
X124698095Y-100734761D01*
X124793333Y-100782380D01*
X124983809Y-100782380D01*
X125079047Y-100734761D01*
X125126666Y-100687142D01*
X125174285Y-100591904D01*
X125174285Y-100353809D01*
X125126666Y-100258571D01*
X125079047Y-100210952D01*
X124983809Y-100163333D01*
X124793333Y-100163333D01*
X124698095Y-100210952D01*
X124650476Y-100258571D01*
X124602857Y-100353809D01*
X123745714Y-97956666D02*
X124221904Y-97956666D01*
X123650476Y-98242380D02*
X123983809Y-97242380D01*
X124317142Y-98242380D01*
X125079047Y-97575714D02*
X125079047Y-98242380D01*
X124840952Y-97194761D02*
X124602857Y-97909047D01*
X125221904Y-97909047D01*
X123745714Y-95416666D02*
X124221904Y-95416666D01*
X123650476Y-95702380D02*
X123983809Y-94702380D01*
X124317142Y-95702380D01*
X124602857Y-94797619D02*
X124650476Y-94750000D01*
X124745714Y-94702380D01*
X124983809Y-94702380D01*
X125079047Y-94750000D01*
X125126666Y-94797619D01*
X125174285Y-94892857D01*
X125174285Y-94988095D01*
X125126666Y-95130952D01*
X124555238Y-95702380D01*
X125174285Y-95702380D01*
X123745714Y-92876666D02*
X124221904Y-92876666D01*
X123650476Y-93162380D02*
X123983809Y-92162380D01*
X124317142Y-93162380D01*
X124840952Y-92162380D02*
X124936190Y-92162380D01*
X125031428Y-92210000D01*
X125079047Y-92257619D01*
X125126666Y-92352857D01*
X125174285Y-92543333D01*
X125174285Y-92781428D01*
X125126666Y-92971904D01*
X125079047Y-93067142D01*
X125031428Y-93114761D01*
X124936190Y-93162380D01*
X124840952Y-93162380D01*
X124745714Y-93114761D01*
X124698095Y-93067142D01*
X124650476Y-92971904D01*
X124602857Y-92781428D01*
X124602857Y-92543333D01*
X124650476Y-92352857D01*
X124698095Y-92257619D01*
X124745714Y-92210000D01*
X124840952Y-92162380D01*
X123650476Y-77922380D02*
X123650476Y-76922380D01*
X123983809Y-77636666D01*
X124317142Y-76922380D01*
X124317142Y-77922380D01*
X125317142Y-77922380D02*
X124745714Y-77922380D01*
X125031428Y-77922380D02*
X125031428Y-76922380D01*
X124936190Y-77065238D01*
X124840952Y-77160476D01*
X124745714Y-77208095D01*
X122626666Y-74334761D02*
X121769523Y-75620476D01*
X123531428Y-75382380D02*
X123198095Y-74906190D01*
X122960000Y-75382380D02*
X122960000Y-74382380D01*
X123340952Y-74382380D01*
X123436190Y-74430000D01*
X123483809Y-74477619D01*
X123531428Y-74572857D01*
X123531428Y-74715714D01*
X123483809Y-74810952D01*
X123436190Y-74858571D01*
X123340952Y-74906190D01*
X122960000Y-74906190D01*
X123960000Y-74858571D02*
X124293333Y-74858571D01*
X124436190Y-75382380D02*
X123960000Y-75382380D01*
X123960000Y-74382380D01*
X124436190Y-74382380D01*
X124817142Y-75334761D02*
X124960000Y-75382380D01*
X125198095Y-75382380D01*
X125293333Y-75334761D01*
X125340952Y-75287142D01*
X125388571Y-75191904D01*
X125388571Y-75096666D01*
X125340952Y-75001428D01*
X125293333Y-74953809D01*
X125198095Y-74906190D01*
X125007619Y-74858571D01*
X124912380Y-74810952D01*
X124864761Y-74763333D01*
X124817142Y-74668095D01*
X124817142Y-74572857D01*
X124864761Y-74477619D01*
X124912380Y-74430000D01*
X125007619Y-74382380D01*
X125245714Y-74382380D01*
X125388571Y-74430000D01*
X125817142Y-74858571D02*
X126150476Y-74858571D01*
X126293333Y-75382380D02*
X125817142Y-75382380D01*
X125817142Y-74382380D01*
X126293333Y-74382380D01*
X126579047Y-74382380D02*
X127150476Y-74382380D01*
X126864761Y-75382380D02*
X126864761Y-74382380D01*
X122960000Y-72842380D02*
X122960000Y-71842380D01*
X122960000Y-72318571D02*
X123531428Y-72318571D01*
X123531428Y-72842380D02*
X123531428Y-71842380D01*
X123960000Y-72556666D02*
X124436190Y-72556666D01*
X123864761Y-72842380D02*
X124198095Y-71842380D01*
X124531428Y-72842380D01*
X125340952Y-72842380D02*
X124864761Y-72842380D01*
X124864761Y-71842380D01*
X125531428Y-71842380D02*
X126102857Y-71842380D01*
X125817142Y-72842380D02*
X125817142Y-71842380D01*
X122650476Y-70302380D02*
X122650476Y-69302380D01*
X122983809Y-70016666D01*
X123317142Y-69302380D01*
X123317142Y-70302380D01*
X124364761Y-70302380D02*
X124031428Y-69826190D01*
X123793333Y-70302380D02*
X123793333Y-69302380D01*
X124174285Y-69302380D01*
X124269523Y-69350000D01*
X124317142Y-69397619D01*
X124364761Y-69492857D01*
X124364761Y-69635714D01*
X124317142Y-69730952D01*
X124269523Y-69778571D01*
X124174285Y-69826190D01*
X123793333Y-69826190D01*
X124793333Y-69778571D02*
X125126666Y-69778571D01*
X125269523Y-70302380D02*
X124793333Y-70302380D01*
X124793333Y-69302380D01*
X125269523Y-69302380D01*
X126364761Y-70397619D02*
X126269523Y-70350000D01*
X126174285Y-70254761D01*
X126031428Y-70111904D01*
X125936190Y-70064285D01*
X125840952Y-70064285D01*
X125888571Y-70302380D02*
X125793333Y-70254761D01*
X125698095Y-70159523D01*
X125650476Y-69969047D01*
X125650476Y-69635714D01*
X125698095Y-69445238D01*
X125793333Y-69350000D01*
X125888571Y-69302380D01*
X126079047Y-69302380D01*
X126174285Y-69350000D01*
X126269523Y-69445238D01*
X126317142Y-69635714D01*
X126317142Y-69969047D01*
X126269523Y-70159523D01*
X126174285Y-70254761D01*
X126079047Y-70302380D01*
X125888571Y-70302380D01*
X123721904Y-90622380D02*
X123721904Y-89622380D01*
X123960000Y-89622380D01*
X124102857Y-89670000D01*
X124198095Y-89765238D01*
X124245714Y-89860476D01*
X124293333Y-90050952D01*
X124293333Y-90193809D01*
X124245714Y-90384285D01*
X124198095Y-90479523D01*
X124102857Y-90574761D01*
X123960000Y-90622380D01*
X123721904Y-90622380D01*
X124626666Y-89622380D02*
X125293333Y-89622380D01*
X124864761Y-90622380D01*
X123721904Y-88082380D02*
X123721904Y-87082380D01*
X123960000Y-87082380D01*
X124102857Y-87130000D01*
X124198095Y-87225238D01*
X124245714Y-87320476D01*
X124293333Y-87510952D01*
X124293333Y-87653809D01*
X124245714Y-87844285D01*
X124198095Y-87939523D01*
X124102857Y-88034761D01*
X123960000Y-88082380D01*
X123721904Y-88082380D01*
X125198095Y-87082380D02*
X124721904Y-87082380D01*
X124674285Y-87558571D01*
X124721904Y-87510952D01*
X124817142Y-87463333D01*
X125055238Y-87463333D01*
X125150476Y-87510952D01*
X125198095Y-87558571D01*
X125245714Y-87653809D01*
X125245714Y-87891904D01*
X125198095Y-87987142D01*
X125150476Y-88034761D01*
X125055238Y-88082380D01*
X124817142Y-88082380D01*
X124721904Y-88034761D01*
X124674285Y-87987142D01*
X123721904Y-85542380D02*
X123721904Y-84542380D01*
X123960000Y-84542380D01*
X124102857Y-84590000D01*
X124198095Y-84685238D01*
X124245714Y-84780476D01*
X124293333Y-84970952D01*
X124293333Y-85113809D01*
X124245714Y-85304285D01*
X124198095Y-85399523D01*
X124102857Y-85494761D01*
X123960000Y-85542380D01*
X123721904Y-85542380D01*
X124626666Y-84542380D02*
X125245714Y-84542380D01*
X124912380Y-84923333D01*
X125055238Y-84923333D01*
X125150476Y-84970952D01*
X125198095Y-85018571D01*
X125245714Y-85113809D01*
X125245714Y-85351904D01*
X125198095Y-85447142D01*
X125150476Y-85494761D01*
X125055238Y-85542380D01*
X124769523Y-85542380D01*
X124674285Y-85494761D01*
X124626666Y-85447142D01*
X123721904Y-83002380D02*
X123721904Y-82002380D01*
X123960000Y-82002380D01*
X124102857Y-82050000D01*
X124198095Y-82145238D01*
X124245714Y-82240476D01*
X124293333Y-82430952D01*
X124293333Y-82573809D01*
X124245714Y-82764285D01*
X124198095Y-82859523D01*
X124102857Y-82954761D01*
X123960000Y-83002380D01*
X123721904Y-83002380D01*
X125245714Y-83002380D02*
X124674285Y-83002380D01*
X124960000Y-83002380D02*
X124960000Y-82002380D01*
X124864761Y-82145238D01*
X124769523Y-82240476D01*
X124674285Y-82288095D01*
X146558095Y-109990000D02*
X146462857Y-109942380D01*
X146320000Y-109942380D01*
X146177142Y-109990000D01*
X146081904Y-110085238D01*
X146034285Y-110180476D01*
X145986666Y-110370952D01*
X145986666Y-110513809D01*
X146034285Y-110704285D01*
X146081904Y-110799523D01*
X146177142Y-110894761D01*
X146320000Y-110942380D01*
X146415238Y-110942380D01*
X146558095Y-110894761D01*
X146605714Y-110847142D01*
X146605714Y-110513809D01*
X146415238Y-110513809D01*
X147034285Y-110942380D02*
X147034285Y-109942380D01*
X147605714Y-110942380D01*
X147605714Y-109942380D01*
X148081904Y-110942380D02*
X148081904Y-109942380D01*
X148320000Y-109942380D01*
X148462857Y-109990000D01*
X148558095Y-110085238D01*
X148605714Y-110180476D01*
X148653333Y-110370952D01*
X148653333Y-110513809D01*
X148605714Y-110704285D01*
X148558095Y-110799523D01*
X148462857Y-110894761D01*
X148320000Y-110942380D01*
X148081904Y-110942380D01*
X122174285Y-80081428D02*
X122936190Y-80081428D01*
X122555238Y-80462380D02*
X122555238Y-79700476D01*
X123888571Y-79462380D02*
X123412380Y-79462380D01*
X123364761Y-79938571D01*
X123412380Y-79890952D01*
X123507619Y-79843333D01*
X123745714Y-79843333D01*
X123840952Y-79890952D01*
X123888571Y-79938571D01*
X123936190Y-80033809D01*
X123936190Y-80271904D01*
X123888571Y-80367142D01*
X123840952Y-80414761D01*
X123745714Y-80462380D01*
X123507619Y-80462380D01*
X123412380Y-80414761D01*
X123364761Y-80367142D01*
X124221904Y-79462380D02*
X124555238Y-80462380D01*
X124888571Y-79462380D01*
X125221904Y-80462380D02*
X125221904Y-79462380D01*
X125460000Y-79462380D01*
X125602857Y-79510000D01*
X125698095Y-79605238D01*
X125745714Y-79700476D01*
X125793333Y-79890952D01*
X125793333Y-80033809D01*
X125745714Y-80224285D01*
X125698095Y-80319523D01*
X125602857Y-80414761D01*
X125460000Y-80462380D01*
X125221904Y-80462380D01*
X126793333Y-80367142D02*
X126745714Y-80414761D01*
X126602857Y-80462380D01*
X126507619Y-80462380D01*
X126364761Y-80414761D01*
X126269523Y-80319523D01*
X126221904Y-80224285D01*
X126174285Y-80033809D01*
X126174285Y-79890952D01*
X126221904Y-79700476D01*
X126269523Y-79605238D01*
X126364761Y-79510000D01*
X126507619Y-79462380D01*
X126602857Y-79462380D01*
X126745714Y-79510000D01*
X126793333Y-79557619D01*
X146581904Y-88082380D02*
X146581904Y-87082380D01*
X146820000Y-87082380D01*
X146962857Y-87130000D01*
X147058095Y-87225238D01*
X147105714Y-87320476D01*
X147153333Y-87510952D01*
X147153333Y-87653809D01*
X147105714Y-87844285D01*
X147058095Y-87939523D01*
X146962857Y-88034761D01*
X146820000Y-88082380D01*
X146581904Y-88082380D01*
X148010476Y-87082380D02*
X147820000Y-87082380D01*
X147724761Y-87130000D01*
X147677142Y-87177619D01*
X147581904Y-87320476D01*
X147534285Y-87510952D01*
X147534285Y-87891904D01*
X147581904Y-87987142D01*
X147629523Y-88034761D01*
X147724761Y-88082380D01*
X147915238Y-88082380D01*
X148010476Y-88034761D01*
X148058095Y-87987142D01*
X148105714Y-87891904D01*
X148105714Y-87653809D01*
X148058095Y-87558571D01*
X148010476Y-87510952D01*
X147915238Y-87463333D01*
X147724761Y-87463333D01*
X147629523Y-87510952D01*
X147581904Y-87558571D01*
X147534285Y-87653809D01*
X146581904Y-85542380D02*
X146581904Y-84542380D01*
X146820000Y-84542380D01*
X146962857Y-84590000D01*
X147058095Y-84685238D01*
X147105714Y-84780476D01*
X147153333Y-84970952D01*
X147153333Y-85113809D01*
X147105714Y-85304285D01*
X147058095Y-85399523D01*
X146962857Y-85494761D01*
X146820000Y-85542380D01*
X146581904Y-85542380D01*
X148010476Y-84875714D02*
X148010476Y-85542380D01*
X147772380Y-84494761D02*
X147534285Y-85209047D01*
X148153333Y-85209047D01*
X146581904Y-83002380D02*
X146581904Y-82002380D01*
X146820000Y-82002380D01*
X146962857Y-82050000D01*
X147058095Y-82145238D01*
X147105714Y-82240476D01*
X147153333Y-82430952D01*
X147153333Y-82573809D01*
X147105714Y-82764285D01*
X147058095Y-82859523D01*
X146962857Y-82954761D01*
X146820000Y-83002380D01*
X146581904Y-83002380D01*
X147534285Y-82097619D02*
X147581904Y-82050000D01*
X147677142Y-82002380D01*
X147915238Y-82002380D01*
X148010476Y-82050000D01*
X148058095Y-82097619D01*
X148105714Y-82192857D01*
X148105714Y-82288095D01*
X148058095Y-82430952D01*
X147486666Y-83002380D01*
X148105714Y-83002380D01*
X146581904Y-80462380D02*
X146581904Y-79462380D01*
X146820000Y-79462380D01*
X146962857Y-79510000D01*
X147058095Y-79605238D01*
X147105714Y-79700476D01*
X147153333Y-79890952D01*
X147153333Y-80033809D01*
X147105714Y-80224285D01*
X147058095Y-80319523D01*
X146962857Y-80414761D01*
X146820000Y-80462380D01*
X146581904Y-80462380D01*
X147772380Y-79462380D02*
X147867619Y-79462380D01*
X147962857Y-79510000D01*
X148010476Y-79557619D01*
X148058095Y-79652857D01*
X148105714Y-79843333D01*
X148105714Y-80081428D01*
X148058095Y-80271904D01*
X148010476Y-80367142D01*
X147962857Y-80414761D01*
X147867619Y-80462380D01*
X147772380Y-80462380D01*
X147677142Y-80414761D01*
X147629523Y-80367142D01*
X147581904Y-80271904D01*
X147534285Y-80081428D01*
X147534285Y-79843333D01*
X147581904Y-79652857D01*
X147629523Y-79557619D01*
X147677142Y-79510000D01*
X147772380Y-79462380D01*
X147129523Y-77922380D02*
X146796190Y-77446190D01*
X146558095Y-77922380D02*
X146558095Y-76922380D01*
X146939047Y-76922380D01*
X147034285Y-76970000D01*
X147081904Y-77017619D01*
X147129523Y-77112857D01*
X147129523Y-77255714D01*
X147081904Y-77350952D01*
X147034285Y-77398571D01*
X146939047Y-77446190D01*
X146558095Y-77446190D01*
X147558095Y-77922380D02*
X147558095Y-76922380D01*
X147796190Y-76922380D01*
X147939047Y-76970000D01*
X148034285Y-77065238D01*
X148081904Y-77160476D01*
X148129523Y-77350952D01*
X148129523Y-77493809D01*
X148081904Y-77684285D01*
X148034285Y-77779523D01*
X147939047Y-77874761D01*
X147796190Y-77922380D01*
X147558095Y-77922380D01*
X145843809Y-74382380D02*
X146081904Y-75382380D01*
X146272380Y-74668095D01*
X146462857Y-75382380D01*
X146700952Y-74382380D01*
X147034285Y-75096666D02*
X147510476Y-75096666D01*
X146939047Y-75382380D02*
X147272380Y-74382380D01*
X147605714Y-75382380D01*
X147939047Y-75382380D02*
X147939047Y-74382380D01*
X148272380Y-74382380D02*
X148843809Y-74382380D01*
X148558095Y-75382380D02*
X148558095Y-74382380D01*
X146224761Y-72842380D02*
X146224761Y-71842380D01*
X146796190Y-72842380D01*
X146796190Y-71842380D01*
X147272380Y-72842380D02*
X147272380Y-71842380D01*
X147605714Y-72556666D01*
X147939047Y-71842380D01*
X147939047Y-72842380D01*
X148415238Y-72842380D02*
X148415238Y-71842380D01*
X145772380Y-70302380D02*
X145772380Y-69302380D01*
X146439047Y-69302380D02*
X146629523Y-69302380D01*
X146724761Y-69350000D01*
X146820000Y-69445238D01*
X146867619Y-69635714D01*
X146867619Y-69969047D01*
X146820000Y-70159523D01*
X146724761Y-70254761D01*
X146629523Y-70302380D01*
X146439047Y-70302380D01*
X146343809Y-70254761D01*
X146248571Y-70159523D01*
X146200952Y-69969047D01*
X146200952Y-69635714D01*
X146248571Y-69445238D01*
X146343809Y-69350000D01*
X146439047Y-69302380D01*
X147867619Y-70302380D02*
X147534285Y-69826190D01*
X147296190Y-70302380D02*
X147296190Y-69302380D01*
X147677142Y-69302380D01*
X147772380Y-69350000D01*
X147820000Y-69397619D01*
X147867619Y-69492857D01*
X147867619Y-69635714D01*
X147820000Y-69730952D01*
X147772380Y-69778571D01*
X147677142Y-69826190D01*
X147296190Y-69826190D01*
X148962857Y-70397619D02*
X148867619Y-70350000D01*
X148772380Y-70254761D01*
X148629523Y-70111904D01*
X148534285Y-70064285D01*
X148439047Y-70064285D01*
X148486666Y-70302380D02*
X148391428Y-70254761D01*
X148296190Y-70159523D01*
X148248571Y-69969047D01*
X148248571Y-69635714D01*
X148296190Y-69445238D01*
X148391428Y-69350000D01*
X148486666Y-69302380D01*
X148677142Y-69302380D01*
X148772380Y-69350000D01*
X148867619Y-69445238D01*
X148915238Y-69635714D01*
X148915238Y-69969047D01*
X148867619Y-70159523D01*
X148772380Y-70254761D01*
X148677142Y-70302380D01*
X148486666Y-70302380D01*
D11*
%TO.C,J4*%
X151070000Y-99120000D02*
X153730000Y-99120000D01*
X151070000Y-81280000D02*
X151070000Y-99120000D01*
X153730000Y-81280000D02*
X153730000Y-99120000D01*
X151070000Y-81280000D02*
X153730000Y-81280000D01*
X151070000Y-80010000D02*
X151070000Y-78680000D01*
X151070000Y-78680000D02*
X152400000Y-78680000D01*
%TO.C,J3*%
X142180000Y-119440000D02*
X144840000Y-119440000D01*
X142180000Y-71120000D02*
X142180000Y-119440000D01*
X144840000Y-71120000D02*
X144840000Y-119440000D01*
X142180000Y-71120000D02*
X144840000Y-71120000D01*
X142180000Y-69850000D02*
X142180000Y-68520000D01*
X142180000Y-68520000D02*
X143510000Y-68520000D01*
%TO.C,J2*%
X126940000Y-119440000D02*
X129600000Y-119440000D01*
X126940000Y-71120000D02*
X126940000Y-119440000D01*
X129600000Y-71120000D02*
X129600000Y-119440000D01*
X126940000Y-71120000D02*
X129600000Y-71120000D01*
X126940000Y-69850000D02*
X126940000Y-68520000D01*
X126940000Y-68520000D02*
X128270000Y-68520000D01*
%TO.C,J1*%
X140565000Y-64500000D02*
X140565000Y-123460000D01*
X140565000Y-123460000D02*
X131215000Y-123460000D01*
X131215000Y-123460000D02*
X131215000Y-64500000D01*
X131215000Y-64500000D02*
X140565000Y-64500000D01*
X130965000Y-64250000D02*
X130965000Y-66790000D01*
X130965000Y-64250000D02*
X133505000Y-64250000D01*
%TO.C,J4*%
D10*
X152066666Y-77132380D02*
X152066666Y-77846666D01*
X152019047Y-77989523D01*
X151923809Y-78084761D01*
X151780952Y-78132380D01*
X151685714Y-78132380D01*
X152971428Y-77465714D02*
X152971428Y-78132380D01*
X152733333Y-77084761D02*
X152495238Y-77799047D01*
X153114285Y-77799047D01*
X150900000Y-100782380D02*
X150900000Y-99782380D01*
X151138095Y-99782380D01*
X151280952Y-99830000D01*
X151376190Y-99925238D01*
X151423809Y-100020476D01*
X151471428Y-100210952D01*
X151471428Y-100353809D01*
X151423809Y-100544285D01*
X151376190Y-100639523D01*
X151280952Y-100734761D01*
X151138095Y-100782380D01*
X150900000Y-100782380D01*
X151852380Y-100496666D02*
X152328571Y-100496666D01*
X151757142Y-100782380D02*
X152090476Y-99782380D01*
X152423809Y-100782380D01*
X152614285Y-99782380D02*
X153185714Y-99782380D01*
X152900000Y-100782380D02*
X152900000Y-99782380D01*
X153471428Y-100496666D02*
X153947619Y-100496666D01*
X153376190Y-100782380D02*
X153709523Y-99782380D01*
X154042857Y-100782380D01*
%TO.C,J3*%
X143176666Y-66972380D02*
X143176666Y-67686666D01*
X143129047Y-67829523D01*
X143033809Y-67924761D01*
X142890952Y-67972380D01*
X142795714Y-67972380D01*
X143557619Y-66972380D02*
X144176666Y-66972380D01*
X143843333Y-67353333D01*
X143986190Y-67353333D01*
X144081428Y-67400952D01*
X144129047Y-67448571D01*
X144176666Y-67543809D01*
X144176666Y-67781904D01*
X144129047Y-67877142D01*
X144081428Y-67924761D01*
X143986190Y-67972380D01*
X143700476Y-67972380D01*
X143605238Y-67924761D01*
X143557619Y-67877142D01*
%TO.C,J2*%
X127936666Y-66972380D02*
X127936666Y-67686666D01*
X127889047Y-67829523D01*
X127793809Y-67924761D01*
X127650952Y-67972380D01*
X127555714Y-67972380D01*
X128365238Y-67067619D02*
X128412857Y-67020000D01*
X128508095Y-66972380D01*
X128746190Y-66972380D01*
X128841428Y-67020000D01*
X128889047Y-67067619D01*
X128936666Y-67162857D01*
X128936666Y-67258095D01*
X128889047Y-67400952D01*
X128317619Y-67972380D01*
X128936666Y-67972380D01*
%TO.C,J1*%
X135556666Y-62698380D02*
X135556666Y-63412666D01*
X135509047Y-63555523D01*
X135413809Y-63650761D01*
X135270952Y-63698380D01*
X135175714Y-63698380D01*
X136556666Y-63698380D02*
X135985238Y-63698380D01*
X136270952Y-63698380D02*
X136270952Y-62698380D01*
X136175714Y-62841238D01*
X136080476Y-62936476D01*
X135985238Y-62984095D01*
X128937619Y-124166380D02*
X129604285Y-124166380D01*
X128937619Y-125166380D01*
X129604285Y-125166380D01*
X130128095Y-124594952D02*
X130032857Y-124547333D01*
X129985238Y-124499714D01*
X129937619Y-124404476D01*
X129937619Y-124356857D01*
X129985238Y-124261619D01*
X130032857Y-124214000D01*
X130128095Y-124166380D01*
X130318571Y-124166380D01*
X130413809Y-124214000D01*
X130461428Y-124261619D01*
X130509047Y-124356857D01*
X130509047Y-124404476D01*
X130461428Y-124499714D01*
X130413809Y-124547333D01*
X130318571Y-124594952D01*
X130128095Y-124594952D01*
X130032857Y-124642571D01*
X129985238Y-124690190D01*
X129937619Y-124785428D01*
X129937619Y-124975904D01*
X129985238Y-125071142D01*
X130032857Y-125118761D01*
X130128095Y-125166380D01*
X130318571Y-125166380D01*
X130413809Y-125118761D01*
X130461428Y-125071142D01*
X130509047Y-124975904D01*
X130509047Y-124785428D01*
X130461428Y-124690190D01*
X130413809Y-124642571D01*
X130318571Y-124594952D01*
X131128095Y-124166380D02*
X131223333Y-124166380D01*
X131318571Y-124214000D01*
X131366190Y-124261619D01*
X131413809Y-124356857D01*
X131461428Y-124547333D01*
X131461428Y-124785428D01*
X131413809Y-124975904D01*
X131366190Y-125071142D01*
X131318571Y-125118761D01*
X131223333Y-125166380D01*
X131128095Y-125166380D01*
X131032857Y-125118761D01*
X130985238Y-125071142D01*
X130937619Y-124975904D01*
X130890000Y-124785428D01*
X130890000Y-124547333D01*
X130937619Y-124356857D01*
X130985238Y-124261619D01*
X131032857Y-124214000D01*
X131128095Y-124166380D01*
X131890000Y-125166380D02*
X131890000Y-124166380D01*
X132223333Y-124880666D01*
X132556666Y-124166380D01*
X132556666Y-125166380D01*
X133032857Y-125166380D02*
X133032857Y-124499714D01*
X133032857Y-124166380D02*
X132985238Y-124214000D01*
X133032857Y-124261619D01*
X133080476Y-124214000D01*
X133032857Y-124166380D01*
X133032857Y-124261619D01*
X133509047Y-124499714D02*
X133509047Y-125166380D01*
X133509047Y-124594952D02*
X133556666Y-124547333D01*
X133651904Y-124499714D01*
X133794761Y-124499714D01*
X133890000Y-124547333D01*
X133937619Y-124642571D01*
X133937619Y-125166380D01*
X134413809Y-125166380D02*
X134413809Y-124499714D01*
X134413809Y-124166380D02*
X134366190Y-124214000D01*
X134413809Y-124261619D01*
X134461428Y-124214000D01*
X134413809Y-124166380D01*
X134413809Y-124261619D01*
X135223333Y-124642571D02*
X134890000Y-124642571D01*
X134890000Y-125166380D02*
X134890000Y-124166380D01*
X135366190Y-124166380D01*
X135747142Y-125166380D02*
X135747142Y-124499714D01*
X135747142Y-124690190D02*
X135794761Y-124594952D01*
X135842380Y-124547333D01*
X135937619Y-124499714D01*
X136032857Y-124499714D01*
X136794761Y-125166380D02*
X136794761Y-124642571D01*
X136747142Y-124547333D01*
X136651904Y-124499714D01*
X136461428Y-124499714D01*
X136366190Y-124547333D01*
X136794761Y-125118761D02*
X136699523Y-125166380D01*
X136461428Y-125166380D01*
X136366190Y-125118761D01*
X136318571Y-125023523D01*
X136318571Y-124928285D01*
X136366190Y-124833047D01*
X136461428Y-124785428D01*
X136699523Y-124785428D01*
X136794761Y-124737809D01*
X137270952Y-125166380D02*
X137270952Y-124499714D01*
X137270952Y-124594952D02*
X137318571Y-124547333D01*
X137413809Y-124499714D01*
X137556666Y-124499714D01*
X137651904Y-124547333D01*
X137699523Y-124642571D01*
X137699523Y-125166380D01*
X137699523Y-124642571D02*
X137747142Y-124547333D01*
X137842380Y-124499714D01*
X137985238Y-124499714D01*
X138080476Y-124547333D01*
X138128095Y-124642571D01*
X138128095Y-125166380D01*
X138985238Y-125118761D02*
X138890000Y-125166380D01*
X138699523Y-125166380D01*
X138604285Y-125118761D01*
X138556666Y-125023523D01*
X138556666Y-124642571D01*
X138604285Y-124547333D01*
X138699523Y-124499714D01*
X138890000Y-124499714D01*
X138985238Y-124547333D01*
X139032857Y-124642571D01*
X139032857Y-124737809D01*
X138556666Y-124833047D01*
X140556666Y-124642571D02*
X140699523Y-124690190D01*
X140747142Y-124737809D01*
X140794761Y-124833047D01*
X140794761Y-124975904D01*
X140747142Y-125071142D01*
X140699523Y-125118761D01*
X140604285Y-125166380D01*
X140223333Y-125166380D01*
X140223333Y-124166380D01*
X140556666Y-124166380D01*
X140651904Y-124214000D01*
X140699523Y-124261619D01*
X140747142Y-124356857D01*
X140747142Y-124452095D01*
X140699523Y-124547333D01*
X140651904Y-124594952D01*
X140556666Y-124642571D01*
X140223333Y-124642571D01*
X141223333Y-124166380D02*
X141223333Y-124975904D01*
X141270952Y-125071142D01*
X141318571Y-125118761D01*
X141413809Y-125166380D01*
X141604285Y-125166380D01*
X141699523Y-125118761D01*
X141747142Y-125071142D01*
X141794761Y-124975904D01*
X141794761Y-124166380D01*
X142223333Y-125118761D02*
X142366190Y-125166380D01*
X142604285Y-125166380D01*
X142699523Y-125118761D01*
X142747142Y-125071142D01*
X142794761Y-124975904D01*
X142794761Y-124880666D01*
X142747142Y-124785428D01*
X142699523Y-124737809D01*
X142604285Y-124690190D01*
X142413809Y-124642571D01*
X142318571Y-124594952D01*
X142270952Y-124547333D01*
X142223333Y-124452095D01*
X142223333Y-124356857D01*
X142270952Y-124261619D01*
X142318571Y-124214000D01*
X142413809Y-124166380D01*
X142651904Y-124166380D01*
X142794761Y-124214000D01*
%TD*%
M02*
