%TF.GenerationSoftware,KiCad,Pcbnew,(6.0.6)*%
%TF.CreationDate,2022-08-30T12:21:22+02:00*%
%TF.ProjectId,Z80AllInOne,5a383041-6c6c-4496-9e4f-6e652e6b6963,rev?*%
%TF.SameCoordinates,Original*%
%TF.FileFunction,Paste,Top*%
%TF.FilePolarity,Positive*%
%FSLAX46Y46*%
G04 Gerber Fmt 4.6, Leading zero omitted, Abs format (unit mm)*
G04 Created by KiCad (PCBNEW (6.0.6)) date 2022-08-30 12:21:22*
%MOMM*%
%LPD*%
G01*
G04 APERTURE LIST*
G04 Aperture macros list*
%AMRoundRect*
0 Rectangle with rounded corners*
0 $1 Rounding radius*
0 $2 $3 $4 $5 $6 $7 $8 $9 X,Y pos of 4 corners*
0 Add a 4 corners polygon primitive as box body*
4,1,4,$2,$3,$4,$5,$6,$7,$8,$9,$2,$3,0*
0 Add four circle primitives for the rounded corners*
1,1,$1+$1,$2,$3*
1,1,$1+$1,$4,$5*
1,1,$1+$1,$6,$7*
1,1,$1+$1,$8,$9*
0 Add four rect primitives between the rounded corners*
20,1,$1+$1,$2,$3,$4,$5,0*
20,1,$1+$1,$4,$5,$6,$7,0*
20,1,$1+$1,$6,$7,$8,$9,0*
20,1,$1+$1,$8,$9,$2,$3,0*%
G04 Aperture macros list end*
%ADD10R,2.000000X0.500000*%
%ADD11R,1.700000X2.000000*%
%ADD12R,1.750000X0.450000*%
%ADD13RoundRect,0.150000X0.150000X-0.587500X0.150000X0.587500X-0.150000X0.587500X-0.150000X-0.587500X0*%
%ADD14RoundRect,0.218750X0.218750X0.381250X-0.218750X0.381250X-0.218750X-0.381250X0.218750X-0.381250X0*%
G04 APERTURE END LIST*
D10*
%TO.C,J1*%
X394500000Y-129230000D03*
X394500000Y-128430000D03*
X394500000Y-127630000D03*
X394500000Y-126830000D03*
X394500000Y-126030000D03*
D11*
X400050000Y-132080000D03*
X394600000Y-123180000D03*
X394600000Y-132080000D03*
X400050000Y-123180000D03*
%TD*%
D12*
%TO.C,U6*%
X364412500Y-121605000D03*
X364412500Y-122255000D03*
X364412500Y-122905000D03*
X364412500Y-123555000D03*
X364412500Y-124205000D03*
X364412500Y-124855000D03*
X364412500Y-125505000D03*
X364412500Y-126155000D03*
X364412500Y-126805000D03*
X364412500Y-127455000D03*
X364412500Y-128105000D03*
X364412500Y-128755000D03*
X364412500Y-129405000D03*
X364412500Y-130055000D03*
X371612500Y-130055000D03*
X371612500Y-129405000D03*
X371612500Y-128755000D03*
X371612500Y-128105000D03*
X371612500Y-127455000D03*
X371612500Y-126805000D03*
X371612500Y-126155000D03*
X371612500Y-125505000D03*
X371612500Y-124855000D03*
X371612500Y-124205000D03*
X371612500Y-123555000D03*
X371612500Y-122905000D03*
X371612500Y-122255000D03*
X371612500Y-121605000D03*
%TD*%
D13*
%TO.C,Q1*%
X369890000Y-144447500D03*
X371790000Y-144447500D03*
X370840000Y-142572500D03*
%TD*%
D14*
%TO.C,FB1*%
X378460000Y-144780000D03*
X376335000Y-144780000D03*
%TD*%
M02*
