M48
; DRILL file {KiCad (6.0.6)} date Tue Aug 30 12:21:13 2022
; FORMAT={-:-/ absolute / metric / decimal}
; #@! TF.CreationDate,2022-08-30T12:21:13+02:00
; #@! TF.GenerationSoftware,Kicad,Pcbnew,(6.0.6)
; #@! TF.FileFunction,Plated,1,2,PTH
FMAT,2
METRIC
; #@! TA.AperFunction,Plated,PTH,ViaDrill
T1C0.400
; #@! TA.AperFunction,Plated,PTH,ComponentDrill
T2C0.750
; #@! TA.AperFunction,Plated,PTH,ComponentDrill
T3C0.800
; #@! TA.AperFunction,Plated,PTH,ComponentDrill
T4C0.900
; #@! TA.AperFunction,Plated,PTH,ComponentDrill
T5C1.000
; #@! TA.AperFunction,Plated,PTH,ComponentDrill
T6C1.100
; #@! TA.AperFunction,Plated,PTH,ComponentDrill
T7C1.400
; #@! TA.AperFunction,Plated,PTH,ComponentDrill
T8C1.550
; #@! TA.AperFunction,Plated,PTH,ComponentDrill
T9C2.850
; #@! TA.AperFunction,Plated,PTH,ComponentDrill
T10C3.200
%
G90
G05
T1
X20.3Y-160.73
X21.57Y-164.54
X22.84Y-163.27
X24.11Y-162.0
X25.38Y-165.81
X26.65Y-159.46
X27.92Y-158.19
X29.19Y-168.302
X31.73Y-167.08
X34.29Y-49.53
X34.29Y-63.5
X40.64Y-83.185
X40.64Y-200.025
X41.91Y-55.88
X41.91Y-203.2
X44.45Y-49.53
X44.45Y-58.42
X44.45Y-83.185
X45.085Y-165.1
X45.72Y-50.8
X48.24Y-140.41
X48.25Y-163.84
X49.51Y-115.645
X49.53Y-48.26
X50.8Y-49.53
X50.8Y-85.09
X52.07Y-83.82
X52.07Y-163.83
X54.61Y-48.26
X57.15Y-48.26
X58.42Y-201.295
X59.69Y-48.26
X59.69Y-162.56
X60.96Y-161.925
X62.23Y-48.26
X62.23Y-76.2
X62.23Y-161.29
X63.5Y-49.53
X63.5Y-74.93
X63.5Y-160.655
X64.77Y-50.8
X64.77Y-61.595
X64.77Y-160.02
X66.04Y-62.23
X66.04Y-159.385
X67.31Y-48.26
X67.31Y-73.66
X67.31Y-158.839
X68.58Y-72.39
X68.58Y-129.54
X68.58Y-158.115
X69.85Y-48.26
X69.85Y-71.12
X69.85Y-133.985
X69.85Y-139.7
X69.85Y-156.21
X71.12Y-69.85
X71.12Y-131.445
X71.12Y-142.24
X71.12Y-155.575
X72.39Y-48.26
X72.39Y-68.49
X72.39Y-127.635
X72.39Y-144.78
X72.39Y-154.94
X73.66Y-67.31
X73.66Y-126.365
X73.66Y-147.32
X73.66Y-154.305
X74.93Y-77.47
X74.93Y-123.825
X74.93Y-146.05
X74.93Y-153.67
X76.2Y-50.8
X76.2Y-66.04
X76.2Y-121.285
X76.2Y-143.51
X76.2Y-153.035
X77.47Y-118.745
X77.47Y-140.97
X77.47Y-152.4
X78.74Y-49.53
X78.74Y-116.205
X78.74Y-138.43
X78.74Y-151.675
X80.01Y-48.26
X80.01Y-85.09
X80.01Y-163.284
X81.28Y-163.919
X82.55Y-49.53
X82.55Y-157.391
X83.82Y-48.26
X83.82Y-165.369
X85.09Y-200.749
X85.814Y-50.8
X86.36Y-202.565
X87.63Y-151.04
X88.9Y-202.019
X90.17Y-166.37
X91.35Y-90.805
X91.44Y-198.755
X92.075Y-85.09
X92.164Y-115.57
X92.164Y-149.86
X97.79Y-166.094
X99.695Y-148.59
X100.965Y-150.5
X102.235Y-149.77
X113.665Y-157.391
X115.57Y-164.644
X118.745Y-55.245
X120.65Y-53.975
X120.65Y-163.195
X122.555Y-74.295
X124.46Y-73.57
X125.73Y-163.919
X126.365Y-50.165
X126.365Y-72.935
X130.175Y-50.165
X131.445Y-92.71
X133.985Y-50.165
X139.065Y-140.335
X141.605Y-140.335
X144.145Y-140.335
X145.415Y-147.32
X146.685Y-140.335
X146.685Y-146.595
X149.225Y-143.876
X149.225Y-149.77
X151.765Y-144.601
X154.305Y-145.326
X154.305Y-150.495
X155.575Y-148.59
X156.845Y-145.96
X159.385Y-76.111
X160.655Y-147.32
X161.29Y-76.835
X161.925Y-130.81
X163.195Y-102.87
X170.18Y-141.426
X171.45Y-142.15
X172.72Y-142.875
X174.625Y-199.48
X174.675Y-173.98
X175.945Y-181.6
X177.8Y-153.581
X179.07Y-149.591
X179.07Y-152.489
X180.34Y-145.96
X180.34Y-151.765
X181.61Y-145.415
X181.61Y-151.04
X183.515Y-60.325
X183.515Y-92.71
X184.15Y-154.215
X185.42Y-144.055
X186.6Y-144.78
X186.69Y-154.85
X187.325Y-146.685
X188.595Y-105.41
X188.595Y-148.59
X189.23Y-155.486
X190.5Y-154.036
X191.77Y-163.195
X193.04Y-157.391
X194.31Y-156.21
X194.945Y-81.37
X196.655Y-166.01
X198.299Y-156.21
X199.39Y-166.37
X199.48Y-155.486
X200.66Y-154.85
X201.93Y-153.311
X202.637Y-152.605
X203.2Y-151.765
X203.835Y-158.75
X204.47Y-151.04
X205.105Y-83.724
X205.82Y-97.71
X206.375Y-84.455
X207.618Y-82.819
X208.28Y-158.025
X208.369Y-81.915
X209.295Y-83.82
X209.55Y-149.591
X219.075Y-85.725
X219.71Y-164.02
X220.345Y-86.45
X220.98Y-157.391
X221.615Y-166.46
X222.885Y-162.47
X224.155Y-161.835
X225.425Y-161.201
X226.695Y-160.476
X227.965Y-159.93
X229.235Y-159.296
X230.505Y-158.66
X231.14Y-58.42
X231.775Y-158.025
X233.68Y-139.065
X233.68Y-162.47
X234.95Y-161.835
X236.22Y-161.111
X241.3Y-135.89
X241.959Y-149.591
X242.57Y-198.755
X243.205Y-167.175
X245.11Y-199.935
X246.38Y-132.715
X246.38Y-165.645
X247.65Y-167.005
X248.92Y-164.196
X248.92Y-197.485
X250.19Y-164.921
X256.54Y-139.065
X256.54Y-199.3
X260.35Y-102.595
X260.35Y-152.677
X260.985Y-198.665
X261.62Y-81.28
X261.62Y-151.765
X262.255Y-100.965
X262.89Y-151.13
X262.89Y-166.28
X264.16Y-163.106
X265.43Y-156.12
X265.43Y-165.01
X266.7Y-155.486
X267.97Y-154.85
X269.24Y-154.126
X269.24Y-197.485
X271.78Y-153.401
X272.415Y-86.995
X273.685Y-95.25
X274.409Y-97.79
X275.59Y-96.52
X276.86Y-137.16
X278.13Y-86.36
X278.13Y-88.265
X278.13Y-132.08
X278.13Y-148.59
X280.035Y-170.18
X283.21Y-164.286
X284.48Y-137.16
X286.385Y-165.01
X288.29Y-154.85
X289.56Y-155.486
X290.83Y-152.677
X292.1Y-156.12
X292.735Y-198.665
X293.37Y-151.13
X295.91Y-157.391
X298.45Y-152.042
X299.72Y-153.401
X300.99Y-93.98
X300.99Y-154.215
X302.26Y-162.56
X303.53Y-161.925
X304.8Y-161.29
X306.07Y-160.655
X307.34Y-160.02
X308.61Y-159.385
X311.15Y-164.375
X313.69Y-165.01
X314.325Y-69.215
X314.96Y-165.645
X316.198Y-175.895
X316.199Y-158.025
X317.5Y-158.66
X317.5Y-174.625
X318.77Y-142.24
X318.77Y-202.654
X320.04Y-138.43
X320.04Y-200.66
X321.31Y-140.97
X321.31Y-203.2
X325.12Y-135.89
X325.12Y-201.295
X330.2Y-86.36
X330.2Y-139.7
X330.2Y-201.93
X331.47Y-151.13
X331.47Y-181.34
X332.74Y-152.042
X334.01Y-152.766
X335.28Y-153.491
X336.55Y-154.215
X337.82Y-154.85
X339.09Y-155.486
X340.36Y-156.21
X341.642Y-166.993
X346.075Y-165.1
X351.79Y-181.34
X352.425Y-69.215
X352.425Y-166.37
X353.06Y-189.595
X353.695Y-157.936
X354.965Y-158.66
X356.235Y-159.385
X358.775Y-164.465
X361.861Y-121.92
X362.585Y-107.95
X364.49Y-119.38
X366.395Y-105.41
X368.3Y-124.46
X375.285Y-125.73
X381.0Y-168.005
X383.54Y-130.81
T2
X178.435Y-56.24
X179.705Y-56.24
X180.975Y-56.24
X293.37Y-71.755
X293.37Y-73.025
X293.37Y-74.295
X338.445Y-48.246
X338.445Y-49.516
X338.445Y-50.786
T3
X17.78Y-91.44
X17.78Y-93.98
X17.78Y-96.52
X17.78Y-99.06
X17.86Y-86.36
X20.955Y-103.095
X20.955Y-108.095
X21.59Y-76.24
X21.59Y-78.74
X22.86Y-86.36
X25.4Y-91.44
X25.4Y-93.98
X25.4Y-96.52
X25.4Y-99.06
X27.94Y-102.775
X27.94Y-104.775
X29.845Y-77.51
X29.845Y-82.51
X31.115Y-92.71
X31.115Y-95.885
X31.115Y-99.06
X31.195Y-86.36
X33.655Y-72.39
X33.655Y-82.55
X36.195Y-86.36
X39.37Y-108.585
X39.37Y-111.125
X39.37Y-113.665
X39.37Y-116.205
X39.37Y-118.745
X39.37Y-121.285
X39.37Y-123.825
X39.37Y-126.365
X39.37Y-128.905
X39.37Y-131.445
X39.37Y-133.985
X39.37Y-136.525
X39.37Y-139.065
X39.37Y-141.605
X39.37Y-144.145
X39.37Y-146.685
X39.37Y-149.225
X39.37Y-151.765
X39.37Y-154.305
X39.37Y-156.845
X41.275Y-92.71
X41.275Y-95.885
X41.275Y-99.06
X46.99Y-173.975
X46.99Y-176.515
X46.99Y-179.055
X46.99Y-181.595
X46.99Y-184.135
X46.99Y-186.675
X46.99Y-189.215
X49.6Y-170.17
X49.61Y-98.425
X54.6Y-170.17
X54.61Y-98.425
X54.61Y-108.585
X54.61Y-111.125
X54.61Y-113.665
X54.61Y-116.205
X54.61Y-118.745
X54.61Y-121.285
X54.61Y-123.825
X54.61Y-126.365
X54.61Y-128.905
X54.61Y-131.445
X54.61Y-133.985
X54.61Y-136.525
X54.61Y-139.065
X54.61Y-141.605
X54.61Y-144.145
X54.61Y-146.685
X54.61Y-149.225
X54.61Y-151.765
X54.61Y-154.305
X54.61Y-156.845
X54.61Y-173.975
X54.61Y-176.515
X54.61Y-179.055
X54.61Y-181.595
X54.61Y-184.135
X54.61Y-186.675
X54.61Y-189.215
X86.995Y-52.705
X86.995Y-56.515
X86.995Y-60.325
X86.995Y-64.135
X94.615Y-52.705
X94.615Y-56.515
X94.615Y-60.325
X94.615Y-64.135
X94.615Y-99.065
X94.615Y-101.605
X94.615Y-104.145
X94.615Y-106.685
X94.615Y-109.225
X94.615Y-111.765
X94.615Y-114.305
X94.615Y-116.845
X94.615Y-119.385
X94.615Y-121.925
X94.615Y-124.465
X94.615Y-127.005
X94.615Y-129.545
X94.615Y-132.085
X94.615Y-134.625
X94.615Y-137.165
X94.615Y-139.705
X94.615Y-142.245
X94.615Y-144.785
X94.615Y-147.325
X104.185Y-63.545
X104.185Y-78.785
X106.725Y-63.545
X106.725Y-78.785
X108.595Y-48.91
X108.595Y-56.53
X109.265Y-63.545
X109.265Y-78.785
X109.855Y-99.065
X109.855Y-101.605
X109.855Y-104.145
X109.855Y-106.685
X109.855Y-109.225
X109.855Y-111.765
X109.855Y-114.305
X109.855Y-116.845
X109.855Y-119.385
X109.855Y-121.925
X109.855Y-124.465
X109.855Y-127.005
X109.855Y-129.545
X109.855Y-132.085
X109.855Y-134.625
X109.855Y-137.165
X109.855Y-139.705
X109.855Y-142.245
X109.855Y-144.785
X109.855Y-147.325
X111.135Y-48.91
X111.135Y-56.53
X111.805Y-63.545
X111.805Y-78.785
X113.675Y-48.91
X113.675Y-56.53
X113.705Y-116.84
X114.345Y-63.545
X114.345Y-78.785
X114.875Y-99.15
X114.875Y-104.05
X115.555Y-173.99
X115.555Y-176.53
X115.555Y-179.07
X115.555Y-181.61
X115.555Y-184.15
X115.555Y-186.69
X115.555Y-189.23
X116.215Y-48.91
X116.215Y-56.53
X116.885Y-63.545
X116.885Y-78.785
X118.19Y-170.185
X118.705Y-116.84
X119.42Y-99.06
X119.42Y-104.14
X119.425Y-63.545
X119.425Y-78.785
X121.965Y-63.545
X121.965Y-78.785
X123.175Y-173.99
X123.175Y-176.53
X123.175Y-179.07
X123.175Y-181.61
X123.175Y-184.15
X123.175Y-186.69
X123.175Y-189.23
X123.19Y-170.185
X124.42Y-99.06
X124.42Y-104.14
X124.505Y-63.545
X124.505Y-78.785
X127.045Y-63.545
X127.045Y-78.785
X129.585Y-63.545
X129.585Y-78.785
X131.445Y-100.33
X131.445Y-105.33
X131.445Y-115.65
X131.445Y-120.65
X131.445Y-130.85
X131.445Y-135.85
X132.125Y-63.545
X132.125Y-78.785
X134.66Y-59.055
X134.665Y-63.545
X134.665Y-78.785
X135.255Y-115.67
X135.255Y-123.29
X135.26Y-100.42
X135.26Y-108.04
X135.26Y-130.9
X135.26Y-138.52
X137.205Y-63.545
X137.205Y-78.785
X137.795Y-115.67
X137.795Y-123.29
X137.8Y-100.42
X137.8Y-108.04
X137.8Y-130.9
X137.8Y-138.52
X139.66Y-59.055
X139.745Y-63.545
X139.745Y-78.785
X140.335Y-115.67
X140.335Y-123.29
X140.34Y-100.42
X140.34Y-108.04
X140.34Y-130.9
X140.34Y-138.52
X142.285Y-63.545
X142.285Y-78.785
X142.875Y-115.67
X142.875Y-123.29
X142.88Y-100.42
X142.88Y-108.04
X142.88Y-130.9
X142.88Y-138.52
X144.825Y-63.545
X144.825Y-78.785
X145.415Y-115.67
X145.415Y-123.29
X145.42Y-100.42
X145.42Y-108.04
X145.42Y-130.9
X145.42Y-138.52
X147.365Y-63.545
X147.365Y-78.785
X147.955Y-115.67
X147.955Y-123.29
X147.96Y-100.42
X147.96Y-108.04
X147.96Y-130.9
X147.96Y-138.52
X149.865Y-173.99
X149.865Y-176.53
X149.865Y-179.07
X149.865Y-181.61
X149.865Y-184.15
X149.865Y-186.69
X149.865Y-189.23
X149.905Y-63.545
X149.905Y-78.785
X150.495Y-115.67
X150.495Y-123.29
X150.5Y-100.42
X150.5Y-108.04
X150.5Y-130.9
X150.5Y-138.52
X152.445Y-63.545
X152.445Y-78.785
X152.475Y-170.185
X153.035Y-115.67
X153.035Y-123.29
X153.04Y-100.42
X153.04Y-108.04
X153.04Y-130.9
X153.04Y-138.52
X155.575Y-115.67
X155.575Y-123.29
X155.58Y-100.42
X155.58Y-108.04
X155.58Y-130.9
X155.58Y-138.52
X157.475Y-170.185
X157.485Y-173.99
X157.485Y-176.53
X157.485Y-179.07
X157.485Y-181.61
X157.485Y-184.15
X157.485Y-186.69
X157.485Y-189.23
X158.115Y-115.67
X158.115Y-123.29
X158.12Y-100.42
X158.12Y-108.04
X158.12Y-130.9
X158.12Y-138.52
X164.465Y-39.37
X164.465Y-46.99
X164.465Y-50.8
X164.465Y-53.975
X164.465Y-57.785
X168.275Y-102.87
X168.275Y-105.41
X168.275Y-107.95
X168.275Y-110.49
X168.275Y-113.03
X168.275Y-115.57
X168.275Y-118.11
X168.275Y-120.65
X168.275Y-123.19
X168.275Y-125.73
X168.275Y-128.27
X168.275Y-130.81
X168.275Y-133.35
X168.275Y-135.89
X171.45Y-39.37
X171.45Y-46.99
X174.625Y-50.8
X174.625Y-53.975
X174.625Y-57.785
X178.475Y-99.06
X179.152Y-46.99
X181.652Y-46.99
X183.475Y-99.06
X183.515Y-102.87
X183.515Y-105.41
X183.515Y-107.95
X183.515Y-110.49
X183.515Y-113.03
X183.515Y-115.57
X183.515Y-118.11
X183.515Y-120.65
X183.515Y-123.19
X183.515Y-125.73
X183.515Y-128.27
X183.515Y-130.81
X183.515Y-133.35
X183.515Y-135.89
X183.515Y-173.99
X183.515Y-176.53
X183.515Y-179.07
X183.515Y-181.61
X183.515Y-184.15
X183.515Y-186.69
X183.515Y-189.23
X183.515Y-191.77
X183.515Y-194.31
X183.515Y-196.85
X185.42Y-52.705
X185.42Y-57.705
X186.185Y-170.17
X186.69Y-38.735
X186.69Y-41.91
X186.77Y-45.72
X189.865Y-64.77
X189.865Y-69.85
X189.865Y-74.93
X191.135Y-173.99
X191.135Y-176.53
X191.135Y-179.07
X191.135Y-181.61
X191.135Y-184.15
X191.135Y-186.69
X191.135Y-189.23
X191.135Y-191.77
X191.135Y-194.31
X191.135Y-196.85
X191.185Y-170.17
X191.77Y-45.72
X194.31Y-38.735
X194.31Y-41.91
X195.63Y-97.155
X195.63Y-99.695
X195.63Y-102.235
X195.63Y-104.775
X195.63Y-107.315
X195.63Y-109.855
X195.63Y-112.395
X195.63Y-114.935
X195.63Y-117.475
X195.63Y-120.015
X195.63Y-122.555
X195.63Y-125.095
X195.63Y-127.635
X195.63Y-130.175
X196.85Y-137.11
X197.485Y-64.77
X197.485Y-69.85
X197.485Y-74.93
X198.12Y-36.87
X198.12Y-41.87
X198.875Y-174.005
X198.875Y-176.545
X198.875Y-179.085
X198.875Y-181.625
X198.875Y-184.165
X198.875Y-186.705
X198.875Y-189.245
X198.875Y-191.785
X201.47Y-170.18
X203.2Y-62.23
X203.2Y-64.77
X203.2Y-67.31
X203.2Y-69.85
X203.2Y-72.39
X203.2Y-74.93
X203.2Y-77.47
X205.82Y-58.42
X205.82Y-92.71
X206.47Y-170.18
X206.495Y-174.005
X206.495Y-176.545
X206.495Y-179.085
X206.495Y-181.625
X206.495Y-184.165
X206.495Y-186.705
X206.495Y-189.245
X206.495Y-191.785
X207.01Y-137.11
X210.82Y-58.42
X210.82Y-62.23
X210.82Y-64.77
X210.82Y-67.31
X210.82Y-69.85
X210.82Y-72.39
X210.82Y-74.93
X210.82Y-77.47
X210.82Y-92.71
X210.87Y-97.155
X210.87Y-99.695
X210.87Y-102.235
X210.87Y-104.775
X210.87Y-107.315
X210.87Y-109.855
X210.87Y-112.395
X210.87Y-114.935
X210.87Y-117.475
X210.87Y-120.015
X210.87Y-122.555
X210.87Y-125.095
X210.87Y-127.635
X210.87Y-130.175
X212.86Y-171.45
X212.86Y-173.99
X212.86Y-176.53
X212.86Y-179.07
X212.86Y-181.61
X212.86Y-184.15
X212.86Y-186.69
X212.86Y-189.23
X212.86Y-191.77
X214.63Y-62.23
X214.63Y-67.31
X214.63Y-72.39
X214.63Y-77.47
X221.695Y-173.99
X221.695Y-176.53
X221.695Y-179.07
X221.695Y-181.61
X221.695Y-184.15
X221.695Y-186.69
X221.695Y-189.23
X222.25Y-62.23
X222.25Y-67.31
X222.25Y-72.39
X222.25Y-77.47
X224.235Y-170.18
X229.235Y-66.03
X229.235Y-73.65
X229.235Y-170.18
X229.315Y-173.99
X229.315Y-176.53
X229.315Y-179.07
X229.315Y-181.61
X229.315Y-184.15
X229.315Y-186.69
X229.315Y-189.23
X233.045Y-66.03
X233.045Y-73.65
X233.68Y-97.515
X233.68Y-100.055
X233.68Y-102.595
X233.68Y-105.135
X233.68Y-107.675
X233.68Y-110.215
X233.68Y-112.755
X233.68Y-115.295
X233.68Y-117.835
X233.68Y-120.375
X233.68Y-122.915
X233.68Y-125.455
X233.68Y-127.995
X233.68Y-130.535
X236.855Y-62.855
X236.855Y-66.03
X236.855Y-73.65
X237.49Y-173.98
X237.49Y-176.52
X237.49Y-179.06
X237.49Y-181.6
X237.49Y-184.14
X237.49Y-186.68
X237.49Y-189.22
X237.49Y-191.76
X240.11Y-170.18
X240.665Y-66.03
X240.665Y-73.65
X241.855Y-62.855
X243.92Y-92.43
X244.475Y-66.03
X244.475Y-73.65
X245.11Y-170.18
X245.11Y-173.98
X245.11Y-176.52
X245.11Y-179.06
X245.11Y-181.6
X245.11Y-184.14
X245.11Y-186.68
X245.11Y-189.22
X245.11Y-191.76
X248.285Y-66.03
X248.285Y-73.65
X248.92Y-92.43
X248.92Y-97.515
X248.92Y-100.055
X248.92Y-102.595
X248.92Y-105.135
X248.92Y-107.675
X248.92Y-110.215
X248.92Y-112.755
X248.92Y-115.295
X248.92Y-117.835
X248.92Y-120.375
X248.92Y-122.915
X248.92Y-125.455
X248.92Y-127.995
X248.92Y-130.535
X252.095Y-66.03
X252.095Y-73.65
X253.35Y-174.09
X253.35Y-176.63
X253.35Y-179.17
X253.35Y-181.71
X253.35Y-184.25
X253.35Y-186.79
X253.35Y-189.33
X255.905Y-66.03
X255.905Y-73.65
X255.985Y-170.18
X256.54Y-97.515
X256.54Y-100.055
X256.54Y-102.595
X256.54Y-105.135
X256.54Y-107.675
X256.54Y-110.215
X256.54Y-112.755
X256.54Y-115.295
X256.54Y-117.835
X256.54Y-120.375
X256.54Y-122.915
X256.54Y-125.455
X256.54Y-127.995
X256.54Y-130.535
X259.715Y-61.585
X259.715Y-66.04
X259.715Y-68.58
X259.715Y-71.12
X259.715Y-73.66
X260.97Y-174.09
X260.97Y-176.63
X260.97Y-179.17
X260.97Y-181.71
X260.97Y-184.25
X260.97Y-186.79
X260.97Y-189.33
X260.985Y-170.18
X266.7Y-92.43
X267.335Y-61.585
X267.335Y-66.04
X267.335Y-68.58
X267.335Y-71.12
X267.335Y-73.66
X267.335Y-173.99
X267.335Y-176.53
X267.335Y-179.07
X267.335Y-181.61
X267.335Y-184.15
X267.335Y-186.69
X267.335Y-189.23
X267.335Y-191.77
X268.358Y-43.265
X268.358Y-48.265
X269.965Y-170.19
X271.7Y-92.43
X271.78Y-97.515
X271.78Y-100.055
X271.78Y-102.595
X271.78Y-105.135
X271.78Y-107.675
X271.78Y-110.215
X271.78Y-112.755
X271.78Y-115.295
X271.78Y-117.835
X271.78Y-120.375
X271.78Y-122.915
X271.78Y-125.455
X271.78Y-127.995
X271.78Y-130.535
X272.415Y-36.83
X272.415Y-40.005
X272.415Y-43.18
X272.415Y-50.8
X274.955Y-173.99
X274.955Y-176.53
X274.955Y-179.07
X274.955Y-181.61
X274.955Y-184.15
X274.955Y-186.69
X274.955Y-189.23
X274.955Y-191.77
X274.965Y-170.19
X277.495Y-43.18
X277.495Y-50.8
X280.035Y-36.83
X280.035Y-40.005
X280.67Y-73.025
X282.575Y-43.18
X282.575Y-50.8
X286.425Y-173.99
X286.425Y-176.53
X286.425Y-179.07
X286.425Y-181.61
X286.425Y-184.15
X286.425Y-186.69
X286.425Y-189.23
X288.29Y-73.025
X288.29Y-118.11
X288.29Y-123.11
X289.005Y-170.18
X290.195Y-43.18
X290.195Y-50.8
X293.37Y-43.18
X293.37Y-50.8
X294.005Y-170.18
X294.045Y-173.99
X294.045Y-176.53
X294.045Y-179.07
X294.045Y-181.61
X294.045Y-184.15
X294.045Y-186.69
X294.045Y-189.23
X295.91Y-97.79
X295.91Y-100.33
X295.91Y-102.87
X295.91Y-105.41
X295.91Y-107.95
X295.91Y-110.49
X295.91Y-113.03
X295.91Y-115.57
X295.91Y-118.11
X295.91Y-120.65
X295.91Y-123.19
X295.91Y-125.73
X295.91Y-128.27
X295.91Y-130.81
X295.91Y-133.35
X295.91Y-135.89
X295.91Y-138.43
X295.91Y-140.97
X295.91Y-143.51
X295.91Y-146.05
X300.99Y-78.74
X300.99Y-86.36
X308.61Y-78.74
X308.61Y-86.36
X310.515Y-48.895
X310.515Y-51.435
X310.515Y-53.975
X310.515Y-56.515
X310.515Y-59.055
X310.515Y-61.595
X310.515Y-64.135
X311.15Y-97.79
X311.15Y-100.33
X311.15Y-102.87
X311.15Y-105.41
X311.15Y-107.95
X311.15Y-110.49
X311.15Y-113.03
X311.15Y-115.57
X311.15Y-118.11
X311.15Y-120.65
X311.15Y-123.19
X311.15Y-125.73
X311.15Y-128.27
X311.15Y-130.81
X311.15Y-133.35
X311.15Y-135.89
X311.15Y-138.43
X311.15Y-140.97
X311.15Y-143.51
X311.15Y-146.05
X313.125Y-43.82
X313.69Y-81.32
X313.69Y-86.32
X318.125Y-43.82
X318.135Y-48.895
X318.135Y-51.435
X318.135Y-53.975
X318.135Y-56.515
X318.135Y-59.055
X318.135Y-61.595
X318.135Y-64.135
X320.04Y-106.68
X320.04Y-114.3
X323.215Y-49.656
X323.215Y-52.196
X323.215Y-54.736
X323.215Y-57.276
X324.515Y-43.82
X325.12Y-106.68
X325.12Y-114.3
X325.785Y-62.216
X327.015Y-43.82
X330.2Y-106.68
X330.2Y-114.3
X330.785Y-62.216
X330.835Y-49.656
X330.835Y-52.196
X330.835Y-54.736
X330.835Y-57.276
X333.267Y-184.15
X333.267Y-186.15
X335.267Y-184.15
X335.267Y-186.15
X335.905Y-54.596
X335.905Y-62.216
X336.55Y-189.595
X337.267Y-184.15
X337.267Y-186.15
X339.267Y-184.15
X339.267Y-186.15
X340.985Y-54.596
X340.985Y-62.216
X341.267Y-184.15
X341.267Y-186.15
X343.267Y-184.15
X343.267Y-186.15
X343.53Y-97.76
X343.53Y-100.3
X343.53Y-102.84
X343.53Y-105.38
X343.53Y-107.92
X343.53Y-110.46
X343.53Y-113.0
X343.53Y-115.54
X343.53Y-118.08
X343.53Y-120.62
X343.53Y-123.16
X343.53Y-125.7
X343.53Y-128.24
X343.53Y-130.78
X343.53Y-133.32
X343.53Y-135.86
X343.53Y-138.4
X343.53Y-140.94
X343.53Y-143.48
X343.53Y-146.02
X345.267Y-184.15
X345.267Y-186.15
X346.065Y-54.596
X346.065Y-62.216
X346.71Y-189.595
X347.267Y-184.15
X347.267Y-186.15
X349.267Y-184.15
X349.267Y-186.15
X351.145Y-54.596
X351.145Y-62.216
X351.267Y-184.15
X351.267Y-186.15
X353.267Y-184.15
X353.267Y-186.15
X353.735Y-93.945
X354.955Y-57.176
X354.955Y-62.176
X355.267Y-184.15
X355.267Y-186.15
X357.267Y-184.15
X357.267Y-186.15
X358.735Y-93.945
X358.77Y-97.76
X358.77Y-100.3
X358.77Y-102.84
X358.77Y-105.38
X358.77Y-107.92
X358.77Y-110.46
X358.77Y-113.0
X358.77Y-115.54
X358.77Y-118.08
X358.77Y-120.62
X358.77Y-123.16
X358.77Y-125.7
X358.77Y-128.24
X358.77Y-130.78
X358.77Y-133.32
X358.77Y-135.86
X358.77Y-138.4
X358.77Y-140.94
X358.77Y-143.48
X358.77Y-146.02
X359.267Y-184.15
X359.267Y-186.15
X361.267Y-184.15
X361.267Y-186.15
X363.267Y-184.15
X363.267Y-186.15
X364.202Y-135.99
X364.49Y-142.28
X364.49Y-144.78
X365.267Y-184.15
X365.267Y-186.15
X367.07Y-147.32
X367.267Y-184.15
X367.267Y-186.15
X369.267Y-184.15
X369.267Y-186.15
X369.57Y-147.32
X371.267Y-184.15
X371.267Y-186.15
X371.822Y-135.99
X372.847Y-75.565
X376.647Y-75.565
X377.19Y-123.27
X377.19Y-128.27
X381.0Y-123.19
X381.0Y-128.19
X382.198Y-86.36
X382.28Y-75.565
X382.945Y-60.96
X384.698Y-86.36
X385.445Y-60.96
X386.08Y-75.565
X386.08Y-98.425
X386.08Y-104.775
X386.78Y-144.78
X387.35Y-123.19
X387.35Y-125.69
X387.35Y-128.29
X387.35Y-130.79
X388.62Y-84.455
X389.28Y-144.78
X396.24Y-84.455
X396.24Y-98.425
X396.24Y-104.775
X397.68Y-137.785
X400.18Y-137.785
T4
X164.465Y-34.29
X164.465Y-36.83
X171.45Y-34.29
X171.45Y-36.83
X371.475Y-34.925
X372.745Y-67.945
X379.095Y-34.925
X380.365Y-67.945
X400.05Y-84.455
X400.05Y-98.425
X400.05Y-104.775
X402.59Y-84.455
X402.59Y-98.425
X402.59Y-104.775
T5
X21.59Y-67.31
X24.13Y-67.31
X31.73Y-108.66
X31.73Y-111.2
X31.73Y-113.74
X31.73Y-116.28
X31.73Y-118.82
X31.73Y-121.36
X31.73Y-123.9
X31.73Y-126.44
X31.73Y-128.98
X31.73Y-131.52
X31.73Y-134.06
X31.73Y-136.6
X31.73Y-139.14
X31.73Y-141.68
X31.73Y-144.22
X31.73Y-146.76
X31.73Y-149.3
X31.73Y-151.84
X31.73Y-154.38
X31.73Y-156.92
X216.535Y-102.19
X216.535Y-104.73
X216.535Y-107.27
X216.535Y-109.81
X216.535Y-112.35
X216.535Y-114.89
X216.535Y-117.43
X224.16Y-194.945
X226.7Y-194.945
X248.92Y-194.945
X251.46Y-194.945
X254.0Y-194.945
X365.76Y-97.755
X367.045Y-152.4
X368.3Y-97.755
X369.585Y-152.4
X370.84Y-97.755
X372.125Y-152.4
X373.38Y-97.755
X375.92Y-97.755
X378.46Y-97.755
X389.89Y-152.4
X392.43Y-152.4
T6
X372.745Y-57.85
X375.285Y-57.85
X377.825Y-57.85
X397.455Y-71.12
X397.455Y-77.62
X401.955Y-71.12
X401.955Y-77.62
T7
X202.05Y-44.91
X204.55Y-34.91
X204.55Y-47.41
X209.55Y-44.91
X214.55Y-34.91
X214.55Y-47.41
X217.05Y-44.91
T8
X247.65Y-56.21
T9
X240.65Y-48.94
X254.65Y-48.94
T10
X21.59Y-53.34
X21.59Y-198.12
X101.6Y-53.34
X193.675Y-52.07
X214.63Y-146.05
X396.24Y-39.37
X396.24Y-198.12
X399.415Y-153.67
T3
G00X389.43Y-56.51
M15
G01X389.43Y-53.91
M16
G05
G00X393.53Y-50.41
M15
G01X391.33Y-50.41
M16
G05
G00X395.23Y-56.31
M15
G01X395.23Y-54.11
M16
G05
T0
M30
