%TF.GenerationSoftware,KiCad,Pcbnew,(6.0.6)*%
%TF.CreationDate,2022-08-30T12:21:22+02:00*%
%TF.ProjectId,Z80AllInOne,5a383041-6c6c-4496-9e4f-6e652e6b6963,rev?*%
%TF.SameCoordinates,Original*%
%TF.FileFunction,Copper,L1,Top*%
%TF.FilePolarity,Positive*%
%FSLAX46Y46*%
G04 Gerber Fmt 4.6, Leading zero omitted, Abs format (unit mm)*
G04 Created by KiCad (PCBNEW (6.0.6)) date 2022-08-30 12:21:22*
%MOMM*%
%LPD*%
G01*
G04 APERTURE LIST*
G04 Aperture macros list*
%AMRoundRect*
0 Rectangle with rounded corners*
0 $1 Rounding radius*
0 $2 $3 $4 $5 $6 $7 $8 $9 X,Y pos of 4 corners*
0 Add a 4 corners polygon primitive as box body*
4,1,4,$2,$3,$4,$5,$6,$7,$8,$9,$2,$3,0*
0 Add four circle primitives for the rounded corners*
1,1,$1+$1,$2,$3*
1,1,$1+$1,$4,$5*
1,1,$1+$1,$6,$7*
1,1,$1+$1,$8,$9*
0 Add four rect primitives between the rounded corners*
20,1,$1+$1,$2,$3,$4,$5,0*
20,1,$1+$1,$4,$5,$6,$7,0*
20,1,$1+$1,$6,$7,$8,$9,0*
20,1,$1+$1,$8,$9,$2,$3,0*%
G04 Aperture macros list end*
%TA.AperFunction,ComponentPad*%
%ADD10C,5.500000*%
%TD*%
%TA.AperFunction,ComponentPad*%
%ADD11C,1.600000*%
%TD*%
%TA.AperFunction,ComponentPad*%
%ADD12R,1.800000X1.600000*%
%TD*%
%TA.AperFunction,ComponentPad*%
%ADD13R,1.700000X1.700000*%
%TD*%
%TA.AperFunction,ComponentPad*%
%ADD14O,1.700000X1.700000*%
%TD*%
%TA.AperFunction,ComponentPad*%
%ADD15O,1.600000X1.600000*%
%TD*%
%TA.AperFunction,ConnectorPad*%
%ADD16R,1.650000X13.000000*%
%TD*%
%TA.AperFunction,ComponentPad*%
%ADD17C,2.400000*%
%TD*%
%TA.AperFunction,ComponentPad*%
%ADD18C,4.000000*%
%TD*%
%TA.AperFunction,ComponentPad*%
%ADD19R,1.800000X1.800000*%
%TD*%
%TA.AperFunction,ComponentPad*%
%ADD20C,1.800000*%
%TD*%
%TA.AperFunction,ComponentPad*%
%ADD21R,2.400000X1.600000*%
%TD*%
%TA.AperFunction,ComponentPad*%
%ADD22O,2.400000X1.600000*%
%TD*%
%TA.AperFunction,ComponentPad*%
%ADD23R,1.905000X2.000000*%
%TD*%
%TA.AperFunction,ComponentPad*%
%ADD24O,1.905000X2.000000*%
%TD*%
%TA.AperFunction,ComponentPad*%
%ADD25R,1.600000X1.600000*%
%TD*%
%TA.AperFunction,ComponentPad*%
%ADD26O,1.800000X1.800000*%
%TD*%
%TA.AperFunction,ComponentPad*%
%ADD27C,1.500000*%
%TD*%
%TA.AperFunction,ComponentPad*%
%ADD28R,1.600000X2.400000*%
%TD*%
%TA.AperFunction,ComponentPad*%
%ADD29O,1.600000X2.400000*%
%TD*%
%TA.AperFunction,ComponentPad*%
%ADD30R,1.500000X1.050000*%
%TD*%
%TA.AperFunction,ComponentPad*%
%ADD31O,1.500000X1.050000*%
%TD*%
%TA.AperFunction,SMDPad,CuDef*%
%ADD32R,2.000000X0.500000*%
%TD*%
%TA.AperFunction,SMDPad,CuDef*%
%ADD33R,1.700000X2.000000*%
%TD*%
%TA.AperFunction,ComponentPad*%
%ADD34C,2.500000*%
%TD*%
%TA.AperFunction,ComponentPad*%
%ADD35R,1.800000X4.400000*%
%TD*%
%TA.AperFunction,ComponentPad*%
%ADD36O,1.800000X4.000000*%
%TD*%
%TA.AperFunction,ComponentPad*%
%ADD37O,4.000000X1.800000*%
%TD*%
%TA.AperFunction,SMDPad,CuDef*%
%ADD38R,1.750000X0.450000*%
%TD*%
%TA.AperFunction,SMDPad,CuDef*%
%ADD39RoundRect,0.150000X0.150000X-0.587500X0.150000X0.587500X-0.150000X0.587500X-0.150000X-0.587500X0*%
%TD*%
%TA.AperFunction,ConnectorPad*%
%ADD40R,2.000000X13.000000*%
%TD*%
%TA.AperFunction,ComponentPad*%
%ADD41R,1.350000X1.350000*%
%TD*%
%TA.AperFunction,ComponentPad*%
%ADD42O,1.350000X1.350000*%
%TD*%
%TA.AperFunction,ComponentPad*%
%ADD43C,2.000000*%
%TD*%
%TA.AperFunction,SMDPad,CuDef*%
%ADD44RoundRect,0.218750X0.218750X0.381250X-0.218750X0.381250X-0.218750X-0.381250X0.218750X-0.381250X0*%
%TD*%
%TA.AperFunction,ComponentPad*%
%ADD45R,1.050000X1.500000*%
%TD*%
%TA.AperFunction,ComponentPad*%
%ADD46O,1.050000X1.500000*%
%TD*%
%TA.AperFunction,ViaPad*%
%ADD47C,0.800000*%
%TD*%
%TA.AperFunction,Conductor*%
%ADD48C,0.250000*%
%TD*%
%TA.AperFunction,Conductor*%
%ADD49C,1.000000*%
%TD*%
G04 APERTURE END LIST*
D10*
%TO.P,,2*%
%TO.N,GND*%
X214630000Y-146050000D03*
%TD*%
D11*
%TO.P,K1,11*%
%TO.N,/IO/Casette Interface/M2*%
X282575000Y-43180000D03*
%TO.P,K1,12*%
%TO.N,unconnected-(K1-Pad12)*%
X277495000Y-43180000D03*
%TO.P,K1,14*%
%TO.N,/IO/Casette Interface/M1*%
X272415000Y-43180000D03*
%TO.P,K1,21*%
%TO.N,unconnected-(K1-Pad21)*%
X282575000Y-50800000D03*
%TO.P,K1,22*%
%TO.N,unconnected-(K1-Pad22)*%
X277495000Y-50800000D03*
%TO.P,K1,24*%
%TO.N,unconnected-(K1-Pad24)*%
X272415000Y-50800000D03*
D12*
%TO.P,K1,A1*%
%TO.N,VCC*%
X290195000Y-43180000D03*
D11*
%TO.P,K1,A2*%
%TO.N,Net-(D7-Pad1)*%
X290195000Y-50800000D03*
%TD*%
D13*
%TO.P,JP4,1,A*%
%TO.N,/MREQ*%
X248920000Y-194945000D03*
D14*
%TO.P,JP4,2,C*%
%TO.N,Net-(JP4-Pad2)*%
X251460000Y-194945000D03*
%TO.P,JP4,3,B*%
%TO.N,Net-(JP4-Pad3)*%
X254000000Y-194945000D03*
%TD*%
D10*
%TO.P,,3*%
%TO.N,GND*%
X396240000Y-198120000D03*
%TD*%
D11*
%TO.P,C4,1*%
%TO.N,GND*%
X313690000Y-81320000D03*
%TO.P,C4,2*%
%TO.N,VCC*%
X313690000Y-86320000D03*
%TD*%
%TO.P,R21,1*%
%TO.N,/{slash}RESET*%
X335905000Y-62215564D03*
D15*
%TO.P,R21,2*%
%TO.N,Net-(Q3-Pad2)*%
X335905000Y-54595564D03*
%TD*%
D11*
%TO.P,C49,1*%
%TO.N,Net-(C49-Pad1)*%
X198120000Y-41870000D03*
%TO.P,C49,2*%
%TO.N,GND*%
X198120000Y-36870000D03*
%TD*%
D16*
%TO.P,JE1,2,Pin_2*%
%TO.N,/NMI*%
X83883000Y-39370000D03*
%TO.P,JE1,4,Pin_4*%
%TO.N,/WAIT*%
X81333000Y-39370000D03*
%TO.P,JE1,6,Pin_6*%
%TO.N,/IORQ*%
X78783000Y-39370000D03*
%TO.P,JE1,8,Pin_8*%
%TO.N,/RD*%
X76233000Y-39370000D03*
%TO.P,JE1,10,Pin_10*%
%TO.N,/BUS Expansion/D0*%
X73683000Y-39370000D03*
%TO.P,JE1,12,Pin_12*%
%TO.N,/BUS Expansion/D2*%
X71133000Y-39370000D03*
%TO.P,JE1,14,Pin_14*%
%TO.N,/BUS Expansion/D4*%
X68583000Y-39370000D03*
%TO.P,JE1,16,Pin_16*%
%TO.N,/BUS Expansion/D6*%
X66033000Y-39370000D03*
%TO.P,JE1,18,Pin_18*%
%TO.N,/WR*%
X63483000Y-39370000D03*
%TO.P,JE1,20,Pin_20*%
%TO.N,/IO/A1*%
X60933000Y-39370000D03*
%TO.P,JE1,22,Pin_22*%
%TO.N,/IO/A3*%
X58383000Y-39370000D03*
%TO.P,JE1,24,Pin_24*%
%TO.N,/IO/A5*%
X55833000Y-39370000D03*
%TO.P,JE1,26,Pin_26*%
%TO.N,/IO/A7*%
X53283000Y-39370000D03*
%TO.P,JE1,28,Pin_28*%
%TO.N,/IO/A9*%
X50733000Y-39370000D03*
%TO.P,JE1,30,Pin_30*%
%TO.N,/IO/A11*%
X48183000Y-39370000D03*
%TO.P,JE1,32,Pin_32*%
%TO.N,/BUSACK*%
X45633000Y-39370000D03*
%TO.P,JE1,34,Pin_34*%
%TO.N,GND*%
X43083000Y-39370000D03*
%TO.P,JE1,36,Pin_36*%
%TO.N,/DEV_CS1*%
X40533000Y-39370000D03*
%TO.P,JE1,38,Pin_38*%
%TO.N,/IO/A14*%
X37983000Y-39370000D03*
%TO.P,JE1,40,Pin_40*%
%TO.N,/INT_DEV1*%
X35433000Y-39370000D03*
%TD*%
D11*
%TO.P,R5,1*%
%TO.N,Net-(R5-Pad1)*%
X94615000Y-56515000D03*
D15*
%TO.P,R5,2*%
%TO.N,GND*%
X86995000Y-56515000D03*
%TD*%
D11*
%TO.P,C32,1*%
%TO.N,VCC*%
X20955000Y-103095112D03*
%TO.P,C32,2*%
%TO.N,GND*%
X20955000Y-108095112D03*
%TD*%
%TO.P,R19,1*%
%TO.N,Net-(C19-Pad1)*%
X174625000Y-50800000D03*
D15*
%TO.P,R19,2*%
%TO.N,Net-(Q2-Pad1)*%
X164465000Y-50800000D03*
%TD*%
D17*
%TO.P,J3,1,In*%
%TO.N,Net-(C19-Pad2)*%
X247650000Y-56210000D03*
D18*
%TO.P,J3,2,Ext*%
%TO.N,GND*%
X254650000Y-48940000D03*
%TO.P,J3,3*%
%TO.N,N/C*%
X240650000Y-48940000D03*
%TD*%
D19*
%TO.P,D4,1,K*%
%TO.N,Net-(D4-Pad1)*%
X400050000Y-84455000D03*
D20*
%TO.P,D4,2,A*%
%TO.N,VCC*%
X402590000Y-84455000D03*
%TD*%
D11*
%TO.P,C38,1*%
%TO.N,VCC*%
X206470000Y-170180000D03*
%TO.P,C38,2*%
%TO.N,GND*%
X201470000Y-170180000D03*
%TD*%
D21*
%TO.P,U28,1,OE*%
%TO.N,Net-(JP3-Pad2)*%
X183515000Y-173990000D03*
D22*
%TO.P,U28,2,O0*%
%TO.N,/BUS Expansion/D0*%
X183515000Y-176530000D03*
%TO.P,U28,3,D0*%
%TO.N,GND*%
X183515000Y-179070000D03*
%TO.P,U28,4,D1*%
%TO.N,Net-(U26-Pad9)*%
X183515000Y-181610000D03*
%TO.P,U28,5,O1*%
%TO.N,/BUS Expansion/D1*%
X183515000Y-184150000D03*
%TO.P,U28,6,O2*%
%TO.N,/BUS Expansion/D2*%
X183515000Y-186690000D03*
%TO.P,U28,7,D2*%
%TO.N,Net-(U26-Pad7)*%
X183515000Y-189230000D03*
%TO.P,U28,8,D3*%
%TO.N,Net-(U26-Pad6)*%
X183515000Y-191770000D03*
%TO.P,U28,9,O3*%
%TO.N,/BUS Expansion/D3*%
X183515000Y-194310000D03*
%TO.P,U28,10,GND*%
%TO.N,GND*%
X183515000Y-196850000D03*
%TO.P,U28,11,LE*%
%TO.N,/M1*%
X191135000Y-196850000D03*
%TO.P,U28,12,O4*%
%TO.N,/BUS Expansion/D4*%
X191135000Y-194310000D03*
%TO.P,U28,13,D4*%
%TO.N,GND*%
X191135000Y-191770000D03*
%TO.P,U28,14,D5*%
X191135000Y-189230000D03*
%TO.P,U28,15,O5*%
%TO.N,/BUS Expansion/D5*%
X191135000Y-186690000D03*
%TO.P,U28,16,O6*%
%TO.N,/BUS Expansion/D6*%
X191135000Y-184150000D03*
%TO.P,U28,17,D6*%
%TO.N,GND*%
X191135000Y-181610000D03*
%TO.P,U28,18,D7*%
X191135000Y-179070000D03*
%TO.P,U28,19,O7*%
%TO.N,/BUS Expansion/D7*%
X191135000Y-176530000D03*
%TO.P,U28,20,VCC*%
%TO.N,VCC*%
X191135000Y-173990000D03*
%TD*%
D11*
%TO.P,R38,1*%
%TO.N,Net-(R38-Pad1)*%
X244475000Y-66030000D03*
D15*
%TO.P,R38,2*%
%TO.N,VCC*%
X244475000Y-73650000D03*
%TD*%
D23*
%TO.P,U29,1,IN*%
%TO.N,Net-(C44-Pad1)*%
X372745000Y-57850000D03*
D24*
%TO.P,U29,2,GND*%
%TO.N,GND*%
X375285000Y-57850000D03*
%TO.P,U29,3,OUT*%
%TO.N,VCC*%
X377825000Y-57850000D03*
%TD*%
D25*
%TO.P,D10,1,A*%
%TO.N,GND*%
X233045000Y-66030000D03*
D15*
%TO.P,D10,2,K*%
%TO.N,Net-(D10-Pad2)*%
X233045000Y-73650000D03*
%TD*%
D25*
%TO.P,D8,1,A*%
%TO.N,Net-(D8-Pad1)*%
X280035000Y-40005000D03*
D15*
%TO.P,D8,2,K*%
%TO.N,/IO/Casette Interface/M1*%
X272415000Y-40005000D03*
%TD*%
D25*
%TO.P,C19,1*%
%TO.N,Net-(C19-Pad1)*%
X179152375Y-46990000D03*
D11*
%TO.P,C19,2*%
%TO.N,Net-(C19-Pad2)*%
X181652375Y-46990000D03*
%TD*%
D25*
%TO.P,U23,1,GND*%
%TO.N,GND*%
X323215000Y-49655564D03*
D15*
%TO.P,U23,2,TR*%
%TO.N,Net-(C34-Pad1)*%
X323215000Y-52195564D03*
%TO.P,U23,3,Q*%
%TO.N,Net-(U12-Pad1)*%
X323215000Y-54735564D03*
%TO.P,U23,4,R*%
%TO.N,VCC*%
X323215000Y-57275564D03*
%TO.P,U23,5,CV*%
%TO.N,unconnected-(U23-Pad5)*%
X330835000Y-57275564D03*
%TO.P,U23,6,THR*%
%TO.N,Net-(C36-Pad1)*%
X330835000Y-54735564D03*
%TO.P,U23,7,DIS*%
X330835000Y-52195564D03*
%TO.P,U23,8,VCC*%
%TO.N,VCC*%
X330835000Y-49655564D03*
%TD*%
D11*
%TO.P,C37,1*%
%TO.N,GND*%
X224235000Y-170180000D03*
%TO.P,C37,2*%
%TO.N,VCC*%
X229235000Y-170180000D03*
%TD*%
%TO.P,R14,1*%
%TO.N,GND*%
X41275000Y-92710000D03*
D15*
%TO.P,R14,2*%
%TO.N,Net-(C30-Pad1)*%
X31115000Y-92710000D03*
%TD*%
D11*
%TO.P,C6,1*%
%TO.N,GND*%
X353735000Y-93945000D03*
%TO.P,C6,2*%
%TO.N,VCC*%
X358735000Y-93945000D03*
%TD*%
%TO.P,R4,1*%
%TO.N,Net-(R4-Pad1)*%
X94615000Y-52705000D03*
D15*
%TO.P,R4,2*%
%TO.N,GND*%
X86995000Y-52705000D03*
%TD*%
D21*
%TO.P,U26,1,I4*%
%TO.N,/INT_DEV2*%
X198875000Y-174005000D03*
D22*
%TO.P,U26,2,I5*%
%TO.N,/INT_DEV3*%
X198875000Y-176545000D03*
%TO.P,U26,3,I6*%
%TO.N,/INT_DEV4*%
X198875000Y-179085000D03*
%TO.P,U26,4,I7*%
%TO.N,/INT_DEV5*%
X198875000Y-181625000D03*
%TO.P,U26,5,EI*%
%TO.N,GND*%
X198875000Y-184165000D03*
%TO.P,U26,6,S2*%
%TO.N,Net-(U26-Pad6)*%
X198875000Y-186705000D03*
%TO.P,U26,7,S1*%
%TO.N,Net-(U26-Pad7)*%
X198875000Y-189245000D03*
%TO.P,U26,8,GND*%
%TO.N,GND*%
X198875000Y-191785000D03*
%TO.P,U26,9,S0*%
%TO.N,Net-(U26-Pad9)*%
X206495000Y-191785000D03*
%TO.P,U26,10,IO*%
%TO.N,/CTC_INT*%
X206495000Y-189245000D03*
%TO.P,U26,11,I1*%
%TO.N,/UART_INT*%
X206495000Y-186705000D03*
%TO.P,U26,12,I2*%
%TO.N,/VDP_INT*%
X206495000Y-184165000D03*
%TO.P,U26,13,I3*%
%TO.N,/INT_DEV1*%
X206495000Y-181625000D03*
%TO.P,U26,14,GS*%
%TO.N,Net-(U25-Pad10)*%
X206495000Y-179085000D03*
%TO.P,U26,15,EO*%
%TO.N,unconnected-(U26-Pad15)*%
X206495000Y-176545000D03*
%TO.P,U26,16,VCC*%
%TO.N,VCC*%
X206495000Y-174005000D03*
%TD*%
D11*
%TO.P,R3,1*%
%TO.N,VCC*%
X325120000Y-106680000D03*
D15*
%TO.P,R3,2*%
%TO.N,/BUSRQ*%
X325120000Y-114300000D03*
%TD*%
D21*
%TO.P,U2,1,A14*%
%TO.N,/IO/A14*%
X233680000Y-97515000D03*
D22*
%TO.P,U2,2,A12*%
%TO.N,/IO/A12*%
X233680000Y-100055000D03*
%TO.P,U2,3,A7*%
%TO.N,/IO/A7*%
X233680000Y-102595000D03*
%TO.P,U2,4,A6*%
%TO.N,/IO/A6*%
X233680000Y-105135000D03*
%TO.P,U2,5,A5*%
%TO.N,/IO/A5*%
X233680000Y-107675000D03*
%TO.P,U2,6,A4*%
%TO.N,/IO/A4*%
X233680000Y-110215000D03*
%TO.P,U2,7,A3*%
%TO.N,/IO/A3*%
X233680000Y-112755000D03*
%TO.P,U2,8,A2*%
%TO.N,/IO/A2*%
X233680000Y-115295000D03*
%TO.P,U2,9,A1*%
%TO.N,/IO/A1*%
X233680000Y-117835000D03*
%TO.P,U2,10,A0*%
%TO.N,/IO/A0*%
X233680000Y-120375000D03*
%TO.P,U2,11,I/O1*%
%TO.N,/BUS Expansion/D0*%
X233680000Y-122915000D03*
%TO.P,U2,12,I/O2*%
%TO.N,/BUS Expansion/D1*%
X233680000Y-125455000D03*
%TO.P,U2,13,I/O3*%
%TO.N,/BUS Expansion/D2*%
X233680000Y-127995000D03*
%TO.P,U2,14,GND*%
%TO.N,GND*%
X233680000Y-130535000D03*
%TO.P,U2,15,I/O4*%
%TO.N,/BUS Expansion/D3*%
X248920000Y-130535000D03*
%TO.P,U2,16,I/O5*%
%TO.N,/BUS Expansion/D4*%
X248920000Y-127995000D03*
%TO.P,U2,17,I/O6*%
%TO.N,/BUS Expansion/D5*%
X248920000Y-125455000D03*
%TO.P,U2,18,I/O7*%
%TO.N,/BUS Expansion/D6*%
X248920000Y-122915000D03*
%TO.P,U2,19,I/O8*%
%TO.N,/BUS Expansion/D7*%
X248920000Y-120375000D03*
%TO.P,U2,20,/CE*%
%TO.N,/RAM_CE*%
X248920000Y-117835000D03*
%TO.P,U2,21,A10*%
%TO.N,/IO/A10*%
X248920000Y-115295000D03*
%TO.P,U2,22,/OE*%
%TO.N,/RD*%
X248920000Y-112755000D03*
%TO.P,U2,23,A11*%
%TO.N,/IO/A11*%
X248920000Y-110215000D03*
%TO.P,U2,24,A9*%
%TO.N,/IO/A9*%
X248920000Y-107675000D03*
%TO.P,U2,25,A8*%
%TO.N,/IO/A8*%
X248920000Y-105135000D03*
%TO.P,U2,26,A13*%
%TO.N,/IO/A13*%
X248920000Y-102595000D03*
%TO.P,U2,27,R/W*%
%TO.N,/WR*%
X248920000Y-100055000D03*
%TO.P,U2,28,VDD*%
%TO.N,VCC*%
X248920000Y-97515000D03*
%TD*%
D11*
%TO.P,C30,1*%
%TO.N,Net-(C30-Pad1)*%
X31195000Y-86360000D03*
%TO.P,C30,2*%
%TO.N,GND*%
X36195000Y-86360000D03*
%TD*%
%TO.P,C31,1*%
%TO.N,Net-(C31-Pad1)*%
X17860000Y-86360000D03*
%TO.P,C31,2*%
%TO.N,Net-(C30-Pad1)*%
X22860000Y-86360000D03*
%TD*%
D19*
%TO.P,D6,1,K*%
%TO.N,GND*%
X402590000Y-98425000D03*
D20*
%TO.P,D6,2,A*%
%TO.N,Net-(D6-Pad2)*%
X400050000Y-98425000D03*
%TD*%
D11*
%TO.P,C34,1*%
%TO.N,Net-(C34-Pad1)*%
X354955000Y-62175564D03*
%TO.P,C34,2*%
%TO.N,GND*%
X354955000Y-57175564D03*
%TD*%
D21*
%TO.P,U20,1*%
%TO.N,Net-(U20-Pad1)*%
X46990000Y-173975000D03*
D22*
%TO.P,U20,2*%
%TO.N,/IO/A0*%
X46990000Y-176515000D03*
%TO.P,U20,3*%
%TO.N,/PSG_CE*%
X46990000Y-179055000D03*
%TO.P,U20,4*%
%TO.N,Net-(U20-Pad4)*%
X46990000Y-181595000D03*
%TO.P,U20,5*%
%TO.N,/PSG_CE*%
X46990000Y-184135000D03*
%TO.P,U20,6*%
%TO.N,/WR*%
X46990000Y-186675000D03*
%TO.P,U20,7,GND*%
%TO.N,GND*%
X46990000Y-189215000D03*
%TO.P,U20,8*%
%TO.N,N/C*%
X54610000Y-189215000D03*
%TO.P,U20,9*%
X54610000Y-186675000D03*
%TO.P,U20,10*%
X54610000Y-184135000D03*
%TO.P,U20,11*%
X54610000Y-181595000D03*
%TO.P,U20,12*%
X54610000Y-179055000D03*
%TO.P,U20,13*%
X54610000Y-176515000D03*
%TO.P,U20,14,VCC*%
%TO.N,VCC*%
X54610000Y-173975000D03*
%TD*%
D11*
%TO.P,R29,1*%
%TO.N,Net-(C48-Pad1)*%
X222250000Y-72390000D03*
D15*
%TO.P,R29,2*%
%TO.N,Net-(R29-Pad2)*%
X214630000Y-72390000D03*
%TD*%
D11*
%TO.P,C3,1*%
%TO.N,GND*%
X266700000Y-92430000D03*
%TO.P,C3,2*%
%TO.N,VCC*%
X271700000Y-92430000D03*
%TD*%
D21*
%TO.P,U3,1,A14*%
%TO.N,/IO/A14*%
X256540000Y-97515000D03*
D22*
%TO.P,U3,2,A12*%
%TO.N,/IO/A12*%
X256540000Y-100055000D03*
%TO.P,U3,3,A7*%
%TO.N,/IO/A7*%
X256540000Y-102595000D03*
%TO.P,U3,4,A6*%
%TO.N,/IO/A6*%
X256540000Y-105135000D03*
%TO.P,U3,5,A5*%
%TO.N,/IO/A5*%
X256540000Y-107675000D03*
%TO.P,U3,6,A4*%
%TO.N,/IO/A4*%
X256540000Y-110215000D03*
%TO.P,U3,7,A3*%
%TO.N,/IO/A3*%
X256540000Y-112755000D03*
%TO.P,U3,8,A2*%
%TO.N,/IO/A2*%
X256540000Y-115295000D03*
%TO.P,U3,9,A1*%
%TO.N,/IO/A1*%
X256540000Y-117835000D03*
%TO.P,U3,10,A0*%
%TO.N,/IO/A0*%
X256540000Y-120375000D03*
%TO.P,U3,11,D0*%
%TO.N,/BUS Expansion/D0*%
X256540000Y-122915000D03*
%TO.P,U3,12,D1*%
%TO.N,/BUS Expansion/D1*%
X256540000Y-125455000D03*
%TO.P,U3,13,D2*%
%TO.N,/BUS Expansion/D2*%
X256540000Y-127995000D03*
%TO.P,U3,14,GND*%
%TO.N,GND*%
X256540000Y-130535000D03*
%TO.P,U3,15,D3*%
%TO.N,/BUS Expansion/D3*%
X271780000Y-130535000D03*
%TO.P,U3,16,D4*%
%TO.N,/BUS Expansion/D4*%
X271780000Y-127995000D03*
%TO.P,U3,17,D5*%
%TO.N,/BUS Expansion/D5*%
X271780000Y-125455000D03*
%TO.P,U3,18,D6*%
%TO.N,/BUS Expansion/D6*%
X271780000Y-122915000D03*
%TO.P,U3,19,D7*%
%TO.N,/BUS Expansion/D7*%
X271780000Y-120375000D03*
%TO.P,U3,20,~{CS}*%
%TO.N,/ROM_CE*%
X271780000Y-117835000D03*
%TO.P,U3,21,A10*%
%TO.N,/IO/A10*%
X271780000Y-115295000D03*
%TO.P,U3,22,~{OE}*%
%TO.N,/RD*%
X271780000Y-112755000D03*
%TO.P,U3,23,A11*%
%TO.N,/IO/A11*%
X271780000Y-110215000D03*
%TO.P,U3,24,A9*%
%TO.N,/IO/A9*%
X271780000Y-107675000D03*
%TO.P,U3,25,A8*%
%TO.N,/IO/A8*%
X271780000Y-105135000D03*
%TO.P,U3,26,A13*%
%TO.N,/IO/A13*%
X271780000Y-102595000D03*
%TO.P,U3,27,~{WE}*%
%TO.N,VCC*%
X271780000Y-100055000D03*
%TO.P,U3,28,VCC*%
X271780000Y-97515000D03*
%TD*%
D25*
%TO.P,U4,1,PA3*%
%TO.N,Net-(R7-Pad1)*%
X104185000Y-78785000D03*
D15*
%TO.P,U4,2,PA2*%
%TO.N,Net-(R6-Pad1)*%
X106725000Y-78785000D03*
%TO.P,U4,3,PA1*%
%TO.N,Net-(R5-Pad1)*%
X109265000Y-78785000D03*
%TO.P,U4,4,PA0*%
%TO.N,Net-(R4-Pad1)*%
X111805000Y-78785000D03*
%TO.P,U4,5,~{RD}*%
%TO.N,/RD*%
X114345000Y-78785000D03*
%TO.P,U4,6,~{CS}*%
%TO.N,/PPI_CE*%
X116885000Y-78785000D03*
%TO.P,U4,7,GND*%
%TO.N,GND*%
X119425000Y-78785000D03*
%TO.P,U4,8,A1*%
%TO.N,/IO/A1*%
X121965000Y-78785000D03*
%TO.P,U4,9,A0*%
%TO.N,/IO/A0*%
X124505000Y-78785000D03*
%TO.P,U4,10,PC7*%
%TO.N,/IO/Casette Interface/PC7*%
X127045000Y-78785000D03*
%TO.P,U4,11,PC6*%
%TO.N,/IO/Casette Interface/PC6*%
X129585000Y-78785000D03*
%TO.P,U4,12,PC5*%
%TO.N,/IO/Casette Interface/PC5*%
X132125000Y-78785000D03*
%TO.P,U4,13,PC4*%
%TO.N,/IO/Casette Interface/PC4*%
X134665000Y-78785000D03*
%TO.P,U4,14,PC0*%
%TO.N,/IO/PC0*%
X137205000Y-78785000D03*
%TO.P,U4,15,PC1*%
%TO.N,/IO/PC1*%
X139745000Y-78785000D03*
%TO.P,U4,16,PC2*%
%TO.N,/IO/Casette Interface/PC2*%
X142285000Y-78785000D03*
%TO.P,U4,17,PC3*%
%TO.N,/IO/Casette Interface/PC3*%
X144825000Y-78785000D03*
%TO.P,U4,18,PB0*%
%TO.N,/IO/PB0*%
X147365000Y-78785000D03*
%TO.P,U4,19,PB1*%
%TO.N,/IO/PB1*%
X149905000Y-78785000D03*
%TO.P,U4,20,PB2*%
%TO.N,/IO/PB2*%
X152445000Y-78785000D03*
%TO.P,U4,21,PB3*%
%TO.N,/IO/PB3*%
X152445000Y-63545000D03*
%TO.P,U4,22,PB4*%
%TO.N,/IO/PB4*%
X149905000Y-63545000D03*
%TO.P,U4,23,PB5*%
%TO.N,/IO/PB5*%
X147365000Y-63545000D03*
%TO.P,U4,24,PB6*%
%TO.N,/IO/PB6*%
X144825000Y-63545000D03*
%TO.P,U4,25,PB7*%
%TO.N,/IO/PB7*%
X142285000Y-63545000D03*
%TO.P,U4,26,VCC*%
%TO.N,VCC*%
X139745000Y-63545000D03*
%TO.P,U4,27,D7*%
%TO.N,/BUS Expansion/D7*%
X137205000Y-63545000D03*
%TO.P,U4,28,D6*%
%TO.N,/BUS Expansion/D6*%
X134665000Y-63545000D03*
%TO.P,U4,29,D5*%
%TO.N,/BUS Expansion/D5*%
X132125000Y-63545000D03*
%TO.P,U4,30,D4*%
%TO.N,/BUS Expansion/D4*%
X129585000Y-63545000D03*
%TO.P,U4,31,D3*%
%TO.N,/BUS Expansion/D3*%
X127045000Y-63545000D03*
%TO.P,U4,32,D2*%
%TO.N,/BUS Expansion/D2*%
X124505000Y-63545000D03*
%TO.P,U4,33,D1*%
%TO.N,/BUS Expansion/D1*%
X121965000Y-63545000D03*
%TO.P,U4,34,D0*%
%TO.N,/BUS Expansion/D0*%
X119425000Y-63545000D03*
%TO.P,U4,35,RESET*%
%TO.N,/RESET_IO*%
X116885000Y-63545000D03*
%TO.P,U4,36,~{WR}*%
%TO.N,/WR*%
X114345000Y-63545000D03*
%TO.P,U4,37,PA7*%
%TO.N,/IO/PA7*%
X111805000Y-63545000D03*
%TO.P,U4,38,PA6*%
%TO.N,/IO/PA6*%
X109265000Y-63545000D03*
%TO.P,U4,39,PA5*%
%TO.N,/IO/PA5*%
X106725000Y-63545000D03*
%TO.P,U4,40,PA4*%
%TO.N,/IO/PA4*%
X104185000Y-63545000D03*
%TD*%
D19*
%TO.P,D3,1,K*%
%TO.N,Net-(D3-Pad1)*%
X380365000Y-67945000D03*
D26*
%TO.P,D3,2,A*%
%TO.N,Net-(C44-Pad1)*%
X372745000Y-67945000D03*
%TD*%
D21*
%TO.P,U13,1*%
%TO.N,/IO/A8*%
X253350000Y-174090000D03*
D22*
%TO.P,U13,2*%
X253350000Y-176630000D03*
%TO.P,U13,3*%
%TO.N,Net-(JP4-Pad3)*%
X253350000Y-179170000D03*
%TO.P,U13,4*%
%TO.N,/{slash}RESET*%
X253350000Y-181710000D03*
%TO.P,U13,5*%
X253350000Y-184250000D03*
%TO.P,U13,6*%
%TO.N,/MR*%
X253350000Y-186790000D03*
%TO.P,U13,7,GND*%
%TO.N,GND*%
X253350000Y-189330000D03*
%TO.P,U13,8*%
%TO.N,Net-(U13-Pad8)*%
X260970000Y-189330000D03*
%TO.P,U13,9*%
%TO.N,/RD*%
X260970000Y-186790000D03*
%TO.P,U13,10*%
X260970000Y-184250000D03*
%TO.P,U13,11*%
%TO.N,/UART_INT*%
X260970000Y-181710000D03*
%TO.P,U13,12*%
%TO.N,Net-(U13-Pad12)*%
X260970000Y-179170000D03*
%TO.P,U13,13*%
X260970000Y-176630000D03*
%TO.P,U13,14,VCC*%
%TO.N,VCC*%
X260970000Y-174090000D03*
%TD*%
D11*
%TO.P,R24,1*%
%TO.N,Net-(Q4-Pad2)*%
X288290000Y-73025000D03*
D15*
%TO.P,R24,2*%
%TO.N,/IO/PA7*%
X280670000Y-73025000D03*
%TD*%
D11*
%TO.P,C23,1*%
%TO.N,GND*%
X131445000Y-120650000D03*
%TO.P,C23,2*%
%TO.N,VCC*%
X131445000Y-115650000D03*
%TD*%
D10*
%TO.P,,4*%
%TO.N,GND*%
X101600000Y-53340000D03*
%TD*%
D21*
%TO.P,U19,1*%
%TO.N,/IO/PA6*%
X259715000Y-66040000D03*
D22*
%TO.P,U19,2,-*%
%TO.N,Net-(R35-Pad1)*%
X259715000Y-68580000D03*
%TO.P,U19,3,+*%
%TO.N,Net-(R38-Pad1)*%
X259715000Y-71120000D03*
%TO.P,U19,4,V-*%
%TO.N,VCC*%
X259715000Y-73660000D03*
%TO.P,U19,5*%
%TO.N,N/C*%
X267335000Y-73660000D03*
%TO.P,U19,6*%
X267335000Y-71120000D03*
%TO.P,U19,7*%
X267335000Y-68580000D03*
%TO.P,U19,8,V+*%
%TO.N,GND*%
X267335000Y-66040000D03*
%TD*%
D13*
%TO.P,JP2,1,A*%
%TO.N,Net-(C7-Pad2)*%
X367045000Y-152400000D03*
D14*
%TO.P,JP2,2,C*%
%TO.N,VCC*%
X369585000Y-152400000D03*
%TO.P,JP2,3,B*%
%TO.N,Net-(FB1-Pad2)*%
X372125000Y-152400000D03*
%TD*%
D11*
%TO.P,R36,1*%
%TO.N,Net-(R35-Pad1)*%
X248285000Y-66030000D03*
D15*
%TO.P,R36,2*%
%TO.N,VCC*%
X248285000Y-73650000D03*
%TD*%
D11*
%TO.P,R8,1*%
%TO.N,Net-(D1-Pad2)*%
X171450000Y-39370000D03*
D15*
%TO.P,R8,2*%
%TO.N,/IO/PC1*%
X171450000Y-46990000D03*
%TD*%
D11*
%TO.P,C29,1*%
%TO.N,VCC*%
X54610000Y-98425000D03*
%TO.P,C29,2*%
%TO.N,GND*%
X49610000Y-98425000D03*
%TD*%
D27*
%TO.P,Y2,1,1*%
%TO.N,Net-(C16-Pad2)*%
X114875000Y-104050000D03*
%TO.P,Y2,2,2*%
%TO.N,Net-(C17-Pad2)*%
X114875000Y-99150000D03*
%TD*%
D10*
%TO.P,,1*%
%TO.N,GND*%
X21590000Y-53340000D03*
%TD*%
D11*
%TO.P,C27,1*%
%TO.N,VCC*%
X274965000Y-170190000D03*
%TO.P,C27,2*%
%TO.N,GND*%
X269965000Y-170190000D03*
%TD*%
%TO.P,R32,1*%
%TO.N,Net-(C49-Pad1)*%
X194310000Y-38735000D03*
D15*
%TO.P,R32,2*%
%TO.N,Net-(C48-Pad1)*%
X186690000Y-38735000D03*
%TD*%
D28*
%TO.P,U9,1,OE*%
%TO.N,GND*%
X135255000Y-123290000D03*
D29*
%TO.P,U9,2,D0*%
%TO.N,/VIDEO/AD0*%
X137795000Y-123290000D03*
%TO.P,U9,3,D1*%
%TO.N,/VIDEO/AD1*%
X140335000Y-123290000D03*
%TO.P,U9,4,D2*%
%TO.N,/VIDEO/AD2*%
X142875000Y-123290000D03*
%TO.P,U9,5,D3*%
%TO.N,/VIDEO/AD3*%
X145415000Y-123290000D03*
%TO.P,U9,6,D4*%
%TO.N,/VIDEO/AD4*%
X147955000Y-123290000D03*
%TO.P,U9,7,D5*%
%TO.N,/VIDEO/AD5*%
X150495000Y-123290000D03*
%TO.P,U9,8,D6*%
%TO.N,/VIDEO/AD6*%
X153035000Y-123290000D03*
%TO.P,U9,9,D7*%
%TO.N,/VIDEO/AD7*%
X155575000Y-123290000D03*
%TO.P,U9,10,GND*%
%TO.N,GND*%
X158115000Y-123290000D03*
%TO.P,U9,11,Cp*%
%TO.N,Net-(U17-Pad6)*%
X158115000Y-115670000D03*
%TO.P,U9,12,Q7*%
%TO.N,/VIDEO/VA13*%
X155575000Y-115670000D03*
%TO.P,U9,13,Q6*%
%TO.N,/VIDEO/VA12*%
X153035000Y-115670000D03*
%TO.P,U9,14,Q5*%
%TO.N,/VIDEO/VA11*%
X150495000Y-115670000D03*
%TO.P,U9,15,Q4*%
%TO.N,/VIDEO/VA10*%
X147955000Y-115670000D03*
%TO.P,U9,16,Q3*%
%TO.N,/VIDEO/VA9*%
X145415000Y-115670000D03*
%TO.P,U9,17,Q2*%
%TO.N,/VIDEO/VA8*%
X142875000Y-115670000D03*
%TO.P,U9,18,Q1*%
%TO.N,/VIDEO/VA7*%
X140335000Y-115670000D03*
%TO.P,U9,19,Q0*%
%TO.N,unconnected-(U9-Pad19)*%
X137795000Y-115670000D03*
%TO.P,U9,20,VCC*%
%TO.N,VCC*%
X135255000Y-115670000D03*
%TD*%
D28*
%TO.P,U8,1,OE*%
%TO.N,GND*%
X135260000Y-108040000D03*
D29*
%TO.P,U8,2,D0*%
%TO.N,/VIDEO/AD0*%
X137800000Y-108040000D03*
%TO.P,U8,3,D1*%
%TO.N,/VIDEO/AD1*%
X140340000Y-108040000D03*
%TO.P,U8,4,D2*%
%TO.N,/VIDEO/AD2*%
X142880000Y-108040000D03*
%TO.P,U8,5,D3*%
%TO.N,/VIDEO/AD3*%
X145420000Y-108040000D03*
%TO.P,U8,6,D4*%
%TO.N,/VIDEO/AD4*%
X147960000Y-108040000D03*
%TO.P,U8,7,D5*%
%TO.N,/VIDEO/AD5*%
X150500000Y-108040000D03*
%TO.P,U8,8,D6*%
%TO.N,/VIDEO/AD6*%
X153040000Y-108040000D03*
%TO.P,U8,9,D7*%
%TO.N,/VIDEO/AD7*%
X155580000Y-108040000D03*
%TO.P,U8,10,GND*%
%TO.N,GND*%
X158120000Y-108040000D03*
%TO.P,U8,11,Cp*%
%TO.N,Net-(U17-Pad2)*%
X158120000Y-100420000D03*
%TO.P,U8,12,Q7*%
%TO.N,/VIDEO/VA6*%
X155580000Y-100420000D03*
%TO.P,U8,13,Q6*%
%TO.N,/VIDEO/VA5*%
X153040000Y-100420000D03*
%TO.P,U8,14,Q5*%
%TO.N,/VIDEO/VA4*%
X150500000Y-100420000D03*
%TO.P,U8,15,Q4*%
%TO.N,/VIDEO/VA3*%
X147960000Y-100420000D03*
%TO.P,U8,16,Q3*%
%TO.N,/VIDEO/VA2*%
X145420000Y-100420000D03*
%TO.P,U8,17,Q2*%
%TO.N,/VIDEO/VA1*%
X142880000Y-100420000D03*
%TO.P,U8,18,Q1*%
%TO.N,/VIDEO/VA0*%
X140340000Y-100420000D03*
%TO.P,U8,19,Q0*%
%TO.N,unconnected-(U8-Pad19)*%
X137800000Y-100420000D03*
%TO.P,U8,20,VCC*%
%TO.N,VCC*%
X135260000Y-100420000D03*
%TD*%
D11*
%TO.P,R28,1*%
%TO.N,Net-(C48-Pad1)*%
X222250000Y-77470000D03*
D15*
%TO.P,R28,2*%
%TO.N,Net-(R28-Pad2)*%
X214630000Y-77470000D03*
%TD*%
D11*
%TO.P,R35,1*%
%TO.N,Net-(R35-Pad1)*%
X252095000Y-73650000D03*
D15*
%TO.P,R35,2*%
%TO.N,/IO/PA6*%
X252095000Y-66030000D03*
%TD*%
D25*
%TO.P,U27,1*%
%TO.N,/WR*%
X286425000Y-173990000D03*
D15*
%TO.P,U27,2*%
X286425000Y-176530000D03*
%TO.P,U27,3*%
%TO.N,Net-(U27-Pad13)*%
X286425000Y-179070000D03*
%TO.P,U27,4*%
%TO.N,/IORQ*%
X286425000Y-181610000D03*
%TO.P,U27,5*%
X286425000Y-184150000D03*
%TO.P,U27,6*%
%TO.N,Net-(U27-Pad10)*%
X286425000Y-186690000D03*
%TO.P,U27,7,GND*%
%TO.N,GND*%
X286425000Y-189230000D03*
%TO.P,U27,8*%
%TO.N,/IORD*%
X294045000Y-189230000D03*
%TO.P,U27,9*%
%TO.N,Net-(U13-Pad8)*%
X294045000Y-186690000D03*
%TO.P,U27,10*%
%TO.N,Net-(U27-Pad10)*%
X294045000Y-184150000D03*
%TO.P,U27,11*%
%TO.N,/IOWR*%
X294045000Y-181610000D03*
%TO.P,U27,12*%
%TO.N,Net-(U27-Pad10)*%
X294045000Y-179070000D03*
%TO.P,U27,13*%
%TO.N,Net-(U27-Pad13)*%
X294045000Y-176530000D03*
%TO.P,U27,14,VCC*%
%TO.N,VCC*%
X294045000Y-173990000D03*
%TD*%
D13*
%TO.P,SPEAKER1,1,Pin_1*%
%TO.N,GND*%
X24130000Y-67310000D03*
D14*
%TO.P,SPEAKER1,2,Pin_2*%
%TO.N,Net-(C43-Pad2)*%
X21590000Y-67310000D03*
%TD*%
D25*
%TO.P,C42,1*%
%TO.N,VCC*%
X27940000Y-102775000D03*
D11*
%TO.P,C42,2*%
%TO.N,GND*%
X27940000Y-104775000D03*
%TD*%
%TO.P,R33,1*%
%TO.N,GND*%
X186690000Y-41910000D03*
D15*
%TO.P,R33,2*%
%TO.N,Net-(C49-Pad1)*%
X194310000Y-41910000D03*
%TD*%
D11*
%TO.P,R10,1*%
%TO.N,Net-(R10-Pad1)*%
X364202500Y-135990000D03*
D15*
%TO.P,R10,2*%
%TO.N,Net-(C8-Pad1)*%
X371822500Y-135990000D03*
%TD*%
D11*
%TO.P,R37,1*%
%TO.N,GND*%
X267335000Y-61585000D03*
D15*
%TO.P,R37,2*%
%TO.N,Net-(R35-Pad1)*%
X259715000Y-61585000D03*
%TD*%
D11*
%TO.P,R12,1*%
%TO.N,GND*%
X31115000Y-99060000D03*
D15*
%TO.P,R12,2*%
%TO.N,Net-(R12-Pad2)*%
X41275000Y-99060000D03*
%TD*%
D21*
%TO.P,U12,1*%
%TO.N,Net-(U12-Pad1)*%
X310515000Y-48895000D03*
D22*
%TO.P,U12,2*%
X310515000Y-51435000D03*
%TO.P,U12,3*%
%TO.N,/{slash}RESET*%
X310515000Y-53975000D03*
%TO.P,U12,4*%
X310515000Y-56515000D03*
%TO.P,U12,5*%
X310515000Y-59055000D03*
%TO.P,U12,6*%
%TO.N,/RESET_IO*%
X310515000Y-61595000D03*
%TO.P,U12,7,GND*%
%TO.N,GND*%
X310515000Y-64135000D03*
%TO.P,U12,8*%
%TO.N,N/C*%
X318135000Y-64135000D03*
%TO.P,U12,9*%
X318135000Y-61595000D03*
%TO.P,U12,10*%
X318135000Y-59055000D03*
%TO.P,U12,11*%
X318135000Y-56515000D03*
%TO.P,U12,12*%
X318135000Y-53975000D03*
%TO.P,U12,13*%
X318135000Y-51435000D03*
%TO.P,U12,14,VCC*%
%TO.N,VCC*%
X318135000Y-48895000D03*
%TD*%
D21*
%TO.P,U22,1,GAIN*%
%TO.N,unconnected-(U22-Pad1)*%
X17780000Y-91440000D03*
D22*
%TO.P,U22,2,-*%
%TO.N,GND*%
X17780000Y-93980000D03*
%TO.P,U22,3,+*%
%TO.N,Net-(C31-Pad1)*%
X17780000Y-96520000D03*
%TO.P,U22,4,GND*%
%TO.N,GND*%
X17780000Y-99060000D03*
%TO.P,U22,5*%
%TO.N,Net-(C33-Pad1)*%
X25400000Y-99060000D03*
%TO.P,U22,6,V+*%
%TO.N,VCC*%
X25400000Y-96520000D03*
%TO.P,U22,7,BYPASS*%
%TO.N,unconnected-(U22-Pad7)*%
X25400000Y-93980000D03*
%TO.P,U22,8,GAIN*%
%TO.N,unconnected-(U22-Pad8)*%
X25400000Y-91440000D03*
%TD*%
D11*
%TO.P,C26,1*%
%TO.N,GND*%
X118190000Y-170185000D03*
%TO.P,C26,2*%
%TO.N,VCC*%
X123190000Y-170185000D03*
%TD*%
D25*
%TO.P,C54,1*%
%TO.N,VCC*%
X382280000Y-75565000D03*
D11*
%TO.P,C54,2*%
%TO.N,GND*%
X386080000Y-75565000D03*
%TD*%
%TO.P,R11,1*%
%TO.N,VCC*%
X386080000Y-98425000D03*
D15*
%TO.P,R11,2*%
%TO.N,Net-(D6-Pad2)*%
X396240000Y-98425000D03*
%TD*%
D11*
%TO.P,C35,1*%
%TO.N,VCC*%
X325785000Y-62215564D03*
%TO.P,C35,2*%
%TO.N,GND*%
X330785000Y-62215564D03*
%TD*%
%TO.P,C51,1*%
%TO.N,GND*%
X236855000Y-62855000D03*
%TO.P,C51,2*%
%TO.N,Net-(C51-Pad2)*%
X241855000Y-62855000D03*
%TD*%
%TO.P,R7,1*%
%TO.N,Net-(R7-Pad1)*%
X94615000Y-64135000D03*
D15*
%TO.P,R7,2*%
%TO.N,GND*%
X86995000Y-64135000D03*
%TD*%
D11*
%TO.P,R43,1*%
%TO.N,Net-(D11-Pad1)*%
X396240000Y-104775000D03*
D15*
%TO.P,R43,2*%
%TO.N,Net-(J10-Pad39)*%
X386080000Y-104775000D03*
%TD*%
D13*
%TO.P,J4,1,Pin_1*%
%TO.N,VCC*%
X365760000Y-97755000D03*
D14*
%TO.P,J4,2,Pin_2*%
%TO.N,GND*%
X368300000Y-97755000D03*
%TO.P,J4,3,Pin_3*%
%TO.N,/DTR*%
X370840000Y-97755000D03*
%TO.P,J4,4,Pin_4*%
%TO.N,/TX*%
X373380000Y-97755000D03*
%TO.P,J4,5,Pin_5*%
%TO.N,/DSR*%
X375920000Y-97755000D03*
%TO.P,J4,6,Pin_6*%
%TO.N,/RX*%
X378460000Y-97755000D03*
%TD*%
D11*
%TO.P,R2,1*%
%TO.N,VCC*%
X320040000Y-106680000D03*
D15*
%TO.P,R2,2*%
%TO.N,/WAIT*%
X320040000Y-114300000D03*
%TD*%
D11*
%TO.P,R30,1*%
%TO.N,Net-(C48-Pad1)*%
X222250000Y-67310000D03*
D15*
%TO.P,R30,2*%
%TO.N,Net-(R30-Pad2)*%
X214630000Y-67310000D03*
%TD*%
D28*
%TO.P,U10,1,OE*%
%TO.N,Net-(U10-Pad1)*%
X135260000Y-138520000D03*
D29*
%TO.P,U10,2,D0*%
%TO.N,/VIDEO/AD0*%
X137800000Y-138520000D03*
%TO.P,U10,3,D1*%
%TO.N,/VIDEO/AD1*%
X140340000Y-138520000D03*
%TO.P,U10,4,D2*%
%TO.N,/VIDEO/AD2*%
X142880000Y-138520000D03*
%TO.P,U10,5,D3*%
%TO.N,/VIDEO/AD3*%
X145420000Y-138520000D03*
%TO.P,U10,6,D4*%
%TO.N,/VIDEO/AD4*%
X147960000Y-138520000D03*
%TO.P,U10,7,D5*%
%TO.N,/VIDEO/AD5*%
X150500000Y-138520000D03*
%TO.P,U10,8,D6*%
%TO.N,/VIDEO/AD6*%
X153040000Y-138520000D03*
%TO.P,U10,9,D7*%
%TO.N,/VIDEO/AD7*%
X155580000Y-138520000D03*
%TO.P,U10,10,GND*%
%TO.N,GND*%
X158120000Y-138520000D03*
%TO.P,U10,11,Cp*%
%TO.N,Net-(U10-Pad11)*%
X158120000Y-130900000D03*
%TO.P,U10,12,Q7*%
%TO.N,/VIDEO/VD7*%
X155580000Y-130900000D03*
%TO.P,U10,13,Q6*%
%TO.N,/VIDEO/VD6*%
X153040000Y-130900000D03*
%TO.P,U10,14,Q5*%
%TO.N,/VIDEO/VD5*%
X150500000Y-130900000D03*
%TO.P,U10,15,Q4*%
%TO.N,/VIDEO/VD4*%
X147960000Y-130900000D03*
%TO.P,U10,16,Q3*%
%TO.N,/VIDEO/VD3*%
X145420000Y-130900000D03*
%TO.P,U10,17,Q2*%
%TO.N,/VIDEO/VD2*%
X142880000Y-130900000D03*
%TO.P,U10,18,Q1*%
%TO.N,/VIDEO/VD1*%
X140340000Y-130900000D03*
%TO.P,U10,19,Q0*%
%TO.N,/VIDEO/VD0*%
X137800000Y-130900000D03*
%TO.P,U10,20,VCC*%
%TO.N,VCC*%
X135260000Y-130900000D03*
%TD*%
D10*
%TO.P,,4*%
%TO.N,GND*%
X193675000Y-52070000D03*
%TD*%
D11*
%TO.P,C17,1*%
%TO.N,GND*%
X124420000Y-99060000D03*
%TO.P,C17,2*%
%TO.N,Net-(C17-Pad2)*%
X119420000Y-99060000D03*
%TD*%
D13*
%TO.P,JP1,1,A*%
%TO.N,Net-(J1-Pad1)*%
X392430000Y-152400000D03*
D14*
%TO.P,JP1,2,B*%
%TO.N,Net-(C41-Pad1)*%
X389890000Y-152400000D03*
%TD*%
D21*
%TO.P,U18,1*%
%TO.N,/IO/Casette Interface/PC7*%
X203200000Y-62230000D03*
D22*
%TO.P,U18,2*%
%TO.N,Net-(R25-Pad2)*%
X203200000Y-64770000D03*
%TO.P,U18,3*%
%TO.N,/IO/Casette Interface/PC6*%
X203200000Y-67310000D03*
%TO.P,U18,4*%
%TO.N,Net-(R26-Pad2)*%
X203200000Y-69850000D03*
%TO.P,U18,5*%
%TO.N,/IO/Casette Interface/PC5*%
X203200000Y-72390000D03*
%TO.P,U18,6*%
%TO.N,Net-(R27-Pad2)*%
X203200000Y-74930000D03*
%TO.P,U18,7,GND*%
%TO.N,GND*%
X203200000Y-77470000D03*
%TO.P,U18,8*%
%TO.N,Net-(R28-Pad2)*%
X210820000Y-77470000D03*
%TO.P,U18,9*%
%TO.N,/IO/Casette Interface/PC4*%
X210820000Y-74930000D03*
%TO.P,U18,10*%
%TO.N,Net-(R29-Pad2)*%
X210820000Y-72390000D03*
%TO.P,U18,11*%
%TO.N,/IO/Casette Interface/PC3*%
X210820000Y-69850000D03*
%TO.P,U18,12*%
%TO.N,Net-(R30-Pad2)*%
X210820000Y-67310000D03*
%TO.P,U18,13*%
%TO.N,/IO/Casette Interface/PC2*%
X210820000Y-64770000D03*
%TO.P,U18,14,VCC*%
%TO.N,VCC*%
X210820000Y-62230000D03*
%TD*%
D30*
%TO.P,Q3,1,C*%
%TO.N,Net-(Q3-Pad1)*%
X338445000Y-48245564D03*
D31*
%TO.P,Q3,2,B*%
%TO.N,Net-(Q3-Pad2)*%
X338445000Y-49515564D03*
%TO.P,Q3,3,E*%
%TO.N,GND*%
X338445000Y-50785564D03*
%TD*%
D21*
%TO.P,U17,1*%
%TO.N,/VIDEO/{slash}RAS*%
X149865000Y-173990000D03*
D22*
%TO.P,U17,2*%
%TO.N,Net-(U17-Pad2)*%
X149865000Y-176530000D03*
%TO.P,U17,3*%
%TO.N,Net-(U17-Pad3)*%
X149865000Y-179070000D03*
%TO.P,U17,4*%
%TO.N,Net-(U17-Pad4)*%
X149865000Y-181610000D03*
%TO.P,U17,5*%
X149865000Y-184150000D03*
%TO.P,U17,6*%
%TO.N,Net-(U17-Pad6)*%
X149865000Y-186690000D03*
%TO.P,U17,7,GND*%
%TO.N,GND*%
X149865000Y-189230000D03*
%TO.P,U17,8*%
%TO.N,Net-(U17-Pad3)*%
X157485000Y-189230000D03*
%TO.P,U17,9*%
%TO.N,/VIDEO/{slash}CAS*%
X157485000Y-186690000D03*
%TO.P,U17,10*%
%TO.N,Net-(U10-Pad11)*%
X157485000Y-184150000D03*
%TO.P,U17,11*%
%TO.N,Net-(U10-Pad1)*%
X157485000Y-181610000D03*
%TO.P,U17,12*%
%TO.N,N/C*%
X157485000Y-179070000D03*
%TO.P,U17,13*%
X157485000Y-176530000D03*
%TO.P,U17,14,VCC*%
%TO.N,VCC*%
X157485000Y-173990000D03*
%TD*%
D25*
%TO.P,U5,1,D0*%
%TO.N,/BUS Expansion/D0*%
X343530000Y-97760000D03*
D15*
%TO.P,U5,2,D1*%
%TO.N,/BUS Expansion/D1*%
X343530000Y-100300000D03*
%TO.P,U5,3,D2*%
%TO.N,/BUS Expansion/D2*%
X343530000Y-102840000D03*
%TO.P,U5,4,D3*%
%TO.N,/BUS Expansion/D3*%
X343530000Y-105380000D03*
%TO.P,U5,5,D4*%
%TO.N,/BUS Expansion/D4*%
X343530000Y-107920000D03*
%TO.P,U5,6,D5*%
%TO.N,/BUS Expansion/D5*%
X343530000Y-110460000D03*
%TO.P,U5,7,D6*%
%TO.N,/BUS Expansion/D6*%
X343530000Y-113000000D03*
%TO.P,U5,8,D7*%
%TO.N,/BUS Expansion/D7*%
X343530000Y-115540000D03*
%TO.P,U5,9,RCLK*%
%TO.N,Net-(U5-Pad15)*%
X343530000Y-118080000D03*
%TO.P,U5,10,SIN*%
%TO.N,/RX*%
X343530000Y-120620000D03*
%TO.P,U5,11,SOUT*%
%TO.N,/TX*%
X343530000Y-123160000D03*
%TO.P,U5,12,CS0*%
%TO.N,VCC*%
X343530000Y-125700000D03*
%TO.P,U5,13,CS1*%
X343530000Y-128240000D03*
%TO.P,U5,14,~{CS2}*%
%TO.N,/UART_CE*%
X343530000Y-130780000D03*
%TO.P,U5,15,~{BAUDOUT}*%
%TO.N,Net-(U5-Pad15)*%
X343530000Y-133320000D03*
%TO.P,U5,16,XIN*%
%TO.N,/XTAL*%
X343530000Y-135860000D03*
%TO.P,U5,17,XOUT*%
%TO.N,unconnected-(U5-Pad17)*%
X343530000Y-138400000D03*
%TO.P,U5,18,~{WR}*%
%TO.N,/WR*%
X343530000Y-140940000D03*
%TO.P,U5,19,WR*%
%TO.N,GND*%
X343530000Y-143480000D03*
%TO.P,U5,20,GND*%
X343530000Y-146020000D03*
%TO.P,U5,21,~{RD}*%
%TO.N,/RD*%
X358770000Y-146020000D03*
%TO.P,U5,22,RD*%
%TO.N,GND*%
X358770000Y-143480000D03*
%TO.P,U5,23,DDIS*%
%TO.N,unconnected-(U5-Pad23)*%
X358770000Y-140940000D03*
%TO.P,U5,24,~{TXRDY}*%
%TO.N,unconnected-(U5-Pad24)*%
X358770000Y-138400000D03*
%TO.P,U5,25,~{ADS}*%
%TO.N,GND*%
X358770000Y-135860000D03*
%TO.P,U5,26,A2*%
%TO.N,/IO/A2*%
X358770000Y-133320000D03*
%TO.P,U5,27,A1*%
%TO.N,/IO/A1*%
X358770000Y-130780000D03*
%TO.P,U5,28,A0*%
%TO.N,/IO/A0*%
X358770000Y-128240000D03*
%TO.P,U5,29,~{RXRDY}*%
%TO.N,unconnected-(U5-Pad29)*%
X358770000Y-125700000D03*
%TO.P,U5,30,INTR*%
%TO.N,Net-(U13-Pad12)*%
X358770000Y-123160000D03*
%TO.P,U5,31,~{OUT2}*%
%TO.N,unconnected-(U5-Pad31)*%
X358770000Y-120620000D03*
%TO.P,U5,32,~{RTS}*%
%TO.N,Net-(U5-Pad32)*%
X358770000Y-118080000D03*
%TO.P,U5,33,~{DTR}*%
%TO.N,/DTR*%
X358770000Y-115540000D03*
%TO.P,U5,34,~{OUT1}*%
%TO.N,unconnected-(U5-Pad34)*%
X358770000Y-113000000D03*
%TO.P,U5,35,MR*%
%TO.N,/RESET_IO*%
X358770000Y-110460000D03*
%TO.P,U5,36,~{CTS}*%
%TO.N,Net-(U5-Pad36)*%
X358770000Y-107920000D03*
%TO.P,U5,37,~{DSR}*%
%TO.N,/DSR*%
X358770000Y-105380000D03*
%TO.P,U5,38,~{DCD}*%
X358770000Y-102840000D03*
%TO.P,U5,39,~{RI}*%
%TO.N,VCC*%
X358770000Y-100300000D03*
%TO.P,U5,40,VCC*%
X358770000Y-97760000D03*
%TD*%
D11*
%TO.P,R13,1*%
%TO.N,Net-(C30-Pad1)*%
X31115000Y-95885000D03*
D15*
%TO.P,R13,2*%
%TO.N,Net-(R12-Pad2)*%
X41275000Y-95885000D03*
%TD*%
D21*
%TO.P,U24,1,D4*%
%TO.N,/BUS Expansion/D4*%
X195630000Y-97155000D03*
D22*
%TO.P,U24,2,D5*%
%TO.N,/BUS Expansion/D5*%
X195630000Y-99695000D03*
%TO.P,U24,3,D6*%
%TO.N,/BUS Expansion/D6*%
X195630000Y-102235000D03*
%TO.P,U24,4,D7*%
%TO.N,/BUS Expansion/D7*%
X195630000Y-104775000D03*
%TO.P,U24,5,GND*%
%TO.N,GND*%
X195630000Y-107315000D03*
%TO.P,U24,6,~{RD}*%
%TO.N,/RD*%
X195630000Y-109855000D03*
%TO.P,U24,7,ZC/TO0*%
%TO.N,Net-(J8-Pad6)*%
X195630000Y-112395000D03*
%TO.P,U24,8,ZC/TO1*%
%TO.N,Net-(J8-Pad4)*%
X195630000Y-114935000D03*
%TO.P,U24,9,ZC/TO2*%
%TO.N,Net-(J8-Pad2)*%
X195630000Y-117475000D03*
%TO.P,U24,10,~{IORQ}*%
%TO.N,/IORQ*%
X195630000Y-120015000D03*
%TO.P,U24,11,IEO*%
%TO.N,unconnected-(U24-Pad11)*%
X195630000Y-122555000D03*
%TO.P,U24,12,~{INT}*%
%TO.N,/CTC_INT*%
X195630000Y-125095000D03*
%TO.P,U24,13,IEI*%
%TO.N,Net-(R42-Pad1)*%
X195630000Y-127635000D03*
%TO.P,U24,14,~{M1}*%
%TO.N,/M1*%
X195630000Y-130175000D03*
%TO.P,U24,15,CLK*%
%TO.N,/XTAL*%
X210870000Y-130175000D03*
%TO.P,U24,16,~{CE}*%
%TO.N,/CTC_CE*%
X210870000Y-127635000D03*
%TO.P,U24,17,~{RES}*%
%TO.N,/{slash}RESET*%
X210870000Y-125095000D03*
%TO.P,U24,18,CS0*%
%TO.N,/IO/A0*%
X210870000Y-122555000D03*
%TO.P,U24,19,CS1*%
%TO.N,/IO/A1*%
X210870000Y-120015000D03*
%TO.P,U24,20,CK/TRG3*%
%TO.N,Net-(J8-Pad1)*%
X210870000Y-117475000D03*
%TO.P,U24,21,CK/TRG2*%
%TO.N,Net-(J8-Pad3)*%
X210870000Y-114935000D03*
%TO.P,U24,22,CK/TRG1*%
%TO.N,Net-(J8-Pad5)*%
X210870000Y-112395000D03*
%TO.P,U24,23,CK/TRG0*%
%TO.N,Net-(J8-Pad7)*%
X210870000Y-109855000D03*
%TO.P,U24,24,VDD*%
%TO.N,VCC*%
X210870000Y-107315000D03*
%TO.P,U24,25,D0*%
%TO.N,/BUS Expansion/D0*%
X210870000Y-104775000D03*
%TO.P,U24,26,D1*%
%TO.N,/BUS Expansion/D1*%
X210870000Y-102235000D03*
%TO.P,U24,27,D2*%
%TO.N,/BUS Expansion/D2*%
X210870000Y-99695000D03*
%TO.P,U24,28,D3*%
%TO.N,/BUS Expansion/D3*%
X210870000Y-97155000D03*
%TD*%
D25*
%TO.P,C41,1*%
%TO.N,Net-(C41-Pad1)*%
X386779888Y-144780000D03*
D11*
%TO.P,C41,2*%
%TO.N,GND*%
X389279888Y-144780000D03*
%TD*%
%TO.P,C46,1*%
%TO.N,VCC*%
X318125000Y-43820000D03*
%TO.P,C46,2*%
%TO.N,GND*%
X313125000Y-43820000D03*
%TD*%
D21*
%TO.P,U7,1,~{RAS}*%
%TO.N,/VIDEO/{slash}RAS*%
X94615000Y-99065000D03*
D22*
%TO.P,U7,2,~{CAS}*%
%TO.N,/VIDEO/{slash}CAS*%
X94615000Y-101605000D03*
%TO.P,U7,3,AD7*%
%TO.N,/VIDEO/AD7*%
X94615000Y-104145000D03*
%TO.P,U7,4,AD6*%
%TO.N,/VIDEO/AD6*%
X94615000Y-106685000D03*
%TO.P,U7,5,AD5*%
%TO.N,/VIDEO/AD5*%
X94615000Y-109225000D03*
%TO.P,U7,6,AD4*%
%TO.N,/VIDEO/AD4*%
X94615000Y-111765000D03*
%TO.P,U7,7,AD3*%
%TO.N,/VIDEO/AD3*%
X94615000Y-114305000D03*
%TO.P,U7,8,AD2*%
%TO.N,/VIDEO/AD2*%
X94615000Y-116845000D03*
%TO.P,U7,9,AD1*%
%TO.N,/VIDEO/AD1*%
X94615000Y-119385000D03*
%TO.P,U7,10,AD0*%
%TO.N,/VIDEO/AD0*%
X94615000Y-121925000D03*
%TO.P,U7,11,R/~{W}*%
%TO.N,Net-(U10-Pad1)*%
X94615000Y-124465000D03*
%TO.P,U7,12,VSS*%
%TO.N,GND*%
X94615000Y-127005000D03*
%TO.P,U7,13,MODE*%
%TO.N,/IO/A0*%
X94615000Y-129545000D03*
%TO.P,U7,14,~{CSW}*%
%TO.N,/VIDEO/{slash}CSW*%
X94615000Y-132085000D03*
%TO.P,U7,15,~{CSR}*%
%TO.N,/VIDEO/{slash}CSR*%
X94615000Y-134625000D03*
%TO.P,U7,16,~{INT}*%
%TO.N,/VDP_INT*%
X94615000Y-137165000D03*
%TO.P,U7,17,CD7*%
%TO.N,/BUS Expansion/D7*%
X94615000Y-139705000D03*
%TO.P,U7,18,CD6*%
%TO.N,/BUS Expansion/D6*%
X94615000Y-142245000D03*
%TO.P,U7,19,CD5*%
%TO.N,/BUS Expansion/D5*%
X94615000Y-144785000D03*
%TO.P,U7,20,CD4*%
%TO.N,/BUS Expansion/D4*%
X94615000Y-147325000D03*
%TO.P,U7,21,CD3*%
%TO.N,/BUS Expansion/D3*%
X109855000Y-147325000D03*
%TO.P,U7,22,CD2*%
%TO.N,/BUS Expansion/D2*%
X109855000Y-144785000D03*
%TO.P,U7,23,CD1*%
%TO.N,/BUS Expansion/D1*%
X109855000Y-142245000D03*
%TO.P,U7,24,CD0*%
%TO.N,/BUS Expansion/D0*%
X109855000Y-139705000D03*
%TO.P,U7,25,RD7*%
%TO.N,/VIDEO/VD7*%
X109855000Y-137165000D03*
%TO.P,U7,26,RD6*%
%TO.N,/VIDEO/VD6*%
X109855000Y-134625000D03*
%TO.P,U7,27,RD5*%
%TO.N,/VIDEO/VD5*%
X109855000Y-132085000D03*
%TO.P,U7,28,RD4*%
%TO.N,/VIDEO/VD4*%
X109855000Y-129545000D03*
%TO.P,U7,29,RD3*%
%TO.N,/VIDEO/VD3*%
X109855000Y-127005000D03*
%TO.P,U7,30,RD2*%
%TO.N,/VIDEO/VD2*%
X109855000Y-124465000D03*
%TO.P,U7,31,RD1*%
%TO.N,/VIDEO/VD1*%
X109855000Y-121925000D03*
%TO.P,U7,32,RD0*%
%TO.N,/VIDEO/VD0*%
X109855000Y-119385000D03*
%TO.P,U7,33,VCC*%
%TO.N,VCC*%
X109855000Y-116845000D03*
%TO.P,U7,34,~{RESET}/SYNC*%
%TO.N,/{slash}RESET*%
X109855000Y-114305000D03*
%TO.P,U7,35,EXTVDP*%
%TO.N,unconnected-(U7-Pad35)*%
X109855000Y-111765000D03*
%TO.P,U7,36,COMVID*%
%TO.N,Net-(Q2-Pad2)*%
X109855000Y-109225000D03*
%TO.P,U7,37,GROMCLK*%
%TO.N,unconnected-(U7-Pad37)*%
X109855000Y-106685000D03*
%TO.P,U7,38,CPUCLK*%
%TO.N,unconnected-(U7-Pad38)*%
X109855000Y-104145000D03*
%TO.P,U7,39,XTAL1*%
%TO.N,Net-(C16-Pad2)*%
X109855000Y-101605000D03*
%TO.P,U7,40,XTAL2*%
%TO.N,Net-(C17-Pad2)*%
X109855000Y-99065000D03*
%TD*%
D11*
%TO.P,C24,1*%
%TO.N,GND*%
X178475000Y-99060000D03*
%TO.P,C24,2*%
%TO.N,VCC*%
X183475000Y-99060000D03*
%TD*%
D19*
%TO.P,D11,1,K*%
%TO.N,Net-(D11-Pad1)*%
X400050000Y-104775000D03*
D20*
%TO.P,D11,2,A*%
%TO.N,VCC*%
X402590000Y-104775000D03*
%TD*%
D32*
%TO.P,J1,1,VBUS*%
%TO.N,Net-(J1-Pad1)*%
X394500000Y-129230000D03*
%TO.P,J1,2,D-*%
%TO.N,Net-(C12-Pad2)*%
X394500000Y-128430000D03*
%TO.P,J1,3,D+*%
%TO.N,Net-(C11-Pad2)*%
X394500000Y-127630000D03*
%TO.P,J1,4,ID*%
%TO.N,unconnected-(J1-Pad4)*%
X394500000Y-126830000D03*
%TO.P,J1,5,GND*%
%TO.N,GND*%
X394500000Y-126030000D03*
D33*
%TO.P,J1,6,Shield*%
%TO.N,Net-(C13-Pad1)*%
X400050000Y-132080000D03*
X394600000Y-123180000D03*
X394600000Y-132080000D03*
X400050000Y-123180000D03*
%TD*%
D11*
%TO.P,C20,1*%
%TO.N,VCC*%
X113705000Y-116840000D03*
%TO.P,C20,2*%
%TO.N,GND*%
X118705000Y-116840000D03*
%TD*%
%TO.P,R40,1*%
%TO.N,Net-(D10-Pad2)*%
X236855000Y-73650000D03*
D15*
%TO.P,R40,2*%
%TO.N,Net-(C51-Pad2)*%
X236855000Y-66030000D03*
%TD*%
D30*
%TO.P,Q4,1,C*%
%TO.N,Net-(D7-Pad1)*%
X293370000Y-71755000D03*
D31*
%TO.P,Q4,2,B*%
%TO.N,Net-(Q4-Pad2)*%
X293370000Y-73025000D03*
%TO.P,Q4,3,E*%
%TO.N,GND*%
X293370000Y-74295000D03*
%TD*%
D11*
%TO.P,C5,1*%
%TO.N,GND*%
X134660000Y-59055000D03*
%TO.P,C5,2*%
%TO.N,VCC*%
X139660000Y-59055000D03*
%TD*%
D34*
%TO.P,J6,1*%
%TO.N,/IO/Casette Interface/M1*%
X202050000Y-44910000D03*
%TO.P,J6,2*%
%TO.N,GND*%
X209550000Y-44910000D03*
%TO.P,J6,3*%
%TO.N,/IO/Casette Interface/M2*%
X217050000Y-44910000D03*
%TO.P,J6,4*%
%TO.N,Net-(C51-Pad2)*%
X204550000Y-47410000D03*
%TO.P,J6,5*%
%TO.N,Net-(C49-Pad1)*%
X214550000Y-47410000D03*
%TO.P,J6,6*%
%TO.N,N/C*%
X214550000Y-34910000D03*
X204550000Y-34910000D03*
%TD*%
D11*
%TO.P,R42,1*%
%TO.N,Net-(R42-Pad1)*%
X196850000Y-137110000D03*
D15*
%TO.P,R42,2*%
%TO.N,VCC*%
X207010000Y-137110000D03*
%TD*%
D11*
%TO.P,C2,1*%
%TO.N,GND*%
X243920000Y-92430000D03*
%TO.P,C2,2*%
%TO.N,VCC*%
X248920000Y-92430000D03*
%TD*%
%TO.P,C1,1*%
%TO.N,VCC*%
X288290000Y-123110000D03*
%TO.P,C1,2*%
%TO.N,GND*%
X288290000Y-118110000D03*
%TD*%
%TO.P,C39,1*%
%TO.N,VCC*%
X210820000Y-92710000D03*
%TO.P,C39,2*%
%TO.N,GND*%
X205820000Y-92710000D03*
%TD*%
D35*
%TO.P,JP5,1*%
%TO.N,Net-(D3-Pad1)*%
X389430000Y-55210000D03*
D36*
%TO.P,JP5,2*%
%TO.N,GND*%
X395230000Y-55210000D03*
D37*
%TO.P,JP5,3*%
X392430000Y-50410000D03*
%TD*%
D11*
%TO.P,C52,1*%
%TO.N,GND*%
X289005000Y-170180000D03*
%TO.P,C52,2*%
%TO.N,VCC*%
X294005000Y-170180000D03*
%TD*%
%TO.P,C47,1*%
%TO.N,/IO/Casette Interface/M2*%
X268357500Y-48265000D03*
%TO.P,C47,2*%
%TO.N,/IO/Casette Interface/M1*%
X268357500Y-43265000D03*
%TD*%
%TO.P,R39,1*%
%TO.N,Net-(R38-Pad1)*%
X240665000Y-66030000D03*
D15*
%TO.P,R39,2*%
%TO.N,Net-(D10-Pad2)*%
X240665000Y-73650000D03*
%TD*%
D11*
%TO.P,C48,1*%
%TO.N,Net-(C48-Pad1)*%
X191770000Y-45720000D03*
%TO.P,C48,2*%
%TO.N,GND*%
X186770000Y-45720000D03*
%TD*%
%TO.P,C22,1*%
%TO.N,GND*%
X131445000Y-135850000D03*
%TO.P,C22,2*%
%TO.N,VCC*%
X131445000Y-130850000D03*
%TD*%
D25*
%TO.P,C36,1*%
%TO.N,Net-(C36-Pad1)*%
X327015000Y-43820000D03*
D11*
%TO.P,C36,2*%
%TO.N,GND*%
X324515000Y-43820000D03*
%TD*%
%TO.P,C21,1*%
%TO.N,VCC*%
X131445000Y-100330000D03*
%TO.P,C21,2*%
%TO.N,GND*%
X131445000Y-105330000D03*
%TD*%
D21*
%TO.P,U21,1,VSS*%
%TO.N,GND*%
X39370000Y-108585000D03*
D22*
%TO.P,U21,2*%
%TO.N,N/C*%
X39370000Y-111125000D03*
%TO.P,U21,3,ACH_B*%
%TO.N,Net-(R12-Pad2)*%
X39370000Y-113665000D03*
%TO.P,U21,4,ACH_A*%
X39370000Y-116205000D03*
%TO.P,U21,5*%
%TO.N,N/C*%
X39370000Y-118745000D03*
%TO.P,U21,6,IOB7*%
%TO.N,/SOUND/ROW7*%
X39370000Y-121285000D03*
%TO.P,U21,7,IOB6*%
%TO.N,/SOUND/ROW6*%
X39370000Y-123825000D03*
%TO.P,U21,8,IOB5*%
%TO.N,/SOUND/ROW5*%
X39370000Y-126365000D03*
%TO.P,U21,9,IOB4*%
%TO.N,/SOUND/ROW4*%
X39370000Y-128905000D03*
%TO.P,U21,10,IOB3*%
%TO.N,/SOUND/ROW3*%
X39370000Y-131445000D03*
%TO.P,U21,11,IOB2*%
%TO.N,/SOUND/ROW2*%
X39370000Y-133985000D03*
%TO.P,U21,12,IOB1*%
%TO.N,/SOUND/ROW1*%
X39370000Y-136525000D03*
%TO.P,U21,13,IOB0*%
%TO.N,/SOUND/ROW0*%
X39370000Y-139065000D03*
%TO.P,U21,14,IOA7*%
%TO.N,/SOUND/COL7*%
X39370000Y-141605000D03*
%TO.P,U21,15,IOA6*%
%TO.N,/SOUND/COL6*%
X39370000Y-144145000D03*
%TO.P,U21,16,IOA5*%
%TO.N,/SOUND/COL5*%
X39370000Y-146685000D03*
%TO.P,U21,17,IOA4*%
%TO.N,/SOUND/COL4*%
X39370000Y-149225000D03*
%TO.P,U21,18,IOA3*%
%TO.N,/SOUND/COL3*%
X39370000Y-151765000D03*
%TO.P,U21,19,IOA2*%
%TO.N,/SOUND/COL2*%
X39370000Y-154305000D03*
%TO.P,U21,20,IOA1*%
%TO.N,/SOUND/COL1*%
X39370000Y-156845000D03*
%TO.P,U21,21,IOA0*%
%TO.N,/SOUND/COL0*%
X54610000Y-156845000D03*
%TO.P,U21,22,CLK*%
%TO.N,/XTAL*%
X54610000Y-154305000D03*
%TO.P,U21,23,/RESET*%
%TO.N,/{slash}RESET*%
X54610000Y-151765000D03*
%TO.P,U21,24,A9*%
%TO.N,GND*%
X54610000Y-149225000D03*
%TO.P,U21,25,A8*%
%TO.N,VCC*%
X54610000Y-146685000D03*
%TO.P,U21,26,TEST_2*%
%TO.N,unconnected-(U21-Pad26)*%
X54610000Y-144145000D03*
%TO.P,U21,27,BDIR*%
%TO.N,Net-(U20-Pad4)*%
X54610000Y-141605000D03*
%TO.P,U21,28,BC2*%
%TO.N,VCC*%
X54610000Y-139065000D03*
%TO.P,U21,29,BC1*%
%TO.N,Net-(U20-Pad1)*%
X54610000Y-136525000D03*
%TO.P,U21,30,DA7*%
%TO.N,/BUS Expansion/D7*%
X54610000Y-133985000D03*
%TO.P,U21,31,DA6*%
%TO.N,/BUS Expansion/D6*%
X54610000Y-131445000D03*
%TO.P,U21,32,DA5*%
%TO.N,/BUS Expansion/D5*%
X54610000Y-128905000D03*
%TO.P,U21,33,DA4*%
%TO.N,/BUS Expansion/D4*%
X54610000Y-126365000D03*
%TO.P,U21,34,DA3*%
%TO.N,/BUS Expansion/D3*%
X54610000Y-123825000D03*
%TO.P,U21,35,DA2*%
%TO.N,/BUS Expansion/D2*%
X54610000Y-121285000D03*
%TO.P,U21,36,DA1*%
%TO.N,/BUS Expansion/D1*%
X54610000Y-118745000D03*
%TO.P,U21,37,DA0*%
%TO.N,/BUS Expansion/D0*%
X54610000Y-116205000D03*
%TO.P,U21,38,ACH_C*%
%TO.N,Net-(R12-Pad2)*%
X54610000Y-113665000D03*
%TO.P,U21,39,TEST_1*%
%TO.N,unconnected-(U21-Pad39)*%
X54610000Y-111125000D03*
%TO.P,U21,40,VCC*%
%TO.N,VCC*%
X54610000Y-108585000D03*
%TD*%
D11*
%TO.P,R25,1*%
%TO.N,Net-(C48-Pad1)*%
X189865000Y-64770000D03*
D15*
%TO.P,R25,2*%
%TO.N,Net-(R25-Pad2)*%
X197485000Y-64770000D03*
%TD*%
D25*
%TO.P,C53,1*%
%TO.N,Net-(C44-Pad1)*%
X372847349Y-75565000D03*
D11*
%TO.P,C53,2*%
%TO.N,GND*%
X376647349Y-75565000D03*
%TD*%
%TO.P,R18,1*%
%TO.N,Net-(Q2-Pad1)*%
X174625000Y-53975000D03*
D15*
%TO.P,R18,2*%
%TO.N,GND*%
X164465000Y-53975000D03*
%TD*%
D11*
%TO.P,C45,1*%
%TO.N,VCC*%
X382197651Y-86360000D03*
%TO.P,C45,2*%
%TO.N,GND*%
X384697651Y-86360000D03*
%TD*%
D38*
%TO.P,U6,1,TXD*%
%TO.N,/RX*%
X364412500Y-121605000D03*
%TO.P,U6,2,DTR*%
%TO.N,/DSR*%
X364412500Y-122255000D03*
%TO.P,U6,3,RTS*%
%TO.N,Net-(U5-Pad36)*%
X364412500Y-122905000D03*
%TO.P,U6,4,VCCIO*%
%TO.N,Net-(FB1-Pad2)*%
X364412500Y-123555000D03*
%TO.P,U6,5,RXD*%
%TO.N,/TX*%
X364412500Y-124205000D03*
%TO.P,U6,6,RI*%
%TO.N,unconnected-(U6-Pad6)*%
X364412500Y-124855000D03*
%TO.P,U6,7,GND*%
%TO.N,GND*%
X364412500Y-125505000D03*
%TO.P,U6,8*%
%TO.N,N/C*%
X364412500Y-126155000D03*
%TO.P,U6,9,DCR*%
%TO.N,/DTR*%
X364412500Y-126805000D03*
%TO.P,U6,10,DCD*%
X364412500Y-127455000D03*
%TO.P,U6,11,CTS*%
%TO.N,Net-(U5-Pad32)*%
X364412500Y-128105000D03*
%TO.P,U6,12,CBUS4*%
%TO.N,unconnected-(U6-Pad12)*%
X364412500Y-128755000D03*
%TO.P,U6,13,CBUS2*%
%TO.N,unconnected-(U6-Pad13)*%
X364412500Y-129405000D03*
%TO.P,U6,14,CBUS3*%
%TO.N,Net-(R10-Pad1)*%
X364412500Y-130055000D03*
%TO.P,U6,15,USBD+*%
%TO.N,Net-(C11-Pad2)*%
X371612500Y-130055000D03*
%TO.P,U6,16,USBD-*%
%TO.N,Net-(C12-Pad2)*%
X371612500Y-129405000D03*
%TO.P,U6,17,3V3OUT*%
%TO.N,Net-(C9-Pad1)*%
X371612500Y-128755000D03*
%TO.P,U6,18,GND*%
%TO.N,GND*%
X371612500Y-128105000D03*
%TO.P,U6,19,~{RESET}*%
%TO.N,VCC*%
X371612500Y-127455000D03*
%TO.P,U6,20,VCC*%
%TO.N,Net-(FB1-Pad2)*%
X371612500Y-126805000D03*
%TO.P,U6,21,GND*%
%TO.N,GND*%
X371612500Y-126155000D03*
%TO.P,U6,22,CBUS1*%
%TO.N,unconnected-(U6-Pad22)*%
X371612500Y-125505000D03*
%TO.P,U6,23,CBUS0*%
%TO.N,unconnected-(U6-Pad23)*%
X371612500Y-124855000D03*
%TO.P,U6,24*%
%TO.N,N/C*%
X371612500Y-124205000D03*
%TO.P,U6,25,AGND*%
%TO.N,GND*%
X371612500Y-123555000D03*
%TO.P,U6,26,TEST*%
X371612500Y-122905000D03*
%TO.P,U6,27,OSCI*%
%TO.N,unconnected-(U6-Pad27)*%
X371612500Y-122255000D03*
%TO.P,U6,28,OSCO*%
%TO.N,unconnected-(U6-Pad28)*%
X371612500Y-121605000D03*
%TD*%
D39*
%TO.P,Q1,1,G*%
%TO.N,Net-(C8-Pad1)*%
X369890000Y-144447500D03*
%TO.P,Q1,2,S*%
%TO.N,Net-(FB1-Pad2)*%
X371790000Y-144447500D03*
%TO.P,Q1,3,D*%
%TO.N,Net-(C7-Pad2)*%
X370840000Y-142572500D03*
%TD*%
D11*
%TO.P,C28,1*%
%TO.N,GND*%
X49600000Y-170170000D03*
%TO.P,C28,2*%
%TO.N,VCC*%
X54600000Y-170170000D03*
%TD*%
%TO.P,C12,1*%
%TO.N,GND*%
X387350000Y-128290000D03*
%TO.P,C12,2*%
%TO.N,Net-(C12-Pad2)*%
X387350000Y-130790000D03*
%TD*%
%TO.P,C9,1*%
%TO.N,Net-(C9-Pad1)*%
X377190000Y-128270000D03*
%TO.P,C9,2*%
%TO.N,GND*%
X377190000Y-123270000D03*
%TD*%
%TO.P,R27,1*%
%TO.N,Net-(C48-Pad1)*%
X189865000Y-74930000D03*
D15*
%TO.P,R27,2*%
%TO.N,Net-(R27-Pad2)*%
X197485000Y-74930000D03*
%TD*%
D11*
%TO.P,C15,1*%
%TO.N,VCC*%
X245110000Y-170180000D03*
%TO.P,C15,2*%
%TO.N,GND*%
X240110000Y-170180000D03*
%TD*%
%TO.P,R41,1*%
%TO.N,GND*%
X229235000Y-73650000D03*
D15*
%TO.P,R41,2*%
%TO.N,Net-(C51-Pad2)*%
X229235000Y-66030000D03*
%TD*%
D13*
%TO.P,JP3,1,A*%
%TO.N,Net-(JP3-Pad1)*%
X226700000Y-194945000D03*
D14*
%TO.P,JP3,2,B*%
%TO.N,Net-(JP3-Pad2)*%
X224160000Y-194945000D03*
%TD*%
D11*
%TO.P,R6,1*%
%TO.N,Net-(R6-Pad1)*%
X94615000Y-60325000D03*
D15*
%TO.P,R6,2*%
%TO.N,GND*%
X86995000Y-60325000D03*
%TD*%
D19*
%TO.P,D1,1,K*%
%TO.N,GND*%
X171450000Y-34290000D03*
D20*
%TO.P,D1,2,A*%
%TO.N,Net-(D1-Pad2)*%
X171450000Y-36830000D03*
%TD*%
D11*
%TO.P,C40,1*%
%TO.N,VCC*%
X191185000Y-170170000D03*
%TO.P,C40,2*%
%TO.N,GND*%
X186185000Y-170170000D03*
%TD*%
%TO.P,C11,1*%
%TO.N,GND*%
X387350000Y-123190000D03*
%TO.P,C11,2*%
%TO.N,Net-(C11-Pad2)*%
X387350000Y-125690000D03*
%TD*%
D40*
%TO.P,J2,2,Pin_2*%
%TO.N,/IO/PB1*%
X141605000Y-38735000D03*
%TO.P,J2,4,Pin_4*%
%TO.N,/IO/PB2*%
X137795000Y-38735000D03*
%TO.P,J2,6,Pin_6*%
%TO.N,/IO/PB3*%
X133985000Y-38735000D03*
%TO.P,J2,8,Pin_8*%
%TO.N,/IO/PB5*%
X130175000Y-38735000D03*
%TO.P,J2,10,Pin_10*%
%TO.N,/IO/PB7*%
X126365000Y-38735000D03*
%TO.P,J2,12,Pin_12*%
%TO.N,VCC*%
X122555000Y-38735000D03*
%TD*%
D11*
%TO.P,R34,1*%
%TO.N,/IO/PA6*%
X255905000Y-66030000D03*
D15*
%TO.P,R34,2*%
%TO.N,VCC*%
X255905000Y-73650000D03*
%TD*%
D11*
%TO.P,R1,1*%
%TO.N,VCC*%
X330200000Y-106680000D03*
D15*
%TO.P,R1,2*%
%TO.N,/NMI*%
X330200000Y-114300000D03*
%TD*%
D11*
%TO.P,R22,1*%
%TO.N,VCC*%
X340985000Y-54595564D03*
D15*
%TO.P,R22,2*%
%TO.N,/{slash}RESET*%
X340985000Y-62215564D03*
%TD*%
D25*
%TO.P,U15,1,~{EN}*%
%TO.N,/MREQ*%
X267335000Y-173990000D03*
D15*
%TO.P,U15,2,A*%
%TO.N,/IO/A15*%
X267335000Y-176530000D03*
%TO.P,U15,3,B*%
%TO.N,GND*%
X267335000Y-179070000D03*
%TO.P,U15,4,~{Q0}*%
%TO.N,/ROM_CE*%
X267335000Y-181610000D03*
%TO.P,U15,5,~{Q1}*%
%TO.N,/RAM_CE*%
X267335000Y-184150000D03*
%TO.P,U15,6,~{Q2}*%
%TO.N,unconnected-(U15-Pad6)*%
X267335000Y-186690000D03*
%TO.P,U15,7,~{Q3}*%
%TO.N,unconnected-(U15-Pad7)*%
X267335000Y-189230000D03*
%TO.P,U15,8,GND*%
%TO.N,GND*%
X267335000Y-191770000D03*
%TO.P,U15,9*%
%TO.N,N/C*%
X274955000Y-191770000D03*
%TO.P,U15,10*%
X274955000Y-189230000D03*
%TO.P,U15,11*%
X274955000Y-186690000D03*
%TO.P,U15,12*%
X274955000Y-184150000D03*
%TO.P,U15,13*%
X274955000Y-181610000D03*
%TO.P,U15,14*%
X274955000Y-179070000D03*
%TO.P,U15,15*%
X274955000Y-176530000D03*
%TO.P,U15,16,VCC*%
%TO.N,VCC*%
X274955000Y-173990000D03*
%TD*%
D10*
%TO.P,REF\u002A\u002A,2*%
%TO.N,GND*%
X21590000Y-198120000D03*
%TD*%
D11*
%TO.P,C33,1*%
%TO.N,Net-(C33-Pad1)*%
X29845000Y-82510000D03*
%TO.P,C33,2*%
%TO.N,Net-(C33-Pad2)*%
X29845000Y-77510000D03*
%TD*%
%TO.P,R20,1*%
%TO.N,VCC*%
X346065000Y-54595564D03*
D15*
%TO.P,R20,2*%
%TO.N,Net-(C36-Pad1)*%
X346065000Y-62215564D03*
%TD*%
D11*
%TO.P,R23,1*%
%TO.N,Net-(Q3-Pad1)*%
X388620000Y-84455000D03*
D15*
%TO.P,R23,2*%
%TO.N,Net-(D4-Pad1)*%
X396240000Y-84455000D03*
%TD*%
D25*
%TO.P,D7,1,A*%
%TO.N,Net-(D7-Pad1)*%
X293370000Y-50800000D03*
D15*
%TO.P,D7,2,K*%
%TO.N,VCC*%
X293370000Y-43180000D03*
%TD*%
D22*
%TO.P,U1,40,A10*%
%TO.N,/IO/A10*%
X311150000Y-97790000D03*
%TO.P,U1,39,A9*%
%TO.N,/IO/A9*%
X311150000Y-100330000D03*
%TO.P,U1,38,A8*%
%TO.N,/IO/A8*%
X311150000Y-102870000D03*
%TO.P,U1,37,A7*%
%TO.N,/IO/A7*%
X311150000Y-105410000D03*
%TO.P,U1,36,A6*%
%TO.N,/IO/A6*%
X311150000Y-107950000D03*
%TO.P,U1,35,A5*%
%TO.N,/IO/A5*%
X311150000Y-110490000D03*
%TO.P,U1,34,A4*%
%TO.N,/IO/A4*%
X311150000Y-113030000D03*
%TO.P,U1,33,A3*%
%TO.N,/IO/A3*%
X311150000Y-115570000D03*
%TO.P,U1,32,A2*%
%TO.N,/IO/A2*%
X311150000Y-118110000D03*
%TO.P,U1,31,A1*%
%TO.N,/IO/A1*%
X311150000Y-120650000D03*
%TO.P,U1,30,A0*%
%TO.N,/IO/A0*%
X311150000Y-123190000D03*
%TO.P,U1,29,GND*%
%TO.N,GND*%
X311150000Y-125730000D03*
%TO.P,U1,28,~{RFSH}*%
%TO.N,/CPU_MEM/RFSH*%
X311150000Y-128270000D03*
%TO.P,U1,27,~{M1}*%
%TO.N,/M1*%
X311150000Y-130810000D03*
%TO.P,U1,26,~{RESET}*%
%TO.N,/{slash}RESET*%
X311150000Y-133350000D03*
%TO.P,U1,25,~{BUSRQ}*%
%TO.N,/BUSRQ*%
X311150000Y-135890000D03*
%TO.P,U1,24,~{WAIT}*%
%TO.N,/WAIT*%
X311150000Y-138430000D03*
%TO.P,U1,23,~{BUSACK}*%
%TO.N,/BUSACK*%
X311150000Y-140970000D03*
%TO.P,U1,22,~{WR}*%
%TO.N,/WR*%
X311150000Y-143510000D03*
%TO.P,U1,21,~{RD}*%
%TO.N,/RD*%
X311150000Y-146050000D03*
%TO.P,U1,20,~{IORQ}*%
%TO.N,/IORQ*%
X295910000Y-146050000D03*
%TO.P,U1,19,~{MREQ}*%
%TO.N,/MREQ*%
X295910000Y-143510000D03*
%TO.P,U1,18,~{HALT}*%
%TO.N,/HALT*%
X295910000Y-140970000D03*
%TO.P,U1,17,~{NMI}*%
%TO.N,/NMI*%
X295910000Y-138430000D03*
%TO.P,U1,16,~{INT}*%
%TO.N,/{slash}INT*%
X295910000Y-135890000D03*
%TO.P,U1,15,D1*%
%TO.N,/BUS Expansion/D1*%
X295910000Y-133350000D03*
%TO.P,U1,14,D0*%
%TO.N,/BUS Expansion/D0*%
X295910000Y-130810000D03*
%TO.P,U1,13,D7*%
%TO.N,/BUS Expansion/D7*%
X295910000Y-128270000D03*
%TO.P,U1,12,D2*%
%TO.N,/BUS Expansion/D2*%
X295910000Y-125730000D03*
%TO.P,U1,11,VCC*%
%TO.N,VCC*%
X295910000Y-123190000D03*
%TO.P,U1,10,D6*%
%TO.N,/BUS Expansion/D6*%
X295910000Y-120650000D03*
%TO.P,U1,9,D5*%
%TO.N,/BUS Expansion/D5*%
X295910000Y-118110000D03*
%TO.P,U1,8,D3*%
%TO.N,/BUS Expansion/D3*%
X295910000Y-115570000D03*
%TO.P,U1,7,D4*%
%TO.N,/BUS Expansion/D4*%
X295910000Y-113030000D03*
%TO.P,U1,6,~{CLK}*%
%TO.N,/XTAL*%
X295910000Y-110490000D03*
%TO.P,U1,5,A15*%
%TO.N,/IO/A15*%
X295910000Y-107950000D03*
%TO.P,U1,4,A14*%
%TO.N,/IO/A14*%
X295910000Y-105410000D03*
%TO.P,U1,3,A13*%
%TO.N,/IO/A13*%
X295910000Y-102870000D03*
%TO.P,U1,2,A12*%
%TO.N,/IO/A12*%
X295910000Y-100330000D03*
D21*
%TO.P,U1,1,A11*%
%TO.N,/IO/A11*%
X295910000Y-97790000D03*
%TD*%
D13*
%TO.P,J7,1,Pin_1*%
%TO.N,GND*%
X31730000Y-108660000D03*
D14*
%TO.P,J7,2,Pin_2*%
%TO.N,unconnected-(J7-Pad2)*%
X31730000Y-111200000D03*
%TO.P,J7,3,Pin_3*%
%TO.N,unconnected-(J7-Pad3)*%
X31730000Y-113740000D03*
%TO.P,J7,4,Pin_4*%
%TO.N,unconnected-(J7-Pad4)*%
X31730000Y-116280000D03*
%TO.P,J7,5,Pin_5*%
%TO.N,/SOUND/COL3*%
X31730000Y-118820000D03*
%TO.P,J7,6,Pin_6*%
%TO.N,/SOUND/COL6*%
X31730000Y-121360000D03*
%TO.P,J7,7,Pin_7*%
%TO.N,/SOUND/COL5*%
X31730000Y-123900000D03*
%TO.P,J7,8,Pin_8*%
%TO.N,/SOUND/COL4*%
X31730000Y-126440000D03*
%TO.P,J7,9,Pin_9*%
%TO.N,/SOUND/COL7*%
X31730000Y-128980000D03*
%TO.P,J7,10,Pin_10*%
%TO.N,/SOUND/COL2*%
X31730000Y-131520000D03*
%TO.P,J7,11,Pin_11*%
%TO.N,/SOUND/COL1*%
X31730000Y-134060000D03*
%TO.P,J7,12,Pin_12*%
%TO.N,/SOUND/COL0*%
X31730000Y-136600000D03*
%TO.P,J7,13,Pin_13*%
%TO.N,/SOUND/ROW0*%
X31730000Y-139140000D03*
%TO.P,J7,14,Pin_14*%
%TO.N,/SOUND/ROW6*%
X31730000Y-141680000D03*
%TO.P,J7,15,Pin_15*%
%TO.N,/SOUND/ROW5*%
X31730000Y-144220000D03*
%TO.P,J7,16,Pin_16*%
%TO.N,/SOUND/ROW4*%
X31730000Y-146760000D03*
%TO.P,J7,17,Pin_17*%
%TO.N,/SOUND/ROW3*%
X31730000Y-149300000D03*
%TO.P,J7,18,Pin_18*%
%TO.N,/SOUND/ROW2*%
X31730000Y-151840000D03*
%TO.P,J7,19,Pin_19*%
%TO.N,/SOUND/ROW1*%
X31730000Y-154380000D03*
%TO.P,J7,20,Pin_20*%
%TO.N,/SOUND/ROW7*%
X31730000Y-156920000D03*
%TD*%
D41*
%TO.P,J10,1,Pin_1*%
%TO.N,/MR*%
X371267500Y-184150000D03*
D42*
%TO.P,J10,2,Pin_2*%
%TO.N,GND*%
X371267500Y-186150000D03*
%TO.P,J10,3,Pin_3*%
%TO.N,/BUS Expansion/D7*%
X369267500Y-184150000D03*
%TO.P,J10,4,Pin_4*%
%TO.N,unconnected-(J10-Pad4)*%
X369267500Y-186150000D03*
%TO.P,J10,5,Pin_5*%
%TO.N,/BUS Expansion/D6*%
X367267500Y-184150000D03*
%TO.P,J10,6,Pin_6*%
%TO.N,unconnected-(J10-Pad6)*%
X367267500Y-186150000D03*
%TO.P,J10,7,Pin_7*%
%TO.N,/BUS Expansion/D5*%
X365267500Y-184150000D03*
%TO.P,J10,8,Pin_8*%
%TO.N,unconnected-(J10-Pad8)*%
X365267500Y-186150000D03*
%TO.P,J10,9,Pin_9*%
%TO.N,/BUS Expansion/D4*%
X363267500Y-184150000D03*
%TO.P,J10,10,Pin_10*%
%TO.N,unconnected-(J10-Pad10)*%
X363267500Y-186150000D03*
%TO.P,J10,11,Pin_11*%
%TO.N,/BUS Expansion/D3*%
X361267500Y-184150000D03*
%TO.P,J10,12,Pin_12*%
%TO.N,unconnected-(J10-Pad12)*%
X361267500Y-186150000D03*
%TO.P,J10,13,Pin_13*%
%TO.N,/BUS Expansion/D2*%
X359267500Y-184150000D03*
%TO.P,J10,14,Pin_14*%
%TO.N,unconnected-(J10-Pad14)*%
X359267500Y-186150000D03*
%TO.P,J10,15,Pin_15*%
%TO.N,/BUS Expansion/D1*%
X357267500Y-184150000D03*
%TO.P,J10,16,Pin_16*%
%TO.N,unconnected-(J10-Pad16)*%
X357267500Y-186150000D03*
%TO.P,J10,17,Pin_17*%
%TO.N,/BUS Expansion/D0*%
X355267500Y-184150000D03*
%TO.P,J10,18,Pin_18*%
%TO.N,unconnected-(J10-Pad18)*%
X355267500Y-186150000D03*
%TO.P,J10,19,Pin_19*%
%TO.N,GND*%
X353267500Y-184150000D03*
%TO.P,J10,20,Pin_20*%
%TO.N,VCC*%
X353267500Y-186150000D03*
%TO.P,J10,21,Pin_21*%
%TO.N,unconnected-(J10-Pad21)*%
X351267500Y-184150000D03*
%TO.P,J10,22,Pin_22*%
%TO.N,GND*%
X351267500Y-186150000D03*
%TO.P,J10,23,Pin_23*%
%TO.N,/IOWR*%
X349267500Y-184150000D03*
%TO.P,J10,24,Pin_24*%
%TO.N,GND*%
X349267500Y-186150000D03*
%TO.P,J10,25,Pin_25*%
%TO.N,/IORD*%
X347267500Y-184150000D03*
%TO.P,J10,26,Pin_26*%
%TO.N,GND*%
X347267500Y-186150000D03*
%TO.P,J10,27,Pin_27*%
%TO.N,unconnected-(J10-Pad27)*%
X345267500Y-184150000D03*
%TO.P,J10,28,Pin_28*%
%TO.N,unconnected-(J10-Pad28)*%
X345267500Y-186150000D03*
%TO.P,J10,29,Pin_29*%
%TO.N,unconnected-(J10-Pad29)*%
X343267500Y-184150000D03*
%TO.P,J10,30,Pin_30*%
%TO.N,GND*%
X343267500Y-186150000D03*
%TO.P,J10,31,Pin_31*%
%TO.N,unconnected-(J10-Pad31)*%
X341267500Y-184150000D03*
%TO.P,J10,32,Pin_32*%
%TO.N,unconnected-(J10-Pad32)*%
X341267500Y-186150000D03*
%TO.P,J10,33,Pin_33*%
%TO.N,/IO/A1*%
X339267500Y-184150000D03*
%TO.P,J10,34,Pin_34*%
%TO.N,unconnected-(J10-Pad34)*%
X339267500Y-186150000D03*
%TO.P,J10,35,Pin_35*%
%TO.N,/IO/A0*%
X337267500Y-184150000D03*
%TO.P,J10,36,Pin_36*%
%TO.N,/IO/A2*%
X337267500Y-186150000D03*
%TO.P,J10,37,Pin_37*%
%TO.N,/CF_CE*%
X335267500Y-184150000D03*
%TO.P,J10,38,Pin_38*%
%TO.N,Net-(J10-Pad38)*%
X335267500Y-186150000D03*
%TO.P,J10,39,Pin_39*%
%TO.N,Net-(J10-Pad39)*%
X333267500Y-184150000D03*
%TO.P,J10,40,Pin_40*%
%TO.N,GND*%
X333267500Y-186150000D03*
%TD*%
D25*
%TO.P,RN1,1,common*%
%TO.N,VCC*%
X212860000Y-191770000D03*
D15*
%TO.P,RN1,2,R1*%
%TO.N,/CTC_INT*%
X212860000Y-189230000D03*
%TO.P,RN1,3,R2*%
%TO.N,/UART_INT*%
X212860000Y-186690000D03*
%TO.P,RN1,4,R3*%
%TO.N,/VDP_INT*%
X212860000Y-184150000D03*
%TO.P,RN1,5,R4*%
%TO.N,/INT_DEV1*%
X212860000Y-181610000D03*
%TO.P,RN1,6,R5*%
%TO.N,/INT_DEV2*%
X212860000Y-179070000D03*
%TO.P,RN1,7,R6*%
%TO.N,/INT_DEV3*%
X212860000Y-176530000D03*
%TO.P,RN1,8,R7*%
%TO.N,/INT_DEV4*%
X212860000Y-173990000D03*
%TO.P,RN1,9,R8*%
%TO.N,/INT_DEV5*%
X212860000Y-171450000D03*
%TD*%
D11*
%TO.P,R15,1*%
%TO.N,GND*%
X33655000Y-72390000D03*
D15*
%TO.P,R15,2*%
%TO.N,Net-(C33-Pad2)*%
X33655000Y-82550000D03*
%TD*%
D19*
%TO.P,D12,1,K*%
%TO.N,VCC*%
X371475000Y-34925000D03*
D26*
%TO.P,D12,2,A*%
%TO.N,Net-(C44-Pad1)*%
X379095000Y-34925000D03*
%TD*%
D11*
%TO.P,C7,1*%
%TO.N,GND*%
X369570000Y-147320000D03*
%TO.P,C7,2*%
%TO.N,Net-(C7-Pad2)*%
X367070000Y-147320000D03*
%TD*%
%TO.P,R26,1*%
%TO.N,Net-(C48-Pad1)*%
X189865000Y-69850000D03*
D15*
%TO.P,R26,2*%
%TO.N,Net-(R26-Pad2)*%
X197485000Y-69850000D03*
%TD*%
D21*
%TO.P,U16,1*%
%TO.N,/VDP_CE*%
X115555000Y-173990000D03*
D22*
%TO.P,U16,2*%
%TO.N,/IORQ*%
X115555000Y-176530000D03*
%TO.P,U16,3*%
%TO.N,Net-(U16-Pad3)*%
X115555000Y-179070000D03*
%TO.P,U16,4*%
X115555000Y-181610000D03*
%TO.P,U16,5*%
%TO.N,/RD*%
X115555000Y-184150000D03*
%TO.P,U16,6*%
%TO.N,/VIDEO/{slash}CSR*%
X115555000Y-186690000D03*
%TO.P,U16,7,GND*%
%TO.N,GND*%
X115555000Y-189230000D03*
%TO.P,U16,8*%
%TO.N,/VIDEO/{slash}CSW*%
X123175000Y-189230000D03*
%TO.P,U16,9*%
%TO.N,Net-(U16-Pad3)*%
X123175000Y-186690000D03*
%TO.P,U16,10*%
%TO.N,/WR*%
X123175000Y-184150000D03*
%TO.P,U16,11*%
%TO.N,N/C*%
X123175000Y-181610000D03*
%TO.P,U16,12*%
X123175000Y-179070000D03*
%TO.P,U16,13*%
X123175000Y-176530000D03*
%TO.P,U16,14,VCC*%
%TO.N,VCC*%
X123175000Y-173990000D03*
%TD*%
D11*
%TO.P,R16,1*%
%TO.N,VCC*%
X351145000Y-54595564D03*
D15*
%TO.P,R16,2*%
%TO.N,Net-(C34-Pad1)*%
X351145000Y-62215564D03*
%TD*%
D21*
%TO.P,U14,1,A0*%
%TO.N,/IO/A5*%
X237490000Y-173980000D03*
D22*
%TO.P,U14,2,A1*%
%TO.N,/IO/A6*%
X237490000Y-176520000D03*
%TO.P,U14,3,A2*%
%TO.N,/IO/A7*%
X237490000Y-179060000D03*
%TO.P,U14,4,E1*%
%TO.N,/IORQ*%
X237490000Y-181600000D03*
%TO.P,U14,5,E2*%
X237490000Y-184140000D03*
%TO.P,U14,6,E3*%
%TO.N,Net-(JP4-Pad2)*%
X237490000Y-186680000D03*
%TO.P,U14,7,O7*%
%TO.N,unconnected-(U14-Pad7)*%
X237490000Y-189220000D03*
%TO.P,U14,8,GND*%
%TO.N,GND*%
X237490000Y-191760000D03*
%TO.P,U14,9,O6*%
%TO.N,/DEV_CS1*%
X245110000Y-191760000D03*
%TO.P,U14,10,O5*%
%TO.N,/CF_CE*%
X245110000Y-189220000D03*
%TO.P,U14,11,O4*%
%TO.N,/CTC_CE*%
X245110000Y-186680000D03*
%TO.P,U14,12,O3*%
%TO.N,/PSG_CE*%
X245110000Y-184140000D03*
%TO.P,U14,13,O2*%
%TO.N,/VDP_CE*%
X245110000Y-181600000D03*
%TO.P,U14,14,O1*%
%TO.N,/UART_CE*%
X245110000Y-179060000D03*
%TO.P,U14,15,O0*%
%TO.N,/PPI_CE*%
X245110000Y-176520000D03*
%TO.P,U14,16,VCC*%
%TO.N,VCC*%
X245110000Y-173980000D03*
%TD*%
D25*
%TO.P,D9,1,A*%
%TO.N,Net-(D8-Pad1)*%
X280035000Y-36830000D03*
D15*
%TO.P,D9,2,K*%
%TO.N,/IO/Casette Interface/M2*%
X272415000Y-36830000D03*
%TD*%
D10*
%TO.P,,3*%
%TO.N,GND*%
X396240000Y-39370000D03*
%TD*%
D43*
%TO.P,SW2,1,1*%
%TO.N,GND*%
X401955000Y-77620000D03*
X401955000Y-71120000D03*
%TO.P,SW2,2,2*%
%TO.N,Net-(C34-Pad1)*%
X397455000Y-77620000D03*
X397455000Y-71120000D03*
%TD*%
D11*
%TO.P,C44,1*%
%TO.N,Net-(C44-Pad1)*%
X382945000Y-60960000D03*
%TO.P,C44,2*%
%TO.N,GND*%
X385445000Y-60960000D03*
%TD*%
%TO.P,C14,1*%
%TO.N,VCC*%
X260985000Y-170180000D03*
%TO.P,C14,2*%
%TO.N,GND*%
X255985000Y-170180000D03*
%TD*%
%TO.P,C16,1*%
%TO.N,GND*%
X124420000Y-104140000D03*
%TO.P,C16,2*%
%TO.N,Net-(C16-Pad2)*%
X119420000Y-104140000D03*
%TD*%
D25*
%TO.P,C43,1*%
%TO.N,Net-(C33-Pad1)*%
X21590000Y-78740000D03*
D11*
%TO.P,C43,2*%
%TO.N,Net-(C43-Pad2)*%
X21590000Y-76240000D03*
%TD*%
D44*
%TO.P,FB1,1*%
%TO.N,Net-(C41-Pad1)*%
X378460000Y-144780000D03*
%TO.P,FB1,2*%
%TO.N,Net-(FB1-Pad2)*%
X376335000Y-144780000D03*
%TD*%
D13*
%TO.P,J8,1,Pin_1*%
%TO.N,Net-(J8-Pad1)*%
X216535000Y-117430000D03*
D14*
%TO.P,J8,2,Pin_2*%
%TO.N,Net-(J8-Pad2)*%
X216535000Y-114890000D03*
%TO.P,J8,3,Pin_3*%
%TO.N,Net-(J8-Pad3)*%
X216535000Y-112350000D03*
%TO.P,J8,4,Pin_4*%
%TO.N,Net-(J8-Pad4)*%
X216535000Y-109810000D03*
%TO.P,J8,5,Pin_5*%
%TO.N,Net-(J8-Pad5)*%
X216535000Y-107270000D03*
%TO.P,J8,6,Pin_6*%
%TO.N,Net-(J8-Pad6)*%
X216535000Y-104730000D03*
%TO.P,J8,7,Pin_7*%
%TO.N,Net-(J8-Pad7)*%
X216535000Y-102190000D03*
%TD*%
D11*
%TO.P,C18,1*%
%TO.N,GND*%
X185420000Y-52705000D03*
%TO.P,C18,2*%
%TO.N,VCC*%
X185420000Y-57705000D03*
%TD*%
%TO.P,C13,1*%
%TO.N,Net-(C13-Pad1)*%
X400180000Y-137785000D03*
%TO.P,C13,2*%
%TO.N,GND*%
X397680000Y-137785000D03*
%TD*%
D25*
%TO.P,X1,1,EN*%
%TO.N,unconnected-(X1-Pad1)*%
X308610000Y-78740000D03*
D11*
%TO.P,X1,4,GND*%
%TO.N,GND*%
X300990000Y-78740000D03*
%TO.P,X1,5,OUT*%
%TO.N,/XTAL*%
X300990000Y-86360000D03*
%TO.P,X1,8,Vcc*%
%TO.N,VCC*%
X308610000Y-86360000D03*
%TD*%
%TO.P,R17,1*%
%TO.N,Net-(Q2-Pad2)*%
X174625000Y-57785000D03*
D15*
%TO.P,R17,2*%
%TO.N,GND*%
X164465000Y-57785000D03*
%TD*%
D21*
%TO.P,U25,1*%
%TO.N,/M1*%
X221695000Y-173990000D03*
D22*
%TO.P,U25,2*%
%TO.N,/IORQ*%
X221695000Y-176530000D03*
%TO.P,U25,3*%
%TO.N,Net-(U25-Pad3)*%
X221695000Y-179070000D03*
%TO.P,U25,4*%
X221695000Y-181610000D03*
%TO.P,U25,5*%
%TO.N,Net-(U25-Pad10)*%
X221695000Y-184150000D03*
%TO.P,U25,6*%
%TO.N,Net-(JP3-Pad1)*%
X221695000Y-186690000D03*
%TO.P,U25,7,GND*%
%TO.N,GND*%
X221695000Y-189230000D03*
%TO.P,U25,8*%
%TO.N,Net-(U25-Pad12)*%
X229315000Y-189230000D03*
%TO.P,U25,9*%
%TO.N,Net-(U25-Pad10)*%
X229315000Y-186690000D03*
%TO.P,U25,10*%
X229315000Y-184150000D03*
%TO.P,U25,11*%
%TO.N,/{slash}INT*%
X229315000Y-181610000D03*
%TO.P,U25,12*%
%TO.N,Net-(U25-Pad12)*%
X229315000Y-179070000D03*
%TO.P,U25,13*%
X229315000Y-176530000D03*
%TO.P,U25,14,VCC*%
%TO.N,VCC*%
X229315000Y-173990000D03*
%TD*%
D11*
%TO.P,C50,1*%
%TO.N,VCC*%
X210820000Y-58420000D03*
%TO.P,C50,2*%
%TO.N,GND*%
X205820000Y-58420000D03*
%TD*%
%TO.P,C25,1*%
%TO.N,GND*%
X152475000Y-170185000D03*
%TO.P,C25,2*%
%TO.N,VCC*%
X157475000Y-170185000D03*
%TD*%
%TO.P,C8,1*%
%TO.N,Net-(C8-Pad1)*%
X364490000Y-144780000D03*
%TO.P,C8,2*%
%TO.N,Net-(C7-Pad2)*%
X364490000Y-142280000D03*
%TD*%
%TO.P,R31,1*%
%TO.N,VCC*%
X214630000Y-62230000D03*
D15*
%TO.P,R31,2*%
%TO.N,Net-(C48-Pad1)*%
X222250000Y-62230000D03*
%TD*%
D21*
%TO.P,U11,1,A14*%
%TO.N,GND*%
X168275000Y-102870000D03*
D22*
%TO.P,U11,2,A12*%
%TO.N,/VIDEO/VA11*%
X168275000Y-105410000D03*
%TO.P,U11,3,A7*%
%TO.N,/VIDEO/VA9*%
X168275000Y-107950000D03*
%TO.P,U11,4,A6*%
%TO.N,/VIDEO/VA8*%
X168275000Y-110490000D03*
%TO.P,U11,5,A5*%
%TO.N,/VIDEO/VA6*%
X168275000Y-113030000D03*
%TO.P,U11,6,A4*%
%TO.N,/VIDEO/VA5*%
X168275000Y-115570000D03*
%TO.P,U11,7,A3*%
%TO.N,/VIDEO/VA3*%
X168275000Y-118110000D03*
%TO.P,U11,8,A2*%
%TO.N,/VIDEO/VA2*%
X168275000Y-120650000D03*
%TO.P,U11,9,A1*%
%TO.N,/VIDEO/VA1*%
X168275000Y-123190000D03*
%TO.P,U11,10,A0*%
%TO.N,/VIDEO/VA0*%
X168275000Y-125730000D03*
%TO.P,U11,11,DQ0*%
%TO.N,/VIDEO/VD0*%
X168275000Y-128270000D03*
%TO.P,U11,12,DQ1*%
%TO.N,/VIDEO/VD1*%
X168275000Y-130810000D03*
%TO.P,U11,13,DQ2*%
%TO.N,/VIDEO/VD2*%
X168275000Y-133350000D03*
%TO.P,U11,14,VSS*%
%TO.N,GND*%
X168275000Y-135890000D03*
%TO.P,U11,15,DQ3*%
%TO.N,/VIDEO/VD3*%
X183515000Y-135890000D03*
%TO.P,U11,16,DQ4*%
%TO.N,/VIDEO/VD4*%
X183515000Y-133350000D03*
%TO.P,U11,17,DQ5*%
%TO.N,/VIDEO/VD5*%
X183515000Y-130810000D03*
%TO.P,U11,18,DQ6*%
%TO.N,/VIDEO/VD6*%
X183515000Y-128270000D03*
%TO.P,U11,19,DQ7*%
%TO.N,/VIDEO/VD7*%
X183515000Y-125730000D03*
%TO.P,U11,20,CE#*%
%TO.N,/VIDEO/{slash}CAS*%
X183515000Y-123190000D03*
%TO.P,U11,21,A10*%
%TO.N,/VIDEO/VA4*%
X183515000Y-120650000D03*
%TO.P,U11,22,OE#*%
%TO.N,Net-(U10-Pad11)*%
X183515000Y-118110000D03*
%TO.P,U11,23,A11*%
%TO.N,/VIDEO/VA7*%
X183515000Y-115570000D03*
%TO.P,U11,24,A9*%
%TO.N,/VIDEO/VA10*%
X183515000Y-113030000D03*
%TO.P,U11,25,A8*%
%TO.N,/VIDEO/VA12*%
X183515000Y-110490000D03*
%TO.P,U11,26,A13*%
%TO.N,/VIDEO/VA13*%
X183515000Y-107950000D03*
%TO.P,U11,27,WE#*%
%TO.N,Net-(U10-Pad1)*%
X183515000Y-105410000D03*
%TO.P,U11,28,VCC*%
%TO.N,VCC*%
X183515000Y-102870000D03*
%TD*%
D11*
%TO.P,R44,1*%
%TO.N,Net-(J10-Pad38)*%
X336550000Y-189595000D03*
D15*
%TO.P,R44,2*%
%TO.N,VCC*%
X346710000Y-189595000D03*
%TD*%
D45*
%TO.P,Q2,1,E*%
%TO.N,Net-(Q2-Pad1)*%
X178435000Y-56240000D03*
D46*
%TO.P,Q2,2,B*%
%TO.N,Net-(Q2-Pad2)*%
X179705000Y-56240000D03*
%TO.P,Q2,3,C*%
%TO.N,VCC*%
X180975000Y-56240000D03*
%TD*%
D19*
%TO.P,D2,1,K*%
%TO.N,GND*%
X164465000Y-34290000D03*
D20*
%TO.P,D2,2,A*%
%TO.N,Net-(D2-Pad2)*%
X164465000Y-36830000D03*
%TD*%
D11*
%TO.P,C10,1*%
%TO.N,GND*%
X381000000Y-123190000D03*
%TO.P,C10,2*%
%TO.N,VCC*%
X381000000Y-128190000D03*
%TD*%
D28*
%TO.P,SW1,1*%
%TO.N,Net-(R4-Pad1)*%
X108595000Y-56530000D03*
D29*
%TO.P,SW1,2*%
%TO.N,Net-(R5-Pad1)*%
X111135000Y-56530000D03*
%TO.P,SW1,3*%
%TO.N,Net-(R6-Pad1)*%
X113675000Y-56530000D03*
%TO.P,SW1,4*%
%TO.N,Net-(R7-Pad1)*%
X116215000Y-56530000D03*
%TO.P,SW1,5*%
%TO.N,VCC*%
X116215000Y-48910000D03*
%TO.P,SW1,6*%
X113675000Y-48910000D03*
%TO.P,SW1,7*%
X111135000Y-48910000D03*
%TO.P,SW1,8*%
X108595000Y-48910000D03*
%TD*%
D10*
%TO.P,,3*%
%TO.N,GND*%
X399415000Y-153670000D03*
%TD*%
D11*
%TO.P,R9,1*%
%TO.N,Net-(D2-Pad2)*%
X164465000Y-39370000D03*
D15*
%TO.P,R9,2*%
%TO.N,/IO/PC0*%
X164465000Y-46990000D03*
%TD*%
D47*
%TO.N,Net-(U17-Pad2)*%
X146685000Y-146595500D03*
%TO.N,/IO/A1*%
X203835000Y-158750000D03*
%TO.N,/BUS Expansion/D2*%
X179070000Y-152489500D03*
%TO.N,/BUS Expansion/D4*%
X184150000Y-154215500D03*
%TO.N,/IO/A15*%
X276860000Y-137160000D03*
%TO.N,/MREQ*%
X269240000Y-197485000D03*
X248920000Y-197485000D03*
%TO.N,GND*%
X205820000Y-97710000D03*
X233680000Y-139065000D03*
X256540000Y-139065000D03*
X49510000Y-115645000D03*
X368300000Y-124460000D03*
X41910000Y-55880000D03*
%TO.N,Net-(C11-Pad2)*%
X383540000Y-130810000D03*
%TO.N,/VDP_INT*%
X97790000Y-166093500D03*
X199390000Y-166370000D03*
%TO.N,Net-(FB1-Pad2)*%
X375285000Y-125730000D03*
%TO.N,/IO/PC0*%
X159385000Y-76110500D03*
%TO.N,/IO/PC1*%
X161290000Y-76835000D03*
%TO.N,/IO/PA7*%
X124460000Y-73570500D03*
%TO.N,/IO/PA6*%
X261620000Y-81280000D03*
X122555000Y-74295000D03*
%TO.N,/IO/PA5*%
X120650000Y-53975000D03*
%TO.N,/IO/PA4*%
X118745000Y-55245000D03*
%TO.N,/IO/PB6*%
X130175000Y-50165000D03*
%TO.N,/IO/PB4*%
X133985000Y-50165000D03*
%TO.N,/IO/PB0*%
X126365000Y-50165000D03*
%TO.N,/NMI*%
X330200000Y-139700000D03*
X88900000Y-202019500D03*
X330200000Y-201930000D03*
%TO.N,/WAIT*%
X320040000Y-200660000D03*
X320040000Y-138430000D03*
X85090000Y-200749500D03*
%TO.N,/BUSRQ*%
X325120000Y-201295000D03*
X58420000Y-201295000D03*
X325120000Y-135890000D03*
X45720000Y-50800000D03*
%TO.N,/{slash}RESET*%
X92075000Y-85090000D03*
X219075000Y-85725000D03*
X92164500Y-149860000D03*
X80010000Y-48260000D03*
X80010000Y-85090000D03*
X92164500Y-115570000D03*
X278130000Y-88265000D03*
X278130000Y-132080000D03*
X272415000Y-86995000D03*
%TO.N,/INT_DEV1*%
X40640000Y-83185000D03*
X91350500Y-90805000D03*
X91440000Y-198755000D03*
%TO.N,/XTAL*%
X220345000Y-86449500D03*
X48240000Y-140410000D03*
X44450000Y-49530000D03*
X278130000Y-86360000D03*
X300990000Y-93980000D03*
X52070000Y-83820000D03*
%TO.N,/IO/A11*%
X274409500Y-97790000D03*
X49530000Y-48260000D03*
%TO.N,/IO/A13*%
X50800000Y-85090000D03*
X262255000Y-100965000D03*
X44450000Y-58420000D03*
%TO.N,/IO/A14*%
X44450000Y-83185000D03*
X260350000Y-102595000D03*
%TO.N,/IO/A15*%
X34290000Y-63500000D03*
X34290000Y-49530000D03*
X284480000Y-137160000D03*
%TO.N,/BUS Expansion/D4*%
X336550000Y-154215500D03*
X190500000Y-154036000D03*
X300990000Y-154215500D03*
X73660000Y-147320000D03*
X269240000Y-154126000D03*
X68580000Y-72390000D03*
X73660000Y-126365000D03*
X73660000Y-154305000D03*
%TO.N,/BUS Expansion/D3*%
X69850000Y-71120000D03*
X74930000Y-123825000D03*
X299720000Y-153401500D03*
X74930000Y-153670000D03*
X335280000Y-153491000D03*
X69850000Y-48260000D03*
X201930000Y-153311500D03*
X271780000Y-153401500D03*
X74930000Y-146050000D03*
X177800000Y-153580500D03*
%TO.N,/BUS Expansion/D5*%
X67310000Y-73660000D03*
X72390000Y-144780000D03*
X288290000Y-154850500D03*
X186690000Y-154850500D03*
X267970000Y-154850500D03*
X72390000Y-154940000D03*
X67310000Y-48260000D03*
X200660000Y-154850500D03*
X72390000Y-127635000D03*
X337820000Y-154850500D03*
%TO.N,/BUS Expansion/D6*%
X266700000Y-155485500D03*
X66040000Y-62230000D03*
X71120000Y-155575000D03*
X289560000Y-155485500D03*
X339090000Y-155485500D03*
X71120000Y-142240000D03*
X71120000Y-131445000D03*
X199479500Y-155485500D03*
X189230000Y-155485500D03*
%TO.N,/BUS Expansion/D2*%
X76200000Y-143510000D03*
X290830000Y-152677000D03*
X76200000Y-121285000D03*
X202637033Y-152605024D03*
X76200000Y-153035000D03*
X334010000Y-152766500D03*
X71120000Y-69850000D03*
X260350000Y-152677000D03*
%TO.N,/BUS Expansion/D7*%
X340360000Y-156210000D03*
X265430000Y-156120500D03*
X194310000Y-156210000D03*
X69850000Y-133985000D03*
X69850000Y-139700000D03*
X63500000Y-49530000D03*
X292100000Y-156120500D03*
X64770000Y-61595000D03*
X198299500Y-156210000D03*
X69850000Y-156210000D03*
%TO.N,/BUS Expansion/D0*%
X78740000Y-151675500D03*
X331470000Y-151130000D03*
X73660000Y-67310000D03*
X293370000Y-151130000D03*
X262890000Y-151130000D03*
X78740000Y-138430000D03*
X78740000Y-116205000D03*
X181610000Y-151040500D03*
X204470000Y-151040500D03*
%TO.N,/BUS Expansion/D1*%
X72390000Y-48260000D03*
X77470000Y-140970000D03*
X261620000Y-151765000D03*
X77470000Y-118745000D03*
X180340000Y-151765000D03*
X332740000Y-152042000D03*
X77470000Y-152400000D03*
X203200000Y-151765000D03*
X72390000Y-68490500D03*
X298450000Y-152042000D03*
%TO.N,/{slash}INT*%
X241300000Y-135890000D03*
%TO.N,/HALT*%
X318770000Y-142240000D03*
X82550000Y-49530000D03*
X86360000Y-202565000D03*
X318770000Y-202654500D03*
%TO.N,/MREQ*%
X83820000Y-48260000D03*
X87630000Y-151040500D03*
X278130000Y-148590000D03*
%TO.N,/IORQ*%
X113665000Y-157390500D03*
X295910000Y-157390500D03*
X82550000Y-157390500D03*
X193040000Y-157390500D03*
X220980000Y-157390500D03*
%TO.N,/BUSACK*%
X321310000Y-203200000D03*
X321310000Y-140970000D03*
X41910000Y-203200000D03*
%TO.N,/M1*%
X314960000Y-165645500D03*
X221615000Y-166460000D03*
X78740000Y-49530000D03*
X196655201Y-166010000D03*
X83820000Y-165369000D03*
%TO.N,/IO/A0*%
X316198581Y-158025500D03*
X68580000Y-129540000D03*
X63500000Y-74930000D03*
X68580000Y-158115000D03*
X231775000Y-158025500D03*
X316198267Y-175895000D03*
X353695000Y-157936000D03*
X62230000Y-48260000D03*
X48250000Y-163840000D03*
X208280000Y-158025500D03*
%TO.N,/IO/A1*%
X354965000Y-158660500D03*
X317500000Y-174625000D03*
X62230000Y-76200000D03*
X67310000Y-158839500D03*
X230505000Y-158660500D03*
X317500000Y-158660500D03*
%TO.N,/IO/A2*%
X308610000Y-159385000D03*
X66040000Y-159385000D03*
X59690000Y-48260000D03*
X356235000Y-159385000D03*
X229235000Y-159295500D03*
%TO.N,/IO/A3*%
X307340000Y-160020000D03*
X227965000Y-159930500D03*
X64770000Y-160020000D03*
%TO.N,/IO/A4*%
X57150000Y-48260000D03*
X63500000Y-160655000D03*
X306070000Y-160655000D03*
X226695000Y-160476000D03*
%TO.N,/IO/A5*%
X236220000Y-161111000D03*
X62230000Y-161290000D03*
X225425000Y-161200500D03*
X304800000Y-161290000D03*
%TO.N,/IO/A6*%
X303530000Y-161925000D03*
X224155000Y-161835500D03*
X60960000Y-161925000D03*
X234950000Y-161835500D03*
X54610000Y-48260000D03*
%TO.N,/IO/A7*%
X59690000Y-162560000D03*
X222885000Y-162470500D03*
X233680000Y-162470500D03*
X302260000Y-162560000D03*
%TO.N,/IO/A8*%
X273685000Y-95250000D03*
%TO.N,/IO/A9*%
X50800000Y-49530000D03*
%TO.N,/IO/A10*%
X275590000Y-96520000D03*
%TO.N,/ROM_CE*%
X280035000Y-170180000D03*
%TO.N,/RAM_CE*%
X246380000Y-132715000D03*
X265430000Y-165010500D03*
X246380000Y-165645500D03*
%TO.N,/PPI_CE*%
X243205000Y-167175500D03*
X90170000Y-166370000D03*
%TO.N,/RESET_IO*%
X352425000Y-69215000D03*
X126365000Y-72935500D03*
X314325000Y-69215000D03*
%TO.N,/RX*%
X364490000Y-119380000D03*
%TO.N,/TX*%
X361860500Y-121920000D03*
%TO.N,/UART_CE*%
X247650000Y-167005000D03*
X341642299Y-166992701D03*
%TO.N,Net-(U5-Pad36)*%
X362585000Y-107950000D03*
%TO.N,/DSR*%
X366395000Y-105410000D03*
%TO.N,Net-(U17-Pad2)*%
X187325000Y-146685000D03*
%TO.N,/VIDEO/VA4*%
X163195000Y-102870000D03*
%TO.N,Net-(U17-Pad6)*%
X160655000Y-147320000D03*
X145415000Y-147320000D03*
%TO.N,Net-(U10-Pad1)*%
X155575000Y-148590000D03*
X188595000Y-148590000D03*
X188595000Y-105410000D03*
X99695000Y-148590000D03*
%TO.N,Net-(U10-Pad11)*%
X161925000Y-130810000D03*
%TO.N,/VIDEO/VD7*%
X180340000Y-145960500D03*
X156845000Y-145960500D03*
%TO.N,/VIDEO/VD6*%
X154305000Y-145325500D03*
X181610000Y-145415000D03*
%TO.N,/VIDEO/VD5*%
X151765000Y-144601000D03*
X186600500Y-144780000D03*
%TO.N,/VIDEO/VD4*%
X149225000Y-143876500D03*
X185420000Y-144055500D03*
%TO.N,/VIDEO/VD3*%
X146685000Y-140335000D03*
%TO.N,/VIDEO/VD2*%
X170180000Y-141426000D03*
X144145000Y-140335000D03*
%TO.N,/VIDEO/VD1*%
X171450000Y-142150500D03*
X141605000Y-140335000D03*
%TO.N,/VIDEO/VD0*%
X139065000Y-140335000D03*
X172720000Y-142875000D03*
%TO.N,/VIDEO/{slash}CAS*%
X179070000Y-149591000D03*
X154305000Y-150495000D03*
X100965000Y-150500000D03*
%TO.N,Net-(U13-Pad12)*%
X262890000Y-166280500D03*
X352425000Y-166370000D03*
%TO.N,/CF_CE*%
X242570000Y-198755000D03*
%TO.N,/CTC_CE*%
X241959500Y-149591000D03*
X209550000Y-149591000D03*
%TO.N,/PSG_CE*%
X250190000Y-164921000D03*
X45085000Y-165100000D03*
%TO.N,/VDP_CE*%
X115570000Y-164644000D03*
X248920000Y-164196500D03*
%TO.N,/VIDEO/{slash}RAS*%
X149225000Y-149770500D03*
X102235000Y-149770500D03*
%TO.N,/SOUND/ROW7*%
X31730000Y-167080000D03*
%TO.N,/SOUND/COL7*%
X25380000Y-165810000D03*
%TO.N,/SOUND/COL6*%
X21570000Y-164540000D03*
%TO.N,/SOUND/COL5*%
X22840000Y-163270000D03*
%TO.N,/SOUND/COL4*%
X24110000Y-162000000D03*
%TO.N,/SOUND/COL3*%
X20300000Y-160730000D03*
%TO.N,/SOUND/COL2*%
X26650000Y-159460000D03*
%TO.N,/SOUND/COL1*%
X27920000Y-158190000D03*
%TO.N,/SOUND/COL0*%
X29190000Y-168302500D03*
%TO.N,VCC*%
X353060000Y-189595000D03*
X131445000Y-92710000D03*
X231140000Y-58420000D03*
X183515000Y-92710000D03*
X381000000Y-168005000D03*
X85814500Y-50800000D03*
X330200000Y-86360000D03*
X183515000Y-60325000D03*
%TO.N,/DEV_CS1*%
X245110000Y-199935500D03*
X40640000Y-200025000D03*
%TO.N,Net-(U26-Pad9)*%
X175945000Y-181600000D03*
%TO.N,Net-(JP3-Pad2)*%
X174625000Y-199479500D03*
X174675000Y-173980000D03*
%TO.N,/IO/Casette Interface/PC7*%
X194945000Y-81369500D03*
%TO.N,/IO/Casette Interface/PC6*%
X206375000Y-84455000D03*
%TO.N,/IO/Casette Interface/PC5*%
X205105000Y-83724500D03*
%TO.N,/IO/Casette Interface/PC4*%
X209295000Y-83820000D03*
%TO.N,/IO/Casette Interface/PC2*%
X207617844Y-82819000D03*
%TO.N,/IO/Casette Interface/PC3*%
X208369500Y-81915000D03*
%TO.N,/RD*%
X80010000Y-163284500D03*
X283210000Y-164286000D03*
X191770000Y-163195000D03*
X74930000Y-77470000D03*
X264160000Y-163105500D03*
X311150000Y-164375500D03*
X120650000Y-163195000D03*
X358775000Y-164465000D03*
%TO.N,/MR*%
X331470000Y-181340000D03*
X351790000Y-181340000D03*
X256540000Y-199300500D03*
%TO.N,/WR*%
X81280000Y-163919500D03*
X313690000Y-165010500D03*
X76200000Y-50800000D03*
X76200000Y-66040000D03*
X346075000Y-165100000D03*
X125730000Y-163919500D03*
X52070000Y-163830000D03*
X286385000Y-165010500D03*
X219710000Y-164020500D03*
X64770000Y-50800000D03*
%TO.N,Net-(U13-Pad8)*%
X260985000Y-198665500D03*
X292735000Y-198665500D03*
%TD*%
D48*
%TO.N,/VIDEO/VD3*%
X110495000Y-127005000D02*
X109855000Y-127005000D01*
X114300000Y-130810000D02*
X110495000Y-127005000D01*
X144780000Y-142875000D02*
X116840000Y-142875000D01*
X114300000Y-140335000D02*
X114300000Y-130810000D01*
X146685000Y-140970000D02*
X144780000Y-142875000D01*
X146685000Y-140335000D02*
X146685000Y-140970000D01*
X116840000Y-142875000D02*
X114300000Y-140335000D01*
%TO.N,/VIDEO/VD1*%
X115570000Y-127640000D02*
X109855000Y-121925000D01*
X115570000Y-139065000D02*
X115570000Y-127640000D01*
X117475000Y-140970000D02*
X115570000Y-139065000D01*
X138674695Y-140970000D02*
X117475000Y-140970000D01*
X138764695Y-141060000D02*
X138674695Y-140970000D01*
X140970000Y-140970000D02*
X139455305Y-140970000D01*
X139455305Y-140970000D02*
X139365305Y-141060000D01*
X141605000Y-140335000D02*
X140970000Y-140970000D01*
X139365305Y-141060000D02*
X138764695Y-141060000D01*
%TO.N,/VIDEO/VD2*%
X114935000Y-129540000D02*
X109860000Y-124465000D01*
X117475000Y-142240000D02*
X114935000Y-139700000D01*
X142240000Y-142240000D02*
X117475000Y-142240000D01*
X109860000Y-124465000D02*
X109855000Y-124465000D01*
X144145000Y-140335000D02*
X142240000Y-142240000D01*
X114935000Y-139700000D02*
X114935000Y-129540000D01*
X170180000Y-135255000D02*
X168275000Y-133350000D01*
X170180000Y-141426000D02*
X170180000Y-135255000D01*
%TO.N,/VIDEO/VD1*%
X171450000Y-133985000D02*
X168275000Y-130810000D01*
X171450000Y-142150500D02*
X171450000Y-133985000D01*
%TO.N,/VIDEO/VD0*%
X172720000Y-142875000D02*
X172720000Y-132715000D01*
X172720000Y-132715000D02*
X168275000Y-128270000D01*
%TO.N,/VIDEO/VD4*%
X185420000Y-135255000D02*
X183515000Y-133350000D01*
X185420000Y-144055500D02*
X185420000Y-135255000D01*
X113665000Y-133355000D02*
X109855000Y-129545000D01*
X113665000Y-140970000D02*
X113665000Y-133355000D01*
X116571500Y-143876500D02*
X113665000Y-140970000D01*
X149225000Y-143876500D02*
X116571500Y-143876500D01*
X147960000Y-132085000D02*
X147960000Y-130900000D01*
X148925000Y-136860698D02*
X148925000Y-133050000D01*
X149225000Y-137160698D02*
X148925000Y-136860698D01*
X149225000Y-143876500D02*
X149225000Y-137160698D01*
X148925000Y-133050000D02*
X147960000Y-132085000D01*
%TO.N,/VIDEO/VD5*%
X113030000Y-135260000D02*
X109855000Y-132085000D01*
X113030000Y-141605000D02*
X113030000Y-135260000D01*
X116026000Y-144601000D02*
X113030000Y-141605000D01*
X151765000Y-144601000D02*
X116026000Y-144601000D01*
X150500000Y-134625000D02*
X150500000Y-130900000D01*
X151765000Y-135890000D02*
X150500000Y-134625000D01*
X151765000Y-144601000D02*
X151765000Y-135890000D01*
X186600500Y-144780000D02*
X186600500Y-133895500D01*
X186600500Y-133895500D02*
X183515000Y-130810000D01*
%TO.N,/VIDEO/VD6*%
X181610000Y-130175000D02*
X183515000Y-128270000D01*
X181610000Y-145415000D02*
X181610000Y-130175000D01*
X112395000Y-137160000D02*
X109855000Y-134620000D01*
X112395000Y-142240000D02*
X112395000Y-137160000D01*
X115480500Y-145325500D02*
X112395000Y-142240000D01*
X154305000Y-145325500D02*
X115480500Y-145325500D01*
X154305000Y-135255000D02*
X153040000Y-133990000D01*
X154305000Y-145325500D02*
X154305000Y-135255000D01*
X153040000Y-133990000D02*
X153040000Y-130900000D01*
%TO.N,/VIDEO/VD7*%
X111760000Y-139070000D02*
X109855000Y-137165000D01*
X111760000Y-142875698D02*
X111760000Y-139070000D01*
X146205195Y-146050000D02*
X114934302Y-146050000D01*
X146384695Y-145870500D02*
X146205195Y-146050000D01*
X147164805Y-146050000D02*
X146985305Y-145870500D01*
X156755500Y-146050000D02*
X147164805Y-146050000D01*
X146985305Y-145870500D02*
X146384695Y-145870500D01*
X156845000Y-145960500D02*
X156755500Y-146050000D01*
X114934302Y-146050000D02*
X111760000Y-142875698D01*
X155575000Y-133350000D02*
X155580000Y-133345000D01*
X156845000Y-134620000D02*
X155575000Y-133350000D01*
X156845000Y-145960500D02*
X156845000Y-134620000D01*
X155580000Y-133345000D02*
X155580000Y-130900000D01*
X180340000Y-128905000D02*
X183515000Y-125730000D01*
X180340000Y-145960500D02*
X180340000Y-128905000D01*
%TO.N,Net-(U17-Pad2)*%
X146685000Y-146595500D02*
X146685000Y-173350000D01*
X146685000Y-173350000D02*
X149865000Y-176530000D01*
%TO.N,Net-(U17-Pad6)*%
X145415000Y-182245000D02*
X145415000Y-147320000D01*
%TO.N,Net-(U17-Pad2)*%
X163175000Y-100420000D02*
X158120000Y-100420000D01*
X166750000Y-103995000D02*
X163175000Y-100420000D01*
X184380990Y-103995000D02*
X166750000Y-103995000D01*
X187325000Y-146685000D02*
X187325000Y-106939010D01*
X187325000Y-106939010D02*
X184380990Y-103995000D01*
%TO.N,Net-(U17-Pad6)*%
X160655000Y-118210000D02*
X158115000Y-115670000D01*
X160655000Y-147320000D02*
X160655000Y-118210000D01*
%TO.N,Net-(U10-Pad1)*%
X155575000Y-179705000D02*
X155575000Y-148590000D01*
%TO.N,/WR*%
X237215000Y-100055000D02*
X248920000Y-100055000D01*
X235945000Y-98785000D02*
X237215000Y-100055000D01*
X221615000Y-109580000D02*
X232410000Y-98785000D01*
X221615000Y-154940000D02*
X221615000Y-109580000D01*
X219710000Y-156845000D02*
X221615000Y-154940000D01*
X219710000Y-164020500D02*
X219710000Y-156845000D01*
X232410000Y-98785000D02*
X235945000Y-98785000D01*
%TO.N,/{slash}RESET*%
X272415000Y-86995000D02*
X273595500Y-88175500D01*
X273595500Y-88175500D02*
X278040500Y-88175500D01*
X278040500Y-88175500D02*
X278130000Y-88265000D01*
%TO.N,/XTAL*%
X300990000Y-86360000D02*
X278130000Y-86360000D01*
%TO.N,/IO/A0*%
X208280000Y-125145000D02*
X210870000Y-122555000D01*
X208280000Y-158025500D02*
X208280000Y-125145000D01*
%TO.N,/CTC_CE*%
X209345000Y-133778604D02*
X209345000Y-129160000D01*
X209345000Y-129160000D02*
X210870000Y-127635000D01*
X209365000Y-133798604D02*
X209345000Y-133778604D01*
X209550000Y-149591000D02*
X209365000Y-149406000D01*
X209365000Y-149406000D02*
X209365000Y-133798604D01*
%TO.N,/IO/A1*%
X205195000Y-157390000D02*
X203835000Y-158750000D01*
X205195000Y-125640000D02*
X205195000Y-157390000D01*
X210820000Y-120015000D02*
X205195000Y-125640000D01*
X210870000Y-120015000D02*
X210820000Y-120015000D01*
%TO.N,/CTC_CE*%
X241935000Y-183505000D02*
X245110000Y-186680000D01*
X241959500Y-149591000D02*
X241935000Y-149615500D01*
X241935000Y-149615500D02*
X241935000Y-183505000D01*
%TO.N,/BUS Expansion/D0*%
X203200000Y-149815250D02*
X203200000Y-112395000D01*
X204425250Y-151040500D02*
X203200000Y-149815250D01*
X204470000Y-151040500D02*
X204425250Y-151040500D01*
X203200000Y-112395000D02*
X210820000Y-104775000D01*
X210820000Y-104775000D02*
X210870000Y-104775000D01*
%TO.N,/BUS Expansion/D1*%
X202565000Y-151130000D02*
X202565000Y-110540000D01*
X203200000Y-151765000D02*
X202565000Y-151130000D01*
X202565000Y-110540000D02*
X210870000Y-102235000D01*
%TO.N,/BUS Expansion/D2*%
X201930000Y-108635000D02*
X210870000Y-99695000D01*
X201930000Y-151897991D02*
X201930000Y-108635000D01*
X202637033Y-152605024D02*
X201930000Y-151897991D01*
%TO.N,/BUS Expansion/D3*%
X201295000Y-106730000D02*
X210870000Y-97155000D01*
X201930000Y-153311500D02*
X201295000Y-152676500D01*
X201295000Y-152676500D02*
X201295000Y-106730000D01*
%TO.N,/BUS Expansion/D5*%
X200660000Y-104725000D02*
X195630000Y-99695000D01*
X200660000Y-104775000D02*
X200660000Y-104725000D01*
X200660000Y-154850500D02*
X200660000Y-104775000D01*
%TO.N,/BUS Expansion/D6*%
X200025000Y-106630000D02*
X195630000Y-102235000D01*
X200025000Y-111125000D02*
X200025000Y-106630000D01*
%TO.N,/BUS Expansion/D7*%
X199390000Y-108535000D02*
X195630000Y-104775000D01*
X199390000Y-111125000D02*
X199390000Y-108535000D01*
%TO.N,/BUS Expansion/D6*%
X199479500Y-147230500D02*
X200025000Y-146685000D01*
X199479500Y-155485500D02*
X199479500Y-147230500D01*
X200025000Y-146685000D02*
X200025000Y-111126396D01*
%TO.N,/BUS Expansion/D7*%
X199390000Y-146050000D02*
X199390000Y-111125000D01*
X198299500Y-147140500D02*
X199390000Y-146050000D01*
X198299500Y-156210000D02*
X198299500Y-147140500D01*
%TO.N,Net-(R42-Pad1)*%
X197649999Y-129654999D02*
X197649999Y-136310001D01*
X197649999Y-136310001D02*
X196850000Y-137110000D01*
X195630000Y-127635000D02*
X197649999Y-129654999D01*
%TO.N,/M1*%
X196760500Y-156755500D02*
X194310000Y-154305000D01*
X194310000Y-154305000D02*
X194310000Y-131495000D01*
X194310000Y-131495000D02*
X195630000Y-130175000D01*
X196760500Y-165904701D02*
X196760500Y-156755500D01*
X196655201Y-166010000D02*
X196760500Y-165904701D01*
%TO.N,/CTC_INT*%
X198755000Y-128220000D02*
X198755000Y-130810000D01*
X195630000Y-125095000D02*
X198755000Y-128220000D01*
X202665000Y-185415000D02*
X206495000Y-189245000D01*
X196255000Y-185415000D02*
X202665000Y-185415000D01*
X194985000Y-184145000D02*
X196255000Y-185415000D01*
X194985000Y-172715000D02*
X194985000Y-184145000D01*
X197575000Y-170125000D02*
X194985000Y-172715000D01*
X198755000Y-145415000D02*
X197575000Y-146595000D01*
X197575000Y-146595000D02*
X197575000Y-170125000D01*
X198755000Y-130765000D02*
X198755000Y-145415000D01*
%TO.N,VCC*%
X290195000Y-43180000D02*
X293370000Y-43180000D01*
%TO.N,Net-(D7-Pad1)*%
X290195000Y-50800000D02*
X293370000Y-50800000D01*
D49*
%TO.N,VCC*%
X290195000Y-43180000D02*
X290195000Y-34925000D01*
D48*
%TO.N,/BUS Expansion/D2*%
X180995000Y-186690000D02*
X183515000Y-186690000D01*
X179070000Y-152489500D02*
X179070000Y-184765000D01*
X179070000Y-184765000D02*
X180995000Y-186690000D01*
%TO.N,Net-(U10-Pad1)*%
X188595000Y-148590000D02*
X188595000Y-105410000D01*
%TO.N,/VIDEO/{slash}RAS*%
X149225000Y-173350000D02*
X149865000Y-173990000D01*
X149225000Y-149770500D02*
X149225000Y-173350000D01*
%TO.N,/VIDEO/{slash}CAS*%
X179070000Y-149591000D02*
X179070000Y-127635000D01*
X179070000Y-127635000D02*
X183515000Y-123190000D01*
X154305000Y-184785000D02*
X154305000Y-150495000D01*
%TO.N,/MREQ*%
X267335000Y-169545000D02*
X267335000Y-173990000D01*
X278130000Y-158750000D02*
X267335000Y-169545000D01*
X278130000Y-148590000D02*
X278130000Y-158750000D01*
%TO.N,/IO/A2*%
X356235000Y-159385000D02*
X356235000Y-135855000D01*
X356235000Y-135855000D02*
X358770000Y-133320000D01*
%TO.N,/IO/A0*%
X353695000Y-133315000D02*
X358770000Y-128240000D01*
X353695000Y-157936000D02*
X353695000Y-133315000D01*
%TO.N,/IO/A1*%
X354965000Y-134585000D02*
X358770000Y-130780000D01*
X354965000Y-158660500D02*
X354965000Y-134585000D01*
%TO.N,/IO/A0*%
X316230000Y-175863267D02*
X316198267Y-175895000D01*
X316198581Y-158025500D02*
X316230000Y-158056919D01*
X316230000Y-128270000D02*
X311150000Y-123190000D01*
X316230000Y-157994081D02*
X316230000Y-128270000D01*
X316198581Y-158025500D02*
X316230000Y-157994081D01*
X316230000Y-158056919D02*
X316230000Y-175863267D01*
%TO.N,/IO/A1*%
X317500000Y-127000000D02*
X311150000Y-120650000D01*
X317500000Y-158660500D02*
X317500000Y-127000000D01*
X317500000Y-158660500D02*
X317500000Y-174625000D01*
%TO.N,/IORQ*%
X289601396Y-181610000D02*
X286425000Y-181610000D01*
X293411396Y-177800000D02*
X289601396Y-181610000D01*
X295910000Y-176530000D02*
X294640000Y-177800000D01*
X295910000Y-157390500D02*
X295910000Y-176530000D01*
X295910000Y-146050000D02*
X295910000Y-157390500D01*
X294640000Y-177800000D02*
X293411396Y-177800000D01*
%TO.N,/IO/A2*%
X309880000Y-118110000D02*
X311150000Y-118110000D01*
X308610000Y-119380000D02*
X309880000Y-118110000D01*
X308610000Y-159385000D02*
X308610000Y-119380000D01*
%TO.N,/IO/A3*%
X308610000Y-115570000D02*
X311150000Y-115570000D01*
X307340000Y-116840000D02*
X308610000Y-115570000D01*
X307340000Y-160020000D02*
X307340000Y-116840000D01*
%TO.N,/IO/A4*%
X307340000Y-113030000D02*
X311150000Y-113030000D01*
X306070000Y-114300000D02*
X307340000Y-113030000D01*
X306070000Y-160655000D02*
X306070000Y-114300000D01*
%TO.N,/IO/A5*%
X306070000Y-110490000D02*
X311150000Y-110490000D01*
X304800000Y-111760000D02*
X306070000Y-110490000D01*
X304800000Y-161290000D02*
X304800000Y-111760000D01*
%TO.N,/IO/A6*%
X304800000Y-107950000D02*
X311150000Y-107950000D01*
X303530000Y-109220000D02*
X304800000Y-107950000D01*
X303530000Y-161925000D02*
X303530000Y-109220000D01*
%TO.N,/IO/A7*%
X303530000Y-105410000D02*
X311150000Y-105410000D01*
X302260000Y-106680000D02*
X303530000Y-105410000D01*
X302260000Y-162560000D02*
X302260000Y-106680000D01*
%TO.N,/RD*%
X264160000Y-181060000D02*
X260970000Y-184250000D01*
X264160000Y-163105500D02*
X264160000Y-181060000D01*
%TO.N,/VDP_CE*%
X248920000Y-177790000D02*
X245110000Y-181600000D01*
X248920000Y-164196500D02*
X248920000Y-177790000D01*
%TO.N,/PSG_CE*%
X245110000Y-184055000D02*
X245110000Y-184140000D01*
X250190000Y-178975000D02*
X245110000Y-184055000D01*
X250190000Y-164921000D02*
X250190000Y-178975000D01*
%TO.N,/RAM_CE*%
X246380000Y-165645500D02*
X246380000Y-132715000D01*
%TO.N,/M1*%
X221695000Y-166540000D02*
X221695000Y-173990000D01*
X221615000Y-166460000D02*
X221695000Y-166540000D01*
%TO.N,/VDP_CE*%
X115555000Y-164659000D02*
X115555000Y-173990000D01*
X115570000Y-164644000D02*
X115555000Y-164659000D01*
%TO.N,/PPI_CE*%
X116885000Y-79965000D02*
X116885000Y-78785000D01*
X93345000Y-81915000D02*
X114935000Y-81915000D01*
X90170000Y-166370000D02*
X90170000Y-85090000D01*
X114935000Y-81915000D02*
X116885000Y-79965000D01*
X90170000Y-85090000D02*
X93345000Y-81915000D01*
%TO.N,/VDP_INT*%
X96525000Y-137165000D02*
X94615000Y-137165000D01*
X97790000Y-166093500D02*
X97790000Y-138430000D01*
X97790000Y-138430000D02*
X96525000Y-137165000D01*
%TO.N,/M1*%
X78740000Y-95250000D02*
X78740000Y-49530000D01*
X83820000Y-165369000D02*
X83820000Y-100330000D01*
X83820000Y-100330000D02*
X78740000Y-95250000D01*
%TO.N,/BUS Expansion/D0*%
X331470000Y-109820000D02*
X343530000Y-97760000D01*
X347345000Y-174990000D02*
X355267500Y-182912500D01*
X331470000Y-172085000D02*
X334375000Y-174990000D01*
X355267500Y-182912500D02*
X355267500Y-184150000D01*
X331470000Y-151130000D02*
X331470000Y-172085000D01*
X334375000Y-174990000D02*
X347345000Y-174990000D01*
X331470000Y-151130000D02*
X331470000Y-109820000D01*
X293370000Y-133350000D02*
X295910000Y-130810000D01*
X293370000Y-151130000D02*
X293370000Y-133350000D01*
X261620000Y-127995000D02*
X256540000Y-122915000D01*
X262890000Y-151130000D02*
X261620000Y-149860000D01*
X261620000Y-149860000D02*
X261620000Y-127995000D01*
%TO.N,/IO/A8*%
X264160000Y-112755000D02*
X271780000Y-105135000D01*
X264160000Y-153035000D02*
X264160000Y-112755000D01*
X253350000Y-163845000D02*
X264160000Y-153035000D01*
X253350000Y-174090000D02*
X253350000Y-163845000D01*
%TO.N,/BUS Expansion/D0*%
X181610000Y-174625000D02*
X183515000Y-176530000D01*
X181610000Y-151040500D02*
X181610000Y-174625000D01*
%TO.N,/BUS Expansion/D1*%
X180340000Y-151765000D02*
X180340000Y-180975000D01*
X260350000Y-129265000D02*
X256540000Y-125455000D01*
X260350000Y-150495000D02*
X260350000Y-129265000D01*
X261620000Y-151765000D02*
X260350000Y-150495000D01*
X298450000Y-152042000D02*
X298450000Y-135890000D01*
X298450000Y-135890000D02*
X295910000Y-133350000D01*
X332740000Y-111090000D02*
X343530000Y-100300000D01*
X332740000Y-152042000D02*
X332740000Y-111090000D01*
X357267500Y-182372500D02*
X357267500Y-184150000D01*
X335645000Y-174355000D02*
X349250000Y-174355000D01*
X349250000Y-174355000D02*
X357267500Y-182372500D01*
X332740000Y-171450000D02*
X335645000Y-174355000D01*
X332740000Y-152042000D02*
X332740000Y-171450000D01*
%TO.N,/BUS Expansion/D2*%
X259080000Y-130535000D02*
X256540000Y-127995000D01*
X260350000Y-152677000D02*
X259080000Y-151407000D01*
X259080000Y-151407000D02*
X259080000Y-130535000D01*
X290830000Y-130810000D02*
X295910000Y-125730000D01*
X290830000Y-152677000D02*
X290830000Y-130810000D01*
X334010000Y-112360000D02*
X343530000Y-102840000D01*
X334010000Y-152766500D02*
X334010000Y-112360000D01*
X359267500Y-181832500D02*
X359267500Y-184150000D01*
X336915000Y-173720000D02*
X351155000Y-173720000D01*
X334010000Y-170815000D02*
X336915000Y-173720000D01*
X334010000Y-152766500D02*
X334010000Y-170815000D01*
X351155000Y-173720000D02*
X359267500Y-181832500D01*
%TO.N,/IO/Casette Interface/PC6*%
X206375000Y-70485000D02*
X203200000Y-67310000D01*
X206375000Y-84455000D02*
X206375000Y-70485000D01*
%TO.N,/IO/Casette Interface/PC5*%
X205105000Y-74295000D02*
X203200000Y-72390000D01*
X205105000Y-83724500D02*
X205105000Y-74295000D01*
%TO.N,/IO/Casette Interface/PC4*%
X209295000Y-83820000D02*
X209295000Y-76455000D01*
X209295000Y-76455000D02*
X210820000Y-74930000D01*
%TO.N,/IO/Casette Interface/PC2*%
X207645000Y-67945000D02*
X210820000Y-64770000D01*
X207645000Y-82791844D02*
X207645000Y-67945000D01*
X207617844Y-82819000D02*
X207645000Y-82791844D01*
%TO.N,/BUS Expansion/D3*%
X177800000Y-153580500D02*
X177800000Y-191770000D01*
X271780000Y-130535000D02*
X271780000Y-153401500D01*
X299720000Y-119380000D02*
X295910000Y-115570000D01*
X299720000Y-153401500D02*
X299720000Y-119380000D01*
X335280000Y-153491000D02*
X335280000Y-113630000D01*
X361267500Y-181292500D02*
X361267500Y-184150000D01*
X353060000Y-173085000D02*
X361267500Y-181292500D01*
X335280000Y-113630000D02*
X343530000Y-105380000D01*
X335280000Y-170045000D02*
X338320000Y-173085000D01*
X338320000Y-173085000D02*
X353060000Y-173085000D01*
X335280000Y-153491000D02*
X335280000Y-170045000D01*
%TO.N,/BUS Expansion/D4*%
X336550000Y-114900000D02*
X343530000Y-107920000D01*
X336550000Y-154215500D02*
X336550000Y-114900000D01*
X354965000Y-172450000D02*
X363267500Y-180752500D01*
X336550000Y-169545000D02*
X339455000Y-172450000D01*
X336550000Y-154215500D02*
X336550000Y-169545000D01*
X339455000Y-172450000D02*
X354965000Y-172450000D01*
X363267500Y-180752500D02*
X363267500Y-184150000D01*
X300990000Y-118110000D02*
X295910000Y-113030000D01*
X300990000Y-154215500D02*
X300990000Y-118110000D01*
X269240000Y-130535000D02*
X271780000Y-127995000D01*
X269240000Y-154126000D02*
X269240000Y-130535000D01*
%TO.N,/BUS Expansion/D5*%
X187960000Y-183515000D02*
X191135000Y-186690000D01*
X186690000Y-154850500D02*
X187960000Y-156120500D01*
X187960000Y-156120500D02*
X187960000Y-183515000D01*
%TO.N,/BUS Expansion/D4*%
X185050000Y-188225000D02*
X191135000Y-194310000D01*
X185050000Y-155115500D02*
X185050000Y-188225000D01*
X184150000Y-154215500D02*
X185050000Y-155115500D01*
X190500000Y-154036000D02*
X190500000Y-102235000D01*
%TO.N,/BUS Expansion/D5*%
X267970000Y-129265000D02*
X271780000Y-125455000D01*
X267970000Y-154850500D02*
X267970000Y-129265000D01*
X288290000Y-125730000D02*
X295910000Y-118110000D01*
X288290000Y-154850500D02*
X288290000Y-125730000D01*
X365267500Y-180212500D02*
X365267500Y-184150000D01*
X340725000Y-171815000D02*
X356870000Y-171815000D01*
X337820000Y-168910000D02*
X340725000Y-171815000D01*
X337820000Y-154850500D02*
X337820000Y-116170000D01*
X337820000Y-154850500D02*
X337820000Y-168910000D01*
X356870000Y-171815000D02*
X365267500Y-180212500D01*
X337820000Y-116170000D02*
X343530000Y-110460000D01*
%TO.N,/BUS Expansion/D6*%
X367267500Y-179672500D02*
X367267500Y-184150000D01*
X358775000Y-171180000D02*
X367267500Y-179672500D01*
X341995000Y-171180000D02*
X358775000Y-171180000D01*
X339090000Y-168275000D02*
X341995000Y-171180000D01*
X339090000Y-155485500D02*
X339090000Y-168275000D01*
X339090000Y-117440000D02*
X343530000Y-113000000D01*
X339090000Y-155485500D02*
X339090000Y-117440000D01*
X289560000Y-127000000D02*
X295910000Y-120650000D01*
X289560000Y-155485500D02*
X289560000Y-127000000D01*
X266700000Y-127995000D02*
X271780000Y-122915000D01*
X266700000Y-155485500D02*
X266700000Y-127995000D01*
X189230000Y-182245000D02*
X191135000Y-184150000D01*
X189230000Y-155485500D02*
X189230000Y-182245000D01*
%TO.N,/BUS Expansion/D7*%
X265430000Y-126725000D02*
X271780000Y-120375000D01*
X265430000Y-156120500D02*
X265430000Y-126725000D01*
X369267500Y-179132500D02*
X369267500Y-184150000D01*
X360680000Y-170545000D02*
X369267500Y-179132500D01*
X343265000Y-170545000D02*
X360680000Y-170545000D01*
X340360000Y-156210000D02*
X340360000Y-167640000D01*
X340360000Y-167640000D02*
X343265000Y-170545000D01*
X340360000Y-118710000D02*
X343530000Y-115540000D01*
X340360000Y-156210000D02*
X340360000Y-118710000D01*
X292100000Y-156120500D02*
X292100000Y-132080000D01*
X292100000Y-132080000D02*
X295910000Y-128270000D01*
X193040000Y-159385000D02*
X193040000Y-174625000D01*
X193040000Y-174625000D02*
X191135000Y-176530000D01*
X194310000Y-158115000D02*
X193040000Y-159385000D01*
X194310000Y-156210000D02*
X194310000Y-158115000D01*
%TO.N,/IO/A0*%
X231775000Y-122280000D02*
X233680000Y-120375000D01*
X231775000Y-158025500D02*
X231775000Y-122280000D01*
%TO.N,/IO/A1*%
X230505000Y-121010000D02*
X233680000Y-117835000D01*
X230505000Y-158660500D02*
X230505000Y-121010000D01*
%TO.N,/IO/A2*%
X229235000Y-119740000D02*
X233680000Y-115295000D01*
X229235000Y-159295500D02*
X229235000Y-119740000D01*
%TO.N,/IO/A5*%
X236220000Y-172710000D02*
X237490000Y-173980000D01*
X236220000Y-161111000D02*
X236220000Y-172710000D01*
%TO.N,/IO/A6*%
X234950000Y-173980000D02*
X237490000Y-176520000D01*
X234950000Y-161835500D02*
X234950000Y-173980000D01*
%TO.N,/IO/A3*%
X227965000Y-118470000D02*
X233680000Y-112755000D01*
X227965000Y-159930500D02*
X227965000Y-118470000D01*
%TO.N,/IO/A4*%
X226695000Y-117200000D02*
X233680000Y-110215000D01*
X226695000Y-160476000D02*
X226695000Y-117200000D01*
%TO.N,/IORQ*%
X219075000Y-175260000D02*
X220345000Y-176530000D01*
X219075000Y-167005000D02*
X219075000Y-175260000D01*
X220980000Y-165100000D02*
X219075000Y-167005000D01*
X220980000Y-157390500D02*
X220980000Y-165100000D01*
X220345000Y-176530000D02*
X221695000Y-176530000D01*
X193040000Y-157390500D02*
X193040000Y-122555000D01*
X113665000Y-157390500D02*
X113650000Y-157405500D01*
X113650000Y-174610000D02*
X113665000Y-174625000D01*
X113650000Y-157405500D02*
X113650000Y-174610000D01*
X78783000Y-46947000D02*
X78783000Y-39370000D01*
X77470000Y-95250000D02*
X77470000Y-48260000D01*
X82550000Y-100330000D02*
X77470000Y-95250000D01*
X77470000Y-48260000D02*
X78783000Y-46947000D01*
X82550000Y-157390500D02*
X82550000Y-100330000D01*
%TO.N,/IO/A5*%
X225425000Y-115930000D02*
X233680000Y-107675000D01*
X225425000Y-161200500D02*
X225425000Y-115930000D01*
%TO.N,/IO/A6*%
X224155000Y-114660000D02*
X233680000Y-105135000D01*
X224155000Y-161835500D02*
X224155000Y-114660000D01*
%TO.N,/RD*%
X358775000Y-164465000D02*
X358775000Y-146025000D01*
X358775000Y-146025000D02*
X358770000Y-146020000D01*
%TO.N,/IO/A15*%
X276860000Y-158750000D02*
X276860000Y-137160000D01*
X266210000Y-175405000D02*
X266210000Y-169400000D01*
X266210000Y-169400000D02*
X276860000Y-158750000D01*
X267335000Y-176530000D02*
X266210000Y-175405000D01*
%TO.N,/WR*%
X125730000Y-163919500D02*
X125730000Y-181610000D01*
%TO.N,/IO/A7*%
X233680000Y-175250000D02*
X237490000Y-179060000D01*
X233680000Y-162470500D02*
X233680000Y-175250000D01*
X232410000Y-102595000D02*
X233680000Y-102595000D01*
X222885000Y-112120000D02*
X232410000Y-102595000D01*
X222885000Y-162470500D02*
X222885000Y-112120000D01*
%TO.N,/RD*%
X191770000Y-163195000D02*
X191770000Y-113665000D01*
X120650000Y-163195000D02*
X120650000Y-179070000D01*
%TO.N,/M1*%
X196655201Y-169739799D02*
X194310000Y-172085000D01*
X196655201Y-166010000D02*
X196655201Y-169739799D01*
%TO.N,/IO/A2*%
X339442500Y-188325000D02*
X337267500Y-186150000D01*
X372110000Y-188325000D02*
X339442500Y-188325000D01*
X373380000Y-187055000D02*
X372110000Y-188325000D01*
X356235000Y-163195000D02*
X373380000Y-180340000D01*
X356235000Y-143875000D02*
X356235000Y-163195000D01*
X373380000Y-180340000D02*
X373380000Y-187055000D01*
%TO.N,/RD*%
X283210000Y-118110000D02*
X277855000Y-112755000D01*
X283210000Y-164286000D02*
X283210000Y-118110000D01*
X277855000Y-112755000D02*
X271780000Y-112755000D01*
X311150000Y-164375500D02*
X311150000Y-146050000D01*
%TO.N,/RAM_CE*%
X265430000Y-182245000D02*
X267335000Y-184150000D01*
X265430000Y-165010500D02*
X265430000Y-182245000D01*
%TO.N,/WR*%
X286425000Y-165050500D02*
X286425000Y-173990000D01*
X286385000Y-165010500D02*
X286425000Y-165050500D01*
X346075000Y-143485000D02*
X343530000Y-140940000D01*
X346075000Y-165100000D02*
X346075000Y-143485000D01*
X313690000Y-146050000D02*
X311150000Y-143510000D01*
X313690000Y-165010500D02*
X313690000Y-146050000D01*
%TO.N,/M1*%
X314960000Y-134620000D02*
X311150000Y-130810000D01*
X314960000Y-165645500D02*
X314960000Y-134620000D01*
%TO.N,Net-(U13-Pad12)*%
X352425000Y-129505000D02*
X358770000Y-123160000D01*
X352425000Y-166370000D02*
X352425000Y-129505000D01*
X262890000Y-174710000D02*
X260970000Y-176630000D01*
X262890000Y-166280500D02*
X262890000Y-174710000D01*
%TO.N,/VDP_INT*%
X205205000Y-182875000D02*
X206495000Y-184165000D01*
X197525000Y-182875000D02*
X205205000Y-182875000D01*
X195860000Y-173110000D02*
X195860000Y-181210000D01*
X199390000Y-169580000D02*
X195860000Y-173110000D01*
X199390000Y-166370000D02*
X199390000Y-169580000D01*
X195860000Y-181210000D02*
X197525000Y-182875000D01*
%TO.N,/UART_CE*%
X341630000Y-132680000D02*
X343530000Y-130780000D01*
X341630000Y-166980402D02*
X341630000Y-132680000D01*
X341642299Y-166992701D02*
X341630000Y-166980402D01*
X247640000Y-176530000D02*
X245110000Y-179060000D01*
X247640000Y-167015000D02*
X247640000Y-176530000D01*
X247650000Y-167005000D02*
X247640000Y-167015000D01*
%TO.N,/PPI_CE*%
X244465000Y-176520000D02*
X245110000Y-176520000D01*
X243205000Y-167175500D02*
X243205000Y-175260000D01*
X243205000Y-175260000D02*
X244465000Y-176520000D01*
%TO.N,Net-(JP4-Pad3)*%
X252630000Y-179170000D02*
X250285000Y-181515000D01*
X253350000Y-179170000D02*
X252630000Y-179170000D01*
X250285000Y-181515000D02*
X250285000Y-191230000D01*
X250285000Y-191230000D02*
X254000000Y-194945000D01*
%TO.N,/MREQ*%
X269240000Y-175895000D02*
X267335000Y-173990000D01*
X269240000Y-197485000D02*
X269240000Y-175895000D01*
%TO.N,/ROM_CE*%
X280045000Y-120660000D02*
X277220000Y-117835000D01*
X280045000Y-170170000D02*
X280045000Y-120660000D01*
X280035000Y-170180000D02*
X280045000Y-170170000D01*
X277220000Y-117835000D02*
X271780000Y-117835000D01*
%TO.N,/MREQ*%
X248920000Y-194945000D02*
X248920000Y-197485000D01*
D49*
%TO.N,GND*%
X203200000Y-90090000D02*
X205820000Y-92710000D01*
D48*
X41910000Y-49530000D02*
X43083000Y-48357000D01*
X368300000Y-123190000D02*
X368585000Y-122905000D01*
X368585000Y-122905000D02*
X371612500Y-122905000D01*
X373015000Y-123555000D02*
X373380000Y-123190000D01*
X131445000Y-105330000D02*
X131445000Y-106680000D01*
X371612500Y-123555000D02*
X373015000Y-123555000D01*
X158120000Y-108040000D02*
X156990000Y-109170000D01*
X132815000Y-123290000D02*
X135255000Y-123290000D01*
X131445000Y-120650000D02*
X131445000Y-121920000D01*
X368075000Y-125505000D02*
X364412500Y-125505000D01*
D49*
X205820000Y-92710000D02*
X205820000Y-97710000D01*
D48*
X373380000Y-123190000D02*
X377110000Y-123190000D01*
X41910000Y-55880000D02*
X41910000Y-49530000D01*
X131445000Y-106680000D02*
X132805000Y-108040000D01*
X43083000Y-48357000D02*
X43083000Y-39370000D01*
X387350000Y-123190000D02*
X389890000Y-123190000D01*
X49610000Y-115545000D02*
X49510000Y-115645000D01*
X368725000Y-126155000D02*
X371612500Y-126155000D01*
X156990000Y-109170000D02*
X156990000Y-122165000D01*
D49*
X203200000Y-77470000D02*
X203200000Y-90090000D01*
D48*
X368300000Y-125730000D02*
X368725000Y-126155000D01*
X369405000Y-128105000D02*
X371612500Y-128105000D01*
X49610000Y-98425000D02*
X49610000Y-115545000D01*
X368300000Y-125280000D02*
X368300000Y-125730000D01*
X389890000Y-123190000D02*
X392730000Y-126030000D01*
X124420000Y-99060000D02*
X124420000Y-104140000D01*
X368300000Y-127000000D02*
X369405000Y-128105000D01*
X368300000Y-124460000D02*
X368300000Y-123190000D01*
X368075000Y-125505000D02*
X368300000Y-125280000D01*
X368300000Y-125280000D02*
X368300000Y-124460000D01*
X371612500Y-122905000D02*
X371612500Y-123555000D01*
X233680000Y-130535000D02*
X233680000Y-139065000D01*
X368300000Y-125730000D02*
X368300000Y-127000000D01*
X156990000Y-122165000D02*
X158115000Y-123290000D01*
X256540000Y-130535000D02*
X256540000Y-139065000D01*
X392730000Y-126030000D02*
X394500000Y-126030000D01*
X132805000Y-108040000D02*
X135260000Y-108040000D01*
X131445000Y-121920000D02*
X132815000Y-123290000D01*
%TO.N,Net-(C7-Pad2)*%
X361950000Y-146050000D02*
X363220000Y-147320000D01*
X364490000Y-142280000D02*
X363180000Y-142280000D01*
X370547500Y-142280000D02*
X370840000Y-142572500D01*
X363220000Y-147320000D02*
X367070000Y-147320000D01*
X361950000Y-143510000D02*
X361950000Y-146050000D01*
X364490000Y-142280000D02*
X370547500Y-142280000D01*
X367070000Y-147320000D02*
X367070000Y-152375000D01*
X367070000Y-152375000D02*
X367045000Y-152400000D01*
X363180000Y-142280000D02*
X361950000Y-143510000D01*
%TO.N,Net-(C8-Pad1)*%
X371822500Y-142999251D02*
X370374251Y-144447500D01*
X370374251Y-144447500D02*
X369890000Y-144447500D01*
X371822500Y-135990000D02*
X371822500Y-142999251D01*
X364490000Y-144780000D02*
X369557500Y-144780000D01*
X369557500Y-144780000D02*
X369890000Y-144447500D01*
%TO.N,Net-(C9-Pad1)*%
X373530000Y-128755000D02*
X374015000Y-128270000D01*
X374015000Y-128270000D02*
X377190000Y-128270000D01*
X371612500Y-128755000D02*
X373530000Y-128755000D01*
%TO.N,Net-(C11-Pad2)*%
X382785000Y-130055000D02*
X383540000Y-130810000D01*
X390485000Y-125690000D02*
X392430000Y-127635000D01*
X392435000Y-127630000D02*
X394500000Y-127630000D01*
X387350000Y-125690000D02*
X390485000Y-125690000D01*
X371612500Y-130055000D02*
X382785000Y-130055000D01*
X392430000Y-127635000D02*
X392435000Y-127630000D01*
%TO.N,Net-(C12-Pad2)*%
X387370000Y-130810000D02*
X389890000Y-130810000D01*
X371612500Y-129405000D02*
X383815000Y-129405000D01*
X383815000Y-129405000D02*
X385200000Y-130790000D01*
X385200000Y-130790000D02*
X387350000Y-130790000D01*
X389890000Y-130810000D02*
X392270000Y-128430000D01*
X387350000Y-130790000D02*
X387370000Y-130810000D01*
X392270000Y-128430000D02*
X394500000Y-128430000D01*
%TO.N,Net-(C13-Pad1)*%
X394600000Y-132080000D02*
X399220000Y-132080000D01*
X400180000Y-123180000D02*
X400180000Y-131120000D01*
X400180000Y-131120000D02*
X399220000Y-132080000D01*
X400180000Y-137785000D02*
X400180000Y-133040000D01*
X394600000Y-123180000D02*
X400180000Y-123180000D01*
X400180000Y-133040000D02*
X399220000Y-132080000D01*
%TO.N,Net-(C16-Pad2)*%
X112430000Y-101605000D02*
X109855000Y-101605000D01*
X119330000Y-104050000D02*
X119420000Y-104140000D01*
X114875000Y-104050000D02*
X119330000Y-104050000D01*
X114875000Y-104050000D02*
X112430000Y-101605000D01*
%TO.N,Net-(C17-Pad2)*%
X109855000Y-99065000D02*
X114790000Y-99065000D01*
X114790000Y-99065000D02*
X114875000Y-99150000D01*
X114965000Y-99060000D02*
X114875000Y-99150000D01*
X119420000Y-99060000D02*
X114965000Y-99060000D01*
%TO.N,Net-(C19-Pad1)*%
X174625000Y-50800000D02*
X178435000Y-46990000D01*
X178435000Y-46990000D02*
X179152375Y-46990000D01*
%TO.N,Net-(C30-Pad1)*%
X22860000Y-86360000D02*
X31195000Y-86360000D01*
X31195000Y-86360000D02*
X31195000Y-95805000D01*
X31195000Y-95805000D02*
X31115000Y-95885000D01*
%TO.N,Net-(C31-Pad1)*%
X15240000Y-88980000D02*
X17860000Y-86360000D01*
X15240000Y-95250000D02*
X16510000Y-96520000D01*
X16510000Y-96520000D02*
X17780000Y-96520000D01*
X15240000Y-88980000D02*
X15240000Y-95250000D01*
%TO.N,Net-(C33-Pad1)*%
X29805000Y-82550000D02*
X21590000Y-82550000D01*
X29845000Y-82510000D02*
X29805000Y-82550000D01*
X21590000Y-95250000D02*
X21590000Y-82550000D01*
X21590000Y-82550000D02*
X21590000Y-78740000D01*
X25400000Y-99060000D02*
X21590000Y-95250000D01*
%TO.N,Net-(C33-Pad2)*%
X33655000Y-78740000D02*
X32425000Y-77510000D01*
X33655000Y-82550000D02*
X33655000Y-78740000D01*
X32425000Y-77510000D02*
X29845000Y-77510000D01*
%TO.N,Net-(D1-Pad2)*%
X171450000Y-36830000D02*
X171450000Y-39370000D01*
%TO.N,Net-(D2-Pad2)*%
X164465000Y-36830000D02*
X164465000Y-39370000D01*
%TO.N,Net-(D4-Pad1)*%
X396240000Y-84455000D02*
X400050000Y-84455000D01*
%TO.N,/VDP_INT*%
X212845000Y-184165000D02*
X212860000Y-184150000D01*
X206495000Y-184165000D02*
X212845000Y-184165000D01*
%TO.N,Net-(FB1-Pad2)*%
X377190000Y-120650000D02*
X368300000Y-120650000D01*
X373380000Y-126805000D02*
X371612500Y-126805000D01*
X372125000Y-148595000D02*
X372125000Y-152400000D01*
X368300000Y-120650000D02*
X365395000Y-123555000D01*
X372122500Y-144780000D02*
X372122500Y-148592500D01*
X375285000Y-125730000D02*
X377190000Y-125730000D01*
X372122500Y-148592500D02*
X372125000Y-148595000D01*
X372122500Y-144780000D02*
X371790000Y-144447500D01*
X376335000Y-144780000D02*
X372122500Y-144780000D01*
X375285000Y-125730000D02*
X374455000Y-125730000D01*
X378460000Y-124460000D02*
X378460000Y-121920000D01*
X365395000Y-123555000D02*
X364412500Y-123555000D01*
X378460000Y-121920000D02*
X377190000Y-120650000D01*
X377190000Y-125730000D02*
X378460000Y-124460000D01*
X374455000Y-125730000D02*
X373380000Y-126805000D01*
%TO.N,/IO/PC0*%
X162560000Y-46990000D02*
X164465000Y-46990000D01*
X159385000Y-50165000D02*
X162560000Y-46990000D01*
X159385000Y-76110500D02*
X159385000Y-50165000D01*
%TO.N,/IO/PC1*%
X163195000Y-48260000D02*
X167005000Y-48260000D01*
X161290000Y-50165000D02*
X163195000Y-48260000D01*
X161290000Y-76835000D02*
X161290000Y-50165000D01*
X168275000Y-46990000D02*
X171450000Y-46990000D01*
X167005000Y-48260000D02*
X168275000Y-46990000D01*
%TO.N,/IO/PA7*%
X111805000Y-66720000D02*
X111805000Y-63545000D01*
X118655500Y-73570500D02*
X111805000Y-66720000D01*
X124460000Y-73570500D02*
X118655500Y-73570500D01*
%TO.N,/IO/PA6*%
X109265000Y-67355000D02*
X109265000Y-63545000D01*
X252095000Y-66030000D02*
X259705000Y-66030000D01*
X261620000Y-81280000D02*
X261620000Y-67945000D01*
X261620000Y-67945000D02*
X259715000Y-66040000D01*
X122555000Y-74295000D02*
X116205000Y-74295000D01*
X259705000Y-66030000D02*
X259715000Y-66040000D01*
X116205000Y-74295000D02*
X109265000Y-67355000D01*
%TO.N,/IO/PA5*%
X116205000Y-60960000D02*
X109220000Y-60960000D01*
X120650000Y-56515000D02*
X116205000Y-60960000D01*
X109220000Y-60960000D02*
X109220000Y-61050000D01*
X120650000Y-53975000D02*
X120650000Y-56515000D01*
X109220000Y-61050000D02*
X106725000Y-63545000D01*
%TO.N,/IO/PA4*%
X114935000Y-60325000D02*
X107405000Y-60325000D01*
X107405000Y-60325000D02*
X104185000Y-63545000D01*
X118745000Y-56515000D02*
X114935000Y-60325000D01*
X118745000Y-55245000D02*
X118745000Y-56515000D01*
%TO.N,/IO/PB7*%
X142285000Y-54020000D02*
X142285000Y-63545000D01*
X126365000Y-48260000D02*
X130810000Y-52705000D01*
X130810000Y-52705000D02*
X140970000Y-52705000D01*
X140970000Y-52705000D02*
X142285000Y-54020000D01*
X126365000Y-38735000D02*
X126365000Y-48260000D01*
%TO.N,/IO/PB6*%
X130175000Y-50165000D02*
X132080000Y-52070000D01*
X132080000Y-52070000D02*
X143510000Y-52070000D01*
X143510000Y-52070000D02*
X144825000Y-53385000D01*
X144825000Y-53385000D02*
X144825000Y-63545000D01*
%TO.N,/IO/PB5*%
X133350000Y-51435000D02*
X145415000Y-51435000D01*
X130175000Y-48260000D02*
X133350000Y-51435000D01*
X130175000Y-38735000D02*
X130175000Y-48260000D01*
X145415000Y-51435000D02*
X147365000Y-53385000D01*
X147365000Y-53385000D02*
X147365000Y-63545000D01*
%TO.N,/IO/PB4*%
X134620000Y-50800000D02*
X147320000Y-50800000D01*
X133985000Y-50165000D02*
X134620000Y-50800000D01*
X149905000Y-53385000D02*
X149905000Y-63545000D01*
X147320000Y-50800000D02*
X149905000Y-53385000D01*
%TO.N,/IO/PB1*%
X153670000Y-80010000D02*
X151130000Y-80010000D01*
X155575000Y-78105000D02*
X153670000Y-80010000D01*
X141605000Y-38735000D02*
X141605000Y-47625000D01*
X151130000Y-80010000D02*
X149905000Y-78785000D01*
X142875000Y-48895000D02*
X153035000Y-48895000D01*
X141605000Y-47625000D02*
X142875000Y-48895000D01*
X155575000Y-51435000D02*
X155575000Y-78105000D01*
X153035000Y-48895000D02*
X155575000Y-51435000D01*
%TO.N,/IO/PB0*%
X127000000Y-53340000D02*
X139700000Y-53340000D01*
X141160000Y-70040000D02*
X147365000Y-76245000D01*
X141160000Y-54800000D02*
X141160000Y-70040000D01*
X147365000Y-76245000D02*
X147365000Y-78785000D01*
X126365000Y-52705000D02*
X127000000Y-53340000D01*
X139700000Y-53340000D02*
X141160000Y-54800000D01*
X126365000Y-50165000D02*
X126365000Y-52705000D01*
%TO.N,Net-(R12-Pad2)*%
X41275000Y-100330000D02*
X41275000Y-95885000D01*
X39370000Y-113665000D02*
X39370000Y-116205000D01*
X37465000Y-111760000D02*
X37465000Y-104140000D01*
X39370000Y-113665000D02*
X37445000Y-111740000D01*
X37465000Y-104140000D02*
X41275000Y-100330000D01*
%TO.N,Net-(Q2-Pad1)*%
X169545000Y-53975000D02*
X174625000Y-53975000D01*
X178435000Y-56240000D02*
X177525000Y-56240000D01*
X177525000Y-56240000D02*
X175260000Y-53975000D01*
X175260000Y-53975000D02*
X174625000Y-53975000D01*
X166370000Y-50800000D02*
X169545000Y-53975000D01*
X164465000Y-50800000D02*
X166370000Y-50800000D01*
%TO.N,Net-(Q2-Pad2)*%
X109855000Y-109220000D02*
X107315000Y-106680000D01*
X174625000Y-57785000D02*
X179070000Y-57785000D01*
X170815000Y-91440000D02*
X174625000Y-87630000D01*
X179070000Y-57785000D02*
X179705000Y-57150000D01*
X111125000Y-91440000D02*
X170815000Y-91440000D01*
X107315000Y-106680000D02*
X107315000Y-95250000D01*
X179705000Y-57150000D02*
X179705000Y-56240000D01*
X107315000Y-95250000D02*
X111125000Y-91440000D01*
X174625000Y-87630000D02*
X174625000Y-57785000D01*
%TO.N,Net-(Q3-Pad2)*%
X335905000Y-50785564D02*
X337175000Y-49515564D01*
X335905000Y-54595564D02*
X335905000Y-50785564D01*
X337175000Y-49515564D02*
X338445000Y-49515564D01*
%TO.N,/NMI*%
X88900000Y-202019500D02*
X88900000Y-99060000D01*
X85090000Y-40577000D02*
X83883000Y-39370000D01*
X88900000Y-99060000D02*
X85090000Y-95250000D01*
X330200000Y-114300000D02*
X330200000Y-139700000D01*
X85090000Y-95250000D02*
X85090000Y-40577000D01*
X330200000Y-139700000D02*
X330200000Y-201930000D01*
%TO.N,/WAIT*%
X320040000Y-138430000D02*
X320040000Y-200660000D01*
X85090000Y-99060000D02*
X81333000Y-95303000D01*
X320040000Y-114300000D02*
X320040000Y-138430000D01*
X85090000Y-200749500D02*
X85090000Y-99060000D01*
X81333000Y-95303000D02*
X81333000Y-39370000D01*
%TO.N,/BUSRQ*%
X325120000Y-114300000D02*
X325120000Y-135890000D01*
X325120000Y-135890000D02*
X325120000Y-201295000D01*
X53340000Y-57150000D02*
X46990000Y-50800000D01*
X46990000Y-50800000D02*
X45720000Y-50800000D01*
X58420000Y-201295000D02*
X58420000Y-100330000D01*
X53340000Y-95250000D02*
X53340000Y-57150000D01*
X58420000Y-100330000D02*
X53340000Y-95250000D01*
%TO.N,Net-(R4-Pad1)*%
X90805000Y-78740000D02*
X90805000Y-54610000D01*
X90805000Y-54610000D02*
X92710000Y-52705000D01*
X93345000Y-81280000D02*
X90805000Y-78740000D01*
X109310000Y-81280000D02*
X93345000Y-81280000D01*
X111805000Y-78785000D02*
X109310000Y-81280000D01*
X98440000Y-56530000D02*
X108595000Y-56530000D01*
X94615000Y-52705000D02*
X98440000Y-56530000D01*
X92710000Y-52705000D02*
X94615000Y-52705000D01*
%TO.N,Net-(R5-Pad1)*%
X93345000Y-56515000D02*
X92075000Y-57785000D01*
X95250000Y-56515000D02*
X97155000Y-58420000D01*
X94615000Y-56515000D02*
X93345000Y-56515000D01*
X92075000Y-57785000D02*
X92075000Y-78740000D01*
X109245000Y-58420000D02*
X111135000Y-56530000D01*
X97155000Y-58420000D02*
X109245000Y-58420000D01*
X92075000Y-78740000D02*
X93980000Y-80645000D01*
X107405000Y-80645000D02*
X109265000Y-78785000D01*
X93980000Y-80645000D02*
X107405000Y-80645000D01*
X94615000Y-56515000D02*
X95250000Y-56515000D01*
%TO.N,Net-(R6-Pad1)*%
X93345000Y-60960000D02*
X93980000Y-60325000D01*
X94615000Y-60325000D02*
X95885000Y-60325000D01*
X93980000Y-60325000D02*
X94615000Y-60325000D01*
X95250000Y-80010000D02*
X93345000Y-78105000D01*
X95885000Y-60325000D02*
X97155000Y-59055000D01*
X106725000Y-78785000D02*
X105500000Y-80010000D01*
X111150000Y-59055000D02*
X113675000Y-56530000D01*
X105500000Y-80010000D02*
X95250000Y-80010000D01*
X97155000Y-59055000D02*
X111150000Y-59055000D01*
X93345000Y-78105000D02*
X93345000Y-60960000D01*
%TO.N,Net-(R7-Pad1)*%
X94615000Y-62865000D02*
X97790000Y-59690000D01*
X94615000Y-77470000D02*
X95930000Y-78785000D01*
X94615000Y-64135000D02*
X94615000Y-62865000D01*
X97790000Y-59690000D02*
X113055000Y-59690000D01*
X113055000Y-59690000D02*
X116215000Y-56530000D01*
X94615000Y-64135000D02*
X94615000Y-77470000D01*
X95930000Y-78785000D02*
X104185000Y-78785000D01*
%TO.N,Net-(R10-Pad1)*%
X364412500Y-130055000D02*
X364412500Y-135780000D01*
X364412500Y-135780000D02*
X364202500Y-135990000D01*
%TO.N,/{slash}RESET*%
X327669436Y-41280000D02*
X333365000Y-46975564D01*
X310515000Y-53975000D02*
X310515000Y-56515000D01*
X334635000Y-62215564D02*
X335905000Y-62215564D01*
X215220000Y-125095000D02*
X210870000Y-125095000D01*
X92075000Y-85090000D02*
X92075000Y-149770500D01*
X333365000Y-46975564D02*
X333365000Y-60945564D01*
X275590000Y-154305000D02*
X271145000Y-158750000D01*
X264795000Y-158750000D02*
X257810000Y-165735000D01*
X303530000Y-86995000D02*
X303530000Y-60325000D01*
X304800000Y-59055000D02*
X310515000Y-59055000D01*
X307965000Y-46975564D02*
X313660564Y-41280000D01*
X310515000Y-56515000D02*
X310515000Y-59055000D01*
X275590000Y-134620000D02*
X275590000Y-154305000D01*
X80010000Y-85090000D02*
X80010000Y-48260000D01*
X92075000Y-149770500D02*
X92164500Y-149860000D01*
X253350000Y-181710000D02*
X253350000Y-184250000D01*
X307965000Y-51425000D02*
X307965000Y-46975564D01*
X219075000Y-85725000D02*
X219075000Y-121285000D01*
X303530000Y-60325000D02*
X304800000Y-59055000D01*
X313660564Y-41280000D02*
X327669436Y-41280000D01*
X333365000Y-60945564D02*
X334635000Y-62215564D01*
X302260000Y-88265000D02*
X303530000Y-86995000D01*
X335905000Y-62215564D02*
X340985000Y-62215564D01*
X278130000Y-88265000D02*
X302260000Y-88265000D01*
X278130000Y-132080000D02*
X275590000Y-134620000D01*
X257810000Y-177250000D02*
X253350000Y-181710000D01*
X219075000Y-121240000D02*
X215220000Y-125095000D01*
X310515000Y-53975000D02*
X307965000Y-51425000D01*
X257810000Y-165735000D02*
X257810000Y-177250000D01*
X271145000Y-158750000D02*
X264795000Y-158750000D01*
%TO.N,/CTC_INT*%
X206495000Y-189245000D02*
X212845000Y-189245000D01*
X212845000Y-189245000D02*
X212860000Y-189230000D01*
%TO.N,/UART_INT*%
X258445000Y-184235000D02*
X260970000Y-181710000D01*
X215305000Y-189135000D02*
X215305000Y-195620000D01*
X220980000Y-201295000D02*
X257175000Y-201295000D01*
X257175000Y-201295000D02*
X258445000Y-200025000D01*
X215305000Y-195620000D02*
X220980000Y-201295000D01*
X212845000Y-186705000D02*
X212860000Y-186690000D01*
X212860000Y-186690000D02*
X215305000Y-189135000D01*
X206495000Y-186705000D02*
X212845000Y-186705000D01*
X258445000Y-200025000D02*
X258445000Y-184235000D01*
%TO.N,/INT_DEV1*%
X40640000Y-83185000D02*
X40640000Y-72390000D01*
X91440000Y-90894500D02*
X91350500Y-90805000D01*
X35433000Y-67183000D02*
X35433000Y-39370000D01*
X91440000Y-198755000D02*
X91440000Y-90894500D01*
X40640000Y-72390000D02*
X35433000Y-67183000D01*
%TO.N,/INT_DEV2*%
X212860000Y-179070000D02*
X215360000Y-176570000D01*
X215360000Y-173990000D02*
X214090000Y-172720000D01*
X215360000Y-176570000D02*
X215360000Y-173990000D01*
X214090000Y-172720000D02*
X200160000Y-172720000D01*
X200160000Y-172720000D02*
X198875000Y-174005000D01*
%TO.N,/XTAL*%
X52070000Y-58420000D02*
X44450000Y-50800000D01*
X52070000Y-83820000D02*
X52070000Y-58420000D01*
X212680000Y-130175000D02*
X210870000Y-130175000D01*
X300990000Y-93980000D02*
X343535000Y-93980000D01*
X48260000Y-140390000D02*
X48240000Y-140410000D01*
X220345000Y-119281400D02*
X220345000Y-122510000D01*
X347345000Y-97790000D02*
X347345000Y-132045000D01*
X220345000Y-86449500D02*
X220345000Y-121920000D01*
X343535000Y-93980000D02*
X347345000Y-97790000D01*
X347345000Y-132045000D02*
X343530000Y-135860000D01*
X48260000Y-95250000D02*
X48260000Y-140390000D01*
X52070000Y-91440000D02*
X48260000Y-95250000D01*
X52070000Y-83820000D02*
X52070000Y-91440000D01*
X44450000Y-50800000D02*
X44450000Y-49530000D01*
X220345000Y-122510000D02*
X212680000Y-130175000D01*
%TO.N,/INT_DEV5*%
X196310000Y-180340000D02*
X197595000Y-181625000D01*
X197595000Y-181625000D02*
X198875000Y-181625000D01*
X196310000Y-173990000D02*
X196310000Y-180340000D01*
X198850000Y-171450000D02*
X196310000Y-173990000D01*
X212860000Y-171450000D02*
X198850000Y-171450000D01*
%TO.N,/IO/A11*%
X274409500Y-97790000D02*
X295910000Y-97790000D01*
X49530000Y-48260000D02*
X48183000Y-46913000D01*
X48183000Y-46913000D02*
X48183000Y-39370000D01*
%TO.N,/IO/A12*%
X236717500Y-101325000D02*
X255270000Y-101325000D01*
X255270000Y-101325000D02*
X256540000Y-100055000D01*
X267695000Y-100055000D02*
X268930699Y-101290699D01*
X268930699Y-101290699D02*
X273359301Y-101290699D01*
X256540000Y-100055000D02*
X267695000Y-100055000D01*
X233680000Y-100055000D02*
X235447500Y-100055000D01*
X273359301Y-101290699D02*
X274320000Y-100330000D01*
X235447500Y-100055000D02*
X236717500Y-101325000D01*
X295910000Y-100330000D02*
X274320000Y-100330000D01*
%TO.N,/IO/A13*%
X271780000Y-102595000D02*
X295635000Y-102595000D01*
X268965000Y-102595000D02*
X271780000Y-102595000D01*
X44450000Y-64135000D02*
X44450000Y-58420000D01*
X50800000Y-70485000D02*
X44450000Y-64135000D01*
X262255000Y-100965000D02*
X267335000Y-100965000D01*
X50800000Y-85090000D02*
X50800000Y-70485000D01*
X267335000Y-100965000D02*
X268965000Y-102595000D01*
X295635000Y-102595000D02*
X295910000Y-102870000D01*
%TO.N,/IO/A14*%
X233680000Y-97515000D02*
X235945000Y-97515000D01*
X267335000Y-102595000D02*
X268460000Y-103720000D01*
X260350000Y-102595000D02*
X267335000Y-102595000D01*
X237070000Y-98640000D02*
X249785990Y-98640000D01*
X250910990Y-97515000D02*
X256540000Y-97515000D01*
X44450000Y-83185000D02*
X44450000Y-72390000D01*
X274955000Y-105410000D02*
X295910000Y-105410000D01*
X249785990Y-98640000D02*
X250910990Y-97515000D01*
X37983000Y-65923000D02*
X37983000Y-39370000D01*
X273265000Y-103720000D02*
X274955000Y-105410000D01*
X268460000Y-103720000D02*
X273265000Y-103720000D01*
X235945000Y-97515000D02*
X237070000Y-98640000D01*
X44450000Y-72390000D02*
X37983000Y-65923000D01*
%TO.N,/IO/A15*%
X289560000Y-107950000D02*
X295910000Y-107950000D01*
X34290000Y-63500000D02*
X34290000Y-49530000D01*
X284480000Y-137160000D02*
X284480000Y-113030000D01*
X284480000Y-113030000D02*
X289560000Y-107950000D01*
%TO.N,/BUS Expansion/D4*%
X73660000Y-100330000D02*
X68583000Y-95253000D01*
X190500000Y-102185000D02*
X195530000Y-97155000D01*
X73660000Y-154305000D02*
X73660000Y-100330000D01*
X68583000Y-95253000D02*
X68583000Y-39370000D01*
X195530000Y-97155000D02*
X195630000Y-97155000D01*
%TO.N,/BUS Expansion/D3*%
X69850000Y-95250000D02*
X69850000Y-48260000D01*
X74930000Y-153670000D02*
X74930000Y-123825000D01*
X74930000Y-100330000D02*
X69850000Y-95250000D01*
X180360000Y-194310000D02*
X183515000Y-194310000D01*
X74930000Y-123825000D02*
X74930000Y-100330000D01*
X177810000Y-191760000D02*
X180360000Y-194310000D01*
%TO.N,/BUS Expansion/D5*%
X72390000Y-154940000D02*
X72390000Y-100330000D01*
X72390000Y-100330000D02*
X67310000Y-95250000D01*
X67310000Y-95250000D02*
X67310000Y-48260000D01*
%TO.N,/BUS Expansion/D6*%
X66040000Y-95250000D02*
X66040000Y-49530000D01*
X66040000Y-49530000D02*
X66033000Y-49523000D01*
X71120000Y-155575000D02*
X71120000Y-100330000D01*
X66033000Y-49523000D02*
X66033000Y-39370000D01*
X71120000Y-100330000D02*
X66040000Y-95250000D01*
%TO.N,/BUS Expansion/D2*%
X76200000Y-153035000D02*
X76200000Y-100330000D01*
X255270000Y-129265000D02*
X256540000Y-127995000D01*
X245110000Y-127995000D02*
X246380000Y-129265000D01*
X233680000Y-127995000D02*
X245110000Y-127995000D01*
X76200000Y-100330000D02*
X71133000Y-95263000D01*
X71133000Y-95263000D02*
X71133000Y-39370000D01*
X246380000Y-129265000D02*
X255270000Y-129265000D01*
%TO.N,/BUS Expansion/D7*%
X69850000Y-156210000D02*
X69850000Y-100330000D01*
X64770000Y-95250000D02*
X64770000Y-52070000D01*
X69850000Y-100330000D02*
X64770000Y-95250000D01*
X64770000Y-52070000D02*
X63500000Y-50800000D01*
X63500000Y-50800000D02*
X63500000Y-49530000D01*
%TO.N,/BUS Expansion/D0*%
X255270000Y-124185000D02*
X256540000Y-122915000D01*
X233680000Y-122915000D02*
X245110000Y-122915000D01*
X78740000Y-100330000D02*
X73683000Y-95273000D01*
X78740000Y-151675500D02*
X78740000Y-100330000D01*
X246380000Y-124185000D02*
X255270000Y-124185000D01*
X245110000Y-122915000D02*
X246380000Y-124185000D01*
X73683000Y-95273000D02*
X73683000Y-39370000D01*
%TO.N,/BUS Expansion/D1*%
X246380000Y-126725000D02*
X255270000Y-126725000D01*
X77470000Y-152400000D02*
X77470000Y-100330000D01*
X77470000Y-100330000D02*
X72390000Y-95250000D01*
X255270000Y-126725000D02*
X256540000Y-125455000D01*
X233680000Y-125455000D02*
X245110000Y-125455000D01*
X72390000Y-95250000D02*
X72390000Y-48260000D01*
X180350000Y-180985000D02*
X183515000Y-184150000D01*
X245110000Y-125455000D02*
X246380000Y-126725000D01*
%TO.N,/{slash}INT*%
X241300000Y-135890000D02*
X241235000Y-135955000D01*
X241235000Y-179845990D02*
X238355990Y-182725000D01*
X241235000Y-135955000D02*
X241235000Y-179845990D01*
X230430000Y-182725000D02*
X229315000Y-181610000D01*
X238355990Y-182725000D02*
X230430000Y-182725000D01*
%TO.N,/HALT*%
X318770000Y-142240000D02*
X318770000Y-202654500D01*
X86360000Y-99060000D02*
X82550000Y-95250000D01*
X82550000Y-95250000D02*
X82550000Y-49530000D01*
X86360000Y-202565000D02*
X86360000Y-99060000D01*
%TO.N,/MREQ*%
X87630000Y-99060000D02*
X83820000Y-95250000D01*
X83820000Y-95250000D02*
X83820000Y-48260000D01*
X87630000Y-151040500D02*
X87630000Y-99060000D01*
%TO.N,/IORQ*%
X113650000Y-174640000D02*
X114015000Y-175005000D01*
X114030000Y-175005000D02*
X115555000Y-176530000D01*
X231150000Y-175260000D02*
X237490000Y-181600000D01*
X221695000Y-176530000D02*
X224155000Y-176530000D01*
X225425000Y-175260000D02*
X231150000Y-175260000D01*
X224155000Y-176530000D02*
X225425000Y-175260000D01*
X193040000Y-122605000D02*
X195630000Y-120015000D01*
X286425000Y-181610000D02*
X286425000Y-184150000D01*
%TO.N,Net-(D11-Pad1)*%
X395610000Y-104775000D02*
X400050000Y-104775000D01*
%TO.N,/BUSACK*%
X43180000Y-49530000D02*
X45633000Y-47077000D01*
X43180000Y-104140000D02*
X46990000Y-100330000D01*
X46990000Y-69850000D02*
X43180000Y-66040000D01*
X321310000Y-140970000D02*
X321310000Y-203200000D01*
X46990000Y-100330000D02*
X46990000Y-69850000D01*
X41910000Y-168910000D02*
X43180000Y-167640000D01*
X43180000Y-66040000D02*
X43180000Y-49530000D01*
X41910000Y-203200000D02*
X41910000Y-168910000D01*
X45633000Y-47077000D02*
X45633000Y-39370000D01*
X43180000Y-167640000D02*
X43180000Y-104140000D01*
%TO.N,/M1*%
X194310000Y-172085000D02*
X194310000Y-193675000D01*
X194310000Y-193675000D02*
X191135000Y-196850000D01*
%TO.N,/IO/A0*%
X63500000Y-95250000D02*
X63500000Y-74930000D01*
X48250000Y-163840000D02*
X48250000Y-171068602D01*
X48250000Y-171068602D02*
X48515000Y-171333602D01*
X68580000Y-100330000D02*
X63500000Y-95250000D01*
X68580000Y-158115000D02*
X68580000Y-100330000D01*
X63500000Y-74930000D02*
X63500000Y-52070000D01*
X233680000Y-120375000D02*
X245110000Y-120375000D01*
X48515000Y-174990000D02*
X48515000Y-171333602D01*
X62230000Y-50800000D02*
X62230000Y-48260000D01*
X255270000Y-121645000D02*
X256540000Y-120375000D01*
X246380000Y-121645000D02*
X255270000Y-121645000D01*
X46990000Y-176515000D02*
X48515000Y-174990000D01*
X63500000Y-52070000D02*
X62230000Y-50800000D01*
X245110000Y-120375000D02*
X246380000Y-121645000D01*
%TO.N,/IO/A1*%
X246380000Y-119105000D02*
X255270000Y-119105000D01*
X62230000Y-95250000D02*
X62230000Y-76200000D01*
X67310000Y-100330000D02*
X62230000Y-95250000D01*
X233680000Y-117835000D02*
X245110000Y-117835000D01*
X62230000Y-76200000D02*
X62230000Y-52070000D01*
X62230000Y-52070000D02*
X60933000Y-50773000D01*
X245110000Y-117835000D02*
X246380000Y-119105000D01*
X255270000Y-119105000D02*
X256540000Y-117835000D01*
X67310000Y-158839500D02*
X67310000Y-100330000D01*
X60933000Y-50773000D02*
X60933000Y-39370000D01*
%TO.N,/IO/A2*%
X245110000Y-115295000D02*
X246380000Y-116565000D01*
X246380000Y-116565000D02*
X255270000Y-116565000D01*
X59690000Y-50800000D02*
X59690000Y-48260000D01*
X60960000Y-95250000D02*
X60960000Y-52070000D01*
X66040000Y-100330000D02*
X60960000Y-95250000D01*
X255270000Y-116565000D02*
X256540000Y-115295000D01*
X66040000Y-159385000D02*
X66040000Y-100330000D01*
X233680000Y-115295000D02*
X245110000Y-115295000D01*
X60960000Y-52070000D02*
X59690000Y-50800000D01*
%TO.N,/IO/A3*%
X233680000Y-112755000D02*
X245110000Y-112755000D01*
X64770000Y-100330000D02*
X59690000Y-95250000D01*
X255270000Y-114025000D02*
X256540000Y-112755000D01*
X58383000Y-50763000D02*
X58383000Y-39370000D01*
X64770000Y-160020000D02*
X64770000Y-100330000D01*
X245110000Y-112755000D02*
X246380000Y-114025000D01*
X246380000Y-114025000D02*
X255270000Y-114025000D01*
X59690000Y-52070000D02*
X58383000Y-50763000D01*
X59690000Y-95250000D02*
X59690000Y-52070000D01*
%TO.N,/IO/A4*%
X57150000Y-50800000D02*
X57150000Y-48260000D01*
X255270000Y-111485000D02*
X256540000Y-110215000D01*
X63500000Y-100330000D02*
X58420000Y-95250000D01*
X233680000Y-110215000D02*
X245110000Y-110215000D01*
X63500000Y-160655000D02*
X63500000Y-100330000D01*
X58420000Y-52070000D02*
X57150000Y-50800000D01*
X58420000Y-95250000D02*
X58420000Y-52070000D01*
X245110000Y-110215000D02*
X246380000Y-111485000D01*
X246380000Y-111485000D02*
X255270000Y-111485000D01*
%TO.N,/IO/A5*%
X245110000Y-107675000D02*
X246380000Y-108945000D01*
X57150000Y-52070000D02*
X55833000Y-50753000D01*
X233680000Y-107675000D02*
X245110000Y-107675000D01*
X55833000Y-50753000D02*
X55833000Y-39370000D01*
X246380000Y-108945000D02*
X255270000Y-108945000D01*
X62230000Y-161290000D02*
X62230000Y-100330000D01*
X62230000Y-100330000D02*
X57150000Y-95250000D01*
X255270000Y-108945000D02*
X256540000Y-107675000D01*
X57150000Y-95250000D02*
X57150000Y-52070000D01*
%TO.N,/IO/A6*%
X60960000Y-161925000D02*
X60960000Y-100330000D01*
X245110000Y-105135000D02*
X246380000Y-106405000D01*
X233680000Y-105135000D02*
X245110000Y-105135000D01*
X255270000Y-106405000D02*
X256540000Y-105135000D01*
X246380000Y-106405000D02*
X255270000Y-106405000D01*
X54610000Y-50800000D02*
X54610000Y-48260000D01*
X55880000Y-52070000D02*
X54610000Y-50800000D01*
X55880000Y-95250000D02*
X55880000Y-52070000D01*
X60960000Y-100330000D02*
X55880000Y-95250000D01*
%TO.N,/IO/A7*%
X54610000Y-95250000D02*
X54610000Y-52070000D01*
X54610000Y-52070000D02*
X53283000Y-50743000D01*
X53283000Y-50743000D02*
X53283000Y-39370000D01*
X245110000Y-102595000D02*
X246380000Y-103865000D01*
X59690000Y-100330000D02*
X54610000Y-95250000D01*
X233680000Y-102595000D02*
X245110000Y-102595000D01*
X255270000Y-103865000D02*
X256540000Y-102595000D01*
X246380000Y-103865000D02*
X255270000Y-103865000D01*
X59690000Y-162560000D02*
X59690000Y-100330000D01*
%TO.N,/IO/A8*%
X311785000Y-102870000D02*
X311150000Y-102870000D01*
X311785000Y-95250000D02*
X313055000Y-96520000D01*
X253350000Y-174090000D02*
X253350000Y-176630000D01*
X313055000Y-101600000D02*
X311785000Y-102870000D01*
X313055000Y-96520000D02*
X313055000Y-101600000D01*
X273685000Y-95250000D02*
X311785000Y-95250000D01*
%TO.N,/IO/A9*%
X50800000Y-49530000D02*
X50733000Y-49463000D01*
X50733000Y-49463000D02*
X50733000Y-39370000D01*
X306070000Y-100330000D02*
X311150000Y-100330000D01*
X272920000Y-106535000D02*
X299865000Y-106535000D01*
X299865000Y-106535000D02*
X306070000Y-100330000D01*
X271780000Y-107675000D02*
X272920000Y-106535000D01*
%TO.N,/IO/A10*%
X275590000Y-96520000D02*
X309880000Y-96520000D01*
X309880000Y-96520000D02*
X311150000Y-97790000D01*
%TO.N,/RESET_IO*%
X314325000Y-69215000D02*
X314325000Y-65405000D01*
X126275000Y-72845500D02*
X121105500Y-72845500D01*
X126365000Y-72935500D02*
X126275000Y-72845500D01*
X314325000Y-65405000D02*
X310515000Y-61595000D01*
X121105500Y-72845500D02*
X116885000Y-68625000D01*
X352425000Y-69215000D02*
X314325000Y-69215000D01*
X116885000Y-68625000D02*
X116885000Y-63545000D01*
%TO.N,Net-(U5-Pad15)*%
X344775000Y-118080000D02*
X343530000Y-118080000D01*
X346075000Y-119380000D02*
X344775000Y-118080000D01*
X346075000Y-130775000D02*
X346075000Y-119380000D01*
X343530000Y-133320000D02*
X346075000Y-130775000D01*
%TO.N,/RX*%
X364490000Y-119380000D02*
X364490000Y-121285000D01*
%TO.N,/TX*%
X361860000Y-105500000D02*
X363855000Y-103505000D01*
X361860000Y-108250305D02*
X361860000Y-105500000D01*
X371475000Y-103505000D02*
X373380000Y-101600000D01*
X361860500Y-121920000D02*
X361950000Y-121830500D01*
X361860500Y-123735500D02*
X362330000Y-124205000D01*
X361860500Y-121920000D02*
X361860500Y-123735500D01*
X373380000Y-101600000D02*
X373380000Y-97755000D01*
X361950000Y-121830500D02*
X361950000Y-108340305D01*
X362330000Y-124205000D02*
X364412500Y-124205000D01*
X363855000Y-103505000D02*
X371475000Y-103505000D01*
X361950000Y-108340305D02*
X361860000Y-108250305D01*
%TO.N,Net-(Q4-Pad2)*%
X288290000Y-73025000D02*
X293370000Y-73025000D01*
%TO.N,Net-(U5-Pad32)*%
X363048604Y-128105000D02*
X364412500Y-128105000D01*
X360045000Y-119355000D02*
X360045000Y-125101396D01*
X360045000Y-125101396D02*
X363048604Y-128105000D01*
X358770000Y-118080000D02*
X360045000Y-119355000D01*
%TO.N,/DTR*%
X369570000Y-102235000D02*
X370840000Y-100965000D01*
X363220000Y-102235000D02*
X369570000Y-102235000D01*
X362385000Y-126805000D02*
X361135500Y-125555500D01*
X361135500Y-121619695D02*
X361315000Y-121440195D01*
X361135500Y-125555500D02*
X361135500Y-121619695D01*
X364412500Y-126805000D02*
X362385000Y-126805000D01*
X358770000Y-115540000D02*
X361285000Y-115540000D01*
X361315000Y-121440195D02*
X361315000Y-115570000D01*
X361315000Y-104140000D02*
X363220000Y-102235000D01*
X364412500Y-126805000D02*
X364412500Y-127455000D01*
X361315000Y-115570000D02*
X361315000Y-104140000D01*
X370840000Y-100965000D02*
X370840000Y-97755000D01*
X361285000Y-115540000D02*
X361315000Y-115570000D01*
%TO.N,Net-(U5-Pad36)*%
X362585000Y-107950000D02*
X362585000Y-122555000D01*
X362935000Y-122905000D02*
X364412500Y-122905000D01*
X362585000Y-122555000D02*
X362935000Y-122905000D01*
%TO.N,/DSR*%
X372745000Y-105410000D02*
X375920000Y-102235000D01*
X365425000Y-122255000D02*
X364412500Y-122255000D01*
X366395000Y-121285000D02*
X365425000Y-122255000D01*
X366395000Y-105410000D02*
X366395000Y-121285000D01*
X366395000Y-105410000D02*
X372745000Y-105410000D01*
X375920000Y-102235000D02*
X375920000Y-97755000D01*
%TO.N,/VIDEO/AD0*%
X137400000Y-108040000D02*
X136525000Y-108915000D01*
X136525000Y-122020000D02*
X137795000Y-123290000D01*
X136675000Y-137395000D02*
X137800000Y-138520000D01*
X137800000Y-108040000D02*
X137400000Y-108040000D01*
X137795000Y-123290000D02*
X136675000Y-124410000D01*
X136675000Y-124410000D02*
X136675000Y-137395000D01*
X136525000Y-108915000D02*
X136525000Y-122020000D01*
%TO.N,/VIDEO/AD1*%
X139065000Y-108915000D02*
X139065000Y-122020000D01*
X139215000Y-124410000D02*
X139215000Y-132230000D01*
X140340000Y-133355000D02*
X140340000Y-138520000D01*
X140340000Y-108040000D02*
X139940000Y-108040000D01*
X139215000Y-132230000D02*
X140340000Y-133355000D01*
X139065000Y-122020000D02*
X140335000Y-123290000D01*
X139940000Y-108040000D02*
X139065000Y-108915000D01*
X140335000Y-123290000D02*
X139215000Y-124410000D01*
%TO.N,/VIDEO/AD2*%
X141755000Y-132230000D02*
X142880000Y-133355000D01*
X142880000Y-108040000D02*
X142480000Y-108040000D01*
X141605000Y-108915000D02*
X141605000Y-122020000D01*
X142880000Y-133355000D02*
X142880000Y-138520000D01*
X141755000Y-124410000D02*
X141755000Y-132230000D01*
X142875000Y-123290000D02*
X141755000Y-124410000D01*
X141605000Y-122020000D02*
X142875000Y-123290000D01*
X142480000Y-108040000D02*
X141605000Y-108915000D01*
%TO.N,/VIDEO/AD3*%
X145420000Y-133355000D02*
X145420000Y-138520000D01*
X145415000Y-123290000D02*
X144295000Y-124410000D01*
X145420000Y-108040000D02*
X144290000Y-109170000D01*
X144290000Y-109170000D02*
X144290000Y-122165000D01*
X144290000Y-122165000D02*
X145415000Y-123290000D01*
X144295000Y-132230000D02*
X145420000Y-133355000D01*
X144295000Y-124410000D02*
X144295000Y-132230000D01*
%TO.N,/VIDEO/AD4*%
X147560000Y-108040000D02*
X146685000Y-108915000D01*
X146835000Y-124410000D02*
X146835000Y-132230000D01*
X147960000Y-108040000D02*
X147560000Y-108040000D01*
X147960000Y-133355000D02*
X147960000Y-138520000D01*
X146685000Y-122020000D02*
X147955000Y-123290000D01*
X147955000Y-123290000D02*
X146835000Y-124410000D01*
X146835000Y-132230000D02*
X147960000Y-133355000D01*
X146685000Y-108915000D02*
X146685000Y-122020000D01*
%TO.N,/VIDEO/AD5*%
X149375000Y-124410000D02*
X149375000Y-134770000D01*
X150495000Y-123290000D02*
X149375000Y-124410000D01*
X150500000Y-135895000D02*
X150500000Y-138520000D01*
X149370000Y-109170000D02*
X149370000Y-122165000D01*
X149375000Y-134770000D02*
X150500000Y-135895000D01*
X150500000Y-108040000D02*
X149370000Y-109170000D01*
X149370000Y-122165000D02*
X150495000Y-123290000D01*
%TO.N,/VIDEO/AD6*%
X151910000Y-122165000D02*
X153035000Y-123290000D01*
X151915000Y-124410000D02*
X151915000Y-134177500D01*
X153040000Y-135302500D02*
X153040000Y-138520000D01*
X151910000Y-109170000D02*
X151910000Y-122165000D01*
X153040000Y-108040000D02*
X151910000Y-109170000D01*
X153035000Y-123290000D02*
X151915000Y-124410000D01*
X151915000Y-134177500D02*
X153040000Y-135302500D01*
%TO.N,/VIDEO/AD7*%
X154450000Y-109170000D02*
X154450000Y-122165000D01*
X154450000Y-122165000D02*
X155575000Y-123290000D01*
X155580000Y-134625000D02*
X155580000Y-138520000D01*
X154455000Y-124410000D02*
X154455000Y-133500000D01*
X154455000Y-133500000D02*
X155580000Y-134625000D01*
X155575000Y-123290000D02*
X154455000Y-124410000D01*
X155580000Y-108040000D02*
X154450000Y-109170000D01*
%TO.N,/VIDEO/VA6*%
X168265000Y-113040000D02*
X165745000Y-113040000D01*
X164465000Y-111760000D02*
X164465000Y-105410000D01*
X157135000Y-103160000D02*
X155580000Y-101605000D01*
X155580000Y-101605000D02*
X155580000Y-100420000D01*
X164465000Y-105410000D02*
X162215000Y-103160000D01*
X168275000Y-113030000D02*
X168265000Y-113040000D01*
X165745000Y-113040000D02*
X164465000Y-111760000D01*
X162215000Y-103160000D02*
X157135000Y-103160000D01*
%TO.N,/VIDEO/VA5*%
X161395000Y-103610000D02*
X153775000Y-103610000D01*
X164015000Y-106230000D02*
X161395000Y-103610000D01*
X153775000Y-103610000D02*
X153035000Y-102870000D01*
X165745000Y-115580000D02*
X164015000Y-113850000D01*
X164015000Y-113850000D02*
X164015000Y-106230000D01*
X153040000Y-102865000D02*
X153040000Y-100420000D01*
X168265000Y-115580000D02*
X165745000Y-115580000D01*
X153035000Y-102870000D02*
X153040000Y-102865000D01*
X168275000Y-115570000D02*
X168265000Y-115580000D01*
%TO.N,/VIDEO/VA4*%
X167005000Y-106680000D02*
X184493602Y-106680000D01*
X186055000Y-108241398D02*
X186055000Y-118110000D01*
X184493602Y-106680000D02*
X186055000Y-108241398D01*
X163195000Y-102870000D02*
X167005000Y-106680000D01*
X186055000Y-118110000D02*
X183515000Y-120650000D01*
%TO.N,/VIDEO/VA3*%
X147960000Y-102875000D02*
X147960000Y-100420000D01*
X165745000Y-118120000D02*
X163565000Y-115940000D01*
X163565000Y-115940000D02*
X163565000Y-107050000D01*
X168275000Y-118110000D02*
X168265000Y-118120000D01*
X168265000Y-118120000D02*
X165745000Y-118120000D01*
X163565000Y-107050000D02*
X160575000Y-104060000D01*
X149145000Y-104060000D02*
X147960000Y-102875000D01*
X160575000Y-104060000D02*
X149145000Y-104060000D01*
%TO.N,/VIDEO/VA2*%
X159755000Y-104510000D02*
X147055000Y-104510000D01*
X163115000Y-107870000D02*
X159755000Y-104510000D01*
X147055000Y-104510000D02*
X145415000Y-102870000D01*
X145420000Y-102865000D02*
X145420000Y-100420000D01*
X168275000Y-120650000D02*
X165365000Y-120650000D01*
X163115000Y-118400000D02*
X163115000Y-107870000D01*
X165365000Y-120650000D02*
X163115000Y-118400000D01*
X145415000Y-102870000D02*
X145420000Y-102865000D01*
%TO.N,/VIDEO/VA1*%
X162665000Y-108688807D02*
X158936193Y-104960000D01*
X158936193Y-104960000D02*
X144965000Y-104960000D01*
X144965000Y-104960000D02*
X142875000Y-102870000D01*
X168265000Y-123200000D02*
X165745000Y-123200000D01*
X142880000Y-102865000D02*
X142880000Y-100420000D01*
X162665000Y-120120000D02*
X162665000Y-108688807D01*
X142875000Y-102870000D02*
X142880000Y-102865000D01*
X168275000Y-123190000D02*
X168265000Y-123200000D01*
X165745000Y-123200000D02*
X162665000Y-120120000D01*
%TO.N,/VIDEO/VA0*%
X168275000Y-125730000D02*
X168265000Y-125740000D01*
X140340000Y-102875000D02*
X140340000Y-100420000D01*
X168265000Y-125740000D02*
X165745000Y-125740000D01*
X142875000Y-105410000D02*
X140340000Y-102875000D01*
X165745000Y-125740000D02*
X162215000Y-122210000D01*
X158432995Y-105410000D02*
X142875000Y-105410000D01*
X162215000Y-109192005D02*
X158432995Y-105410000D01*
X162215000Y-122210000D02*
X162215000Y-109192005D01*
%TO.N,Net-(U17-Pad6)*%
X149865000Y-186690000D02*
X145415000Y-182240000D01*
%TO.N,Net-(U10-Pad1)*%
X99695000Y-127000000D02*
X97155000Y-124460000D01*
X157485000Y-181610000D02*
X155575000Y-179700000D01*
X97150000Y-124465000D02*
X94615000Y-124465000D01*
X97155000Y-124460000D02*
X97150000Y-124465000D01*
X99695000Y-148590000D02*
X99695000Y-127000000D01*
%TO.N,Net-(U10-Pad11)*%
X174625000Y-127000000D02*
X183515000Y-118110000D01*
X163195000Y-127000000D02*
X174625000Y-127000000D01*
X159380000Y-132160000D02*
X158120000Y-130900000D01*
X157485000Y-184150000D02*
X159385000Y-182250000D01*
X161925000Y-128270000D02*
X163195000Y-127000000D01*
X159385000Y-182245000D02*
X159385000Y-132080000D01*
X161925000Y-130810000D02*
X161925000Y-128270000D01*
%TO.N,/VIDEO/VD3*%
X145420000Y-132085000D02*
X145420000Y-130900000D01*
X146685000Y-140335000D02*
X146685000Y-133350000D01*
X146685000Y-133350000D02*
X145420000Y-132085000D01*
%TO.N,/VIDEO/VD2*%
X142880000Y-132085000D02*
X142880000Y-130900000D01*
X144145000Y-140335000D02*
X144145000Y-133350000D01*
X144145000Y-133350000D02*
X142880000Y-132085000D01*
%TO.N,/VIDEO/VD1*%
X141605000Y-140335000D02*
X141605000Y-133350000D01*
X141605000Y-133350000D02*
X140340000Y-132085000D01*
X140340000Y-132085000D02*
X140340000Y-130900000D01*
%TO.N,/VIDEO/VD0*%
X139065000Y-140335000D02*
X118110000Y-140335000D01*
X139065000Y-133985000D02*
X137795000Y-132715000D01*
X139065000Y-140335000D02*
X139065000Y-133985000D01*
X116205000Y-138430000D02*
X116205000Y-125735000D01*
X137795000Y-132715000D02*
X137800000Y-132710000D01*
X116205000Y-125735000D02*
X109855000Y-119385000D01*
X137800000Y-132710000D02*
X137800000Y-130900000D01*
X118110000Y-140335000D02*
X116205000Y-138430000D01*
%TO.N,/VIDEO/{slash}CAS*%
X100965000Y-150405500D02*
X100965000Y-105410000D01*
X97155000Y-101600000D02*
X94615000Y-101600000D01*
X100965000Y-105410000D02*
X97155000Y-101600000D01*
X157485000Y-186690000D02*
X156200000Y-186690000D01*
X156200000Y-186690000D02*
X154305000Y-184795000D01*
%TO.N,Net-(U13-Pad12)*%
X260985000Y-176630000D02*
X260985000Y-179170000D01*
%TO.N,/CF_CE*%
X242570000Y-198755000D02*
X242570000Y-191760000D01*
X242570000Y-191760000D02*
X245110000Y-189220000D01*
%TO.N,/PSG_CE*%
X45085000Y-165100000D02*
X45085000Y-177150000D01*
X44480000Y-180330000D02*
X44480000Y-182870000D01*
X45745000Y-184135000D02*
X46990000Y-184135000D01*
X46990000Y-179055000D02*
X45755000Y-179055000D01*
X44480000Y-182870000D02*
X45745000Y-184135000D01*
X45755000Y-179055000D02*
X44480000Y-180330000D01*
X45085000Y-177150000D02*
X46990000Y-179055000D01*
%TO.N,/VIDEO/{slash}CSR*%
X96520000Y-134620000D02*
X98970000Y-137070000D01*
X107315000Y-186690000D02*
X115555000Y-186690000D01*
X94615000Y-134620000D02*
X96520000Y-134620000D01*
X98970000Y-137070000D02*
X98970000Y-178345000D01*
X98970000Y-178345000D02*
X107315000Y-186690000D01*
%TO.N,/VIDEO/{slash}CSW*%
X121920000Y-190485000D02*
X123175000Y-189230000D01*
X92889500Y-133810500D02*
X92889500Y-179884500D01*
X94615000Y-132085000D02*
X92889500Y-133810500D01*
X103505000Y-190500000D02*
X121920000Y-190500000D01*
X92889500Y-179884500D02*
X103505000Y-190500000D01*
%TO.N,/VIDEO/{slash}RAS*%
X102235000Y-149770500D02*
X102235000Y-104456802D01*
X102235000Y-104456802D02*
X96838198Y-99060000D01*
X96838198Y-99060000D02*
X94615000Y-99060000D01*
%TO.N,Net-(U17-Pad3)*%
X149865000Y-179070000D02*
X153665000Y-182870000D01*
X153665000Y-185410000D02*
X157485000Y-189230000D01*
X153665000Y-182870000D02*
X153665000Y-185410000D01*
%TO.N,Net-(U17-Pad4)*%
X149865000Y-181610000D02*
X149865000Y-184150000D01*
%TO.N,Net-(U20-Pad1)*%
X46990000Y-144185000D02*
X46990000Y-173975000D01*
X46970000Y-144165000D02*
X54610000Y-136525000D01*
X46970000Y-144165000D02*
X46990000Y-144185000D01*
%TO.N,Net-(U20-Pad4)*%
X46990000Y-181595000D02*
X48295000Y-181595000D01*
X48295000Y-181595000D02*
X50830000Y-179060000D01*
X50830000Y-169535000D02*
X49550000Y-168255000D01*
X54610000Y-141605000D02*
X49550000Y-146665000D01*
X50830000Y-179060000D02*
X50830000Y-169535000D01*
X49550000Y-146665000D02*
X49550000Y-168255000D01*
%TO.N,/SOUND/ROW7*%
X31730000Y-167080000D02*
X31730000Y-156920000D01*
%TO.N,/SOUND/ROW6*%
X39370000Y-123825000D02*
X38155000Y-123825000D01*
X38155000Y-123825000D02*
X34270000Y-127710000D01*
X34270000Y-139140000D02*
X31730000Y-141680000D01*
X34270000Y-127710000D02*
X34270000Y-139140000D01*
%TO.N,/SOUND/ROW5*%
X39370000Y-126365000D02*
X38790000Y-126365000D01*
X38790000Y-126365000D02*
X35010000Y-130145000D01*
X35010000Y-130145000D02*
X35010000Y-140940000D01*
X35010000Y-140940000D02*
X31730000Y-144220000D01*
%TO.N,/SOUND/ROW4*%
X39370000Y-128905000D02*
X38155000Y-128905000D01*
X38155000Y-128905000D02*
X35460000Y-131600000D01*
X35460000Y-131600000D02*
X35460000Y-143030000D01*
X35460000Y-143030000D02*
X31730000Y-146760000D01*
%TO.N,/SOUND/ROW3*%
X35910000Y-133690000D02*
X35910000Y-145120000D01*
X38155000Y-131445000D02*
X35910000Y-133690000D01*
X35910000Y-145120000D02*
X31730000Y-149300000D01*
X39370000Y-131445000D02*
X38155000Y-131445000D01*
%TO.N,/SOUND/ROW2*%
X39370000Y-133985000D02*
X38155000Y-133985000D01*
X38155000Y-133985000D02*
X36360000Y-135780000D01*
X36360000Y-135780000D02*
X36360000Y-147210000D01*
X36360000Y-147210000D02*
X31730000Y-151840000D01*
%TO.N,/SOUND/ROW1*%
X39370000Y-136525000D02*
X38155000Y-136525000D01*
X36810000Y-149300000D02*
X31730000Y-154380000D01*
X36810000Y-137870000D02*
X36810000Y-149300000D01*
X38155000Y-136525000D02*
X36810000Y-137870000D01*
%TO.N,/SOUND/COL7*%
X25380000Y-165810000D02*
X25380000Y-135330000D01*
X25380000Y-135330000D02*
X31730000Y-128980000D01*
%TO.N,/SOUND/COL6*%
X21570000Y-131520000D02*
X31730000Y-121360000D01*
X21570000Y-164540000D02*
X21570000Y-131520000D01*
%TO.N,/SOUND/COL5*%
X22840000Y-163270000D02*
X22840000Y-132790000D01*
X22840000Y-132790000D02*
X31730000Y-123900000D01*
%TO.N,/SOUND/COL4*%
X24110000Y-162000000D02*
X24110000Y-134060000D01*
X24110000Y-134060000D02*
X31730000Y-126440000D01*
%TO.N,/SOUND/COL3*%
X20300000Y-130250000D02*
X31730000Y-118820000D01*
X20300000Y-160730000D02*
X20300000Y-130250000D01*
%TO.N,/SOUND/COL2*%
X26650000Y-136600000D02*
X31730000Y-131520000D01*
X26650000Y-159460000D02*
X26650000Y-136600000D01*
%TO.N,/SOUND/COL1*%
X27920000Y-158190000D02*
X27920000Y-137870000D01*
X27920000Y-137870000D02*
X31730000Y-134060000D01*
%TO.N,/SOUND/COL0*%
X29190000Y-168350000D02*
X29190000Y-139140000D01*
X29190000Y-139140000D02*
X31730000Y-136600000D01*
D49*
%TO.N,VCC*%
X207010000Y-169640000D02*
X206470000Y-170180000D01*
X323215000Y-57275564D02*
X320805000Y-57275564D01*
X135155000Y-115570000D02*
X135255000Y-115670000D01*
D48*
X374015000Y-127000000D02*
X379810000Y-127000000D01*
X386080000Y-100965000D02*
X386715000Y-101600000D01*
X255270000Y-74920000D02*
X255905000Y-74285000D01*
X371612500Y-127455000D02*
X373560000Y-127455000D01*
X379810000Y-127000000D02*
X381000000Y-128190000D01*
X248285000Y-73650000D02*
X249555000Y-74920000D01*
X123175000Y-170200000D02*
X123190000Y-170185000D01*
D49*
X139660000Y-63460000D02*
X139745000Y-63545000D01*
X125095000Y-57150000D02*
X122555000Y-54610000D01*
D48*
X387350000Y-95250000D02*
X397510000Y-95250000D01*
D49*
X295910000Y-34925000D02*
X234315000Y-34925000D01*
X131445000Y-115570000D02*
X135155000Y-115570000D01*
X25400000Y-96520000D02*
X27940000Y-99060000D01*
X368935000Y-86360000D02*
X382197651Y-86360000D01*
D48*
X191135000Y-170220000D02*
X191185000Y-170170000D01*
D49*
X271780000Y-90805000D02*
X250545000Y-90805000D01*
X382197651Y-88192651D02*
X382905000Y-88900000D01*
X131445000Y-130850000D02*
X135210000Y-130850000D01*
D48*
X191135000Y-173990000D02*
X191135000Y-170220000D01*
X56950500Y-110925500D02*
X56950500Y-136724500D01*
D49*
X382197651Y-86360000D02*
X382197651Y-88192651D01*
D48*
X56950500Y-136724500D02*
X54610000Y-139065000D01*
D49*
X116880000Y-113030000D02*
X113705000Y-116205000D01*
X27619888Y-103095112D02*
X27940000Y-102775000D01*
X248920000Y-92430000D02*
X248920000Y-97515000D01*
X318135000Y-43830000D02*
X318125000Y-43820000D01*
X131445000Y-100330000D02*
X128905000Y-102870000D01*
X318135000Y-48895000D02*
X318135000Y-43830000D01*
X213360000Y-95250000D02*
X213360000Y-104775000D01*
X320044436Y-48895000D02*
X320665000Y-49515564D01*
X351145000Y-54595564D02*
X376540564Y-54595564D01*
X183515000Y-102870000D02*
X183515000Y-99020000D01*
X308610000Y-86360000D02*
X304165000Y-90805000D01*
X320805000Y-57275564D02*
X320665000Y-57135564D01*
X207010000Y-137110000D02*
X207010000Y-169640000D01*
D48*
X402590000Y-84455000D02*
X402590000Y-92710000D01*
D49*
X320665000Y-57135564D02*
X320665000Y-62215564D01*
X358770000Y-93980000D02*
X358770000Y-97760000D01*
X295910000Y-34925000D02*
X371475000Y-34925000D01*
X382905000Y-88900000D02*
X382905000Y-98425000D01*
X20955000Y-103095112D02*
X27619888Y-103095112D01*
X87719500Y-48895000D02*
X122555000Y-48895000D01*
X131445000Y-100330000D02*
X135170000Y-100330000D01*
D48*
X320665000Y-50785564D02*
X329705000Y-50785564D01*
X329705000Y-50785564D02*
X330835000Y-49655564D01*
D49*
X27940000Y-99060000D02*
X27940000Y-102775000D01*
D48*
X249555000Y-74920000D02*
X255270000Y-74920000D01*
D49*
X85915000Y-50800000D02*
X85915000Y-50699500D01*
D48*
X386080000Y-98425000D02*
X386080000Y-100965000D01*
X157485000Y-170200000D02*
X157475000Y-170190000D01*
X255905000Y-74285000D02*
X255905000Y-73650000D01*
D49*
X128905000Y-113030000D02*
X128905000Y-128310000D01*
X320665000Y-50785564D02*
X320665000Y-57135564D01*
X382157651Y-86320000D02*
X382197651Y-86360000D01*
D48*
X402590000Y-92710000D02*
X400050000Y-95250000D01*
D49*
X139660000Y-59055000D02*
X139660000Y-63460000D01*
X381000000Y-181340000D02*
X372745000Y-189595000D01*
X368935000Y-34925000D02*
X368935000Y-86360000D01*
D48*
X259705000Y-73650000D02*
X259715000Y-73660000D01*
D49*
X250545000Y-90805000D02*
X248920000Y-92430000D01*
X358735000Y-86360000D02*
X358735000Y-100265000D01*
X183515000Y-60325000D02*
X183515000Y-99020000D01*
D48*
X402590000Y-103505000D02*
X402590000Y-104775000D01*
X294045000Y-173990000D02*
X294045000Y-170220000D01*
D49*
X313135000Y-86360000D02*
X313175000Y-86320000D01*
X128905000Y-102870000D02*
X128905000Y-113030000D01*
X113705000Y-116205000D02*
X113705000Y-116840000D01*
X313175000Y-86320000D02*
X313690000Y-86320000D01*
X122555000Y-48895000D02*
X122555000Y-38735000D01*
D48*
X123175000Y-173990000D02*
X123175000Y-170200000D01*
D49*
X382905000Y-127000000D02*
X381715000Y-128190000D01*
D48*
X54610000Y-173975000D02*
X54610000Y-170180000D01*
D49*
X183515000Y-99020000D02*
X183475000Y-99060000D01*
X128905000Y-113030000D02*
X116880000Y-113030000D01*
X259715000Y-90805000D02*
X259715000Y-73660000D01*
X231140000Y-38100000D02*
X231140000Y-58420000D01*
X183515000Y-59610000D02*
X185420000Y-57705000D01*
X377825000Y-57850000D02*
X377825000Y-55880000D01*
X210820000Y-92710000D02*
X213360000Y-95250000D01*
X381715000Y-128190000D02*
X381000000Y-128190000D01*
D48*
X244475000Y-73650000D02*
X248285000Y-73650000D01*
D49*
X313690000Y-86320000D02*
X382157651Y-86320000D01*
X376540564Y-54595564D02*
X377825000Y-55880000D01*
X372745000Y-189595000D02*
X353060000Y-189595000D01*
D48*
X373560000Y-127455000D02*
X374015000Y-127000000D01*
D49*
X358770000Y-97760000D02*
X365755000Y-97760000D01*
X128905000Y-128310000D02*
X131445000Y-130850000D01*
X137755000Y-57150000D02*
X125095000Y-57150000D01*
X271700000Y-92430000D02*
X271700000Y-99975000D01*
X358735000Y-100265000D02*
X358770000Y-100300000D01*
X135210000Y-130850000D02*
X135260000Y-130900000D01*
X318135000Y-48895000D02*
X320044436Y-48895000D01*
D48*
X54610000Y-108585000D02*
X56950500Y-110925500D01*
X386080000Y-98425000D02*
X386080000Y-96520000D01*
D49*
X271700000Y-92430000D02*
X271780000Y-92350000D01*
X234315000Y-34925000D02*
X231140000Y-38100000D01*
D48*
X214630000Y-62230000D02*
X210820000Y-62230000D01*
D49*
X131445000Y-92710000D02*
X131445000Y-100330000D01*
X122555000Y-54610000D02*
X122555000Y-48895000D01*
X340985000Y-54595564D02*
X351145000Y-54595564D01*
X135170000Y-100330000D02*
X135260000Y-100420000D01*
D48*
X400685000Y-101600000D02*
X402590000Y-103505000D01*
D49*
X85915000Y-50699500D02*
X87719500Y-48895000D01*
X128905000Y-115570000D02*
X131445000Y-115570000D01*
X213360000Y-104825000D02*
X210870000Y-107315000D01*
X382905000Y-98425000D02*
X382905000Y-127000000D01*
D48*
X54610000Y-170180000D02*
X54600000Y-170170000D01*
D49*
X304165000Y-90805000D02*
X271780000Y-90805000D01*
X381000000Y-168005000D02*
X381000000Y-181340000D01*
D48*
X386080000Y-96520000D02*
X387350000Y-95250000D01*
D49*
X183515000Y-60325000D02*
X183515000Y-59610000D01*
X320665000Y-49515564D02*
X320665000Y-50785564D01*
X308610000Y-86360000D02*
X313135000Y-86360000D01*
D48*
X157485000Y-173990000D02*
X157485000Y-170195000D01*
D49*
X382280000Y-75565000D02*
X382280000Y-86277651D01*
D48*
X54610000Y-98425000D02*
X54610000Y-108585000D01*
X255905000Y-73650000D02*
X259705000Y-73650000D01*
D49*
X325785000Y-62215564D02*
X320665000Y-62215564D01*
X346710000Y-189595000D02*
X353060000Y-189595000D01*
D48*
X386715000Y-101600000D02*
X400685000Y-101600000D01*
D49*
X113705000Y-116840000D02*
X109855000Y-116840000D01*
X139660000Y-59055000D02*
X137755000Y-57150000D01*
X271780000Y-92350000D02*
X271780000Y-90805000D01*
D48*
X400050000Y-95250000D02*
X396875000Y-95250000D01*
D49*
X271700000Y-99975000D02*
X271780000Y-100055000D01*
X386080000Y-98425000D02*
X382905000Y-98425000D01*
%TO.N,Net-(C44-Pad1)*%
X382945000Y-60960000D02*
X372745000Y-60960000D01*
X372745000Y-57850000D02*
X372745000Y-75462651D01*
X382905000Y-60920000D02*
X382945000Y-60960000D01*
X372745000Y-75462651D02*
X372847349Y-75565000D01*
X379095000Y-34925000D02*
X381000000Y-34925000D01*
X382905000Y-36830000D02*
X382905000Y-60920000D01*
X381000000Y-34925000D02*
X382905000Y-36830000D01*
%TO.N,Net-(D3-Pad1)*%
X389255000Y-65405000D02*
X386715000Y-67945000D01*
X389255000Y-55385000D02*
X389255000Y-65405000D01*
X389430000Y-55210000D02*
X389255000Y-55385000D01*
X386715000Y-67945000D02*
X381000000Y-67945000D01*
D48*
%TO.N,Net-(D6-Pad2)*%
X396240000Y-98425000D02*
X400050000Y-98425000D01*
%TO.N,/DEV_CS1*%
X45720000Y-71120000D02*
X40533000Y-65933000D01*
X45720000Y-100330000D02*
X45720000Y-71120000D01*
X245110000Y-199935500D02*
X245110000Y-191760000D01*
X41910000Y-167640000D02*
X41910000Y-104140000D01*
X40640000Y-168910000D02*
X41910000Y-167640000D01*
X41910000Y-104140000D02*
X45720000Y-100330000D01*
X40640000Y-200025000D02*
X40640000Y-168910000D01*
X40533000Y-65933000D02*
X40533000Y-39370000D01*
%TO.N,Net-(U12-Pad1)*%
X310515000Y-48895000D02*
X310515000Y-51435000D01*
%TO.N,Net-(J1-Pad1)*%
X392430000Y-130175000D02*
X393375000Y-129230000D01*
X392430000Y-152400000D02*
X392430000Y-130175000D01*
X393375000Y-129230000D02*
X394500000Y-129230000D01*
%TO.N,Net-(U26-Pad6)*%
X198875000Y-186705000D02*
X195580000Y-190000000D01*
X195580000Y-198120000D02*
X193675000Y-200025000D01*
X193675000Y-200025000D02*
X187325000Y-200025000D01*
X186055000Y-194310000D02*
X183515000Y-191770000D01*
X195580000Y-190000000D02*
X195580000Y-198120000D01*
X186055000Y-198755000D02*
X186055000Y-194310000D01*
X187325000Y-200025000D02*
X186055000Y-198755000D01*
%TO.N,Net-(U26-Pad9)*%
X175945000Y-196840000D02*
X179735000Y-200630000D01*
X175945000Y-181600000D02*
X175945000Y-196840000D01*
X206495000Y-199305000D02*
X206495000Y-191785000D01*
X205170000Y-200630000D02*
X206495000Y-199305000D01*
X179735000Y-200630000D02*
X205170000Y-200630000D01*
%TO.N,Net-(JP3-Pad2)*%
X174625000Y-174030000D02*
X174675000Y-173980000D01*
X174625000Y-199479500D02*
X174625000Y-174030000D01*
%TO.N,Net-(C34-Pad1)*%
X354915000Y-62215564D02*
X354955000Y-62175564D01*
X397455000Y-71120000D02*
X397455000Y-77620000D01*
X346700000Y-64755564D02*
X349240000Y-62215564D01*
X328285000Y-57265564D02*
X328285000Y-62850564D01*
X349240000Y-62215564D02*
X351145000Y-62215564D01*
X328285000Y-62850564D02*
X330190000Y-64755564D01*
X351145000Y-62215564D02*
X354915000Y-62215564D01*
X323215000Y-52195564D02*
X328285000Y-57265564D01*
X330190000Y-64755564D02*
X346700000Y-64755564D01*
%TO.N,Net-(C41-Pad1)*%
X378460000Y-144780000D02*
X386779888Y-144780000D01*
X386779888Y-150559888D02*
X388620000Y-152400000D01*
X388620000Y-152400000D02*
X389890000Y-152400000D01*
X386779888Y-144780000D02*
X386779888Y-150559888D01*
%TO.N,Net-(C43-Pad2)*%
X21590000Y-76240000D02*
X21590000Y-67310000D01*
%TO.N,/INT_DEV4*%
X200160000Y-177800000D02*
X198875000Y-179085000D01*
X209050000Y-177800000D02*
X200160000Y-177800000D01*
X212860000Y-173990000D02*
X209050000Y-177800000D01*
%TO.N,Net-(C48-Pad1)*%
X189865000Y-60325000D02*
X220345000Y-60325000D01*
X191770000Y-40640000D02*
X191770000Y-45720000D01*
X189865000Y-47625000D02*
X189865000Y-64770000D01*
X189865000Y-64770000D02*
X189865000Y-74930000D01*
X220345000Y-60325000D02*
X222250000Y-62230000D01*
X222250000Y-77470000D02*
X222250000Y-62230000D01*
X191770000Y-45720000D02*
X189865000Y-47625000D01*
X191770000Y-40640000D02*
X189865000Y-38735000D01*
X189865000Y-38735000D02*
X186690000Y-38735000D01*
%TO.N,Net-(C49-Pad1)*%
X202197387Y-46990000D02*
X203352387Y-45835000D01*
X194310000Y-41910000D02*
X198080000Y-41910000D01*
X195580000Y-46990000D02*
X202197387Y-46990000D01*
X194310000Y-41910000D02*
X194310000Y-45720000D01*
X209335000Y-47410000D02*
X214550000Y-47410000D01*
X198080000Y-41910000D02*
X198120000Y-41870000D01*
X194310000Y-38735000D02*
X194310000Y-42545000D01*
X203352387Y-45835000D02*
X207760000Y-45835000D01*
X194310000Y-45720000D02*
X195580000Y-46990000D01*
X207760000Y-45835000D02*
X209335000Y-47410000D01*
%TO.N,Net-(C51-Pad2)*%
X230360000Y-67155000D02*
X235730000Y-67155000D01*
X229235000Y-66030000D02*
X230360000Y-67155000D01*
X204550000Y-50880000D02*
X207010000Y-53340000D01*
X204550000Y-47410000D02*
X204550000Y-50880000D01*
X241855000Y-62855000D02*
X238680000Y-66030000D01*
X238680000Y-66030000D02*
X236855000Y-66030000D01*
X226695000Y-53340000D02*
X229235000Y-55880000D01*
X229235000Y-55880000D02*
X229235000Y-66030000D01*
X207010000Y-53340000D02*
X226695000Y-53340000D01*
X235730000Y-67155000D02*
X236855000Y-66030000D01*
%TO.N,/IO/PB2*%
X139700000Y-49530000D02*
X151447500Y-49530000D01*
X154940000Y-53022500D02*
X154940000Y-76290000D01*
X154940000Y-76290000D02*
X152445000Y-78785000D01*
X137795000Y-38735000D02*
X137795000Y-47625000D01*
X151447500Y-49530000D02*
X154940000Y-53022500D01*
X137795000Y-47625000D02*
X139700000Y-49530000D01*
%TO.N,/IO/PB3*%
X136525000Y-50165000D02*
X133985000Y-47625000D01*
X152445000Y-53385000D02*
X149225000Y-50165000D01*
X149225000Y-50165000D02*
X136525000Y-50165000D01*
X133985000Y-47625000D02*
X133985000Y-38735000D01*
X152445000Y-63545000D02*
X152445000Y-53385000D01*
%TO.N,Net-(D7-Pad1)*%
X293370000Y-50800000D02*
X293370000Y-71755000D01*
%TO.N,Net-(U25-Pad10)*%
X210435000Y-183025000D02*
X220570000Y-183025000D01*
X220570000Y-183025000D02*
X221695000Y-184150000D01*
X206495000Y-179085000D02*
X210435000Y-183025000D01*
%TO.N,Net-(R25-Pad2)*%
X197485000Y-64770000D02*
X203200000Y-64770000D01*
%TO.N,Net-(R26-Pad2)*%
X197485000Y-69850000D02*
X203200000Y-69850000D01*
%TO.N,Net-(R27-Pad2)*%
X197485000Y-74930000D02*
X203200000Y-74930000D01*
%TO.N,Net-(R28-Pad2)*%
X210820000Y-77470000D02*
X214630000Y-77470000D01*
%TO.N,Net-(R29-Pad2)*%
X210820000Y-72390000D02*
X214630000Y-72390000D01*
%TO.N,Net-(R30-Pad2)*%
X210820000Y-67310000D02*
X214630000Y-67310000D01*
%TO.N,Net-(R35-Pad1)*%
X248285000Y-66030000D02*
X248285000Y-67300000D01*
X248285000Y-67300000D02*
X249565000Y-68580000D01*
X249565000Y-68580000D02*
X259715000Y-68580000D01*
%TO.N,Net-(R38-Pad1)*%
X240665000Y-66030000D02*
X244475000Y-66030000D01*
X247660000Y-71120000D02*
X259715000Y-71120000D01*
X244475000Y-66030000D02*
X244475000Y-67935000D01*
X244475000Y-67935000D02*
X247660000Y-71120000D01*
%TO.N,Net-(D10-Pad2)*%
X233045000Y-73650000D02*
X240665000Y-73650000D01*
%TO.N,/IO/Casette Interface/PC7*%
X196850000Y-62230000D02*
X203200000Y-62230000D01*
X194945000Y-81369500D02*
X194945000Y-64135000D01*
X194945000Y-64135000D02*
X196850000Y-62230000D01*
%TO.N,/IO/Casette Interface/PC3*%
X208369500Y-72300500D02*
X210820000Y-69850000D01*
X208369500Y-81915000D02*
X208369500Y-72300500D01*
%TO.N,Net-(U25-Pad3)*%
X221695000Y-179070000D02*
X221695000Y-181610000D01*
%TO.N,Net-(JP3-Pad1)*%
X226700000Y-191695000D02*
X226700000Y-194945000D01*
X221695000Y-186690000D02*
X226700000Y-191695000D01*
%TO.N,Net-(U25-Pad12)*%
X229315000Y-176530000D02*
X229315000Y-179070000D01*
%TO.N,/RD*%
X120650000Y-179055000D02*
X115555000Y-184150000D01*
X74930000Y-95250000D02*
X74930000Y-77470000D01*
X80010000Y-100330000D02*
X74930000Y-95250000D01*
X80010000Y-163284500D02*
X80010000Y-100330000D01*
X74930000Y-50800000D02*
X76233000Y-49497000D01*
X260970000Y-184250000D02*
X260970000Y-186790000D01*
X76233000Y-49497000D02*
X76233000Y-39370000D01*
X74930000Y-77470000D02*
X74930000Y-50800000D01*
X191770000Y-113715000D02*
X195630000Y-109855000D01*
%TO.N,Net-(J8-Pad1)*%
X210870000Y-117475000D02*
X216490000Y-117475000D01*
X216490000Y-117475000D02*
X216535000Y-117430000D01*
%TO.N,Net-(J8-Pad3)*%
X213950000Y-114935000D02*
X216535000Y-112350000D01*
X210870000Y-114935000D02*
X213950000Y-114935000D01*
%TO.N,Net-(J8-Pad5)*%
X210870000Y-112395000D02*
X211410000Y-112395000D01*
X211410000Y-112395000D02*
X216535000Y-107270000D01*
%TO.N,Net-(J8-Pad7)*%
X214630000Y-104095000D02*
X216535000Y-102190000D01*
X210870000Y-109760000D02*
X214630000Y-106000000D01*
X214630000Y-106000000D02*
X214630000Y-104095000D01*
X210870000Y-109855000D02*
X210870000Y-109760000D01*
%TO.N,Net-(D8-Pad1)*%
X280035000Y-40005000D02*
X280035000Y-36830000D01*
%TO.N,/MR*%
X351790000Y-181340000D02*
X331470000Y-181340000D01*
X256540000Y-189980000D02*
X253350000Y-186790000D01*
X256540000Y-199300500D02*
X256540000Y-189980000D01*
%TO.N,Net-(J10-Pad38)*%
X335267500Y-186150000D02*
X335267500Y-188312500D01*
X335267500Y-188312500D02*
X336550000Y-189595000D01*
%TO.N,Net-(J10-Pad39)*%
X401955000Y-118745000D02*
X400050000Y-116840000D01*
X386080000Y-113665000D02*
X386080000Y-104775000D01*
X383540000Y-182610000D02*
X383540000Y-164830000D01*
X332267500Y-189757500D02*
X334645000Y-192135000D01*
X374015000Y-192135000D02*
X383540000Y-182610000D01*
X332267500Y-185150000D02*
X332267500Y-189757500D01*
X334645000Y-192135000D02*
X374015000Y-192135000D01*
X389255000Y-116840000D02*
X386080000Y-113665000D01*
X333267500Y-184150000D02*
X332267500Y-185150000D01*
X401955000Y-146415000D02*
X401955000Y-118745000D01*
X400050000Y-116840000D02*
X389255000Y-116840000D01*
X383540000Y-164830000D02*
X401955000Y-146415000D01*
%TO.N,/WR*%
X125715000Y-181610000D02*
X123175000Y-184150000D01*
X52070000Y-184170000D02*
X49565000Y-186675000D01*
X81280000Y-100330000D02*
X76200000Y-95250000D01*
X64770000Y-50800000D02*
X64770000Y-48260000D01*
X286425000Y-176530000D02*
X286425000Y-173990000D01*
X64770000Y-48260000D02*
X63483000Y-46973000D01*
X81280000Y-163919500D02*
X81280000Y-100330000D01*
X63483000Y-46973000D02*
X63483000Y-39370000D01*
X76200000Y-95250000D02*
X76200000Y-66040000D01*
X52070000Y-163830000D02*
X52070000Y-184150000D01*
X76200000Y-50800000D02*
X76200000Y-66040000D01*
X49565000Y-186675000D02*
X46990000Y-186675000D01*
%TO.N,Net-(U13-Pad8)*%
X260985000Y-198665500D02*
X260970000Y-198650500D01*
X292775000Y-198625500D02*
X292775000Y-187960000D01*
X260970000Y-198650500D02*
X260970000Y-189330000D01*
X292735000Y-198665500D02*
X292775000Y-198625500D01*
X292775000Y-187960000D02*
X294045000Y-186690000D01*
%TO.N,Net-(U27-Pad10)*%
X291505000Y-186690000D02*
X294045000Y-184150000D01*
X292920000Y-180195000D02*
X292920000Y-183025000D01*
X294045000Y-179070000D02*
X292920000Y-180195000D01*
X292920000Y-183025000D02*
X294045000Y-184150000D01*
X286425000Y-186690000D02*
X291505000Y-186690000D01*
%TO.N,Net-(U27-Pad13)*%
X286425000Y-179030000D02*
X288925000Y-176530000D01*
X286425000Y-179070000D02*
X286425000Y-179030000D01*
X288925000Y-176530000D02*
X294045000Y-176530000D01*
%TD*%
M02*
