%FSLAX45Y45*%
G04 Gerber Fmt 4.5, Leading zero omitted, Abs format (unit mm)*
G04 Created by KiCad (PCBNEW (6.0.6)) date 2022-08-30 12:21:12*
%MOMM*%
%LPD*%
G01*
G04 APERTURE LIST*
%TA.AperFunction,Profile*%
%ADD10C,0.100000*%
%TD*%
%ADD11C,0.200000*%
%ADD12C,0.100000*%
%ADD13C,0.350000*%
G04 APERTURE END LIST*
D10*
X1397000Y-4572000D02*
X1397000Y-20574000D01*
X14414500Y-4572000D02*
X14414500Y-3175000D01*
X12001500Y-4572000D02*
X12001500Y-3175000D01*
X8636000Y-4572000D02*
X12001500Y-4572000D01*
X15621000Y-4572000D02*
X14414500Y-4572000D01*
X8636000Y-3302000D02*
X8636000Y-4572000D01*
X40386000Y-3175000D02*
X15621000Y-3175000D01*
X3302000Y-4572000D02*
X3302000Y-3175000D01*
X40386000Y-3175000D02*
X40386000Y-20574000D01*
X8636000Y-3175000D02*
X8636000Y-3302000D01*
X15621000Y-3175000D02*
X15621000Y-4572000D01*
X14414500Y-3175000D02*
X12001500Y-3175000D01*
X1397000Y-20574000D02*
X40386000Y-20574000D01*
X1397000Y-4572000D02*
X3302000Y-4572000D01*
X3302000Y-3175000D02*
X8636000Y-3175000D01*
D11*
D12*
X39670000Y-12493000D02*
X39770000Y-12593000D01*
X39770000Y-12493000D02*
X39670000Y-12593000D01*
X39670000Y-12933000D02*
X39770000Y-13033000D01*
X39770000Y-12933000D02*
X39670000Y-13033000D01*
D13*
X37703500Y-4119000D02*
G75*
G03*
X37703500Y-4119000I-175000J0D01*
G01*
D11*
X1649619Y-20889476D02*
X1649619Y-20689476D01*
X1697238Y-20689476D01*
X1725809Y-20699000D01*
X1744857Y-20718048D01*
X1754381Y-20737095D01*
X1763905Y-20775190D01*
X1763905Y-20803762D01*
X1754381Y-20841857D01*
X1744857Y-20860905D01*
X1725809Y-20879952D01*
X1697238Y-20889476D01*
X1649619Y-20889476D01*
X1849619Y-20889476D02*
X1849619Y-20756143D01*
X1849619Y-20794238D02*
X1859143Y-20775190D01*
X1868667Y-20765667D01*
X1887714Y-20756143D01*
X1906762Y-20756143D01*
X1973428Y-20889476D02*
X1973428Y-20756143D01*
X1973428Y-20689476D02*
X1963905Y-20699000D01*
X1973428Y-20708524D01*
X1982952Y-20699000D01*
X1973428Y-20689476D01*
X1973428Y-20708524D01*
X2097238Y-20889476D02*
X2078190Y-20879952D01*
X2068667Y-20860905D01*
X2068667Y-20689476D01*
X2202000Y-20889476D02*
X2182952Y-20879952D01*
X2173429Y-20860905D01*
X2173429Y-20689476D01*
X2430571Y-20889476D02*
X2430571Y-20689476D01*
X2497238Y-20832333D01*
X2563905Y-20689476D01*
X2563905Y-20889476D01*
X2744857Y-20889476D02*
X2744857Y-20784714D01*
X2735333Y-20765667D01*
X2716286Y-20756143D01*
X2678190Y-20756143D01*
X2659143Y-20765667D01*
X2744857Y-20879952D02*
X2725810Y-20889476D01*
X2678190Y-20889476D01*
X2659143Y-20879952D01*
X2649619Y-20860905D01*
X2649619Y-20841857D01*
X2659143Y-20822810D01*
X2678190Y-20813286D01*
X2725810Y-20813286D01*
X2744857Y-20803762D01*
X2840095Y-20756143D02*
X2840095Y-20956143D01*
X2840095Y-20765667D02*
X2859143Y-20756143D01*
X2897238Y-20756143D01*
X2916286Y-20765667D01*
X2925809Y-20775190D01*
X2935333Y-20794238D01*
X2935333Y-20851381D01*
X2925809Y-20870429D01*
X2916286Y-20879952D01*
X2897238Y-20889476D01*
X2859143Y-20889476D01*
X2840095Y-20879952D01*
X3021048Y-20870429D02*
X3030571Y-20879952D01*
X3021048Y-20889476D01*
X3011524Y-20879952D01*
X3021048Y-20870429D01*
X3021048Y-20889476D01*
X3021048Y-20765667D02*
X3030571Y-20775190D01*
X3021048Y-20784714D01*
X3011524Y-20775190D01*
X3021048Y-20765667D01*
X3021048Y-20784714D01*
D12*
X1292000Y-21169000D02*
X1392000Y-21269000D01*
X1392000Y-21169000D02*
X1292000Y-21269000D01*
D11*
X1754381Y-21309476D02*
X1640095Y-21309476D01*
X1697238Y-21309476D02*
X1697238Y-21109476D01*
X1678190Y-21138048D01*
X1659143Y-21157095D01*
X1640095Y-21166619D01*
X1840095Y-21290429D02*
X1849619Y-21299952D01*
X1840095Y-21309476D01*
X1830571Y-21299952D01*
X1840095Y-21290429D01*
X1840095Y-21309476D01*
X1973428Y-21109476D02*
X1992476Y-21109476D01*
X2011524Y-21119000D01*
X2021048Y-21128524D01*
X2030571Y-21147571D01*
X2040095Y-21185667D01*
X2040095Y-21233286D01*
X2030571Y-21271381D01*
X2021048Y-21290429D01*
X2011524Y-21299952D01*
X1992476Y-21309476D01*
X1973428Y-21309476D01*
X1954381Y-21299952D01*
X1944857Y-21290429D01*
X1935333Y-21271381D01*
X1925809Y-21233286D01*
X1925809Y-21185667D01*
X1935333Y-21147571D01*
X1944857Y-21128524D01*
X1954381Y-21119000D01*
X1973428Y-21109476D01*
X2163905Y-21109476D02*
X2182952Y-21109476D01*
X2202000Y-21119000D01*
X2211524Y-21128524D01*
X2221048Y-21147571D01*
X2230571Y-21185667D01*
X2230571Y-21233286D01*
X2221048Y-21271381D01*
X2211524Y-21290429D01*
X2202000Y-21299952D01*
X2182952Y-21309476D01*
X2163905Y-21309476D01*
X2144857Y-21299952D01*
X2135333Y-21290429D01*
X2125810Y-21271381D01*
X2116286Y-21233286D01*
X2116286Y-21185667D01*
X2125810Y-21147571D01*
X2135333Y-21128524D01*
X2144857Y-21119000D01*
X2163905Y-21109476D01*
X2354381Y-21109476D02*
X2373429Y-21109476D01*
X2392476Y-21119000D01*
X2402000Y-21128524D01*
X2411524Y-21147571D01*
X2421048Y-21185667D01*
X2421048Y-21233286D01*
X2411524Y-21271381D01*
X2402000Y-21290429D01*
X2392476Y-21299952D01*
X2373429Y-21309476D01*
X2354381Y-21309476D01*
X2335333Y-21299952D01*
X2325810Y-21290429D01*
X2316286Y-21271381D01*
X2306762Y-21233286D01*
X2306762Y-21185667D01*
X2316286Y-21147571D01*
X2325810Y-21128524D01*
X2335333Y-21119000D01*
X2354381Y-21109476D01*
X2506762Y-21309476D02*
X2506762Y-21176143D01*
X2506762Y-21195190D02*
X2516286Y-21185667D01*
X2535333Y-21176143D01*
X2563905Y-21176143D01*
X2582952Y-21185667D01*
X2592476Y-21204714D01*
X2592476Y-21309476D01*
X2592476Y-21204714D02*
X2602000Y-21185667D01*
X2621048Y-21176143D01*
X2649619Y-21176143D01*
X2668667Y-21185667D01*
X2678190Y-21204714D01*
X2678190Y-21309476D01*
X2773429Y-21309476D02*
X2773429Y-21176143D01*
X2773429Y-21195190D02*
X2782952Y-21185667D01*
X2802000Y-21176143D01*
X2830571Y-21176143D01*
X2849619Y-21185667D01*
X2859143Y-21204714D01*
X2859143Y-21309476D01*
X2859143Y-21204714D02*
X2868667Y-21185667D01*
X2887714Y-21176143D01*
X2916286Y-21176143D01*
X2935333Y-21185667D01*
X2944857Y-21204714D01*
X2944857Y-21309476D01*
X3335333Y-21099952D02*
X3163905Y-21357095D01*
X3592476Y-21109476D02*
X3611524Y-21109476D01*
X3630571Y-21119000D01*
X3640095Y-21128524D01*
X3649619Y-21147571D01*
X3659143Y-21185667D01*
X3659143Y-21233286D01*
X3649619Y-21271381D01*
X3640095Y-21290429D01*
X3630571Y-21299952D01*
X3611524Y-21309476D01*
X3592476Y-21309476D01*
X3573428Y-21299952D01*
X3563905Y-21290429D01*
X3554381Y-21271381D01*
X3544857Y-21233286D01*
X3544857Y-21185667D01*
X3554381Y-21147571D01*
X3563905Y-21128524D01*
X3573428Y-21119000D01*
X3592476Y-21109476D01*
X3744857Y-21290429D02*
X3754381Y-21299952D01*
X3744857Y-21309476D01*
X3735333Y-21299952D01*
X3744857Y-21290429D01*
X3744857Y-21309476D01*
X3878190Y-21109476D02*
X3897238Y-21109476D01*
X3916286Y-21119000D01*
X3925809Y-21128524D01*
X3935333Y-21147571D01*
X3944857Y-21185667D01*
X3944857Y-21233286D01*
X3935333Y-21271381D01*
X3925809Y-21290429D01*
X3916286Y-21299952D01*
X3897238Y-21309476D01*
X3878190Y-21309476D01*
X3859143Y-21299952D01*
X3849619Y-21290429D01*
X3840095Y-21271381D01*
X3830571Y-21233286D01*
X3830571Y-21185667D01*
X3840095Y-21147571D01*
X3849619Y-21128524D01*
X3859143Y-21119000D01*
X3878190Y-21109476D01*
X4011524Y-21109476D02*
X4135333Y-21109476D01*
X4068667Y-21185667D01*
X4097238Y-21185667D01*
X4116286Y-21195190D01*
X4125809Y-21204714D01*
X4135333Y-21223762D01*
X4135333Y-21271381D01*
X4125809Y-21290429D01*
X4116286Y-21299952D01*
X4097238Y-21309476D01*
X4040095Y-21309476D01*
X4021048Y-21299952D01*
X4011524Y-21290429D01*
X4230571Y-21309476D02*
X4268667Y-21309476D01*
X4287714Y-21299952D01*
X4297238Y-21290429D01*
X4316286Y-21261857D01*
X4325810Y-21223762D01*
X4325810Y-21147571D01*
X4316286Y-21128524D01*
X4306762Y-21119000D01*
X4287714Y-21109476D01*
X4249619Y-21109476D01*
X4230571Y-21119000D01*
X4221048Y-21128524D01*
X4211524Y-21147571D01*
X4211524Y-21195190D01*
X4221048Y-21214238D01*
X4230571Y-21223762D01*
X4249619Y-21233286D01*
X4287714Y-21233286D01*
X4306762Y-21223762D01*
X4316286Y-21214238D01*
X4325810Y-21195190D01*
X4497238Y-21176143D02*
X4497238Y-21309476D01*
X4449619Y-21099952D02*
X4402000Y-21242810D01*
X4525810Y-21242810D01*
X4592476Y-21109476D02*
X4592476Y-21147571D01*
X4668667Y-21109476D02*
X4668667Y-21147571D01*
X4963905Y-21385667D02*
X4954381Y-21376143D01*
X4935333Y-21347571D01*
X4925810Y-21328524D01*
X4916286Y-21299952D01*
X4906762Y-21252333D01*
X4906762Y-21214238D01*
X4916286Y-21166619D01*
X4925810Y-21138048D01*
X4935333Y-21119000D01*
X4954381Y-21090429D01*
X4963905Y-21080905D01*
X5030571Y-21128524D02*
X5040095Y-21119000D01*
X5059143Y-21109476D01*
X5106762Y-21109476D01*
X5125810Y-21119000D01*
X5135333Y-21128524D01*
X5144857Y-21147571D01*
X5144857Y-21166619D01*
X5135333Y-21195190D01*
X5021048Y-21309476D01*
X5144857Y-21309476D01*
X5382952Y-21309476D02*
X5382952Y-21109476D01*
X5468667Y-21309476D02*
X5468667Y-21204714D01*
X5459143Y-21185667D01*
X5440095Y-21176143D01*
X5411524Y-21176143D01*
X5392476Y-21185667D01*
X5382952Y-21195190D01*
X5592476Y-21309476D02*
X5573429Y-21299952D01*
X5563905Y-21290429D01*
X5554381Y-21271381D01*
X5554381Y-21214238D01*
X5563905Y-21195190D01*
X5573429Y-21185667D01*
X5592476Y-21176143D01*
X5621048Y-21176143D01*
X5640095Y-21185667D01*
X5649619Y-21195190D01*
X5659143Y-21214238D01*
X5659143Y-21271381D01*
X5649619Y-21290429D01*
X5640095Y-21299952D01*
X5621048Y-21309476D01*
X5592476Y-21309476D01*
X5773428Y-21309476D02*
X5754381Y-21299952D01*
X5744857Y-21280905D01*
X5744857Y-21109476D01*
X5925809Y-21299952D02*
X5906762Y-21309476D01*
X5868667Y-21309476D01*
X5849619Y-21299952D01*
X5840095Y-21280905D01*
X5840095Y-21204714D01*
X5849619Y-21185667D01*
X5868667Y-21176143D01*
X5906762Y-21176143D01*
X5925809Y-21185667D01*
X5935333Y-21204714D01*
X5935333Y-21223762D01*
X5840095Y-21242810D01*
X6011524Y-21299952D02*
X6030571Y-21309476D01*
X6068667Y-21309476D01*
X6087714Y-21299952D01*
X6097238Y-21280905D01*
X6097238Y-21271381D01*
X6087714Y-21252333D01*
X6068667Y-21242810D01*
X6040095Y-21242810D01*
X6021048Y-21233286D01*
X6011524Y-21214238D01*
X6011524Y-21204714D01*
X6021048Y-21185667D01*
X6040095Y-21176143D01*
X6068667Y-21176143D01*
X6087714Y-21185667D01*
X6163905Y-21385667D02*
X6173428Y-21376143D01*
X6192476Y-21347571D01*
X6202000Y-21328524D01*
X6211524Y-21299952D01*
X6221048Y-21252333D01*
X6221048Y-21214238D01*
X6211524Y-21166619D01*
X6202000Y-21138048D01*
X6192476Y-21119000D01*
X6173428Y-21090429D01*
X6163905Y-21080905D01*
X6525809Y-21385667D02*
X6516286Y-21376143D01*
X6497238Y-21347571D01*
X6487714Y-21328524D01*
X6478190Y-21299952D01*
X6468667Y-21252333D01*
X6468667Y-21214238D01*
X6478190Y-21166619D01*
X6487714Y-21138048D01*
X6497238Y-21119000D01*
X6516286Y-21090429D01*
X6525809Y-21080905D01*
X6602000Y-21176143D02*
X6602000Y-21309476D01*
X6602000Y-21195190D02*
X6611524Y-21185667D01*
X6630571Y-21176143D01*
X6659143Y-21176143D01*
X6678190Y-21185667D01*
X6687714Y-21204714D01*
X6687714Y-21309476D01*
X6811524Y-21309476D02*
X6792476Y-21299952D01*
X6782952Y-21290429D01*
X6773428Y-21271381D01*
X6773428Y-21214238D01*
X6782952Y-21195190D01*
X6792476Y-21185667D01*
X6811524Y-21176143D01*
X6840095Y-21176143D01*
X6859143Y-21185667D01*
X6868667Y-21195190D01*
X6878190Y-21214238D01*
X6878190Y-21271381D01*
X6868667Y-21290429D01*
X6859143Y-21299952D01*
X6840095Y-21309476D01*
X6811524Y-21309476D01*
X6935333Y-21176143D02*
X7011524Y-21176143D01*
X6963905Y-21109476D02*
X6963905Y-21280905D01*
X6973428Y-21299952D01*
X6992476Y-21309476D01*
X7011524Y-21309476D01*
X7230571Y-21176143D02*
X7230571Y-21376143D01*
X7230571Y-21185667D02*
X7249619Y-21176143D01*
X7287714Y-21176143D01*
X7306762Y-21185667D01*
X7316286Y-21195190D01*
X7325809Y-21214238D01*
X7325809Y-21271381D01*
X7316286Y-21290429D01*
X7306762Y-21299952D01*
X7287714Y-21309476D01*
X7249619Y-21309476D01*
X7230571Y-21299952D01*
X7440095Y-21309476D02*
X7421048Y-21299952D01*
X7411524Y-21280905D01*
X7411524Y-21109476D01*
X7602000Y-21309476D02*
X7602000Y-21204714D01*
X7592476Y-21185667D01*
X7573428Y-21176143D01*
X7535333Y-21176143D01*
X7516286Y-21185667D01*
X7602000Y-21299952D02*
X7582952Y-21309476D01*
X7535333Y-21309476D01*
X7516286Y-21299952D01*
X7506762Y-21280905D01*
X7506762Y-21261857D01*
X7516286Y-21242810D01*
X7535333Y-21233286D01*
X7582952Y-21233286D01*
X7602000Y-21223762D01*
X7668667Y-21176143D02*
X7744857Y-21176143D01*
X7697238Y-21109476D02*
X7697238Y-21280905D01*
X7706762Y-21299952D01*
X7725809Y-21309476D01*
X7744857Y-21309476D01*
X7887714Y-21299952D02*
X7868667Y-21309476D01*
X7830571Y-21309476D01*
X7811524Y-21299952D01*
X7802000Y-21280905D01*
X7802000Y-21204714D01*
X7811524Y-21185667D01*
X7830571Y-21176143D01*
X7868667Y-21176143D01*
X7887714Y-21185667D01*
X7897238Y-21204714D01*
X7897238Y-21223762D01*
X7802000Y-21242810D01*
X8068667Y-21309476D02*
X8068667Y-21109476D01*
X8068667Y-21299952D02*
X8049619Y-21309476D01*
X8011524Y-21309476D01*
X7992476Y-21299952D01*
X7982952Y-21290429D01*
X7973428Y-21271381D01*
X7973428Y-21214238D01*
X7982952Y-21195190D01*
X7992476Y-21185667D01*
X8011524Y-21176143D01*
X8049619Y-21176143D01*
X8068667Y-21185667D01*
X8144857Y-21385667D02*
X8154381Y-21376143D01*
X8173428Y-21347571D01*
X8182952Y-21328524D01*
X8192476Y-21299952D01*
X8202000Y-21252333D01*
X8202000Y-21214238D01*
X8192476Y-21166619D01*
X8182952Y-21138048D01*
X8173428Y-21119000D01*
X8154381Y-21090429D01*
X8144857Y-21080905D01*
X1392000Y-21483000D02*
G75*
G03*
X1392000Y-21483000I-100000J0D01*
G01*
X1630571Y-21373476D02*
X1754381Y-21373476D01*
X1687714Y-21449667D01*
X1716286Y-21449667D01*
X1735333Y-21459190D01*
X1744857Y-21468714D01*
X1754381Y-21487762D01*
X1754381Y-21535381D01*
X1744857Y-21554429D01*
X1735333Y-21563952D01*
X1716286Y-21573476D01*
X1659143Y-21573476D01*
X1640095Y-21563952D01*
X1630571Y-21554429D01*
X1840095Y-21554429D02*
X1849619Y-21563952D01*
X1840095Y-21573476D01*
X1830571Y-21563952D01*
X1840095Y-21554429D01*
X1840095Y-21573476D01*
X2030571Y-21373476D02*
X1935333Y-21373476D01*
X1925809Y-21468714D01*
X1935333Y-21459190D01*
X1954381Y-21449667D01*
X2002000Y-21449667D01*
X2021048Y-21459190D01*
X2030571Y-21468714D01*
X2040095Y-21487762D01*
X2040095Y-21535381D01*
X2030571Y-21554429D01*
X2021048Y-21563952D01*
X2002000Y-21573476D01*
X1954381Y-21573476D01*
X1935333Y-21563952D01*
X1925809Y-21554429D01*
X2163905Y-21373476D02*
X2182952Y-21373476D01*
X2202000Y-21383000D01*
X2211524Y-21392524D01*
X2221048Y-21411571D01*
X2230571Y-21449667D01*
X2230571Y-21497286D01*
X2221048Y-21535381D01*
X2211524Y-21554429D01*
X2202000Y-21563952D01*
X2182952Y-21573476D01*
X2163905Y-21573476D01*
X2144857Y-21563952D01*
X2135333Y-21554429D01*
X2125810Y-21535381D01*
X2116286Y-21497286D01*
X2116286Y-21449667D01*
X2125810Y-21411571D01*
X2135333Y-21392524D01*
X2144857Y-21383000D01*
X2163905Y-21373476D01*
X2354381Y-21373476D02*
X2373429Y-21373476D01*
X2392476Y-21383000D01*
X2402000Y-21392524D01*
X2411524Y-21411571D01*
X2421048Y-21449667D01*
X2421048Y-21497286D01*
X2411524Y-21535381D01*
X2402000Y-21554429D01*
X2392476Y-21563952D01*
X2373429Y-21573476D01*
X2354381Y-21573476D01*
X2335333Y-21563952D01*
X2325810Y-21554429D01*
X2316286Y-21535381D01*
X2306762Y-21497286D01*
X2306762Y-21449667D01*
X2316286Y-21411571D01*
X2325810Y-21392524D01*
X2335333Y-21383000D01*
X2354381Y-21373476D01*
X2506762Y-21573476D02*
X2506762Y-21440143D01*
X2506762Y-21459190D02*
X2516286Y-21449667D01*
X2535333Y-21440143D01*
X2563905Y-21440143D01*
X2582952Y-21449667D01*
X2592476Y-21468714D01*
X2592476Y-21573476D01*
X2592476Y-21468714D02*
X2602000Y-21449667D01*
X2621048Y-21440143D01*
X2649619Y-21440143D01*
X2668667Y-21449667D01*
X2678190Y-21468714D01*
X2678190Y-21573476D01*
X2773429Y-21573476D02*
X2773429Y-21440143D01*
X2773429Y-21459190D02*
X2782952Y-21449667D01*
X2802000Y-21440143D01*
X2830571Y-21440143D01*
X2849619Y-21449667D01*
X2859143Y-21468714D01*
X2859143Y-21573476D01*
X2859143Y-21468714D02*
X2868667Y-21449667D01*
X2887714Y-21440143D01*
X2916286Y-21440143D01*
X2935333Y-21449667D01*
X2944857Y-21468714D01*
X2944857Y-21573476D01*
X3335333Y-21363952D02*
X3163905Y-21621095D01*
X3592476Y-21373476D02*
X3611524Y-21373476D01*
X3630571Y-21383000D01*
X3640095Y-21392524D01*
X3649619Y-21411571D01*
X3659143Y-21449667D01*
X3659143Y-21497286D01*
X3649619Y-21535381D01*
X3640095Y-21554429D01*
X3630571Y-21563952D01*
X3611524Y-21573476D01*
X3592476Y-21573476D01*
X3573428Y-21563952D01*
X3563905Y-21554429D01*
X3554381Y-21535381D01*
X3544857Y-21497286D01*
X3544857Y-21449667D01*
X3554381Y-21411571D01*
X3563905Y-21392524D01*
X3573428Y-21383000D01*
X3592476Y-21373476D01*
X3744857Y-21554429D02*
X3754381Y-21563952D01*
X3744857Y-21573476D01*
X3735333Y-21563952D01*
X3744857Y-21554429D01*
X3744857Y-21573476D01*
X3944857Y-21573476D02*
X3830571Y-21573476D01*
X3887714Y-21573476D02*
X3887714Y-21373476D01*
X3868667Y-21402048D01*
X3849619Y-21421095D01*
X3830571Y-21430619D01*
X4011524Y-21373476D02*
X4135333Y-21373476D01*
X4068667Y-21449667D01*
X4097238Y-21449667D01*
X4116286Y-21459190D01*
X4125809Y-21468714D01*
X4135333Y-21487762D01*
X4135333Y-21535381D01*
X4125809Y-21554429D01*
X4116286Y-21563952D01*
X4097238Y-21573476D01*
X4040095Y-21573476D01*
X4021048Y-21563952D01*
X4011524Y-21554429D01*
X4202000Y-21373476D02*
X4335333Y-21373476D01*
X4249619Y-21573476D01*
X4440095Y-21459190D02*
X4421048Y-21449667D01*
X4411524Y-21440143D01*
X4402000Y-21421095D01*
X4402000Y-21411571D01*
X4411524Y-21392524D01*
X4421048Y-21383000D01*
X4440095Y-21373476D01*
X4478190Y-21373476D01*
X4497238Y-21383000D01*
X4506762Y-21392524D01*
X4516286Y-21411571D01*
X4516286Y-21421095D01*
X4506762Y-21440143D01*
X4497238Y-21449667D01*
X4478190Y-21459190D01*
X4440095Y-21459190D01*
X4421048Y-21468714D01*
X4411524Y-21478238D01*
X4402000Y-21497286D01*
X4402000Y-21535381D01*
X4411524Y-21554429D01*
X4421048Y-21563952D01*
X4440095Y-21573476D01*
X4478190Y-21573476D01*
X4497238Y-21563952D01*
X4506762Y-21554429D01*
X4516286Y-21535381D01*
X4516286Y-21497286D01*
X4506762Y-21478238D01*
X4497238Y-21468714D01*
X4478190Y-21459190D01*
X4592476Y-21373476D02*
X4592476Y-21411571D01*
X4668667Y-21373476D02*
X4668667Y-21411571D01*
X4963905Y-21649667D02*
X4954381Y-21640143D01*
X4935333Y-21611571D01*
X4925810Y-21592524D01*
X4916286Y-21563952D01*
X4906762Y-21516333D01*
X4906762Y-21478238D01*
X4916286Y-21430619D01*
X4925810Y-21402048D01*
X4935333Y-21383000D01*
X4954381Y-21354429D01*
X4963905Y-21344905D01*
X5144857Y-21573476D02*
X5030571Y-21573476D01*
X5087714Y-21573476D02*
X5087714Y-21373476D01*
X5068667Y-21402048D01*
X5049619Y-21421095D01*
X5030571Y-21430619D01*
X5382952Y-21573476D02*
X5382952Y-21373476D01*
X5468667Y-21573476D02*
X5468667Y-21468714D01*
X5459143Y-21449667D01*
X5440095Y-21440143D01*
X5411524Y-21440143D01*
X5392476Y-21449667D01*
X5382952Y-21459190D01*
X5592476Y-21573476D02*
X5573429Y-21563952D01*
X5563905Y-21554429D01*
X5554381Y-21535381D01*
X5554381Y-21478238D01*
X5563905Y-21459190D01*
X5573429Y-21449667D01*
X5592476Y-21440143D01*
X5621048Y-21440143D01*
X5640095Y-21449667D01*
X5649619Y-21459190D01*
X5659143Y-21478238D01*
X5659143Y-21535381D01*
X5649619Y-21554429D01*
X5640095Y-21563952D01*
X5621048Y-21573476D01*
X5592476Y-21573476D01*
X5773428Y-21573476D02*
X5754381Y-21563952D01*
X5744857Y-21544905D01*
X5744857Y-21373476D01*
X5925809Y-21563952D02*
X5906762Y-21573476D01*
X5868667Y-21573476D01*
X5849619Y-21563952D01*
X5840095Y-21544905D01*
X5840095Y-21468714D01*
X5849619Y-21449667D01*
X5868667Y-21440143D01*
X5906762Y-21440143D01*
X5925809Y-21449667D01*
X5935333Y-21468714D01*
X5935333Y-21487762D01*
X5840095Y-21506810D01*
X6002000Y-21649667D02*
X6011524Y-21640143D01*
X6030571Y-21611571D01*
X6040095Y-21592524D01*
X6049619Y-21563952D01*
X6059143Y-21516333D01*
X6059143Y-21478238D01*
X6049619Y-21430619D01*
X6040095Y-21402048D01*
X6030571Y-21383000D01*
X6011524Y-21354429D01*
X6002000Y-21344905D01*
X6363905Y-21649667D02*
X6354381Y-21640143D01*
X6335333Y-21611571D01*
X6325809Y-21592524D01*
X6316286Y-21563952D01*
X6306762Y-21516333D01*
X6306762Y-21478238D01*
X6316286Y-21430619D01*
X6325809Y-21402048D01*
X6335333Y-21383000D01*
X6354381Y-21354429D01*
X6363905Y-21344905D01*
X6440095Y-21440143D02*
X6440095Y-21573476D01*
X6440095Y-21459190D02*
X6449619Y-21449667D01*
X6468667Y-21440143D01*
X6497238Y-21440143D01*
X6516286Y-21449667D01*
X6525809Y-21468714D01*
X6525809Y-21573476D01*
X6649619Y-21573476D02*
X6630571Y-21563952D01*
X6621048Y-21554429D01*
X6611524Y-21535381D01*
X6611524Y-21478238D01*
X6621048Y-21459190D01*
X6630571Y-21449667D01*
X6649619Y-21440143D01*
X6678190Y-21440143D01*
X6697238Y-21449667D01*
X6706762Y-21459190D01*
X6716286Y-21478238D01*
X6716286Y-21535381D01*
X6706762Y-21554429D01*
X6697238Y-21563952D01*
X6678190Y-21573476D01*
X6649619Y-21573476D01*
X6773428Y-21440143D02*
X6849619Y-21440143D01*
X6802000Y-21373476D02*
X6802000Y-21544905D01*
X6811524Y-21563952D01*
X6830571Y-21573476D01*
X6849619Y-21573476D01*
X7068667Y-21440143D02*
X7068667Y-21640143D01*
X7068667Y-21449667D02*
X7087714Y-21440143D01*
X7125809Y-21440143D01*
X7144857Y-21449667D01*
X7154381Y-21459190D01*
X7163905Y-21478238D01*
X7163905Y-21535381D01*
X7154381Y-21554429D01*
X7144857Y-21563952D01*
X7125809Y-21573476D01*
X7087714Y-21573476D01*
X7068667Y-21563952D01*
X7278190Y-21573476D02*
X7259143Y-21563952D01*
X7249619Y-21544905D01*
X7249619Y-21373476D01*
X7440095Y-21573476D02*
X7440095Y-21468714D01*
X7430571Y-21449667D01*
X7411524Y-21440143D01*
X7373428Y-21440143D01*
X7354381Y-21449667D01*
X7440095Y-21563952D02*
X7421048Y-21573476D01*
X7373428Y-21573476D01*
X7354381Y-21563952D01*
X7344857Y-21544905D01*
X7344857Y-21525857D01*
X7354381Y-21506810D01*
X7373428Y-21497286D01*
X7421048Y-21497286D01*
X7440095Y-21487762D01*
X7506762Y-21440143D02*
X7582952Y-21440143D01*
X7535333Y-21373476D02*
X7535333Y-21544905D01*
X7544857Y-21563952D01*
X7563905Y-21573476D01*
X7582952Y-21573476D01*
X7725809Y-21563952D02*
X7706762Y-21573476D01*
X7668667Y-21573476D01*
X7649619Y-21563952D01*
X7640095Y-21544905D01*
X7640095Y-21468714D01*
X7649619Y-21449667D01*
X7668667Y-21440143D01*
X7706762Y-21440143D01*
X7725809Y-21449667D01*
X7735333Y-21468714D01*
X7735333Y-21487762D01*
X7640095Y-21506810D01*
X7906762Y-21573476D02*
X7906762Y-21373476D01*
X7906762Y-21563952D02*
X7887714Y-21573476D01*
X7849619Y-21573476D01*
X7830571Y-21563952D01*
X7821048Y-21554429D01*
X7811524Y-21535381D01*
X7811524Y-21478238D01*
X7821048Y-21459190D01*
X7830571Y-21449667D01*
X7849619Y-21440143D01*
X7887714Y-21440143D01*
X7906762Y-21449667D01*
X7982952Y-21649667D02*
X7992476Y-21640143D01*
X8011524Y-21611571D01*
X8021048Y-21592524D01*
X8030571Y-21563952D01*
X8040095Y-21516333D01*
X8040095Y-21478238D01*
X8030571Y-21430619D01*
X8021048Y-21402048D01*
X8011524Y-21383000D01*
X7992476Y-21354429D01*
X7982952Y-21344905D01*
M02*
