G04 #@! TF.GenerationSoftware,KiCad,Pcbnew,(5.1.2)-1*
G04 #@! TF.CreationDate,2019-08-07T20:20:44+02:00*
G04 #@! TF.ProjectId,Z80Mini,5a38304d-696e-4692-9e6b-696361645f70,rev?*
G04 #@! TF.SameCoordinates,Original*
G04 #@! TF.FileFunction,Copper,L1,Top*
G04 #@! TF.FilePolarity,Positive*
%FSLAX46Y46*%
G04 Gerber Fmt 4.6, Leading zero omitted, Abs format (unit mm)*
G04 Created by KiCad (PCBNEW (5.1.2)-1) date 2019-08-07 20:20:44*
%MOMM*%
%LPD*%
G04 APERTURE LIST*
%ADD10C,6.000000*%
%ADD11C,0.800000*%
%ADD12O,1.727200X1.727200*%
%ADD13R,1.727200X1.727200*%
%ADD14O,2.400000X1.600000*%
%ADD15R,2.400000X1.600000*%
%ADD16O,1.600000X1.600000*%
%ADD17C,1.600000*%
%ADD18C,1.800000*%
%ADD19R,1.800000X1.800000*%
%ADD20C,0.100000*%
%ADD21C,0.975000*%
%ADD22R,1.600000X1.600000*%
%ADD23R,1.700000X2.000000*%
%ADD24R,2.000000X0.500000*%
%ADD25C,2.000000*%
%ADD26R,1.750000X0.450000*%
%ADD27O,1.600000X2.400000*%
%ADD28R,1.600000X2.400000*%
%ADD29R,13.000000X1.650000*%
%ADD30C,0.250000*%
%ADD31C,1.000000*%
%ADD32C,0.254000*%
G04 APERTURE END LIST*
D10*
X243840000Y-144780000D03*
D11*
X246090000Y-144780000D03*
X245430990Y-146370990D03*
X243840000Y-147030000D03*
X242249010Y-146370990D03*
X241590000Y-144780000D03*
X242249010Y-143189010D03*
X243840000Y-142530000D03*
X245430990Y-143189010D03*
X254320990Y-49209010D03*
X252730000Y-48550000D03*
X251139010Y-49209010D03*
X250480000Y-50800000D03*
X251139010Y-52390990D03*
X252730000Y-53050000D03*
X254320990Y-52390990D03*
X254980000Y-50800000D03*
D10*
X252730000Y-50800000D03*
X83820000Y-144780000D03*
D11*
X86070000Y-144780000D03*
X85410990Y-146370990D03*
X83820000Y-147030000D03*
X82229010Y-146370990D03*
X81570000Y-144780000D03*
X82229010Y-143189010D03*
X83820000Y-142530000D03*
X85410990Y-143189010D03*
X85410990Y-49209010D03*
X83820000Y-48550000D03*
X82229010Y-49209010D03*
X81570000Y-50800000D03*
X82229010Y-52390990D03*
X83820000Y-53050000D03*
X85410990Y-52390990D03*
X86070000Y-50800000D03*
D10*
X83820000Y-50800000D03*
D12*
X247650000Y-102870000D03*
X245110000Y-102870000D03*
X247650000Y-100330000D03*
X245110000Y-100330000D03*
X247650000Y-97790000D03*
X245110000Y-97790000D03*
X247650000Y-95250000D03*
X245110000Y-95250000D03*
X247650000Y-92710000D03*
X245110000Y-92710000D03*
X247650000Y-90170000D03*
X245110000Y-90170000D03*
X247650000Y-87630000D03*
X245110000Y-87630000D03*
X247650000Y-85090000D03*
X245110000Y-85090000D03*
X247650000Y-82550000D03*
X245110000Y-82550000D03*
X247650000Y-80010000D03*
D13*
X245110000Y-80010000D03*
D14*
X207010000Y-73660000D03*
X191770000Y-121920000D03*
X207010000Y-76200000D03*
X191770000Y-119380000D03*
X207010000Y-78740000D03*
X191770000Y-116840000D03*
X207010000Y-81280000D03*
X191770000Y-114300000D03*
X207010000Y-83820000D03*
X191770000Y-111760000D03*
X207010000Y-86360000D03*
X191770000Y-109220000D03*
X207010000Y-88900000D03*
X191770000Y-106680000D03*
X207010000Y-91440000D03*
X191770000Y-104140000D03*
X207010000Y-93980000D03*
X191770000Y-101600000D03*
X207010000Y-96520000D03*
X191770000Y-99060000D03*
X207010000Y-99060000D03*
X191770000Y-96520000D03*
X207010000Y-101600000D03*
X191770000Y-93980000D03*
X207010000Y-104140000D03*
X191770000Y-91440000D03*
X207010000Y-106680000D03*
X191770000Y-88900000D03*
X207010000Y-109220000D03*
X191770000Y-86360000D03*
X207010000Y-111760000D03*
X191770000Y-83820000D03*
X207010000Y-114300000D03*
X191770000Y-81280000D03*
X207010000Y-116840000D03*
X191770000Y-78740000D03*
X207010000Y-119380000D03*
X191770000Y-76200000D03*
X207010000Y-121920000D03*
D15*
X191770000Y-73660000D03*
D14*
X231590000Y-73780000D03*
X216350000Y-122040000D03*
X231590000Y-76320000D03*
X216350000Y-119500000D03*
X231590000Y-78860000D03*
X216350000Y-116960000D03*
X231590000Y-81400000D03*
X216350000Y-114420000D03*
X231590000Y-83940000D03*
X216350000Y-111880000D03*
X231590000Y-86480000D03*
X216350000Y-109340000D03*
X231590000Y-89020000D03*
X216350000Y-106800000D03*
X231590000Y-91560000D03*
X216350000Y-104260000D03*
X231590000Y-94100000D03*
X216350000Y-101720000D03*
X231590000Y-96640000D03*
X216350000Y-99180000D03*
X231590000Y-99180000D03*
X216350000Y-96640000D03*
X231590000Y-101720000D03*
X216350000Y-94100000D03*
X231590000Y-104260000D03*
X216350000Y-91560000D03*
X231590000Y-106800000D03*
X216350000Y-89020000D03*
X231590000Y-109340000D03*
X216350000Y-86480000D03*
X231590000Y-111880000D03*
X216350000Y-83940000D03*
X231590000Y-114420000D03*
X216350000Y-81400000D03*
X231590000Y-116960000D03*
X216350000Y-78860000D03*
X231590000Y-119500000D03*
X216350000Y-76320000D03*
X231590000Y-122040000D03*
D15*
X216350000Y-73780000D03*
D14*
X232410000Y-52070000D03*
X224790000Y-59690000D03*
X232410000Y-54610000D03*
X224790000Y-57150000D03*
X232410000Y-57150000D03*
X224790000Y-54610000D03*
X232410000Y-59690000D03*
D15*
X224790000Y-52070000D03*
D16*
X208280000Y-63500000D03*
D17*
X215900000Y-63500000D03*
D16*
X208280000Y-59690000D03*
D17*
X215900000Y-59690000D03*
D16*
X208280000Y-55880000D03*
D17*
X215900000Y-55880000D03*
D16*
X208280000Y-52070000D03*
D17*
X215900000Y-52070000D03*
D16*
X240030000Y-67310000D03*
D17*
X247650000Y-67310000D03*
D18*
X250190000Y-67310000D03*
D19*
X252730000Y-67310000D03*
D16*
X240030000Y-121920000D03*
D17*
X247650000Y-121920000D03*
D16*
X240030000Y-115570000D03*
D17*
X247650000Y-115570000D03*
D18*
X250190000Y-121920000D03*
D19*
X252730000Y-121920000D03*
D18*
X250190000Y-115570000D03*
D19*
X252730000Y-115570000D03*
D20*
G36*
X196060142Y-131261174D02*
G01*
X196083803Y-131264684D01*
X196107007Y-131270496D01*
X196129529Y-131278554D01*
X196151153Y-131288782D01*
X196171670Y-131301079D01*
X196190883Y-131315329D01*
X196208607Y-131331393D01*
X196224671Y-131349117D01*
X196238921Y-131368330D01*
X196251218Y-131388847D01*
X196261446Y-131410471D01*
X196269504Y-131432993D01*
X196275316Y-131456197D01*
X196278826Y-131479858D01*
X196280000Y-131503750D01*
X196280000Y-131991250D01*
X196278826Y-132015142D01*
X196275316Y-132038803D01*
X196269504Y-132062007D01*
X196261446Y-132084529D01*
X196251218Y-132106153D01*
X196238921Y-132126670D01*
X196224671Y-132145883D01*
X196208607Y-132163607D01*
X196190883Y-132179671D01*
X196171670Y-132193921D01*
X196151153Y-132206218D01*
X196129529Y-132216446D01*
X196107007Y-132224504D01*
X196083803Y-132230316D01*
X196060142Y-132233826D01*
X196036250Y-132235000D01*
X195123750Y-132235000D01*
X195099858Y-132233826D01*
X195076197Y-132230316D01*
X195052993Y-132224504D01*
X195030471Y-132216446D01*
X195008847Y-132206218D01*
X194988330Y-132193921D01*
X194969117Y-132179671D01*
X194951393Y-132163607D01*
X194935329Y-132145883D01*
X194921079Y-132126670D01*
X194908782Y-132106153D01*
X194898554Y-132084529D01*
X194890496Y-132062007D01*
X194884684Y-132038803D01*
X194881174Y-132015142D01*
X194880000Y-131991250D01*
X194880000Y-131503750D01*
X194881174Y-131479858D01*
X194884684Y-131456197D01*
X194890496Y-131432993D01*
X194898554Y-131410471D01*
X194908782Y-131388847D01*
X194921079Y-131368330D01*
X194935329Y-131349117D01*
X194951393Y-131331393D01*
X194969117Y-131315329D01*
X194988330Y-131301079D01*
X195008847Y-131288782D01*
X195030471Y-131278554D01*
X195052993Y-131270496D01*
X195076197Y-131264684D01*
X195099858Y-131261174D01*
X195123750Y-131260000D01*
X196036250Y-131260000D01*
X196060142Y-131261174D01*
X196060142Y-131261174D01*
G37*
D21*
X195580000Y-131747500D03*
D20*
G36*
X196060142Y-129386174D02*
G01*
X196083803Y-129389684D01*
X196107007Y-129395496D01*
X196129529Y-129403554D01*
X196151153Y-129413782D01*
X196171670Y-129426079D01*
X196190883Y-129440329D01*
X196208607Y-129456393D01*
X196224671Y-129474117D01*
X196238921Y-129493330D01*
X196251218Y-129513847D01*
X196261446Y-129535471D01*
X196269504Y-129557993D01*
X196275316Y-129581197D01*
X196278826Y-129604858D01*
X196280000Y-129628750D01*
X196280000Y-130116250D01*
X196278826Y-130140142D01*
X196275316Y-130163803D01*
X196269504Y-130187007D01*
X196261446Y-130209529D01*
X196251218Y-130231153D01*
X196238921Y-130251670D01*
X196224671Y-130270883D01*
X196208607Y-130288607D01*
X196190883Y-130304671D01*
X196171670Y-130318921D01*
X196151153Y-130331218D01*
X196129529Y-130341446D01*
X196107007Y-130349504D01*
X196083803Y-130355316D01*
X196060142Y-130358826D01*
X196036250Y-130360000D01*
X195123750Y-130360000D01*
X195099858Y-130358826D01*
X195076197Y-130355316D01*
X195052993Y-130349504D01*
X195030471Y-130341446D01*
X195008847Y-130331218D01*
X194988330Y-130318921D01*
X194969117Y-130304671D01*
X194951393Y-130288607D01*
X194935329Y-130270883D01*
X194921079Y-130251670D01*
X194908782Y-130231153D01*
X194898554Y-130209529D01*
X194890496Y-130187007D01*
X194884684Y-130163803D01*
X194881174Y-130140142D01*
X194880000Y-130116250D01*
X194880000Y-129628750D01*
X194881174Y-129604858D01*
X194884684Y-129581197D01*
X194890496Y-129557993D01*
X194898554Y-129535471D01*
X194908782Y-129513847D01*
X194921079Y-129493330D01*
X194935329Y-129474117D01*
X194951393Y-129456393D01*
X194969117Y-129440329D01*
X194988330Y-129426079D01*
X195008847Y-129413782D01*
X195030471Y-129403554D01*
X195052993Y-129395496D01*
X195076197Y-129389684D01*
X195099858Y-129386174D01*
X195123750Y-129385000D01*
X196036250Y-129385000D01*
X196060142Y-129386174D01*
X196060142Y-129386174D01*
G37*
D21*
X195580000Y-129872500D03*
D17*
X202660000Y-129540000D03*
D22*
X200660000Y-129540000D03*
D17*
X207010000Y-139660000D03*
X207010000Y-137160000D03*
X207010000Y-144740000D03*
X207010000Y-142240000D03*
X191770000Y-143550000D03*
X191770000Y-146050000D03*
D23*
X255580000Y-132710000D03*
X250130000Y-132710000D03*
X255580000Y-141610000D03*
X250130000Y-141610000D03*
D24*
X250030000Y-135560000D03*
X250030000Y-136360000D03*
X250030000Y-137160000D03*
X250030000Y-137960000D03*
X250030000Y-138760000D03*
D17*
X252730000Y-129540000D03*
X250230000Y-129540000D03*
X191770000Y-133350000D03*
X191770000Y-135850000D03*
X191770000Y-138470000D03*
X191770000Y-140970000D03*
D25*
X252880000Y-57150000D03*
X252880000Y-61650000D03*
X246380000Y-57150000D03*
X246380000Y-61650000D03*
D17*
X93980000Y-66040000D03*
X101600000Y-66040000D03*
X101600000Y-58420000D03*
D22*
X93980000Y-58420000D03*
D26*
X202990000Y-136745000D03*
X202990000Y-137395000D03*
X202990000Y-138045000D03*
X202990000Y-138695000D03*
X202990000Y-139345000D03*
X202990000Y-139995000D03*
X202990000Y-140645000D03*
X202990000Y-141295000D03*
X202990000Y-141945000D03*
X202990000Y-142595000D03*
X202990000Y-143245000D03*
X202990000Y-143895000D03*
X202990000Y-144545000D03*
X202990000Y-145195000D03*
X195790000Y-145195000D03*
X195790000Y-144545000D03*
X195790000Y-143895000D03*
X195790000Y-143245000D03*
X195790000Y-142595000D03*
X195790000Y-141945000D03*
X195790000Y-141295000D03*
X195790000Y-140645000D03*
X195790000Y-139995000D03*
X195790000Y-139345000D03*
X195790000Y-138695000D03*
X195790000Y-138045000D03*
X195790000Y-137395000D03*
X195790000Y-136745000D03*
D27*
X115570000Y-53340000D03*
X130810000Y-60960000D03*
X118110000Y-53340000D03*
X128270000Y-60960000D03*
X120650000Y-53340000D03*
X125730000Y-60960000D03*
X123190000Y-53340000D03*
X123190000Y-60960000D03*
X125730000Y-53340000D03*
X120650000Y-60960000D03*
X128270000Y-53340000D03*
X118110000Y-60960000D03*
X130810000Y-53340000D03*
D28*
X115570000Y-60960000D03*
D27*
X142240000Y-53340000D03*
X157480000Y-60960000D03*
X144780000Y-53340000D03*
X154940000Y-60960000D03*
X147320000Y-53340000D03*
X152400000Y-60960000D03*
X149860000Y-53340000D03*
X149860000Y-60960000D03*
X152400000Y-53340000D03*
X147320000Y-60960000D03*
X154940000Y-53340000D03*
X144780000Y-60960000D03*
X157480000Y-53340000D03*
D28*
X142240000Y-60960000D03*
D14*
X180340000Y-73660000D03*
X165100000Y-106680000D03*
X180340000Y-76200000D03*
X165100000Y-104140000D03*
X180340000Y-78740000D03*
X165100000Y-101600000D03*
X180340000Y-81280000D03*
X165100000Y-99060000D03*
X180340000Y-83820000D03*
X165100000Y-96520000D03*
X180340000Y-86360000D03*
X165100000Y-93980000D03*
X180340000Y-88900000D03*
X165100000Y-91440000D03*
X180340000Y-91440000D03*
X165100000Y-88900000D03*
X180340000Y-93980000D03*
X165100000Y-86360000D03*
X180340000Y-96520000D03*
X165100000Y-83820000D03*
X180340000Y-99060000D03*
X165100000Y-81280000D03*
X180340000Y-101600000D03*
X165100000Y-78740000D03*
X180340000Y-104140000D03*
X165100000Y-76200000D03*
X180340000Y-106680000D03*
D15*
X165100000Y-73660000D03*
D14*
X154940000Y-73660000D03*
X139700000Y-106680000D03*
X154940000Y-76200000D03*
X139700000Y-104140000D03*
X154940000Y-78740000D03*
X139700000Y-101600000D03*
X154940000Y-81280000D03*
X139700000Y-99060000D03*
X154940000Y-83820000D03*
X139700000Y-96520000D03*
X154940000Y-86360000D03*
X139700000Y-93980000D03*
X154940000Y-88900000D03*
X139700000Y-91440000D03*
X154940000Y-91440000D03*
X139700000Y-88900000D03*
X154940000Y-93980000D03*
X139700000Y-86360000D03*
X154940000Y-96520000D03*
X139700000Y-83820000D03*
X154940000Y-99060000D03*
X139700000Y-81280000D03*
X154940000Y-101600000D03*
X139700000Y-78740000D03*
X154940000Y-104140000D03*
X139700000Y-76200000D03*
X154940000Y-106680000D03*
D15*
X139700000Y-73660000D03*
D14*
X125730000Y-73660000D03*
X110490000Y-121920000D03*
X125730000Y-76200000D03*
X110490000Y-119380000D03*
X125730000Y-78740000D03*
X110490000Y-116840000D03*
X125730000Y-81280000D03*
X110490000Y-114300000D03*
X125730000Y-83820000D03*
X110490000Y-111760000D03*
X125730000Y-86360000D03*
X110490000Y-109220000D03*
X125730000Y-88900000D03*
X110490000Y-106680000D03*
X125730000Y-91440000D03*
X110490000Y-104140000D03*
X125730000Y-93980000D03*
X110490000Y-101600000D03*
X125730000Y-96520000D03*
X110490000Y-99060000D03*
X125730000Y-99060000D03*
X110490000Y-96520000D03*
X125730000Y-101600000D03*
X110490000Y-93980000D03*
X125730000Y-104140000D03*
X110490000Y-91440000D03*
X125730000Y-106680000D03*
X110490000Y-88900000D03*
X125730000Y-109220000D03*
X110490000Y-86360000D03*
X125730000Y-111760000D03*
X110490000Y-83820000D03*
X125730000Y-114300000D03*
X110490000Y-81280000D03*
X125730000Y-116840000D03*
X110490000Y-78740000D03*
X125730000Y-119380000D03*
X110490000Y-76200000D03*
X125730000Y-121920000D03*
D15*
X110490000Y-73660000D03*
D16*
X86360000Y-129240000D03*
D17*
X86360000Y-136860000D03*
D16*
X91440000Y-129240000D03*
D17*
X91440000Y-136860000D03*
D16*
X96520000Y-129240000D03*
D17*
X96520000Y-136860000D03*
D16*
X179070000Y-57150000D03*
D17*
X171450000Y-57150000D03*
D16*
X179070000Y-52070000D03*
D17*
X171450000Y-52070000D03*
D29*
X70993000Y-122999000D03*
X70993000Y-120449000D03*
X70993000Y-117899000D03*
X70993000Y-115349000D03*
X70993000Y-112799000D03*
X70993000Y-110249000D03*
X70993000Y-107699000D03*
X70993000Y-105149000D03*
X70993000Y-102599000D03*
X70993000Y-100049000D03*
X70993000Y-97499000D03*
X70993000Y-94949000D03*
X70993000Y-92399000D03*
X70993000Y-89849000D03*
X70993000Y-87299000D03*
X70993000Y-84749000D03*
X70993000Y-82199000D03*
X70993000Y-79649000D03*
X70993000Y-77099000D03*
X70993000Y-74549000D03*
D17*
X206930000Y-69850000D03*
X201930000Y-69850000D03*
X222250000Y-69850000D03*
X217250000Y-69850000D03*
X102790000Y-53340000D03*
X97790000Y-53340000D03*
X175340000Y-62230000D03*
X180340000Y-62230000D03*
X110490000Y-53420000D03*
X110490000Y-58420000D03*
X137160000Y-53420000D03*
X137160000Y-58420000D03*
X180340000Y-69850000D03*
X175340000Y-69850000D03*
X154860000Y-69850000D03*
X149860000Y-69850000D03*
X115490000Y-69850000D03*
X110490000Y-69850000D03*
D11*
X240030000Y-104140000D03*
X237490000Y-101600000D03*
X182880000Y-109220000D03*
X194310300Y-140548600D03*
X201504100Y-142953500D03*
X204497400Y-138695000D03*
X248400200Y-135255500D03*
X165100000Y-111760000D03*
X143510000Y-69850000D03*
X97790000Y-62230000D03*
X224790000Y-85090000D03*
X95029000Y-115349000D03*
X106680000Y-125730000D03*
X139700000Y-115570000D03*
X106680000Y-133350000D03*
X82550000Y-114300000D03*
X190500000Y-124460000D03*
X104085400Y-87095400D03*
X95106500Y-87099700D03*
X186690000Y-52070000D03*
X139700000Y-53340000D03*
X115570000Y-49530000D03*
X137160000Y-49530000D03*
X142309990Y-69919990D03*
X84012600Y-104312700D03*
X161415600Y-73343900D03*
X118134500Y-106531200D03*
X195654500Y-100405000D03*
X81702200Y-98505900D03*
X219965000Y-108328000D03*
X188706400Y-111823700D03*
X78426300Y-89014200D03*
X194617200Y-88972300D03*
X116035100Y-99507000D03*
X78310100Y-93996400D03*
X167089800Y-107425600D03*
X103784700Y-96855100D03*
X78875200Y-96525100D03*
X210102800Y-112800700D03*
X79804400Y-94482200D03*
X79589900Y-92923200D03*
X81011000Y-90903500D03*
X81551700Y-88310200D03*
X89404500Y-129657000D03*
X88743100Y-106741700D03*
X78468600Y-108662900D03*
X90115900Y-85095368D03*
X80251700Y-85107700D03*
X142264600Y-74010300D03*
X78964200Y-111759500D03*
X102273500Y-109667200D03*
X85898000Y-119222700D03*
X78210700Y-119799900D03*
X119360100Y-73951800D03*
X85792400Y-85545379D03*
X100300000Y-105403800D03*
X99668800Y-106237500D03*
X79343500Y-119150900D03*
X98684300Y-105119500D03*
X88950400Y-83964700D03*
X87344600Y-107508300D03*
X96513400Y-85026100D03*
X95852100Y-105039200D03*
X123316500Y-101512100D03*
X123069300Y-98924300D03*
X177025800Y-105978800D03*
X114269900Y-94375300D03*
X107907700Y-101486800D03*
X226113700Y-89044100D03*
X106859500Y-96340500D03*
X127782000Y-94652000D03*
X189383500Y-105265900D03*
X196212100Y-97654300D03*
X103087800Y-88770600D03*
X114587300Y-82169300D03*
X97843600Y-79909900D03*
X97311500Y-76307700D03*
X122245800Y-105199600D03*
X79020700Y-124807500D03*
X199329000Y-117599500D03*
X190500000Y-130810000D03*
X196874800Y-135847500D03*
X198012400Y-138828800D03*
X198691700Y-138085800D03*
X193465600Y-137784300D03*
X194847900Y-135513700D03*
X238760000Y-102870000D03*
X242570000Y-110490000D03*
X237490000Y-94745900D03*
X240030000Y-90170000D03*
X238760000Y-97790000D03*
X236220000Y-100330000D03*
X242570000Y-100330000D03*
X160020000Y-55880000D03*
X204470000Y-125730000D03*
X187960000Y-119380000D03*
X115570000Y-46990000D03*
D30*
X194310300Y-140548600D02*
X194493300Y-140548600D01*
X194493300Y-140548600D02*
X194589700Y-140645000D01*
X195790000Y-140645000D02*
X194589700Y-140645000D01*
X204497400Y-138695000D02*
X204190300Y-138695000D01*
X202990000Y-138695000D02*
X204190300Y-138695000D01*
X202990000Y-138045000D02*
X204190300Y-138045000D01*
X204190300Y-138045000D02*
X204190300Y-138695000D01*
X248400200Y-135255500D02*
X248704700Y-135560000D01*
X250030000Y-135560000D02*
X248704700Y-135560000D01*
X157480000Y-60960000D02*
X161290000Y-60960000D01*
X161290000Y-60960000D02*
X174070000Y-60960000D01*
D31*
X175340000Y-69850000D02*
X175340000Y-62230000D01*
X174070000Y-60960000D02*
X157480000Y-60960000D01*
X157480000Y-60960000D02*
X157480000Y-64770000D01*
X157480000Y-64770000D02*
X156210000Y-66040000D01*
X156210000Y-66040000D02*
X152400000Y-66040000D01*
X149860000Y-68580000D02*
X149860000Y-69850000D01*
X149860000Y-68580000D02*
X152400000Y-66040000D01*
X174070000Y-60960000D02*
X175340000Y-62230000D01*
X143510000Y-69850000D02*
X149860000Y-69850000D01*
X97790000Y-62230000D02*
X97790000Y-62230000D01*
X209210000Y-119380000D02*
X210820000Y-120990000D01*
X207010000Y-119380000D02*
X209210000Y-119380000D01*
X210820000Y-120990000D02*
X210820000Y-128270000D01*
X210820000Y-128270000D02*
X209550000Y-129540000D01*
X209550000Y-129540000D02*
X202660000Y-129540000D01*
D30*
X202990000Y-143245000D02*
X201789700Y-143245000D01*
X201504100Y-142953500D02*
X201789700Y-142953500D01*
X201789700Y-143245000D02*
X201789700Y-142953500D01*
X202990000Y-141295000D02*
X201789700Y-141295000D01*
X201789700Y-142953500D02*
X201789700Y-141295000D01*
D31*
X216750000Y-89020000D02*
X216870000Y-88900000D01*
X216350000Y-89020000D02*
X216750000Y-89020000D01*
X216870000Y-88900000D02*
X220980000Y-88900000D01*
X220980000Y-88900000D02*
X224790000Y-85090000D01*
X224790000Y-85090000D02*
X224790000Y-85090000D01*
X95029000Y-115349000D02*
X95029000Y-115349000D01*
X165100000Y-106680000D02*
X165100000Y-111760000D01*
X139700000Y-106680000D02*
X139700000Y-108480000D01*
X139700000Y-108480000D02*
X139700000Y-115570000D01*
X139700000Y-115570000D02*
X139700000Y-115570000D01*
X106680000Y-133350000D02*
X106680000Y-133350000D01*
D30*
X81501000Y-115349000D02*
X82550000Y-114300000D01*
X70993000Y-115349000D02*
X81501000Y-115349000D01*
D31*
X106680000Y-125730000D02*
X106680000Y-133350000D01*
D30*
X95106500Y-87099700D02*
X104081100Y-87099700D01*
X104081100Y-87099700D02*
X104085400Y-87095400D01*
X77818300Y-84749000D02*
X80169000Y-87099700D01*
X80169000Y-87099700D02*
X95106500Y-87099700D01*
X97410000Y-135970000D02*
X96520000Y-136860000D01*
X115530000Y-53380000D02*
X115570000Y-53340000D01*
X228327400Y-107602700D02*
X218724600Y-107602700D01*
X218724600Y-107602700D02*
X218380700Y-107946600D01*
X231590000Y-109340000D02*
X230064700Y-109340000D01*
X70993000Y-84749000D02*
X77818300Y-84749000D01*
X156465300Y-73660000D02*
X157862700Y-75057400D01*
X157862700Y-75057400D02*
X177672100Y-75057400D01*
X177672100Y-75057400D02*
X178814700Y-76200000D01*
X110450000Y-53340000D02*
X110490000Y-53380000D01*
X110490000Y-53380000D02*
X110490000Y-53420000D01*
X180340000Y-76200000D02*
X178814700Y-76200000D01*
X154940000Y-73660000D02*
X156465300Y-73660000D01*
D31*
X245110000Y-80010000D02*
X245110000Y-69850000D01*
X242570000Y-67310000D02*
X240030000Y-67310000D01*
X245110000Y-69850000D02*
X242570000Y-67310000D01*
X206930000Y-69850000D02*
X208200000Y-68580000D01*
X208200000Y-68580000D02*
X208280000Y-68580000D01*
X208280000Y-68580000D02*
X209550000Y-67310000D01*
X219710000Y-67310000D02*
X222250000Y-69850000D01*
X209550000Y-67310000D02*
X219710000Y-67310000D01*
X206930000Y-69850000D02*
X204470000Y-67390000D01*
X182800000Y-67390000D02*
X180340000Y-69850000D01*
X204470000Y-67390000D02*
X182800000Y-67390000D01*
X79374402Y-87095400D02*
X77028002Y-84749000D01*
X104085400Y-87095400D02*
X79374402Y-87095400D01*
X77028002Y-84749000D02*
X70993000Y-84749000D01*
X137240000Y-53340000D02*
X137160000Y-53420000D01*
X142240000Y-53340000D02*
X139700000Y-53340000D01*
X206930000Y-73580000D02*
X207010000Y-73660000D01*
X206930000Y-69850000D02*
X206930000Y-73580000D01*
X207010000Y-73660000D02*
X207010000Y-76200000D01*
X187960000Y-104140000D02*
X191770000Y-104140000D01*
D30*
X191770000Y-104140000D02*
X190244700Y-104140000D01*
X218380700Y-107946600D02*
X190981800Y-107946600D01*
D31*
X184150000Y-107950000D02*
X190500000Y-107950000D01*
X182880000Y-109220000D02*
X184150000Y-107950000D01*
X184150000Y-107950000D02*
X187960000Y-104140000D01*
X182800000Y-67390000D02*
X182800000Y-58500000D01*
X182800000Y-58500000D02*
X186690000Y-54610000D01*
X186690000Y-54610000D02*
X186690000Y-52070000D01*
X186690000Y-52070000D02*
X186690000Y-52070000D01*
X176060001Y-71350001D02*
X177560002Y-69850000D01*
X154860000Y-69850000D02*
X173119998Y-69850000D01*
X174619999Y-71350001D02*
X176060001Y-71350001D01*
X177560002Y-69850000D02*
X179208630Y-69850000D01*
X179208630Y-69850000D02*
X180340000Y-69850000D01*
X173119998Y-69850000D02*
X174619999Y-71350001D01*
X139700000Y-53340000D02*
X137240000Y-53340000D01*
X245110000Y-78146400D02*
X245110000Y-80010000D01*
X245786400Y-77470000D02*
X245110000Y-78146400D01*
X250190000Y-77470000D02*
X245786400Y-77470000D01*
X250683500Y-77963500D02*
X250190000Y-77470000D01*
X250683500Y-102150630D02*
X250683500Y-77963500D01*
X243494130Y-109340000D02*
X250683500Y-102150630D01*
X231590000Y-109340000D02*
X243494130Y-109340000D01*
D30*
X230064700Y-109340000D02*
X228327400Y-107602700D01*
D31*
X115570000Y-53340000D02*
X115570000Y-49530000D01*
X137160000Y-53420000D02*
X137160000Y-49530000D01*
X137160000Y-49530000D02*
X137160000Y-49530000D01*
X142309990Y-70347060D02*
X142309990Y-69919990D01*
X143312931Y-71350001D02*
X142309990Y-70347060D01*
X154860000Y-69850000D02*
X153359999Y-71350001D01*
X153359999Y-71350001D02*
X143312931Y-71350001D01*
X142309990Y-69919990D02*
X142309990Y-69919990D01*
D30*
X115570000Y-60960000D02*
X115570000Y-59434700D01*
X179070000Y-57150000D02*
X179070000Y-52070000D01*
X179070000Y-57150000D02*
X179070000Y-55880000D01*
X115570000Y-59434700D02*
X117982350Y-57022350D01*
X117982350Y-57022350D02*
X117995100Y-57009600D01*
X117982350Y-57022350D02*
X167767650Y-57022350D01*
X167767650Y-57022350D02*
X170180000Y-54610000D01*
X170180000Y-54610000D02*
X179070000Y-54610000D01*
X250130000Y-141610000D02*
X255580000Y-141610000D01*
X250717700Y-132710000D02*
X250230000Y-132222300D01*
X250717700Y-132710000D02*
X251305300Y-132710000D01*
X250130000Y-132710000D02*
X250717700Y-132710000D01*
X255580000Y-132710000D02*
X251305300Y-132710000D01*
X255580000Y-141610000D02*
X255580000Y-132710000D01*
X250130000Y-129640000D02*
X250230000Y-129540000D01*
X250130000Y-132710000D02*
X250130000Y-129640000D01*
X202990000Y-144545000D02*
X201789700Y-144545000D01*
X201789700Y-144545000D02*
X200127500Y-146207200D01*
X200127500Y-146207200D02*
X193518800Y-146207200D01*
X193518800Y-146207200D02*
X192111600Y-144800000D01*
X192111600Y-144800000D02*
X191378000Y-144800000D01*
X191378000Y-144800000D02*
X190583700Y-144005700D01*
X190583700Y-144005700D02*
X190583700Y-139656300D01*
X190583700Y-139656300D02*
X191770000Y-138470000D01*
X251355300Y-137960000D02*
X251355300Y-139197800D01*
X251355300Y-139197800D02*
X251217700Y-139335400D01*
X251217700Y-139335400D02*
X227201500Y-139335400D01*
X227201500Y-139335400D02*
X223171500Y-143365400D01*
X223171500Y-143365400D02*
X206135900Y-143365400D01*
X206135900Y-143365400D02*
X204956300Y-144545000D01*
X204956300Y-144545000D02*
X202990000Y-144545000D01*
X250030000Y-137960000D02*
X251355300Y-137960000D01*
X202990000Y-145195000D02*
X204190300Y-145195000D01*
X204190300Y-145195000D02*
X204863500Y-145868200D01*
X223520000Y-145868200D02*
X229193700Y-140194500D01*
X250995500Y-140194500D02*
X251805700Y-139384300D01*
X251805700Y-139384300D02*
X251805700Y-137610400D01*
X251805700Y-137610400D02*
X251355300Y-137160000D01*
X202990000Y-145195000D02*
X202389900Y-145195000D01*
X250030000Y-137160000D02*
X251355300Y-137160000D01*
X202389900Y-145195000D02*
X201789700Y-145195000D01*
X201789700Y-145195000D02*
X199802800Y-147181900D01*
X199802800Y-147181900D02*
X191288900Y-147181900D01*
X191288900Y-147181900D02*
X190133300Y-146026300D01*
X190133300Y-146026300D02*
X190133300Y-134986700D01*
X190133300Y-134986700D02*
X191770000Y-133350000D01*
X204863500Y-145868200D02*
X223520000Y-145868200D01*
X229193700Y-140194500D02*
X250965500Y-140194500D01*
X247009800Y-140194500D02*
X250965500Y-140194500D01*
X250965500Y-140194500D02*
X250995500Y-140194500D01*
X202990000Y-143895000D02*
X199844300Y-143895000D01*
X199844300Y-143895000D02*
X197993900Y-145745400D01*
X197993900Y-145745400D02*
X193965400Y-145745400D01*
X193965400Y-145745400D02*
X191770000Y-143550000D01*
X199378100Y-136194600D02*
X199378100Y-135545600D01*
X199378100Y-135545600D02*
X195580000Y-131747500D01*
X196990300Y-138695000D02*
X199378100Y-136307200D01*
X199378100Y-136307200D02*
X199378100Y-136194600D01*
X199378100Y-136194600D02*
X206044600Y-136194600D01*
X206044600Y-136194600D02*
X207010000Y-137160000D01*
X195790000Y-138695000D02*
X196990300Y-138695000D01*
X207010000Y-137160000D02*
X208610000Y-138760000D01*
X208610000Y-138760000D02*
X250030000Y-138760000D01*
X202990000Y-141945000D02*
X206715000Y-141945000D01*
X206715000Y-141945000D02*
X207010000Y-142240000D01*
X200660000Y-129540000D02*
X195912500Y-129540000D01*
X195912500Y-129540000D02*
X195580000Y-129872500D01*
X125730000Y-114300000D02*
X124204700Y-114300000D01*
X91440000Y-129240000D02*
X92565300Y-129240000D01*
X92565300Y-129240000D02*
X101155300Y-120650000D01*
X101155300Y-120650000D02*
X117854700Y-120650000D01*
X117854700Y-120650000D02*
X124204700Y-114300000D01*
X205484700Y-121920000D02*
X200380800Y-116816100D01*
X200380800Y-116816100D02*
X199086700Y-116816100D01*
X199086700Y-116816100D02*
X197685300Y-118217500D01*
X197685300Y-118217500D02*
X197685300Y-118217600D01*
X197685300Y-118217600D02*
X130957700Y-118217600D01*
X130957700Y-118217600D02*
X127255300Y-121920000D01*
X207010000Y-121920000D02*
X205484700Y-121920000D01*
X125730000Y-121920000D02*
X127255300Y-121920000D01*
X178814700Y-88900000D02*
X177680400Y-90034300D01*
X177680400Y-90034300D02*
X162487300Y-90034300D01*
X162487300Y-90034300D02*
X161353000Y-88900000D01*
X161353000Y-88900000D02*
X154940000Y-88900000D01*
X180340000Y-88900000D02*
X181865300Y-88900000D01*
X216350000Y-83940000D02*
X214824700Y-83940000D01*
X214824700Y-83940000D02*
X211134700Y-87630000D01*
X211134700Y-87630000D02*
X183135300Y-87630000D01*
X183135300Y-87630000D02*
X181865300Y-88900000D01*
X180340000Y-88900000D02*
X178814700Y-88900000D01*
X110490000Y-106680000D02*
X102613000Y-106680000D01*
X102613000Y-106680000D02*
X100245800Y-104312800D01*
X100245800Y-104312800D02*
X84012600Y-104312800D01*
X84012600Y-104312800D02*
X84012600Y-104312700D01*
X231590000Y-89020000D02*
X233115300Y-89020000D01*
X191770000Y-73660000D02*
X193295300Y-73660000D01*
X193295300Y-73660000D02*
X197105300Y-77470000D01*
X197105300Y-77470000D02*
X222919800Y-77470000D01*
X222919800Y-77470000D02*
X230659800Y-85210000D01*
X230659800Y-85210000D02*
X232311700Y-85210000D01*
X232311700Y-85210000D02*
X233115300Y-86013600D01*
X233115300Y-86013600D02*
X233115300Y-89020000D01*
X139700000Y-99060000D02*
X138174700Y-99060000D01*
X110490000Y-106680000D02*
X112015300Y-106680000D01*
X112015300Y-106680000D02*
X115825300Y-102870000D01*
X115825300Y-102870000D02*
X134364700Y-102870000D01*
X134364700Y-102870000D02*
X138174700Y-99060000D01*
X174181857Y-72078600D02*
X162680900Y-72078600D01*
X176401731Y-72175012D02*
X174278269Y-72175012D01*
X190244700Y-73660000D02*
X188663300Y-72078600D01*
X174278269Y-72175012D02*
X174181857Y-72078600D01*
X161815599Y-72943901D02*
X161415600Y-73343900D01*
X191770000Y-73660000D02*
X190244700Y-73660000D01*
X188663300Y-72078600D02*
X176498143Y-72078600D01*
X176498143Y-72078600D02*
X176401731Y-72175012D01*
X162680900Y-72078600D02*
X161815599Y-72943901D01*
X139700000Y-104140000D02*
X138174700Y-104140000D01*
X118134500Y-106531200D02*
X119464600Y-107861300D01*
X119464600Y-107861300D02*
X134453400Y-107861300D01*
X134453400Y-107861300D02*
X138174700Y-104140000D01*
X165100000Y-104140000D02*
X163574700Y-104140000D01*
X139700000Y-104140000D02*
X141225300Y-104140000D01*
X141225300Y-104140000D02*
X142413900Y-105328600D01*
X142413900Y-105328600D02*
X162386100Y-105328600D01*
X162386100Y-105328600D02*
X163574700Y-104140000D01*
X165100000Y-104140000D02*
X176625800Y-104140000D01*
X176625800Y-104140000D02*
X177816400Y-105330600D01*
X177816400Y-105330600D02*
X181880600Y-105330600D01*
X181880600Y-105330600D02*
X186806200Y-100405000D01*
X186806200Y-100405000D02*
X195654500Y-100405000D01*
X195654500Y-100405000D02*
X223759700Y-100405000D01*
X223759700Y-100405000D02*
X230064700Y-94100000D01*
X108964700Y-101600000D02*
X108964700Y-101483400D01*
X108964700Y-101483400D02*
X105987200Y-98505900D01*
X105987200Y-98505900D02*
X81702200Y-98505900D01*
X110490000Y-101600000D02*
X108964700Y-101600000D01*
X231590000Y-94100000D02*
X230064700Y-94100000D01*
X188706400Y-111823700D02*
X189778900Y-112896200D01*
X189778900Y-112896200D02*
X193123400Y-112896200D01*
X193123400Y-112896200D02*
X193295400Y-112724200D01*
X193295400Y-112724200D02*
X203110500Y-112724200D01*
X203110500Y-112724200D02*
X205369300Y-110465400D01*
X205369300Y-110465400D02*
X217827600Y-110465400D01*
X217827600Y-110465400D02*
X219965000Y-108328000D01*
X156465300Y-104140000D02*
X157614600Y-102990700D01*
X157614600Y-102990700D02*
X177028500Y-102990700D01*
X177028500Y-102990700D02*
X178177800Y-104140000D01*
X178177800Y-104140000D02*
X178814700Y-104140000D01*
X179577400Y-104140000D02*
X180340000Y-104140000D01*
X179577400Y-104140000D02*
X178814700Y-104140000D01*
X78426300Y-89014200D02*
X78911900Y-89499800D01*
X78911900Y-89499800D02*
X108364900Y-89499800D01*
X108364900Y-89499800D02*
X108964700Y-88900000D01*
X154940000Y-104140000D02*
X156465300Y-104140000D01*
X110490000Y-88900000D02*
X108964700Y-88900000D01*
X191770000Y-88900000D02*
X194544900Y-88900000D01*
X194544900Y-88900000D02*
X194617200Y-88972300D01*
X78310100Y-93996400D02*
X78310100Y-94013600D01*
X78310100Y-94013600D02*
X79504000Y-95207500D01*
X79504000Y-95207500D02*
X107652200Y-95207500D01*
X107652200Y-95207500D02*
X108964700Y-96520000D01*
X154940000Y-99060000D02*
X141862200Y-99060000D01*
X141862200Y-99060000D02*
X140725000Y-97922800D01*
X140725000Y-97922800D02*
X137901900Y-97922800D01*
X137901900Y-97922800D02*
X135597600Y-100227100D01*
X135597600Y-100227100D02*
X116755200Y-100227100D01*
X116755200Y-100227100D02*
X116035100Y-99507000D01*
X154940000Y-99060000D02*
X162164700Y-99060000D01*
X162164700Y-99060000D02*
X163290900Y-97933800D01*
X163290900Y-97933800D02*
X177688500Y-97933800D01*
X177688500Y-97933800D02*
X178814700Y-99060000D01*
X110490000Y-96520000D02*
X108964700Y-96520000D01*
X180340000Y-99060000D02*
X178814700Y-99060000D01*
X167089800Y-116840000D02*
X191770000Y-116840000D01*
X127255300Y-119380000D02*
X129795300Y-116840000D01*
X129795300Y-116840000D02*
X167089800Y-116840000D01*
X167089800Y-107425600D02*
X167089800Y-116840000D01*
X125730000Y-119380000D02*
X127255300Y-119380000D01*
X78875200Y-96525100D02*
X79205200Y-96855100D01*
X79205200Y-96855100D02*
X103784700Y-96855100D01*
X210102800Y-112800700D02*
X209728900Y-113174600D01*
X209728900Y-113174600D02*
X196960700Y-113174600D01*
X196960700Y-113174600D02*
X193295300Y-116840000D01*
X191770000Y-116840000D02*
X193295300Y-116840000D01*
X125730000Y-96520000D02*
X112979600Y-96520000D01*
X112979600Y-96520000D02*
X111709600Y-95250000D01*
X111709600Y-95250000D02*
X108331600Y-95250000D01*
X108331600Y-95250000D02*
X107563800Y-94482200D01*
X107563800Y-94482200D02*
X79804400Y-94482200D01*
X165100000Y-93980000D02*
X157405700Y-93980000D01*
X157405700Y-93980000D02*
X156279900Y-95105800D01*
X156279900Y-95105800D02*
X142988100Y-95105800D01*
X142988100Y-95105800D02*
X141862300Y-93980000D01*
X141862300Y-93980000D02*
X141225300Y-93980000D01*
X138174700Y-93980000D02*
X136618400Y-93980000D01*
X136618400Y-93980000D02*
X134078400Y-96520000D01*
X134078400Y-96520000D02*
X125730000Y-96520000D01*
X216350000Y-91560000D02*
X214824700Y-91560000D01*
X165100000Y-93980000D02*
X178074900Y-93980000D01*
X178074900Y-93980000D02*
X179344900Y-92710000D01*
X179344900Y-92710000D02*
X182525700Y-92710000D01*
X182525700Y-92710000D02*
X184921000Y-90314700D01*
X184921000Y-90314700D02*
X213579400Y-90314700D01*
X213579400Y-90314700D02*
X214824700Y-91560000D01*
X139700000Y-93980000D02*
X141225300Y-93980000D01*
X139351800Y-93980000D02*
X139700000Y-93980000D01*
X139351800Y-93980000D02*
X138174700Y-93980000D01*
X125730000Y-91440000D02*
X124204700Y-91440000D01*
X79589900Y-92923200D02*
X79658500Y-92854600D01*
X79658500Y-92854600D02*
X122790100Y-92854600D01*
X122790100Y-92854600D02*
X124204700Y-91440000D01*
X141225300Y-88900000D02*
X142402600Y-87722700D01*
X142402600Y-87722700D02*
X156187200Y-87722700D01*
X156187200Y-87722700D02*
X156898200Y-88433700D01*
X156898200Y-88433700D02*
X163108400Y-88433700D01*
X163108400Y-88433700D02*
X163574700Y-88900000D01*
X139700000Y-88900000D02*
X138174700Y-88900000D01*
X125730000Y-91440000D02*
X135634700Y-91440000D01*
X135634700Y-91440000D02*
X138174700Y-88900000D01*
X165100000Y-88900000D02*
X163574700Y-88900000D01*
X139700000Y-88900000D02*
X141225300Y-88900000D01*
X125730000Y-86360000D02*
X124204700Y-86360000D01*
X81011000Y-90903500D02*
X81744500Y-90170000D01*
X81744500Y-90170000D02*
X120394700Y-90170000D01*
X120394700Y-90170000D02*
X124204700Y-86360000D01*
X125730000Y-86360000D02*
X127255300Y-86360000D01*
X138174700Y-83820000D02*
X129128000Y-83820000D01*
X129128000Y-83820000D02*
X127255300Y-85692700D01*
X127255300Y-85692700D02*
X127255300Y-86360000D01*
X139700000Y-83820000D02*
X138174700Y-83820000D01*
X141225300Y-83820000D02*
X142402600Y-82642700D01*
X142402600Y-82642700D02*
X157880000Y-82642700D01*
X157880000Y-82642700D02*
X159057300Y-83820000D01*
X159057300Y-83820000D02*
X163574700Y-83820000D01*
X165100000Y-83820000D02*
X163574700Y-83820000D01*
X139700000Y-83820000D02*
X141225300Y-83820000D01*
X141225300Y-78740000D02*
X142351400Y-77613900D01*
X142351400Y-77613900D02*
X162448600Y-77613900D01*
X162448600Y-77613900D02*
X163574700Y-78740000D01*
X139700000Y-78740000D02*
X141225300Y-78740000D01*
X165100000Y-78740000D02*
X163574700Y-78740000D01*
X104677541Y-87670000D02*
X117814700Y-87670000D01*
X117814700Y-87670000D02*
X124204700Y-81280000D01*
X101308591Y-87924709D02*
X104422832Y-87924709D01*
X104422832Y-87924709D02*
X104677541Y-87670000D01*
X81551700Y-88310200D02*
X100923100Y-88310200D01*
X124204700Y-81280000D02*
X124280000Y-81280000D01*
X100923100Y-88310200D02*
X101308591Y-87924709D01*
X124280000Y-81280000D02*
X125730000Y-81280000D01*
X154940000Y-48260000D02*
X154940000Y-53340000D01*
X153670000Y-46990000D02*
X154940000Y-48260000D01*
X132080000Y-46990000D02*
X153670000Y-46990000D01*
X128270000Y-53340000D02*
X128270000Y-49530000D01*
X128270000Y-49530000D02*
X130810000Y-46990000D01*
X130810000Y-46990000D02*
X132080000Y-46990000D01*
X110490000Y-121920000D02*
X108964700Y-121920000D01*
X108964700Y-121920000D02*
X100519300Y-130365400D01*
X100519300Y-130365400D02*
X90112900Y-130365400D01*
X90112900Y-130365400D02*
X89404500Y-129657000D01*
X78468600Y-108662900D02*
X80389800Y-106741700D01*
X80389800Y-106741700D02*
X88743100Y-106741700D01*
X154940000Y-83820000D02*
X156465300Y-83820000D01*
X156465300Y-83820000D02*
X157599600Y-84954300D01*
X157599600Y-84954300D02*
X177680400Y-84954300D01*
X177680400Y-84954300D02*
X178814700Y-83820000D01*
X180340000Y-83820000D02*
X178814700Y-83820000D01*
X92774868Y-82436400D02*
X90515899Y-84695369D01*
X98890500Y-82436400D02*
X92774868Y-82436400D01*
X122015600Y-76200000D02*
X120864000Y-77351600D01*
X103975300Y-77351600D02*
X98890500Y-82436400D01*
X90515899Y-84695369D02*
X90115900Y-85095368D01*
X125730000Y-76200000D02*
X122015600Y-76200000D01*
X120864000Y-77351600D02*
X103975300Y-77351600D01*
X80251700Y-85107700D02*
X84217600Y-81141800D01*
X84217600Y-81141800D02*
X98911300Y-81141800D01*
X98911300Y-81141800D02*
X106393100Y-73660000D01*
X106393100Y-73660000D02*
X110490000Y-73660000D01*
X110490000Y-73660000D02*
X112015300Y-73660000D01*
X112015300Y-73660000D02*
X113593100Y-72082200D01*
X113593100Y-72082200D02*
X140614200Y-72082200D01*
X140614200Y-72082200D02*
X142264600Y-73732600D01*
X142264600Y-73732600D02*
X142264600Y-74010300D01*
X154940000Y-86360000D02*
X156465300Y-86360000D01*
X180340000Y-86360000D02*
X178814700Y-86360000D01*
X156465300Y-86360000D02*
X157655800Y-87550500D01*
X157655800Y-87550500D02*
X177624200Y-87550500D01*
X177624200Y-87550500D02*
X178814700Y-86360000D01*
X78964200Y-111759500D02*
X100181200Y-111759500D01*
X100181200Y-111759500D02*
X102273500Y-109667200D01*
X78210700Y-119799900D02*
X78310000Y-119899200D01*
X78310000Y-119899200D02*
X85221500Y-119899200D01*
X85221500Y-119899200D02*
X85898000Y-119222700D01*
X119360100Y-73951800D02*
X120777200Y-72534700D01*
X120777200Y-72534700D02*
X137049400Y-72534700D01*
X137049400Y-72534700D02*
X138174700Y-73660000D01*
X139700000Y-73660000D02*
X138174700Y-73660000D01*
X86358085Y-85545379D02*
X85792400Y-85545379D01*
X97796470Y-85820378D02*
X86633084Y-85820378D01*
X102336848Y-81280000D02*
X97796470Y-85820378D01*
X86633084Y-85820378D02*
X86358085Y-85545379D01*
X110490000Y-81280000D02*
X102336848Y-81280000D01*
X70993000Y-122999000D02*
X90604500Y-122999000D01*
X90604500Y-122999000D02*
X103492200Y-110111300D01*
X103492200Y-110111300D02*
X103492200Y-108596000D01*
X103492200Y-108596000D02*
X100300000Y-105403800D01*
X125730000Y-60960000D02*
X125730000Y-62485300D01*
X152400000Y-60960000D02*
X152400000Y-62485300D01*
X152400000Y-62485300D02*
X151944700Y-62940600D01*
X151944700Y-62940600D02*
X126185300Y-62940600D01*
X126185300Y-62940600D02*
X125730000Y-62485300D01*
X99668800Y-106237500D02*
X99901100Y-106237500D01*
X99901100Y-106237500D02*
X103026300Y-109362700D01*
X103026300Y-109362700D02*
X103026300Y-109940300D01*
X103026300Y-109940300D02*
X92436200Y-120530400D01*
X92436200Y-120530400D02*
X77899700Y-120530400D01*
X77899700Y-120530400D02*
X77818300Y-120449000D01*
X70993000Y-120449000D02*
X77818300Y-120449000D01*
X112015300Y-78740000D02*
X120871000Y-78740000D01*
X120871000Y-78740000D02*
X122034300Y-77576700D01*
X122034300Y-77576700D02*
X128949500Y-77576700D01*
X128949500Y-77576700D02*
X131248900Y-79876100D01*
X131248900Y-79876100D02*
X152278600Y-79876100D01*
X152278600Y-79876100D02*
X153414700Y-78740000D01*
X110923500Y-78740000D02*
X110490000Y-78740000D01*
X110923500Y-78740000D02*
X112015300Y-78740000D01*
X154940000Y-78740000D02*
X153414700Y-78740000D01*
X79343500Y-119150900D02*
X78091600Y-117899000D01*
X78091600Y-117899000D02*
X77818300Y-117899000D01*
X70993000Y-117899000D02*
X77818300Y-117899000D01*
X87485300Y-129240000D02*
X101191000Y-115534300D01*
X101191000Y-115534300D02*
X120430400Y-115534300D01*
X120430400Y-115534300D02*
X124204700Y-111760000D01*
X86360000Y-129240000D02*
X87485300Y-129240000D01*
X125730000Y-111760000D02*
X124204700Y-111760000D01*
X70993000Y-112799000D02*
X77818300Y-112799000D01*
X77818300Y-112799000D02*
X77818300Y-111827200D01*
X77818300Y-111827200D02*
X78773400Y-110872100D01*
X78773400Y-110872100D02*
X92931700Y-110872100D01*
X92931700Y-110872100D02*
X98684300Y-105119500D01*
X139700000Y-76200000D02*
X141225300Y-76200000D01*
X141225300Y-76200000D02*
X142361600Y-75063700D01*
X142361600Y-75063700D02*
X157185600Y-75063700D01*
X157185600Y-75063700D02*
X158321900Y-76200000D01*
X158321900Y-76200000D02*
X165100000Y-76200000D01*
X138937400Y-76200000D02*
X139700000Y-76200000D01*
X138937400Y-76200000D02*
X138174700Y-76200000D01*
X110490000Y-76200000D02*
X112015300Y-76200000D01*
X112015300Y-76200000D02*
X121202600Y-76200000D01*
X121202600Y-76200000D02*
X122327900Y-75074700D01*
X122327900Y-75074700D02*
X137049400Y-75074700D01*
X137049400Y-75074700D02*
X138174700Y-76200000D01*
X88950400Y-83964700D02*
X90929000Y-81986100D01*
X90929000Y-81986100D02*
X98703900Y-81986100D01*
X98703900Y-81986100D02*
X105637000Y-75053000D01*
X105637000Y-75053000D02*
X119656800Y-75053000D01*
X119656800Y-75053000D02*
X121049800Y-73660000D01*
X121049800Y-73660000D02*
X125730000Y-73660000D01*
X70993000Y-110249000D02*
X77818300Y-110249000D01*
X77818300Y-110249000D02*
X84603900Y-110249000D01*
X84603900Y-110249000D02*
X87344600Y-107508300D01*
X180340000Y-91440000D02*
X178814700Y-91440000D01*
X154940000Y-91440000D02*
X156465300Y-91440000D01*
X156465300Y-91440000D02*
X157655800Y-92630500D01*
X157655800Y-92630500D02*
X177624200Y-92630500D01*
X177624200Y-92630500D02*
X178814700Y-91440000D01*
X96513400Y-85026100D02*
X96937700Y-85026100D01*
X96937700Y-85026100D02*
X101809200Y-80154600D01*
X101809200Y-80154600D02*
X122790100Y-80154600D01*
X122790100Y-80154600D02*
X124204700Y-78740000D01*
X70993000Y-107699000D02*
X78318600Y-107699000D01*
X78318600Y-107699000D02*
X80978400Y-105039200D01*
X80978400Y-105039200D02*
X95852100Y-105039200D01*
X125730000Y-78740000D02*
X124204700Y-78740000D01*
X127255300Y-78740000D02*
X130975900Y-82460600D01*
X130975900Y-82460600D02*
X140957100Y-82460600D01*
X140957100Y-82460600D02*
X141671400Y-81746300D01*
X141671400Y-81746300D02*
X152948400Y-81746300D01*
X152948400Y-81746300D02*
X153414700Y-81280000D01*
X154940000Y-81280000D02*
X153414700Y-81280000D01*
X125730000Y-78740000D02*
X127255300Y-78740000D01*
X178814700Y-81280000D02*
X177624200Y-82470500D01*
X177624200Y-82470500D02*
X159759300Y-82470500D01*
X159759300Y-82470500D02*
X158568800Y-81280000D01*
X158568800Y-81280000D02*
X156465300Y-81280000D01*
X155702700Y-81280000D02*
X154940000Y-81280000D01*
X155702700Y-81280000D02*
X156465300Y-81280000D01*
X180340000Y-81280000D02*
X178814700Y-81280000D01*
X123316500Y-101512100D02*
X115178100Y-101512100D01*
X115178100Y-101512100D02*
X111424800Y-105265400D01*
X111424800Y-105265400D02*
X109415200Y-105265400D01*
X109415200Y-105265400D02*
X107727600Y-103577800D01*
X107727600Y-103577800D02*
X79389500Y-103577800D01*
X79389500Y-103577800D02*
X77818300Y-105149000D01*
X70993000Y-105149000D02*
X77818300Y-105149000D01*
X165100000Y-81280000D02*
X163574700Y-81280000D01*
X139700000Y-81280000D02*
X152004700Y-81280000D01*
X152004700Y-81280000D02*
X153154000Y-80130700D01*
X153154000Y-80130700D02*
X162425400Y-80130700D01*
X162425400Y-80130700D02*
X163574700Y-81280000D01*
X123069300Y-98924300D02*
X122926700Y-98781700D01*
X122926700Y-98781700D02*
X115734700Y-98781700D01*
X115734700Y-98781700D02*
X111781900Y-102734500D01*
X111781900Y-102734500D02*
X77953800Y-102734500D01*
X77953800Y-102734500D02*
X77818300Y-102599000D01*
X70993000Y-102599000D02*
X77818300Y-102599000D01*
X141225300Y-86360000D02*
X142352800Y-85232500D01*
X142352800Y-85232500D02*
X155974700Y-85232500D01*
X155974700Y-85232500D02*
X157102200Y-86360000D01*
X157102200Y-86360000D02*
X165100000Y-86360000D01*
X138174700Y-86360000D02*
X135634700Y-88900000D01*
X135634700Y-88900000D02*
X127255300Y-88900000D01*
X139700000Y-86360000D02*
X138174700Y-86360000D01*
X125730000Y-88900000D02*
X127255300Y-88900000D01*
X139700000Y-86360000D02*
X141225300Y-86360000D01*
X207010000Y-109220000D02*
X205484700Y-109220000D01*
X205484700Y-109220000D02*
X204294100Y-110410600D01*
X204294100Y-110410600D02*
X181457600Y-110410600D01*
X181457600Y-110410600D02*
X177025800Y-105978800D01*
X124204700Y-93980000D02*
X123809500Y-94375200D01*
X123809500Y-94375200D02*
X114269900Y-94375200D01*
X114269900Y-94375200D02*
X114269900Y-94375300D01*
X70993000Y-100049000D02*
X77818300Y-100049000D01*
X125730000Y-93980000D02*
X124204700Y-93980000D01*
X77818300Y-100049000D02*
X79256100Y-101486800D01*
X79256100Y-101486800D02*
X107907700Y-101486800D01*
X125730000Y-93980000D02*
X127255300Y-93980000D01*
X138174700Y-91440000D02*
X135688000Y-93926700D01*
X135688000Y-93926700D02*
X127308600Y-93926700D01*
X127308600Y-93926700D02*
X127255300Y-93980000D01*
X141225300Y-91440000D02*
X142351400Y-90313900D01*
X142351400Y-90313900D02*
X161811700Y-90313900D01*
X161811700Y-90313900D02*
X162937800Y-91440000D01*
X162937800Y-91440000D02*
X163574700Y-91440000D01*
X139700000Y-91440000D02*
X141225300Y-91440000D01*
X165100000Y-91440000D02*
X163574700Y-91440000D01*
X139700000Y-91440000D02*
X138174700Y-91440000D01*
X138174700Y-96520000D02*
X135634700Y-99060000D01*
X135634700Y-99060000D02*
X125730000Y-99060000D01*
X216350000Y-94100000D02*
X214824700Y-94100000D01*
X165100000Y-96520000D02*
X176911600Y-96520000D01*
X176911600Y-96520000D02*
X178039600Y-97648000D01*
X178039600Y-97648000D02*
X186652700Y-97648000D01*
X186652700Y-97648000D02*
X189153300Y-95147400D01*
X189153300Y-95147400D02*
X213777300Y-95147400D01*
X213777300Y-95147400D02*
X214824700Y-94100000D01*
X164337400Y-96520000D02*
X165100000Y-96520000D01*
X124204700Y-99060000D02*
X124204700Y-99033900D01*
X124204700Y-99033900D02*
X123369800Y-98199000D01*
X123369800Y-98199000D02*
X114279600Y-98199000D01*
X114279600Y-98199000D02*
X112290300Y-100188300D01*
X112290300Y-100188300D02*
X108943400Y-100188300D01*
X108943400Y-100188300D02*
X106690000Y-97934900D01*
X106690000Y-97934900D02*
X82157000Y-97934900D01*
X82157000Y-97934900D02*
X82002700Y-97780600D01*
X82002700Y-97780600D02*
X78099900Y-97780600D01*
X78099900Y-97780600D02*
X77818300Y-97499000D01*
X125730000Y-99060000D02*
X124204700Y-99060000D01*
X70993000Y-97499000D02*
X77818300Y-97499000D01*
X164337400Y-96520000D02*
X163574700Y-96520000D01*
X141225300Y-96520000D02*
X142374500Y-97669200D01*
X142374500Y-97669200D02*
X162425500Y-97669200D01*
X162425500Y-97669200D02*
X163574700Y-96520000D01*
X139700000Y-96520000D02*
X141225300Y-96520000D01*
X139700000Y-96520000D02*
X138174700Y-96520000D01*
X191770000Y-91440000D02*
X193295300Y-91440000D01*
X193295300Y-91440000D02*
X194598400Y-92743100D01*
X194598400Y-92743100D02*
X219953300Y-92743100D01*
X219953300Y-92743100D02*
X223652300Y-89044100D01*
X223652300Y-89044100D02*
X226113700Y-89044100D01*
X181865300Y-96520000D02*
X186945300Y-91440000D01*
X186945300Y-91440000D02*
X191770000Y-91440000D01*
X107912500Y-97393500D02*
X106859500Y-96340500D01*
X106294300Y-95775300D02*
X78644600Y-95775300D01*
X78644600Y-95775300D02*
X77818300Y-94949000D01*
X107912500Y-97393500D02*
X108209900Y-97690900D01*
X108209900Y-97690900D02*
X134815700Y-97690900D01*
X134815700Y-97690900D02*
X137119400Y-95387200D01*
X137119400Y-95387200D02*
X142314200Y-95387200D01*
X142314200Y-95387200D02*
X143447000Y-96520000D01*
X143447000Y-96520000D02*
X154940000Y-96520000D01*
X70993000Y-94949000D02*
X77818300Y-94949000D01*
X155702700Y-96520000D02*
X154940000Y-96520000D01*
X155702700Y-96520000D02*
X156465300Y-96520000D01*
X180340000Y-96520000D02*
X181865300Y-96520000D01*
X179906500Y-96520000D02*
X180340000Y-96520000D01*
X179906500Y-96520000D02*
X178814700Y-96520000D01*
X156465300Y-96520000D02*
X157614600Y-95370700D01*
X157614600Y-95370700D02*
X177665400Y-95370700D01*
X177665400Y-95370700D02*
X178814700Y-96520000D01*
X106859500Y-96340500D02*
X106294300Y-95775300D01*
X180340000Y-101600000D02*
X178814700Y-101600000D01*
X154940000Y-101600000D02*
X156465300Y-101600000D01*
X156465300Y-101600000D02*
X157614600Y-100450700D01*
X157614600Y-100450700D02*
X177665400Y-100450700D01*
X177665400Y-100450700D02*
X178814700Y-101600000D01*
X77818300Y-92399000D02*
X79067800Y-93648500D01*
X79067800Y-93648500D02*
X108633200Y-93648500D01*
X108633200Y-93648500D02*
X108964700Y-93980000D01*
X110490000Y-93980000D02*
X112015300Y-93980000D01*
X112015300Y-93980000D02*
X113140700Y-95105400D01*
X113140700Y-95105400D02*
X127328600Y-95105400D01*
X127328600Y-95105400D02*
X127782000Y-94652000D01*
X109727400Y-93980000D02*
X110490000Y-93980000D01*
X109727400Y-93980000D02*
X108964700Y-93980000D01*
X70993000Y-92399000D02*
X77818300Y-92399000D01*
X189515500Y-105397900D02*
X226386800Y-105397900D01*
X189383500Y-105265900D02*
X189515500Y-105397900D01*
X226386800Y-105397900D02*
X230064700Y-101720000D01*
X231590000Y-101720000D02*
X230064700Y-101720000D01*
X231590000Y-96640000D02*
X230064700Y-96640000D01*
X180340000Y-106680000D02*
X181865300Y-106680000D01*
X181865300Y-106680000D02*
X185550500Y-102994800D01*
X185550500Y-102994800D02*
X223709900Y-102994800D01*
X223709900Y-102994800D02*
X230064700Y-96640000D01*
X77818300Y-89849000D02*
X79598100Y-91628800D01*
X79598100Y-91628800D02*
X108775900Y-91628800D01*
X108775900Y-91628800D02*
X108964700Y-91440000D01*
X109727400Y-91440000D02*
X110490000Y-91440000D01*
X109727400Y-91440000D02*
X108964700Y-91440000D01*
X70993000Y-89849000D02*
X77818300Y-89849000D01*
X196212100Y-97654400D02*
X196355100Y-97797400D01*
X196355100Y-97797400D02*
X222506500Y-97797400D01*
X222506500Y-97797400D02*
X228743900Y-91560000D01*
X228743900Y-91560000D02*
X231590000Y-91560000D01*
X165100000Y-101600000D02*
X176274700Y-101600000D01*
X176274700Y-101600000D02*
X177465300Y-102790600D01*
X177465300Y-102790600D02*
X183617000Y-102790600D01*
X183617000Y-102790600D02*
X188753200Y-97654400D01*
X188753200Y-97654400D02*
X196212100Y-97654400D01*
X196212100Y-97654400D02*
X196212100Y-97654300D01*
X77818300Y-87299000D02*
X79568800Y-89049500D01*
X79568800Y-89049500D02*
X102808900Y-89049500D01*
X102808900Y-89049500D02*
X103087800Y-88770600D01*
X112015300Y-109220000D02*
X116765300Y-104470000D01*
X116765300Y-104470000D02*
X122554800Y-104470000D01*
X122554800Y-104470000D02*
X123370500Y-105285700D01*
X123370500Y-105285700D02*
X134489000Y-105285700D01*
X134489000Y-105285700D02*
X138174700Y-101600000D01*
X139700000Y-101600000D02*
X138174700Y-101600000D01*
X110490000Y-109220000D02*
X112015300Y-109220000D01*
X70993000Y-87299000D02*
X77818300Y-87299000D01*
X76668000Y-82199000D02*
X70993000Y-82199000D01*
X80388489Y-86270389D02*
X77743000Y-83624900D01*
X114587300Y-82169300D02*
X111666600Y-85090000D01*
X99163259Y-85090000D02*
X97982870Y-86270389D01*
X97982870Y-86270389D02*
X80388489Y-86270389D01*
X77743000Y-83624900D02*
X77743000Y-83274000D01*
X77743000Y-83274000D02*
X76668000Y-82199000D01*
X111666600Y-85090000D02*
X99163259Y-85090000D01*
X70993000Y-79649000D02*
X77818300Y-79649000D01*
X123190000Y-60960000D02*
X123190000Y-62485300D01*
X77818300Y-79649000D02*
X78805900Y-80636600D01*
X78805900Y-80636600D02*
X98779600Y-80636600D01*
X98779600Y-80636600D02*
X107784400Y-71631800D01*
X107784400Y-71631800D02*
X110308100Y-71631800D01*
X110308100Y-71631800D02*
X119454600Y-62485300D01*
X119454600Y-62485300D02*
X123190000Y-62485300D01*
X70993000Y-77099000D02*
X95032700Y-77099000D01*
X95032700Y-77099000D02*
X97843600Y-79909900D01*
X252880000Y-57150000D02*
X246380000Y-57150000D01*
X172575400Y-58275400D02*
X171450000Y-57150000D01*
X180195400Y-58275400D02*
X172575400Y-58275400D01*
X246380000Y-54610000D02*
X243840000Y-52070000D01*
X185420000Y-49530000D02*
X182880000Y-52070000D01*
X182880000Y-52070000D02*
X182880000Y-55590800D01*
X182880000Y-55590800D02*
X180195400Y-58275400D01*
X185420000Y-49530000D02*
X241300000Y-49530000D01*
X246380000Y-54610000D02*
X246380000Y-57150000D01*
X241300000Y-49530000D02*
X246380000Y-54610000D01*
X135097000Y-58978400D02*
X118048500Y-58978400D01*
X118048500Y-58978400D02*
X116695400Y-60331500D01*
X116695400Y-60331500D02*
X116695400Y-62304700D01*
X116695400Y-62304700D02*
X115878200Y-63121900D01*
X115878200Y-63121900D02*
X110497300Y-63121900D01*
X110497300Y-63121900D02*
X97311500Y-76307700D01*
X77705700Y-74549000D02*
X95552800Y-74549000D01*
X95552800Y-74549000D02*
X97311500Y-76307700D01*
X70993000Y-74549000D02*
X77705700Y-74549000D01*
X142240000Y-60960000D02*
X142240000Y-60560000D01*
X142240000Y-60560000D02*
X144380000Y-58420000D01*
X149860000Y-60560000D02*
X149860000Y-60960000D01*
X147720000Y-58420000D02*
X149860000Y-60560000D01*
X144380000Y-58420000D02*
X147720000Y-58420000D01*
X137078600Y-60960000D02*
X142240000Y-60960000D01*
X135097000Y-58978400D02*
X137078600Y-60960000D01*
X122245800Y-105199600D02*
X118440400Y-105199600D01*
X118440400Y-105199600D02*
X112015300Y-111624700D01*
X112015300Y-111624700D02*
X112015300Y-111760000D01*
X110490000Y-111760000D02*
X112015300Y-111760000D01*
X79020700Y-124807500D02*
X90759000Y-124807500D01*
X90759000Y-124807500D02*
X103806500Y-111760000D01*
X103806500Y-111760000D02*
X110490000Y-111760000D01*
X144780000Y-49530000D02*
X144780000Y-53340000D01*
X143510000Y-48260000D02*
X144780000Y-49530000D01*
X132080000Y-48260000D02*
X143510000Y-48260000D01*
X130810000Y-53340000D02*
X130810000Y-49530000D01*
X130810000Y-49530000D02*
X132080000Y-48260000D01*
X128270000Y-60960000D02*
X128270000Y-62485300D01*
X144780000Y-60960000D02*
X144780000Y-62485300D01*
X144780000Y-62485300D02*
X128270000Y-62485300D01*
X118110000Y-60960000D02*
X120650000Y-60960000D01*
X230064700Y-86480000D02*
X226384400Y-82799700D01*
X226384400Y-82799700D02*
X212095600Y-82799700D01*
X212095600Y-82799700D02*
X208535300Y-86360000D01*
X207010000Y-86360000D02*
X208535300Y-86360000D01*
X231590000Y-86480000D02*
X230064700Y-86480000D01*
X120650000Y-60960000D02*
X120650000Y-60560000D01*
X205484700Y-86360000D02*
X205560000Y-86360000D01*
X120650000Y-60560000D02*
X121775300Y-59434700D01*
X121775300Y-59434700D02*
X123668900Y-59434700D01*
X179409800Y-74930000D02*
X181409700Y-74930000D01*
X162230600Y-74069300D02*
X163765200Y-72534700D01*
X124460000Y-61907400D02*
X134014331Y-71461731D01*
X163765200Y-72534700D02*
X174001546Y-72534700D01*
X201674700Y-82550000D02*
X205484700Y-86360000D01*
X177104823Y-72625023D02*
X179409800Y-74930000D01*
X174091869Y-72625023D02*
X177104823Y-72625023D01*
X124460000Y-60225800D02*
X124460000Y-61907400D01*
X189029700Y-82550000D02*
X201674700Y-82550000D01*
X205560000Y-86360000D02*
X207010000Y-86360000D01*
X160458400Y-74069300D02*
X162230600Y-74069300D01*
X158564112Y-72175012D02*
X160458400Y-74069300D01*
X142128271Y-72175012D02*
X158564112Y-72175012D01*
X141414991Y-71461731D02*
X142128271Y-72175012D01*
X123668900Y-59434700D02*
X124460000Y-60225800D01*
X174001546Y-72534700D02*
X174091869Y-72625023D01*
X181409700Y-74930000D02*
X189029700Y-82550000D01*
X134014331Y-71461731D02*
X141414991Y-71461731D01*
X195790000Y-137395000D02*
X194589700Y-137395000D01*
X194589700Y-137395000D02*
X194109600Y-136914900D01*
X207010000Y-81280000D02*
X207010000Y-78740000D01*
X194109600Y-132280400D02*
X194109600Y-131879600D01*
X194109600Y-136914900D02*
X194109600Y-132280400D01*
X194109600Y-131879600D02*
X193040000Y-130810000D01*
X193040000Y-130810000D02*
X190500000Y-130810000D01*
X190500000Y-130810000D02*
X190500000Y-130810000D01*
X190500000Y-124460000D02*
X194310000Y-124460000D01*
X199329000Y-119441000D02*
X199329000Y-117599500D01*
X194310000Y-124460000D02*
X199329000Y-119441000D01*
X195790000Y-138045000D02*
X196990300Y-138045000D01*
X196990300Y-138045000D02*
X196990300Y-135963000D01*
X196990300Y-135963000D02*
X196874800Y-135847500D01*
X196990300Y-141945000D02*
X196990400Y-141945000D01*
X196990400Y-141945000D02*
X196990400Y-139850800D01*
X196990400Y-139850800D02*
X198012400Y-138828800D01*
X196877700Y-141945000D02*
X196990300Y-141945000D01*
X196990300Y-141945000D02*
X196990300Y-142595000D01*
X195790000Y-141945000D02*
X196877700Y-141945000D01*
X195790000Y-142595000D02*
X196990300Y-142595000D01*
X196990300Y-143245000D02*
X198737700Y-141497600D01*
X198737700Y-141497600D02*
X198737700Y-138131800D01*
X198737700Y-138131800D02*
X198691700Y-138085800D01*
X195790000Y-143245000D02*
X196990300Y-143245000D01*
X195790000Y-139345000D02*
X194589700Y-139345000D01*
X194589700Y-139345000D02*
X194589700Y-138908400D01*
X194589700Y-138908400D02*
X193465600Y-137784300D01*
X195790000Y-136745000D02*
X194589700Y-136745000D01*
X194589700Y-136745000D02*
X194589700Y-135771900D01*
X194589700Y-135771900D02*
X194847900Y-135513700D01*
X250190000Y-115570000D02*
X247650000Y-115570000D01*
X250190000Y-121920000D02*
X247650000Y-121920000D01*
X216350000Y-122040000D02*
X217875300Y-122040000D01*
X240030000Y-115570000D02*
X224345300Y-115570000D01*
X224345300Y-115570000D02*
X217875300Y-122040000D01*
X231590000Y-122040000D02*
X233115300Y-122040000D01*
X240030000Y-121920000D02*
X233235300Y-121920000D01*
X233235300Y-121920000D02*
X233115300Y-122040000D01*
X250190000Y-67310000D02*
X247650000Y-67310000D01*
X215900000Y-52070000D02*
X224790000Y-52070000D01*
X220980000Y-54610000D02*
X224790000Y-54610000D01*
X215900000Y-55880000D02*
X219710000Y-55880000D01*
X219710000Y-55880000D02*
X220980000Y-54610000D01*
X215900000Y-59690000D02*
X218440000Y-59690000D01*
X220980000Y-57150000D02*
X224790000Y-57150000D01*
X218440000Y-59690000D02*
X220980000Y-57150000D01*
X215900000Y-63500000D02*
X218440000Y-63500000D01*
X222250000Y-59690000D02*
X224790000Y-59690000D01*
X218440000Y-63500000D02*
X222250000Y-59690000D01*
X247318700Y-86441100D02*
X248156400Y-86441100D01*
X246299000Y-84575700D02*
X246299000Y-85421400D01*
X240615300Y-83820000D02*
X245543300Y-83820000D01*
X248181500Y-96459900D02*
X246319900Y-96459900D01*
X246319900Y-96459900D02*
X245973599Y-96113599D01*
X233115300Y-76320000D02*
X240615300Y-83820000D01*
X231590000Y-76320000D02*
X233115300Y-76320000D01*
X246299000Y-85421400D02*
X247318700Y-86441100D01*
X249408478Y-95232922D02*
X248181500Y-96459900D01*
X245973599Y-96113599D02*
X245110000Y-95250000D01*
X249408478Y-87693178D02*
X249408478Y-95232922D01*
X248156400Y-86441100D02*
X249408478Y-87693178D01*
X245543300Y-83820000D02*
X246299000Y-84575700D01*
X238760000Y-102870000D02*
X242570000Y-102870000D01*
X242570000Y-102870000D02*
X245110000Y-102870000D01*
X240666410Y-86360000D02*
X233166410Y-78860000D01*
X233040000Y-78860000D02*
X231590000Y-78860000D01*
X246299000Y-87115700D02*
X245543300Y-86360000D01*
X246299000Y-91359000D02*
X246299000Y-87115700D01*
X233166410Y-78860000D02*
X233040000Y-78860000D01*
X245543300Y-86360000D02*
X240666410Y-86360000D01*
X247650000Y-92710000D02*
X246299000Y-91359000D01*
X216350000Y-116960000D02*
X217875300Y-116960000D01*
X223932650Y-110902650D02*
X224345300Y-110490000D01*
X224225300Y-110610000D02*
X223932650Y-110902650D01*
X223932650Y-110902650D02*
X217875300Y-116960000D01*
X224345300Y-110490000D02*
X242570000Y-110490000D01*
X242570000Y-92710000D02*
X245110000Y-92710000D01*
X241300000Y-91440000D02*
X242570000Y-92710000D01*
X241300000Y-87630000D02*
X241300000Y-91440000D01*
X231590000Y-81400000D02*
X235070000Y-81400000D01*
X235070000Y-81400000D02*
X241300000Y-87630000D01*
X224093800Y-104260000D02*
X217800000Y-104260000D01*
X249858489Y-87298489D02*
X249858489Y-97265611D01*
X217800000Y-104260000D02*
X216350000Y-104260000D01*
X247983100Y-99141000D02*
X235641400Y-99141000D01*
X234332400Y-100450000D02*
X227903800Y-100450000D01*
X235641400Y-99141000D02*
X234332400Y-100450000D01*
X247650000Y-85090000D02*
X249858489Y-87298489D01*
X249858489Y-97265611D02*
X247983100Y-99141000D01*
X227903800Y-100450000D02*
X224093800Y-104260000D01*
X230842400Y-95225400D02*
X224347800Y-101720000D01*
X224347800Y-101720000D02*
X216350000Y-101720000D01*
X237010500Y-95225400D02*
X237490000Y-94745900D01*
X230842400Y-95225400D02*
X237010500Y-95225400D01*
X248513599Y-88493599D02*
X247650000Y-87630000D01*
X248958467Y-88938467D02*
X248513599Y-88493599D01*
X216350000Y-99180000D02*
X223240300Y-99180000D01*
X248148700Y-93901100D02*
X248958467Y-93091333D01*
X235553500Y-93901100D02*
X248148700Y-93901100D01*
X234618600Y-92966200D02*
X235553500Y-93901100D01*
X229454100Y-92966200D02*
X234618600Y-92966200D01*
X223240300Y-99180000D02*
X229454100Y-92966200D01*
X248958467Y-93091333D02*
X248958467Y-88938467D01*
X216350000Y-96640000D02*
X217875300Y-96640000D01*
X224345300Y-90170000D02*
X217875300Y-96640000D01*
X240030000Y-90170000D02*
X224345300Y-90170000D01*
X238760000Y-97790000D02*
X238760000Y-97790000D01*
X238760000Y-97790000D02*
X245110000Y-97790000D01*
X236220000Y-100330000D02*
X242570000Y-100330000D01*
X243840000Y-101600000D02*
X245110000Y-100330000D01*
X237490000Y-101600000D02*
X243840000Y-101600000D01*
X246786401Y-101193599D02*
X247650000Y-100330000D01*
X246461399Y-101518601D02*
X246786401Y-101193599D01*
X246461399Y-103277731D02*
X246461399Y-101518601D01*
X245599130Y-104140000D02*
X246461399Y-103277731D01*
X240030000Y-104140000D02*
X245599130Y-104140000D01*
X159454315Y-55880000D02*
X160020000Y-55880000D01*
X125330000Y-55880000D02*
X159454315Y-55880000D01*
X123190000Y-53740000D02*
X125330000Y-55880000D01*
X123190000Y-53340000D02*
X123190000Y-53740000D01*
X204470000Y-125730000D02*
X189230000Y-125730000D01*
X189230000Y-125730000D02*
X187960000Y-124460000D01*
X187960000Y-124460000D02*
X187960000Y-119380000D01*
X187960000Y-119380000D02*
X187960000Y-119380000D01*
X113030000Y-49530000D02*
X115570000Y-46990000D01*
X113030000Y-59690000D02*
X113030000Y-49530000D01*
X109220000Y-63500000D02*
X113030000Y-59690000D01*
X102870000Y-63500000D02*
X109220000Y-63500000D01*
X101600000Y-66040000D02*
X101600000Y-64770000D01*
X101600000Y-64770000D02*
X102870000Y-63500000D01*
D32*
G36*
X97663000Y-114228798D02*
G01*
X93908799Y-117983000D01*
X86412606Y-117983000D01*
X83909803Y-115480197D01*
X83890557Y-115464403D01*
X83868601Y-115452667D01*
X83844776Y-115445440D01*
X83820000Y-115443000D01*
X77597000Y-115443000D01*
X77597000Y-115222000D01*
X77969250Y-115222000D01*
X78128000Y-115063250D01*
X78131072Y-114524000D01*
X78121519Y-114427000D01*
X81280000Y-114427000D01*
X81304776Y-114424560D01*
X81328601Y-114417333D01*
X81350557Y-114405597D01*
X81369803Y-114389803D01*
X81385597Y-114370557D01*
X81397333Y-114348601D01*
X81404560Y-114324776D01*
X81407000Y-114300000D01*
X81407000Y-113157000D01*
X97663000Y-113157000D01*
X97663000Y-114228798D01*
X97663000Y-114228798D01*
G37*
X97663000Y-114228798D02*
X93908799Y-117983000D01*
X86412606Y-117983000D01*
X83909803Y-115480197D01*
X83890557Y-115464403D01*
X83868601Y-115452667D01*
X83844776Y-115445440D01*
X83820000Y-115443000D01*
X77597000Y-115443000D01*
X77597000Y-115222000D01*
X77969250Y-115222000D01*
X78128000Y-115063250D01*
X78131072Y-114524000D01*
X78121519Y-114427000D01*
X81280000Y-114427000D01*
X81304776Y-114424560D01*
X81328601Y-114417333D01*
X81350557Y-114405597D01*
X81369803Y-114389803D01*
X81385597Y-114370557D01*
X81397333Y-114348601D01*
X81404560Y-114324776D01*
X81407000Y-114300000D01*
X81407000Y-113157000D01*
X97663000Y-113157000D01*
X97663000Y-114228798D01*
G36*
X96976903Y-52347298D02*
G01*
X97790000Y-53160395D01*
X98603097Y-52347298D01*
X98558998Y-52197000D01*
X101917689Y-52197000D01*
X101875241Y-52225363D01*
X101675363Y-52425241D01*
X101518320Y-52660273D01*
X101410147Y-52921426D01*
X101355000Y-53198665D01*
X101355000Y-53481335D01*
X101410147Y-53758574D01*
X101518320Y-54019727D01*
X101675363Y-54254759D01*
X101875241Y-54454637D01*
X102110273Y-54611680D01*
X102371426Y-54719853D01*
X102648665Y-54775000D01*
X102931335Y-54775000D01*
X103208574Y-54719853D01*
X103469727Y-54611680D01*
X103704759Y-54454637D01*
X103904637Y-54254759D01*
X104061680Y-54019727D01*
X104169853Y-53758574D01*
X104225000Y-53481335D01*
X104225000Y-53198665D01*
X104169853Y-52921426D01*
X104061680Y-52660273D01*
X103904637Y-52425241D01*
X103704759Y-52225363D01*
X103662311Y-52197000D01*
X109737418Y-52197000D01*
X109575241Y-52305363D01*
X109375363Y-52505241D01*
X109218320Y-52740273D01*
X109110147Y-53001426D01*
X109055000Y-53278665D01*
X109055000Y-53561335D01*
X109110147Y-53838574D01*
X109218320Y-54099727D01*
X109375363Y-54334759D01*
X109575241Y-54534637D01*
X109810273Y-54691680D01*
X110071426Y-54799853D01*
X110348665Y-54855000D01*
X110631335Y-54855000D01*
X110908574Y-54799853D01*
X111169727Y-54691680D01*
X111404759Y-54534637D01*
X111604637Y-54334759D01*
X111633000Y-54292311D01*
X111633000Y-57651002D01*
X111482702Y-57606903D01*
X110669605Y-58420000D01*
X111482702Y-59233097D01*
X111633000Y-59188998D01*
X111633000Y-59637394D01*
X109167394Y-62103000D01*
X101600000Y-62103000D01*
X101575224Y-62105440D01*
X101551399Y-62112667D01*
X101529443Y-62124403D01*
X101510197Y-62140197D01*
X100240197Y-63410197D01*
X100224403Y-63429443D01*
X100212667Y-63451399D01*
X100205440Y-63475224D01*
X100203000Y-63500000D01*
X100203000Y-65707629D01*
X100165000Y-65898665D01*
X100165000Y-66181335D01*
X100203000Y-66372371D01*
X100203000Y-68453000D01*
X91567000Y-68453000D01*
X91567000Y-67032702D01*
X93166903Y-67032702D01*
X93238486Y-67276671D01*
X93493996Y-67397571D01*
X93768184Y-67466300D01*
X94050512Y-67480217D01*
X94330130Y-67438787D01*
X94596292Y-67343603D01*
X94721514Y-67276671D01*
X94793097Y-67032702D01*
X93980000Y-66219605D01*
X93166903Y-67032702D01*
X91567000Y-67032702D01*
X91567000Y-66110512D01*
X92539783Y-66110512D01*
X92581213Y-66390130D01*
X92676397Y-66656292D01*
X92743329Y-66781514D01*
X92987298Y-66853097D01*
X93800395Y-66040000D01*
X94159605Y-66040000D01*
X94972702Y-66853097D01*
X95216671Y-66781514D01*
X95337571Y-66526004D01*
X95406300Y-66251816D01*
X95420217Y-65969488D01*
X95378787Y-65689870D01*
X95283603Y-65423708D01*
X95216671Y-65298486D01*
X94972702Y-65226903D01*
X94159605Y-66040000D01*
X93800395Y-66040000D01*
X92987298Y-65226903D01*
X92743329Y-65298486D01*
X92622429Y-65553996D01*
X92553700Y-65828184D01*
X92539783Y-66110512D01*
X91567000Y-66110512D01*
X91567000Y-65047298D01*
X93166903Y-65047298D01*
X93980000Y-65860395D01*
X94793097Y-65047298D01*
X94721514Y-64803329D01*
X94466004Y-64682429D01*
X94191816Y-64613700D01*
X93909488Y-64599783D01*
X93629870Y-64641213D01*
X93363708Y-64736397D01*
X93238486Y-64803329D01*
X93166903Y-65047298D01*
X91567000Y-65047298D01*
X91567000Y-63627000D01*
X96520000Y-63627000D01*
X96544776Y-63624560D01*
X96568601Y-63617333D01*
X96590557Y-63605597D01*
X96609803Y-63589803D01*
X96625597Y-63570557D01*
X96637333Y-63548601D01*
X96644560Y-63524776D01*
X96647000Y-63500000D01*
X96647000Y-58278665D01*
X100165000Y-58278665D01*
X100165000Y-58561335D01*
X100220147Y-58838574D01*
X100328320Y-59099727D01*
X100485363Y-59334759D01*
X100685241Y-59534637D01*
X100920273Y-59691680D01*
X101181426Y-59799853D01*
X101458665Y-59855000D01*
X101741335Y-59855000D01*
X102018574Y-59799853D01*
X102279727Y-59691680D01*
X102514759Y-59534637D01*
X102636694Y-59412702D01*
X109676903Y-59412702D01*
X109748486Y-59656671D01*
X110003996Y-59777571D01*
X110278184Y-59846300D01*
X110560512Y-59860217D01*
X110840130Y-59818787D01*
X111106292Y-59723603D01*
X111231514Y-59656671D01*
X111303097Y-59412702D01*
X110490000Y-58599605D01*
X109676903Y-59412702D01*
X102636694Y-59412702D01*
X102714637Y-59334759D01*
X102871680Y-59099727D01*
X102979853Y-58838574D01*
X103035000Y-58561335D01*
X103035000Y-58490512D01*
X109049783Y-58490512D01*
X109091213Y-58770130D01*
X109186397Y-59036292D01*
X109253329Y-59161514D01*
X109497298Y-59233097D01*
X110310395Y-58420000D01*
X109497298Y-57606903D01*
X109253329Y-57678486D01*
X109132429Y-57933996D01*
X109063700Y-58208184D01*
X109049783Y-58490512D01*
X103035000Y-58490512D01*
X103035000Y-58278665D01*
X102979853Y-58001426D01*
X102871680Y-57740273D01*
X102714637Y-57505241D01*
X102636694Y-57427298D01*
X109676903Y-57427298D01*
X110490000Y-58240395D01*
X111303097Y-57427298D01*
X111231514Y-57183329D01*
X110976004Y-57062429D01*
X110701816Y-56993700D01*
X110419488Y-56979783D01*
X110139870Y-57021213D01*
X109873708Y-57116397D01*
X109748486Y-57183329D01*
X109676903Y-57427298D01*
X102636694Y-57427298D01*
X102514759Y-57305363D01*
X102279727Y-57148320D01*
X102018574Y-57040147D01*
X101741335Y-56985000D01*
X101458665Y-56985000D01*
X101181426Y-57040147D01*
X100920273Y-57148320D01*
X100685241Y-57305363D01*
X100485363Y-57505241D01*
X100328320Y-57740273D01*
X100220147Y-58001426D01*
X100165000Y-58278665D01*
X96647000Y-58278665D01*
X96647000Y-54332702D01*
X96976903Y-54332702D01*
X97048486Y-54576671D01*
X97303996Y-54697571D01*
X97578184Y-54766300D01*
X97860512Y-54780217D01*
X98140130Y-54738787D01*
X98406292Y-54643603D01*
X98531514Y-54576671D01*
X98603097Y-54332702D01*
X97790000Y-53519605D01*
X96976903Y-54332702D01*
X96647000Y-54332702D01*
X96647000Y-54108998D01*
X96797298Y-54153097D01*
X97610395Y-53340000D01*
X97969605Y-53340000D01*
X98782702Y-54153097D01*
X99026671Y-54081514D01*
X99147571Y-53826004D01*
X99216300Y-53551816D01*
X99230217Y-53269488D01*
X99188787Y-52989870D01*
X99093603Y-52723708D01*
X99026671Y-52598486D01*
X98782702Y-52526903D01*
X97969605Y-53340000D01*
X97610395Y-53340000D01*
X96797298Y-52526903D01*
X96647000Y-52571002D01*
X96647000Y-52197000D01*
X97021002Y-52197000D01*
X96976903Y-52347298D01*
X96976903Y-52347298D01*
G37*
X96976903Y-52347298D02*
X97790000Y-53160395D01*
X98603097Y-52347298D01*
X98558998Y-52197000D01*
X101917689Y-52197000D01*
X101875241Y-52225363D01*
X101675363Y-52425241D01*
X101518320Y-52660273D01*
X101410147Y-52921426D01*
X101355000Y-53198665D01*
X101355000Y-53481335D01*
X101410147Y-53758574D01*
X101518320Y-54019727D01*
X101675363Y-54254759D01*
X101875241Y-54454637D01*
X102110273Y-54611680D01*
X102371426Y-54719853D01*
X102648665Y-54775000D01*
X102931335Y-54775000D01*
X103208574Y-54719853D01*
X103469727Y-54611680D01*
X103704759Y-54454637D01*
X103904637Y-54254759D01*
X104061680Y-54019727D01*
X104169853Y-53758574D01*
X104225000Y-53481335D01*
X104225000Y-53198665D01*
X104169853Y-52921426D01*
X104061680Y-52660273D01*
X103904637Y-52425241D01*
X103704759Y-52225363D01*
X103662311Y-52197000D01*
X109737418Y-52197000D01*
X109575241Y-52305363D01*
X109375363Y-52505241D01*
X109218320Y-52740273D01*
X109110147Y-53001426D01*
X109055000Y-53278665D01*
X109055000Y-53561335D01*
X109110147Y-53838574D01*
X109218320Y-54099727D01*
X109375363Y-54334759D01*
X109575241Y-54534637D01*
X109810273Y-54691680D01*
X110071426Y-54799853D01*
X110348665Y-54855000D01*
X110631335Y-54855000D01*
X110908574Y-54799853D01*
X111169727Y-54691680D01*
X111404759Y-54534637D01*
X111604637Y-54334759D01*
X111633000Y-54292311D01*
X111633000Y-57651002D01*
X111482702Y-57606903D01*
X110669605Y-58420000D01*
X111482702Y-59233097D01*
X111633000Y-59188998D01*
X111633000Y-59637394D01*
X109167394Y-62103000D01*
X101600000Y-62103000D01*
X101575224Y-62105440D01*
X101551399Y-62112667D01*
X101529443Y-62124403D01*
X101510197Y-62140197D01*
X100240197Y-63410197D01*
X100224403Y-63429443D01*
X100212667Y-63451399D01*
X100205440Y-63475224D01*
X100203000Y-63500000D01*
X100203000Y-65707629D01*
X100165000Y-65898665D01*
X100165000Y-66181335D01*
X100203000Y-66372371D01*
X100203000Y-68453000D01*
X91567000Y-68453000D01*
X91567000Y-67032702D01*
X93166903Y-67032702D01*
X93238486Y-67276671D01*
X93493996Y-67397571D01*
X93768184Y-67466300D01*
X94050512Y-67480217D01*
X94330130Y-67438787D01*
X94596292Y-67343603D01*
X94721514Y-67276671D01*
X94793097Y-67032702D01*
X93980000Y-66219605D01*
X93166903Y-67032702D01*
X91567000Y-67032702D01*
X91567000Y-66110512D01*
X92539783Y-66110512D01*
X92581213Y-66390130D01*
X92676397Y-66656292D01*
X92743329Y-66781514D01*
X92987298Y-66853097D01*
X93800395Y-66040000D01*
X94159605Y-66040000D01*
X94972702Y-66853097D01*
X95216671Y-66781514D01*
X95337571Y-66526004D01*
X95406300Y-66251816D01*
X95420217Y-65969488D01*
X95378787Y-65689870D01*
X95283603Y-65423708D01*
X95216671Y-65298486D01*
X94972702Y-65226903D01*
X94159605Y-66040000D01*
X93800395Y-66040000D01*
X92987298Y-65226903D01*
X92743329Y-65298486D01*
X92622429Y-65553996D01*
X92553700Y-65828184D01*
X92539783Y-66110512D01*
X91567000Y-66110512D01*
X91567000Y-65047298D01*
X93166903Y-65047298D01*
X93980000Y-65860395D01*
X94793097Y-65047298D01*
X94721514Y-64803329D01*
X94466004Y-64682429D01*
X94191816Y-64613700D01*
X93909488Y-64599783D01*
X93629870Y-64641213D01*
X93363708Y-64736397D01*
X93238486Y-64803329D01*
X93166903Y-65047298D01*
X91567000Y-65047298D01*
X91567000Y-63627000D01*
X96520000Y-63627000D01*
X96544776Y-63624560D01*
X96568601Y-63617333D01*
X96590557Y-63605597D01*
X96609803Y-63589803D01*
X96625597Y-63570557D01*
X96637333Y-63548601D01*
X96644560Y-63524776D01*
X96647000Y-63500000D01*
X96647000Y-58278665D01*
X100165000Y-58278665D01*
X100165000Y-58561335D01*
X100220147Y-58838574D01*
X100328320Y-59099727D01*
X100485363Y-59334759D01*
X100685241Y-59534637D01*
X100920273Y-59691680D01*
X101181426Y-59799853D01*
X101458665Y-59855000D01*
X101741335Y-59855000D01*
X102018574Y-59799853D01*
X102279727Y-59691680D01*
X102514759Y-59534637D01*
X102636694Y-59412702D01*
X109676903Y-59412702D01*
X109748486Y-59656671D01*
X110003996Y-59777571D01*
X110278184Y-59846300D01*
X110560512Y-59860217D01*
X110840130Y-59818787D01*
X111106292Y-59723603D01*
X111231514Y-59656671D01*
X111303097Y-59412702D01*
X110490000Y-58599605D01*
X109676903Y-59412702D01*
X102636694Y-59412702D01*
X102714637Y-59334759D01*
X102871680Y-59099727D01*
X102979853Y-58838574D01*
X103035000Y-58561335D01*
X103035000Y-58490512D01*
X109049783Y-58490512D01*
X109091213Y-58770130D01*
X109186397Y-59036292D01*
X109253329Y-59161514D01*
X109497298Y-59233097D01*
X110310395Y-58420000D01*
X109497298Y-57606903D01*
X109253329Y-57678486D01*
X109132429Y-57933996D01*
X109063700Y-58208184D01*
X109049783Y-58490512D01*
X103035000Y-58490512D01*
X103035000Y-58278665D01*
X102979853Y-58001426D01*
X102871680Y-57740273D01*
X102714637Y-57505241D01*
X102636694Y-57427298D01*
X109676903Y-57427298D01*
X110490000Y-58240395D01*
X111303097Y-57427298D01*
X111231514Y-57183329D01*
X110976004Y-57062429D01*
X110701816Y-56993700D01*
X110419488Y-56979783D01*
X110139870Y-57021213D01*
X109873708Y-57116397D01*
X109748486Y-57183329D01*
X109676903Y-57427298D01*
X102636694Y-57427298D01*
X102514759Y-57305363D01*
X102279727Y-57148320D01*
X102018574Y-57040147D01*
X101741335Y-56985000D01*
X101458665Y-56985000D01*
X101181426Y-57040147D01*
X100920273Y-57148320D01*
X100685241Y-57305363D01*
X100485363Y-57505241D01*
X100328320Y-57740273D01*
X100220147Y-58001426D01*
X100165000Y-58278665D01*
X96647000Y-58278665D01*
X96647000Y-54332702D01*
X96976903Y-54332702D01*
X97048486Y-54576671D01*
X97303996Y-54697571D01*
X97578184Y-54766300D01*
X97860512Y-54780217D01*
X98140130Y-54738787D01*
X98406292Y-54643603D01*
X98531514Y-54576671D01*
X98603097Y-54332702D01*
X97790000Y-53519605D01*
X96976903Y-54332702D01*
X96647000Y-54332702D01*
X96647000Y-54108998D01*
X96797298Y-54153097D01*
X97610395Y-53340000D01*
X97969605Y-53340000D01*
X98782702Y-54153097D01*
X99026671Y-54081514D01*
X99147571Y-53826004D01*
X99216300Y-53551816D01*
X99230217Y-53269488D01*
X99188787Y-52989870D01*
X99093603Y-52723708D01*
X99026671Y-52598486D01*
X98782702Y-52526903D01*
X97969605Y-53340000D01*
X97610395Y-53340000D01*
X96797298Y-52526903D01*
X96647000Y-52571002D01*
X96647000Y-52197000D01*
X97021002Y-52197000D01*
X96976903Y-52347298D01*
M02*
