G04 #@! TF.GenerationSoftware,KiCad,Pcbnew,(5.1.2)-1*
G04 #@! TF.CreationDate,2019-08-07T20:20:44+02:00*
G04 #@! TF.ProjectId,Z80Mini,5a38304d-696e-4692-9e6b-696361645f70,rev?*
G04 #@! TF.SameCoordinates,Original*
G04 #@! TF.FileFunction,Legend,Top*
G04 #@! TF.FilePolarity,Positive*
%FSLAX46Y46*%
G04 Gerber Fmt 4.6, Leading zero omitted, Abs format (unit mm)*
G04 Created by KiCad (PCBNEW (5.1.2)-1) date 2019-08-07 20:20:44*
%MOMM*%
%LPD*%
G04 APERTURE LIST*
%ADD10C,0.300000*%
%ADD11C,0.120000*%
%ADD12C,0.150000*%
G04 APERTURE END LIST*
D10*
X108262857Y-141418571D02*
X109262857Y-141418571D01*
X108262857Y-142918571D01*
X109262857Y-142918571D01*
X110048571Y-142061428D02*
X109905714Y-141990000D01*
X109834285Y-141918571D01*
X109762857Y-141775714D01*
X109762857Y-141704285D01*
X109834285Y-141561428D01*
X109905714Y-141490000D01*
X110048571Y-141418571D01*
X110334285Y-141418571D01*
X110477142Y-141490000D01*
X110548571Y-141561428D01*
X110620000Y-141704285D01*
X110620000Y-141775714D01*
X110548571Y-141918571D01*
X110477142Y-141990000D01*
X110334285Y-142061428D01*
X110048571Y-142061428D01*
X109905714Y-142132857D01*
X109834285Y-142204285D01*
X109762857Y-142347142D01*
X109762857Y-142632857D01*
X109834285Y-142775714D01*
X109905714Y-142847142D01*
X110048571Y-142918571D01*
X110334285Y-142918571D01*
X110477142Y-142847142D01*
X110548571Y-142775714D01*
X110620000Y-142632857D01*
X110620000Y-142347142D01*
X110548571Y-142204285D01*
X110477142Y-142132857D01*
X110334285Y-142061428D01*
X111548571Y-141418571D02*
X111691428Y-141418571D01*
X111834285Y-141490000D01*
X111905714Y-141561428D01*
X111977142Y-141704285D01*
X112048571Y-141990000D01*
X112048571Y-142347142D01*
X111977142Y-142632857D01*
X111905714Y-142775714D01*
X111834285Y-142847142D01*
X111691428Y-142918571D01*
X111548571Y-142918571D01*
X111405714Y-142847142D01*
X111334285Y-142775714D01*
X111262857Y-142632857D01*
X111191428Y-142347142D01*
X111191428Y-141990000D01*
X111262857Y-141704285D01*
X111334285Y-141561428D01*
X111405714Y-141490000D01*
X111548571Y-141418571D01*
X112691428Y-142918571D02*
X112691428Y-141418571D01*
X113191428Y-142490000D01*
X113691428Y-141418571D01*
X113691428Y-142918571D01*
X114405714Y-142918571D02*
X114405714Y-141918571D01*
X114405714Y-141418571D02*
X114334285Y-141490000D01*
X114405714Y-141561428D01*
X114477142Y-141490000D01*
X114405714Y-141418571D01*
X114405714Y-141561428D01*
X115120000Y-141918571D02*
X115120000Y-142918571D01*
X115120000Y-142061428D02*
X115191428Y-141990000D01*
X115334285Y-141918571D01*
X115548571Y-141918571D01*
X115691428Y-141990000D01*
X115762857Y-142132857D01*
X115762857Y-142918571D01*
X116477142Y-142918571D02*
X116477142Y-141918571D01*
X116477142Y-141418571D02*
X116405714Y-141490000D01*
X116477142Y-141561428D01*
X116548571Y-141490000D01*
X116477142Y-141418571D01*
X116477142Y-141561428D01*
X117691428Y-142132857D02*
X117191428Y-142132857D01*
X117191428Y-142918571D02*
X117191428Y-141418571D01*
X117905714Y-141418571D01*
X118477142Y-142918571D02*
X118477142Y-141918571D01*
X118477142Y-142204285D02*
X118548571Y-142061428D01*
X118620000Y-141990000D01*
X118762857Y-141918571D01*
X118905714Y-141918571D01*
X120048571Y-142918571D02*
X120048571Y-142132857D01*
X119977142Y-141990000D01*
X119834285Y-141918571D01*
X119548571Y-141918571D01*
X119405714Y-141990000D01*
X120048571Y-142847142D02*
X119905714Y-142918571D01*
X119548571Y-142918571D01*
X119405714Y-142847142D01*
X119334285Y-142704285D01*
X119334285Y-142561428D01*
X119405714Y-142418571D01*
X119548571Y-142347142D01*
X119905714Y-142347142D01*
X120048571Y-142275714D01*
X120762857Y-142918571D02*
X120762857Y-141918571D01*
X120762857Y-142061428D02*
X120834285Y-141990000D01*
X120977142Y-141918571D01*
X121191428Y-141918571D01*
X121334285Y-141990000D01*
X121405714Y-142132857D01*
X121405714Y-142918571D01*
X121405714Y-142132857D02*
X121477142Y-141990000D01*
X121620000Y-141918571D01*
X121834285Y-141918571D01*
X121977142Y-141990000D01*
X122048571Y-142132857D01*
X122048571Y-142918571D01*
X123334285Y-142847142D02*
X123191428Y-142918571D01*
X122905714Y-142918571D01*
X122762857Y-142847142D01*
X122691428Y-142704285D01*
X122691428Y-142132857D01*
X122762857Y-141990000D01*
X122905714Y-141918571D01*
X123191428Y-141918571D01*
X123334285Y-141990000D01*
X123405714Y-142132857D01*
X123405714Y-142275714D01*
X122691428Y-142418571D01*
X126048571Y-142775714D02*
X125977142Y-142847142D01*
X125762857Y-142918571D01*
X125620000Y-142918571D01*
X125405714Y-142847142D01*
X125262857Y-142704285D01*
X125191428Y-142561428D01*
X125120000Y-142275714D01*
X125120000Y-142061428D01*
X125191428Y-141775714D01*
X125262857Y-141632857D01*
X125405714Y-141490000D01*
X125620000Y-141418571D01*
X125762857Y-141418571D01*
X125977142Y-141490000D01*
X126048571Y-141561428D01*
X126691428Y-142918571D02*
X126691428Y-141418571D01*
X127262857Y-141418571D01*
X127405714Y-141490000D01*
X127477142Y-141561428D01*
X127548571Y-141704285D01*
X127548571Y-141918571D01*
X127477142Y-142061428D01*
X127405714Y-142132857D01*
X127262857Y-142204285D01*
X126691428Y-142204285D01*
X128191428Y-141418571D02*
X128191428Y-142632857D01*
X128262857Y-142775714D01*
X128334285Y-142847142D01*
X128477142Y-142918571D01*
X128762857Y-142918571D01*
X128905714Y-142847142D01*
X128977142Y-142775714D01*
X129048571Y-142632857D01*
X129048571Y-141418571D01*
X129762857Y-142347142D02*
X130905714Y-142347142D01*
X131620000Y-142918571D02*
X131620000Y-141418571D01*
X132620000Y-141418571D02*
X132905714Y-141418571D01*
X133048571Y-141490000D01*
X133191428Y-141632857D01*
X133262857Y-141918571D01*
X133262857Y-142418571D01*
X133191428Y-142704285D01*
X133048571Y-142847142D01*
X132905714Y-142918571D01*
X132620000Y-142918571D01*
X132477142Y-142847142D01*
X132334285Y-142704285D01*
X132262857Y-142418571D01*
X132262857Y-141918571D01*
X132334285Y-141632857D01*
X132477142Y-141490000D01*
X132620000Y-141418571D01*
X135548571Y-142132857D02*
X135762857Y-142204285D01*
X135834285Y-142275714D01*
X135905714Y-142418571D01*
X135905714Y-142632857D01*
X135834285Y-142775714D01*
X135762857Y-142847142D01*
X135620000Y-142918571D01*
X135048571Y-142918571D01*
X135048571Y-141418571D01*
X135548571Y-141418571D01*
X135691428Y-141490000D01*
X135762857Y-141561428D01*
X135834285Y-141704285D01*
X135834285Y-141847142D01*
X135762857Y-141990000D01*
X135691428Y-142061428D01*
X135548571Y-142132857D01*
X135048571Y-142132857D01*
X136762857Y-142918571D02*
X136620000Y-142847142D01*
X136548571Y-142775714D01*
X136477142Y-142632857D01*
X136477142Y-142204285D01*
X136548571Y-142061428D01*
X136620000Y-141990000D01*
X136762857Y-141918571D01*
X136977142Y-141918571D01*
X137120000Y-141990000D01*
X137191428Y-142061428D01*
X137262857Y-142204285D01*
X137262857Y-142632857D01*
X137191428Y-142775714D01*
X137120000Y-142847142D01*
X136977142Y-142918571D01*
X136762857Y-142918571D01*
X138548571Y-142918571D02*
X138548571Y-142132857D01*
X138477142Y-141990000D01*
X138334285Y-141918571D01*
X138048571Y-141918571D01*
X137905714Y-141990000D01*
X138548571Y-142847142D02*
X138405714Y-142918571D01*
X138048571Y-142918571D01*
X137905714Y-142847142D01*
X137834285Y-142704285D01*
X137834285Y-142561428D01*
X137905714Y-142418571D01*
X138048571Y-142347142D01*
X138405714Y-142347142D01*
X138548571Y-142275714D01*
X139262857Y-142918571D02*
X139262857Y-141918571D01*
X139262857Y-142204285D02*
X139334285Y-142061428D01*
X139405714Y-141990000D01*
X139548571Y-141918571D01*
X139691428Y-141918571D01*
X140834285Y-142918571D02*
X140834285Y-141418571D01*
X140834285Y-142847142D02*
X140691428Y-142918571D01*
X140405714Y-142918571D01*
X140262857Y-142847142D01*
X140191428Y-142775714D01*
X140120000Y-142632857D01*
X140120000Y-142204285D01*
X140191428Y-142061428D01*
X140262857Y-141990000D01*
X140405714Y-141918571D01*
X140691428Y-141918571D01*
X140834285Y-141990000D01*
X142548571Y-141918571D02*
X142905714Y-142918571D01*
X143262857Y-141918571D01*
X144620000Y-142918571D02*
X143762857Y-142918571D01*
X144191428Y-142918571D02*
X144191428Y-141418571D01*
X144048571Y-141632857D01*
X143905714Y-141775714D01*
X143762857Y-141847142D01*
X145262857Y-142775714D02*
X145334285Y-142847142D01*
X145262857Y-142918571D01*
X145191428Y-142847142D01*
X145262857Y-142775714D01*
X145262857Y-142918571D01*
X146262857Y-141418571D02*
X146405714Y-141418571D01*
X146548571Y-141490000D01*
X146620000Y-141561428D01*
X146691428Y-141704285D01*
X146762857Y-141990000D01*
X146762857Y-142347142D01*
X146691428Y-142632857D01*
X146620000Y-142775714D01*
X146548571Y-142847142D01*
X146405714Y-142918571D01*
X146262857Y-142918571D01*
X146120000Y-142847142D01*
X146048571Y-142775714D01*
X145977142Y-142632857D01*
X145905714Y-142347142D01*
X145905714Y-141990000D01*
X145977142Y-141704285D01*
X146048571Y-141561428D01*
X146120000Y-141490000D01*
X146262857Y-141418571D01*
X148977142Y-143490000D02*
X148905714Y-143418571D01*
X148762857Y-143204285D01*
X148691428Y-143061428D01*
X148620000Y-142847142D01*
X148548571Y-142490000D01*
X148548571Y-142204285D01*
X148620000Y-141847142D01*
X148691428Y-141632857D01*
X148762857Y-141490000D01*
X148905714Y-141275714D01*
X148977142Y-141204285D01*
X149334285Y-141418571D02*
X150191428Y-141418571D01*
X149762857Y-142918571D02*
X149762857Y-141418571D01*
X151548571Y-142775714D02*
X151477142Y-142847142D01*
X151262857Y-142918571D01*
X151120000Y-142918571D01*
X150905714Y-142847142D01*
X150762857Y-142704285D01*
X150691428Y-142561428D01*
X150620000Y-142275714D01*
X150620000Y-142061428D01*
X150691428Y-141775714D01*
X150762857Y-141632857D01*
X150905714Y-141490000D01*
X151120000Y-141418571D01*
X151262857Y-141418571D01*
X151477142Y-141490000D01*
X151548571Y-141561428D01*
X153048571Y-142775714D02*
X152977142Y-142847142D01*
X152762857Y-142918571D01*
X152620000Y-142918571D01*
X152405714Y-142847142D01*
X152262857Y-142704285D01*
X152191428Y-142561428D01*
X152120000Y-142275714D01*
X152120000Y-142061428D01*
X152191428Y-141775714D01*
X152262857Y-141632857D01*
X152405714Y-141490000D01*
X152620000Y-141418571D01*
X152762857Y-141418571D01*
X152977142Y-141490000D01*
X153048571Y-141561428D01*
X154762857Y-141561428D02*
X154834285Y-141490000D01*
X154977142Y-141418571D01*
X155334285Y-141418571D01*
X155477142Y-141490000D01*
X155548571Y-141561428D01*
X155620000Y-141704285D01*
X155620000Y-141847142D01*
X155548571Y-142061428D01*
X154691428Y-142918571D01*
X155620000Y-142918571D01*
X156548571Y-141418571D02*
X156691428Y-141418571D01*
X156834285Y-141490000D01*
X156905714Y-141561428D01*
X156977142Y-141704285D01*
X157048571Y-141990000D01*
X157048571Y-142347142D01*
X156977142Y-142632857D01*
X156905714Y-142775714D01*
X156834285Y-142847142D01*
X156691428Y-142918571D01*
X156548571Y-142918571D01*
X156405714Y-142847142D01*
X156334285Y-142775714D01*
X156262857Y-142632857D01*
X156191428Y-142347142D01*
X156191428Y-141990000D01*
X156262857Y-141704285D01*
X156334285Y-141561428D01*
X156405714Y-141490000D01*
X156548571Y-141418571D01*
X158477142Y-142918571D02*
X157620000Y-142918571D01*
X158048571Y-142918571D02*
X158048571Y-141418571D01*
X157905714Y-141632857D01*
X157762857Y-141775714D01*
X157620000Y-141847142D01*
X159191428Y-142918571D02*
X159477142Y-142918571D01*
X159620000Y-142847142D01*
X159691428Y-142775714D01*
X159834285Y-142561428D01*
X159905714Y-142275714D01*
X159905714Y-141704285D01*
X159834285Y-141561428D01*
X159762857Y-141490000D01*
X159620000Y-141418571D01*
X159334285Y-141418571D01*
X159191428Y-141490000D01*
X159120000Y-141561428D01*
X159048571Y-141704285D01*
X159048571Y-142061428D01*
X159120000Y-142204285D01*
X159191428Y-142275714D01*
X159334285Y-142347142D01*
X159620000Y-142347142D01*
X159762857Y-142275714D01*
X159834285Y-142204285D01*
X159905714Y-142061428D01*
X160405714Y-143490000D02*
X160477142Y-143418571D01*
X160619999Y-143204285D01*
X160691428Y-143061428D01*
X160762857Y-142847142D01*
X160834285Y-142490000D01*
X160834285Y-142204285D01*
X160762857Y-141847142D01*
X160691428Y-141632857D01*
X160619999Y-141490000D01*
X160477142Y-141275714D01*
X160405714Y-141204285D01*
D11*
X249240000Y-89190000D02*
X258590000Y-89190000D01*
X249240000Y-108220000D02*
X249240000Y-74660000D01*
X249240000Y-108220000D02*
X258590000Y-108220000D01*
X249240000Y-93690000D02*
X258590000Y-93690000D01*
X249240000Y-74660000D02*
X258590000Y-74660000D01*
X258590000Y-74660000D02*
X258590000Y-108220000D01*
X245110000Y-78740000D02*
X243840000Y-78740000D01*
X243840000Y-78740000D02*
X243840000Y-80010000D01*
X205450000Y-72330000D02*
X200390000Y-72330000D01*
X205450000Y-123250000D02*
X205450000Y-72330000D01*
X193330000Y-123250000D02*
X205450000Y-123250000D01*
X193330000Y-72330000D02*
X193330000Y-123250000D01*
X198390000Y-72330000D02*
X193330000Y-72330000D01*
X200390000Y-72330000D02*
G75*
G02X198390000Y-72330000I-1000000J0D01*
G01*
X230030000Y-72450000D02*
X224970000Y-72450000D01*
X230030000Y-123370000D02*
X230030000Y-72450000D01*
X217910000Y-123370000D02*
X230030000Y-123370000D01*
X217910000Y-72450000D02*
X217910000Y-123370000D01*
X222970000Y-72450000D02*
X217910000Y-72450000D01*
X224970000Y-72450000D02*
G75*
G02X222970000Y-72450000I-1000000J0D01*
G01*
X230850000Y-50740000D02*
X229600000Y-50740000D01*
X230850000Y-61020000D02*
X230850000Y-50740000D01*
X226350000Y-61020000D02*
X230850000Y-61020000D01*
X226350000Y-50740000D02*
X226350000Y-61020000D01*
X227600000Y-50740000D02*
X226350000Y-50740000D01*
X229600000Y-50740000D02*
G75*
G02X227600000Y-50740000I-1000000J0D01*
G01*
X208820000Y-62130000D02*
X208820000Y-62460000D01*
X215360000Y-62130000D02*
X208820000Y-62130000D01*
X215360000Y-62460000D02*
X215360000Y-62130000D01*
X208820000Y-64870000D02*
X208820000Y-64540000D01*
X215360000Y-64870000D02*
X208820000Y-64870000D01*
X215360000Y-64540000D02*
X215360000Y-64870000D01*
X208820000Y-58320000D02*
X208820000Y-58650000D01*
X215360000Y-58320000D02*
X208820000Y-58320000D01*
X215360000Y-58650000D02*
X215360000Y-58320000D01*
X208820000Y-61060000D02*
X208820000Y-60730000D01*
X215360000Y-61060000D02*
X208820000Y-61060000D01*
X215360000Y-60730000D02*
X215360000Y-61060000D01*
X208820000Y-54510000D02*
X208820000Y-54840000D01*
X215360000Y-54510000D02*
X208820000Y-54510000D01*
X215360000Y-54840000D02*
X215360000Y-54510000D01*
X208820000Y-57250000D02*
X208820000Y-56920000D01*
X215360000Y-57250000D02*
X208820000Y-57250000D01*
X215360000Y-56920000D02*
X215360000Y-57250000D01*
X208820000Y-50700000D02*
X208820000Y-51030000D01*
X215360000Y-50700000D02*
X208820000Y-50700000D01*
X215360000Y-51030000D02*
X215360000Y-50700000D01*
X208820000Y-53440000D02*
X208820000Y-53110000D01*
X215360000Y-53440000D02*
X208820000Y-53440000D01*
X215360000Y-53110000D02*
X215360000Y-53440000D01*
X240570000Y-65940000D02*
X240570000Y-66270000D01*
X247110000Y-65940000D02*
X240570000Y-65940000D01*
X247110000Y-66270000D02*
X247110000Y-65940000D01*
X240570000Y-68680000D02*
X240570000Y-68350000D01*
X247110000Y-68680000D02*
X240570000Y-68680000D01*
X247110000Y-68350000D02*
X247110000Y-68680000D01*
X253020000Y-66230000D02*
X253020000Y-66074000D01*
X253020000Y-68546000D02*
X253020000Y-68390000D01*
X250418870Y-66230163D02*
G75*
G02X252500961Y-66230000I1041130J-1079837D01*
G01*
X250418870Y-68389837D02*
G75*
G03X252500961Y-68390000I1041130J1079837D01*
G01*
X249787665Y-66231392D02*
G75*
G02X253020000Y-66074484I1672335J-1078608D01*
G01*
X249787665Y-68388608D02*
G75*
G03X253020000Y-68545516I1672335J1078608D01*
G01*
X240570000Y-120550000D02*
X240570000Y-120880000D01*
X247110000Y-120550000D02*
X240570000Y-120550000D01*
X247110000Y-120880000D02*
X247110000Y-120550000D01*
X240570000Y-123290000D02*
X240570000Y-122960000D01*
X247110000Y-123290000D02*
X240570000Y-123290000D01*
X247110000Y-122960000D02*
X247110000Y-123290000D01*
X240570000Y-114200000D02*
X240570000Y-114530000D01*
X247110000Y-114200000D02*
X240570000Y-114200000D01*
X247110000Y-114530000D02*
X247110000Y-114200000D01*
X240570000Y-116940000D02*
X240570000Y-116610000D01*
X247110000Y-116940000D02*
X240570000Y-116940000D01*
X247110000Y-116610000D02*
X247110000Y-116940000D01*
X253020000Y-120840000D02*
X253020000Y-120684000D01*
X253020000Y-123156000D02*
X253020000Y-123000000D01*
X250418870Y-120840163D02*
G75*
G02X252500961Y-120840000I1041130J-1079837D01*
G01*
X250418870Y-122999837D02*
G75*
G03X252500961Y-123000000I1041130J1079837D01*
G01*
X249787665Y-120841392D02*
G75*
G02X253020000Y-120684484I1672335J-1078608D01*
G01*
X249787665Y-122998608D02*
G75*
G03X253020000Y-123155516I1672335J1078608D01*
G01*
X253020000Y-114490000D02*
X253020000Y-114334000D01*
X253020000Y-116806000D02*
X253020000Y-116650000D01*
X250418870Y-114490163D02*
G75*
G02X252500961Y-114490000I1041130J-1079837D01*
G01*
X250418870Y-116649837D02*
G75*
G03X252500961Y-116650000I1041130J1079837D01*
G01*
X249787665Y-114491392D02*
G75*
G02X253020000Y-114334484I1672335J-1078608D01*
G01*
X249787665Y-116648608D02*
G75*
G03X253020000Y-116805516I1672335J1078608D01*
G01*
X194870000Y-130551422D02*
X194870000Y-131068578D01*
X196290000Y-130551422D02*
X196290000Y-131068578D01*
X199105225Y-127815000D02*
X199105225Y-128315000D01*
X198855225Y-128065000D02*
X199355225Y-128065000D01*
X204261000Y-129256000D02*
X204261000Y-129824000D01*
X204221000Y-129022000D02*
X204221000Y-130058000D01*
X204181000Y-128863000D02*
X204181000Y-130217000D01*
X204141000Y-128735000D02*
X204141000Y-130345000D01*
X204101000Y-128625000D02*
X204101000Y-130455000D01*
X204061000Y-128529000D02*
X204061000Y-130551000D01*
X204021000Y-128442000D02*
X204021000Y-130638000D01*
X203981000Y-128362000D02*
X203981000Y-130718000D01*
X203941000Y-128289000D02*
X203941000Y-130791000D01*
X203901000Y-128221000D02*
X203901000Y-130859000D01*
X203861000Y-128157000D02*
X203861000Y-130923000D01*
X203821000Y-128097000D02*
X203821000Y-130983000D01*
X203781000Y-128040000D02*
X203781000Y-131040000D01*
X203741000Y-127986000D02*
X203741000Y-131094000D01*
X203701000Y-127935000D02*
X203701000Y-131145000D01*
X203661000Y-130580000D02*
X203661000Y-131193000D01*
X203661000Y-127887000D02*
X203661000Y-128500000D01*
X203621000Y-130580000D02*
X203621000Y-131239000D01*
X203621000Y-127841000D02*
X203621000Y-128500000D01*
X203581000Y-130580000D02*
X203581000Y-131283000D01*
X203581000Y-127797000D02*
X203581000Y-128500000D01*
X203541000Y-130580000D02*
X203541000Y-131325000D01*
X203541000Y-127755000D02*
X203541000Y-128500000D01*
X203501000Y-130580000D02*
X203501000Y-131366000D01*
X203501000Y-127714000D02*
X203501000Y-128500000D01*
X203461000Y-130580000D02*
X203461000Y-131404000D01*
X203461000Y-127676000D02*
X203461000Y-128500000D01*
X203421000Y-130580000D02*
X203421000Y-131441000D01*
X203421000Y-127639000D02*
X203421000Y-128500000D01*
X203381000Y-130580000D02*
X203381000Y-131477000D01*
X203381000Y-127603000D02*
X203381000Y-128500000D01*
X203341000Y-130580000D02*
X203341000Y-131511000D01*
X203341000Y-127569000D02*
X203341000Y-128500000D01*
X203301000Y-130580000D02*
X203301000Y-131544000D01*
X203301000Y-127536000D02*
X203301000Y-128500000D01*
X203261000Y-130580000D02*
X203261000Y-131575000D01*
X203261000Y-127505000D02*
X203261000Y-128500000D01*
X203221000Y-130580000D02*
X203221000Y-131605000D01*
X203221000Y-127475000D02*
X203221000Y-128500000D01*
X203181000Y-130580000D02*
X203181000Y-131635000D01*
X203181000Y-127445000D02*
X203181000Y-128500000D01*
X203141000Y-130580000D02*
X203141000Y-131662000D01*
X203141000Y-127418000D02*
X203141000Y-128500000D01*
X203101000Y-130580000D02*
X203101000Y-131689000D01*
X203101000Y-127391000D02*
X203101000Y-128500000D01*
X203061000Y-130580000D02*
X203061000Y-131715000D01*
X203061000Y-127365000D02*
X203061000Y-128500000D01*
X203021000Y-130580000D02*
X203021000Y-131740000D01*
X203021000Y-127340000D02*
X203021000Y-128500000D01*
X202981000Y-130580000D02*
X202981000Y-131764000D01*
X202981000Y-127316000D02*
X202981000Y-128500000D01*
X202941000Y-130580000D02*
X202941000Y-131787000D01*
X202941000Y-127293000D02*
X202941000Y-128500000D01*
X202901000Y-130580000D02*
X202901000Y-131808000D01*
X202901000Y-127272000D02*
X202901000Y-128500000D01*
X202861000Y-130580000D02*
X202861000Y-131830000D01*
X202861000Y-127250000D02*
X202861000Y-128500000D01*
X202821000Y-130580000D02*
X202821000Y-131850000D01*
X202821000Y-127230000D02*
X202821000Y-128500000D01*
X202781000Y-130580000D02*
X202781000Y-131869000D01*
X202781000Y-127211000D02*
X202781000Y-128500000D01*
X202741000Y-130580000D02*
X202741000Y-131888000D01*
X202741000Y-127192000D02*
X202741000Y-128500000D01*
X202701000Y-130580000D02*
X202701000Y-131905000D01*
X202701000Y-127175000D02*
X202701000Y-128500000D01*
X202661000Y-130580000D02*
X202661000Y-131922000D01*
X202661000Y-127158000D02*
X202661000Y-128500000D01*
X202621000Y-130580000D02*
X202621000Y-131938000D01*
X202621000Y-127142000D02*
X202621000Y-128500000D01*
X202581000Y-130580000D02*
X202581000Y-131954000D01*
X202581000Y-127126000D02*
X202581000Y-128500000D01*
X202541000Y-130580000D02*
X202541000Y-131968000D01*
X202541000Y-127112000D02*
X202541000Y-128500000D01*
X202501000Y-130580000D02*
X202501000Y-131982000D01*
X202501000Y-127098000D02*
X202501000Y-128500000D01*
X202461000Y-130580000D02*
X202461000Y-131995000D01*
X202461000Y-127085000D02*
X202461000Y-128500000D01*
X202421000Y-130580000D02*
X202421000Y-132008000D01*
X202421000Y-127072000D02*
X202421000Y-128500000D01*
X202381000Y-130580000D02*
X202381000Y-132020000D01*
X202381000Y-127060000D02*
X202381000Y-128500000D01*
X202340000Y-130580000D02*
X202340000Y-132031000D01*
X202340000Y-127049000D02*
X202340000Y-128500000D01*
X202300000Y-130580000D02*
X202300000Y-132041000D01*
X202300000Y-127039000D02*
X202300000Y-128500000D01*
X202260000Y-130580000D02*
X202260000Y-132051000D01*
X202260000Y-127029000D02*
X202260000Y-128500000D01*
X202220000Y-130580000D02*
X202220000Y-132060000D01*
X202220000Y-127020000D02*
X202220000Y-128500000D01*
X202180000Y-130580000D02*
X202180000Y-132068000D01*
X202180000Y-127012000D02*
X202180000Y-128500000D01*
X202140000Y-130580000D02*
X202140000Y-132076000D01*
X202140000Y-127004000D02*
X202140000Y-128500000D01*
X202100000Y-130580000D02*
X202100000Y-132083000D01*
X202100000Y-126997000D02*
X202100000Y-128500000D01*
X202060000Y-130580000D02*
X202060000Y-132090000D01*
X202060000Y-126990000D02*
X202060000Y-128500000D01*
X202020000Y-130580000D02*
X202020000Y-132096000D01*
X202020000Y-126984000D02*
X202020000Y-128500000D01*
X201980000Y-130580000D02*
X201980000Y-132101000D01*
X201980000Y-126979000D02*
X201980000Y-128500000D01*
X201940000Y-130580000D02*
X201940000Y-132105000D01*
X201940000Y-126975000D02*
X201940000Y-128500000D01*
X201900000Y-130580000D02*
X201900000Y-132109000D01*
X201900000Y-126971000D02*
X201900000Y-128500000D01*
X201860000Y-130580000D02*
X201860000Y-132113000D01*
X201860000Y-126967000D02*
X201860000Y-128500000D01*
X201820000Y-130580000D02*
X201820000Y-132116000D01*
X201820000Y-126964000D02*
X201820000Y-128500000D01*
X201780000Y-130580000D02*
X201780000Y-132118000D01*
X201780000Y-126962000D02*
X201780000Y-128500000D01*
X201740000Y-130580000D02*
X201740000Y-132119000D01*
X201740000Y-126961000D02*
X201740000Y-128500000D01*
X201700000Y-126960000D02*
X201700000Y-128500000D01*
X201700000Y-130580000D02*
X201700000Y-132120000D01*
X201660000Y-126960000D02*
X201660000Y-128500000D01*
X201660000Y-130580000D02*
X201660000Y-132120000D01*
X204280000Y-129540000D02*
G75*
G03X204280000Y-129540000I-2620000J0D01*
G01*
X206090000Y-137781000D02*
X206090000Y-139039000D01*
X207930000Y-137781000D02*
X207930000Y-139039000D01*
X206090000Y-142861000D02*
X206090000Y-144119000D01*
X207930000Y-142861000D02*
X207930000Y-144119000D01*
X192690000Y-145429000D02*
X192690000Y-144171000D01*
X190850000Y-145429000D02*
X190850000Y-144171000D01*
X258640000Y-141070000D02*
X256690000Y-141070000D01*
X254470000Y-141070000D02*
X251240000Y-141070000D01*
X249320000Y-140350000D02*
X249320000Y-139270000D01*
X249320000Y-135050000D02*
X249320000Y-133970000D01*
X254470000Y-133250000D02*
X251240000Y-133250000D01*
X258640000Y-133250000D02*
X256690000Y-133250000D01*
X249320000Y-139270000D02*
X248890000Y-139270000D01*
X258640000Y-133250000D02*
X258640000Y-141070000D01*
X250851000Y-130460000D02*
X252109000Y-130460000D01*
X250851000Y-128620000D02*
X252109000Y-128620000D01*
X192690000Y-135229000D02*
X192690000Y-133971000D01*
X190850000Y-135229000D02*
X190850000Y-133971000D01*
X192690000Y-140349000D02*
X192690000Y-139091000D01*
X190850000Y-140349000D02*
X190850000Y-139091000D01*
X253130000Y-60150000D02*
X253130000Y-58650000D01*
X251880000Y-56150000D02*
X247380000Y-56150000D01*
X246130000Y-58650000D02*
X246130000Y-60150000D01*
X247380000Y-62650000D02*
X251880000Y-62650000D01*
X104240000Y-56530000D02*
G75*
G03X103490000Y-55780000I-750000J0D01*
G01*
X103490000Y-68680000D02*
G75*
G03X104240000Y-67930000I0J750000D01*
G01*
X91340000Y-67930000D02*
G75*
G03X92090000Y-68680000I750000J0D01*
G01*
X91340000Y-55780000D02*
X91340000Y-67930000D01*
X92090000Y-68680000D02*
X103490000Y-68680000D01*
X104240000Y-67930000D02*
X104240000Y-56530000D01*
X103490000Y-55780000D02*
X91340000Y-55780000D01*
D12*
X196515000Y-136220000D02*
X194915000Y-136220000D01*
X196515000Y-146295000D02*
X202265000Y-146295000D01*
X196515000Y-135645000D02*
X202265000Y-135645000D01*
X196515000Y-146295000D02*
X196515000Y-145645000D01*
X202265000Y-146295000D02*
X202265000Y-145645000D01*
X202265000Y-135645000D02*
X202265000Y-136295000D01*
X196515000Y-135645000D02*
X196515000Y-136220000D01*
D11*
X114240000Y-54900000D02*
X114240000Y-56150000D01*
X132140000Y-54900000D02*
X114240000Y-54900000D01*
X132140000Y-59400000D02*
X132140000Y-54900000D01*
X114240000Y-59400000D02*
X132140000Y-59400000D01*
X114240000Y-58150000D02*
X114240000Y-59400000D01*
X114240000Y-56150000D02*
G75*
G02X114240000Y-58150000I0J-1000000D01*
G01*
X140910000Y-54900000D02*
X140910000Y-56150000D01*
X158810000Y-54900000D02*
X140910000Y-54900000D01*
X158810000Y-59400000D02*
X158810000Y-54900000D01*
X140910000Y-59400000D02*
X158810000Y-59400000D01*
X140910000Y-58150000D02*
X140910000Y-59400000D01*
X140910000Y-56150000D02*
G75*
G02X140910000Y-58150000I0J-1000000D01*
G01*
X178780000Y-72330000D02*
X173720000Y-72330000D01*
X178780000Y-108010000D02*
X178780000Y-72330000D01*
X166660000Y-108010000D02*
X178780000Y-108010000D01*
X166660000Y-72330000D02*
X166660000Y-108010000D01*
X171720000Y-72330000D02*
X166660000Y-72330000D01*
X173720000Y-72330000D02*
G75*
G02X171720000Y-72330000I-1000000J0D01*
G01*
X153380000Y-72330000D02*
X148320000Y-72330000D01*
X153380000Y-108010000D02*
X153380000Y-72330000D01*
X141260000Y-108010000D02*
X153380000Y-108010000D01*
X141260000Y-72330000D02*
X141260000Y-108010000D01*
X146320000Y-72330000D02*
X141260000Y-72330000D01*
X148320000Y-72330000D02*
G75*
G02X146320000Y-72330000I-1000000J0D01*
G01*
X124170000Y-72330000D02*
X119110000Y-72330000D01*
X124170000Y-123250000D02*
X124170000Y-72330000D01*
X112050000Y-123250000D02*
X124170000Y-123250000D01*
X112050000Y-72330000D02*
X112050000Y-123250000D01*
X117110000Y-72330000D02*
X112050000Y-72330000D01*
X119110000Y-72330000D02*
G75*
G02X117110000Y-72330000I-1000000J0D01*
G01*
X87730000Y-129780000D02*
X87400000Y-129780000D01*
X87730000Y-136320000D02*
X87730000Y-129780000D01*
X87400000Y-136320000D02*
X87730000Y-136320000D01*
X84990000Y-129780000D02*
X85320000Y-129780000D01*
X84990000Y-136320000D02*
X84990000Y-129780000D01*
X85320000Y-136320000D02*
X84990000Y-136320000D01*
X92810000Y-129780000D02*
X92480000Y-129780000D01*
X92810000Y-136320000D02*
X92810000Y-129780000D01*
X92480000Y-136320000D02*
X92810000Y-136320000D01*
X90070000Y-129780000D02*
X90400000Y-129780000D01*
X90070000Y-136320000D02*
X90070000Y-129780000D01*
X90400000Y-136320000D02*
X90070000Y-136320000D01*
X97890000Y-129780000D02*
X97560000Y-129780000D01*
X97890000Y-136320000D02*
X97890000Y-129780000D01*
X97560000Y-136320000D02*
X97890000Y-136320000D01*
X95150000Y-129780000D02*
X95480000Y-129780000D01*
X95150000Y-136320000D02*
X95150000Y-129780000D01*
X95480000Y-136320000D02*
X95150000Y-136320000D01*
X178530000Y-58520000D02*
X178530000Y-58190000D01*
X171990000Y-58520000D02*
X178530000Y-58520000D01*
X171990000Y-58190000D02*
X171990000Y-58520000D01*
X178530000Y-55780000D02*
X178530000Y-56110000D01*
X171990000Y-55780000D02*
X178530000Y-55780000D01*
X171990000Y-56110000D02*
X171990000Y-55780000D01*
X178530000Y-53440000D02*
X178530000Y-53110000D01*
X171990000Y-53440000D02*
X178530000Y-53440000D01*
X171990000Y-53110000D02*
X171990000Y-53440000D01*
X178530000Y-50700000D02*
X178530000Y-51030000D01*
X171990000Y-50700000D02*
X178530000Y-50700000D01*
X171990000Y-51030000D02*
X171990000Y-50700000D01*
X208050000Y-68480000D02*
X208050000Y-71220000D01*
X200810000Y-68480000D02*
X200810000Y-71220000D01*
X200810000Y-71220000D02*
X208050000Y-71220000D01*
X200810000Y-68480000D02*
X208050000Y-68480000D01*
X223370000Y-68480000D02*
X223370000Y-71220000D01*
X216130000Y-68480000D02*
X216130000Y-71220000D01*
X216130000Y-71220000D02*
X223370000Y-71220000D01*
X216130000Y-68480000D02*
X223370000Y-68480000D01*
X103910000Y-51970000D02*
X103910000Y-54710000D01*
X96670000Y-51970000D02*
X96670000Y-54710000D01*
X96670000Y-54710000D02*
X103910000Y-54710000D01*
X96670000Y-51970000D02*
X103910000Y-51970000D01*
X174220000Y-63600000D02*
X174220000Y-60860000D01*
X181460000Y-63600000D02*
X181460000Y-60860000D01*
X181460000Y-60860000D02*
X174220000Y-60860000D01*
X181460000Y-63600000D02*
X174220000Y-63600000D01*
X109120000Y-52300000D02*
X111860000Y-52300000D01*
X109120000Y-59540000D02*
X111860000Y-59540000D01*
X111860000Y-59540000D02*
X111860000Y-52300000D01*
X109120000Y-59540000D02*
X109120000Y-52300000D01*
X135790000Y-52300000D02*
X138530000Y-52300000D01*
X135790000Y-59540000D02*
X138530000Y-59540000D01*
X138530000Y-59540000D02*
X138530000Y-52300000D01*
X135790000Y-59540000D02*
X135790000Y-52300000D01*
X181460000Y-68480000D02*
X181460000Y-71220000D01*
X174220000Y-68480000D02*
X174220000Y-71220000D01*
X174220000Y-71220000D02*
X181460000Y-71220000D01*
X174220000Y-68480000D02*
X181460000Y-68480000D01*
X155980000Y-68480000D02*
X155980000Y-71220000D01*
X148740000Y-68480000D02*
X148740000Y-71220000D01*
X148740000Y-71220000D02*
X155980000Y-71220000D01*
X148740000Y-68480000D02*
X155980000Y-68480000D01*
X116610000Y-68480000D02*
X116610000Y-71220000D01*
X109370000Y-68480000D02*
X109370000Y-71220000D01*
X109370000Y-71220000D02*
X116610000Y-71220000D01*
X109370000Y-68480000D02*
X116610000Y-68480000D01*
D12*
X242506666Y-141232380D02*
X242173333Y-140756190D01*
X241935238Y-141232380D02*
X241935238Y-140232380D01*
X242316190Y-140232380D01*
X242411428Y-140280000D01*
X242459047Y-140327619D01*
X242506666Y-140422857D01*
X242506666Y-140565714D01*
X242459047Y-140660952D01*
X242411428Y-140708571D01*
X242316190Y-140756190D01*
X241935238Y-140756190D01*
X242935238Y-140708571D02*
X243268571Y-140708571D01*
X243411428Y-141232380D02*
X242935238Y-141232380D01*
X242935238Y-140232380D01*
X243411428Y-140232380D01*
X244173333Y-140708571D02*
X243840000Y-140708571D01*
X243840000Y-141232380D02*
X243840000Y-140232380D01*
X244316190Y-140232380D01*
X244840000Y-140232380D02*
X244840000Y-140470476D01*
X244601904Y-140375238D02*
X244840000Y-140470476D01*
X245078095Y-140375238D01*
X244697142Y-140660952D02*
X244840000Y-140470476D01*
X244982857Y-140660952D01*
X245601904Y-140232380D02*
X245601904Y-140470476D01*
X245363809Y-140375238D02*
X245601904Y-140470476D01*
X245840000Y-140375238D01*
X245459047Y-140660952D02*
X245601904Y-140470476D01*
X245744761Y-140660952D01*
X251396666Y-47252380D02*
X251063333Y-46776190D01*
X250825238Y-47252380D02*
X250825238Y-46252380D01*
X251206190Y-46252380D01*
X251301428Y-46300000D01*
X251349047Y-46347619D01*
X251396666Y-46442857D01*
X251396666Y-46585714D01*
X251349047Y-46680952D01*
X251301428Y-46728571D01*
X251206190Y-46776190D01*
X250825238Y-46776190D01*
X251825238Y-46728571D02*
X252158571Y-46728571D01*
X252301428Y-47252380D02*
X251825238Y-47252380D01*
X251825238Y-46252380D01*
X252301428Y-46252380D01*
X253063333Y-46728571D02*
X252730000Y-46728571D01*
X252730000Y-47252380D02*
X252730000Y-46252380D01*
X253206190Y-46252380D01*
X253730000Y-46252380D02*
X253730000Y-46490476D01*
X253491904Y-46395238D02*
X253730000Y-46490476D01*
X253968095Y-46395238D01*
X253587142Y-46680952D02*
X253730000Y-46490476D01*
X253872857Y-46680952D01*
X254491904Y-46252380D02*
X254491904Y-46490476D01*
X254253809Y-46395238D02*
X254491904Y-46490476D01*
X254730000Y-46395238D01*
X254349047Y-46680952D02*
X254491904Y-46490476D01*
X254634761Y-46680952D01*
X82486666Y-141232380D02*
X82153333Y-140756190D01*
X81915238Y-141232380D02*
X81915238Y-140232380D01*
X82296190Y-140232380D01*
X82391428Y-140280000D01*
X82439047Y-140327619D01*
X82486666Y-140422857D01*
X82486666Y-140565714D01*
X82439047Y-140660952D01*
X82391428Y-140708571D01*
X82296190Y-140756190D01*
X81915238Y-140756190D01*
X82915238Y-140708571D02*
X83248571Y-140708571D01*
X83391428Y-141232380D02*
X82915238Y-141232380D01*
X82915238Y-140232380D01*
X83391428Y-140232380D01*
X84153333Y-140708571D02*
X83820000Y-140708571D01*
X83820000Y-141232380D02*
X83820000Y-140232380D01*
X84296190Y-140232380D01*
X84820000Y-140232380D02*
X84820000Y-140470476D01*
X84581904Y-140375238D02*
X84820000Y-140470476D01*
X85058095Y-140375238D01*
X84677142Y-140660952D02*
X84820000Y-140470476D01*
X84962857Y-140660952D01*
X85581904Y-140232380D02*
X85581904Y-140470476D01*
X85343809Y-140375238D02*
X85581904Y-140470476D01*
X85820000Y-140375238D01*
X85439047Y-140660952D02*
X85581904Y-140470476D01*
X85724761Y-140660952D01*
X82486666Y-47252380D02*
X82153333Y-46776190D01*
X81915238Y-47252380D02*
X81915238Y-46252380D01*
X82296190Y-46252380D01*
X82391428Y-46300000D01*
X82439047Y-46347619D01*
X82486666Y-46442857D01*
X82486666Y-46585714D01*
X82439047Y-46680952D01*
X82391428Y-46728571D01*
X82296190Y-46776190D01*
X81915238Y-46776190D01*
X82915238Y-46728571D02*
X83248571Y-46728571D01*
X83391428Y-47252380D02*
X82915238Y-47252380D01*
X82915238Y-46252380D01*
X83391428Y-46252380D01*
X84153333Y-46728571D02*
X83820000Y-46728571D01*
X83820000Y-47252380D02*
X83820000Y-46252380D01*
X84296190Y-46252380D01*
X84820000Y-46252380D02*
X84820000Y-46490476D01*
X84581904Y-46395238D02*
X84820000Y-46490476D01*
X85058095Y-46395238D01*
X84677142Y-46680952D02*
X84820000Y-46490476D01*
X84962857Y-46680952D01*
X85581904Y-46252380D02*
X85581904Y-46490476D01*
X85343809Y-46395238D02*
X85581904Y-46490476D01*
X85820000Y-46395238D01*
X85439047Y-46680952D02*
X85581904Y-46490476D01*
X85724761Y-46680952D01*
X250881666Y-73112380D02*
X250881666Y-73826666D01*
X250834047Y-73969523D01*
X250738809Y-74064761D01*
X250595952Y-74112380D01*
X250500714Y-74112380D01*
X251786428Y-73445714D02*
X251786428Y-74112380D01*
X251548333Y-73064761D02*
X251310238Y-73779047D01*
X251929285Y-73779047D01*
X198628095Y-70782380D02*
X198628095Y-71591904D01*
X198675714Y-71687142D01*
X198723333Y-71734761D01*
X198818571Y-71782380D01*
X199009047Y-71782380D01*
X199104285Y-71734761D01*
X199151904Y-71687142D01*
X199199523Y-71591904D01*
X199199523Y-70782380D01*
X199818571Y-71210952D02*
X199723333Y-71163333D01*
X199675714Y-71115714D01*
X199628095Y-71020476D01*
X199628095Y-70972857D01*
X199675714Y-70877619D01*
X199723333Y-70830000D01*
X199818571Y-70782380D01*
X200009047Y-70782380D01*
X200104285Y-70830000D01*
X200151904Y-70877619D01*
X200199523Y-70972857D01*
X200199523Y-71020476D01*
X200151904Y-71115714D01*
X200104285Y-71163333D01*
X200009047Y-71210952D01*
X199818571Y-71210952D01*
X199723333Y-71258571D01*
X199675714Y-71306190D01*
X199628095Y-71401428D01*
X199628095Y-71591904D01*
X199675714Y-71687142D01*
X199723333Y-71734761D01*
X199818571Y-71782380D01*
X200009047Y-71782380D01*
X200104285Y-71734761D01*
X200151904Y-71687142D01*
X200199523Y-71591904D01*
X200199523Y-71401428D01*
X200151904Y-71306190D01*
X200104285Y-71258571D01*
X200009047Y-71210952D01*
X197770952Y-124702380D02*
X197199523Y-124702380D01*
X197485238Y-124702380D02*
X197485238Y-123702380D01*
X197390000Y-123845238D01*
X197294761Y-123940476D01*
X197199523Y-123988095D01*
X198628095Y-123702380D02*
X198437619Y-123702380D01*
X198342380Y-123750000D01*
X198294761Y-123797619D01*
X198199523Y-123940476D01*
X198151904Y-124130952D01*
X198151904Y-124511904D01*
X198199523Y-124607142D01*
X198247142Y-124654761D01*
X198342380Y-124702380D01*
X198532857Y-124702380D01*
X198628095Y-124654761D01*
X198675714Y-124607142D01*
X198723333Y-124511904D01*
X198723333Y-124273809D01*
X198675714Y-124178571D01*
X198628095Y-124130952D01*
X198532857Y-124083333D01*
X198342380Y-124083333D01*
X198247142Y-124130952D01*
X198199523Y-124178571D01*
X198151904Y-124273809D01*
X199628095Y-123702380D02*
X199151904Y-123702380D01*
X199104285Y-124178571D01*
X199151904Y-124130952D01*
X199247142Y-124083333D01*
X199485238Y-124083333D01*
X199580476Y-124130952D01*
X199628095Y-124178571D01*
X199675714Y-124273809D01*
X199675714Y-124511904D01*
X199628095Y-124607142D01*
X199580476Y-124654761D01*
X199485238Y-124702380D01*
X199247142Y-124702380D01*
X199151904Y-124654761D01*
X199104285Y-124607142D01*
X200580476Y-123702380D02*
X200104285Y-123702380D01*
X200056666Y-124178571D01*
X200104285Y-124130952D01*
X200199523Y-124083333D01*
X200437619Y-124083333D01*
X200532857Y-124130952D01*
X200580476Y-124178571D01*
X200628095Y-124273809D01*
X200628095Y-124511904D01*
X200580476Y-124607142D01*
X200532857Y-124654761D01*
X200437619Y-124702380D01*
X200199523Y-124702380D01*
X200104285Y-124654761D01*
X200056666Y-124607142D01*
X201247142Y-123702380D02*
X201342380Y-123702380D01*
X201437619Y-123750000D01*
X201485238Y-123797619D01*
X201532857Y-123892857D01*
X201580476Y-124083333D01*
X201580476Y-124321428D01*
X201532857Y-124511904D01*
X201485238Y-124607142D01*
X201437619Y-124654761D01*
X201342380Y-124702380D01*
X201247142Y-124702380D01*
X201151904Y-124654761D01*
X201104285Y-124607142D01*
X201056666Y-124511904D01*
X201009047Y-124321428D01*
X201009047Y-124083333D01*
X201056666Y-123892857D01*
X201104285Y-123797619D01*
X201151904Y-123750000D01*
X201247142Y-123702380D01*
X223208095Y-70902380D02*
X223208095Y-71711904D01*
X223255714Y-71807142D01*
X223303333Y-71854761D01*
X223398571Y-71902380D01*
X223589047Y-71902380D01*
X223684285Y-71854761D01*
X223731904Y-71807142D01*
X223779523Y-71711904D01*
X223779523Y-70902380D01*
X224160476Y-70902380D02*
X224827142Y-70902380D01*
X224398571Y-71902380D01*
X221517619Y-124250952D02*
X221422380Y-124203333D01*
X221374761Y-124155714D01*
X221327142Y-124060476D01*
X221327142Y-124012857D01*
X221374761Y-123917619D01*
X221422380Y-123870000D01*
X221517619Y-123822380D01*
X221708095Y-123822380D01*
X221803333Y-123870000D01*
X221850952Y-123917619D01*
X221898571Y-124012857D01*
X221898571Y-124060476D01*
X221850952Y-124155714D01*
X221803333Y-124203333D01*
X221708095Y-124250952D01*
X221517619Y-124250952D01*
X221422380Y-124298571D01*
X221374761Y-124346190D01*
X221327142Y-124441428D01*
X221327142Y-124631904D01*
X221374761Y-124727142D01*
X221422380Y-124774761D01*
X221517619Y-124822380D01*
X221708095Y-124822380D01*
X221803333Y-124774761D01*
X221850952Y-124727142D01*
X221898571Y-124631904D01*
X221898571Y-124441428D01*
X221850952Y-124346190D01*
X221803333Y-124298571D01*
X221708095Y-124250952D01*
X222279523Y-123917619D02*
X222327142Y-123870000D01*
X222422380Y-123822380D01*
X222660476Y-123822380D01*
X222755714Y-123870000D01*
X222803333Y-123917619D01*
X222850952Y-124012857D01*
X222850952Y-124108095D01*
X222803333Y-124250952D01*
X222231904Y-124822380D01*
X222850952Y-124822380D01*
X223850952Y-124727142D02*
X223803333Y-124774761D01*
X223660476Y-124822380D01*
X223565238Y-124822380D01*
X223422380Y-124774761D01*
X223327142Y-124679523D01*
X223279523Y-124584285D01*
X223231904Y-124393809D01*
X223231904Y-124250952D01*
X223279523Y-124060476D01*
X223327142Y-123965238D01*
X223422380Y-123870000D01*
X223565238Y-123822380D01*
X223660476Y-123822380D01*
X223803333Y-123870000D01*
X223850952Y-123917619D01*
X224755714Y-123822380D02*
X224279523Y-123822380D01*
X224231904Y-124298571D01*
X224279523Y-124250952D01*
X224374761Y-124203333D01*
X224612857Y-124203333D01*
X224708095Y-124250952D01*
X224755714Y-124298571D01*
X224803333Y-124393809D01*
X224803333Y-124631904D01*
X224755714Y-124727142D01*
X224708095Y-124774761D01*
X224612857Y-124822380D01*
X224374761Y-124822380D01*
X224279523Y-124774761D01*
X224231904Y-124727142D01*
X225708095Y-123822380D02*
X225231904Y-123822380D01*
X225184285Y-124298571D01*
X225231904Y-124250952D01*
X225327142Y-124203333D01*
X225565238Y-124203333D01*
X225660476Y-124250952D01*
X225708095Y-124298571D01*
X225755714Y-124393809D01*
X225755714Y-124631904D01*
X225708095Y-124727142D01*
X225660476Y-124774761D01*
X225565238Y-124822380D01*
X225327142Y-124822380D01*
X225231904Y-124774761D01*
X225184285Y-124727142D01*
X226136666Y-124536666D02*
X226612857Y-124536666D01*
X226041428Y-124822380D02*
X226374761Y-123822380D01*
X226708095Y-124822380D01*
X227266666Y-50144761D02*
X227409523Y-50192380D01*
X227647619Y-50192380D01*
X227742857Y-50144761D01*
X227790476Y-50097142D01*
X227838095Y-50001904D01*
X227838095Y-49906666D01*
X227790476Y-49811428D01*
X227742857Y-49763809D01*
X227647619Y-49716190D01*
X227457142Y-49668571D01*
X227361904Y-49620952D01*
X227314285Y-49573333D01*
X227266666Y-49478095D01*
X227266666Y-49382857D01*
X227314285Y-49287619D01*
X227361904Y-49240000D01*
X227457142Y-49192380D01*
X227695238Y-49192380D01*
X227838095Y-49240000D01*
X228171428Y-49192380D02*
X228409523Y-50192380D01*
X228600000Y-49478095D01*
X228790476Y-50192380D01*
X229028571Y-49192380D01*
X229361904Y-49287619D02*
X229409523Y-49240000D01*
X229504761Y-49192380D01*
X229742857Y-49192380D01*
X229838095Y-49240000D01*
X229885714Y-49287619D01*
X229933333Y-49382857D01*
X229933333Y-49478095D01*
X229885714Y-49620952D01*
X229314285Y-50192380D01*
X229933333Y-50192380D01*
X211447142Y-66322380D02*
X211113809Y-65846190D01*
X210875714Y-66322380D02*
X210875714Y-65322380D01*
X211256666Y-65322380D01*
X211351904Y-65370000D01*
X211399523Y-65417619D01*
X211447142Y-65512857D01*
X211447142Y-65655714D01*
X211399523Y-65750952D01*
X211351904Y-65798571D01*
X211256666Y-65846190D01*
X210875714Y-65846190D01*
X212399523Y-66322380D02*
X211828095Y-66322380D01*
X212113809Y-66322380D02*
X212113809Y-65322380D01*
X212018571Y-65465238D01*
X211923333Y-65560476D01*
X211828095Y-65608095D01*
X213256666Y-65655714D02*
X213256666Y-66322380D01*
X213018571Y-65274761D02*
X212780476Y-65989047D01*
X213399523Y-65989047D01*
X211447142Y-62512380D02*
X211113809Y-62036190D01*
X210875714Y-62512380D02*
X210875714Y-61512380D01*
X211256666Y-61512380D01*
X211351904Y-61560000D01*
X211399523Y-61607619D01*
X211447142Y-61702857D01*
X211447142Y-61845714D01*
X211399523Y-61940952D01*
X211351904Y-61988571D01*
X211256666Y-62036190D01*
X210875714Y-62036190D01*
X212399523Y-62512380D02*
X211828095Y-62512380D01*
X212113809Y-62512380D02*
X212113809Y-61512380D01*
X212018571Y-61655238D01*
X211923333Y-61750476D01*
X211828095Y-61798095D01*
X212732857Y-61512380D02*
X213351904Y-61512380D01*
X213018571Y-61893333D01*
X213161428Y-61893333D01*
X213256666Y-61940952D01*
X213304285Y-61988571D01*
X213351904Y-62083809D01*
X213351904Y-62321904D01*
X213304285Y-62417142D01*
X213256666Y-62464761D01*
X213161428Y-62512380D01*
X212875714Y-62512380D01*
X212780476Y-62464761D01*
X212732857Y-62417142D01*
X211447142Y-58702380D02*
X211113809Y-58226190D01*
X210875714Y-58702380D02*
X210875714Y-57702380D01*
X211256666Y-57702380D01*
X211351904Y-57750000D01*
X211399523Y-57797619D01*
X211447142Y-57892857D01*
X211447142Y-58035714D01*
X211399523Y-58130952D01*
X211351904Y-58178571D01*
X211256666Y-58226190D01*
X210875714Y-58226190D01*
X212399523Y-58702380D02*
X211828095Y-58702380D01*
X212113809Y-58702380D02*
X212113809Y-57702380D01*
X212018571Y-57845238D01*
X211923333Y-57940476D01*
X211828095Y-57988095D01*
X212780476Y-57797619D02*
X212828095Y-57750000D01*
X212923333Y-57702380D01*
X213161428Y-57702380D01*
X213256666Y-57750000D01*
X213304285Y-57797619D01*
X213351904Y-57892857D01*
X213351904Y-57988095D01*
X213304285Y-58130952D01*
X212732857Y-58702380D01*
X213351904Y-58702380D01*
X211447142Y-54892380D02*
X211113809Y-54416190D01*
X210875714Y-54892380D02*
X210875714Y-53892380D01*
X211256666Y-53892380D01*
X211351904Y-53940000D01*
X211399523Y-53987619D01*
X211447142Y-54082857D01*
X211447142Y-54225714D01*
X211399523Y-54320952D01*
X211351904Y-54368571D01*
X211256666Y-54416190D01*
X210875714Y-54416190D01*
X212399523Y-54892380D02*
X211828095Y-54892380D01*
X212113809Y-54892380D02*
X212113809Y-53892380D01*
X212018571Y-54035238D01*
X211923333Y-54130476D01*
X211828095Y-54178095D01*
X213351904Y-54892380D02*
X212780476Y-54892380D01*
X213066190Y-54892380D02*
X213066190Y-53892380D01*
X212970952Y-54035238D01*
X212875714Y-54130476D01*
X212780476Y-54178095D01*
X243197142Y-70132380D02*
X242863809Y-69656190D01*
X242625714Y-70132380D02*
X242625714Y-69132380D01*
X243006666Y-69132380D01*
X243101904Y-69180000D01*
X243149523Y-69227619D01*
X243197142Y-69322857D01*
X243197142Y-69465714D01*
X243149523Y-69560952D01*
X243101904Y-69608571D01*
X243006666Y-69656190D01*
X242625714Y-69656190D01*
X244149523Y-70132380D02*
X243578095Y-70132380D01*
X243863809Y-70132380D02*
X243863809Y-69132380D01*
X243768571Y-69275238D01*
X243673333Y-69370476D01*
X243578095Y-69418095D01*
X244768571Y-69132380D02*
X244863809Y-69132380D01*
X244959047Y-69180000D01*
X245006666Y-69227619D01*
X245054285Y-69322857D01*
X245101904Y-69513333D01*
X245101904Y-69751428D01*
X245054285Y-69941904D01*
X245006666Y-70037142D01*
X244959047Y-70084761D01*
X244863809Y-70132380D01*
X244768571Y-70132380D01*
X244673333Y-70084761D01*
X244625714Y-70037142D01*
X244578095Y-69941904D01*
X244530476Y-69751428D01*
X244530476Y-69513333D01*
X244578095Y-69322857D01*
X244625714Y-69227619D01*
X244673333Y-69180000D01*
X244768571Y-69132380D01*
X250721904Y-70722380D02*
X250721904Y-69722380D01*
X250960000Y-69722380D01*
X251102857Y-69770000D01*
X251198095Y-69865238D01*
X251245714Y-69960476D01*
X251293333Y-70150952D01*
X251293333Y-70293809D01*
X251245714Y-70484285D01*
X251198095Y-70579523D01*
X251102857Y-70674761D01*
X250960000Y-70722380D01*
X250721904Y-70722380D01*
X251626666Y-69722380D02*
X252245714Y-69722380D01*
X251912380Y-70103333D01*
X252055238Y-70103333D01*
X252150476Y-70150952D01*
X252198095Y-70198571D01*
X252245714Y-70293809D01*
X252245714Y-70531904D01*
X252198095Y-70627142D01*
X252150476Y-70674761D01*
X252055238Y-70722380D01*
X251769523Y-70722380D01*
X251674285Y-70674761D01*
X251626666Y-70627142D01*
X243673333Y-124742380D02*
X243340000Y-124266190D01*
X243101904Y-124742380D02*
X243101904Y-123742380D01*
X243482857Y-123742380D01*
X243578095Y-123790000D01*
X243625714Y-123837619D01*
X243673333Y-123932857D01*
X243673333Y-124075714D01*
X243625714Y-124170952D01*
X243578095Y-124218571D01*
X243482857Y-124266190D01*
X243101904Y-124266190D01*
X244149523Y-124742380D02*
X244340000Y-124742380D01*
X244435238Y-124694761D01*
X244482857Y-124647142D01*
X244578095Y-124504285D01*
X244625714Y-124313809D01*
X244625714Y-123932857D01*
X244578095Y-123837619D01*
X244530476Y-123790000D01*
X244435238Y-123742380D01*
X244244761Y-123742380D01*
X244149523Y-123790000D01*
X244101904Y-123837619D01*
X244054285Y-123932857D01*
X244054285Y-124170952D01*
X244101904Y-124266190D01*
X244149523Y-124313809D01*
X244244761Y-124361428D01*
X244435238Y-124361428D01*
X244530476Y-124313809D01*
X244578095Y-124266190D01*
X244625714Y-124170952D01*
X243673333Y-118392380D02*
X243340000Y-117916190D01*
X243101904Y-118392380D02*
X243101904Y-117392380D01*
X243482857Y-117392380D01*
X243578095Y-117440000D01*
X243625714Y-117487619D01*
X243673333Y-117582857D01*
X243673333Y-117725714D01*
X243625714Y-117820952D01*
X243578095Y-117868571D01*
X243482857Y-117916190D01*
X243101904Y-117916190D01*
X244244761Y-117820952D02*
X244149523Y-117773333D01*
X244101904Y-117725714D01*
X244054285Y-117630476D01*
X244054285Y-117582857D01*
X244101904Y-117487619D01*
X244149523Y-117440000D01*
X244244761Y-117392380D01*
X244435238Y-117392380D01*
X244530476Y-117440000D01*
X244578095Y-117487619D01*
X244625714Y-117582857D01*
X244625714Y-117630476D01*
X244578095Y-117725714D01*
X244530476Y-117773333D01*
X244435238Y-117820952D01*
X244244761Y-117820952D01*
X244149523Y-117868571D01*
X244101904Y-117916190D01*
X244054285Y-118011428D01*
X244054285Y-118201904D01*
X244101904Y-118297142D01*
X244149523Y-118344761D01*
X244244761Y-118392380D01*
X244435238Y-118392380D01*
X244530476Y-118344761D01*
X244578095Y-118297142D01*
X244625714Y-118201904D01*
X244625714Y-118011428D01*
X244578095Y-117916190D01*
X244530476Y-117868571D01*
X244435238Y-117820952D01*
X250721904Y-125332380D02*
X250721904Y-124332380D01*
X250960000Y-124332380D01*
X251102857Y-124380000D01*
X251198095Y-124475238D01*
X251245714Y-124570476D01*
X251293333Y-124760952D01*
X251293333Y-124903809D01*
X251245714Y-125094285D01*
X251198095Y-125189523D01*
X251102857Y-125284761D01*
X250960000Y-125332380D01*
X250721904Y-125332380D01*
X251674285Y-124427619D02*
X251721904Y-124380000D01*
X251817142Y-124332380D01*
X252055238Y-124332380D01*
X252150476Y-124380000D01*
X252198095Y-124427619D01*
X252245714Y-124522857D01*
X252245714Y-124618095D01*
X252198095Y-124760952D01*
X251626666Y-125332380D01*
X252245714Y-125332380D01*
X250721904Y-118982380D02*
X250721904Y-117982380D01*
X250960000Y-117982380D01*
X251102857Y-118030000D01*
X251198095Y-118125238D01*
X251245714Y-118220476D01*
X251293333Y-118410952D01*
X251293333Y-118553809D01*
X251245714Y-118744285D01*
X251198095Y-118839523D01*
X251102857Y-118934761D01*
X250960000Y-118982380D01*
X250721904Y-118982380D01*
X252245714Y-118982380D02*
X251674285Y-118982380D01*
X251960000Y-118982380D02*
X251960000Y-117982380D01*
X251864761Y-118125238D01*
X251769523Y-118220476D01*
X251674285Y-118268095D01*
X197158571Y-131643333D02*
X197158571Y-131976666D01*
X197682380Y-131976666D02*
X196682380Y-131976666D01*
X196682380Y-131500476D01*
X197158571Y-130786190D02*
X197206190Y-130643333D01*
X197253809Y-130595714D01*
X197349047Y-130548095D01*
X197491904Y-130548095D01*
X197587142Y-130595714D01*
X197634761Y-130643333D01*
X197682380Y-130738571D01*
X197682380Y-131119523D01*
X196682380Y-131119523D01*
X196682380Y-130786190D01*
X196730000Y-130690952D01*
X196777619Y-130643333D01*
X196872857Y-130595714D01*
X196968095Y-130595714D01*
X197063333Y-130643333D01*
X197110952Y-130690952D01*
X197158571Y-130786190D01*
X197158571Y-131119523D01*
X197682380Y-129595714D02*
X197682380Y-130167142D01*
X197682380Y-129881428D02*
X196682380Y-129881428D01*
X196825238Y-129976666D01*
X196920476Y-130071904D01*
X196968095Y-130167142D01*
X201017142Y-126147142D02*
X200969523Y-126194761D01*
X200826666Y-126242380D01*
X200731428Y-126242380D01*
X200588571Y-126194761D01*
X200493333Y-126099523D01*
X200445714Y-126004285D01*
X200398095Y-125813809D01*
X200398095Y-125670952D01*
X200445714Y-125480476D01*
X200493333Y-125385238D01*
X200588571Y-125290000D01*
X200731428Y-125242380D01*
X200826666Y-125242380D01*
X200969523Y-125290000D01*
X201017142Y-125337619D01*
X201969523Y-126242380D02*
X201398095Y-126242380D01*
X201683809Y-126242380D02*
X201683809Y-125242380D01*
X201588571Y-125385238D01*
X201493333Y-125480476D01*
X201398095Y-125528095D01*
X202874285Y-125242380D02*
X202398095Y-125242380D01*
X202350476Y-125718571D01*
X202398095Y-125670952D01*
X202493333Y-125623333D01*
X202731428Y-125623333D01*
X202826666Y-125670952D01*
X202874285Y-125718571D01*
X202921904Y-125813809D01*
X202921904Y-126051904D01*
X202874285Y-126147142D01*
X202826666Y-126194761D01*
X202731428Y-126242380D01*
X202493333Y-126242380D01*
X202398095Y-126194761D01*
X202350476Y-126147142D01*
X209417142Y-139052857D02*
X209464761Y-139100476D01*
X209512380Y-139243333D01*
X209512380Y-139338571D01*
X209464761Y-139481428D01*
X209369523Y-139576666D01*
X209274285Y-139624285D01*
X209083809Y-139671904D01*
X208940952Y-139671904D01*
X208750476Y-139624285D01*
X208655238Y-139576666D01*
X208560000Y-139481428D01*
X208512380Y-139338571D01*
X208512380Y-139243333D01*
X208560000Y-139100476D01*
X208607619Y-139052857D01*
X209512380Y-138100476D02*
X209512380Y-138671904D01*
X209512380Y-138386190D02*
X208512380Y-138386190D01*
X208655238Y-138481428D01*
X208750476Y-138576666D01*
X208798095Y-138671904D01*
X208845714Y-137243333D02*
X209512380Y-137243333D01*
X208464761Y-137481428D02*
X209179047Y-137719523D01*
X209179047Y-137100476D01*
X209417142Y-144132857D02*
X209464761Y-144180476D01*
X209512380Y-144323333D01*
X209512380Y-144418571D01*
X209464761Y-144561428D01*
X209369523Y-144656666D01*
X209274285Y-144704285D01*
X209083809Y-144751904D01*
X208940952Y-144751904D01*
X208750476Y-144704285D01*
X208655238Y-144656666D01*
X208560000Y-144561428D01*
X208512380Y-144418571D01*
X208512380Y-144323333D01*
X208560000Y-144180476D01*
X208607619Y-144132857D01*
X209512380Y-143180476D02*
X209512380Y-143751904D01*
X209512380Y-143466190D02*
X208512380Y-143466190D01*
X208655238Y-143561428D01*
X208750476Y-143656666D01*
X208798095Y-143751904D01*
X208512380Y-142323333D02*
X208512380Y-142513809D01*
X208560000Y-142609047D01*
X208607619Y-142656666D01*
X208750476Y-142751904D01*
X208940952Y-142799523D01*
X209321904Y-142799523D01*
X209417142Y-142751904D01*
X209464761Y-142704285D01*
X209512380Y-142609047D01*
X209512380Y-142418571D01*
X209464761Y-142323333D01*
X209417142Y-142275714D01*
X209321904Y-142228095D01*
X209083809Y-142228095D01*
X208988571Y-142275714D01*
X208940952Y-142323333D01*
X208893333Y-142418571D01*
X208893333Y-142609047D01*
X208940952Y-142704285D01*
X208988571Y-142751904D01*
X209083809Y-142799523D01*
X190077142Y-145442857D02*
X190124761Y-145490476D01*
X190172380Y-145633333D01*
X190172380Y-145728571D01*
X190124761Y-145871428D01*
X190029523Y-145966666D01*
X189934285Y-146014285D01*
X189743809Y-146061904D01*
X189600952Y-146061904D01*
X189410476Y-146014285D01*
X189315238Y-145966666D01*
X189220000Y-145871428D01*
X189172380Y-145728571D01*
X189172380Y-145633333D01*
X189220000Y-145490476D01*
X189267619Y-145442857D01*
X190172380Y-144490476D02*
X190172380Y-145061904D01*
X190172380Y-144776190D02*
X189172380Y-144776190D01*
X189315238Y-144871428D01*
X189410476Y-144966666D01*
X189458095Y-145061904D01*
X189172380Y-144157142D02*
X189172380Y-143538095D01*
X189553333Y-143871428D01*
X189553333Y-143728571D01*
X189600952Y-143633333D01*
X189648571Y-143585714D01*
X189743809Y-143538095D01*
X189981904Y-143538095D01*
X190077142Y-143585714D01*
X190124761Y-143633333D01*
X190172380Y-143728571D01*
X190172380Y-144014285D01*
X190124761Y-144109523D01*
X190077142Y-144157142D01*
X247182380Y-137493333D02*
X247896666Y-137493333D01*
X248039523Y-137540952D01*
X248134761Y-137636190D01*
X248182380Y-137779047D01*
X248182380Y-137874285D01*
X247182380Y-137112380D02*
X247182380Y-136493333D01*
X247563333Y-136826666D01*
X247563333Y-136683809D01*
X247610952Y-136588571D01*
X247658571Y-136540952D01*
X247753809Y-136493333D01*
X247991904Y-136493333D01*
X248087142Y-136540952D01*
X248134761Y-136588571D01*
X248182380Y-136683809D01*
X248182380Y-136969523D01*
X248134761Y-137064761D01*
X248087142Y-137112380D01*
X250837142Y-127847142D02*
X250789523Y-127894761D01*
X250646666Y-127942380D01*
X250551428Y-127942380D01*
X250408571Y-127894761D01*
X250313333Y-127799523D01*
X250265714Y-127704285D01*
X250218095Y-127513809D01*
X250218095Y-127370952D01*
X250265714Y-127180476D01*
X250313333Y-127085238D01*
X250408571Y-126990000D01*
X250551428Y-126942380D01*
X250646666Y-126942380D01*
X250789523Y-126990000D01*
X250837142Y-127037619D01*
X251789523Y-127942380D02*
X251218095Y-127942380D01*
X251503809Y-127942380D02*
X251503809Y-126942380D01*
X251408571Y-127085238D01*
X251313333Y-127180476D01*
X251218095Y-127228095D01*
X252408571Y-126942380D02*
X252503809Y-126942380D01*
X252599047Y-126990000D01*
X252646666Y-127037619D01*
X252694285Y-127132857D01*
X252741904Y-127323333D01*
X252741904Y-127561428D01*
X252694285Y-127751904D01*
X252646666Y-127847142D01*
X252599047Y-127894761D01*
X252503809Y-127942380D01*
X252408571Y-127942380D01*
X252313333Y-127894761D01*
X252265714Y-127847142D01*
X252218095Y-127751904D01*
X252170476Y-127561428D01*
X252170476Y-127323333D01*
X252218095Y-127132857D01*
X252265714Y-127037619D01*
X252313333Y-126990000D01*
X252408571Y-126942380D01*
X190077142Y-135242857D02*
X190124761Y-135290476D01*
X190172380Y-135433333D01*
X190172380Y-135528571D01*
X190124761Y-135671428D01*
X190029523Y-135766666D01*
X189934285Y-135814285D01*
X189743809Y-135861904D01*
X189600952Y-135861904D01*
X189410476Y-135814285D01*
X189315238Y-135766666D01*
X189220000Y-135671428D01*
X189172380Y-135528571D01*
X189172380Y-135433333D01*
X189220000Y-135290476D01*
X189267619Y-135242857D01*
X190172380Y-134290476D02*
X190172380Y-134861904D01*
X190172380Y-134576190D02*
X189172380Y-134576190D01*
X189315238Y-134671428D01*
X189410476Y-134766666D01*
X189458095Y-134861904D01*
X189267619Y-133909523D02*
X189220000Y-133861904D01*
X189172380Y-133766666D01*
X189172380Y-133528571D01*
X189220000Y-133433333D01*
X189267619Y-133385714D01*
X189362857Y-133338095D01*
X189458095Y-133338095D01*
X189600952Y-133385714D01*
X190172380Y-133957142D01*
X190172380Y-133338095D01*
X190077142Y-140362857D02*
X190124761Y-140410476D01*
X190172380Y-140553333D01*
X190172380Y-140648571D01*
X190124761Y-140791428D01*
X190029523Y-140886666D01*
X189934285Y-140934285D01*
X189743809Y-140981904D01*
X189600952Y-140981904D01*
X189410476Y-140934285D01*
X189315238Y-140886666D01*
X189220000Y-140791428D01*
X189172380Y-140648571D01*
X189172380Y-140553333D01*
X189220000Y-140410476D01*
X189267619Y-140362857D01*
X190172380Y-139410476D02*
X190172380Y-139981904D01*
X190172380Y-139696190D02*
X189172380Y-139696190D01*
X189315238Y-139791428D01*
X189410476Y-139886666D01*
X189458095Y-139981904D01*
X190172380Y-138458095D02*
X190172380Y-139029523D01*
X190172380Y-138743809D02*
X189172380Y-138743809D01*
X189315238Y-138839047D01*
X189410476Y-138934285D01*
X189458095Y-139029523D01*
X248296666Y-55554761D02*
X248439523Y-55602380D01*
X248677619Y-55602380D01*
X248772857Y-55554761D01*
X248820476Y-55507142D01*
X248868095Y-55411904D01*
X248868095Y-55316666D01*
X248820476Y-55221428D01*
X248772857Y-55173809D01*
X248677619Y-55126190D01*
X248487142Y-55078571D01*
X248391904Y-55030952D01*
X248344285Y-54983333D01*
X248296666Y-54888095D01*
X248296666Y-54792857D01*
X248344285Y-54697619D01*
X248391904Y-54650000D01*
X248487142Y-54602380D01*
X248725238Y-54602380D01*
X248868095Y-54650000D01*
X249201428Y-54602380D02*
X249439523Y-55602380D01*
X249630000Y-54888095D01*
X249820476Y-55602380D01*
X250058571Y-54602380D01*
X250963333Y-55602380D02*
X250391904Y-55602380D01*
X250677619Y-55602380D02*
X250677619Y-54602380D01*
X250582380Y-54745238D01*
X250487142Y-54840476D01*
X250391904Y-54888095D01*
X248677619Y-64302380D02*
X248344285Y-63826190D01*
X248106190Y-64302380D02*
X248106190Y-63302380D01*
X248487142Y-63302380D01*
X248582380Y-63350000D01*
X248630000Y-63397619D01*
X248677619Y-63492857D01*
X248677619Y-63635714D01*
X248630000Y-63730952D01*
X248582380Y-63778571D01*
X248487142Y-63826190D01*
X248106190Y-63826190D01*
X249106190Y-63778571D02*
X249439523Y-63778571D01*
X249582380Y-64302380D02*
X249106190Y-64302380D01*
X249106190Y-63302380D01*
X249582380Y-63302380D01*
X249963333Y-64254761D02*
X250106190Y-64302380D01*
X250344285Y-64302380D01*
X250439523Y-64254761D01*
X250487142Y-64207142D01*
X250534761Y-64111904D01*
X250534761Y-64016666D01*
X250487142Y-63921428D01*
X250439523Y-63873809D01*
X250344285Y-63826190D01*
X250153809Y-63778571D01*
X250058571Y-63730952D01*
X250010952Y-63683333D01*
X249963333Y-63588095D01*
X249963333Y-63492857D01*
X250010952Y-63397619D01*
X250058571Y-63350000D01*
X250153809Y-63302380D01*
X250391904Y-63302380D01*
X250534761Y-63350000D01*
X250963333Y-63778571D02*
X251296666Y-63778571D01*
X251439523Y-64302380D02*
X250963333Y-64302380D01*
X250963333Y-63302380D01*
X251439523Y-63302380D01*
X251725238Y-63302380D02*
X252296666Y-63302380D01*
X252010952Y-64302380D02*
X252010952Y-63302380D01*
X104692380Y-63039523D02*
X105692380Y-62372857D01*
X104692380Y-62372857D02*
X105692380Y-63039523D01*
X105692380Y-61468095D02*
X105692380Y-62039523D01*
X105692380Y-61753809D02*
X104692380Y-61753809D01*
X104835238Y-61849047D01*
X104930476Y-61944285D01*
X104978095Y-62039523D01*
X198628095Y-134172380D02*
X198628095Y-134981904D01*
X198675714Y-135077142D01*
X198723333Y-135124761D01*
X198818571Y-135172380D01*
X199009047Y-135172380D01*
X199104285Y-135124761D01*
X199151904Y-135077142D01*
X199199523Y-134981904D01*
X199199523Y-134172380D01*
X199723333Y-135172380D02*
X199913809Y-135172380D01*
X200009047Y-135124761D01*
X200056666Y-135077142D01*
X200151904Y-134934285D01*
X200199523Y-134743809D01*
X200199523Y-134362857D01*
X200151904Y-134267619D01*
X200104285Y-134220000D01*
X200009047Y-134172380D01*
X199818571Y-134172380D01*
X199723333Y-134220000D01*
X199675714Y-134267619D01*
X199628095Y-134362857D01*
X199628095Y-134600952D01*
X199675714Y-134696190D01*
X199723333Y-134743809D01*
X199818571Y-134791428D01*
X200009047Y-134791428D01*
X200104285Y-134743809D01*
X200151904Y-134696190D01*
X200199523Y-134600952D01*
X112692380Y-57911904D02*
X113501904Y-57911904D01*
X113597142Y-57864285D01*
X113644761Y-57816666D01*
X113692380Y-57721428D01*
X113692380Y-57530952D01*
X113644761Y-57435714D01*
X113597142Y-57388095D01*
X113501904Y-57340476D01*
X112692380Y-57340476D01*
X112692380Y-56388095D02*
X112692380Y-56864285D01*
X113168571Y-56911904D01*
X113120952Y-56864285D01*
X113073333Y-56769047D01*
X113073333Y-56530952D01*
X113120952Y-56435714D01*
X113168571Y-56388095D01*
X113263809Y-56340476D01*
X113501904Y-56340476D01*
X113597142Y-56388095D01*
X113644761Y-56435714D01*
X113692380Y-56530952D01*
X113692380Y-56769047D01*
X113644761Y-56864285D01*
X113597142Y-56911904D01*
X139362380Y-57911904D02*
X140171904Y-57911904D01*
X140267142Y-57864285D01*
X140314761Y-57816666D01*
X140362380Y-57721428D01*
X140362380Y-57530952D01*
X140314761Y-57435714D01*
X140267142Y-57388095D01*
X140171904Y-57340476D01*
X139362380Y-57340476D01*
X139695714Y-56435714D02*
X140362380Y-56435714D01*
X139314761Y-56673809D02*
X140029047Y-56911904D01*
X140029047Y-56292857D01*
X171958095Y-70782380D02*
X171958095Y-71591904D01*
X172005714Y-71687142D01*
X172053333Y-71734761D01*
X172148571Y-71782380D01*
X172339047Y-71782380D01*
X172434285Y-71734761D01*
X172481904Y-71687142D01*
X172529523Y-71591904D01*
X172529523Y-70782380D01*
X172910476Y-70782380D02*
X173529523Y-70782380D01*
X173196190Y-71163333D01*
X173339047Y-71163333D01*
X173434285Y-71210952D01*
X173481904Y-71258571D01*
X173529523Y-71353809D01*
X173529523Y-71591904D01*
X173481904Y-71687142D01*
X173434285Y-71734761D01*
X173339047Y-71782380D01*
X173053333Y-71782380D01*
X172958095Y-71734761D01*
X172910476Y-71687142D01*
X166600952Y-109176666D02*
X167077142Y-109176666D01*
X166505714Y-109462380D02*
X166839047Y-108462380D01*
X167172380Y-109462380D01*
X167362857Y-108462380D02*
X167934285Y-108462380D01*
X167648571Y-109462380D02*
X167648571Y-108462380D01*
X168220000Y-108557619D02*
X168267619Y-108510000D01*
X168362857Y-108462380D01*
X168600952Y-108462380D01*
X168696190Y-108510000D01*
X168743809Y-108557619D01*
X168791428Y-108652857D01*
X168791428Y-108748095D01*
X168743809Y-108890952D01*
X168172380Y-109462380D01*
X168791428Y-109462380D01*
X169362857Y-108890952D02*
X169267619Y-108843333D01*
X169220000Y-108795714D01*
X169172380Y-108700476D01*
X169172380Y-108652857D01*
X169220000Y-108557619D01*
X169267619Y-108510000D01*
X169362857Y-108462380D01*
X169553333Y-108462380D01*
X169648571Y-108510000D01*
X169696190Y-108557619D01*
X169743809Y-108652857D01*
X169743809Y-108700476D01*
X169696190Y-108795714D01*
X169648571Y-108843333D01*
X169553333Y-108890952D01*
X169362857Y-108890952D01*
X169267619Y-108938571D01*
X169220000Y-108986190D01*
X169172380Y-109081428D01*
X169172380Y-109271904D01*
X169220000Y-109367142D01*
X169267619Y-109414761D01*
X169362857Y-109462380D01*
X169553333Y-109462380D01*
X169648571Y-109414761D01*
X169696190Y-109367142D01*
X169743809Y-109271904D01*
X169743809Y-109081428D01*
X169696190Y-108986190D01*
X169648571Y-108938571D01*
X169553333Y-108890952D01*
X170743809Y-109367142D02*
X170696190Y-109414761D01*
X170553333Y-109462380D01*
X170458095Y-109462380D01*
X170315238Y-109414761D01*
X170220000Y-109319523D01*
X170172380Y-109224285D01*
X170124761Y-109033809D01*
X170124761Y-108890952D01*
X170172380Y-108700476D01*
X170220000Y-108605238D01*
X170315238Y-108510000D01*
X170458095Y-108462380D01*
X170553333Y-108462380D01*
X170696190Y-108510000D01*
X170743809Y-108557619D01*
X171600952Y-108462380D02*
X171410476Y-108462380D01*
X171315238Y-108510000D01*
X171267619Y-108557619D01*
X171172380Y-108700476D01*
X171124761Y-108890952D01*
X171124761Y-109271904D01*
X171172380Y-109367142D01*
X171220000Y-109414761D01*
X171315238Y-109462380D01*
X171505714Y-109462380D01*
X171600952Y-109414761D01*
X171648571Y-109367142D01*
X171696190Y-109271904D01*
X171696190Y-109033809D01*
X171648571Y-108938571D01*
X171600952Y-108890952D01*
X171505714Y-108843333D01*
X171315238Y-108843333D01*
X171220000Y-108890952D01*
X171172380Y-108938571D01*
X171124761Y-109033809D01*
X172553333Y-108795714D02*
X172553333Y-109462380D01*
X172315238Y-108414761D02*
X172077142Y-109129047D01*
X172696190Y-109129047D01*
X173410476Y-108938571D02*
X173553333Y-108986190D01*
X173600952Y-109033809D01*
X173648571Y-109129047D01*
X173648571Y-109271904D01*
X173600952Y-109367142D01*
X173553333Y-109414761D01*
X173458095Y-109462380D01*
X173077142Y-109462380D01*
X173077142Y-108462380D01*
X173410476Y-108462380D01*
X173505714Y-108510000D01*
X173553333Y-108557619D01*
X173600952Y-108652857D01*
X173600952Y-108748095D01*
X173553333Y-108843333D01*
X173505714Y-108890952D01*
X173410476Y-108938571D01*
X173077142Y-108938571D01*
X174077142Y-109081428D02*
X174839047Y-109081428D01*
X175839047Y-109462380D02*
X175267619Y-109462380D01*
X175553333Y-109462380D02*
X175553333Y-108462380D01*
X175458095Y-108605238D01*
X175362857Y-108700476D01*
X175267619Y-108748095D01*
X176743809Y-108462380D02*
X176267619Y-108462380D01*
X176220000Y-108938571D01*
X176267619Y-108890952D01*
X176362857Y-108843333D01*
X176600952Y-108843333D01*
X176696190Y-108890952D01*
X176743809Y-108938571D01*
X176791428Y-109033809D01*
X176791428Y-109271904D01*
X176743809Y-109367142D01*
X176696190Y-109414761D01*
X176600952Y-109462380D01*
X176362857Y-109462380D01*
X176267619Y-109414761D01*
X176220000Y-109367142D01*
X177220000Y-109462380D02*
X177220000Y-108462380D01*
X177600952Y-108462380D01*
X177696190Y-108510000D01*
X177743809Y-108557619D01*
X177791428Y-108652857D01*
X177791428Y-108795714D01*
X177743809Y-108890952D01*
X177696190Y-108938571D01*
X177600952Y-108986190D01*
X177220000Y-108986190D01*
X178220000Y-108462380D02*
X178220000Y-109271904D01*
X178267619Y-109367142D01*
X178315238Y-109414761D01*
X178410476Y-109462380D01*
X178600952Y-109462380D01*
X178696190Y-109414761D01*
X178743809Y-109367142D01*
X178791428Y-109271904D01*
X178791428Y-108462380D01*
X146558095Y-70782380D02*
X146558095Y-71591904D01*
X146605714Y-71687142D01*
X146653333Y-71734761D01*
X146748571Y-71782380D01*
X146939047Y-71782380D01*
X147034285Y-71734761D01*
X147081904Y-71687142D01*
X147129523Y-71591904D01*
X147129523Y-70782380D01*
X147558095Y-70877619D02*
X147605714Y-70830000D01*
X147700952Y-70782380D01*
X147939047Y-70782380D01*
X148034285Y-70830000D01*
X148081904Y-70877619D01*
X148129523Y-70972857D01*
X148129523Y-71068095D01*
X148081904Y-71210952D01*
X147510476Y-71782380D01*
X148129523Y-71782380D01*
X142915238Y-108462380D02*
X143486666Y-108462380D01*
X143200952Y-109462380D02*
X143200952Y-108462380D01*
X144391428Y-109367142D02*
X144343809Y-109414761D01*
X144200952Y-109462380D01*
X144105714Y-109462380D01*
X143962857Y-109414761D01*
X143867619Y-109319523D01*
X143820000Y-109224285D01*
X143772380Y-109033809D01*
X143772380Y-108890952D01*
X143820000Y-108700476D01*
X143867619Y-108605238D01*
X143962857Y-108510000D01*
X144105714Y-108462380D01*
X144200952Y-108462380D01*
X144343809Y-108510000D01*
X144391428Y-108557619D01*
X145296190Y-108462380D02*
X144820000Y-108462380D01*
X144772380Y-108938571D01*
X144820000Y-108890952D01*
X144915238Y-108843333D01*
X145153333Y-108843333D01*
X145248571Y-108890952D01*
X145296190Y-108938571D01*
X145343809Y-109033809D01*
X145343809Y-109271904D01*
X145296190Y-109367142D01*
X145248571Y-109414761D01*
X145153333Y-109462380D01*
X144915238Y-109462380D01*
X144820000Y-109414761D01*
X144772380Y-109367142D01*
X146248571Y-108462380D02*
X145772380Y-108462380D01*
X145724761Y-108938571D01*
X145772380Y-108890952D01*
X145867619Y-108843333D01*
X146105714Y-108843333D01*
X146200952Y-108890952D01*
X146248571Y-108938571D01*
X146296190Y-109033809D01*
X146296190Y-109271904D01*
X146248571Y-109367142D01*
X146200952Y-109414761D01*
X146105714Y-109462380D01*
X145867619Y-109462380D01*
X145772380Y-109414761D01*
X145724761Y-109367142D01*
X146677142Y-108557619D02*
X146724761Y-108510000D01*
X146820000Y-108462380D01*
X147058095Y-108462380D01*
X147153333Y-108510000D01*
X147200952Y-108557619D01*
X147248571Y-108652857D01*
X147248571Y-108748095D01*
X147200952Y-108890952D01*
X146629523Y-109462380D01*
X147248571Y-109462380D01*
X148153333Y-108462380D02*
X147677142Y-108462380D01*
X147629523Y-108938571D01*
X147677142Y-108890952D01*
X147772380Y-108843333D01*
X148010476Y-108843333D01*
X148105714Y-108890952D01*
X148153333Y-108938571D01*
X148200952Y-109033809D01*
X148200952Y-109271904D01*
X148153333Y-109367142D01*
X148105714Y-109414761D01*
X148010476Y-109462380D01*
X147772380Y-109462380D01*
X147677142Y-109414761D01*
X147629523Y-109367142D01*
X148534285Y-108462380D02*
X149200952Y-108462380D01*
X148772380Y-109462380D01*
X150153333Y-109367142D02*
X150105714Y-109414761D01*
X149962857Y-109462380D01*
X149867619Y-109462380D01*
X149724761Y-109414761D01*
X149629523Y-109319523D01*
X149581904Y-109224285D01*
X149534285Y-109033809D01*
X149534285Y-108890952D01*
X149581904Y-108700476D01*
X149629523Y-108605238D01*
X149724761Y-108510000D01*
X149867619Y-108462380D01*
X149962857Y-108462380D01*
X150105714Y-108510000D01*
X150153333Y-108557619D01*
X150581904Y-109462380D02*
X150581904Y-108462380D01*
X150962857Y-108462380D01*
X151058095Y-108510000D01*
X151105714Y-108557619D01*
X151153333Y-108652857D01*
X151153333Y-108795714D01*
X151105714Y-108890952D01*
X151058095Y-108938571D01*
X150962857Y-108986190D01*
X150581904Y-108986190D01*
X151581904Y-109462380D02*
X151581904Y-108462380D01*
X117348095Y-70782380D02*
X117348095Y-71591904D01*
X117395714Y-71687142D01*
X117443333Y-71734761D01*
X117538571Y-71782380D01*
X117729047Y-71782380D01*
X117824285Y-71734761D01*
X117871904Y-71687142D01*
X117919523Y-71591904D01*
X117919523Y-70782380D01*
X118919523Y-71782380D02*
X118348095Y-71782380D01*
X118633809Y-71782380D02*
X118633809Y-70782380D01*
X118538571Y-70925238D01*
X118443333Y-71020476D01*
X118348095Y-71068095D01*
X115300476Y-123702380D02*
X115967142Y-123702380D01*
X115300476Y-124702380D01*
X115967142Y-124702380D01*
X116490952Y-124130952D02*
X116395714Y-124083333D01*
X116348095Y-124035714D01*
X116300476Y-123940476D01*
X116300476Y-123892857D01*
X116348095Y-123797619D01*
X116395714Y-123750000D01*
X116490952Y-123702380D01*
X116681428Y-123702380D01*
X116776666Y-123750000D01*
X116824285Y-123797619D01*
X116871904Y-123892857D01*
X116871904Y-123940476D01*
X116824285Y-124035714D01*
X116776666Y-124083333D01*
X116681428Y-124130952D01*
X116490952Y-124130952D01*
X116395714Y-124178571D01*
X116348095Y-124226190D01*
X116300476Y-124321428D01*
X116300476Y-124511904D01*
X116348095Y-124607142D01*
X116395714Y-124654761D01*
X116490952Y-124702380D01*
X116681428Y-124702380D01*
X116776666Y-124654761D01*
X116824285Y-124607142D01*
X116871904Y-124511904D01*
X116871904Y-124321428D01*
X116824285Y-124226190D01*
X116776666Y-124178571D01*
X116681428Y-124130952D01*
X117490952Y-123702380D02*
X117586190Y-123702380D01*
X117681428Y-123750000D01*
X117729047Y-123797619D01*
X117776666Y-123892857D01*
X117824285Y-124083333D01*
X117824285Y-124321428D01*
X117776666Y-124511904D01*
X117729047Y-124607142D01*
X117681428Y-124654761D01*
X117586190Y-124702380D01*
X117490952Y-124702380D01*
X117395714Y-124654761D01*
X117348095Y-124607142D01*
X117300476Y-124511904D01*
X117252857Y-124321428D01*
X117252857Y-124083333D01*
X117300476Y-123892857D01*
X117348095Y-123797619D01*
X117395714Y-123750000D01*
X117490952Y-123702380D01*
X118824285Y-124607142D02*
X118776666Y-124654761D01*
X118633809Y-124702380D01*
X118538571Y-124702380D01*
X118395714Y-124654761D01*
X118300476Y-124559523D01*
X118252857Y-124464285D01*
X118205238Y-124273809D01*
X118205238Y-124130952D01*
X118252857Y-123940476D01*
X118300476Y-123845238D01*
X118395714Y-123750000D01*
X118538571Y-123702380D01*
X118633809Y-123702380D01*
X118776666Y-123750000D01*
X118824285Y-123797619D01*
X119252857Y-124702380D02*
X119252857Y-123702380D01*
X119633809Y-123702380D01*
X119729047Y-123750000D01*
X119776666Y-123797619D01*
X119824285Y-123892857D01*
X119824285Y-124035714D01*
X119776666Y-124130952D01*
X119729047Y-124178571D01*
X119633809Y-124226190D01*
X119252857Y-124226190D01*
X120252857Y-123702380D02*
X120252857Y-124511904D01*
X120300476Y-124607142D01*
X120348095Y-124654761D01*
X120443333Y-124702380D01*
X120633809Y-124702380D01*
X120729047Y-124654761D01*
X120776666Y-124607142D01*
X120824285Y-124511904D01*
X120824285Y-123702380D01*
X84442380Y-133216666D02*
X83966190Y-133550000D01*
X84442380Y-133788095D02*
X83442380Y-133788095D01*
X83442380Y-133407142D01*
X83490000Y-133311904D01*
X83537619Y-133264285D01*
X83632857Y-133216666D01*
X83775714Y-133216666D01*
X83870952Y-133264285D01*
X83918571Y-133311904D01*
X83966190Y-133407142D01*
X83966190Y-133788095D01*
X83442380Y-132359523D02*
X83442380Y-132550000D01*
X83490000Y-132645238D01*
X83537619Y-132692857D01*
X83680476Y-132788095D01*
X83870952Y-132835714D01*
X84251904Y-132835714D01*
X84347142Y-132788095D01*
X84394761Y-132740476D01*
X84442380Y-132645238D01*
X84442380Y-132454761D01*
X84394761Y-132359523D01*
X84347142Y-132311904D01*
X84251904Y-132264285D01*
X84013809Y-132264285D01*
X83918571Y-132311904D01*
X83870952Y-132359523D01*
X83823333Y-132454761D01*
X83823333Y-132645238D01*
X83870952Y-132740476D01*
X83918571Y-132788095D01*
X84013809Y-132835714D01*
X89522380Y-133216666D02*
X89046190Y-133550000D01*
X89522380Y-133788095D02*
X88522380Y-133788095D01*
X88522380Y-133407142D01*
X88570000Y-133311904D01*
X88617619Y-133264285D01*
X88712857Y-133216666D01*
X88855714Y-133216666D01*
X88950952Y-133264285D01*
X88998571Y-133311904D01*
X89046190Y-133407142D01*
X89046190Y-133788095D01*
X88522380Y-132311904D02*
X88522380Y-132788095D01*
X88998571Y-132835714D01*
X88950952Y-132788095D01*
X88903333Y-132692857D01*
X88903333Y-132454761D01*
X88950952Y-132359523D01*
X88998571Y-132311904D01*
X89093809Y-132264285D01*
X89331904Y-132264285D01*
X89427142Y-132311904D01*
X89474761Y-132359523D01*
X89522380Y-132454761D01*
X89522380Y-132692857D01*
X89474761Y-132788095D01*
X89427142Y-132835714D01*
X94602380Y-133216666D02*
X94126190Y-133550000D01*
X94602380Y-133788095D02*
X93602380Y-133788095D01*
X93602380Y-133407142D01*
X93650000Y-133311904D01*
X93697619Y-133264285D01*
X93792857Y-133216666D01*
X93935714Y-133216666D01*
X94030952Y-133264285D01*
X94078571Y-133311904D01*
X94126190Y-133407142D01*
X94126190Y-133788095D01*
X93935714Y-132359523D02*
X94602380Y-132359523D01*
X93554761Y-132597619D02*
X94269047Y-132835714D01*
X94269047Y-132216666D01*
X175093333Y-55232380D02*
X174760000Y-54756190D01*
X174521904Y-55232380D02*
X174521904Y-54232380D01*
X174902857Y-54232380D01*
X174998095Y-54280000D01*
X175045714Y-54327619D01*
X175093333Y-54422857D01*
X175093333Y-54565714D01*
X175045714Y-54660952D01*
X174998095Y-54708571D01*
X174902857Y-54756190D01*
X174521904Y-54756190D01*
X175426666Y-54232380D02*
X176045714Y-54232380D01*
X175712380Y-54613333D01*
X175855238Y-54613333D01*
X175950476Y-54660952D01*
X175998095Y-54708571D01*
X176045714Y-54803809D01*
X176045714Y-55041904D01*
X175998095Y-55137142D01*
X175950476Y-55184761D01*
X175855238Y-55232380D01*
X175569523Y-55232380D01*
X175474285Y-55184761D01*
X175426666Y-55137142D01*
X175093333Y-50152380D02*
X174760000Y-49676190D01*
X174521904Y-50152380D02*
X174521904Y-49152380D01*
X174902857Y-49152380D01*
X174998095Y-49200000D01*
X175045714Y-49247619D01*
X175093333Y-49342857D01*
X175093333Y-49485714D01*
X175045714Y-49580952D01*
X174998095Y-49628571D01*
X174902857Y-49676190D01*
X174521904Y-49676190D01*
X175474285Y-49247619D02*
X175521904Y-49200000D01*
X175617142Y-49152380D01*
X175855238Y-49152380D01*
X175950476Y-49200000D01*
X175998095Y-49247619D01*
X176045714Y-49342857D01*
X176045714Y-49438095D01*
X175998095Y-49580952D01*
X175426666Y-50152380D01*
X176045714Y-50152380D01*
X79676666Y-70572380D02*
X79676666Y-71286666D01*
X79629047Y-71429523D01*
X79533809Y-71524761D01*
X79390952Y-71572380D01*
X79295714Y-71572380D01*
X80676666Y-71572380D02*
X80105238Y-71572380D01*
X80390952Y-71572380D02*
X80390952Y-70572380D01*
X80295714Y-70715238D01*
X80200476Y-70810476D01*
X80105238Y-70858095D01*
X204263333Y-67707142D02*
X204215714Y-67754761D01*
X204072857Y-67802380D01*
X203977619Y-67802380D01*
X203834761Y-67754761D01*
X203739523Y-67659523D01*
X203691904Y-67564285D01*
X203644285Y-67373809D01*
X203644285Y-67230952D01*
X203691904Y-67040476D01*
X203739523Y-66945238D01*
X203834761Y-66850000D01*
X203977619Y-66802380D01*
X204072857Y-66802380D01*
X204215714Y-66850000D01*
X204263333Y-66897619D01*
X204739523Y-67802380D02*
X204930000Y-67802380D01*
X205025238Y-67754761D01*
X205072857Y-67707142D01*
X205168095Y-67564285D01*
X205215714Y-67373809D01*
X205215714Y-66992857D01*
X205168095Y-66897619D01*
X205120476Y-66850000D01*
X205025238Y-66802380D01*
X204834761Y-66802380D01*
X204739523Y-66850000D01*
X204691904Y-66897619D01*
X204644285Y-66992857D01*
X204644285Y-67230952D01*
X204691904Y-67326190D01*
X204739523Y-67373809D01*
X204834761Y-67421428D01*
X205025238Y-67421428D01*
X205120476Y-67373809D01*
X205168095Y-67326190D01*
X205215714Y-67230952D01*
X219583333Y-67707142D02*
X219535714Y-67754761D01*
X219392857Y-67802380D01*
X219297619Y-67802380D01*
X219154761Y-67754761D01*
X219059523Y-67659523D01*
X219011904Y-67564285D01*
X218964285Y-67373809D01*
X218964285Y-67230952D01*
X219011904Y-67040476D01*
X219059523Y-66945238D01*
X219154761Y-66850000D01*
X219297619Y-66802380D01*
X219392857Y-66802380D01*
X219535714Y-66850000D01*
X219583333Y-66897619D01*
X220154761Y-67230952D02*
X220059523Y-67183333D01*
X220011904Y-67135714D01*
X219964285Y-67040476D01*
X219964285Y-66992857D01*
X220011904Y-66897619D01*
X220059523Y-66850000D01*
X220154761Y-66802380D01*
X220345238Y-66802380D01*
X220440476Y-66850000D01*
X220488095Y-66897619D01*
X220535714Y-66992857D01*
X220535714Y-67040476D01*
X220488095Y-67135714D01*
X220440476Y-67183333D01*
X220345238Y-67230952D01*
X220154761Y-67230952D01*
X220059523Y-67278571D01*
X220011904Y-67326190D01*
X219964285Y-67421428D01*
X219964285Y-67611904D01*
X220011904Y-67707142D01*
X220059523Y-67754761D01*
X220154761Y-67802380D01*
X220345238Y-67802380D01*
X220440476Y-67754761D01*
X220488095Y-67707142D01*
X220535714Y-67611904D01*
X220535714Y-67421428D01*
X220488095Y-67326190D01*
X220440476Y-67278571D01*
X220345238Y-67230952D01*
X100123333Y-51197142D02*
X100075714Y-51244761D01*
X99932857Y-51292380D01*
X99837619Y-51292380D01*
X99694761Y-51244761D01*
X99599523Y-51149523D01*
X99551904Y-51054285D01*
X99504285Y-50863809D01*
X99504285Y-50720952D01*
X99551904Y-50530476D01*
X99599523Y-50435238D01*
X99694761Y-50340000D01*
X99837619Y-50292380D01*
X99932857Y-50292380D01*
X100075714Y-50340000D01*
X100123333Y-50387619D01*
X100456666Y-50292380D02*
X101123333Y-50292380D01*
X100694761Y-51292380D01*
X177673333Y-65087142D02*
X177625714Y-65134761D01*
X177482857Y-65182380D01*
X177387619Y-65182380D01*
X177244761Y-65134761D01*
X177149523Y-65039523D01*
X177101904Y-64944285D01*
X177054285Y-64753809D01*
X177054285Y-64610952D01*
X177101904Y-64420476D01*
X177149523Y-64325238D01*
X177244761Y-64230000D01*
X177387619Y-64182380D01*
X177482857Y-64182380D01*
X177625714Y-64230000D01*
X177673333Y-64277619D01*
X178530476Y-64182380D02*
X178340000Y-64182380D01*
X178244761Y-64230000D01*
X178197142Y-64277619D01*
X178101904Y-64420476D01*
X178054285Y-64610952D01*
X178054285Y-64991904D01*
X178101904Y-65087142D01*
X178149523Y-65134761D01*
X178244761Y-65182380D01*
X178435238Y-65182380D01*
X178530476Y-65134761D01*
X178578095Y-65087142D01*
X178625714Y-64991904D01*
X178625714Y-64753809D01*
X178578095Y-64658571D01*
X178530476Y-64610952D01*
X178435238Y-64563333D01*
X178244761Y-64563333D01*
X178149523Y-64610952D01*
X178101904Y-64658571D01*
X178054285Y-64753809D01*
X108347142Y-56086666D02*
X108394761Y-56134285D01*
X108442380Y-56277142D01*
X108442380Y-56372380D01*
X108394761Y-56515238D01*
X108299523Y-56610476D01*
X108204285Y-56658095D01*
X108013809Y-56705714D01*
X107870952Y-56705714D01*
X107680476Y-56658095D01*
X107585238Y-56610476D01*
X107490000Y-56515238D01*
X107442380Y-56372380D01*
X107442380Y-56277142D01*
X107490000Y-56134285D01*
X107537619Y-56086666D01*
X107442380Y-55181904D02*
X107442380Y-55658095D01*
X107918571Y-55705714D01*
X107870952Y-55658095D01*
X107823333Y-55562857D01*
X107823333Y-55324761D01*
X107870952Y-55229523D01*
X107918571Y-55181904D01*
X108013809Y-55134285D01*
X108251904Y-55134285D01*
X108347142Y-55181904D01*
X108394761Y-55229523D01*
X108442380Y-55324761D01*
X108442380Y-55562857D01*
X108394761Y-55658095D01*
X108347142Y-55705714D01*
X135017142Y-56086666D02*
X135064761Y-56134285D01*
X135112380Y-56277142D01*
X135112380Y-56372380D01*
X135064761Y-56515238D01*
X134969523Y-56610476D01*
X134874285Y-56658095D01*
X134683809Y-56705714D01*
X134540952Y-56705714D01*
X134350476Y-56658095D01*
X134255238Y-56610476D01*
X134160000Y-56515238D01*
X134112380Y-56372380D01*
X134112380Y-56277142D01*
X134160000Y-56134285D01*
X134207619Y-56086666D01*
X134445714Y-55229523D02*
X135112380Y-55229523D01*
X134064761Y-55467619D02*
X134779047Y-55705714D01*
X134779047Y-55086666D01*
X177673333Y-67707142D02*
X177625714Y-67754761D01*
X177482857Y-67802380D01*
X177387619Y-67802380D01*
X177244761Y-67754761D01*
X177149523Y-67659523D01*
X177101904Y-67564285D01*
X177054285Y-67373809D01*
X177054285Y-67230952D01*
X177101904Y-67040476D01*
X177149523Y-66945238D01*
X177244761Y-66850000D01*
X177387619Y-66802380D01*
X177482857Y-66802380D01*
X177625714Y-66850000D01*
X177673333Y-66897619D01*
X178006666Y-66802380D02*
X178625714Y-66802380D01*
X178292380Y-67183333D01*
X178435238Y-67183333D01*
X178530476Y-67230952D01*
X178578095Y-67278571D01*
X178625714Y-67373809D01*
X178625714Y-67611904D01*
X178578095Y-67707142D01*
X178530476Y-67754761D01*
X178435238Y-67802380D01*
X178149523Y-67802380D01*
X178054285Y-67754761D01*
X178006666Y-67707142D01*
X152193333Y-67707142D02*
X152145714Y-67754761D01*
X152002857Y-67802380D01*
X151907619Y-67802380D01*
X151764761Y-67754761D01*
X151669523Y-67659523D01*
X151621904Y-67564285D01*
X151574285Y-67373809D01*
X151574285Y-67230952D01*
X151621904Y-67040476D01*
X151669523Y-66945238D01*
X151764761Y-66850000D01*
X151907619Y-66802380D01*
X152002857Y-66802380D01*
X152145714Y-66850000D01*
X152193333Y-66897619D01*
X152574285Y-66897619D02*
X152621904Y-66850000D01*
X152717142Y-66802380D01*
X152955238Y-66802380D01*
X153050476Y-66850000D01*
X153098095Y-66897619D01*
X153145714Y-66992857D01*
X153145714Y-67088095D01*
X153098095Y-67230952D01*
X152526666Y-67802380D01*
X153145714Y-67802380D01*
X112823333Y-67707142D02*
X112775714Y-67754761D01*
X112632857Y-67802380D01*
X112537619Y-67802380D01*
X112394761Y-67754761D01*
X112299523Y-67659523D01*
X112251904Y-67564285D01*
X112204285Y-67373809D01*
X112204285Y-67230952D01*
X112251904Y-67040476D01*
X112299523Y-66945238D01*
X112394761Y-66850000D01*
X112537619Y-66802380D01*
X112632857Y-66802380D01*
X112775714Y-66850000D01*
X112823333Y-66897619D01*
X113775714Y-67802380D02*
X113204285Y-67802380D01*
X113490000Y-67802380D02*
X113490000Y-66802380D01*
X113394761Y-66945238D01*
X113299523Y-67040476D01*
X113204285Y-67088095D01*
M02*
