G04 #@! TF.GenerationSoftware,KiCad,Pcbnew,(5.1.4)-1*
G04 #@! TF.CreationDate,2020-06-08T02:01:47+02:00*
G04 #@! TF.ProjectId,Z80Mini,5a38304d-696e-4692-9e6b-696361645f70,rev?*
G04 #@! TF.SameCoordinates,Original*
G04 #@! TF.FileFunction,Legend,Top*
G04 #@! TF.FilePolarity,Positive*
%FSLAX46Y46*%
G04 Gerber Fmt 4.6, Leading zero omitted, Abs format (unit mm)*
G04 Created by KiCad (PCBNEW (5.1.4)-1) date 2020-06-08 02:01:47*
%MOMM*%
%LPD*%
G04 APERTURE LIST*
%ADD10C,0.300000*%
%ADD11C,0.150000*%
%ADD12C,0.120000*%
G04 APERTURE END LIST*
D10*
X191662857Y-138767142D02*
X191662857Y-138267142D01*
X192448571Y-138052857D02*
X192448571Y-138767142D01*
X190948571Y-138767142D01*
X190948571Y-138052857D01*
X190948571Y-137552857D02*
X192448571Y-136552857D01*
X190948571Y-136552857D02*
X192448571Y-137552857D01*
X190948571Y-136195714D02*
X190948571Y-135338571D01*
X192448571Y-135767142D02*
X190948571Y-135767142D01*
X185868571Y-139052857D02*
X187082857Y-139052857D01*
X187225714Y-138981428D01*
X187297142Y-138910000D01*
X187368571Y-138767142D01*
X187368571Y-138481428D01*
X187297142Y-138338571D01*
X187225714Y-138267142D01*
X187082857Y-138195714D01*
X185868571Y-138195714D01*
X187297142Y-137552857D02*
X187368571Y-137338571D01*
X187368571Y-136981428D01*
X187297142Y-136838571D01*
X187225714Y-136767142D01*
X187082857Y-136695714D01*
X186940000Y-136695714D01*
X186797142Y-136767142D01*
X186725714Y-136838571D01*
X186654285Y-136981428D01*
X186582857Y-137267142D01*
X186511428Y-137410000D01*
X186440000Y-137481428D01*
X186297142Y-137552857D01*
X186154285Y-137552857D01*
X186011428Y-137481428D01*
X185940000Y-137410000D01*
X185868571Y-137267142D01*
X185868571Y-136910000D01*
X185940000Y-136695714D01*
X186582857Y-135552857D02*
X186654285Y-135338571D01*
X186725714Y-135267142D01*
X186868571Y-135195714D01*
X187082857Y-135195714D01*
X187225714Y-135267142D01*
X187297142Y-135338571D01*
X187368571Y-135481428D01*
X187368571Y-136052857D01*
X185868571Y-136052857D01*
X185868571Y-135552857D01*
X185940000Y-135410000D01*
X186011428Y-135338571D01*
X186154285Y-135267142D01*
X186297142Y-135267142D01*
X186440000Y-135338571D01*
X186511428Y-135410000D01*
X186582857Y-135552857D01*
X186582857Y-136052857D01*
D11*
X170862857Y-109227380D02*
X170862857Y-108227380D01*
X171243809Y-108227380D01*
X171339047Y-108275000D01*
X171386666Y-108322619D01*
X171434285Y-108417857D01*
X171434285Y-108560714D01*
X171386666Y-108655952D01*
X171339047Y-108703571D01*
X171243809Y-108751190D01*
X170862857Y-108751190D01*
X172434285Y-109227380D02*
X172100952Y-108751190D01*
X171862857Y-109227380D02*
X171862857Y-108227380D01*
X172243809Y-108227380D01*
X172339047Y-108275000D01*
X172386666Y-108322619D01*
X172434285Y-108417857D01*
X172434285Y-108560714D01*
X172386666Y-108655952D01*
X172339047Y-108703571D01*
X172243809Y-108751190D01*
X171862857Y-108751190D01*
X173053333Y-108227380D02*
X173243809Y-108227380D01*
X173339047Y-108275000D01*
X173434285Y-108370238D01*
X173481904Y-108560714D01*
X173481904Y-108894047D01*
X173434285Y-109084523D01*
X173339047Y-109179761D01*
X173243809Y-109227380D01*
X173053333Y-109227380D01*
X172958095Y-109179761D01*
X172862857Y-109084523D01*
X172815238Y-108894047D01*
X172815238Y-108560714D01*
X172862857Y-108370238D01*
X172958095Y-108275000D01*
X173053333Y-108227380D01*
X173910476Y-109227380D02*
X173910476Y-108227380D01*
X174243809Y-108941666D01*
X174577142Y-108227380D01*
X174577142Y-109227380D01*
D10*
X106992857Y-142688571D02*
X107992857Y-142688571D01*
X106992857Y-144188571D01*
X107992857Y-144188571D01*
X108778571Y-143331428D02*
X108635714Y-143260000D01*
X108564285Y-143188571D01*
X108492857Y-143045714D01*
X108492857Y-142974285D01*
X108564285Y-142831428D01*
X108635714Y-142760000D01*
X108778571Y-142688571D01*
X109064285Y-142688571D01*
X109207142Y-142760000D01*
X109278571Y-142831428D01*
X109350000Y-142974285D01*
X109350000Y-143045714D01*
X109278571Y-143188571D01*
X109207142Y-143260000D01*
X109064285Y-143331428D01*
X108778571Y-143331428D01*
X108635714Y-143402857D01*
X108564285Y-143474285D01*
X108492857Y-143617142D01*
X108492857Y-143902857D01*
X108564285Y-144045714D01*
X108635714Y-144117142D01*
X108778571Y-144188571D01*
X109064285Y-144188571D01*
X109207142Y-144117142D01*
X109278571Y-144045714D01*
X109350000Y-143902857D01*
X109350000Y-143617142D01*
X109278571Y-143474285D01*
X109207142Y-143402857D01*
X109064285Y-143331428D01*
X110278571Y-142688571D02*
X110421428Y-142688571D01*
X110564285Y-142760000D01*
X110635714Y-142831428D01*
X110707142Y-142974285D01*
X110778571Y-143260000D01*
X110778571Y-143617142D01*
X110707142Y-143902857D01*
X110635714Y-144045714D01*
X110564285Y-144117142D01*
X110421428Y-144188571D01*
X110278571Y-144188571D01*
X110135714Y-144117142D01*
X110064285Y-144045714D01*
X109992857Y-143902857D01*
X109921428Y-143617142D01*
X109921428Y-143260000D01*
X109992857Y-142974285D01*
X110064285Y-142831428D01*
X110135714Y-142760000D01*
X110278571Y-142688571D01*
X111421428Y-144188571D02*
X111421428Y-142688571D01*
X111921428Y-143760000D01*
X112421428Y-142688571D01*
X112421428Y-144188571D01*
X113135714Y-144188571D02*
X113135714Y-143188571D01*
X113135714Y-142688571D02*
X113064285Y-142760000D01*
X113135714Y-142831428D01*
X113207142Y-142760000D01*
X113135714Y-142688571D01*
X113135714Y-142831428D01*
X113850000Y-143188571D02*
X113850000Y-144188571D01*
X113850000Y-143331428D02*
X113921428Y-143260000D01*
X114064285Y-143188571D01*
X114278571Y-143188571D01*
X114421428Y-143260000D01*
X114492857Y-143402857D01*
X114492857Y-144188571D01*
X115207142Y-144188571D02*
X115207142Y-143188571D01*
X115207142Y-142688571D02*
X115135714Y-142760000D01*
X115207142Y-142831428D01*
X115278571Y-142760000D01*
X115207142Y-142688571D01*
X115207142Y-142831428D01*
X116421428Y-143402857D02*
X115921428Y-143402857D01*
X115921428Y-144188571D02*
X115921428Y-142688571D01*
X116635714Y-142688571D01*
X117207142Y-144188571D02*
X117207142Y-143188571D01*
X117207142Y-143474285D02*
X117278571Y-143331428D01*
X117350000Y-143260000D01*
X117492857Y-143188571D01*
X117635714Y-143188571D01*
X118778571Y-144188571D02*
X118778571Y-143402857D01*
X118707142Y-143260000D01*
X118564285Y-143188571D01*
X118278571Y-143188571D01*
X118135714Y-143260000D01*
X118778571Y-144117142D02*
X118635714Y-144188571D01*
X118278571Y-144188571D01*
X118135714Y-144117142D01*
X118064285Y-143974285D01*
X118064285Y-143831428D01*
X118135714Y-143688571D01*
X118278571Y-143617142D01*
X118635714Y-143617142D01*
X118778571Y-143545714D01*
X119492857Y-144188571D02*
X119492857Y-143188571D01*
X119492857Y-143331428D02*
X119564285Y-143260000D01*
X119707142Y-143188571D01*
X119921428Y-143188571D01*
X120064285Y-143260000D01*
X120135714Y-143402857D01*
X120135714Y-144188571D01*
X120135714Y-143402857D02*
X120207142Y-143260000D01*
X120350000Y-143188571D01*
X120564285Y-143188571D01*
X120707142Y-143260000D01*
X120778571Y-143402857D01*
X120778571Y-144188571D01*
X122064285Y-144117142D02*
X121921428Y-144188571D01*
X121635714Y-144188571D01*
X121492857Y-144117142D01*
X121421428Y-143974285D01*
X121421428Y-143402857D01*
X121492857Y-143260000D01*
X121635714Y-143188571D01*
X121921428Y-143188571D01*
X122064285Y-143260000D01*
X122135714Y-143402857D01*
X122135714Y-143545714D01*
X121421428Y-143688571D01*
X124778571Y-144045714D02*
X124707142Y-144117142D01*
X124492857Y-144188571D01*
X124350000Y-144188571D01*
X124135714Y-144117142D01*
X123992857Y-143974285D01*
X123921428Y-143831428D01*
X123850000Y-143545714D01*
X123850000Y-143331428D01*
X123921428Y-143045714D01*
X123992857Y-142902857D01*
X124135714Y-142760000D01*
X124350000Y-142688571D01*
X124492857Y-142688571D01*
X124707142Y-142760000D01*
X124778571Y-142831428D01*
X125421428Y-144188571D02*
X125421428Y-142688571D01*
X125992857Y-142688571D01*
X126135714Y-142760000D01*
X126207142Y-142831428D01*
X126278571Y-142974285D01*
X126278571Y-143188571D01*
X126207142Y-143331428D01*
X126135714Y-143402857D01*
X125992857Y-143474285D01*
X125421428Y-143474285D01*
X126921428Y-142688571D02*
X126921428Y-143902857D01*
X126992857Y-144045714D01*
X127064285Y-144117142D01*
X127207142Y-144188571D01*
X127492857Y-144188571D01*
X127635714Y-144117142D01*
X127707142Y-144045714D01*
X127778571Y-143902857D01*
X127778571Y-142688571D01*
X128492857Y-143617142D02*
X129635714Y-143617142D01*
X130350000Y-144188571D02*
X130350000Y-142688571D01*
X131350000Y-142688571D02*
X131635714Y-142688571D01*
X131778571Y-142760000D01*
X131921428Y-142902857D01*
X131992857Y-143188571D01*
X131992857Y-143688571D01*
X131921428Y-143974285D01*
X131778571Y-144117142D01*
X131635714Y-144188571D01*
X131350000Y-144188571D01*
X131207142Y-144117142D01*
X131064285Y-143974285D01*
X130992857Y-143688571D01*
X130992857Y-143188571D01*
X131064285Y-142902857D01*
X131207142Y-142760000D01*
X131350000Y-142688571D01*
X134278571Y-143402857D02*
X134492857Y-143474285D01*
X134564285Y-143545714D01*
X134635714Y-143688571D01*
X134635714Y-143902857D01*
X134564285Y-144045714D01*
X134492857Y-144117142D01*
X134350000Y-144188571D01*
X133778571Y-144188571D01*
X133778571Y-142688571D01*
X134278571Y-142688571D01*
X134421428Y-142760000D01*
X134492857Y-142831428D01*
X134564285Y-142974285D01*
X134564285Y-143117142D01*
X134492857Y-143260000D01*
X134421428Y-143331428D01*
X134278571Y-143402857D01*
X133778571Y-143402857D01*
X135492857Y-144188571D02*
X135350000Y-144117142D01*
X135278571Y-144045714D01*
X135207142Y-143902857D01*
X135207142Y-143474285D01*
X135278571Y-143331428D01*
X135350000Y-143260000D01*
X135492857Y-143188571D01*
X135707142Y-143188571D01*
X135850000Y-143260000D01*
X135921428Y-143331428D01*
X135992857Y-143474285D01*
X135992857Y-143902857D01*
X135921428Y-144045714D01*
X135850000Y-144117142D01*
X135707142Y-144188571D01*
X135492857Y-144188571D01*
X137278571Y-144188571D02*
X137278571Y-143402857D01*
X137207142Y-143260000D01*
X137064285Y-143188571D01*
X136778571Y-143188571D01*
X136635714Y-143260000D01*
X137278571Y-144117142D02*
X137135714Y-144188571D01*
X136778571Y-144188571D01*
X136635714Y-144117142D01*
X136564285Y-143974285D01*
X136564285Y-143831428D01*
X136635714Y-143688571D01*
X136778571Y-143617142D01*
X137135714Y-143617142D01*
X137278571Y-143545714D01*
X137992857Y-144188571D02*
X137992857Y-143188571D01*
X137992857Y-143474285D02*
X138064285Y-143331428D01*
X138135714Y-143260000D01*
X138278571Y-143188571D01*
X138421428Y-143188571D01*
X139564285Y-144188571D02*
X139564285Y-142688571D01*
X139564285Y-144117142D02*
X139421428Y-144188571D01*
X139135714Y-144188571D01*
X138992857Y-144117142D01*
X138921428Y-144045714D01*
X138850000Y-143902857D01*
X138850000Y-143474285D01*
X138921428Y-143331428D01*
X138992857Y-143260000D01*
X139135714Y-143188571D01*
X139421428Y-143188571D01*
X139564285Y-143260000D01*
X141278571Y-143188571D02*
X141635714Y-144188571D01*
X141992857Y-143188571D01*
X142492857Y-142831428D02*
X142564285Y-142760000D01*
X142707142Y-142688571D01*
X143064285Y-142688571D01*
X143207142Y-142760000D01*
X143278571Y-142831428D01*
X143350000Y-142974285D01*
X143350000Y-143117142D01*
X143278571Y-143331428D01*
X142421428Y-144188571D01*
X143350000Y-144188571D01*
X143992857Y-144045714D02*
X144064285Y-144117142D01*
X143992857Y-144188571D01*
X143921428Y-144117142D01*
X143992857Y-144045714D01*
X143992857Y-144188571D01*
X145492857Y-144188571D02*
X144635714Y-144188571D01*
X145064285Y-144188571D02*
X145064285Y-142688571D01*
X144921428Y-142902857D01*
X144778571Y-143045714D01*
X144635714Y-143117142D01*
X147707142Y-144760000D02*
X147635714Y-144688571D01*
X147492857Y-144474285D01*
X147421428Y-144331428D01*
X147350000Y-144117142D01*
X147278571Y-143760000D01*
X147278571Y-143474285D01*
X147350000Y-143117142D01*
X147421428Y-142902857D01*
X147492857Y-142760000D01*
X147635714Y-142545714D01*
X147707142Y-142474285D01*
X148064285Y-142688571D02*
X148921428Y-142688571D01*
X148492857Y-144188571D02*
X148492857Y-142688571D01*
X150278571Y-144045714D02*
X150207142Y-144117142D01*
X149992857Y-144188571D01*
X149850000Y-144188571D01*
X149635714Y-144117142D01*
X149492857Y-143974285D01*
X149421428Y-143831428D01*
X149350000Y-143545714D01*
X149350000Y-143331428D01*
X149421428Y-143045714D01*
X149492857Y-142902857D01*
X149635714Y-142760000D01*
X149850000Y-142688571D01*
X149992857Y-142688571D01*
X150207142Y-142760000D01*
X150278571Y-142831428D01*
X151778571Y-144045714D02*
X151707142Y-144117142D01*
X151492857Y-144188571D01*
X151350000Y-144188571D01*
X151135714Y-144117142D01*
X150992857Y-143974285D01*
X150921428Y-143831428D01*
X150850000Y-143545714D01*
X150850000Y-143331428D01*
X150921428Y-143045714D01*
X150992857Y-142902857D01*
X151135714Y-142760000D01*
X151350000Y-142688571D01*
X151492857Y-142688571D01*
X151707142Y-142760000D01*
X151778571Y-142831428D01*
X153492857Y-142831428D02*
X153564285Y-142760000D01*
X153707142Y-142688571D01*
X154064285Y-142688571D01*
X154207142Y-142760000D01*
X154278571Y-142831428D01*
X154350000Y-142974285D01*
X154350000Y-143117142D01*
X154278571Y-143331428D01*
X153421428Y-144188571D01*
X154350000Y-144188571D01*
X155278571Y-142688571D02*
X155421428Y-142688571D01*
X155564285Y-142760000D01*
X155635714Y-142831428D01*
X155707142Y-142974285D01*
X155778571Y-143260000D01*
X155778571Y-143617142D01*
X155707142Y-143902857D01*
X155635714Y-144045714D01*
X155564285Y-144117142D01*
X155421428Y-144188571D01*
X155278571Y-144188571D01*
X155135714Y-144117142D01*
X155064285Y-144045714D01*
X154992857Y-143902857D01*
X154921428Y-143617142D01*
X154921428Y-143260000D01*
X154992857Y-142974285D01*
X155064285Y-142831428D01*
X155135714Y-142760000D01*
X155278571Y-142688571D01*
X156350000Y-142831428D02*
X156421428Y-142760000D01*
X156564285Y-142688571D01*
X156921428Y-142688571D01*
X157064285Y-142760000D01*
X157135714Y-142831428D01*
X157207142Y-142974285D01*
X157207142Y-143117142D01*
X157135714Y-143331428D01*
X156278571Y-144188571D01*
X157207142Y-144188571D01*
X158135714Y-142688571D02*
X158278571Y-142688571D01*
X158421428Y-142760000D01*
X158492857Y-142831428D01*
X158564285Y-142974285D01*
X158635714Y-143260000D01*
X158635714Y-143617142D01*
X158564285Y-143902857D01*
X158492857Y-144045714D01*
X158421428Y-144117142D01*
X158278571Y-144188571D01*
X158135714Y-144188571D01*
X157992857Y-144117142D01*
X157921428Y-144045714D01*
X157850000Y-143902857D01*
X157778571Y-143617142D01*
X157778571Y-143260000D01*
X157850000Y-142974285D01*
X157921428Y-142831428D01*
X157992857Y-142760000D01*
X158135714Y-142688571D01*
X159135714Y-144760000D02*
X159207142Y-144688571D01*
X159349999Y-144474285D01*
X159421428Y-144331428D01*
X159492857Y-144117142D01*
X159564285Y-143760000D01*
X159564285Y-143474285D01*
X159492857Y-143117142D01*
X159421428Y-142902857D01*
X159349999Y-142760000D01*
X159207142Y-142545714D01*
X159135714Y-142474285D01*
D12*
X153380000Y-72330000D02*
X148320000Y-72330000D01*
X153380000Y-108010000D02*
X153380000Y-72330000D01*
X141260000Y-108010000D02*
X153380000Y-108010000D01*
X141260000Y-72330000D02*
X141260000Y-108010000D01*
X146320000Y-72330000D02*
X141260000Y-72330000D01*
X148320000Y-72330000D02*
G75*
G02X146320000Y-72330000I-1000000J0D01*
G01*
X185360000Y-134680000D02*
X185360000Y-133350000D01*
X186690000Y-134680000D02*
X185360000Y-134680000D01*
X187960000Y-134680000D02*
X187960000Y-132020000D01*
X187960000Y-132020000D02*
X193100000Y-132020000D01*
X187960000Y-134680000D02*
X193100000Y-134680000D01*
X193100000Y-134680000D02*
X193100000Y-132020000D01*
X245050000Y-130750000D02*
X246380000Y-130750000D01*
X245050000Y-132080000D02*
X245050000Y-130750000D01*
X245050000Y-133350000D02*
X247710000Y-133350000D01*
X247710000Y-133350000D02*
X247710000Y-135950000D01*
X245050000Y-133350000D02*
X245050000Y-135950000D01*
X245050000Y-135950000D02*
X247710000Y-135950000D01*
X170120000Y-130750000D02*
X171450000Y-130750000D01*
X170120000Y-132080000D02*
X170120000Y-130750000D01*
X170120000Y-133350000D02*
X172780000Y-133350000D01*
X172780000Y-133350000D02*
X172780000Y-146110000D01*
X170120000Y-133350000D02*
X170120000Y-146110000D01*
X170120000Y-146110000D02*
X172780000Y-146110000D01*
X138660000Y-122020000D02*
X138660000Y-119280000D01*
X145900000Y-122020000D02*
X145900000Y-119280000D01*
X145900000Y-119280000D02*
X138660000Y-119280000D01*
X145900000Y-122020000D02*
X138660000Y-122020000D01*
X249240000Y-89190000D02*
X258590000Y-89190000D01*
X249240000Y-108220000D02*
X249240000Y-74660000D01*
X249240000Y-108220000D02*
X258590000Y-108220000D01*
X249240000Y-93690000D02*
X258590000Y-93690000D01*
X249240000Y-74660000D02*
X258590000Y-74660000D01*
X258590000Y-74660000D02*
X258590000Y-108220000D01*
X245110000Y-78740000D02*
X243840000Y-78740000D01*
X243840000Y-78740000D02*
X243840000Y-80010000D01*
X226515000Y-130775225D02*
X226015000Y-130775225D01*
X226265000Y-130525225D02*
X226265000Y-131025225D01*
X225074000Y-135931000D02*
X224506000Y-135931000D01*
X225308000Y-135891000D02*
X224272000Y-135891000D01*
X225467000Y-135851000D02*
X224113000Y-135851000D01*
X225595000Y-135811000D02*
X223985000Y-135811000D01*
X225705000Y-135771000D02*
X223875000Y-135771000D01*
X225801000Y-135731000D02*
X223779000Y-135731000D01*
X225888000Y-135691000D02*
X223692000Y-135691000D01*
X225968000Y-135651000D02*
X223612000Y-135651000D01*
X223750000Y-135611000D02*
X223539000Y-135611000D01*
X226041000Y-135611000D02*
X225830000Y-135611000D01*
X223750000Y-135571000D02*
X223471000Y-135571000D01*
X226109000Y-135571000D02*
X225830000Y-135571000D01*
X223750000Y-135531000D02*
X223407000Y-135531000D01*
X226173000Y-135531000D02*
X225830000Y-135531000D01*
X223750000Y-135491000D02*
X223347000Y-135491000D01*
X226233000Y-135491000D02*
X225830000Y-135491000D01*
X223750000Y-135451000D02*
X223290000Y-135451000D01*
X226290000Y-135451000D02*
X225830000Y-135451000D01*
X223750000Y-135411000D02*
X223236000Y-135411000D01*
X226344000Y-135411000D02*
X225830000Y-135411000D01*
X223750000Y-135371000D02*
X223185000Y-135371000D01*
X226395000Y-135371000D02*
X225830000Y-135371000D01*
X223750000Y-135331000D02*
X223137000Y-135331000D01*
X226443000Y-135331000D02*
X225830000Y-135331000D01*
X223750000Y-135291000D02*
X223091000Y-135291000D01*
X226489000Y-135291000D02*
X225830000Y-135291000D01*
X223750000Y-135251000D02*
X223047000Y-135251000D01*
X226533000Y-135251000D02*
X225830000Y-135251000D01*
X223750000Y-135211000D02*
X223005000Y-135211000D01*
X226575000Y-135211000D02*
X225830000Y-135211000D01*
X223750000Y-135171000D02*
X222964000Y-135171000D01*
X226616000Y-135171000D02*
X225830000Y-135171000D01*
X223750000Y-135131000D02*
X222926000Y-135131000D01*
X226654000Y-135131000D02*
X225830000Y-135131000D01*
X223750000Y-135091000D02*
X222889000Y-135091000D01*
X226691000Y-135091000D02*
X225830000Y-135091000D01*
X223750000Y-135051000D02*
X222853000Y-135051000D01*
X226727000Y-135051000D02*
X225830000Y-135051000D01*
X223750000Y-135011000D02*
X222819000Y-135011000D01*
X226761000Y-135011000D02*
X225830000Y-135011000D01*
X223750000Y-134971000D02*
X222786000Y-134971000D01*
X226794000Y-134971000D02*
X225830000Y-134971000D01*
X223750000Y-134931000D02*
X222755000Y-134931000D01*
X226825000Y-134931000D02*
X225830000Y-134931000D01*
X223750000Y-134891000D02*
X222725000Y-134891000D01*
X226855000Y-134891000D02*
X225830000Y-134891000D01*
X223750000Y-134851000D02*
X222695000Y-134851000D01*
X226885000Y-134851000D02*
X225830000Y-134851000D01*
X223750000Y-134811000D02*
X222668000Y-134811000D01*
X226912000Y-134811000D02*
X225830000Y-134811000D01*
X223750000Y-134771000D02*
X222641000Y-134771000D01*
X226939000Y-134771000D02*
X225830000Y-134771000D01*
X223750000Y-134731000D02*
X222615000Y-134731000D01*
X226965000Y-134731000D02*
X225830000Y-134731000D01*
X223750000Y-134691000D02*
X222590000Y-134691000D01*
X226990000Y-134691000D02*
X225830000Y-134691000D01*
X223750000Y-134651000D02*
X222566000Y-134651000D01*
X227014000Y-134651000D02*
X225830000Y-134651000D01*
X223750000Y-134611000D02*
X222543000Y-134611000D01*
X227037000Y-134611000D02*
X225830000Y-134611000D01*
X223750000Y-134571000D02*
X222522000Y-134571000D01*
X227058000Y-134571000D02*
X225830000Y-134571000D01*
X223750000Y-134531000D02*
X222500000Y-134531000D01*
X227080000Y-134531000D02*
X225830000Y-134531000D01*
X223750000Y-134491000D02*
X222480000Y-134491000D01*
X227100000Y-134491000D02*
X225830000Y-134491000D01*
X223750000Y-134451000D02*
X222461000Y-134451000D01*
X227119000Y-134451000D02*
X225830000Y-134451000D01*
X223750000Y-134411000D02*
X222442000Y-134411000D01*
X227138000Y-134411000D02*
X225830000Y-134411000D01*
X223750000Y-134371000D02*
X222425000Y-134371000D01*
X227155000Y-134371000D02*
X225830000Y-134371000D01*
X223750000Y-134331000D02*
X222408000Y-134331000D01*
X227172000Y-134331000D02*
X225830000Y-134331000D01*
X223750000Y-134291000D02*
X222392000Y-134291000D01*
X227188000Y-134291000D02*
X225830000Y-134291000D01*
X223750000Y-134251000D02*
X222376000Y-134251000D01*
X227204000Y-134251000D02*
X225830000Y-134251000D01*
X223750000Y-134211000D02*
X222362000Y-134211000D01*
X227218000Y-134211000D02*
X225830000Y-134211000D01*
X223750000Y-134171000D02*
X222348000Y-134171000D01*
X227232000Y-134171000D02*
X225830000Y-134171000D01*
X223750000Y-134131000D02*
X222335000Y-134131000D01*
X227245000Y-134131000D02*
X225830000Y-134131000D01*
X223750000Y-134091000D02*
X222322000Y-134091000D01*
X227258000Y-134091000D02*
X225830000Y-134091000D01*
X223750000Y-134051000D02*
X222310000Y-134051000D01*
X227270000Y-134051000D02*
X225830000Y-134051000D01*
X223750000Y-134010000D02*
X222299000Y-134010000D01*
X227281000Y-134010000D02*
X225830000Y-134010000D01*
X223750000Y-133970000D02*
X222289000Y-133970000D01*
X227291000Y-133970000D02*
X225830000Y-133970000D01*
X223750000Y-133930000D02*
X222279000Y-133930000D01*
X227301000Y-133930000D02*
X225830000Y-133930000D01*
X223750000Y-133890000D02*
X222270000Y-133890000D01*
X227310000Y-133890000D02*
X225830000Y-133890000D01*
X223750000Y-133850000D02*
X222262000Y-133850000D01*
X227318000Y-133850000D02*
X225830000Y-133850000D01*
X223750000Y-133810000D02*
X222254000Y-133810000D01*
X227326000Y-133810000D02*
X225830000Y-133810000D01*
X223750000Y-133770000D02*
X222247000Y-133770000D01*
X227333000Y-133770000D02*
X225830000Y-133770000D01*
X223750000Y-133730000D02*
X222240000Y-133730000D01*
X227340000Y-133730000D02*
X225830000Y-133730000D01*
X223750000Y-133690000D02*
X222234000Y-133690000D01*
X227346000Y-133690000D02*
X225830000Y-133690000D01*
X223750000Y-133650000D02*
X222229000Y-133650000D01*
X227351000Y-133650000D02*
X225830000Y-133650000D01*
X223750000Y-133610000D02*
X222225000Y-133610000D01*
X227355000Y-133610000D02*
X225830000Y-133610000D01*
X223750000Y-133570000D02*
X222221000Y-133570000D01*
X227359000Y-133570000D02*
X225830000Y-133570000D01*
X227363000Y-133530000D02*
X222217000Y-133530000D01*
X227366000Y-133490000D02*
X222214000Y-133490000D01*
X227368000Y-133450000D02*
X222212000Y-133450000D01*
X227369000Y-133410000D02*
X222211000Y-133410000D01*
X227370000Y-133370000D02*
X222210000Y-133370000D01*
X227370000Y-133330000D02*
X222210000Y-133330000D01*
X227410000Y-133330000D02*
G75*
G03X227410000Y-133330000I-2620000J0D01*
G01*
X138370000Y-126020000D02*
X138370000Y-127270000D01*
X158810000Y-126020000D02*
X138370000Y-126020000D01*
X158810000Y-130520000D02*
X158810000Y-126020000D01*
X138370000Y-130520000D02*
X158810000Y-130520000D01*
X138370000Y-129270000D02*
X138370000Y-130520000D01*
X138370000Y-127270000D02*
G75*
G02X138370000Y-129270000I0J-1000000D01*
G01*
D11*
X202865000Y-131140000D02*
X201265000Y-131140000D01*
X202865000Y-141215000D02*
X208615000Y-141215000D01*
X202865000Y-130565000D02*
X208615000Y-130565000D01*
X202865000Y-141215000D02*
X202865000Y-140565000D01*
X208615000Y-141215000D02*
X208615000Y-140565000D01*
X208615000Y-130565000D02*
X208615000Y-131215000D01*
X202865000Y-130565000D02*
X202865000Y-131140000D01*
D12*
X183190000Y-132590000D02*
X183190000Y-134050000D01*
X180030000Y-132590000D02*
X180030000Y-134750000D01*
X180030000Y-132590000D02*
X180960000Y-132590000D01*
X183190000Y-132590000D02*
X182260000Y-132590000D01*
X159565000Y-58454775D02*
X160065000Y-58454775D01*
X159815000Y-58704775D02*
X159815000Y-58204775D01*
X161006000Y-53299000D02*
X161574000Y-53299000D01*
X160772000Y-53339000D02*
X161808000Y-53339000D01*
X160613000Y-53379000D02*
X161967000Y-53379000D01*
X160485000Y-53419000D02*
X162095000Y-53419000D01*
X160375000Y-53459000D02*
X162205000Y-53459000D01*
X160279000Y-53499000D02*
X162301000Y-53499000D01*
X160192000Y-53539000D02*
X162388000Y-53539000D01*
X160112000Y-53579000D02*
X162468000Y-53579000D01*
X162330000Y-53619000D02*
X162541000Y-53619000D01*
X160039000Y-53619000D02*
X160250000Y-53619000D01*
X162330000Y-53659000D02*
X162609000Y-53659000D01*
X159971000Y-53659000D02*
X160250000Y-53659000D01*
X162330000Y-53699000D02*
X162673000Y-53699000D01*
X159907000Y-53699000D02*
X160250000Y-53699000D01*
X162330000Y-53739000D02*
X162733000Y-53739000D01*
X159847000Y-53739000D02*
X160250000Y-53739000D01*
X162330000Y-53779000D02*
X162790000Y-53779000D01*
X159790000Y-53779000D02*
X160250000Y-53779000D01*
X162330000Y-53819000D02*
X162844000Y-53819000D01*
X159736000Y-53819000D02*
X160250000Y-53819000D01*
X162330000Y-53859000D02*
X162895000Y-53859000D01*
X159685000Y-53859000D02*
X160250000Y-53859000D01*
X162330000Y-53899000D02*
X162943000Y-53899000D01*
X159637000Y-53899000D02*
X160250000Y-53899000D01*
X162330000Y-53939000D02*
X162989000Y-53939000D01*
X159591000Y-53939000D02*
X160250000Y-53939000D01*
X162330000Y-53979000D02*
X163033000Y-53979000D01*
X159547000Y-53979000D02*
X160250000Y-53979000D01*
X162330000Y-54019000D02*
X163075000Y-54019000D01*
X159505000Y-54019000D02*
X160250000Y-54019000D01*
X162330000Y-54059000D02*
X163116000Y-54059000D01*
X159464000Y-54059000D02*
X160250000Y-54059000D01*
X162330000Y-54099000D02*
X163154000Y-54099000D01*
X159426000Y-54099000D02*
X160250000Y-54099000D01*
X162330000Y-54139000D02*
X163191000Y-54139000D01*
X159389000Y-54139000D02*
X160250000Y-54139000D01*
X162330000Y-54179000D02*
X163227000Y-54179000D01*
X159353000Y-54179000D02*
X160250000Y-54179000D01*
X162330000Y-54219000D02*
X163261000Y-54219000D01*
X159319000Y-54219000D02*
X160250000Y-54219000D01*
X162330000Y-54259000D02*
X163294000Y-54259000D01*
X159286000Y-54259000D02*
X160250000Y-54259000D01*
X162330000Y-54299000D02*
X163325000Y-54299000D01*
X159255000Y-54299000D02*
X160250000Y-54299000D01*
X162330000Y-54339000D02*
X163355000Y-54339000D01*
X159225000Y-54339000D02*
X160250000Y-54339000D01*
X162330000Y-54379000D02*
X163385000Y-54379000D01*
X159195000Y-54379000D02*
X160250000Y-54379000D01*
X162330000Y-54419000D02*
X163412000Y-54419000D01*
X159168000Y-54419000D02*
X160250000Y-54419000D01*
X162330000Y-54459000D02*
X163439000Y-54459000D01*
X159141000Y-54459000D02*
X160250000Y-54459000D01*
X162330000Y-54499000D02*
X163465000Y-54499000D01*
X159115000Y-54499000D02*
X160250000Y-54499000D01*
X162330000Y-54539000D02*
X163490000Y-54539000D01*
X159090000Y-54539000D02*
X160250000Y-54539000D01*
X162330000Y-54579000D02*
X163514000Y-54579000D01*
X159066000Y-54579000D02*
X160250000Y-54579000D01*
X162330000Y-54619000D02*
X163537000Y-54619000D01*
X159043000Y-54619000D02*
X160250000Y-54619000D01*
X162330000Y-54659000D02*
X163558000Y-54659000D01*
X159022000Y-54659000D02*
X160250000Y-54659000D01*
X162330000Y-54699000D02*
X163580000Y-54699000D01*
X159000000Y-54699000D02*
X160250000Y-54699000D01*
X162330000Y-54739000D02*
X163600000Y-54739000D01*
X158980000Y-54739000D02*
X160250000Y-54739000D01*
X162330000Y-54779000D02*
X163619000Y-54779000D01*
X158961000Y-54779000D02*
X160250000Y-54779000D01*
X162330000Y-54819000D02*
X163638000Y-54819000D01*
X158942000Y-54819000D02*
X160250000Y-54819000D01*
X162330000Y-54859000D02*
X163655000Y-54859000D01*
X158925000Y-54859000D02*
X160250000Y-54859000D01*
X162330000Y-54899000D02*
X163672000Y-54899000D01*
X158908000Y-54899000D02*
X160250000Y-54899000D01*
X162330000Y-54939000D02*
X163688000Y-54939000D01*
X158892000Y-54939000D02*
X160250000Y-54939000D01*
X162330000Y-54979000D02*
X163704000Y-54979000D01*
X158876000Y-54979000D02*
X160250000Y-54979000D01*
X162330000Y-55019000D02*
X163718000Y-55019000D01*
X158862000Y-55019000D02*
X160250000Y-55019000D01*
X162330000Y-55059000D02*
X163732000Y-55059000D01*
X158848000Y-55059000D02*
X160250000Y-55059000D01*
X162330000Y-55099000D02*
X163745000Y-55099000D01*
X158835000Y-55099000D02*
X160250000Y-55099000D01*
X162330000Y-55139000D02*
X163758000Y-55139000D01*
X158822000Y-55139000D02*
X160250000Y-55139000D01*
X162330000Y-55179000D02*
X163770000Y-55179000D01*
X158810000Y-55179000D02*
X160250000Y-55179000D01*
X162330000Y-55220000D02*
X163781000Y-55220000D01*
X158799000Y-55220000D02*
X160250000Y-55220000D01*
X162330000Y-55260000D02*
X163791000Y-55260000D01*
X158789000Y-55260000D02*
X160250000Y-55260000D01*
X162330000Y-55300000D02*
X163801000Y-55300000D01*
X158779000Y-55300000D02*
X160250000Y-55300000D01*
X162330000Y-55340000D02*
X163810000Y-55340000D01*
X158770000Y-55340000D02*
X160250000Y-55340000D01*
X162330000Y-55380000D02*
X163818000Y-55380000D01*
X158762000Y-55380000D02*
X160250000Y-55380000D01*
X162330000Y-55420000D02*
X163826000Y-55420000D01*
X158754000Y-55420000D02*
X160250000Y-55420000D01*
X162330000Y-55460000D02*
X163833000Y-55460000D01*
X158747000Y-55460000D02*
X160250000Y-55460000D01*
X162330000Y-55500000D02*
X163840000Y-55500000D01*
X158740000Y-55500000D02*
X160250000Y-55500000D01*
X162330000Y-55540000D02*
X163846000Y-55540000D01*
X158734000Y-55540000D02*
X160250000Y-55540000D01*
X162330000Y-55580000D02*
X163851000Y-55580000D01*
X158729000Y-55580000D02*
X160250000Y-55580000D01*
X162330000Y-55620000D02*
X163855000Y-55620000D01*
X158725000Y-55620000D02*
X160250000Y-55620000D01*
X162330000Y-55660000D02*
X163859000Y-55660000D01*
X158721000Y-55660000D02*
X160250000Y-55660000D01*
X158717000Y-55700000D02*
X163863000Y-55700000D01*
X158714000Y-55740000D02*
X163866000Y-55740000D01*
X158712000Y-55780000D02*
X163868000Y-55780000D01*
X158711000Y-55820000D02*
X163869000Y-55820000D01*
X158710000Y-55860000D02*
X163870000Y-55860000D01*
X158710000Y-55900000D02*
X163870000Y-55900000D01*
X163910000Y-55900000D02*
G75*
G03X163910000Y-55900000I-2620000J0D01*
G01*
X213260000Y-134850000D02*
X216000000Y-134850000D01*
X213260000Y-142090000D02*
X216000000Y-142090000D01*
X216000000Y-142090000D02*
X216000000Y-134850000D01*
X213260000Y-142090000D02*
X213260000Y-134850000D01*
X180880000Y-143410000D02*
X180880000Y-143740000D01*
X187420000Y-143410000D02*
X180880000Y-143410000D01*
X187420000Y-143740000D02*
X187420000Y-143410000D01*
X180880000Y-146150000D02*
X180880000Y-145820000D01*
X187420000Y-146150000D02*
X180880000Y-146150000D01*
X187420000Y-145820000D02*
X187420000Y-146150000D01*
X187339000Y-140050000D02*
X186081000Y-140050000D01*
X187339000Y-141890000D02*
X186081000Y-141890000D01*
X180961000Y-141890000D02*
X182219000Y-141890000D01*
X180961000Y-140050000D02*
X182219000Y-140050000D01*
X165040000Y-54900000D02*
X165040000Y-56150000D01*
X175320000Y-54900000D02*
X165040000Y-54900000D01*
X175320000Y-59400000D02*
X175320000Y-54900000D01*
X165040000Y-59400000D02*
X175320000Y-59400000D01*
X165040000Y-58150000D02*
X165040000Y-59400000D01*
X165040000Y-56150000D02*
G75*
G02X165040000Y-58150000I0J-1000000D01*
G01*
X122650000Y-64870000D02*
X122650000Y-64540000D01*
X116110000Y-64870000D02*
X122650000Y-64870000D01*
X116110000Y-64540000D02*
X116110000Y-64870000D01*
X122650000Y-62130000D02*
X122650000Y-62460000D01*
X116110000Y-62130000D02*
X122650000Y-62130000D01*
X116110000Y-62460000D02*
X116110000Y-62130000D01*
X122650000Y-54710000D02*
X122650000Y-54380000D01*
X116110000Y-54710000D02*
X122650000Y-54710000D01*
X116110000Y-54380000D02*
X116110000Y-54710000D01*
X122650000Y-51970000D02*
X122650000Y-52300000D01*
X116110000Y-51970000D02*
X122650000Y-51970000D01*
X116110000Y-52300000D02*
X116110000Y-51970000D01*
X122650000Y-59790000D02*
X122650000Y-59460000D01*
X116110000Y-59790000D02*
X122650000Y-59790000D01*
X116110000Y-59460000D02*
X116110000Y-59790000D01*
X122650000Y-57050000D02*
X122650000Y-57380000D01*
X116110000Y-57050000D02*
X122650000Y-57050000D01*
X116110000Y-57380000D02*
X116110000Y-57050000D01*
X126431522Y-60258478D02*
G75*
G03X130870000Y-58420000I1838478J1838478D01*
G01*
X126431522Y-56581522D02*
G75*
G02X130870000Y-58420000I1838478J-1838478D01*
G01*
X126420000Y-56620000D02*
X126420000Y-60220000D01*
X126710000Y-54420000D02*
X126710000Y-54576000D01*
X126710000Y-52104000D02*
X126710000Y-52260000D01*
X129311130Y-54419837D02*
G75*
G02X127229039Y-54420000I-1041130J1079837D01*
G01*
X129311130Y-52260163D02*
G75*
G03X127229039Y-52260000I-1041130J-1079837D01*
G01*
X129942335Y-54418608D02*
G75*
G02X126710000Y-54575516I-1672335J1078608D01*
G01*
X129942335Y-52261392D02*
G75*
G03X126710000Y-52104484I-1672335J-1078608D01*
G01*
X194160000Y-50700000D02*
X194160000Y-53440000D01*
X186920000Y-50700000D02*
X186920000Y-53440000D01*
X186920000Y-53440000D02*
X194160000Y-53440000D01*
X186920000Y-50700000D02*
X194160000Y-50700000D01*
X124170000Y-72330000D02*
X119110000Y-72330000D01*
X124170000Y-123250000D02*
X124170000Y-72330000D01*
X112050000Y-123250000D02*
X124170000Y-123250000D01*
X112050000Y-72330000D02*
X112050000Y-123250000D01*
X117110000Y-72330000D02*
X112050000Y-72330000D01*
X119110000Y-72330000D02*
G75*
G02X117110000Y-72330000I-1000000J0D01*
G01*
X184880000Y-57250000D02*
X184880000Y-56920000D01*
X178340000Y-57250000D02*
X184880000Y-57250000D01*
X178340000Y-56920000D02*
X178340000Y-57250000D01*
X184880000Y-54510000D02*
X184880000Y-54840000D01*
X178340000Y-54510000D02*
X184880000Y-54510000D01*
X178340000Y-54840000D02*
X178340000Y-54510000D01*
X138370000Y-54900000D02*
X138370000Y-56150000D01*
X156270000Y-54900000D02*
X138370000Y-54900000D01*
X156270000Y-59400000D02*
X156270000Y-54900000D01*
X138370000Y-59400000D02*
X156270000Y-59400000D01*
X138370000Y-58150000D02*
X138370000Y-59400000D01*
X138370000Y-56150000D02*
G75*
G02X138370000Y-58150000I0J-1000000D01*
G01*
X181460000Y-68480000D02*
X181460000Y-71220000D01*
X174220000Y-68480000D02*
X174220000Y-71220000D01*
X174220000Y-71220000D02*
X181460000Y-71220000D01*
X174220000Y-68480000D02*
X181460000Y-68480000D01*
X178780000Y-72330000D02*
X173720000Y-72330000D01*
X178780000Y-108010000D02*
X178780000Y-72330000D01*
X166660000Y-108010000D02*
X178780000Y-108010000D01*
X166660000Y-72330000D02*
X166660000Y-108010000D01*
X171720000Y-72330000D02*
X166660000Y-72330000D01*
X173720000Y-72330000D02*
G75*
G02X171720000Y-72330000I-1000000J0D01*
G01*
X218340000Y-134850000D02*
X221080000Y-134850000D01*
X218340000Y-142090000D02*
X221080000Y-142090000D01*
X221080000Y-142090000D02*
X221080000Y-134850000D01*
X218340000Y-142090000D02*
X218340000Y-134850000D01*
X205450000Y-72330000D02*
X200390000Y-72330000D01*
X205450000Y-123250000D02*
X205450000Y-72330000D01*
X193330000Y-123250000D02*
X205450000Y-123250000D01*
X193330000Y-72330000D02*
X193330000Y-123250000D01*
X198390000Y-72330000D02*
X193330000Y-72330000D01*
X200390000Y-72330000D02*
G75*
G02X198390000Y-72330000I-1000000J0D01*
G01*
X230030000Y-72450000D02*
X224970000Y-72450000D01*
X230030000Y-123370000D02*
X230030000Y-72450000D01*
X217910000Y-123370000D02*
X230030000Y-123370000D01*
X217910000Y-72450000D02*
X217910000Y-123370000D01*
X222970000Y-72450000D02*
X217910000Y-72450000D01*
X224970000Y-72450000D02*
G75*
G02X222970000Y-72450000I-1000000J0D01*
G01*
X227040000Y-50740000D02*
X225790000Y-50740000D01*
X227040000Y-61020000D02*
X227040000Y-50740000D01*
X222540000Y-61020000D02*
X227040000Y-61020000D01*
X222540000Y-50740000D02*
X222540000Y-61020000D01*
X223790000Y-50740000D02*
X222540000Y-50740000D01*
X225790000Y-50740000D02*
G75*
G02X223790000Y-50740000I-1000000J0D01*
G01*
X208820000Y-62130000D02*
X208820000Y-62460000D01*
X215360000Y-62130000D02*
X208820000Y-62130000D01*
X215360000Y-62460000D02*
X215360000Y-62130000D01*
X208820000Y-64870000D02*
X208820000Y-64540000D01*
X215360000Y-64870000D02*
X208820000Y-64870000D01*
X215360000Y-64540000D02*
X215360000Y-64870000D01*
X208820000Y-58320000D02*
X208820000Y-58650000D01*
X215360000Y-58320000D02*
X208820000Y-58320000D01*
X215360000Y-58650000D02*
X215360000Y-58320000D01*
X208820000Y-61060000D02*
X208820000Y-60730000D01*
X215360000Y-61060000D02*
X208820000Y-61060000D01*
X215360000Y-60730000D02*
X215360000Y-61060000D01*
X208820000Y-54510000D02*
X208820000Y-54840000D01*
X215360000Y-54510000D02*
X208820000Y-54510000D01*
X215360000Y-54840000D02*
X215360000Y-54510000D01*
X208820000Y-57250000D02*
X208820000Y-56920000D01*
X215360000Y-57250000D02*
X208820000Y-57250000D01*
X215360000Y-56920000D02*
X215360000Y-57250000D01*
X208820000Y-50700000D02*
X208820000Y-51030000D01*
X215360000Y-50700000D02*
X208820000Y-50700000D01*
X215360000Y-51030000D02*
X215360000Y-50700000D01*
X208820000Y-53440000D02*
X208820000Y-53110000D01*
X215360000Y-53440000D02*
X208820000Y-53440000D01*
X215360000Y-53110000D02*
X215360000Y-53440000D01*
X240570000Y-65940000D02*
X240570000Y-66270000D01*
X247110000Y-65940000D02*
X240570000Y-65940000D01*
X247110000Y-66270000D02*
X247110000Y-65940000D01*
X240570000Y-68680000D02*
X240570000Y-68350000D01*
X247110000Y-68680000D02*
X240570000Y-68680000D01*
X247110000Y-68350000D02*
X247110000Y-68680000D01*
X253020000Y-66230000D02*
X253020000Y-66074000D01*
X253020000Y-68546000D02*
X253020000Y-68390000D01*
X250418870Y-66230163D02*
G75*
G02X252500961Y-66230000I1041130J-1079837D01*
G01*
X250418870Y-68389837D02*
G75*
G03X252500961Y-68390000I1041130J1079837D01*
G01*
X249787665Y-66231392D02*
G75*
G02X253020000Y-66074484I1672335J-1078608D01*
G01*
X249787665Y-68388608D02*
G75*
G03X253020000Y-68545516I1672335J1078608D01*
G01*
X240570000Y-120550000D02*
X240570000Y-120880000D01*
X247110000Y-120550000D02*
X240570000Y-120550000D01*
X247110000Y-120880000D02*
X247110000Y-120550000D01*
X240570000Y-123290000D02*
X240570000Y-122960000D01*
X247110000Y-123290000D02*
X240570000Y-123290000D01*
X247110000Y-122960000D02*
X247110000Y-123290000D01*
X240570000Y-114200000D02*
X240570000Y-114530000D01*
X247110000Y-114200000D02*
X240570000Y-114200000D01*
X247110000Y-114530000D02*
X247110000Y-114200000D01*
X240570000Y-116940000D02*
X240570000Y-116610000D01*
X247110000Y-116940000D02*
X240570000Y-116940000D01*
X247110000Y-116610000D02*
X247110000Y-116940000D01*
X253020000Y-120840000D02*
X253020000Y-120684000D01*
X253020000Y-123156000D02*
X253020000Y-123000000D01*
X250418870Y-120840163D02*
G75*
G02X252500961Y-120840000I1041130J-1079837D01*
G01*
X250418870Y-122999837D02*
G75*
G03X252500961Y-123000000I1041130J1079837D01*
G01*
X249787665Y-120841392D02*
G75*
G02X253020000Y-120684484I1672335J-1078608D01*
G01*
X249787665Y-122998608D02*
G75*
G03X253020000Y-123155516I1672335J1078608D01*
G01*
X253020000Y-114490000D02*
X253020000Y-114334000D01*
X253020000Y-116806000D02*
X253020000Y-116650000D01*
X250418870Y-114490163D02*
G75*
G02X252500961Y-114490000I1041130J-1079837D01*
G01*
X250418870Y-116649837D02*
G75*
G03X252500961Y-116650000I1041130J1079837D01*
G01*
X249787665Y-114491392D02*
G75*
G02X253020000Y-114334484I1672335J-1078608D01*
G01*
X249787665Y-116648608D02*
G75*
G03X253020000Y-116805516I1672335J1078608D01*
G01*
X217243922Y-132790000D02*
X217761078Y-132790000D01*
X217243922Y-131370000D02*
X217761078Y-131370000D01*
X258640000Y-141070000D02*
X256690000Y-141070000D01*
X254470000Y-141070000D02*
X251240000Y-141070000D01*
X249320000Y-140350000D02*
X249320000Y-139270000D01*
X249320000Y-135050000D02*
X249320000Y-133970000D01*
X254470000Y-133250000D02*
X251240000Y-133250000D01*
X258640000Y-133250000D02*
X256690000Y-133250000D01*
X249320000Y-139270000D02*
X248890000Y-139270000D01*
X258640000Y-133250000D02*
X258640000Y-141070000D01*
X250851000Y-130460000D02*
X252109000Y-130460000D01*
X250851000Y-128620000D02*
X252109000Y-128620000D01*
X237840000Y-137781000D02*
X237840000Y-139039000D01*
X239680000Y-137781000D02*
X239680000Y-139039000D01*
X235870000Y-137781000D02*
X235870000Y-139039000D01*
X234030000Y-137781000D02*
X234030000Y-139039000D01*
X245980000Y-59230000D02*
X245980000Y-60730000D01*
X247230000Y-63230000D02*
X251730000Y-63230000D01*
X252980000Y-60730000D02*
X252980000Y-59230000D01*
X251730000Y-56730000D02*
X247230000Y-56730000D01*
X104240000Y-56530000D02*
G75*
G03X103490000Y-55780000I-750000J0D01*
G01*
X103490000Y-68680000D02*
G75*
G03X104240000Y-67930000I0J750000D01*
G01*
X91340000Y-67930000D02*
G75*
G03X92090000Y-68680000I750000J0D01*
G01*
X91340000Y-55780000D02*
X91340000Y-67930000D01*
X92090000Y-68680000D02*
X103490000Y-68680000D01*
X104240000Y-67930000D02*
X104240000Y-56530000D01*
X103490000Y-55780000D02*
X91340000Y-55780000D01*
X97890000Y-124700000D02*
X97560000Y-124700000D01*
X97890000Y-131240000D02*
X97890000Y-124700000D01*
X97560000Y-131240000D02*
X97890000Y-131240000D01*
X95150000Y-124700000D02*
X95480000Y-124700000D01*
X95150000Y-131240000D02*
X95150000Y-124700000D01*
X95480000Y-131240000D02*
X95150000Y-131240000D01*
X108050000Y-124700000D02*
X107720000Y-124700000D01*
X108050000Y-131240000D02*
X108050000Y-124700000D01*
X107720000Y-131240000D02*
X108050000Y-131240000D01*
X105310000Y-124700000D02*
X105640000Y-124700000D01*
X105310000Y-131240000D02*
X105310000Y-124700000D01*
X105640000Y-131240000D02*
X105310000Y-131240000D01*
X102970000Y-124700000D02*
X102640000Y-124700000D01*
X102970000Y-131240000D02*
X102970000Y-124700000D01*
X102640000Y-131240000D02*
X102970000Y-131240000D01*
X100230000Y-124700000D02*
X100560000Y-124700000D01*
X100230000Y-131240000D02*
X100230000Y-124700000D01*
X100560000Y-131240000D02*
X100230000Y-131240000D01*
X184880000Y-53440000D02*
X184880000Y-53110000D01*
X178340000Y-53440000D02*
X184880000Y-53440000D01*
X178340000Y-53110000D02*
X178340000Y-53440000D01*
X184880000Y-50700000D02*
X184880000Y-51030000D01*
X178340000Y-50700000D02*
X184880000Y-50700000D01*
X178340000Y-51030000D02*
X178340000Y-50700000D01*
X208050000Y-68480000D02*
X208050000Y-71220000D01*
X200810000Y-68480000D02*
X200810000Y-71220000D01*
X200810000Y-71220000D02*
X208050000Y-71220000D01*
X200810000Y-68480000D02*
X208050000Y-68480000D01*
X242800000Y-111860000D02*
X242800000Y-109120000D01*
X250040000Y-111860000D02*
X250040000Y-109120000D01*
X250040000Y-109120000D02*
X242800000Y-109120000D01*
X250040000Y-111860000D02*
X242800000Y-111860000D01*
X102640000Y-51970000D02*
X102640000Y-54710000D01*
X95400000Y-51970000D02*
X95400000Y-54710000D01*
X95400000Y-54710000D02*
X102640000Y-54710000D01*
X95400000Y-51970000D02*
X102640000Y-51970000D01*
X183920000Y-59590000D02*
X183920000Y-62330000D01*
X176680000Y-59590000D02*
X176680000Y-62330000D01*
X176680000Y-62330000D02*
X183920000Y-62330000D01*
X176680000Y-59590000D02*
X183920000Y-59590000D01*
X134520000Y-52300000D02*
X137260000Y-52300000D01*
X134520000Y-59540000D02*
X137260000Y-59540000D01*
X137260000Y-59540000D02*
X137260000Y-52300000D01*
X134520000Y-59540000D02*
X134520000Y-52300000D01*
X155980000Y-68480000D02*
X155980000Y-71220000D01*
X148740000Y-68480000D02*
X148740000Y-71220000D01*
X148740000Y-71220000D02*
X155980000Y-71220000D01*
X148740000Y-68480000D02*
X155980000Y-68480000D01*
X93880000Y-77700000D02*
X96620000Y-77700000D01*
X93880000Y-84940000D02*
X96620000Y-84940000D01*
X96620000Y-84940000D02*
X96620000Y-77700000D01*
X93880000Y-84940000D02*
X93880000Y-77700000D01*
D11*
X146558095Y-70782380D02*
X146558095Y-71591904D01*
X146605714Y-71687142D01*
X146653333Y-71734761D01*
X146748571Y-71782380D01*
X146939047Y-71782380D01*
X147034285Y-71734761D01*
X147081904Y-71687142D01*
X147129523Y-71591904D01*
X147129523Y-70782380D01*
X147558095Y-70877619D02*
X147605714Y-70830000D01*
X147700952Y-70782380D01*
X147939047Y-70782380D01*
X148034285Y-70830000D01*
X148081904Y-70877619D01*
X148129523Y-70972857D01*
X148129523Y-71068095D01*
X148081904Y-71210952D01*
X147510476Y-71782380D01*
X148129523Y-71782380D01*
X142915238Y-108462380D02*
X143486666Y-108462380D01*
X143200952Y-109462380D02*
X143200952Y-108462380D01*
X144391428Y-109367142D02*
X144343809Y-109414761D01*
X144200952Y-109462380D01*
X144105714Y-109462380D01*
X143962857Y-109414761D01*
X143867619Y-109319523D01*
X143820000Y-109224285D01*
X143772380Y-109033809D01*
X143772380Y-108890952D01*
X143820000Y-108700476D01*
X143867619Y-108605238D01*
X143962857Y-108510000D01*
X144105714Y-108462380D01*
X144200952Y-108462380D01*
X144343809Y-108510000D01*
X144391428Y-108557619D01*
X145296190Y-108462380D02*
X144820000Y-108462380D01*
X144772380Y-108938571D01*
X144820000Y-108890952D01*
X144915238Y-108843333D01*
X145153333Y-108843333D01*
X145248571Y-108890952D01*
X145296190Y-108938571D01*
X145343809Y-109033809D01*
X145343809Y-109271904D01*
X145296190Y-109367142D01*
X145248571Y-109414761D01*
X145153333Y-109462380D01*
X144915238Y-109462380D01*
X144820000Y-109414761D01*
X144772380Y-109367142D01*
X146248571Y-108462380D02*
X145772380Y-108462380D01*
X145724761Y-108938571D01*
X145772380Y-108890952D01*
X145867619Y-108843333D01*
X146105714Y-108843333D01*
X146200952Y-108890952D01*
X146248571Y-108938571D01*
X146296190Y-109033809D01*
X146296190Y-109271904D01*
X146248571Y-109367142D01*
X146200952Y-109414761D01*
X146105714Y-109462380D01*
X145867619Y-109462380D01*
X145772380Y-109414761D01*
X145724761Y-109367142D01*
X146677142Y-108557619D02*
X146724761Y-108510000D01*
X146820000Y-108462380D01*
X147058095Y-108462380D01*
X147153333Y-108510000D01*
X147200952Y-108557619D01*
X147248571Y-108652857D01*
X147248571Y-108748095D01*
X147200952Y-108890952D01*
X146629523Y-109462380D01*
X147248571Y-109462380D01*
X148153333Y-108462380D02*
X147677142Y-108462380D01*
X147629523Y-108938571D01*
X147677142Y-108890952D01*
X147772380Y-108843333D01*
X148010476Y-108843333D01*
X148105714Y-108890952D01*
X148153333Y-108938571D01*
X148200952Y-109033809D01*
X148200952Y-109271904D01*
X148153333Y-109367142D01*
X148105714Y-109414761D01*
X148010476Y-109462380D01*
X147772380Y-109462380D01*
X147677142Y-109414761D01*
X147629523Y-109367142D01*
X148534285Y-108462380D02*
X149200952Y-108462380D01*
X148772380Y-109462380D01*
X150153333Y-109367142D02*
X150105714Y-109414761D01*
X149962857Y-109462380D01*
X149867619Y-109462380D01*
X149724761Y-109414761D01*
X149629523Y-109319523D01*
X149581904Y-109224285D01*
X149534285Y-109033809D01*
X149534285Y-108890952D01*
X149581904Y-108700476D01*
X149629523Y-108605238D01*
X149724761Y-108510000D01*
X149867619Y-108462380D01*
X149962857Y-108462380D01*
X150105714Y-108510000D01*
X150153333Y-108557619D01*
X150581904Y-109462380D02*
X150581904Y-108462380D01*
X150962857Y-108462380D01*
X151058095Y-108510000D01*
X151105714Y-108557619D01*
X151153333Y-108652857D01*
X151153333Y-108795714D01*
X151105714Y-108890952D01*
X151058095Y-108938571D01*
X150962857Y-108986190D01*
X150581904Y-108986190D01*
X151581904Y-109462380D02*
X151581904Y-108462380D01*
X183812380Y-134183333D02*
X184526666Y-134183333D01*
X184669523Y-134230952D01*
X184764761Y-134326190D01*
X184812380Y-134469047D01*
X184812380Y-134564285D01*
X184812380Y-133707142D02*
X183812380Y-133707142D01*
X183812380Y-133326190D01*
X183860000Y-133230952D01*
X183907619Y-133183333D01*
X184002857Y-133135714D01*
X184145714Y-133135714D01*
X184240952Y-133183333D01*
X184288571Y-133230952D01*
X184336190Y-133326190D01*
X184336190Y-133707142D01*
X184145714Y-132278571D02*
X184812380Y-132278571D01*
X183764761Y-132516666D02*
X184479047Y-132754761D01*
X184479047Y-132135714D01*
X245546666Y-129202380D02*
X245546666Y-129916666D01*
X245499047Y-130059523D01*
X245403809Y-130154761D01*
X245260952Y-130202380D01*
X245165714Y-130202380D01*
X246022857Y-130202380D02*
X246022857Y-129202380D01*
X246403809Y-129202380D01*
X246499047Y-129250000D01*
X246546666Y-129297619D01*
X246594285Y-129392857D01*
X246594285Y-129535714D01*
X246546666Y-129630952D01*
X246499047Y-129678571D01*
X246403809Y-129726190D01*
X246022857Y-129726190D01*
X246927619Y-129202380D02*
X247546666Y-129202380D01*
X247213333Y-129583333D01*
X247356190Y-129583333D01*
X247451428Y-129630952D01*
X247499047Y-129678571D01*
X247546666Y-129773809D01*
X247546666Y-130011904D01*
X247499047Y-130107142D01*
X247451428Y-130154761D01*
X247356190Y-130202380D01*
X247070476Y-130202380D01*
X246975238Y-130154761D01*
X246927619Y-130107142D01*
X243292380Y-137540476D02*
X244101904Y-137540476D01*
X244197142Y-137492857D01*
X244244761Y-137445238D01*
X244292380Y-137350000D01*
X244292380Y-137159523D01*
X244244761Y-137064285D01*
X244197142Y-137016666D01*
X244101904Y-136969047D01*
X243292380Y-136969047D01*
X244244761Y-136540476D02*
X244292380Y-136397619D01*
X244292380Y-136159523D01*
X244244761Y-136064285D01*
X244197142Y-136016666D01*
X244101904Y-135969047D01*
X244006666Y-135969047D01*
X243911428Y-136016666D01*
X243863809Y-136064285D01*
X243816190Y-136159523D01*
X243768571Y-136350000D01*
X243720952Y-136445238D01*
X243673333Y-136492857D01*
X243578095Y-136540476D01*
X243482857Y-136540476D01*
X243387619Y-136492857D01*
X243340000Y-136445238D01*
X243292380Y-136350000D01*
X243292380Y-136111904D01*
X243340000Y-135969047D01*
X243768571Y-135207142D02*
X243816190Y-135064285D01*
X243863809Y-135016666D01*
X243959047Y-134969047D01*
X244101904Y-134969047D01*
X244197142Y-135016666D01*
X244244761Y-135064285D01*
X244292380Y-135159523D01*
X244292380Y-135540476D01*
X243292380Y-135540476D01*
X243292380Y-135207142D01*
X243340000Y-135111904D01*
X243387619Y-135064285D01*
X243482857Y-135016666D01*
X243578095Y-135016666D01*
X243673333Y-135064285D01*
X243720952Y-135111904D01*
X243768571Y-135207142D01*
X243768571Y-135540476D01*
X244387619Y-134778571D02*
X244387619Y-134016666D01*
X244292380Y-133778571D02*
X243292380Y-133778571D01*
X243292380Y-133397619D01*
X243340000Y-133302380D01*
X243387619Y-133254761D01*
X243482857Y-133207142D01*
X243625714Y-133207142D01*
X243720952Y-133254761D01*
X243768571Y-133302380D01*
X243816190Y-133397619D01*
X243816190Y-133778571D01*
X243292380Y-132588095D02*
X243292380Y-132397619D01*
X243340000Y-132302380D01*
X243435238Y-132207142D01*
X243625714Y-132159523D01*
X243959047Y-132159523D01*
X244149523Y-132207142D01*
X244244761Y-132302380D01*
X244292380Y-132397619D01*
X244292380Y-132588095D01*
X244244761Y-132683333D01*
X244149523Y-132778571D01*
X243959047Y-132826190D01*
X243625714Y-132826190D01*
X243435238Y-132778571D01*
X243340000Y-132683333D01*
X243292380Y-132588095D01*
X243292380Y-131826190D02*
X244292380Y-131588095D01*
X243578095Y-131397619D01*
X244292380Y-131207142D01*
X243292380Y-130969047D01*
X243768571Y-130588095D02*
X243768571Y-130254761D01*
X244292380Y-130111904D02*
X244292380Y-130588095D01*
X243292380Y-130588095D01*
X243292380Y-130111904D01*
X244292380Y-129111904D02*
X243816190Y-129445238D01*
X244292380Y-129683333D02*
X243292380Y-129683333D01*
X243292380Y-129302380D01*
X243340000Y-129207142D01*
X243387619Y-129159523D01*
X243482857Y-129111904D01*
X243625714Y-129111904D01*
X243720952Y-129159523D01*
X243768571Y-129207142D01*
X243816190Y-129302380D01*
X243816190Y-129683333D01*
X171116666Y-129202380D02*
X171116666Y-129916666D01*
X171069047Y-130059523D01*
X170973809Y-130154761D01*
X170830952Y-130202380D01*
X170735714Y-130202380D01*
X171545238Y-129297619D02*
X171592857Y-129250000D01*
X171688095Y-129202380D01*
X171926190Y-129202380D01*
X172021428Y-129250000D01*
X172069047Y-129297619D01*
X172116666Y-129392857D01*
X172116666Y-129488095D01*
X172069047Y-129630952D01*
X171497619Y-130202380D01*
X172116666Y-130202380D01*
X168362380Y-142049047D02*
X168362380Y-141477619D01*
X169362380Y-141763333D02*
X168362380Y-141763333D01*
X168362380Y-141287142D02*
X168362380Y-140715714D01*
X169362380Y-141001428D02*
X168362380Y-141001428D01*
X169362380Y-139906190D02*
X169362380Y-140382380D01*
X168362380Y-140382380D01*
X169314761Y-138858571D02*
X169362380Y-138715714D01*
X169362380Y-138477619D01*
X169314761Y-138382380D01*
X169267142Y-138334761D01*
X169171904Y-138287142D01*
X169076666Y-138287142D01*
X168981428Y-138334761D01*
X168933809Y-138382380D01*
X168886190Y-138477619D01*
X168838571Y-138668095D01*
X168790952Y-138763333D01*
X168743333Y-138810952D01*
X168648095Y-138858571D01*
X168552857Y-138858571D01*
X168457619Y-138810952D01*
X168410000Y-138763333D01*
X168362380Y-138668095D01*
X168362380Y-138430000D01*
X168410000Y-138287142D01*
X169314761Y-137477619D02*
X169362380Y-137572857D01*
X169362380Y-137763333D01*
X169314761Y-137858571D01*
X169219523Y-137906190D01*
X168838571Y-137906190D01*
X168743333Y-137858571D01*
X168695714Y-137763333D01*
X168695714Y-137572857D01*
X168743333Y-137477619D01*
X168838571Y-137430000D01*
X168933809Y-137430000D01*
X169029047Y-137906190D01*
X169362380Y-137001428D02*
X168695714Y-137001428D01*
X168886190Y-137001428D02*
X168790952Y-136953809D01*
X168743333Y-136906190D01*
X168695714Y-136810952D01*
X168695714Y-136715714D01*
X169362380Y-136382380D02*
X168695714Y-136382380D01*
X168362380Y-136382380D02*
X168410000Y-136430000D01*
X168457619Y-136382380D01*
X168410000Y-136334761D01*
X168362380Y-136382380D01*
X168457619Y-136382380D01*
X169362380Y-135477619D02*
X168838571Y-135477619D01*
X168743333Y-135525238D01*
X168695714Y-135620476D01*
X168695714Y-135810952D01*
X168743333Y-135906190D01*
X169314761Y-135477619D02*
X169362380Y-135572857D01*
X169362380Y-135810952D01*
X169314761Y-135906190D01*
X169219523Y-135953809D01*
X169124285Y-135953809D01*
X169029047Y-135906190D01*
X168981428Y-135810952D01*
X168981428Y-135572857D01*
X168933809Y-135477619D01*
X169362380Y-134858571D02*
X169314761Y-134953809D01*
X169219523Y-135001428D01*
X168362380Y-135001428D01*
X147677142Y-121292857D02*
X147724761Y-121340476D01*
X147772380Y-121483333D01*
X147772380Y-121578571D01*
X147724761Y-121721428D01*
X147629523Y-121816666D01*
X147534285Y-121864285D01*
X147343809Y-121911904D01*
X147200952Y-121911904D01*
X147010476Y-121864285D01*
X146915238Y-121816666D01*
X146820000Y-121721428D01*
X146772380Y-121578571D01*
X146772380Y-121483333D01*
X146820000Y-121340476D01*
X146867619Y-121292857D01*
X147772380Y-120340476D02*
X147772380Y-120911904D01*
X147772380Y-120626190D02*
X146772380Y-120626190D01*
X146915238Y-120721428D01*
X147010476Y-120816666D01*
X147058095Y-120911904D01*
X146772380Y-120007142D02*
X146772380Y-119388095D01*
X147153333Y-119721428D01*
X147153333Y-119578571D01*
X147200952Y-119483333D01*
X147248571Y-119435714D01*
X147343809Y-119388095D01*
X147581904Y-119388095D01*
X147677142Y-119435714D01*
X147724761Y-119483333D01*
X147772380Y-119578571D01*
X147772380Y-119864285D01*
X147724761Y-119959523D01*
X147677142Y-120007142D01*
X165036666Y-109682380D02*
X164703333Y-109206190D01*
X164465238Y-109682380D02*
X164465238Y-108682380D01*
X164846190Y-108682380D01*
X164941428Y-108730000D01*
X164989047Y-108777619D01*
X165036666Y-108872857D01*
X165036666Y-109015714D01*
X164989047Y-109110952D01*
X164941428Y-109158571D01*
X164846190Y-109206190D01*
X164465238Y-109206190D01*
X165465238Y-109158571D02*
X165798571Y-109158571D01*
X165941428Y-109682380D02*
X165465238Y-109682380D01*
X165465238Y-108682380D01*
X165941428Y-108682380D01*
X166703333Y-109158571D02*
X166370000Y-109158571D01*
X166370000Y-109682380D02*
X166370000Y-108682380D01*
X166846190Y-108682380D01*
X167370000Y-108682380D02*
X167370000Y-108920476D01*
X167131904Y-108825238D02*
X167370000Y-108920476D01*
X167608095Y-108825238D01*
X167227142Y-109110952D02*
X167370000Y-108920476D01*
X167512857Y-109110952D01*
X168131904Y-108682380D02*
X168131904Y-108920476D01*
X167893809Y-108825238D02*
X168131904Y-108920476D01*
X168370000Y-108825238D01*
X167989047Y-109110952D02*
X168131904Y-108920476D01*
X168274761Y-109110952D01*
X241236666Y-140162380D02*
X240903333Y-139686190D01*
X240665238Y-140162380D02*
X240665238Y-139162380D01*
X241046190Y-139162380D01*
X241141428Y-139210000D01*
X241189047Y-139257619D01*
X241236666Y-139352857D01*
X241236666Y-139495714D01*
X241189047Y-139590952D01*
X241141428Y-139638571D01*
X241046190Y-139686190D01*
X240665238Y-139686190D01*
X241665238Y-139638571D02*
X241998571Y-139638571D01*
X242141428Y-140162380D02*
X241665238Y-140162380D01*
X241665238Y-139162380D01*
X242141428Y-139162380D01*
X242903333Y-139638571D02*
X242570000Y-139638571D01*
X242570000Y-140162380D02*
X242570000Y-139162380D01*
X243046190Y-139162380D01*
X243570000Y-139162380D02*
X243570000Y-139400476D01*
X243331904Y-139305238D02*
X243570000Y-139400476D01*
X243808095Y-139305238D01*
X243427142Y-139590952D02*
X243570000Y-139400476D01*
X243712857Y-139590952D01*
X244331904Y-139162380D02*
X244331904Y-139400476D01*
X244093809Y-139305238D02*
X244331904Y-139400476D01*
X244570000Y-139305238D01*
X244189047Y-139590952D02*
X244331904Y-139400476D01*
X244474761Y-139590952D01*
X82486666Y-140162380D02*
X82153333Y-139686190D01*
X81915238Y-140162380D02*
X81915238Y-139162380D01*
X82296190Y-139162380D01*
X82391428Y-139210000D01*
X82439047Y-139257619D01*
X82486666Y-139352857D01*
X82486666Y-139495714D01*
X82439047Y-139590952D01*
X82391428Y-139638571D01*
X82296190Y-139686190D01*
X81915238Y-139686190D01*
X82915238Y-139638571D02*
X83248571Y-139638571D01*
X83391428Y-140162380D02*
X82915238Y-140162380D01*
X82915238Y-139162380D01*
X83391428Y-139162380D01*
X84153333Y-139638571D02*
X83820000Y-139638571D01*
X83820000Y-140162380D02*
X83820000Y-139162380D01*
X84296190Y-139162380D01*
X84820000Y-139162380D02*
X84820000Y-139400476D01*
X84581904Y-139305238D02*
X84820000Y-139400476D01*
X85058095Y-139305238D01*
X84677142Y-139590952D02*
X84820000Y-139400476D01*
X84962857Y-139590952D01*
X85581904Y-139162380D02*
X85581904Y-139400476D01*
X85343809Y-139305238D02*
X85581904Y-139400476D01*
X85820000Y-139305238D01*
X85439047Y-139590952D02*
X85581904Y-139400476D01*
X85724761Y-139590952D01*
X82486666Y-47452380D02*
X82153333Y-46976190D01*
X81915238Y-47452380D02*
X81915238Y-46452380D01*
X82296190Y-46452380D01*
X82391428Y-46500000D01*
X82439047Y-46547619D01*
X82486666Y-46642857D01*
X82486666Y-46785714D01*
X82439047Y-46880952D01*
X82391428Y-46928571D01*
X82296190Y-46976190D01*
X81915238Y-46976190D01*
X82915238Y-46928571D02*
X83248571Y-46928571D01*
X83391428Y-47452380D02*
X82915238Y-47452380D01*
X82915238Y-46452380D01*
X83391428Y-46452380D01*
X84153333Y-46928571D02*
X83820000Y-46928571D01*
X83820000Y-47452380D02*
X83820000Y-46452380D01*
X84296190Y-46452380D01*
X84820000Y-46452380D02*
X84820000Y-46690476D01*
X84581904Y-46595238D02*
X84820000Y-46690476D01*
X85058095Y-46595238D01*
X84677142Y-46880952D02*
X84820000Y-46690476D01*
X84962857Y-46880952D01*
X85581904Y-46452380D02*
X85581904Y-46690476D01*
X85343809Y-46595238D02*
X85581904Y-46690476D01*
X85820000Y-46595238D01*
X85439047Y-46880952D02*
X85581904Y-46690476D01*
X85724761Y-46880952D01*
X251396666Y-47452380D02*
X251063333Y-46976190D01*
X250825238Y-47452380D02*
X250825238Y-46452380D01*
X251206190Y-46452380D01*
X251301428Y-46500000D01*
X251349047Y-46547619D01*
X251396666Y-46642857D01*
X251396666Y-46785714D01*
X251349047Y-46880952D01*
X251301428Y-46928571D01*
X251206190Y-46976190D01*
X250825238Y-46976190D01*
X251825238Y-46928571D02*
X252158571Y-46928571D01*
X252301428Y-47452380D02*
X251825238Y-47452380D01*
X251825238Y-46452380D01*
X252301428Y-46452380D01*
X253063333Y-46928571D02*
X252730000Y-46928571D01*
X252730000Y-47452380D02*
X252730000Y-46452380D01*
X253206190Y-46452380D01*
X253730000Y-46452380D02*
X253730000Y-46690476D01*
X253491904Y-46595238D02*
X253730000Y-46690476D01*
X253968095Y-46595238D01*
X253587142Y-46880952D02*
X253730000Y-46690476D01*
X253872857Y-46880952D01*
X254491904Y-46452380D02*
X254491904Y-46690476D01*
X254253809Y-46595238D02*
X254491904Y-46690476D01*
X254730000Y-46595238D01*
X254349047Y-46880952D02*
X254491904Y-46690476D01*
X254634761Y-46880952D01*
X250881666Y-73112380D02*
X250881666Y-73826666D01*
X250834047Y-73969523D01*
X250738809Y-74064761D01*
X250595952Y-74112380D01*
X250500714Y-74112380D01*
X251786428Y-73445714D02*
X251786428Y-74112380D01*
X251548333Y-73064761D02*
X251310238Y-73779047D01*
X251929285Y-73779047D01*
X228897142Y-133972857D02*
X228944761Y-134020476D01*
X228992380Y-134163333D01*
X228992380Y-134258571D01*
X228944761Y-134401428D01*
X228849523Y-134496666D01*
X228754285Y-134544285D01*
X228563809Y-134591904D01*
X228420952Y-134591904D01*
X228230476Y-134544285D01*
X228135238Y-134496666D01*
X228040000Y-134401428D01*
X227992380Y-134258571D01*
X227992380Y-134163333D01*
X228040000Y-134020476D01*
X228087619Y-133972857D01*
X228992380Y-133020476D02*
X228992380Y-133591904D01*
X228992380Y-133306190D02*
X227992380Y-133306190D01*
X228135238Y-133401428D01*
X228230476Y-133496666D01*
X228278095Y-133591904D01*
X228325714Y-132163333D02*
X228992380Y-132163333D01*
X227944761Y-132401428D02*
X228659047Y-132639523D01*
X228659047Y-132020476D01*
X136822380Y-129031904D02*
X137631904Y-129031904D01*
X137727142Y-128984285D01*
X137774761Y-128936666D01*
X137822380Y-128841428D01*
X137822380Y-128650952D01*
X137774761Y-128555714D01*
X137727142Y-128508095D01*
X137631904Y-128460476D01*
X136822380Y-128460476D01*
X136822380Y-127555714D02*
X136822380Y-127746190D01*
X136870000Y-127841428D01*
X136917619Y-127889047D01*
X137060476Y-127984285D01*
X137250952Y-128031904D01*
X137631904Y-128031904D01*
X137727142Y-127984285D01*
X137774761Y-127936666D01*
X137822380Y-127841428D01*
X137822380Y-127650952D01*
X137774761Y-127555714D01*
X137727142Y-127508095D01*
X137631904Y-127460476D01*
X137393809Y-127460476D01*
X137298571Y-127508095D01*
X137250952Y-127555714D01*
X137203333Y-127650952D01*
X137203333Y-127841428D01*
X137250952Y-127936666D01*
X137298571Y-127984285D01*
X137393809Y-128031904D01*
X204978095Y-129092380D02*
X204978095Y-129901904D01*
X205025714Y-129997142D01*
X205073333Y-130044761D01*
X205168571Y-130092380D01*
X205359047Y-130092380D01*
X205454285Y-130044761D01*
X205501904Y-129997142D01*
X205549523Y-129901904D01*
X205549523Y-129092380D01*
X206073333Y-130092380D02*
X206263809Y-130092380D01*
X206359047Y-130044761D01*
X206406666Y-129997142D01*
X206501904Y-129854285D01*
X206549523Y-129663809D01*
X206549523Y-129282857D01*
X206501904Y-129187619D01*
X206454285Y-129140000D01*
X206359047Y-129092380D01*
X206168571Y-129092380D01*
X206073333Y-129140000D01*
X206025714Y-129187619D01*
X205978095Y-129282857D01*
X205978095Y-129520952D01*
X206025714Y-129616190D01*
X206073333Y-129663809D01*
X206168571Y-129711428D01*
X206359047Y-129711428D01*
X206454285Y-129663809D01*
X206501904Y-129616190D01*
X206549523Y-129520952D01*
X179617619Y-133445238D02*
X179570000Y-133540476D01*
X179474761Y-133635714D01*
X179331904Y-133778571D01*
X179284285Y-133873809D01*
X179284285Y-133969047D01*
X179522380Y-133921428D02*
X179474761Y-134016666D01*
X179379523Y-134111904D01*
X179189047Y-134159523D01*
X178855714Y-134159523D01*
X178665238Y-134111904D01*
X178570000Y-134016666D01*
X178522380Y-133921428D01*
X178522380Y-133730952D01*
X178570000Y-133635714D01*
X178665238Y-133540476D01*
X178855714Y-133492857D01*
X179189047Y-133492857D01*
X179379523Y-133540476D01*
X179474761Y-133635714D01*
X179522380Y-133730952D01*
X179522380Y-133921428D01*
X178617619Y-133111904D02*
X178570000Y-133064285D01*
X178522380Y-132969047D01*
X178522380Y-132730952D01*
X178570000Y-132635714D01*
X178617619Y-132588095D01*
X178712857Y-132540476D01*
X178808095Y-132540476D01*
X178950952Y-132588095D01*
X179522380Y-133159523D01*
X179522380Y-132540476D01*
X157897142Y-56542857D02*
X157944761Y-56590476D01*
X157992380Y-56733333D01*
X157992380Y-56828571D01*
X157944761Y-56971428D01*
X157849523Y-57066666D01*
X157754285Y-57114285D01*
X157563809Y-57161904D01*
X157420952Y-57161904D01*
X157230476Y-57114285D01*
X157135238Y-57066666D01*
X157040000Y-56971428D01*
X156992380Y-56828571D01*
X156992380Y-56733333D01*
X157040000Y-56590476D01*
X157087619Y-56542857D01*
X157992380Y-55590476D02*
X157992380Y-56161904D01*
X157992380Y-55876190D02*
X156992380Y-55876190D01*
X157135238Y-55971428D01*
X157230476Y-56066666D01*
X157278095Y-56161904D01*
X156992380Y-54733333D02*
X156992380Y-54923809D01*
X157040000Y-55019047D01*
X157087619Y-55066666D01*
X157230476Y-55161904D01*
X157420952Y-55209523D01*
X157801904Y-55209523D01*
X157897142Y-55161904D01*
X157944761Y-55114285D01*
X157992380Y-55019047D01*
X157992380Y-54828571D01*
X157944761Y-54733333D01*
X157897142Y-54685714D01*
X157801904Y-54638095D01*
X157563809Y-54638095D01*
X157468571Y-54685714D01*
X157420952Y-54733333D01*
X157373333Y-54828571D01*
X157373333Y-55019047D01*
X157420952Y-55114285D01*
X157468571Y-55161904D01*
X157563809Y-55209523D01*
X212487142Y-139112857D02*
X212534761Y-139160476D01*
X212582380Y-139303333D01*
X212582380Y-139398571D01*
X212534761Y-139541428D01*
X212439523Y-139636666D01*
X212344285Y-139684285D01*
X212153809Y-139731904D01*
X212010952Y-139731904D01*
X211820476Y-139684285D01*
X211725238Y-139636666D01*
X211630000Y-139541428D01*
X211582380Y-139398571D01*
X211582380Y-139303333D01*
X211630000Y-139160476D01*
X211677619Y-139112857D01*
X212582380Y-138160476D02*
X212582380Y-138731904D01*
X212582380Y-138446190D02*
X211582380Y-138446190D01*
X211725238Y-138541428D01*
X211820476Y-138636666D01*
X211868095Y-138731904D01*
X211582380Y-137827142D02*
X211582380Y-137160476D01*
X212582380Y-137589047D01*
X183507142Y-147602380D02*
X183173809Y-147126190D01*
X182935714Y-147602380D02*
X182935714Y-146602380D01*
X183316666Y-146602380D01*
X183411904Y-146650000D01*
X183459523Y-146697619D01*
X183507142Y-146792857D01*
X183507142Y-146935714D01*
X183459523Y-147030952D01*
X183411904Y-147078571D01*
X183316666Y-147126190D01*
X182935714Y-147126190D01*
X184459523Y-147602380D02*
X183888095Y-147602380D01*
X184173809Y-147602380D02*
X184173809Y-146602380D01*
X184078571Y-146745238D01*
X183983333Y-146840476D01*
X183888095Y-146888095D01*
X185030952Y-147030952D02*
X184935714Y-146983333D01*
X184888095Y-146935714D01*
X184840476Y-146840476D01*
X184840476Y-146792857D01*
X184888095Y-146697619D01*
X184935714Y-146650000D01*
X185030952Y-146602380D01*
X185221428Y-146602380D01*
X185316666Y-146650000D01*
X185364285Y-146697619D01*
X185411904Y-146792857D01*
X185411904Y-146840476D01*
X185364285Y-146935714D01*
X185316666Y-146983333D01*
X185221428Y-147030952D01*
X185030952Y-147030952D01*
X184935714Y-147078571D01*
X184888095Y-147126190D01*
X184840476Y-147221428D01*
X184840476Y-147411904D01*
X184888095Y-147507142D01*
X184935714Y-147554761D01*
X185030952Y-147602380D01*
X185221428Y-147602380D01*
X185316666Y-147554761D01*
X185364285Y-147507142D01*
X185411904Y-147411904D01*
X185411904Y-147221428D01*
X185364285Y-147126190D01*
X185316666Y-147078571D01*
X185221428Y-147030952D01*
X189857142Y-141327142D02*
X189809523Y-141374761D01*
X189666666Y-141422380D01*
X189571428Y-141422380D01*
X189428571Y-141374761D01*
X189333333Y-141279523D01*
X189285714Y-141184285D01*
X189238095Y-140993809D01*
X189238095Y-140850952D01*
X189285714Y-140660476D01*
X189333333Y-140565238D01*
X189428571Y-140470000D01*
X189571428Y-140422380D01*
X189666666Y-140422380D01*
X189809523Y-140470000D01*
X189857142Y-140517619D01*
X190238095Y-140517619D02*
X190285714Y-140470000D01*
X190380952Y-140422380D01*
X190619047Y-140422380D01*
X190714285Y-140470000D01*
X190761904Y-140517619D01*
X190809523Y-140612857D01*
X190809523Y-140708095D01*
X190761904Y-140850952D01*
X190190476Y-141422380D01*
X190809523Y-141422380D01*
X191428571Y-140422380D02*
X191523809Y-140422380D01*
X191619047Y-140470000D01*
X191666666Y-140517619D01*
X191714285Y-140612857D01*
X191761904Y-140803333D01*
X191761904Y-141041428D01*
X191714285Y-141231904D01*
X191666666Y-141327142D01*
X191619047Y-141374761D01*
X191523809Y-141422380D01*
X191428571Y-141422380D01*
X191333333Y-141374761D01*
X191285714Y-141327142D01*
X191238095Y-141231904D01*
X191190476Y-141041428D01*
X191190476Y-140803333D01*
X191238095Y-140612857D01*
X191285714Y-140517619D01*
X191333333Y-140470000D01*
X191428571Y-140422380D01*
X177633333Y-141327142D02*
X177585714Y-141374761D01*
X177442857Y-141422380D01*
X177347619Y-141422380D01*
X177204761Y-141374761D01*
X177109523Y-141279523D01*
X177061904Y-141184285D01*
X177014285Y-140993809D01*
X177014285Y-140850952D01*
X177061904Y-140660476D01*
X177109523Y-140565238D01*
X177204761Y-140470000D01*
X177347619Y-140422380D01*
X177442857Y-140422380D01*
X177585714Y-140470000D01*
X177633333Y-140517619D01*
X178490476Y-140755714D02*
X178490476Y-141422380D01*
X178252380Y-140374761D02*
X178014285Y-141089047D01*
X178633333Y-141089047D01*
X163492380Y-57911904D02*
X164301904Y-57911904D01*
X164397142Y-57864285D01*
X164444761Y-57816666D01*
X164492380Y-57721428D01*
X164492380Y-57530952D01*
X164444761Y-57435714D01*
X164397142Y-57388095D01*
X164301904Y-57340476D01*
X163492380Y-57340476D01*
X163825714Y-56435714D02*
X164492380Y-56435714D01*
X163444761Y-56673809D02*
X164159047Y-56911904D01*
X164159047Y-56292857D01*
X118737142Y-61582380D02*
X118403809Y-61106190D01*
X118165714Y-61582380D02*
X118165714Y-60582380D01*
X118546666Y-60582380D01*
X118641904Y-60630000D01*
X118689523Y-60677619D01*
X118737142Y-60772857D01*
X118737142Y-60915714D01*
X118689523Y-61010952D01*
X118641904Y-61058571D01*
X118546666Y-61106190D01*
X118165714Y-61106190D01*
X119689523Y-61582380D02*
X119118095Y-61582380D01*
X119403809Y-61582380D02*
X119403809Y-60582380D01*
X119308571Y-60725238D01*
X119213333Y-60820476D01*
X119118095Y-60868095D01*
X120022857Y-60582380D02*
X120689523Y-60582380D01*
X120260952Y-61582380D01*
X118737142Y-51422380D02*
X118403809Y-50946190D01*
X118165714Y-51422380D02*
X118165714Y-50422380D01*
X118546666Y-50422380D01*
X118641904Y-50470000D01*
X118689523Y-50517619D01*
X118737142Y-50612857D01*
X118737142Y-50755714D01*
X118689523Y-50850952D01*
X118641904Y-50898571D01*
X118546666Y-50946190D01*
X118165714Y-50946190D01*
X119689523Y-51422380D02*
X119118095Y-51422380D01*
X119403809Y-51422380D02*
X119403809Y-50422380D01*
X119308571Y-50565238D01*
X119213333Y-50660476D01*
X119118095Y-50708095D01*
X120546666Y-50422380D02*
X120356190Y-50422380D01*
X120260952Y-50470000D01*
X120213333Y-50517619D01*
X120118095Y-50660476D01*
X120070476Y-50850952D01*
X120070476Y-51231904D01*
X120118095Y-51327142D01*
X120165714Y-51374761D01*
X120260952Y-51422380D01*
X120451428Y-51422380D01*
X120546666Y-51374761D01*
X120594285Y-51327142D01*
X120641904Y-51231904D01*
X120641904Y-50993809D01*
X120594285Y-50898571D01*
X120546666Y-50850952D01*
X120451428Y-50803333D01*
X120260952Y-50803333D01*
X120165714Y-50850952D01*
X120118095Y-50898571D01*
X120070476Y-50993809D01*
X118737142Y-56502380D02*
X118403809Y-56026190D01*
X118165714Y-56502380D02*
X118165714Y-55502380D01*
X118546666Y-55502380D01*
X118641904Y-55550000D01*
X118689523Y-55597619D01*
X118737142Y-55692857D01*
X118737142Y-55835714D01*
X118689523Y-55930952D01*
X118641904Y-55978571D01*
X118546666Y-56026190D01*
X118165714Y-56026190D01*
X119689523Y-56502380D02*
X119118095Y-56502380D01*
X119403809Y-56502380D02*
X119403809Y-55502380D01*
X119308571Y-55645238D01*
X119213333Y-55740476D01*
X119118095Y-55788095D01*
X120594285Y-55502380D02*
X120118095Y-55502380D01*
X120070476Y-55978571D01*
X120118095Y-55930952D01*
X120213333Y-55883333D01*
X120451428Y-55883333D01*
X120546666Y-55930952D01*
X120594285Y-55978571D01*
X120641904Y-56073809D01*
X120641904Y-56311904D01*
X120594285Y-56407142D01*
X120546666Y-56454761D01*
X120451428Y-56502380D01*
X120213333Y-56502380D01*
X120118095Y-56454761D01*
X120070476Y-56407142D01*
X132377619Y-58515238D02*
X132330000Y-58610476D01*
X132234761Y-58705714D01*
X132091904Y-58848571D01*
X132044285Y-58943809D01*
X132044285Y-59039047D01*
X132282380Y-58991428D02*
X132234761Y-59086666D01*
X132139523Y-59181904D01*
X131949047Y-59229523D01*
X131615714Y-59229523D01*
X131425238Y-59181904D01*
X131330000Y-59086666D01*
X131282380Y-58991428D01*
X131282380Y-58800952D01*
X131330000Y-58705714D01*
X131425238Y-58610476D01*
X131615714Y-58562857D01*
X131949047Y-58562857D01*
X132139523Y-58610476D01*
X132234761Y-58705714D01*
X132282380Y-58800952D01*
X132282380Y-58991428D01*
X132282380Y-57610476D02*
X132282380Y-58181904D01*
X132282380Y-57896190D02*
X131282380Y-57896190D01*
X131425238Y-57991428D01*
X131520476Y-58086666D01*
X131568095Y-58181904D01*
X127531904Y-50832380D02*
X127531904Y-49832380D01*
X127770000Y-49832380D01*
X127912857Y-49880000D01*
X128008095Y-49975238D01*
X128055714Y-50070476D01*
X128103333Y-50260952D01*
X128103333Y-50403809D01*
X128055714Y-50594285D01*
X128008095Y-50689523D01*
X127912857Y-50784761D01*
X127770000Y-50832380D01*
X127531904Y-50832380D01*
X128960476Y-50165714D02*
X128960476Y-50832380D01*
X128722380Y-49784761D02*
X128484285Y-50499047D01*
X129103333Y-50499047D01*
X189897142Y-49927142D02*
X189849523Y-49974761D01*
X189706666Y-50022380D01*
X189611428Y-50022380D01*
X189468571Y-49974761D01*
X189373333Y-49879523D01*
X189325714Y-49784285D01*
X189278095Y-49593809D01*
X189278095Y-49450952D01*
X189325714Y-49260476D01*
X189373333Y-49165238D01*
X189468571Y-49070000D01*
X189611428Y-49022380D01*
X189706666Y-49022380D01*
X189849523Y-49070000D01*
X189897142Y-49117619D01*
X190849523Y-50022380D02*
X190278095Y-50022380D01*
X190563809Y-50022380D02*
X190563809Y-49022380D01*
X190468571Y-49165238D01*
X190373333Y-49260476D01*
X190278095Y-49308095D01*
X191325714Y-50022380D02*
X191516190Y-50022380D01*
X191611428Y-49974761D01*
X191659047Y-49927142D01*
X191754285Y-49784285D01*
X191801904Y-49593809D01*
X191801904Y-49212857D01*
X191754285Y-49117619D01*
X191706666Y-49070000D01*
X191611428Y-49022380D01*
X191420952Y-49022380D01*
X191325714Y-49070000D01*
X191278095Y-49117619D01*
X191230476Y-49212857D01*
X191230476Y-49450952D01*
X191278095Y-49546190D01*
X191325714Y-49593809D01*
X191420952Y-49641428D01*
X191611428Y-49641428D01*
X191706666Y-49593809D01*
X191754285Y-49546190D01*
X191801904Y-49450952D01*
X117348095Y-70782380D02*
X117348095Y-71591904D01*
X117395714Y-71687142D01*
X117443333Y-71734761D01*
X117538571Y-71782380D01*
X117729047Y-71782380D01*
X117824285Y-71734761D01*
X117871904Y-71687142D01*
X117919523Y-71591904D01*
X117919523Y-70782380D01*
X118919523Y-71782380D02*
X118348095Y-71782380D01*
X118633809Y-71782380D02*
X118633809Y-70782380D01*
X118538571Y-70925238D01*
X118443333Y-71020476D01*
X118348095Y-71068095D01*
X115300476Y-123702380D02*
X115967142Y-123702380D01*
X115300476Y-124702380D01*
X115967142Y-124702380D01*
X116490952Y-124130952D02*
X116395714Y-124083333D01*
X116348095Y-124035714D01*
X116300476Y-123940476D01*
X116300476Y-123892857D01*
X116348095Y-123797619D01*
X116395714Y-123750000D01*
X116490952Y-123702380D01*
X116681428Y-123702380D01*
X116776666Y-123750000D01*
X116824285Y-123797619D01*
X116871904Y-123892857D01*
X116871904Y-123940476D01*
X116824285Y-124035714D01*
X116776666Y-124083333D01*
X116681428Y-124130952D01*
X116490952Y-124130952D01*
X116395714Y-124178571D01*
X116348095Y-124226190D01*
X116300476Y-124321428D01*
X116300476Y-124511904D01*
X116348095Y-124607142D01*
X116395714Y-124654761D01*
X116490952Y-124702380D01*
X116681428Y-124702380D01*
X116776666Y-124654761D01*
X116824285Y-124607142D01*
X116871904Y-124511904D01*
X116871904Y-124321428D01*
X116824285Y-124226190D01*
X116776666Y-124178571D01*
X116681428Y-124130952D01*
X117490952Y-123702380D02*
X117586190Y-123702380D01*
X117681428Y-123750000D01*
X117729047Y-123797619D01*
X117776666Y-123892857D01*
X117824285Y-124083333D01*
X117824285Y-124321428D01*
X117776666Y-124511904D01*
X117729047Y-124607142D01*
X117681428Y-124654761D01*
X117586190Y-124702380D01*
X117490952Y-124702380D01*
X117395714Y-124654761D01*
X117348095Y-124607142D01*
X117300476Y-124511904D01*
X117252857Y-124321428D01*
X117252857Y-124083333D01*
X117300476Y-123892857D01*
X117348095Y-123797619D01*
X117395714Y-123750000D01*
X117490952Y-123702380D01*
X118824285Y-124607142D02*
X118776666Y-124654761D01*
X118633809Y-124702380D01*
X118538571Y-124702380D01*
X118395714Y-124654761D01*
X118300476Y-124559523D01*
X118252857Y-124464285D01*
X118205238Y-124273809D01*
X118205238Y-124130952D01*
X118252857Y-123940476D01*
X118300476Y-123845238D01*
X118395714Y-123750000D01*
X118538571Y-123702380D01*
X118633809Y-123702380D01*
X118776666Y-123750000D01*
X118824285Y-123797619D01*
X119252857Y-124702380D02*
X119252857Y-123702380D01*
X119633809Y-123702380D01*
X119729047Y-123750000D01*
X119776666Y-123797619D01*
X119824285Y-123892857D01*
X119824285Y-124035714D01*
X119776666Y-124130952D01*
X119729047Y-124178571D01*
X119633809Y-124226190D01*
X119252857Y-124226190D01*
X120252857Y-123702380D02*
X120252857Y-124511904D01*
X120300476Y-124607142D01*
X120348095Y-124654761D01*
X120443333Y-124702380D01*
X120633809Y-124702380D01*
X120729047Y-124654761D01*
X120776666Y-124607142D01*
X120824285Y-124511904D01*
X120824285Y-123702380D01*
X181443333Y-53962380D02*
X181110000Y-53486190D01*
X180871904Y-53962380D02*
X180871904Y-52962380D01*
X181252857Y-52962380D01*
X181348095Y-53010000D01*
X181395714Y-53057619D01*
X181443333Y-53152857D01*
X181443333Y-53295714D01*
X181395714Y-53390952D01*
X181348095Y-53438571D01*
X181252857Y-53486190D01*
X180871904Y-53486190D01*
X181776666Y-52962380D02*
X182395714Y-52962380D01*
X182062380Y-53343333D01*
X182205238Y-53343333D01*
X182300476Y-53390952D01*
X182348095Y-53438571D01*
X182395714Y-53533809D01*
X182395714Y-53771904D01*
X182348095Y-53867142D01*
X182300476Y-53914761D01*
X182205238Y-53962380D01*
X181919523Y-53962380D01*
X181824285Y-53914761D01*
X181776666Y-53867142D01*
X136822380Y-57911904D02*
X137631904Y-57911904D01*
X137727142Y-57864285D01*
X137774761Y-57816666D01*
X137822380Y-57721428D01*
X137822380Y-57530952D01*
X137774761Y-57435714D01*
X137727142Y-57388095D01*
X137631904Y-57340476D01*
X136822380Y-57340476D01*
X136822380Y-56388095D02*
X136822380Y-56864285D01*
X137298571Y-56911904D01*
X137250952Y-56864285D01*
X137203333Y-56769047D01*
X137203333Y-56530952D01*
X137250952Y-56435714D01*
X137298571Y-56388095D01*
X137393809Y-56340476D01*
X137631904Y-56340476D01*
X137727142Y-56388095D01*
X137774761Y-56435714D01*
X137822380Y-56530952D01*
X137822380Y-56769047D01*
X137774761Y-56864285D01*
X137727142Y-56911904D01*
X177673333Y-67707142D02*
X177625714Y-67754761D01*
X177482857Y-67802380D01*
X177387619Y-67802380D01*
X177244761Y-67754761D01*
X177149523Y-67659523D01*
X177101904Y-67564285D01*
X177054285Y-67373809D01*
X177054285Y-67230952D01*
X177101904Y-67040476D01*
X177149523Y-66945238D01*
X177244761Y-66850000D01*
X177387619Y-66802380D01*
X177482857Y-66802380D01*
X177625714Y-66850000D01*
X177673333Y-66897619D01*
X178006666Y-66802380D02*
X178625714Y-66802380D01*
X178292380Y-67183333D01*
X178435238Y-67183333D01*
X178530476Y-67230952D01*
X178578095Y-67278571D01*
X178625714Y-67373809D01*
X178625714Y-67611904D01*
X178578095Y-67707142D01*
X178530476Y-67754761D01*
X178435238Y-67802380D01*
X178149523Y-67802380D01*
X178054285Y-67754761D01*
X178006666Y-67707142D01*
X171958095Y-70782380D02*
X171958095Y-71591904D01*
X172005714Y-71687142D01*
X172053333Y-71734761D01*
X172148571Y-71782380D01*
X172339047Y-71782380D01*
X172434285Y-71734761D01*
X172481904Y-71687142D01*
X172529523Y-71591904D01*
X172529523Y-70782380D01*
X172910476Y-70782380D02*
X173529523Y-70782380D01*
X173196190Y-71163333D01*
X173339047Y-71163333D01*
X173434285Y-71210952D01*
X173481904Y-71258571D01*
X173529523Y-71353809D01*
X173529523Y-71591904D01*
X173481904Y-71687142D01*
X173434285Y-71734761D01*
X173339047Y-71782380D01*
X173053333Y-71782380D01*
X172958095Y-71734761D01*
X172910476Y-71687142D01*
X217567142Y-139112857D02*
X217614761Y-139160476D01*
X217662380Y-139303333D01*
X217662380Y-139398571D01*
X217614761Y-139541428D01*
X217519523Y-139636666D01*
X217424285Y-139684285D01*
X217233809Y-139731904D01*
X217090952Y-139731904D01*
X216900476Y-139684285D01*
X216805238Y-139636666D01*
X216710000Y-139541428D01*
X216662380Y-139398571D01*
X216662380Y-139303333D01*
X216710000Y-139160476D01*
X216757619Y-139112857D01*
X217662380Y-138160476D02*
X217662380Y-138731904D01*
X217662380Y-138446190D02*
X216662380Y-138446190D01*
X216805238Y-138541428D01*
X216900476Y-138636666D01*
X216948095Y-138731904D01*
X216662380Y-137255714D02*
X216662380Y-137731904D01*
X217138571Y-137779523D01*
X217090952Y-137731904D01*
X217043333Y-137636666D01*
X217043333Y-137398571D01*
X217090952Y-137303333D01*
X217138571Y-137255714D01*
X217233809Y-137208095D01*
X217471904Y-137208095D01*
X217567142Y-137255714D01*
X217614761Y-137303333D01*
X217662380Y-137398571D01*
X217662380Y-137636666D01*
X217614761Y-137731904D01*
X217567142Y-137779523D01*
X198628095Y-70782380D02*
X198628095Y-71591904D01*
X198675714Y-71687142D01*
X198723333Y-71734761D01*
X198818571Y-71782380D01*
X199009047Y-71782380D01*
X199104285Y-71734761D01*
X199151904Y-71687142D01*
X199199523Y-71591904D01*
X199199523Y-70782380D01*
X199818571Y-71210952D02*
X199723333Y-71163333D01*
X199675714Y-71115714D01*
X199628095Y-71020476D01*
X199628095Y-70972857D01*
X199675714Y-70877619D01*
X199723333Y-70830000D01*
X199818571Y-70782380D01*
X200009047Y-70782380D01*
X200104285Y-70830000D01*
X200151904Y-70877619D01*
X200199523Y-70972857D01*
X200199523Y-71020476D01*
X200151904Y-71115714D01*
X200104285Y-71163333D01*
X200009047Y-71210952D01*
X199818571Y-71210952D01*
X199723333Y-71258571D01*
X199675714Y-71306190D01*
X199628095Y-71401428D01*
X199628095Y-71591904D01*
X199675714Y-71687142D01*
X199723333Y-71734761D01*
X199818571Y-71782380D01*
X200009047Y-71782380D01*
X200104285Y-71734761D01*
X200151904Y-71687142D01*
X200199523Y-71591904D01*
X200199523Y-71401428D01*
X200151904Y-71306190D01*
X200104285Y-71258571D01*
X200009047Y-71210952D01*
X197770952Y-124702380D02*
X197199523Y-124702380D01*
X197485238Y-124702380D02*
X197485238Y-123702380D01*
X197390000Y-123845238D01*
X197294761Y-123940476D01*
X197199523Y-123988095D01*
X198628095Y-123702380D02*
X198437619Y-123702380D01*
X198342380Y-123750000D01*
X198294761Y-123797619D01*
X198199523Y-123940476D01*
X198151904Y-124130952D01*
X198151904Y-124511904D01*
X198199523Y-124607142D01*
X198247142Y-124654761D01*
X198342380Y-124702380D01*
X198532857Y-124702380D01*
X198628095Y-124654761D01*
X198675714Y-124607142D01*
X198723333Y-124511904D01*
X198723333Y-124273809D01*
X198675714Y-124178571D01*
X198628095Y-124130952D01*
X198532857Y-124083333D01*
X198342380Y-124083333D01*
X198247142Y-124130952D01*
X198199523Y-124178571D01*
X198151904Y-124273809D01*
X199628095Y-123702380D02*
X199151904Y-123702380D01*
X199104285Y-124178571D01*
X199151904Y-124130952D01*
X199247142Y-124083333D01*
X199485238Y-124083333D01*
X199580476Y-124130952D01*
X199628095Y-124178571D01*
X199675714Y-124273809D01*
X199675714Y-124511904D01*
X199628095Y-124607142D01*
X199580476Y-124654761D01*
X199485238Y-124702380D01*
X199247142Y-124702380D01*
X199151904Y-124654761D01*
X199104285Y-124607142D01*
X200580476Y-123702380D02*
X200104285Y-123702380D01*
X200056666Y-124178571D01*
X200104285Y-124130952D01*
X200199523Y-124083333D01*
X200437619Y-124083333D01*
X200532857Y-124130952D01*
X200580476Y-124178571D01*
X200628095Y-124273809D01*
X200628095Y-124511904D01*
X200580476Y-124607142D01*
X200532857Y-124654761D01*
X200437619Y-124702380D01*
X200199523Y-124702380D01*
X200104285Y-124654761D01*
X200056666Y-124607142D01*
X201247142Y-123702380D02*
X201342380Y-123702380D01*
X201437619Y-123750000D01*
X201485238Y-123797619D01*
X201532857Y-123892857D01*
X201580476Y-124083333D01*
X201580476Y-124321428D01*
X201532857Y-124511904D01*
X201485238Y-124607142D01*
X201437619Y-124654761D01*
X201342380Y-124702380D01*
X201247142Y-124702380D01*
X201151904Y-124654761D01*
X201104285Y-124607142D01*
X201056666Y-124511904D01*
X201009047Y-124321428D01*
X201009047Y-124083333D01*
X201056666Y-123892857D01*
X201104285Y-123797619D01*
X201151904Y-123750000D01*
X201247142Y-123702380D01*
X223208095Y-70902380D02*
X223208095Y-71711904D01*
X223255714Y-71807142D01*
X223303333Y-71854761D01*
X223398571Y-71902380D01*
X223589047Y-71902380D01*
X223684285Y-71854761D01*
X223731904Y-71807142D01*
X223779523Y-71711904D01*
X223779523Y-70902380D01*
X224160476Y-70902380D02*
X224827142Y-70902380D01*
X224398571Y-71902380D01*
X221517619Y-124250952D02*
X221422380Y-124203333D01*
X221374761Y-124155714D01*
X221327142Y-124060476D01*
X221327142Y-124012857D01*
X221374761Y-123917619D01*
X221422380Y-123870000D01*
X221517619Y-123822380D01*
X221708095Y-123822380D01*
X221803333Y-123870000D01*
X221850952Y-123917619D01*
X221898571Y-124012857D01*
X221898571Y-124060476D01*
X221850952Y-124155714D01*
X221803333Y-124203333D01*
X221708095Y-124250952D01*
X221517619Y-124250952D01*
X221422380Y-124298571D01*
X221374761Y-124346190D01*
X221327142Y-124441428D01*
X221327142Y-124631904D01*
X221374761Y-124727142D01*
X221422380Y-124774761D01*
X221517619Y-124822380D01*
X221708095Y-124822380D01*
X221803333Y-124774761D01*
X221850952Y-124727142D01*
X221898571Y-124631904D01*
X221898571Y-124441428D01*
X221850952Y-124346190D01*
X221803333Y-124298571D01*
X221708095Y-124250952D01*
X222279523Y-123917619D02*
X222327142Y-123870000D01*
X222422380Y-123822380D01*
X222660476Y-123822380D01*
X222755714Y-123870000D01*
X222803333Y-123917619D01*
X222850952Y-124012857D01*
X222850952Y-124108095D01*
X222803333Y-124250952D01*
X222231904Y-124822380D01*
X222850952Y-124822380D01*
X223850952Y-124727142D02*
X223803333Y-124774761D01*
X223660476Y-124822380D01*
X223565238Y-124822380D01*
X223422380Y-124774761D01*
X223327142Y-124679523D01*
X223279523Y-124584285D01*
X223231904Y-124393809D01*
X223231904Y-124250952D01*
X223279523Y-124060476D01*
X223327142Y-123965238D01*
X223422380Y-123870000D01*
X223565238Y-123822380D01*
X223660476Y-123822380D01*
X223803333Y-123870000D01*
X223850952Y-123917619D01*
X224755714Y-123822380D02*
X224279523Y-123822380D01*
X224231904Y-124298571D01*
X224279523Y-124250952D01*
X224374761Y-124203333D01*
X224612857Y-124203333D01*
X224708095Y-124250952D01*
X224755714Y-124298571D01*
X224803333Y-124393809D01*
X224803333Y-124631904D01*
X224755714Y-124727142D01*
X224708095Y-124774761D01*
X224612857Y-124822380D01*
X224374761Y-124822380D01*
X224279523Y-124774761D01*
X224231904Y-124727142D01*
X225708095Y-123822380D02*
X225231904Y-123822380D01*
X225184285Y-124298571D01*
X225231904Y-124250952D01*
X225327142Y-124203333D01*
X225565238Y-124203333D01*
X225660476Y-124250952D01*
X225708095Y-124298571D01*
X225755714Y-124393809D01*
X225755714Y-124631904D01*
X225708095Y-124727142D01*
X225660476Y-124774761D01*
X225565238Y-124822380D01*
X225327142Y-124822380D01*
X225231904Y-124774761D01*
X225184285Y-124727142D01*
X226136666Y-124536666D02*
X226612857Y-124536666D01*
X226041428Y-124822380D02*
X226374761Y-123822380D01*
X226708095Y-124822380D01*
X223456666Y-50144761D02*
X223599523Y-50192380D01*
X223837619Y-50192380D01*
X223932857Y-50144761D01*
X223980476Y-50097142D01*
X224028095Y-50001904D01*
X224028095Y-49906666D01*
X223980476Y-49811428D01*
X223932857Y-49763809D01*
X223837619Y-49716190D01*
X223647142Y-49668571D01*
X223551904Y-49620952D01*
X223504285Y-49573333D01*
X223456666Y-49478095D01*
X223456666Y-49382857D01*
X223504285Y-49287619D01*
X223551904Y-49240000D01*
X223647142Y-49192380D01*
X223885238Y-49192380D01*
X224028095Y-49240000D01*
X224361428Y-49192380D02*
X224599523Y-50192380D01*
X224790000Y-49478095D01*
X224980476Y-50192380D01*
X225218571Y-49192380D01*
X225551904Y-49287619D02*
X225599523Y-49240000D01*
X225694761Y-49192380D01*
X225932857Y-49192380D01*
X226028095Y-49240000D01*
X226075714Y-49287619D01*
X226123333Y-49382857D01*
X226123333Y-49478095D01*
X226075714Y-49620952D01*
X225504285Y-50192380D01*
X226123333Y-50192380D01*
X211447142Y-66322380D02*
X211113809Y-65846190D01*
X210875714Y-66322380D02*
X210875714Y-65322380D01*
X211256666Y-65322380D01*
X211351904Y-65370000D01*
X211399523Y-65417619D01*
X211447142Y-65512857D01*
X211447142Y-65655714D01*
X211399523Y-65750952D01*
X211351904Y-65798571D01*
X211256666Y-65846190D01*
X210875714Y-65846190D01*
X212399523Y-66322380D02*
X211828095Y-66322380D01*
X212113809Y-66322380D02*
X212113809Y-65322380D01*
X212018571Y-65465238D01*
X211923333Y-65560476D01*
X211828095Y-65608095D01*
X213256666Y-65655714D02*
X213256666Y-66322380D01*
X213018571Y-65274761D02*
X212780476Y-65989047D01*
X213399523Y-65989047D01*
X211447142Y-62512380D02*
X211113809Y-62036190D01*
X210875714Y-62512380D02*
X210875714Y-61512380D01*
X211256666Y-61512380D01*
X211351904Y-61560000D01*
X211399523Y-61607619D01*
X211447142Y-61702857D01*
X211447142Y-61845714D01*
X211399523Y-61940952D01*
X211351904Y-61988571D01*
X211256666Y-62036190D01*
X210875714Y-62036190D01*
X212399523Y-62512380D02*
X211828095Y-62512380D01*
X212113809Y-62512380D02*
X212113809Y-61512380D01*
X212018571Y-61655238D01*
X211923333Y-61750476D01*
X211828095Y-61798095D01*
X212732857Y-61512380D02*
X213351904Y-61512380D01*
X213018571Y-61893333D01*
X213161428Y-61893333D01*
X213256666Y-61940952D01*
X213304285Y-61988571D01*
X213351904Y-62083809D01*
X213351904Y-62321904D01*
X213304285Y-62417142D01*
X213256666Y-62464761D01*
X213161428Y-62512380D01*
X212875714Y-62512380D01*
X212780476Y-62464761D01*
X212732857Y-62417142D01*
X211447142Y-58702380D02*
X211113809Y-58226190D01*
X210875714Y-58702380D02*
X210875714Y-57702380D01*
X211256666Y-57702380D01*
X211351904Y-57750000D01*
X211399523Y-57797619D01*
X211447142Y-57892857D01*
X211447142Y-58035714D01*
X211399523Y-58130952D01*
X211351904Y-58178571D01*
X211256666Y-58226190D01*
X210875714Y-58226190D01*
X212399523Y-58702380D02*
X211828095Y-58702380D01*
X212113809Y-58702380D02*
X212113809Y-57702380D01*
X212018571Y-57845238D01*
X211923333Y-57940476D01*
X211828095Y-57988095D01*
X212780476Y-57797619D02*
X212828095Y-57750000D01*
X212923333Y-57702380D01*
X213161428Y-57702380D01*
X213256666Y-57750000D01*
X213304285Y-57797619D01*
X213351904Y-57892857D01*
X213351904Y-57988095D01*
X213304285Y-58130952D01*
X212732857Y-58702380D01*
X213351904Y-58702380D01*
X211447142Y-54892380D02*
X211113809Y-54416190D01*
X210875714Y-54892380D02*
X210875714Y-53892380D01*
X211256666Y-53892380D01*
X211351904Y-53940000D01*
X211399523Y-53987619D01*
X211447142Y-54082857D01*
X211447142Y-54225714D01*
X211399523Y-54320952D01*
X211351904Y-54368571D01*
X211256666Y-54416190D01*
X210875714Y-54416190D01*
X212399523Y-54892380D02*
X211828095Y-54892380D01*
X212113809Y-54892380D02*
X212113809Y-53892380D01*
X212018571Y-54035238D01*
X211923333Y-54130476D01*
X211828095Y-54178095D01*
X213351904Y-54892380D02*
X212780476Y-54892380D01*
X213066190Y-54892380D02*
X213066190Y-53892380D01*
X212970952Y-54035238D01*
X212875714Y-54130476D01*
X212780476Y-54178095D01*
X243197142Y-70132380D02*
X242863809Y-69656190D01*
X242625714Y-70132380D02*
X242625714Y-69132380D01*
X243006666Y-69132380D01*
X243101904Y-69180000D01*
X243149523Y-69227619D01*
X243197142Y-69322857D01*
X243197142Y-69465714D01*
X243149523Y-69560952D01*
X243101904Y-69608571D01*
X243006666Y-69656190D01*
X242625714Y-69656190D01*
X244149523Y-70132380D02*
X243578095Y-70132380D01*
X243863809Y-70132380D02*
X243863809Y-69132380D01*
X243768571Y-69275238D01*
X243673333Y-69370476D01*
X243578095Y-69418095D01*
X244768571Y-69132380D02*
X244863809Y-69132380D01*
X244959047Y-69180000D01*
X245006666Y-69227619D01*
X245054285Y-69322857D01*
X245101904Y-69513333D01*
X245101904Y-69751428D01*
X245054285Y-69941904D01*
X245006666Y-70037142D01*
X244959047Y-70084761D01*
X244863809Y-70132380D01*
X244768571Y-70132380D01*
X244673333Y-70084761D01*
X244625714Y-70037142D01*
X244578095Y-69941904D01*
X244530476Y-69751428D01*
X244530476Y-69513333D01*
X244578095Y-69322857D01*
X244625714Y-69227619D01*
X244673333Y-69180000D01*
X244768571Y-69132380D01*
X250721904Y-70722380D02*
X250721904Y-69722380D01*
X250960000Y-69722380D01*
X251102857Y-69770000D01*
X251198095Y-69865238D01*
X251245714Y-69960476D01*
X251293333Y-70150952D01*
X251293333Y-70293809D01*
X251245714Y-70484285D01*
X251198095Y-70579523D01*
X251102857Y-70674761D01*
X250960000Y-70722380D01*
X250721904Y-70722380D01*
X251626666Y-69722380D02*
X252245714Y-69722380D01*
X251912380Y-70103333D01*
X252055238Y-70103333D01*
X252150476Y-70150952D01*
X252198095Y-70198571D01*
X252245714Y-70293809D01*
X252245714Y-70531904D01*
X252198095Y-70627142D01*
X252150476Y-70674761D01*
X252055238Y-70722380D01*
X251769523Y-70722380D01*
X251674285Y-70674761D01*
X251626666Y-70627142D01*
X243673333Y-124742380D02*
X243340000Y-124266190D01*
X243101904Y-124742380D02*
X243101904Y-123742380D01*
X243482857Y-123742380D01*
X243578095Y-123790000D01*
X243625714Y-123837619D01*
X243673333Y-123932857D01*
X243673333Y-124075714D01*
X243625714Y-124170952D01*
X243578095Y-124218571D01*
X243482857Y-124266190D01*
X243101904Y-124266190D01*
X244149523Y-124742380D02*
X244340000Y-124742380D01*
X244435238Y-124694761D01*
X244482857Y-124647142D01*
X244578095Y-124504285D01*
X244625714Y-124313809D01*
X244625714Y-123932857D01*
X244578095Y-123837619D01*
X244530476Y-123790000D01*
X244435238Y-123742380D01*
X244244761Y-123742380D01*
X244149523Y-123790000D01*
X244101904Y-123837619D01*
X244054285Y-123932857D01*
X244054285Y-124170952D01*
X244101904Y-124266190D01*
X244149523Y-124313809D01*
X244244761Y-124361428D01*
X244435238Y-124361428D01*
X244530476Y-124313809D01*
X244578095Y-124266190D01*
X244625714Y-124170952D01*
X243673333Y-118392380D02*
X243340000Y-117916190D01*
X243101904Y-118392380D02*
X243101904Y-117392380D01*
X243482857Y-117392380D01*
X243578095Y-117440000D01*
X243625714Y-117487619D01*
X243673333Y-117582857D01*
X243673333Y-117725714D01*
X243625714Y-117820952D01*
X243578095Y-117868571D01*
X243482857Y-117916190D01*
X243101904Y-117916190D01*
X244244761Y-117820952D02*
X244149523Y-117773333D01*
X244101904Y-117725714D01*
X244054285Y-117630476D01*
X244054285Y-117582857D01*
X244101904Y-117487619D01*
X244149523Y-117440000D01*
X244244761Y-117392380D01*
X244435238Y-117392380D01*
X244530476Y-117440000D01*
X244578095Y-117487619D01*
X244625714Y-117582857D01*
X244625714Y-117630476D01*
X244578095Y-117725714D01*
X244530476Y-117773333D01*
X244435238Y-117820952D01*
X244244761Y-117820952D01*
X244149523Y-117868571D01*
X244101904Y-117916190D01*
X244054285Y-118011428D01*
X244054285Y-118201904D01*
X244101904Y-118297142D01*
X244149523Y-118344761D01*
X244244761Y-118392380D01*
X244435238Y-118392380D01*
X244530476Y-118344761D01*
X244578095Y-118297142D01*
X244625714Y-118201904D01*
X244625714Y-118011428D01*
X244578095Y-117916190D01*
X244530476Y-117868571D01*
X244435238Y-117820952D01*
X250721904Y-125332380D02*
X250721904Y-124332380D01*
X250960000Y-124332380D01*
X251102857Y-124380000D01*
X251198095Y-124475238D01*
X251245714Y-124570476D01*
X251293333Y-124760952D01*
X251293333Y-124903809D01*
X251245714Y-125094285D01*
X251198095Y-125189523D01*
X251102857Y-125284761D01*
X250960000Y-125332380D01*
X250721904Y-125332380D01*
X251674285Y-124427619D02*
X251721904Y-124380000D01*
X251817142Y-124332380D01*
X252055238Y-124332380D01*
X252150476Y-124380000D01*
X252198095Y-124427619D01*
X252245714Y-124522857D01*
X252245714Y-124618095D01*
X252198095Y-124760952D01*
X251626666Y-125332380D01*
X252245714Y-125332380D01*
X250721904Y-118982380D02*
X250721904Y-117982380D01*
X250960000Y-117982380D01*
X251102857Y-118030000D01*
X251198095Y-118125238D01*
X251245714Y-118220476D01*
X251293333Y-118410952D01*
X251293333Y-118553809D01*
X251245714Y-118744285D01*
X251198095Y-118839523D01*
X251102857Y-118934761D01*
X250960000Y-118982380D01*
X250721904Y-118982380D01*
X252245714Y-118982380D02*
X251674285Y-118982380D01*
X251960000Y-118982380D02*
X251960000Y-117982380D01*
X251864761Y-118125238D01*
X251769523Y-118220476D01*
X251674285Y-118268095D01*
X216669166Y-130358571D02*
X216335833Y-130358571D01*
X216335833Y-130882380D02*
X216335833Y-129882380D01*
X216812023Y-129882380D01*
X217526309Y-130358571D02*
X217669166Y-130406190D01*
X217716785Y-130453809D01*
X217764404Y-130549047D01*
X217764404Y-130691904D01*
X217716785Y-130787142D01*
X217669166Y-130834761D01*
X217573928Y-130882380D01*
X217192976Y-130882380D01*
X217192976Y-129882380D01*
X217526309Y-129882380D01*
X217621547Y-129930000D01*
X217669166Y-129977619D01*
X217716785Y-130072857D01*
X217716785Y-130168095D01*
X217669166Y-130263333D01*
X217621547Y-130310952D01*
X217526309Y-130358571D01*
X217192976Y-130358571D01*
X218716785Y-130882380D02*
X218145357Y-130882380D01*
X218431071Y-130882380D02*
X218431071Y-129882380D01*
X218335833Y-130025238D01*
X218240595Y-130120476D01*
X218145357Y-130168095D01*
X247182380Y-137493333D02*
X247896666Y-137493333D01*
X248039523Y-137540952D01*
X248134761Y-137636190D01*
X248182380Y-137779047D01*
X248182380Y-137874285D01*
X247182380Y-137112380D02*
X247182380Y-136493333D01*
X247563333Y-136826666D01*
X247563333Y-136683809D01*
X247610952Y-136588571D01*
X247658571Y-136540952D01*
X247753809Y-136493333D01*
X247991904Y-136493333D01*
X248087142Y-136540952D01*
X248134761Y-136588571D01*
X248182380Y-136683809D01*
X248182380Y-136969523D01*
X248134761Y-137064761D01*
X248087142Y-137112380D01*
X250837142Y-127847142D02*
X250789523Y-127894761D01*
X250646666Y-127942380D01*
X250551428Y-127942380D01*
X250408571Y-127894761D01*
X250313333Y-127799523D01*
X250265714Y-127704285D01*
X250218095Y-127513809D01*
X250218095Y-127370952D01*
X250265714Y-127180476D01*
X250313333Y-127085238D01*
X250408571Y-126990000D01*
X250551428Y-126942380D01*
X250646666Y-126942380D01*
X250789523Y-126990000D01*
X250837142Y-127037619D01*
X251789523Y-127942380D02*
X251218095Y-127942380D01*
X251503809Y-127942380D02*
X251503809Y-126942380D01*
X251408571Y-127085238D01*
X251313333Y-127180476D01*
X251218095Y-127228095D01*
X252408571Y-126942380D02*
X252503809Y-126942380D01*
X252599047Y-126990000D01*
X252646666Y-127037619D01*
X252694285Y-127132857D01*
X252741904Y-127323333D01*
X252741904Y-127561428D01*
X252694285Y-127751904D01*
X252646666Y-127847142D01*
X252599047Y-127894761D01*
X252503809Y-127942380D01*
X252408571Y-127942380D01*
X252313333Y-127894761D01*
X252265714Y-127847142D01*
X252218095Y-127751904D01*
X252170476Y-127561428D01*
X252170476Y-127323333D01*
X252218095Y-127132857D01*
X252265714Y-127037619D01*
X252313333Y-126990000D01*
X252408571Y-126942380D01*
X241167142Y-139052857D02*
X241214761Y-139100476D01*
X241262380Y-139243333D01*
X241262380Y-139338571D01*
X241214761Y-139481428D01*
X241119523Y-139576666D01*
X241024285Y-139624285D01*
X240833809Y-139671904D01*
X240690952Y-139671904D01*
X240500476Y-139624285D01*
X240405238Y-139576666D01*
X240310000Y-139481428D01*
X240262380Y-139338571D01*
X240262380Y-139243333D01*
X240310000Y-139100476D01*
X240357619Y-139052857D01*
X241262380Y-138100476D02*
X241262380Y-138671904D01*
X241262380Y-138386190D02*
X240262380Y-138386190D01*
X240405238Y-138481428D01*
X240500476Y-138576666D01*
X240548095Y-138671904D01*
X240357619Y-137719523D02*
X240310000Y-137671904D01*
X240262380Y-137576666D01*
X240262380Y-137338571D01*
X240310000Y-137243333D01*
X240357619Y-137195714D01*
X240452857Y-137148095D01*
X240548095Y-137148095D01*
X240690952Y-137195714D01*
X241262380Y-137767142D01*
X241262380Y-137148095D01*
X237357142Y-139052857D02*
X237404761Y-139100476D01*
X237452380Y-139243333D01*
X237452380Y-139338571D01*
X237404761Y-139481428D01*
X237309523Y-139576666D01*
X237214285Y-139624285D01*
X237023809Y-139671904D01*
X236880952Y-139671904D01*
X236690476Y-139624285D01*
X236595238Y-139576666D01*
X236500000Y-139481428D01*
X236452380Y-139338571D01*
X236452380Y-139243333D01*
X236500000Y-139100476D01*
X236547619Y-139052857D01*
X237452380Y-138100476D02*
X237452380Y-138671904D01*
X237452380Y-138386190D02*
X236452380Y-138386190D01*
X236595238Y-138481428D01*
X236690476Y-138576666D01*
X236738095Y-138671904D01*
X237452380Y-137148095D02*
X237452380Y-137719523D01*
X237452380Y-137433809D02*
X236452380Y-137433809D01*
X236595238Y-137529047D01*
X236690476Y-137624285D01*
X236738095Y-137719523D01*
X248146666Y-64634761D02*
X248289523Y-64682380D01*
X248527619Y-64682380D01*
X248622857Y-64634761D01*
X248670476Y-64587142D01*
X248718095Y-64491904D01*
X248718095Y-64396666D01*
X248670476Y-64301428D01*
X248622857Y-64253809D01*
X248527619Y-64206190D01*
X248337142Y-64158571D01*
X248241904Y-64110952D01*
X248194285Y-64063333D01*
X248146666Y-63968095D01*
X248146666Y-63872857D01*
X248194285Y-63777619D01*
X248241904Y-63730000D01*
X248337142Y-63682380D01*
X248575238Y-63682380D01*
X248718095Y-63730000D01*
X249051428Y-63682380D02*
X249289523Y-64682380D01*
X249480000Y-63968095D01*
X249670476Y-64682380D01*
X249908571Y-63682380D01*
X250813333Y-64682380D02*
X250241904Y-64682380D01*
X250527619Y-64682380D02*
X250527619Y-63682380D01*
X250432380Y-63825238D01*
X250337142Y-63920476D01*
X250241904Y-63968095D01*
X247527619Y-55982380D02*
X247194285Y-55506190D01*
X246956190Y-55982380D02*
X246956190Y-54982380D01*
X247337142Y-54982380D01*
X247432380Y-55030000D01*
X247480000Y-55077619D01*
X247527619Y-55172857D01*
X247527619Y-55315714D01*
X247480000Y-55410952D01*
X247432380Y-55458571D01*
X247337142Y-55506190D01*
X246956190Y-55506190D01*
X247956190Y-55458571D02*
X248289523Y-55458571D01*
X248432380Y-55982380D02*
X247956190Y-55982380D01*
X247956190Y-54982380D01*
X248432380Y-54982380D01*
X248813333Y-55934761D02*
X248956190Y-55982380D01*
X249194285Y-55982380D01*
X249289523Y-55934761D01*
X249337142Y-55887142D01*
X249384761Y-55791904D01*
X249384761Y-55696666D01*
X249337142Y-55601428D01*
X249289523Y-55553809D01*
X249194285Y-55506190D01*
X249003809Y-55458571D01*
X248908571Y-55410952D01*
X248860952Y-55363333D01*
X248813333Y-55268095D01*
X248813333Y-55172857D01*
X248860952Y-55077619D01*
X248908571Y-55030000D01*
X249003809Y-54982380D01*
X249241904Y-54982380D01*
X249384761Y-55030000D01*
X249813333Y-55458571D02*
X250146666Y-55458571D01*
X250289523Y-55982380D02*
X249813333Y-55982380D01*
X249813333Y-54982380D01*
X250289523Y-54982380D01*
X250575238Y-54982380D02*
X251146666Y-54982380D01*
X250860952Y-55982380D02*
X250860952Y-54982380D01*
X104692380Y-63039523D02*
X105692380Y-62372857D01*
X104692380Y-62372857D02*
X105692380Y-63039523D01*
X105692380Y-61468095D02*
X105692380Y-62039523D01*
X105692380Y-61753809D02*
X104692380Y-61753809D01*
X104835238Y-61849047D01*
X104930476Y-61944285D01*
X104978095Y-62039523D01*
X94602380Y-128136666D02*
X94126190Y-128470000D01*
X94602380Y-128708095D02*
X93602380Y-128708095D01*
X93602380Y-128327142D01*
X93650000Y-128231904D01*
X93697619Y-128184285D01*
X93792857Y-128136666D01*
X93935714Y-128136666D01*
X94030952Y-128184285D01*
X94078571Y-128231904D01*
X94126190Y-128327142D01*
X94126190Y-128708095D01*
X93602380Y-127279523D02*
X93602380Y-127470000D01*
X93650000Y-127565238D01*
X93697619Y-127612857D01*
X93840476Y-127708095D01*
X94030952Y-127755714D01*
X94411904Y-127755714D01*
X94507142Y-127708095D01*
X94554761Y-127660476D01*
X94602380Y-127565238D01*
X94602380Y-127374761D01*
X94554761Y-127279523D01*
X94507142Y-127231904D01*
X94411904Y-127184285D01*
X94173809Y-127184285D01*
X94078571Y-127231904D01*
X94030952Y-127279523D01*
X93983333Y-127374761D01*
X93983333Y-127565238D01*
X94030952Y-127660476D01*
X94078571Y-127708095D01*
X94173809Y-127755714D01*
X104762380Y-128136666D02*
X104286190Y-128470000D01*
X104762380Y-128708095D02*
X103762380Y-128708095D01*
X103762380Y-128327142D01*
X103810000Y-128231904D01*
X103857619Y-128184285D01*
X103952857Y-128136666D01*
X104095714Y-128136666D01*
X104190952Y-128184285D01*
X104238571Y-128231904D01*
X104286190Y-128327142D01*
X104286190Y-128708095D01*
X103762380Y-127231904D02*
X103762380Y-127708095D01*
X104238571Y-127755714D01*
X104190952Y-127708095D01*
X104143333Y-127612857D01*
X104143333Y-127374761D01*
X104190952Y-127279523D01*
X104238571Y-127231904D01*
X104333809Y-127184285D01*
X104571904Y-127184285D01*
X104667142Y-127231904D01*
X104714761Y-127279523D01*
X104762380Y-127374761D01*
X104762380Y-127612857D01*
X104714761Y-127708095D01*
X104667142Y-127755714D01*
X99682380Y-128136666D02*
X99206190Y-128470000D01*
X99682380Y-128708095D02*
X98682380Y-128708095D01*
X98682380Y-128327142D01*
X98730000Y-128231904D01*
X98777619Y-128184285D01*
X98872857Y-128136666D01*
X99015714Y-128136666D01*
X99110952Y-128184285D01*
X99158571Y-128231904D01*
X99206190Y-128327142D01*
X99206190Y-128708095D01*
X99015714Y-127279523D02*
X99682380Y-127279523D01*
X98634761Y-127517619D02*
X99349047Y-127755714D01*
X99349047Y-127136666D01*
X181443333Y-50152380D02*
X181110000Y-49676190D01*
X180871904Y-50152380D02*
X180871904Y-49152380D01*
X181252857Y-49152380D01*
X181348095Y-49200000D01*
X181395714Y-49247619D01*
X181443333Y-49342857D01*
X181443333Y-49485714D01*
X181395714Y-49580952D01*
X181348095Y-49628571D01*
X181252857Y-49676190D01*
X180871904Y-49676190D01*
X181824285Y-49247619D02*
X181871904Y-49200000D01*
X181967142Y-49152380D01*
X182205238Y-49152380D01*
X182300476Y-49200000D01*
X182348095Y-49247619D01*
X182395714Y-49342857D01*
X182395714Y-49438095D01*
X182348095Y-49580952D01*
X181776666Y-50152380D01*
X182395714Y-50152380D01*
X79676666Y-70572380D02*
X79676666Y-71286666D01*
X79629047Y-71429523D01*
X79533809Y-71524761D01*
X79390952Y-71572380D01*
X79295714Y-71572380D01*
X80676666Y-71572380D02*
X80105238Y-71572380D01*
X80390952Y-71572380D02*
X80390952Y-70572380D01*
X80295714Y-70715238D01*
X80200476Y-70810476D01*
X80105238Y-70858095D01*
X204263333Y-67707142D02*
X204215714Y-67754761D01*
X204072857Y-67802380D01*
X203977619Y-67802380D01*
X203834761Y-67754761D01*
X203739523Y-67659523D01*
X203691904Y-67564285D01*
X203644285Y-67373809D01*
X203644285Y-67230952D01*
X203691904Y-67040476D01*
X203739523Y-66945238D01*
X203834761Y-66850000D01*
X203977619Y-66802380D01*
X204072857Y-66802380D01*
X204215714Y-66850000D01*
X204263333Y-66897619D01*
X204739523Y-67802380D02*
X204930000Y-67802380D01*
X205025238Y-67754761D01*
X205072857Y-67707142D01*
X205168095Y-67564285D01*
X205215714Y-67373809D01*
X205215714Y-66992857D01*
X205168095Y-66897619D01*
X205120476Y-66850000D01*
X205025238Y-66802380D01*
X204834761Y-66802380D01*
X204739523Y-66850000D01*
X204691904Y-66897619D01*
X204644285Y-66992857D01*
X204644285Y-67230952D01*
X204691904Y-67326190D01*
X204739523Y-67373809D01*
X204834761Y-67421428D01*
X205025238Y-67421428D01*
X205120476Y-67373809D01*
X205168095Y-67326190D01*
X205215714Y-67230952D01*
X246253333Y-113347142D02*
X246205714Y-113394761D01*
X246062857Y-113442380D01*
X245967619Y-113442380D01*
X245824761Y-113394761D01*
X245729523Y-113299523D01*
X245681904Y-113204285D01*
X245634285Y-113013809D01*
X245634285Y-112870952D01*
X245681904Y-112680476D01*
X245729523Y-112585238D01*
X245824761Y-112490000D01*
X245967619Y-112442380D01*
X246062857Y-112442380D01*
X246205714Y-112490000D01*
X246253333Y-112537619D01*
X246824761Y-112870952D02*
X246729523Y-112823333D01*
X246681904Y-112775714D01*
X246634285Y-112680476D01*
X246634285Y-112632857D01*
X246681904Y-112537619D01*
X246729523Y-112490000D01*
X246824761Y-112442380D01*
X247015238Y-112442380D01*
X247110476Y-112490000D01*
X247158095Y-112537619D01*
X247205714Y-112632857D01*
X247205714Y-112680476D01*
X247158095Y-112775714D01*
X247110476Y-112823333D01*
X247015238Y-112870952D01*
X246824761Y-112870952D01*
X246729523Y-112918571D01*
X246681904Y-112966190D01*
X246634285Y-113061428D01*
X246634285Y-113251904D01*
X246681904Y-113347142D01*
X246729523Y-113394761D01*
X246824761Y-113442380D01*
X247015238Y-113442380D01*
X247110476Y-113394761D01*
X247158095Y-113347142D01*
X247205714Y-113251904D01*
X247205714Y-113061428D01*
X247158095Y-112966190D01*
X247110476Y-112918571D01*
X247015238Y-112870952D01*
X98853333Y-51197142D02*
X98805714Y-51244761D01*
X98662857Y-51292380D01*
X98567619Y-51292380D01*
X98424761Y-51244761D01*
X98329523Y-51149523D01*
X98281904Y-51054285D01*
X98234285Y-50863809D01*
X98234285Y-50720952D01*
X98281904Y-50530476D01*
X98329523Y-50435238D01*
X98424761Y-50340000D01*
X98567619Y-50292380D01*
X98662857Y-50292380D01*
X98805714Y-50340000D01*
X98853333Y-50387619D01*
X99186666Y-50292380D02*
X99853333Y-50292380D01*
X99424761Y-51292380D01*
X180133333Y-58817142D02*
X180085714Y-58864761D01*
X179942857Y-58912380D01*
X179847619Y-58912380D01*
X179704761Y-58864761D01*
X179609523Y-58769523D01*
X179561904Y-58674285D01*
X179514285Y-58483809D01*
X179514285Y-58340952D01*
X179561904Y-58150476D01*
X179609523Y-58055238D01*
X179704761Y-57960000D01*
X179847619Y-57912380D01*
X179942857Y-57912380D01*
X180085714Y-57960000D01*
X180133333Y-58007619D01*
X180990476Y-57912380D02*
X180800000Y-57912380D01*
X180704761Y-57960000D01*
X180657142Y-58007619D01*
X180561904Y-58150476D01*
X180514285Y-58340952D01*
X180514285Y-58721904D01*
X180561904Y-58817142D01*
X180609523Y-58864761D01*
X180704761Y-58912380D01*
X180895238Y-58912380D01*
X180990476Y-58864761D01*
X181038095Y-58817142D01*
X181085714Y-58721904D01*
X181085714Y-58483809D01*
X181038095Y-58388571D01*
X180990476Y-58340952D01*
X180895238Y-58293333D01*
X180704761Y-58293333D01*
X180609523Y-58340952D01*
X180561904Y-58388571D01*
X180514285Y-58483809D01*
X133747142Y-56086666D02*
X133794761Y-56134285D01*
X133842380Y-56277142D01*
X133842380Y-56372380D01*
X133794761Y-56515238D01*
X133699523Y-56610476D01*
X133604285Y-56658095D01*
X133413809Y-56705714D01*
X133270952Y-56705714D01*
X133080476Y-56658095D01*
X132985238Y-56610476D01*
X132890000Y-56515238D01*
X132842380Y-56372380D01*
X132842380Y-56277142D01*
X132890000Y-56134285D01*
X132937619Y-56086666D01*
X132842380Y-55181904D02*
X132842380Y-55658095D01*
X133318571Y-55705714D01*
X133270952Y-55658095D01*
X133223333Y-55562857D01*
X133223333Y-55324761D01*
X133270952Y-55229523D01*
X133318571Y-55181904D01*
X133413809Y-55134285D01*
X133651904Y-55134285D01*
X133747142Y-55181904D01*
X133794761Y-55229523D01*
X133842380Y-55324761D01*
X133842380Y-55562857D01*
X133794761Y-55658095D01*
X133747142Y-55705714D01*
X152193333Y-67707142D02*
X152145714Y-67754761D01*
X152002857Y-67802380D01*
X151907619Y-67802380D01*
X151764761Y-67754761D01*
X151669523Y-67659523D01*
X151621904Y-67564285D01*
X151574285Y-67373809D01*
X151574285Y-67230952D01*
X151621904Y-67040476D01*
X151669523Y-66945238D01*
X151764761Y-66850000D01*
X151907619Y-66802380D01*
X152002857Y-66802380D01*
X152145714Y-66850000D01*
X152193333Y-66897619D01*
X152574285Y-66897619D02*
X152621904Y-66850000D01*
X152717142Y-66802380D01*
X152955238Y-66802380D01*
X153050476Y-66850000D01*
X153098095Y-66897619D01*
X153145714Y-66992857D01*
X153145714Y-67088095D01*
X153098095Y-67230952D01*
X152526666Y-67802380D01*
X153145714Y-67802380D01*
X93107142Y-81486666D02*
X93154761Y-81534285D01*
X93202380Y-81677142D01*
X93202380Y-81772380D01*
X93154761Y-81915238D01*
X93059523Y-82010476D01*
X92964285Y-82058095D01*
X92773809Y-82105714D01*
X92630952Y-82105714D01*
X92440476Y-82058095D01*
X92345238Y-82010476D01*
X92250000Y-81915238D01*
X92202380Y-81772380D01*
X92202380Y-81677142D01*
X92250000Y-81534285D01*
X92297619Y-81486666D01*
X93202380Y-80534285D02*
X93202380Y-81105714D01*
X93202380Y-80820000D02*
X92202380Y-80820000D01*
X92345238Y-80915238D01*
X92440476Y-81010476D01*
X92488095Y-81105714D01*
M02*
