M48
INCH,TZ
T1C0.0157
T2C0.0295
T3C0.0315
T4C0.0354
T5C0.0394
T6C0.0400
T7C0.0433
T8C0.1260
%
G90
G05
T1
X30792Y-47165
X30831Y-37006
X30876Y-35045
X30893Y-42781
X30987Y-49013
X31053Y-38002
X31066Y-45933
X31088Y-44500
X31335Y-36584
X31419Y-37198
X31500Y-31333
X31785Y-33519
X31894Y-35789
X32107Y-34768
X32166Y-38782
X32500Y-45500
X33076Y-41068
X33818Y-46938
X33830Y-33679
X34388Y-43000
X34938Y-42024
X35000Y-33500
X35000Y-45500
X35000Y-46500
X35000Y-56000
X35020Y-33057
X35194Y-31306
X35500Y-55500
X37500Y-34290
X37737Y-41354
X37997Y-33475
X38000Y-29500
X38568Y-30500
X38715Y-41386
X40500Y-43000
X40586Y-34949
X40860Y-38132
X40979Y-34290
X41000Y-43000
X42071Y-37929
X42483Y-39955
X44988Y-37156
X45000Y-29115
X45000Y-43500
X45537Y-39169
X46000Y-28000
X46500Y-42500
X46500Y-48000
X47000Y-32500
X48000Y-50500
X48452Y-38947
X48550Y-39965
X51000Y-42000
X51053Y-44447
X51500Y-43000
X52618Y-53882
X56010Y-29138
X60000Y-36500
X60000Y-55500
X61000Y-56000
X62500Y-34000
X62500Y-47500
X63000Y-46000
X67500Y-28000
X68000Y-47500
X69000Y-36000
X69000Y-43469
X70000Y-47000
X72000Y-43000
X72000Y-51000
X73500Y-44500
X73500Y-49000
X74000Y-49500
X74560Y-41443
X76500Y-53000
X76621Y-35028
X77000Y-45500
X77000Y-51500
X77029Y-39530
X77249Y-38447
X77500Y-52319
X77884Y-55884
X78000Y-30500
X78000Y-38000
X78480Y-52000
X78500Y-58000
X79000Y-57000
X79500Y-26000
X81604Y-54396
X82718Y-45500
X84500Y-51000
X86500Y-34000
X86600Y-42649
X89021Y-35057
X93000Y-39500
X93500Y-37302
X93500Y-40000
X94000Y-38500
X94000Y-40500
X94000Y-50000
X94500Y-35500
X94500Y-41000
X94500Y-49500
X95500Y-39500
X97795Y-53250
X100000Y-49500
T2
X50500Y-22500
X50500Y-23000
X50500Y-23500
T3
X86500Y-53531
X86500Y-55500
X55031Y-47500
X57000Y-47500
X55000Y-29000
X55000Y-30000
X55000Y-31000
X55000Y-32000
X55000Y-33000
X55000Y-34000
X55000Y-35000
X55000Y-36000
X55000Y-37000
X55000Y-38000
X55000Y-39000
X55000Y-40000
X55000Y-41000
X55000Y-42000
X61000Y-29000
X61000Y-30000
X61000Y-31000
X61000Y-32000
X61000Y-33000
X61000Y-34000
X61000Y-35000
X61000Y-36000
X61000Y-37000
X61000Y-38000
X61000Y-39000
X61000Y-40000
X61000Y-41000
X61000Y-42000
X63500Y-21516
X63500Y-22500
X70000Y-20500
X73000Y-20500
X75500Y-29000
X75500Y-30000
X75500Y-31000
X75500Y-32000
X75500Y-33000
X75500Y-34000
X75500Y-35000
X75500Y-36000
X75500Y-37000
X75500Y-38000
X75500Y-39000
X75500Y-40000
X75500Y-41000
X75500Y-42000
X75500Y-43000
X75500Y-44000
X75500Y-45000
X75500Y-46000
X75500Y-47000
X75500Y-48000
X81500Y-29000
X81500Y-30000
X81500Y-31000
X81500Y-32000
X81500Y-33000
X81500Y-34000
X81500Y-35000
X81500Y-36000
X81500Y-37000
X81500Y-38000
X81500Y-39000
X81500Y-40000
X81500Y-41000
X81500Y-42000
X81500Y-43000
X81500Y-44000
X81500Y-45000
X81500Y-46000
X81500Y-47000
X81500Y-48000
X92500Y-54000
X92500Y-54984
X65500Y-21000
X65500Y-24000
X66500Y-21000
X66500Y-24000
X67500Y-21000
X67500Y-24000
X68500Y-21000
X68500Y-24000
X70000Y-24000
X71969Y-24000
X94500Y-26500
X97500Y-26500
X82000Y-20500
X85000Y-20500
X82000Y-22000
X85000Y-22000
X69031Y-27500
X71000Y-27500
X88500Y-52000
X88500Y-52984
X55000Y-21000
X55000Y-24000
X56000Y-21000
X56000Y-24000
X57000Y-21000
X57000Y-24000
X58000Y-21000
X58000Y-24000
X59000Y-21000
X59000Y-24000
X60000Y-21000
X60000Y-24000
X61000Y-21000
X61000Y-24000
X96031Y-43500
X98000Y-43500
X71000Y-55500
X71984Y-55500
X74031Y-20500
X76000Y-20500
X82000Y-23500
X85000Y-23500
X84500Y-53531
X84500Y-55500
X82000Y-25000
X85000Y-25000
X94500Y-48000
X97500Y-48000
X79500Y-27500
X81469Y-27500
X37500Y-31031
X37500Y-33000
X40000Y-48882
X40000Y-51882
X98516Y-51000
X99500Y-51000
X43500Y-29000
X43500Y-30000
X43500Y-31000
X43500Y-32000
X43500Y-33000
X43500Y-34000
X43500Y-35000
X43500Y-36000
X43500Y-37000
X43500Y-38000
X43500Y-39000
X43500Y-40000
X43500Y-41000
X43500Y-42000
X43500Y-43000
X43500Y-44000
X43500Y-45000
X43500Y-46000
X43500Y-47000
X43500Y-48000
X49500Y-29000
X49500Y-30000
X49500Y-31000
X49500Y-32000
X49500Y-33000
X49500Y-34000
X49500Y-35000
X49500Y-36000
X49500Y-37000
X49500Y-38000
X49500Y-39000
X49500Y-40000
X49500Y-41000
X49500Y-42000
X49500Y-43000
X49500Y-44000
X49500Y-45000
X49500Y-46000
X49500Y-47000
X49500Y-48000
X65000Y-29000
X65000Y-30000
X65000Y-31000
X65000Y-32000
X65000Y-33000
X65000Y-34000
X65000Y-35000
X65000Y-36000
X65000Y-37000
X65000Y-38000
X65000Y-39000
X65000Y-40000
X65000Y-41000
X65000Y-42000
X71000Y-29000
X71000Y-30000
X71000Y-31000
X71000Y-32000
X71000Y-33000
X71000Y-34000
X71000Y-35000
X71000Y-36000
X71000Y-37000
X71000Y-38000
X71000Y-39000
X71000Y-40000
X71000Y-41000
X71000Y-42000
X73016Y-55500
X74000Y-55500
X53500Y-21031
X53500Y-23000
X45500Y-25000
X48500Y-25000
X55000Y-49000
X55000Y-52000
X56000Y-49000
X56000Y-52000
X57000Y-49000
X57000Y-52000
X58000Y-49000
X58000Y-52000
X59000Y-49000
X59000Y-52000
X60000Y-49000
X60000Y-52000
X61000Y-49000
X61000Y-52000
X62000Y-49000
X62000Y-52000
X59000Y-27500
X60969Y-27500
X45500Y-21000
X48500Y-21000
X85177Y-29047
X85177Y-30047
X85177Y-31047
X85177Y-32047
X85177Y-33047
X85177Y-34047
X85177Y-35047
X85177Y-36047
X85177Y-37047
X85177Y-38047
X85177Y-39047
X85177Y-40047
X85177Y-41047
X85177Y-42047
X85177Y-43047
X85177Y-44047
X85177Y-45047
X85177Y-46047
X85177Y-47047
X85177Y-48047
X91177Y-29047
X91177Y-30047
X91177Y-31047
X91177Y-32047
X91177Y-33047
X91177Y-34047
X91177Y-35047
X91177Y-36047
X91177Y-37047
X91177Y-38047
X91177Y-39047
X91177Y-40047
X91177Y-41047
X91177Y-42047
X91177Y-43047
X91177Y-44047
X91177Y-45047
X91177Y-46047
X91177Y-47047
X91177Y-48047
X94500Y-45500
X97500Y-45500
X71000Y-57000
X74000Y-57000
X45500Y-23000
X48500Y-23000
X38000Y-21000
X39969Y-21000
X38000Y-48882
X38000Y-51882
X42000Y-48882
X42000Y-51882
X37000Y-23000
X37000Y-26000
X40000Y-23000
X40000Y-26000
X94000Y-54000
X94000Y-54984
X70000Y-22000
X73000Y-22000
X87000Y-20500
X87000Y-21500
X87000Y-22500
X87000Y-23500
X90000Y-20500
X90000Y-21500
X90000Y-22500
X90000Y-23500
T4
X50000Y-21000
X51000Y-21000
X98500Y-45500
X99500Y-45500
X98500Y-26500
X99500Y-26500
X98500Y-48000
X99500Y-48000
T5
X73500Y-52500
X74500Y-52500
X75500Y-52500
X67500Y-52000
X67500Y-53000
X67500Y-54000
X67500Y-55000
X67500Y-56000
X67500Y-57000
X97000Y-52000
X97000Y-53000
T6
X96500Y-31500
X96500Y-32500
X96500Y-33500
X96500Y-34500
X96500Y-35500
X96500Y-36500
X96500Y-37500
X96500Y-38500
X96500Y-39500
X96500Y-40500
X97500Y-31500
X97500Y-32500
X97500Y-33500
X97500Y-34500
X97500Y-35500
X97500Y-36500
X97500Y-37500
X97500Y-38500
X97500Y-39500
X97500Y-40500
T7
X96941Y-22728
X96941Y-24500
X99500Y-22728
X99500Y-24500
T8
X95500Y-56500
X99500Y-20000
X33000Y-20000
X65500Y-44500
X33000Y-56500
T0
M30
