%TF.GenerationSoftware,KiCad,Pcbnew,(5.1.6)-1*%
%TF.CreationDate,2020-07-22T17:22:53+02:00*%
%TF.ProjectId,serialadapter,73657269-616c-4616-9461-707465722e6b,rev?*%
%TF.SameCoordinates,Original*%
%TF.FileFunction,Soldermask,Bot*%
%TF.FilePolarity,Negative*%
%FSLAX46Y46*%
G04 Gerber Fmt 4.6, Leading zero omitted, Abs format (unit mm)*
G04 Created by KiCad (PCBNEW (5.1.6)-1) date 2020-07-22 17:22:53*
%MOMM*%
%LPD*%
G01*
G04 APERTURE LIST*
%ADD10C,5.700000*%
%ADD11C,1.900000*%
%ADD12R,1.900000X1.900000*%
%ADD13O,1.700000X1.700000*%
%ADD14C,1.700000*%
%ADD15C,3.600000*%
%ADD16C,1.800000*%
%ADD17R,1.800000X1.800000*%
%ADD18O,1.800000X1.800000*%
%ADD19R,1.700000X1.700000*%
%ADD20C,4.100000*%
G04 APERTURE END LIST*
D10*
%TO.C,REF2*%
X135890000Y-95250000D03*
%TD*%
%TO.C,REF1*%
X135890000Y-48260000D03*
%TD*%
D11*
%TO.C,D2*%
X170180000Y-87180000D03*
D12*
X170180000Y-84640000D03*
%TD*%
D11*
%TO.C,D1*%
X170180000Y-81280000D03*
D12*
X170180000Y-78740000D03*
%TD*%
D13*
%TO.C,R4*%
X165100000Y-86360000D03*
D14*
X154940000Y-86360000D03*
%TD*%
D13*
%TO.C,R3*%
X165100000Y-81280000D03*
D14*
X154940000Y-81280000D03*
%TD*%
%TO.C,C9*%
X192960000Y-76200000D03*
X187960000Y-76200000D03*
%TD*%
D15*
%TO.C,J3*%
X206640000Y-92360000D03*
X206640000Y-80320000D03*
D16*
X203930000Y-85090000D03*
X203930000Y-87590000D03*
X201930000Y-87590000D03*
D17*
X201930000Y-85090000D03*
%TD*%
D13*
%TO.C,R2*%
X187960000Y-93980000D03*
D14*
X198120000Y-93980000D03*
%TD*%
D13*
%TO.C,R1*%
X187960000Y-90170000D03*
D14*
X198120000Y-90170000D03*
%TD*%
D18*
%TO.C,J4*%
X207010000Y-97790000D03*
X204470000Y-97790000D03*
D17*
X201930000Y-97790000D03*
%TD*%
D13*
%TO.C,U2*%
X143510000Y-60960000D03*
X161290000Y-68580000D03*
X146050000Y-60960000D03*
X158750000Y-68580000D03*
X148590000Y-60960000D03*
X156210000Y-68580000D03*
X151130000Y-60960000D03*
X153670000Y-68580000D03*
X153670000Y-60960000D03*
X151130000Y-68580000D03*
X156210000Y-60960000D03*
X148590000Y-68580000D03*
X158750000Y-60960000D03*
X146050000Y-68580000D03*
X161290000Y-60960000D03*
D19*
X143510000Y-68580000D03*
%TD*%
D14*
%TO.C,C8*%
X143590000Y-57150000D03*
X148590000Y-57150000D03*
%TD*%
%TO.C,C7*%
X176610000Y-77470000D03*
X181610000Y-77470000D03*
%TD*%
D13*
%TO.C,U1*%
X184150000Y-53340000D03*
X176530000Y-73660000D03*
X184150000Y-55880000D03*
X176530000Y-71120000D03*
X184150000Y-58420000D03*
X176530000Y-68580000D03*
X184150000Y-60960000D03*
X176530000Y-66040000D03*
X184150000Y-63500000D03*
X176530000Y-63500000D03*
X184150000Y-66040000D03*
X176530000Y-60960000D03*
X184150000Y-68580000D03*
X176530000Y-58420000D03*
X184150000Y-71120000D03*
X176530000Y-55880000D03*
X184150000Y-73660000D03*
D19*
X176530000Y-53340000D03*
%TD*%
D18*
%TO.C,JP1*%
X153670000Y-57150000D03*
X153670000Y-54610000D03*
D17*
X153670000Y-52070000D03*
%TD*%
D18*
%TO.C,J1*%
X137160000Y-73660000D03*
X137160000Y-71120000D03*
X137160000Y-68580000D03*
X137160000Y-66040000D03*
X137160000Y-63500000D03*
D17*
X137160000Y-60960000D03*
%TD*%
D13*
%TO.C,U3*%
X184150000Y-81280000D03*
X176530000Y-96520000D03*
X184150000Y-83820000D03*
X176530000Y-93980000D03*
X184150000Y-86360000D03*
X176530000Y-91440000D03*
X184150000Y-88900000D03*
X176530000Y-88900000D03*
X184150000Y-91440000D03*
X176530000Y-86360000D03*
X184150000Y-93980000D03*
X176530000Y-83820000D03*
X184150000Y-96520000D03*
D19*
X176530000Y-81280000D03*
%TD*%
D20*
%TO.C,J2*%
X202230000Y-46730000D03*
X202230000Y-71730000D03*
D14*
X204770000Y-55075000D03*
X204770000Y-57845000D03*
X204770000Y-60615000D03*
X204770000Y-63385000D03*
X201930000Y-53690000D03*
X201930000Y-56460000D03*
X201930000Y-59230000D03*
X201930000Y-62000000D03*
D19*
X201930000Y-64770000D03*
%TD*%
D14*
%TO.C,C6*%
X188040000Y-81280000D03*
X193040000Y-81280000D03*
%TD*%
%TO.C,C5*%
X172720000Y-63500000D03*
X167720000Y-63500000D03*
%TD*%
%TO.C,C4*%
X172640000Y-58420000D03*
X167640000Y-58420000D03*
%TD*%
%TO.C,C3*%
X172640000Y-53340000D03*
X167640000Y-53340000D03*
%TD*%
%TO.C,C2*%
X172640000Y-68580000D03*
X167640000Y-68580000D03*
%TD*%
%TO.C,C1*%
X184070000Y-48260000D03*
X179070000Y-48260000D03*
%TD*%
M02*
