M48
METRIC,TZ
T1C0.400
T2C0.800
T3C0.900
T4C0.920
T5C1.000
T6C2.330
T7C3.200
%
G90
G05
T1
X154940Y-99060
T2
X154940Y-86360
X165100Y-86360
X167640Y-58420
X172640Y-58420
X188040Y-81280
X193040Y-81280
X179070Y-48260
X184070Y-48260
X176610Y-77470
X181610Y-77470
X176530Y-53340
X176530Y-55880
X176530Y-58420
X176530Y-60960
X176530Y-63500
X176530Y-66040
X176530Y-68580
X176530Y-71120
X176530Y-73660
X184150Y-53340
X184150Y-55880
X184150Y-58420
X184150Y-60960
X184150Y-63500
X184150Y-66040
X184150Y-68580
X184150Y-71120
X184150Y-73660
X167720Y-63500
X172720Y-63500
X187960Y-93980
X198120Y-93980
X187960Y-76200
X192960Y-76200
X187960Y-90170
X198120Y-90170
X167640Y-68580
X172640Y-68580
X143590Y-57150
X148590Y-57150
X167640Y-53340
X172640Y-53340
X176530Y-81280
X176530Y-83820
X176530Y-86360
X176530Y-88900
X176530Y-91440
X176530Y-93980
X176530Y-96520
X184150Y-81280
X184150Y-83820
X184150Y-86360
X184150Y-88900
X184150Y-91440
X184150Y-93980
X184150Y-96520
X154940Y-81280
X165100Y-81280
X143510Y-60960
X143510Y-68580
X146050Y-60960
X146050Y-68580
X148590Y-60960
X148590Y-68580
X151130Y-60960
X151130Y-68580
X153670Y-60960
X153670Y-68580
X156210Y-60960
X156210Y-68580
X158750Y-60960
X158750Y-68580
X161290Y-60960
X161290Y-68580
T3
X170180Y-84640
X170180Y-87180
X170180Y-78740
X170180Y-81280
T4
X201930Y-85090
X201930Y-87590
X203930Y-85090
X203930Y-87590
T5
X153670Y-52070
X153670Y-54610
X153670Y-57150
X137160Y-60960
X137160Y-63500
X137160Y-66040
X137160Y-68580
X137160Y-71120
X137160Y-73660
X201930Y-97790
X204470Y-97790
X207010Y-97790
X201930Y-53690
X201930Y-56460
X201930Y-59230
X201930Y-62000
X201930Y-64770
X204770Y-55075
X204770Y-57845
X204770Y-60615
X204770Y-63385
T6
X206640Y-80320
X206640Y-92360
T7
X135890Y-48260
X202230Y-46730
X202230Y-71730
X135890Y-95250
T0
M30
