%TF.GenerationSoftware,KiCad,Pcbnew,(5.1.6)-1*%
%TF.CreationDate,2020-07-22T17:22:53+02:00*%
%TF.ProjectId,serialadapter,73657269-616c-4616-9461-707465722e6b,rev?*%
%TF.SameCoordinates,Original*%
%TF.FileFunction,Legend,Top*%
%TF.FilePolarity,Positive*%
%FSLAX46Y46*%
G04 Gerber Fmt 4.6, Leading zero omitted, Abs format (unit mm)*
G04 Created by KiCad (PCBNEW (5.1.6)-1) date 2020-07-22 17:22:53*
%MOMM*%
%LPD*%
G01*
G04 APERTURE LIST*
%ADD10C,0.150000*%
%ADD11C,0.300000*%
%ADD12C,0.120000*%
G04 APERTURE END LIST*
D10*
X155884761Y-57602380D02*
X155551428Y-57126190D01*
X155313333Y-57602380D02*
X155313333Y-56602380D01*
X155694285Y-56602380D01*
X155789523Y-56650000D01*
X155837142Y-56697619D01*
X155884761Y-56792857D01*
X155884761Y-56935714D01*
X155837142Y-57030952D01*
X155789523Y-57078571D01*
X155694285Y-57126190D01*
X155313333Y-57126190D01*
X156265714Y-57554761D02*
X156408571Y-57602380D01*
X156646666Y-57602380D01*
X156741904Y-57554761D01*
X156789523Y-57507142D01*
X156837142Y-57411904D01*
X156837142Y-57316666D01*
X156789523Y-57221428D01*
X156741904Y-57173809D01*
X156646666Y-57126190D01*
X156456190Y-57078571D01*
X156360952Y-57030952D01*
X156313333Y-56983333D01*
X156265714Y-56888095D01*
X156265714Y-56792857D01*
X156313333Y-56697619D01*
X156360952Y-56650000D01*
X156456190Y-56602380D01*
X156694285Y-56602380D01*
X156837142Y-56650000D01*
X157218095Y-56697619D02*
X157265714Y-56650000D01*
X157360952Y-56602380D01*
X157599047Y-56602380D01*
X157694285Y-56650000D01*
X157741904Y-56697619D01*
X157789523Y-56792857D01*
X157789523Y-56888095D01*
X157741904Y-57030952D01*
X157170476Y-57602380D01*
X157789523Y-57602380D01*
X158122857Y-56602380D02*
X158741904Y-56602380D01*
X158408571Y-56983333D01*
X158551428Y-56983333D01*
X158646666Y-57030952D01*
X158694285Y-57078571D01*
X158741904Y-57173809D01*
X158741904Y-57411904D01*
X158694285Y-57507142D01*
X158646666Y-57554761D01*
X158551428Y-57602380D01*
X158265714Y-57602380D01*
X158170476Y-57554761D01*
X158122857Y-57507142D01*
X159122857Y-56697619D02*
X159170476Y-56650000D01*
X159265714Y-56602380D01*
X159503809Y-56602380D01*
X159599047Y-56650000D01*
X159646666Y-56697619D01*
X159694285Y-56792857D01*
X159694285Y-56888095D01*
X159646666Y-57030952D01*
X159075238Y-57602380D01*
X159694285Y-57602380D01*
X155587142Y-51248571D02*
X155587142Y-52462857D01*
X155658571Y-52605714D01*
X155730000Y-52677142D01*
X155872857Y-52748571D01*
X156158571Y-52748571D01*
X156301428Y-52677142D01*
X156372857Y-52605714D01*
X156444285Y-52462857D01*
X156444285Y-51248571D01*
X157087142Y-52677142D02*
X157301428Y-52748571D01*
X157658571Y-52748571D01*
X157801428Y-52677142D01*
X157872857Y-52605714D01*
X157944285Y-52462857D01*
X157944285Y-52320000D01*
X157872857Y-52177142D01*
X157801428Y-52105714D01*
X157658571Y-52034285D01*
X157372857Y-51962857D01*
X157230000Y-51891428D01*
X157158571Y-51820000D01*
X157087142Y-51677142D01*
X157087142Y-51534285D01*
X157158571Y-51391428D01*
X157230000Y-51320000D01*
X157372857Y-51248571D01*
X157730000Y-51248571D01*
X157944285Y-51320000D01*
X159087142Y-51962857D02*
X159301428Y-52034285D01*
X159372857Y-52105714D01*
X159444285Y-52248571D01*
X159444285Y-52462857D01*
X159372857Y-52605714D01*
X159301428Y-52677142D01*
X159158571Y-52748571D01*
X158587142Y-52748571D01*
X158587142Y-51248571D01*
X159087142Y-51248571D01*
X159230000Y-51320000D01*
X159301428Y-51391428D01*
X159372857Y-51534285D01*
X159372857Y-51677142D01*
X159301428Y-51820000D01*
X159230000Y-51891428D01*
X159087142Y-51962857D01*
X158587142Y-51962857D01*
D11*
X145627142Y-44893571D02*
X146484285Y-44893571D01*
X146055714Y-46393571D02*
X146055714Y-44893571D01*
X146770000Y-44893571D02*
X147627142Y-44893571D01*
X147198571Y-46393571D02*
X147198571Y-44893571D01*
X148841428Y-46393571D02*
X148127142Y-46393571D01*
X148127142Y-44893571D01*
X150270000Y-45393571D02*
X150841428Y-45393571D01*
X150484285Y-44893571D02*
X150484285Y-46179285D01*
X150555714Y-46322142D01*
X150698571Y-46393571D01*
X150841428Y-46393571D01*
X151555714Y-46393571D02*
X151412857Y-46322142D01*
X151341428Y-46250714D01*
X151270000Y-46107857D01*
X151270000Y-45679285D01*
X151341428Y-45536428D01*
X151412857Y-45465000D01*
X151555714Y-45393571D01*
X151770000Y-45393571D01*
X151912857Y-45465000D01*
X151984285Y-45536428D01*
X152055714Y-45679285D01*
X152055714Y-46107857D01*
X151984285Y-46250714D01*
X151912857Y-46322142D01*
X151770000Y-46393571D01*
X151555714Y-46393571D01*
X154698571Y-46393571D02*
X154198571Y-45679285D01*
X153841428Y-46393571D02*
X153841428Y-44893571D01*
X154412857Y-44893571D01*
X154555714Y-44965000D01*
X154627142Y-45036428D01*
X154698571Y-45179285D01*
X154698571Y-45393571D01*
X154627142Y-45536428D01*
X154555714Y-45607857D01*
X154412857Y-45679285D01*
X153841428Y-45679285D01*
X155270000Y-46322142D02*
X155484285Y-46393571D01*
X155841428Y-46393571D01*
X155984285Y-46322142D01*
X156055714Y-46250714D01*
X156127142Y-46107857D01*
X156127142Y-45965000D01*
X156055714Y-45822142D01*
X155984285Y-45750714D01*
X155841428Y-45679285D01*
X155555714Y-45607857D01*
X155412857Y-45536428D01*
X155341428Y-45465000D01*
X155270000Y-45322142D01*
X155270000Y-45179285D01*
X155341428Y-45036428D01*
X155412857Y-44965000D01*
X155555714Y-44893571D01*
X155912857Y-44893571D01*
X156127142Y-44965000D01*
X156698571Y-45036428D02*
X156770000Y-44965000D01*
X156912857Y-44893571D01*
X157270000Y-44893571D01*
X157412857Y-44965000D01*
X157484285Y-45036428D01*
X157555714Y-45179285D01*
X157555714Y-45322142D01*
X157484285Y-45536428D01*
X156627142Y-46393571D01*
X157555714Y-46393571D01*
X158055714Y-44893571D02*
X158984285Y-44893571D01*
X158484285Y-45465000D01*
X158698571Y-45465000D01*
X158841428Y-45536428D01*
X158912857Y-45607857D01*
X158984285Y-45750714D01*
X158984285Y-46107857D01*
X158912857Y-46250714D01*
X158841428Y-46322142D01*
X158698571Y-46393571D01*
X158270000Y-46393571D01*
X158127142Y-46322142D01*
X158055714Y-46250714D01*
X159555714Y-45036428D02*
X159627142Y-44965000D01*
X159770000Y-44893571D01*
X160127142Y-44893571D01*
X160270000Y-44965000D01*
X160341428Y-45036428D01*
X160412857Y-45179285D01*
X160412857Y-45322142D01*
X160341428Y-45536428D01*
X159484285Y-46393571D01*
X160412857Y-46393571D01*
X162127142Y-44822142D02*
X160841428Y-46750714D01*
X162627142Y-46393571D02*
X162627142Y-44893571D01*
X163270000Y-45036428D02*
X163341428Y-44965000D01*
X163484285Y-44893571D01*
X163841428Y-44893571D01*
X163984285Y-44965000D01*
X164055714Y-45036428D01*
X164127142Y-45179285D01*
X164127142Y-45322142D01*
X164055714Y-45536428D01*
X163198571Y-46393571D01*
X164127142Y-46393571D01*
X165627142Y-46250714D02*
X165555714Y-46322142D01*
X165341428Y-46393571D01*
X165198571Y-46393571D01*
X164984285Y-46322142D01*
X164841428Y-46179285D01*
X164770000Y-46036428D01*
X164698571Y-45750714D01*
X164698571Y-45536428D01*
X164770000Y-45250714D01*
X164841428Y-45107857D01*
X164984285Y-44965000D01*
X165198571Y-44893571D01*
X165341428Y-44893571D01*
X165555714Y-44965000D01*
X165627142Y-45036428D01*
X167341428Y-44822142D02*
X166055714Y-46750714D01*
X167841428Y-44893571D02*
X167841428Y-46107857D01*
X167912857Y-46250714D01*
X167984285Y-46322142D01*
X168127142Y-46393571D01*
X168412857Y-46393571D01*
X168555714Y-46322142D01*
X168627142Y-46250714D01*
X168698571Y-46107857D01*
X168698571Y-44893571D01*
X169341428Y-46322142D02*
X169555714Y-46393571D01*
X169912857Y-46393571D01*
X170055714Y-46322142D01*
X170127142Y-46250714D01*
X170198571Y-46107857D01*
X170198571Y-45965000D01*
X170127142Y-45822142D01*
X170055714Y-45750714D01*
X169912857Y-45679285D01*
X169627142Y-45607857D01*
X169484285Y-45536428D01*
X169412857Y-45465000D01*
X169341428Y-45322142D01*
X169341428Y-45179285D01*
X169412857Y-45036428D01*
X169484285Y-44965000D01*
X169627142Y-44893571D01*
X169984285Y-44893571D01*
X170198571Y-44965000D01*
X171341428Y-45607857D02*
X171555714Y-45679285D01*
X171627142Y-45750714D01*
X171698571Y-45893571D01*
X171698571Y-46107857D01*
X171627142Y-46250714D01*
X171555714Y-46322142D01*
X171412857Y-46393571D01*
X170841428Y-46393571D01*
X170841428Y-44893571D01*
X171341428Y-44893571D01*
X171484285Y-44965000D01*
X171555714Y-45036428D01*
X171627142Y-45179285D01*
X171627142Y-45322142D01*
X171555714Y-45465000D01*
X171484285Y-45536428D01*
X171341428Y-45607857D01*
X170841428Y-45607857D01*
X173412857Y-45036428D02*
X173484285Y-44965000D01*
X173627142Y-44893571D01*
X173984285Y-44893571D01*
X174127142Y-44965000D01*
X174198571Y-45036428D01*
X174270000Y-45179285D01*
X174270000Y-45322142D01*
X174198571Y-45536428D01*
X173341428Y-46393571D01*
X174270000Y-46393571D01*
X152341428Y-47443571D02*
X153198571Y-47443571D01*
X152770000Y-48943571D02*
X152770000Y-47443571D01*
X154555714Y-48800714D02*
X154484285Y-48872142D01*
X154270000Y-48943571D01*
X154127142Y-48943571D01*
X153912857Y-48872142D01*
X153770000Y-48729285D01*
X153698571Y-48586428D01*
X153627142Y-48300714D01*
X153627142Y-48086428D01*
X153698571Y-47800714D01*
X153770000Y-47657857D01*
X153912857Y-47515000D01*
X154127142Y-47443571D01*
X154270000Y-47443571D01*
X154484285Y-47515000D01*
X154555714Y-47586428D01*
X156055714Y-48800714D02*
X155984285Y-48872142D01*
X155770000Y-48943571D01*
X155627142Y-48943571D01*
X155412857Y-48872142D01*
X155270000Y-48729285D01*
X155198571Y-48586428D01*
X155127142Y-48300714D01*
X155127142Y-48086428D01*
X155198571Y-47800714D01*
X155270000Y-47657857D01*
X155412857Y-47515000D01*
X155627142Y-47443571D01*
X155770000Y-47443571D01*
X155984285Y-47515000D01*
X156055714Y-47586428D01*
X157770000Y-47586428D02*
X157841428Y-47515000D01*
X157984285Y-47443571D01*
X158341428Y-47443571D01*
X158484285Y-47515000D01*
X158555714Y-47586428D01*
X158627142Y-47729285D01*
X158627142Y-47872142D01*
X158555714Y-48086428D01*
X157698571Y-48943571D01*
X158627142Y-48943571D01*
X159555714Y-47443571D02*
X159698571Y-47443571D01*
X159841428Y-47515000D01*
X159912857Y-47586428D01*
X159984285Y-47729285D01*
X160055714Y-48015000D01*
X160055714Y-48372142D01*
X159984285Y-48657857D01*
X159912857Y-48800714D01*
X159841428Y-48872142D01*
X159698571Y-48943571D01*
X159555714Y-48943571D01*
X159412857Y-48872142D01*
X159341428Y-48800714D01*
X159270000Y-48657857D01*
X159198571Y-48372142D01*
X159198571Y-48015000D01*
X159270000Y-47729285D01*
X159341428Y-47586428D01*
X159412857Y-47515000D01*
X159555714Y-47443571D01*
X160627142Y-47586428D02*
X160698571Y-47515000D01*
X160841428Y-47443571D01*
X161198571Y-47443571D01*
X161341428Y-47515000D01*
X161412857Y-47586428D01*
X161484285Y-47729285D01*
X161484285Y-47872142D01*
X161412857Y-48086428D01*
X160555714Y-48943571D01*
X161484285Y-48943571D01*
X162412857Y-47443571D02*
X162555714Y-47443571D01*
X162698571Y-47515000D01*
X162770000Y-47586428D01*
X162841428Y-47729285D01*
X162912857Y-48015000D01*
X162912857Y-48372142D01*
X162841428Y-48657857D01*
X162770000Y-48800714D01*
X162698571Y-48872142D01*
X162555714Y-48943571D01*
X162412857Y-48943571D01*
X162270000Y-48872142D01*
X162198571Y-48800714D01*
X162127142Y-48657857D01*
X162055714Y-48372142D01*
X162055714Y-48015000D01*
X162127142Y-47729285D01*
X162198571Y-47586428D01*
X162270000Y-47515000D01*
X162412857Y-47443571D01*
X165127142Y-49515000D02*
X165055714Y-49443571D01*
X164912857Y-49229285D01*
X164841428Y-49086428D01*
X164770000Y-48872142D01*
X164698571Y-48515000D01*
X164698571Y-48229285D01*
X164770000Y-47872142D01*
X164841428Y-47657857D01*
X164912857Y-47515000D01*
X165055714Y-47300714D01*
X165127142Y-47229285D01*
X166555714Y-48800714D02*
X166484285Y-48872142D01*
X166270000Y-48943571D01*
X166127142Y-48943571D01*
X165912857Y-48872142D01*
X165770000Y-48729285D01*
X165698571Y-48586428D01*
X165627142Y-48300714D01*
X165627142Y-48086428D01*
X165698571Y-47800714D01*
X165770000Y-47657857D01*
X165912857Y-47515000D01*
X166127142Y-47443571D01*
X166270000Y-47443571D01*
X166484285Y-47515000D01*
X166555714Y-47586428D01*
X167055714Y-49515000D02*
X167127142Y-49443571D01*
X167270000Y-49229285D01*
X167341428Y-49086428D01*
X167412857Y-48872142D01*
X167484285Y-48515000D01*
X167484285Y-48229285D01*
X167412857Y-47872142D01*
X167341428Y-47657857D01*
X167270000Y-47515000D01*
X167127142Y-47300714D01*
X167055714Y-47229285D01*
D12*
%TO.C,D2*%
X169100163Y-86951130D02*
G75*
G02*
X169100000Y-84869039I1079837J1041130D01*
G01*
X171259837Y-86951130D02*
G75*
G03*
X171260000Y-84869039I-1079837J1041130D01*
G01*
X169101392Y-87582335D02*
G75*
G02*
X168944484Y-84350000I1078608J1672335D01*
G01*
X171258608Y-87582335D02*
G75*
G03*
X171415516Y-84350000I-1078608J1672335D01*
G01*
X171416000Y-84350000D02*
X171260000Y-84350000D01*
X169100000Y-84350000D02*
X168944000Y-84350000D01*
%TO.C,D1*%
X169100163Y-81051130D02*
G75*
G02*
X169100000Y-78969039I1079837J1041130D01*
G01*
X171259837Y-81051130D02*
G75*
G03*
X171260000Y-78969039I-1079837J1041130D01*
G01*
X169101392Y-81682335D02*
G75*
G02*
X168944484Y-78450000I1078608J1672335D01*
G01*
X171258608Y-81682335D02*
G75*
G03*
X171415516Y-78450000I-1078608J1672335D01*
G01*
X171416000Y-78450000D02*
X171260000Y-78450000D01*
X169100000Y-78450000D02*
X168944000Y-78450000D01*
%TO.C,R4*%
X156750000Y-84990000D02*
X156750000Y-87730000D01*
X156750000Y-87730000D02*
X163290000Y-87730000D01*
X163290000Y-87730000D02*
X163290000Y-84990000D01*
X163290000Y-84990000D02*
X156750000Y-84990000D01*
X155980000Y-86360000D02*
X156750000Y-86360000D01*
X164060000Y-86360000D02*
X163290000Y-86360000D01*
%TO.C,R3*%
X156750000Y-79910000D02*
X156750000Y-82650000D01*
X156750000Y-82650000D02*
X163290000Y-82650000D01*
X163290000Y-82650000D02*
X163290000Y-79910000D01*
X163290000Y-79910000D02*
X156750000Y-79910000D01*
X155980000Y-81280000D02*
X156750000Y-81280000D01*
X164060000Y-81280000D02*
X163290000Y-81280000D01*
%TO.C,C9*%
X186840000Y-74830000D02*
X194080000Y-74830000D01*
X186840000Y-77570000D02*
X194080000Y-77570000D01*
X186840000Y-74830000D02*
X186840000Y-77570000D01*
X194080000Y-74830000D02*
X194080000Y-77570000D01*
%TO.C,J3*%
X204590000Y-80180000D02*
X200330000Y-80180000D01*
X200330000Y-80180000D02*
X200330000Y-92500000D01*
X200330000Y-92500000D02*
X204590000Y-92500000D01*
X208690000Y-80180000D02*
X217050000Y-80180000D01*
X217050000Y-80180000D02*
X217050000Y-92500000D01*
X217050000Y-92500000D02*
X208690000Y-92500000D01*
X200110000Y-85090000D02*
X199610000Y-84590000D01*
X199610000Y-84590000D02*
X199610000Y-85590000D01*
X199610000Y-85590000D02*
X200110000Y-85090000D01*
%TO.C,R2*%
X196310000Y-95350000D02*
X196310000Y-92610000D01*
X196310000Y-92610000D02*
X189770000Y-92610000D01*
X189770000Y-92610000D02*
X189770000Y-95350000D01*
X189770000Y-95350000D02*
X196310000Y-95350000D01*
X197080000Y-93980000D02*
X196310000Y-93980000D01*
X189000000Y-93980000D02*
X189770000Y-93980000D01*
%TO.C,R1*%
X196310000Y-91540000D02*
X196310000Y-88800000D01*
X196310000Y-88800000D02*
X189770000Y-88800000D01*
X189770000Y-88800000D02*
X189770000Y-91540000D01*
X189770000Y-91540000D02*
X196310000Y-91540000D01*
X197080000Y-90170000D02*
X196310000Y-90170000D01*
X189000000Y-90170000D02*
X189770000Y-90170000D01*
%TO.C,J4*%
X208340000Y-99120000D02*
X208340000Y-96460000D01*
X203200000Y-99120000D02*
X208340000Y-99120000D01*
X203200000Y-96460000D02*
X208340000Y-96460000D01*
X203200000Y-99120000D02*
X203200000Y-96460000D01*
X201930000Y-99120000D02*
X200600000Y-99120000D01*
X200600000Y-99120000D02*
X200600000Y-97790000D01*
%TO.C,U2*%
X142180000Y-63770000D02*
G75*
G02*
X142180000Y-65770000I0J-1000000D01*
G01*
X142180000Y-65770000D02*
X142180000Y-67420000D01*
X142180000Y-67420000D02*
X162620000Y-67420000D01*
X162620000Y-67420000D02*
X162620000Y-62120000D01*
X162620000Y-62120000D02*
X142180000Y-62120000D01*
X142180000Y-62120000D02*
X142180000Y-63770000D01*
%TO.C,C8*%
X149710000Y-58520000D02*
X142470000Y-58520000D01*
X149710000Y-55780000D02*
X142470000Y-55780000D01*
X149710000Y-58520000D02*
X149710000Y-55780000D01*
X142470000Y-58520000D02*
X142470000Y-55780000D01*
%TO.C,C7*%
X182730000Y-78840000D02*
X175490000Y-78840000D01*
X182730000Y-76100000D02*
X175490000Y-76100000D01*
X182730000Y-78840000D02*
X182730000Y-76100000D01*
X175490000Y-78840000D02*
X175490000Y-76100000D01*
%TO.C,U1*%
X181340000Y-52010000D02*
G75*
G02*
X179340000Y-52010000I-1000000J0D01*
G01*
X179340000Y-52010000D02*
X177690000Y-52010000D01*
X177690000Y-52010000D02*
X177690000Y-74990000D01*
X177690000Y-74990000D02*
X182990000Y-74990000D01*
X182990000Y-74990000D02*
X182990000Y-52010000D01*
X182990000Y-52010000D02*
X181340000Y-52010000D01*
%TO.C,JP1*%
X152340000Y-58480000D02*
X155000000Y-58480000D01*
X152340000Y-53340000D02*
X152340000Y-58480000D01*
X155000000Y-53340000D02*
X155000000Y-58480000D01*
X152340000Y-53340000D02*
X155000000Y-53340000D01*
X152340000Y-52070000D02*
X152340000Y-50740000D01*
X152340000Y-50740000D02*
X153670000Y-50740000D01*
%TO.C,J1*%
X135830000Y-74990000D02*
X138490000Y-74990000D01*
X135830000Y-62230000D02*
X135830000Y-74990000D01*
X138490000Y-62230000D02*
X138490000Y-74990000D01*
X135830000Y-62230000D02*
X138490000Y-62230000D01*
X135830000Y-60960000D02*
X135830000Y-59630000D01*
X135830000Y-59630000D02*
X137160000Y-59630000D01*
%TO.C,U3*%
X181340000Y-79950000D02*
G75*
G02*
X179340000Y-79950000I-1000000J0D01*
G01*
X179340000Y-79950000D02*
X177690000Y-79950000D01*
X177690000Y-79950000D02*
X177690000Y-97850000D01*
X177690000Y-97850000D02*
X182990000Y-97850000D01*
X182990000Y-97850000D02*
X182990000Y-79950000D01*
X182990000Y-79950000D02*
X181340000Y-79950000D01*
X175200000Y-79890000D02*
X175200000Y-97910000D01*
X175200000Y-97910000D02*
X185480000Y-97910000D01*
X185480000Y-97910000D02*
X185480000Y-79890000D01*
X185480000Y-79890000D02*
X175200000Y-79890000D01*
%TO.C,J2*%
X209650000Y-74715000D02*
X199170000Y-74715000D01*
X199170000Y-74715000D02*
X199170000Y-43745000D01*
X199170000Y-43745000D02*
X209650000Y-43745000D01*
X198275662Y-65020000D02*
X198275662Y-64520000D01*
X198275662Y-64520000D02*
X198708675Y-64770000D01*
X198708675Y-64770000D02*
X198275662Y-65020000D01*
%TO.C,C6*%
X194160000Y-82650000D02*
X186920000Y-82650000D01*
X194160000Y-79910000D02*
X186920000Y-79910000D01*
X194160000Y-82650000D02*
X194160000Y-79910000D01*
X186920000Y-82650000D02*
X186920000Y-79910000D01*
%TO.C,C5*%
X166600000Y-62130000D02*
X173840000Y-62130000D01*
X166600000Y-64870000D02*
X173840000Y-64870000D01*
X166600000Y-62130000D02*
X166600000Y-64870000D01*
X173840000Y-62130000D02*
X173840000Y-64870000D01*
%TO.C,C4*%
X166520000Y-57050000D02*
X173760000Y-57050000D01*
X166520000Y-59790000D02*
X173760000Y-59790000D01*
X166520000Y-57050000D02*
X166520000Y-59790000D01*
X173760000Y-57050000D02*
X173760000Y-59790000D01*
%TO.C,C3*%
X166520000Y-51970000D02*
X173760000Y-51970000D01*
X166520000Y-54710000D02*
X173760000Y-54710000D01*
X166520000Y-51970000D02*
X166520000Y-54710000D01*
X173760000Y-51970000D02*
X173760000Y-54710000D01*
%TO.C,C2*%
X166520000Y-67210000D02*
X173760000Y-67210000D01*
X166520000Y-69950000D02*
X173760000Y-69950000D01*
X166520000Y-67210000D02*
X166520000Y-69950000D01*
X173760000Y-67210000D02*
X173760000Y-69950000D01*
%TO.C,C1*%
X177950000Y-46890000D02*
X185190000Y-46890000D01*
X177950000Y-49630000D02*
X185190000Y-49630000D01*
X177950000Y-46890000D02*
X177950000Y-49630000D01*
X185190000Y-46890000D02*
X185190000Y-49630000D01*
%TO.C,REF2*%
D10*
X134842380Y-91902380D02*
X134509047Y-91426190D01*
X134270952Y-91902380D02*
X134270952Y-90902380D01*
X134651904Y-90902380D01*
X134747142Y-90950000D01*
X134794761Y-90997619D01*
X134842380Y-91092857D01*
X134842380Y-91235714D01*
X134794761Y-91330952D01*
X134747142Y-91378571D01*
X134651904Y-91426190D01*
X134270952Y-91426190D01*
X135270952Y-91378571D02*
X135604285Y-91378571D01*
X135747142Y-91902380D02*
X135270952Y-91902380D01*
X135270952Y-90902380D01*
X135747142Y-90902380D01*
X136509047Y-91378571D02*
X136175714Y-91378571D01*
X136175714Y-91902380D02*
X136175714Y-90902380D01*
X136651904Y-90902380D01*
X136985238Y-90997619D02*
X137032857Y-90950000D01*
X137128095Y-90902380D01*
X137366190Y-90902380D01*
X137461428Y-90950000D01*
X137509047Y-90997619D01*
X137556666Y-91092857D01*
X137556666Y-91188095D01*
X137509047Y-91330952D01*
X136937619Y-91902380D01*
X137556666Y-91902380D01*
%TO.C,REF1*%
X134842380Y-44912380D02*
X134509047Y-44436190D01*
X134270952Y-44912380D02*
X134270952Y-43912380D01*
X134651904Y-43912380D01*
X134747142Y-43960000D01*
X134794761Y-44007619D01*
X134842380Y-44102857D01*
X134842380Y-44245714D01*
X134794761Y-44340952D01*
X134747142Y-44388571D01*
X134651904Y-44436190D01*
X134270952Y-44436190D01*
X135270952Y-44388571D02*
X135604285Y-44388571D01*
X135747142Y-44912380D02*
X135270952Y-44912380D01*
X135270952Y-43912380D01*
X135747142Y-43912380D01*
X136509047Y-44388571D02*
X136175714Y-44388571D01*
X136175714Y-44912380D02*
X136175714Y-43912380D01*
X136651904Y-43912380D01*
X137556666Y-44912380D02*
X136985238Y-44912380D01*
X137270952Y-44912380D02*
X137270952Y-43912380D01*
X137175714Y-44055238D01*
X137080476Y-44150476D01*
X136985238Y-44198095D01*
%TO.C,D2*%
X173592380Y-86648095D02*
X172592380Y-86648095D01*
X172592380Y-86410000D01*
X172640000Y-86267142D01*
X172735238Y-86171904D01*
X172830476Y-86124285D01*
X173020952Y-86076666D01*
X173163809Y-86076666D01*
X173354285Y-86124285D01*
X173449523Y-86171904D01*
X173544761Y-86267142D01*
X173592380Y-86410000D01*
X173592380Y-86648095D01*
X172687619Y-85695714D02*
X172640000Y-85648095D01*
X172592380Y-85552857D01*
X172592380Y-85314761D01*
X172640000Y-85219523D01*
X172687619Y-85171904D01*
X172782857Y-85124285D01*
X172878095Y-85124285D01*
X173020952Y-85171904D01*
X173592380Y-85743333D01*
X173592380Y-85124285D01*
%TO.C,D1*%
X173592380Y-80748095D02*
X172592380Y-80748095D01*
X172592380Y-80510000D01*
X172640000Y-80367142D01*
X172735238Y-80271904D01*
X172830476Y-80224285D01*
X173020952Y-80176666D01*
X173163809Y-80176666D01*
X173354285Y-80224285D01*
X173449523Y-80271904D01*
X173544761Y-80367142D01*
X173592380Y-80510000D01*
X173592380Y-80748095D01*
X173592380Y-79224285D02*
X173592380Y-79795714D01*
X173592380Y-79510000D02*
X172592380Y-79510000D01*
X172735238Y-79605238D01*
X172830476Y-79700476D01*
X172878095Y-79795714D01*
%TO.C,R4*%
X159853333Y-84442380D02*
X159520000Y-83966190D01*
X159281904Y-84442380D02*
X159281904Y-83442380D01*
X159662857Y-83442380D01*
X159758095Y-83490000D01*
X159805714Y-83537619D01*
X159853333Y-83632857D01*
X159853333Y-83775714D01*
X159805714Y-83870952D01*
X159758095Y-83918571D01*
X159662857Y-83966190D01*
X159281904Y-83966190D01*
X160710476Y-83775714D02*
X160710476Y-84442380D01*
X160472380Y-83394761D02*
X160234285Y-84109047D01*
X160853333Y-84109047D01*
%TO.C,R3*%
X159853333Y-79362380D02*
X159520000Y-78886190D01*
X159281904Y-79362380D02*
X159281904Y-78362380D01*
X159662857Y-78362380D01*
X159758095Y-78410000D01*
X159805714Y-78457619D01*
X159853333Y-78552857D01*
X159853333Y-78695714D01*
X159805714Y-78790952D01*
X159758095Y-78838571D01*
X159662857Y-78886190D01*
X159281904Y-78886190D01*
X160186666Y-78362380D02*
X160805714Y-78362380D01*
X160472380Y-78743333D01*
X160615238Y-78743333D01*
X160710476Y-78790952D01*
X160758095Y-78838571D01*
X160805714Y-78933809D01*
X160805714Y-79171904D01*
X160758095Y-79267142D01*
X160710476Y-79314761D01*
X160615238Y-79362380D01*
X160329523Y-79362380D01*
X160234285Y-79314761D01*
X160186666Y-79267142D01*
%TO.C,C9*%
X190293333Y-74057142D02*
X190245714Y-74104761D01*
X190102857Y-74152380D01*
X190007619Y-74152380D01*
X189864761Y-74104761D01*
X189769523Y-74009523D01*
X189721904Y-73914285D01*
X189674285Y-73723809D01*
X189674285Y-73580952D01*
X189721904Y-73390476D01*
X189769523Y-73295238D01*
X189864761Y-73200000D01*
X190007619Y-73152380D01*
X190102857Y-73152380D01*
X190245714Y-73200000D01*
X190293333Y-73247619D01*
X190769523Y-74152380D02*
X190960000Y-74152380D01*
X191055238Y-74104761D01*
X191102857Y-74057142D01*
X191198095Y-73914285D01*
X191245714Y-73723809D01*
X191245714Y-73342857D01*
X191198095Y-73247619D01*
X191150476Y-73200000D01*
X191055238Y-73152380D01*
X190864761Y-73152380D01*
X190769523Y-73200000D01*
X190721904Y-73247619D01*
X190674285Y-73342857D01*
X190674285Y-73580952D01*
X190721904Y-73676190D01*
X190769523Y-73723809D01*
X190864761Y-73771428D01*
X191055238Y-73771428D01*
X191150476Y-73723809D01*
X191198095Y-73676190D01*
X191245714Y-73580952D01*
%TO.C,J3*%
X198842380Y-85423333D02*
X199556666Y-85423333D01*
X199699523Y-85470952D01*
X199794761Y-85566190D01*
X199842380Y-85709047D01*
X199842380Y-85804285D01*
X198842380Y-85042380D02*
X198842380Y-84423333D01*
X199223333Y-84756666D01*
X199223333Y-84613809D01*
X199270952Y-84518571D01*
X199318571Y-84470952D01*
X199413809Y-84423333D01*
X199651904Y-84423333D01*
X199747142Y-84470952D01*
X199794761Y-84518571D01*
X199842380Y-84613809D01*
X199842380Y-84899523D01*
X199794761Y-84994761D01*
X199747142Y-85042380D01*
X206547142Y-94812380D02*
X206547142Y-95621904D01*
X206594761Y-95717142D01*
X206642380Y-95764761D01*
X206737619Y-95812380D01*
X206928095Y-95812380D01*
X207023333Y-95764761D01*
X207070952Y-95717142D01*
X207118571Y-95621904D01*
X207118571Y-94812380D01*
X207547142Y-95764761D02*
X207690000Y-95812380D01*
X207928095Y-95812380D01*
X208023333Y-95764761D01*
X208070952Y-95717142D01*
X208118571Y-95621904D01*
X208118571Y-95526666D01*
X208070952Y-95431428D01*
X208023333Y-95383809D01*
X207928095Y-95336190D01*
X207737619Y-95288571D01*
X207642380Y-95240952D01*
X207594761Y-95193333D01*
X207547142Y-95098095D01*
X207547142Y-95002857D01*
X207594761Y-94907619D01*
X207642380Y-94860000D01*
X207737619Y-94812380D01*
X207975714Y-94812380D01*
X208118571Y-94860000D01*
X208880476Y-95288571D02*
X209023333Y-95336190D01*
X209070952Y-95383809D01*
X209118571Y-95479047D01*
X209118571Y-95621904D01*
X209070952Y-95717142D01*
X209023333Y-95764761D01*
X208928095Y-95812380D01*
X208547142Y-95812380D01*
X208547142Y-94812380D01*
X208880476Y-94812380D01*
X208975714Y-94860000D01*
X209023333Y-94907619D01*
X209070952Y-95002857D01*
X209070952Y-95098095D01*
X209023333Y-95193333D01*
X208975714Y-95240952D01*
X208880476Y-95288571D01*
X208547142Y-95288571D01*
X209309047Y-95907619D02*
X210070952Y-95907619D01*
X210642380Y-95288571D02*
X210785238Y-95336190D01*
X210832857Y-95383809D01*
X210880476Y-95479047D01*
X210880476Y-95621904D01*
X210832857Y-95717142D01*
X210785238Y-95764761D01*
X210690000Y-95812380D01*
X210309047Y-95812380D01*
X210309047Y-94812380D01*
X210642380Y-94812380D01*
X210737619Y-94860000D01*
X210785238Y-94907619D01*
X210832857Y-95002857D01*
X210832857Y-95098095D01*
X210785238Y-95193333D01*
X210737619Y-95240952D01*
X210642380Y-95288571D01*
X210309047Y-95288571D01*
%TO.C,R2*%
X192873333Y-96802380D02*
X192540000Y-96326190D01*
X192301904Y-96802380D02*
X192301904Y-95802380D01*
X192682857Y-95802380D01*
X192778095Y-95850000D01*
X192825714Y-95897619D01*
X192873333Y-95992857D01*
X192873333Y-96135714D01*
X192825714Y-96230952D01*
X192778095Y-96278571D01*
X192682857Y-96326190D01*
X192301904Y-96326190D01*
X193254285Y-95897619D02*
X193301904Y-95850000D01*
X193397142Y-95802380D01*
X193635238Y-95802380D01*
X193730476Y-95850000D01*
X193778095Y-95897619D01*
X193825714Y-95992857D01*
X193825714Y-96088095D01*
X193778095Y-96230952D01*
X193206666Y-96802380D01*
X193825714Y-96802380D01*
%TO.C,R1*%
X192873333Y-92992380D02*
X192540000Y-92516190D01*
X192301904Y-92992380D02*
X192301904Y-91992380D01*
X192682857Y-91992380D01*
X192778095Y-92040000D01*
X192825714Y-92087619D01*
X192873333Y-92182857D01*
X192873333Y-92325714D01*
X192825714Y-92420952D01*
X192778095Y-92468571D01*
X192682857Y-92516190D01*
X192301904Y-92516190D01*
X193825714Y-92992380D02*
X193254285Y-92992380D01*
X193540000Y-92992380D02*
X193540000Y-91992380D01*
X193444761Y-92135238D01*
X193349523Y-92230476D01*
X193254285Y-92278095D01*
%TO.C,J4*%
X199052380Y-98123333D02*
X199766666Y-98123333D01*
X199909523Y-98170952D01*
X200004761Y-98266190D01*
X200052380Y-98409047D01*
X200052380Y-98504285D01*
X199385714Y-97218571D02*
X200052380Y-97218571D01*
X199004761Y-97456666D02*
X199719047Y-97694761D01*
X199719047Y-97075714D01*
X209792380Y-98766190D02*
X208792380Y-98766190D01*
X208887619Y-98337619D02*
X208840000Y-98290000D01*
X208792380Y-98194761D01*
X208792380Y-97956666D01*
X208840000Y-97861428D01*
X208887619Y-97813809D01*
X208982857Y-97766190D01*
X209078095Y-97766190D01*
X209220952Y-97813809D01*
X209792380Y-98385238D01*
X209792380Y-97766190D01*
X209697142Y-96766190D02*
X209744761Y-96813809D01*
X209792380Y-96956666D01*
X209792380Y-97051904D01*
X209744761Y-97194761D01*
X209649523Y-97290000D01*
X209554285Y-97337619D01*
X209363809Y-97385238D01*
X209220952Y-97385238D01*
X209030476Y-97337619D01*
X208935238Y-97290000D01*
X208840000Y-97194761D01*
X208792380Y-97051904D01*
X208792380Y-96956666D01*
X208840000Y-96813809D01*
X208887619Y-96766190D01*
%TO.C,U2*%
X140632380Y-65531904D02*
X141441904Y-65531904D01*
X141537142Y-65484285D01*
X141584761Y-65436666D01*
X141632380Y-65341428D01*
X141632380Y-65150952D01*
X141584761Y-65055714D01*
X141537142Y-65008095D01*
X141441904Y-64960476D01*
X140632380Y-64960476D01*
X140727619Y-64531904D02*
X140680000Y-64484285D01*
X140632380Y-64389047D01*
X140632380Y-64150952D01*
X140680000Y-64055714D01*
X140727619Y-64008095D01*
X140822857Y-63960476D01*
X140918095Y-63960476D01*
X141060952Y-64008095D01*
X141632380Y-64579523D01*
X141632380Y-63960476D01*
%TO.C,C8*%
X145923333Y-60007142D02*
X145875714Y-60054761D01*
X145732857Y-60102380D01*
X145637619Y-60102380D01*
X145494761Y-60054761D01*
X145399523Y-59959523D01*
X145351904Y-59864285D01*
X145304285Y-59673809D01*
X145304285Y-59530952D01*
X145351904Y-59340476D01*
X145399523Y-59245238D01*
X145494761Y-59150000D01*
X145637619Y-59102380D01*
X145732857Y-59102380D01*
X145875714Y-59150000D01*
X145923333Y-59197619D01*
X146494761Y-59530952D02*
X146399523Y-59483333D01*
X146351904Y-59435714D01*
X146304285Y-59340476D01*
X146304285Y-59292857D01*
X146351904Y-59197619D01*
X146399523Y-59150000D01*
X146494761Y-59102380D01*
X146685238Y-59102380D01*
X146780476Y-59150000D01*
X146828095Y-59197619D01*
X146875714Y-59292857D01*
X146875714Y-59340476D01*
X146828095Y-59435714D01*
X146780476Y-59483333D01*
X146685238Y-59530952D01*
X146494761Y-59530952D01*
X146399523Y-59578571D01*
X146351904Y-59626190D01*
X146304285Y-59721428D01*
X146304285Y-59911904D01*
X146351904Y-60007142D01*
X146399523Y-60054761D01*
X146494761Y-60102380D01*
X146685238Y-60102380D01*
X146780476Y-60054761D01*
X146828095Y-60007142D01*
X146875714Y-59911904D01*
X146875714Y-59721428D01*
X146828095Y-59626190D01*
X146780476Y-59578571D01*
X146685238Y-59530952D01*
%TO.C,C7*%
X183983333Y-77827142D02*
X183935714Y-77874761D01*
X183792857Y-77922380D01*
X183697619Y-77922380D01*
X183554761Y-77874761D01*
X183459523Y-77779523D01*
X183411904Y-77684285D01*
X183364285Y-77493809D01*
X183364285Y-77350952D01*
X183411904Y-77160476D01*
X183459523Y-77065238D01*
X183554761Y-76970000D01*
X183697619Y-76922380D01*
X183792857Y-76922380D01*
X183935714Y-76970000D01*
X183983333Y-77017619D01*
X184316666Y-76922380D02*
X184983333Y-76922380D01*
X184554761Y-77922380D01*
%TO.C,U1*%
X179578095Y-50462380D02*
X179578095Y-51271904D01*
X179625714Y-51367142D01*
X179673333Y-51414761D01*
X179768571Y-51462380D01*
X179959047Y-51462380D01*
X180054285Y-51414761D01*
X180101904Y-51367142D01*
X180149523Y-51271904D01*
X180149523Y-50462380D01*
X181149523Y-51462380D02*
X180578095Y-51462380D01*
X180863809Y-51462380D02*
X180863809Y-50462380D01*
X180768571Y-50605238D01*
X180673333Y-50700476D01*
X180578095Y-50748095D01*
%TO.C,JP1*%
X152836666Y-48982380D02*
X152836666Y-49696666D01*
X152789047Y-49839523D01*
X152693809Y-49934761D01*
X152550952Y-49982380D01*
X152455714Y-49982380D01*
X153312857Y-49982380D02*
X153312857Y-48982380D01*
X153693809Y-48982380D01*
X153789047Y-49030000D01*
X153836666Y-49077619D01*
X153884285Y-49172857D01*
X153884285Y-49315714D01*
X153836666Y-49410952D01*
X153789047Y-49458571D01*
X153693809Y-49506190D01*
X153312857Y-49506190D01*
X154836666Y-49982380D02*
X154265238Y-49982380D01*
X154550952Y-49982380D02*
X154550952Y-48982380D01*
X154455714Y-49125238D01*
X154360476Y-49220476D01*
X154265238Y-49268095D01*
X150582380Y-57586190D02*
X151391904Y-57586190D01*
X151487142Y-57538571D01*
X151534761Y-57490952D01*
X151582380Y-57395714D01*
X151582380Y-57205238D01*
X151534761Y-57110000D01*
X151487142Y-57062380D01*
X151391904Y-57014761D01*
X150582380Y-57014761D01*
X151534761Y-56586190D02*
X151582380Y-56443333D01*
X151582380Y-56205238D01*
X151534761Y-56110000D01*
X151487142Y-56062380D01*
X151391904Y-56014761D01*
X151296666Y-56014761D01*
X151201428Y-56062380D01*
X151153809Y-56110000D01*
X151106190Y-56205238D01*
X151058571Y-56395714D01*
X151010952Y-56490952D01*
X150963333Y-56538571D01*
X150868095Y-56586190D01*
X150772857Y-56586190D01*
X150677619Y-56538571D01*
X150630000Y-56490952D01*
X150582380Y-56395714D01*
X150582380Y-56157619D01*
X150630000Y-56014761D01*
X151058571Y-55252857D02*
X151106190Y-55110000D01*
X151153809Y-55062380D01*
X151249047Y-55014761D01*
X151391904Y-55014761D01*
X151487142Y-55062380D01*
X151534761Y-55110000D01*
X151582380Y-55205238D01*
X151582380Y-55586190D01*
X150582380Y-55586190D01*
X150582380Y-55252857D01*
X150630000Y-55157619D01*
X150677619Y-55110000D01*
X150772857Y-55062380D01*
X150868095Y-55062380D01*
X150963333Y-55110000D01*
X151010952Y-55157619D01*
X151058571Y-55252857D01*
X151058571Y-55586190D01*
X151677619Y-54824285D02*
X151677619Y-54062380D01*
X151534761Y-53871904D02*
X151582380Y-53729047D01*
X151582380Y-53490952D01*
X151534761Y-53395714D01*
X151487142Y-53348095D01*
X151391904Y-53300476D01*
X151296666Y-53300476D01*
X151201428Y-53348095D01*
X151153809Y-53395714D01*
X151106190Y-53490952D01*
X151058571Y-53681428D01*
X151010952Y-53776666D01*
X150963333Y-53824285D01*
X150868095Y-53871904D01*
X150772857Y-53871904D01*
X150677619Y-53824285D01*
X150630000Y-53776666D01*
X150582380Y-53681428D01*
X150582380Y-53443333D01*
X150630000Y-53300476D01*
X151058571Y-52871904D02*
X151058571Y-52538571D01*
X151582380Y-52395714D02*
X151582380Y-52871904D01*
X150582380Y-52871904D01*
X150582380Y-52395714D01*
X151582380Y-51490952D02*
X151582380Y-51967142D01*
X150582380Y-51967142D01*
%TO.C,J1*%
X136826666Y-58082380D02*
X136826666Y-58796666D01*
X136779047Y-58939523D01*
X136683809Y-59034761D01*
X136540952Y-59082380D01*
X136445714Y-59082380D01*
X137826666Y-59082380D02*
X137255238Y-59082380D01*
X137540952Y-59082380D02*
X137540952Y-58082380D01*
X137445714Y-58225238D01*
X137350476Y-58320476D01*
X137255238Y-58368095D01*
X134072380Y-70929047D02*
X134072380Y-70357619D01*
X135072380Y-70643333D02*
X134072380Y-70643333D01*
X134072380Y-70167142D02*
X134072380Y-69595714D01*
X135072380Y-69881428D02*
X134072380Y-69881428D01*
X135072380Y-68786190D02*
X135072380Y-69262380D01*
X134072380Y-69262380D01*
X135024761Y-67738571D02*
X135072380Y-67595714D01*
X135072380Y-67357619D01*
X135024761Y-67262380D01*
X134977142Y-67214761D01*
X134881904Y-67167142D01*
X134786666Y-67167142D01*
X134691428Y-67214761D01*
X134643809Y-67262380D01*
X134596190Y-67357619D01*
X134548571Y-67548095D01*
X134500952Y-67643333D01*
X134453333Y-67690952D01*
X134358095Y-67738571D01*
X134262857Y-67738571D01*
X134167619Y-67690952D01*
X134120000Y-67643333D01*
X134072380Y-67548095D01*
X134072380Y-67310000D01*
X134120000Y-67167142D01*
X135024761Y-66357619D02*
X135072380Y-66452857D01*
X135072380Y-66643333D01*
X135024761Y-66738571D01*
X134929523Y-66786190D01*
X134548571Y-66786190D01*
X134453333Y-66738571D01*
X134405714Y-66643333D01*
X134405714Y-66452857D01*
X134453333Y-66357619D01*
X134548571Y-66310000D01*
X134643809Y-66310000D01*
X134739047Y-66786190D01*
X135072380Y-65881428D02*
X134405714Y-65881428D01*
X134596190Y-65881428D02*
X134500952Y-65833809D01*
X134453333Y-65786190D01*
X134405714Y-65690952D01*
X134405714Y-65595714D01*
X135072380Y-65262380D02*
X134405714Y-65262380D01*
X134072380Y-65262380D02*
X134120000Y-65310000D01*
X134167619Y-65262380D01*
X134120000Y-65214761D01*
X134072380Y-65262380D01*
X134167619Y-65262380D01*
X135072380Y-64357619D02*
X134548571Y-64357619D01*
X134453333Y-64405238D01*
X134405714Y-64500476D01*
X134405714Y-64690952D01*
X134453333Y-64786190D01*
X135024761Y-64357619D02*
X135072380Y-64452857D01*
X135072380Y-64690952D01*
X135024761Y-64786190D01*
X134929523Y-64833809D01*
X134834285Y-64833809D01*
X134739047Y-64786190D01*
X134691428Y-64690952D01*
X134691428Y-64452857D01*
X134643809Y-64357619D01*
X135072380Y-63738571D02*
X135024761Y-63833809D01*
X134929523Y-63881428D01*
X134072380Y-63881428D01*
%TO.C,U3*%
X179578095Y-98512380D02*
X179578095Y-99321904D01*
X179625714Y-99417142D01*
X179673333Y-99464761D01*
X179768571Y-99512380D01*
X179959047Y-99512380D01*
X180054285Y-99464761D01*
X180101904Y-99417142D01*
X180149523Y-99321904D01*
X180149523Y-98512380D01*
X180530476Y-98512380D02*
X181149523Y-98512380D01*
X180816190Y-98893333D01*
X180959047Y-98893333D01*
X181054285Y-98940952D01*
X181101904Y-98988571D01*
X181149523Y-99083809D01*
X181149523Y-99321904D01*
X181101904Y-99417142D01*
X181054285Y-99464761D01*
X180959047Y-99512380D01*
X180673333Y-99512380D01*
X180578095Y-99464761D01*
X180530476Y-99417142D01*
%TO.C,J2*%
X197572380Y-59563333D02*
X198286666Y-59563333D01*
X198429523Y-59610952D01*
X198524761Y-59706190D01*
X198572380Y-59849047D01*
X198572380Y-59944285D01*
X197667619Y-59134761D02*
X197620000Y-59087142D01*
X197572380Y-58991904D01*
X197572380Y-58753809D01*
X197620000Y-58658571D01*
X197667619Y-58610952D01*
X197762857Y-58563333D01*
X197858095Y-58563333D01*
X198000952Y-58610952D01*
X198572380Y-59182380D01*
X198572380Y-58563333D01*
X206684761Y-76652380D02*
X206351428Y-76176190D01*
X206113333Y-76652380D02*
X206113333Y-75652380D01*
X206494285Y-75652380D01*
X206589523Y-75700000D01*
X206637142Y-75747619D01*
X206684761Y-75842857D01*
X206684761Y-75985714D01*
X206637142Y-76080952D01*
X206589523Y-76128571D01*
X206494285Y-76176190D01*
X206113333Y-76176190D01*
X207065714Y-76604761D02*
X207208571Y-76652380D01*
X207446666Y-76652380D01*
X207541904Y-76604761D01*
X207589523Y-76557142D01*
X207637142Y-76461904D01*
X207637142Y-76366666D01*
X207589523Y-76271428D01*
X207541904Y-76223809D01*
X207446666Y-76176190D01*
X207256190Y-76128571D01*
X207160952Y-76080952D01*
X207113333Y-76033333D01*
X207065714Y-75938095D01*
X207065714Y-75842857D01*
X207113333Y-75747619D01*
X207160952Y-75700000D01*
X207256190Y-75652380D01*
X207494285Y-75652380D01*
X207637142Y-75700000D01*
X208018095Y-75747619D02*
X208065714Y-75700000D01*
X208160952Y-75652380D01*
X208399047Y-75652380D01*
X208494285Y-75700000D01*
X208541904Y-75747619D01*
X208589523Y-75842857D01*
X208589523Y-75938095D01*
X208541904Y-76080952D01*
X207970476Y-76652380D01*
X208589523Y-76652380D01*
X208922857Y-75652380D02*
X209541904Y-75652380D01*
X209208571Y-76033333D01*
X209351428Y-76033333D01*
X209446666Y-76080952D01*
X209494285Y-76128571D01*
X209541904Y-76223809D01*
X209541904Y-76461904D01*
X209494285Y-76557142D01*
X209446666Y-76604761D01*
X209351428Y-76652380D01*
X209065714Y-76652380D01*
X208970476Y-76604761D01*
X208922857Y-76557142D01*
X209922857Y-75747619D02*
X209970476Y-75700000D01*
X210065714Y-75652380D01*
X210303809Y-75652380D01*
X210399047Y-75700000D01*
X210446666Y-75747619D01*
X210494285Y-75842857D01*
X210494285Y-75938095D01*
X210446666Y-76080952D01*
X209875238Y-76652380D01*
X210494285Y-76652380D01*
%TO.C,C6*%
X190373333Y-84137142D02*
X190325714Y-84184761D01*
X190182857Y-84232380D01*
X190087619Y-84232380D01*
X189944761Y-84184761D01*
X189849523Y-84089523D01*
X189801904Y-83994285D01*
X189754285Y-83803809D01*
X189754285Y-83660952D01*
X189801904Y-83470476D01*
X189849523Y-83375238D01*
X189944761Y-83280000D01*
X190087619Y-83232380D01*
X190182857Y-83232380D01*
X190325714Y-83280000D01*
X190373333Y-83327619D01*
X191230476Y-83232380D02*
X191040000Y-83232380D01*
X190944761Y-83280000D01*
X190897142Y-83327619D01*
X190801904Y-83470476D01*
X190754285Y-83660952D01*
X190754285Y-84041904D01*
X190801904Y-84137142D01*
X190849523Y-84184761D01*
X190944761Y-84232380D01*
X191135238Y-84232380D01*
X191230476Y-84184761D01*
X191278095Y-84137142D01*
X191325714Y-84041904D01*
X191325714Y-83803809D01*
X191278095Y-83708571D01*
X191230476Y-83660952D01*
X191135238Y-83613333D01*
X190944761Y-83613333D01*
X190849523Y-83660952D01*
X190801904Y-83708571D01*
X190754285Y-83803809D01*
%TO.C,C5*%
X170053333Y-61357142D02*
X170005714Y-61404761D01*
X169862857Y-61452380D01*
X169767619Y-61452380D01*
X169624761Y-61404761D01*
X169529523Y-61309523D01*
X169481904Y-61214285D01*
X169434285Y-61023809D01*
X169434285Y-60880952D01*
X169481904Y-60690476D01*
X169529523Y-60595238D01*
X169624761Y-60500000D01*
X169767619Y-60452380D01*
X169862857Y-60452380D01*
X170005714Y-60500000D01*
X170053333Y-60547619D01*
X170958095Y-60452380D02*
X170481904Y-60452380D01*
X170434285Y-60928571D01*
X170481904Y-60880952D01*
X170577142Y-60833333D01*
X170815238Y-60833333D01*
X170910476Y-60880952D01*
X170958095Y-60928571D01*
X171005714Y-61023809D01*
X171005714Y-61261904D01*
X170958095Y-61357142D01*
X170910476Y-61404761D01*
X170815238Y-61452380D01*
X170577142Y-61452380D01*
X170481904Y-61404761D01*
X170434285Y-61357142D01*
%TO.C,C4*%
X169973333Y-56277142D02*
X169925714Y-56324761D01*
X169782857Y-56372380D01*
X169687619Y-56372380D01*
X169544761Y-56324761D01*
X169449523Y-56229523D01*
X169401904Y-56134285D01*
X169354285Y-55943809D01*
X169354285Y-55800952D01*
X169401904Y-55610476D01*
X169449523Y-55515238D01*
X169544761Y-55420000D01*
X169687619Y-55372380D01*
X169782857Y-55372380D01*
X169925714Y-55420000D01*
X169973333Y-55467619D01*
X170830476Y-55705714D02*
X170830476Y-56372380D01*
X170592380Y-55324761D02*
X170354285Y-56039047D01*
X170973333Y-56039047D01*
%TO.C,C3*%
X169973333Y-51197142D02*
X169925714Y-51244761D01*
X169782857Y-51292380D01*
X169687619Y-51292380D01*
X169544761Y-51244761D01*
X169449523Y-51149523D01*
X169401904Y-51054285D01*
X169354285Y-50863809D01*
X169354285Y-50720952D01*
X169401904Y-50530476D01*
X169449523Y-50435238D01*
X169544761Y-50340000D01*
X169687619Y-50292380D01*
X169782857Y-50292380D01*
X169925714Y-50340000D01*
X169973333Y-50387619D01*
X170306666Y-50292380D02*
X170925714Y-50292380D01*
X170592380Y-50673333D01*
X170735238Y-50673333D01*
X170830476Y-50720952D01*
X170878095Y-50768571D01*
X170925714Y-50863809D01*
X170925714Y-51101904D01*
X170878095Y-51197142D01*
X170830476Y-51244761D01*
X170735238Y-51292380D01*
X170449523Y-51292380D01*
X170354285Y-51244761D01*
X170306666Y-51197142D01*
%TO.C,C2*%
X169973333Y-66437142D02*
X169925714Y-66484761D01*
X169782857Y-66532380D01*
X169687619Y-66532380D01*
X169544761Y-66484761D01*
X169449523Y-66389523D01*
X169401904Y-66294285D01*
X169354285Y-66103809D01*
X169354285Y-65960952D01*
X169401904Y-65770476D01*
X169449523Y-65675238D01*
X169544761Y-65580000D01*
X169687619Y-65532380D01*
X169782857Y-65532380D01*
X169925714Y-65580000D01*
X169973333Y-65627619D01*
X170354285Y-65627619D02*
X170401904Y-65580000D01*
X170497142Y-65532380D01*
X170735238Y-65532380D01*
X170830476Y-65580000D01*
X170878095Y-65627619D01*
X170925714Y-65722857D01*
X170925714Y-65818095D01*
X170878095Y-65960952D01*
X170306666Y-66532380D01*
X170925714Y-66532380D01*
%TO.C,C1*%
X181403333Y-46117142D02*
X181355714Y-46164761D01*
X181212857Y-46212380D01*
X181117619Y-46212380D01*
X180974761Y-46164761D01*
X180879523Y-46069523D01*
X180831904Y-45974285D01*
X180784285Y-45783809D01*
X180784285Y-45640952D01*
X180831904Y-45450476D01*
X180879523Y-45355238D01*
X180974761Y-45260000D01*
X181117619Y-45212380D01*
X181212857Y-45212380D01*
X181355714Y-45260000D01*
X181403333Y-45307619D01*
X182355714Y-46212380D02*
X181784285Y-46212380D01*
X182070000Y-46212380D02*
X182070000Y-45212380D01*
X181974761Y-45355238D01*
X181879523Y-45450476D01*
X181784285Y-45498095D01*
%TD*%
M02*
