%TF.GenerationSoftware,KiCad,Pcbnew,(5.1.6)-1*%
%TF.CreationDate,2020-07-22T17:22:53+02:00*%
%TF.ProjectId,serialadapter,73657269-616c-4616-9461-707465722e6b,rev?*%
%TF.SameCoordinates,Original*%
%TF.FileFunction,Copper,L2,Bot*%
%TF.FilePolarity,Positive*%
%FSLAX46Y46*%
G04 Gerber Fmt 4.6, Leading zero omitted, Abs format (unit mm)*
G04 Created by KiCad (PCBNEW (5.1.6)-1) date 2020-07-22 17:22:53*
%MOMM*%
%LPD*%
G01*
G04 APERTURE LIST*
%TA.AperFunction,ComponentPad*%
%ADD10C,5.600000*%
%TD*%
%TA.AperFunction,ComponentPad*%
%ADD11C,1.800000*%
%TD*%
%TA.AperFunction,ComponentPad*%
%ADD12R,1.800000X1.800000*%
%TD*%
%TA.AperFunction,ComponentPad*%
%ADD13O,1.600000X1.600000*%
%TD*%
%TA.AperFunction,ComponentPad*%
%ADD14C,1.600000*%
%TD*%
%TA.AperFunction,ComponentPad*%
%ADD15C,3.500000*%
%TD*%
%TA.AperFunction,ComponentPad*%
%ADD16C,1.700000*%
%TD*%
%TA.AperFunction,ComponentPad*%
%ADD17R,1.700000X1.700000*%
%TD*%
%TA.AperFunction,ComponentPad*%
%ADD18O,1.700000X1.700000*%
%TD*%
%TA.AperFunction,ComponentPad*%
%ADD19R,1.600000X1.600000*%
%TD*%
%TA.AperFunction,ComponentPad*%
%ADD20C,4.000000*%
%TD*%
%TA.AperFunction,ViaPad*%
%ADD21C,0.800000*%
%TD*%
%TA.AperFunction,Conductor*%
%ADD22C,0.250000*%
%TD*%
%TA.AperFunction,Conductor*%
%ADD23C,0.254000*%
%TD*%
G04 APERTURE END LIST*
D10*
%TO.P,REF2,1*%
%TO.N,GND*%
X135890000Y-95250000D03*
%TD*%
%TO.P,REF1,1*%
%TO.N,GND*%
X135890000Y-48260000D03*
%TD*%
D11*
%TO.P,D2,2*%
%TO.N,Net-(D2-Pad2)*%
X170180000Y-87180000D03*
D12*
%TO.P,D2,1*%
%TO.N,/LED_UTX*%
X170180000Y-84640000D03*
%TD*%
D11*
%TO.P,D1,2*%
%TO.N,Net-(D1-Pad2)*%
X170180000Y-81280000D03*
D12*
%TO.P,D1,1*%
%TO.N,/LED_URX*%
X170180000Y-78740000D03*
%TD*%
D13*
%TO.P,R4,2*%
%TO.N,Net-(D2-Pad2)*%
X165100000Y-86360000D03*
D14*
%TO.P,R4,1*%
%TO.N,VCC*%
X154940000Y-86360000D03*
%TD*%
D13*
%TO.P,R3,2*%
%TO.N,Net-(D1-Pad2)*%
X165100000Y-81280000D03*
D14*
%TO.P,R3,1*%
%TO.N,VCC*%
X154940000Y-81280000D03*
%TD*%
%TO.P,C9,2*%
%TO.N,Net-(C9-Pad2)*%
X192960000Y-76200000D03*
%TO.P,C9,1*%
%TO.N,GND*%
X187960000Y-76200000D03*
%TD*%
D15*
%TO.P,J3,5*%
%TO.N,Net-(C9-Pad2)*%
X206640000Y-92360000D03*
X206640000Y-80320000D03*
D16*
%TO.P,J3,4*%
%TO.N,GND*%
X203930000Y-85090000D03*
%TO.P,J3,3*%
%TO.N,Net-(J3-Pad3)*%
X203930000Y-87590000D03*
%TO.P,J3,2*%
%TO.N,Net-(J3-Pad2)*%
X201930000Y-87590000D03*
D17*
%TO.P,J3,1*%
%TO.N,Net-(J3-Pad1)*%
X201930000Y-85090000D03*
%TD*%
D13*
%TO.P,R2,2*%
%TO.N,Net-(J4-Pad2)*%
X187960000Y-93980000D03*
D14*
%TO.P,R2,1*%
%TO.N,VCC*%
X198120000Y-93980000D03*
%TD*%
D13*
%TO.P,R1,2*%
%TO.N,Net-(J4-Pad1)*%
X187960000Y-90170000D03*
D14*
%TO.P,R1,1*%
%TO.N,VCC*%
X198120000Y-90170000D03*
%TD*%
D18*
%TO.P,J4,3*%
%TO.N,GND*%
X207010000Y-97790000D03*
%TO.P,J4,2*%
%TO.N,Net-(J4-Pad2)*%
X204470000Y-97790000D03*
D17*
%TO.P,J4,1*%
%TO.N,Net-(J4-Pad1)*%
X201930000Y-97790000D03*
%TD*%
D13*
%TO.P,U2,16*%
%TO.N,VCC*%
X143510000Y-60960000D03*
%TO.P,U2,8*%
%TO.N,GND*%
X161290000Y-68580000D03*
%TO.P,U2,15*%
%TO.N,/ENABLE*%
X146050000Y-60960000D03*
%TO.P,U2,7*%
%TO.N,Net-(U1-Pad12)*%
X158750000Y-68580000D03*
%TO.P,U2,14*%
%TO.N,Net-(U2-Pad14)*%
X148590000Y-60960000D03*
%TO.P,U2,6*%
%TO.N,/TX*%
X156210000Y-68580000D03*
%TO.P,U2,13*%
%TO.N,Net-(U2-Pad13)*%
X151130000Y-60960000D03*
%TO.P,U2,5*%
%TO.N,Net-(J1-Pad5)*%
X153670000Y-68580000D03*
%TO.P,U2,12*%
%TO.N,Net-(U2-Pad12)*%
X153670000Y-60960000D03*
%TO.P,U2,4*%
%TO.N,Net-(U1-Pad10)*%
X151130000Y-68580000D03*
%TO.P,U2,11*%
%TO.N,Net-(U2-Pad11)*%
X156210000Y-60960000D03*
%TO.P,U2,3*%
%TO.N,/RX*%
X148590000Y-68580000D03*
%TO.P,U2,10*%
%TO.N,Net-(J1-Pad3)*%
X158750000Y-60960000D03*
%TO.P,U2,2*%
%TO.N,Net-(U1-Pad13)*%
X146050000Y-68580000D03*
%TO.P,U2,9*%
%TO.N,Net-(U1-Pad11)*%
X161290000Y-60960000D03*
D19*
%TO.P,U2,1*%
%TO.N,/ENABLE*%
X143510000Y-68580000D03*
%TD*%
D14*
%TO.P,C8,2*%
%TO.N,VCC*%
X143590000Y-57150000D03*
%TO.P,C8,1*%
%TO.N,GND*%
X148590000Y-57150000D03*
%TD*%
%TO.P,C7,2*%
%TO.N,VCC*%
X176610000Y-77470000D03*
%TO.P,C7,1*%
%TO.N,GND*%
X181610000Y-77470000D03*
%TD*%
D13*
%TO.P,U1,18*%
%TO.N,VCC*%
X184150000Y-53340000D03*
%TO.P,U1,9*%
%TO.N,Net-(J2-Pad4)*%
X176530000Y-73660000D03*
%TO.P,U1,17*%
%TO.N,VCC*%
X184150000Y-55880000D03*
%TO.P,U1,8*%
%TO.N,Net-(J2-Pad6)*%
X176530000Y-71120000D03*
%TO.P,U1,16*%
%TO.N,GND*%
X184150000Y-58420000D03*
%TO.P,U1,7*%
%TO.N,Net-(C2-Pad2)*%
X176530000Y-68580000D03*
%TO.P,U1,15*%
%TO.N,Net-(J2-Pad2)*%
X184150000Y-60960000D03*
%TO.P,U1,6*%
%TO.N,Net-(C5-Pad2)*%
X176530000Y-66040000D03*
%TO.P,U1,14*%
%TO.N,Net-(J2-Pad3)*%
X184150000Y-63500000D03*
%TO.P,U1,5*%
%TO.N,Net-(C5-Pad1)*%
X176530000Y-63500000D03*
%TO.P,U1,13*%
%TO.N,Net-(U1-Pad13)*%
X184150000Y-66040000D03*
%TO.P,U1,4*%
%TO.N,Net-(C4-Pad2)*%
X176530000Y-60960000D03*
%TO.P,U1,12*%
%TO.N,Net-(U1-Pad12)*%
X184150000Y-68580000D03*
%TO.P,U1,3*%
%TO.N,Net-(C3-Pad2)*%
X176530000Y-58420000D03*
%TO.P,U1,11*%
%TO.N,Net-(U1-Pad11)*%
X184150000Y-71120000D03*
%TO.P,U1,2*%
%TO.N,Net-(C4-Pad1)*%
X176530000Y-55880000D03*
%TO.P,U1,10*%
%TO.N,Net-(U1-Pad10)*%
X184150000Y-73660000D03*
D19*
%TO.P,U1,1*%
%TO.N,/ENABLE*%
X176530000Y-53340000D03*
%TD*%
D18*
%TO.P,JP1,3*%
%TO.N,GND*%
X153670000Y-57150000D03*
%TO.P,JP1,2*%
%TO.N,/ENABLE*%
X153670000Y-54610000D03*
D17*
%TO.P,JP1,1*%
%TO.N,VCC*%
X153670000Y-52070000D03*
%TD*%
D18*
%TO.P,J1,6*%
%TO.N,/RX*%
X137160000Y-73660000D03*
%TO.P,J1,5*%
%TO.N,Net-(J1-Pad5)*%
X137160000Y-71120000D03*
%TO.P,J1,4*%
%TO.N,/TX*%
X137160000Y-68580000D03*
%TO.P,J1,3*%
%TO.N,Net-(J1-Pad3)*%
X137160000Y-66040000D03*
%TO.P,J1,2*%
%TO.N,GND*%
X137160000Y-63500000D03*
D17*
%TO.P,J1,1*%
%TO.N,VCC*%
X137160000Y-60960000D03*
%TD*%
D13*
%TO.P,U3,14*%
%TO.N,GND*%
X184150000Y-81280000D03*
%TO.P,U3,7*%
%TO.N,Net-(U3-Pad7)*%
X176530000Y-96520000D03*
%TO.P,U3,13*%
%TO.N,Net-(J3-Pad3)*%
X184150000Y-83820000D03*
%TO.P,U3,6*%
%TO.N,/TX*%
X176530000Y-93980000D03*
%TO.P,U3,12*%
%TO.N,Net-(J3-Pad2)*%
X184150000Y-86360000D03*
%TO.P,U3,5*%
%TO.N,/RX*%
X176530000Y-91440000D03*
%TO.P,U3,11*%
%TO.N,Net-(C6-Pad2)*%
X184150000Y-88900000D03*
%TO.P,U3,4*%
%TO.N,/ENABLE*%
X176530000Y-88900000D03*
%TO.P,U3,10*%
%TO.N,Net-(J4-Pad1)*%
X184150000Y-91440000D03*
%TO.P,U3,3*%
%TO.N,/LED_UTX*%
X176530000Y-86360000D03*
%TO.P,U3,9*%
%TO.N,Net-(J4-Pad2)*%
X184150000Y-93980000D03*
%TO.P,U3,2*%
%TO.N,/LED_URX*%
X176530000Y-83820000D03*
%TO.P,U3,8*%
%TO.N,Net-(U3-Pad8)*%
X184150000Y-96520000D03*
D19*
%TO.P,U3,1*%
%TO.N,VCC*%
X176530000Y-81280000D03*
%TD*%
D20*
%TO.P,J2,0*%
%TO.N,N/C*%
X202230000Y-46730000D03*
X202230000Y-71730000D03*
D14*
%TO.P,J2,9*%
%TO.N,Net-(J2-Pad9)*%
X204770000Y-55075000D03*
%TO.P,J2,8*%
%TO.N,Net-(J2-Pad8)*%
X204770000Y-57845000D03*
%TO.P,J2,7*%
%TO.N,Net-(J2-Pad7)*%
X204770000Y-60615000D03*
%TO.P,J2,6*%
%TO.N,Net-(J2-Pad6)*%
X204770000Y-63385000D03*
%TO.P,J2,5*%
%TO.N,GND*%
X201930000Y-53690000D03*
%TO.P,J2,4*%
%TO.N,Net-(J2-Pad4)*%
X201930000Y-56460000D03*
%TO.P,J2,3*%
%TO.N,Net-(J2-Pad3)*%
X201930000Y-59230000D03*
%TO.P,J2,2*%
%TO.N,Net-(J2-Pad2)*%
X201930000Y-62000000D03*
D19*
%TO.P,J2,1*%
%TO.N,Net-(J2-Pad1)*%
X201930000Y-64770000D03*
%TD*%
D14*
%TO.P,C6,2*%
%TO.N,Net-(C6-Pad2)*%
X188040000Y-81280000D03*
%TO.P,C6,1*%
%TO.N,GND*%
X193040000Y-81280000D03*
%TD*%
%TO.P,C5,2*%
%TO.N,Net-(C5-Pad2)*%
X172720000Y-63500000D03*
%TO.P,C5,1*%
%TO.N,Net-(C5-Pad1)*%
X167720000Y-63500000D03*
%TD*%
%TO.P,C4,2*%
%TO.N,Net-(C4-Pad2)*%
X172640000Y-58420000D03*
%TO.P,C4,1*%
%TO.N,Net-(C4-Pad1)*%
X167640000Y-58420000D03*
%TD*%
%TO.P,C3,2*%
%TO.N,Net-(C3-Pad2)*%
X172640000Y-53340000D03*
%TO.P,C3,1*%
%TO.N,GND*%
X167640000Y-53340000D03*
%TD*%
%TO.P,C2,2*%
%TO.N,Net-(C2-Pad2)*%
X172640000Y-68580000D03*
%TO.P,C2,1*%
%TO.N,GND*%
X167640000Y-68580000D03*
%TD*%
%TO.P,C1,2*%
%TO.N,VCC*%
X184070000Y-48260000D03*
%TO.P,C1,1*%
%TO.N,GND*%
X179070000Y-48260000D03*
%TD*%
D21*
%TO.N,VCC*%
X154940000Y-99060000D03*
%TD*%
D22*
%TO.N,VCC*%
X154940000Y-81280000D02*
X154940000Y-86360000D01*
X154940000Y-86360000D02*
X154940000Y-99060000D01*
X154940000Y-99060000D02*
X154940000Y-99060000D01*
%TO.N,Net-(C5-Pad2)*%
X173990000Y-63500000D02*
X176530000Y-66040000D01*
X172720000Y-63500000D02*
X173990000Y-63500000D01*
%TO.N,Net-(C6-Pad2)*%
X188040000Y-85010000D02*
X188040000Y-81280000D01*
X184150000Y-88900000D02*
X188040000Y-85010000D01*
%TO.N,/TX*%
X137160000Y-68580000D02*
X138430000Y-67310000D01*
X154940000Y-67310000D02*
X156210000Y-68580000D01*
X138430000Y-67310000D02*
X154940000Y-67310000D01*
%TO.N,/RX*%
X148590000Y-72390000D02*
X148590000Y-68580000D01*
X137160000Y-73660000D02*
X147320000Y-73660000D01*
X147320000Y-73660000D02*
X148590000Y-72390000D01*
%TO.N,Net-(J1-Pad5)*%
X135890000Y-72390000D02*
X135890000Y-74930000D01*
X135890000Y-74930000D02*
X137160000Y-76200000D01*
X137160000Y-71120000D02*
X135890000Y-72390000D01*
X153670000Y-73660000D02*
X153670000Y-68580000D01*
X137160000Y-76200000D02*
X151130000Y-76200000D01*
X151130000Y-76200000D02*
X153670000Y-73660000D01*
%TO.N,Net-(J1-Pad3)*%
X153670000Y-66040000D02*
X158750000Y-60960000D01*
X137160000Y-66040000D02*
X153670000Y-66040000D01*
%TO.N,Net-(U1-Pad11)*%
X161290000Y-60960000D02*
X161290000Y-66040000D01*
X177070001Y-72245001D02*
X177800000Y-71515002D01*
X161290000Y-66040000D02*
X167495001Y-72245001D01*
X167495001Y-72245001D02*
X177070001Y-72245001D01*
X183754998Y-71515002D02*
X184150000Y-71120000D01*
X177800000Y-71515002D02*
X183754998Y-71515002D01*
%TD*%
D23*
%TO.N,GND*%
G36*
X216510001Y-99670000D02*
G01*
X155777195Y-99670000D01*
X155857205Y-99550256D01*
X155935226Y-99361898D01*
X155975000Y-99161939D01*
X155975000Y-98958061D01*
X155935226Y-98758102D01*
X155857205Y-98569744D01*
X155743937Y-98400226D01*
X155700000Y-98356289D01*
X155700000Y-87578043D01*
X155854759Y-87474637D01*
X156054637Y-87274759D01*
X156211680Y-87039727D01*
X156319853Y-86778574D01*
X156375000Y-86501335D01*
X156375000Y-86218665D01*
X163665000Y-86218665D01*
X163665000Y-86501335D01*
X163720147Y-86778574D01*
X163828320Y-87039727D01*
X163985363Y-87274759D01*
X164185241Y-87474637D01*
X164420273Y-87631680D01*
X164681426Y-87739853D01*
X164958665Y-87795000D01*
X165241335Y-87795000D01*
X165518574Y-87739853D01*
X165779727Y-87631680D01*
X166014759Y-87474637D01*
X166214637Y-87274759D01*
X166371680Y-87039727D01*
X166479853Y-86778574D01*
X166535000Y-86501335D01*
X166535000Y-86218665D01*
X166479853Y-85941426D01*
X166371680Y-85680273D01*
X166214637Y-85445241D01*
X166014759Y-85245363D01*
X165779727Y-85088320D01*
X165518574Y-84980147D01*
X165241335Y-84925000D01*
X164958665Y-84925000D01*
X164681426Y-84980147D01*
X164420273Y-85088320D01*
X164185241Y-85245363D01*
X163985363Y-85445241D01*
X163828320Y-85680273D01*
X163720147Y-85941426D01*
X163665000Y-86218665D01*
X156375000Y-86218665D01*
X156319853Y-85941426D01*
X156211680Y-85680273D01*
X156054637Y-85445241D01*
X155854759Y-85245363D01*
X155700000Y-85141957D01*
X155700000Y-83740000D01*
X168641928Y-83740000D01*
X168641928Y-85540000D01*
X168654188Y-85664482D01*
X168690498Y-85784180D01*
X168749463Y-85894494D01*
X168828815Y-85991185D01*
X168925506Y-86070537D01*
X169035820Y-86129502D01*
X169054127Y-86135056D01*
X168987688Y-86201495D01*
X168819701Y-86452905D01*
X168703989Y-86732257D01*
X168645000Y-87028816D01*
X168645000Y-87331184D01*
X168703989Y-87627743D01*
X168819701Y-87907095D01*
X168987688Y-88158505D01*
X169201495Y-88372312D01*
X169452905Y-88540299D01*
X169732257Y-88656011D01*
X170028816Y-88715000D01*
X170331184Y-88715000D01*
X170627743Y-88656011D01*
X170907095Y-88540299D01*
X171158505Y-88372312D01*
X171372312Y-88158505D01*
X171540299Y-87907095D01*
X171656011Y-87627743D01*
X171715000Y-87331184D01*
X171715000Y-87028816D01*
X171656011Y-86732257D01*
X171540299Y-86452905D01*
X171372312Y-86201495D01*
X171305873Y-86135056D01*
X171324180Y-86129502D01*
X171434494Y-86070537D01*
X171531185Y-85991185D01*
X171610537Y-85894494D01*
X171669502Y-85784180D01*
X171705812Y-85664482D01*
X171718072Y-85540000D01*
X171718072Y-83740000D01*
X171705812Y-83615518D01*
X171669502Y-83495820D01*
X171610537Y-83385506D01*
X171531185Y-83288815D01*
X171434494Y-83209463D01*
X171324180Y-83150498D01*
X171204482Y-83114188D01*
X171080000Y-83101928D01*
X169280000Y-83101928D01*
X169155518Y-83114188D01*
X169035820Y-83150498D01*
X168925506Y-83209463D01*
X168828815Y-83288815D01*
X168749463Y-83385506D01*
X168690498Y-83495820D01*
X168654188Y-83615518D01*
X168641928Y-83740000D01*
X155700000Y-83740000D01*
X155700000Y-82498043D01*
X155854759Y-82394637D01*
X156054637Y-82194759D01*
X156211680Y-81959727D01*
X156319853Y-81698574D01*
X156375000Y-81421335D01*
X156375000Y-81138665D01*
X163665000Y-81138665D01*
X163665000Y-81421335D01*
X163720147Y-81698574D01*
X163828320Y-81959727D01*
X163985363Y-82194759D01*
X164185241Y-82394637D01*
X164420273Y-82551680D01*
X164681426Y-82659853D01*
X164958665Y-82715000D01*
X165241335Y-82715000D01*
X165518574Y-82659853D01*
X165779727Y-82551680D01*
X166014759Y-82394637D01*
X166214637Y-82194759D01*
X166371680Y-81959727D01*
X166479853Y-81698574D01*
X166535000Y-81421335D01*
X166535000Y-81138665D01*
X166479853Y-80861426D01*
X166371680Y-80600273D01*
X166214637Y-80365241D01*
X166014759Y-80165363D01*
X165779727Y-80008320D01*
X165518574Y-79900147D01*
X165241335Y-79845000D01*
X164958665Y-79845000D01*
X164681426Y-79900147D01*
X164420273Y-80008320D01*
X164185241Y-80165363D01*
X163985363Y-80365241D01*
X163828320Y-80600273D01*
X163720147Y-80861426D01*
X163665000Y-81138665D01*
X156375000Y-81138665D01*
X156319853Y-80861426D01*
X156211680Y-80600273D01*
X156054637Y-80365241D01*
X155854759Y-80165363D01*
X155619727Y-80008320D01*
X155358574Y-79900147D01*
X155081335Y-79845000D01*
X154798665Y-79845000D01*
X154521426Y-79900147D01*
X154260273Y-80008320D01*
X154025241Y-80165363D01*
X153825363Y-80365241D01*
X153668320Y-80600273D01*
X153560147Y-80861426D01*
X153505000Y-81138665D01*
X153505000Y-81421335D01*
X153560147Y-81698574D01*
X153668320Y-81959727D01*
X153825363Y-82194759D01*
X154025241Y-82394637D01*
X154180000Y-82498044D01*
X154180001Y-85141956D01*
X154025241Y-85245363D01*
X153825363Y-85445241D01*
X153668320Y-85680273D01*
X153560147Y-85941426D01*
X153505000Y-86218665D01*
X153505000Y-86501335D01*
X153560147Y-86778574D01*
X153668320Y-87039727D01*
X153825363Y-87274759D01*
X154025241Y-87474637D01*
X154180000Y-87578043D01*
X154180001Y-98356288D01*
X154136063Y-98400226D01*
X154022795Y-98569744D01*
X153944774Y-98758102D01*
X153905000Y-98958061D01*
X153905000Y-99161939D01*
X153944774Y-99361898D01*
X154022795Y-99550256D01*
X154102805Y-99670000D01*
X131470000Y-99670000D01*
X131470000Y-97666481D01*
X133653124Y-97666481D01*
X133965308Y-98115177D01*
X134561259Y-98435612D01*
X135208273Y-98633626D01*
X135881484Y-98701610D01*
X136555023Y-98636949D01*
X137203006Y-98442130D01*
X137800530Y-98124639D01*
X137814692Y-98115177D01*
X138126876Y-97666481D01*
X135890000Y-95429605D01*
X133653124Y-97666481D01*
X131470000Y-97666481D01*
X131470000Y-95241484D01*
X132438390Y-95241484D01*
X132503051Y-95915023D01*
X132697870Y-96563006D01*
X133015361Y-97160530D01*
X133024823Y-97174692D01*
X133473519Y-97486876D01*
X135710395Y-95250000D01*
X136069605Y-95250000D01*
X138306481Y-97486876D01*
X138755177Y-97174692D01*
X139075612Y-96578741D01*
X139273626Y-95931727D01*
X139341610Y-95258516D01*
X139276949Y-94584977D01*
X139082130Y-93936994D01*
X138764639Y-93339470D01*
X138755177Y-93325308D01*
X138306481Y-93013124D01*
X136069605Y-95250000D01*
X135710395Y-95250000D01*
X133473519Y-93013124D01*
X133024823Y-93325308D01*
X132704388Y-93921259D01*
X132506374Y-94568273D01*
X132438390Y-95241484D01*
X131470000Y-95241484D01*
X131470000Y-92833519D01*
X133653124Y-92833519D01*
X135890000Y-95070395D01*
X138126876Y-92833519D01*
X137814692Y-92384823D01*
X137218741Y-92064388D01*
X136571727Y-91866374D01*
X135898516Y-91798390D01*
X135224977Y-91863051D01*
X134576994Y-92057870D01*
X133979470Y-92375361D01*
X133965308Y-92384823D01*
X133653124Y-92833519D01*
X131470000Y-92833519D01*
X131470000Y-77840000D01*
X168641928Y-77840000D01*
X168641928Y-79640000D01*
X168654188Y-79764482D01*
X168690498Y-79884180D01*
X168749463Y-79994494D01*
X168828815Y-80091185D01*
X168925506Y-80170537D01*
X169035820Y-80229502D01*
X169054127Y-80235056D01*
X168987688Y-80301495D01*
X168819701Y-80552905D01*
X168703989Y-80832257D01*
X168645000Y-81128816D01*
X168645000Y-81431184D01*
X168703989Y-81727743D01*
X168819701Y-82007095D01*
X168987688Y-82258505D01*
X169201495Y-82472312D01*
X169452905Y-82640299D01*
X169732257Y-82756011D01*
X170028816Y-82815000D01*
X170331184Y-82815000D01*
X170627743Y-82756011D01*
X170907095Y-82640299D01*
X171158505Y-82472312D01*
X171372312Y-82258505D01*
X171540299Y-82007095D01*
X171656011Y-81727743D01*
X171715000Y-81431184D01*
X171715000Y-81128816D01*
X171656011Y-80832257D01*
X171540299Y-80552905D01*
X171491586Y-80480000D01*
X175091928Y-80480000D01*
X175091928Y-82080000D01*
X175104188Y-82204482D01*
X175140498Y-82324180D01*
X175199463Y-82434494D01*
X175278815Y-82531185D01*
X175375506Y-82610537D01*
X175485820Y-82669502D01*
X175605518Y-82705812D01*
X175613961Y-82706643D01*
X175415363Y-82905241D01*
X175258320Y-83140273D01*
X175150147Y-83401426D01*
X175095000Y-83678665D01*
X175095000Y-83961335D01*
X175150147Y-84238574D01*
X175258320Y-84499727D01*
X175415363Y-84734759D01*
X175615241Y-84934637D01*
X175847759Y-85090000D01*
X175615241Y-85245363D01*
X175415363Y-85445241D01*
X175258320Y-85680273D01*
X175150147Y-85941426D01*
X175095000Y-86218665D01*
X175095000Y-86501335D01*
X175150147Y-86778574D01*
X175258320Y-87039727D01*
X175415363Y-87274759D01*
X175615241Y-87474637D01*
X175847759Y-87630000D01*
X175615241Y-87785363D01*
X175415363Y-87985241D01*
X175258320Y-88220273D01*
X175150147Y-88481426D01*
X175095000Y-88758665D01*
X175095000Y-89041335D01*
X175150147Y-89318574D01*
X175258320Y-89579727D01*
X175415363Y-89814759D01*
X175615241Y-90014637D01*
X175847759Y-90170000D01*
X175615241Y-90325363D01*
X175415363Y-90525241D01*
X175258320Y-90760273D01*
X175150147Y-91021426D01*
X175095000Y-91298665D01*
X175095000Y-91581335D01*
X175150147Y-91858574D01*
X175258320Y-92119727D01*
X175415363Y-92354759D01*
X175615241Y-92554637D01*
X175847759Y-92710000D01*
X175615241Y-92865363D01*
X175415363Y-93065241D01*
X175258320Y-93300273D01*
X175150147Y-93561426D01*
X175095000Y-93838665D01*
X175095000Y-94121335D01*
X175150147Y-94398574D01*
X175258320Y-94659727D01*
X175415363Y-94894759D01*
X175615241Y-95094637D01*
X175847759Y-95250000D01*
X175615241Y-95405363D01*
X175415363Y-95605241D01*
X175258320Y-95840273D01*
X175150147Y-96101426D01*
X175095000Y-96378665D01*
X175095000Y-96661335D01*
X175150147Y-96938574D01*
X175258320Y-97199727D01*
X175415363Y-97434759D01*
X175615241Y-97634637D01*
X175850273Y-97791680D01*
X176111426Y-97899853D01*
X176388665Y-97955000D01*
X176671335Y-97955000D01*
X176948574Y-97899853D01*
X177209727Y-97791680D01*
X177444759Y-97634637D01*
X177644637Y-97434759D01*
X177801680Y-97199727D01*
X177909853Y-96938574D01*
X177965000Y-96661335D01*
X177965000Y-96378665D01*
X177909853Y-96101426D01*
X177801680Y-95840273D01*
X177644637Y-95605241D01*
X177444759Y-95405363D01*
X177212241Y-95250000D01*
X177444759Y-95094637D01*
X177644637Y-94894759D01*
X177801680Y-94659727D01*
X177909853Y-94398574D01*
X177965000Y-94121335D01*
X177965000Y-93838665D01*
X177909853Y-93561426D01*
X177801680Y-93300273D01*
X177644637Y-93065241D01*
X177444759Y-92865363D01*
X177212241Y-92710000D01*
X177444759Y-92554637D01*
X177644637Y-92354759D01*
X177801680Y-92119727D01*
X177909853Y-91858574D01*
X177965000Y-91581335D01*
X177965000Y-91298665D01*
X177909853Y-91021426D01*
X177801680Y-90760273D01*
X177644637Y-90525241D01*
X177444759Y-90325363D01*
X177212241Y-90170000D01*
X177444759Y-90014637D01*
X177644637Y-89814759D01*
X177801680Y-89579727D01*
X177909853Y-89318574D01*
X177965000Y-89041335D01*
X177965000Y-88758665D01*
X177909853Y-88481426D01*
X177801680Y-88220273D01*
X177644637Y-87985241D01*
X177444759Y-87785363D01*
X177212241Y-87630000D01*
X177444759Y-87474637D01*
X177644637Y-87274759D01*
X177801680Y-87039727D01*
X177909853Y-86778574D01*
X177965000Y-86501335D01*
X177965000Y-86218665D01*
X177909853Y-85941426D01*
X177801680Y-85680273D01*
X177644637Y-85445241D01*
X177444759Y-85245363D01*
X177212241Y-85090000D01*
X177444759Y-84934637D01*
X177644637Y-84734759D01*
X177801680Y-84499727D01*
X177909853Y-84238574D01*
X177965000Y-83961335D01*
X177965000Y-83678665D01*
X182715000Y-83678665D01*
X182715000Y-83961335D01*
X182770147Y-84238574D01*
X182878320Y-84499727D01*
X183035363Y-84734759D01*
X183235241Y-84934637D01*
X183467759Y-85090000D01*
X183235241Y-85245363D01*
X183035363Y-85445241D01*
X182878320Y-85680273D01*
X182770147Y-85941426D01*
X182715000Y-86218665D01*
X182715000Y-86501335D01*
X182770147Y-86778574D01*
X182878320Y-87039727D01*
X183035363Y-87274759D01*
X183235241Y-87474637D01*
X183467759Y-87630000D01*
X183235241Y-87785363D01*
X183035363Y-87985241D01*
X182878320Y-88220273D01*
X182770147Y-88481426D01*
X182715000Y-88758665D01*
X182715000Y-89041335D01*
X182770147Y-89318574D01*
X182878320Y-89579727D01*
X183035363Y-89814759D01*
X183235241Y-90014637D01*
X183467759Y-90170000D01*
X183235241Y-90325363D01*
X183035363Y-90525241D01*
X182878320Y-90760273D01*
X182770147Y-91021426D01*
X182715000Y-91298665D01*
X182715000Y-91581335D01*
X182770147Y-91858574D01*
X182878320Y-92119727D01*
X183035363Y-92354759D01*
X183235241Y-92554637D01*
X183467759Y-92710000D01*
X183235241Y-92865363D01*
X183035363Y-93065241D01*
X182878320Y-93300273D01*
X182770147Y-93561426D01*
X182715000Y-93838665D01*
X182715000Y-94121335D01*
X182770147Y-94398574D01*
X182878320Y-94659727D01*
X183035363Y-94894759D01*
X183235241Y-95094637D01*
X183467759Y-95250000D01*
X183235241Y-95405363D01*
X183035363Y-95605241D01*
X182878320Y-95840273D01*
X182770147Y-96101426D01*
X182715000Y-96378665D01*
X182715000Y-96661335D01*
X182770147Y-96938574D01*
X182878320Y-97199727D01*
X183035363Y-97434759D01*
X183235241Y-97634637D01*
X183470273Y-97791680D01*
X183731426Y-97899853D01*
X184008665Y-97955000D01*
X184291335Y-97955000D01*
X184568574Y-97899853D01*
X184829727Y-97791680D01*
X185064759Y-97634637D01*
X185264637Y-97434759D01*
X185421680Y-97199727D01*
X185529262Y-96940000D01*
X200441928Y-96940000D01*
X200441928Y-98640000D01*
X200454188Y-98764482D01*
X200490498Y-98884180D01*
X200549463Y-98994494D01*
X200628815Y-99091185D01*
X200725506Y-99170537D01*
X200835820Y-99229502D01*
X200955518Y-99265812D01*
X201080000Y-99278072D01*
X202780000Y-99278072D01*
X202904482Y-99265812D01*
X203024180Y-99229502D01*
X203134494Y-99170537D01*
X203231185Y-99091185D01*
X203310537Y-98994494D01*
X203369502Y-98884180D01*
X203391513Y-98811620D01*
X203523368Y-98943475D01*
X203766589Y-99105990D01*
X204036842Y-99217932D01*
X204323740Y-99275000D01*
X204616260Y-99275000D01*
X204903158Y-99217932D01*
X205173411Y-99105990D01*
X205416632Y-98943475D01*
X205623475Y-98736632D01*
X205745195Y-98554466D01*
X205814822Y-98671355D01*
X206009731Y-98887588D01*
X206243080Y-99061641D01*
X206505901Y-99186825D01*
X206653110Y-99231476D01*
X206883000Y-99110155D01*
X206883000Y-97917000D01*
X207137000Y-97917000D01*
X207137000Y-99110155D01*
X207366890Y-99231476D01*
X207514099Y-99186825D01*
X207776920Y-99061641D01*
X208010269Y-98887588D01*
X208205178Y-98671355D01*
X208354157Y-98421252D01*
X208451481Y-98146891D01*
X208330814Y-97917000D01*
X207137000Y-97917000D01*
X206883000Y-97917000D01*
X206863000Y-97917000D01*
X206863000Y-97663000D01*
X206883000Y-97663000D01*
X206883000Y-96469845D01*
X207137000Y-96469845D01*
X207137000Y-97663000D01*
X208330814Y-97663000D01*
X208451481Y-97433109D01*
X208354157Y-97158748D01*
X208205178Y-96908645D01*
X208010269Y-96692412D01*
X207776920Y-96518359D01*
X207514099Y-96393175D01*
X207366890Y-96348524D01*
X207137000Y-96469845D01*
X206883000Y-96469845D01*
X206653110Y-96348524D01*
X206505901Y-96393175D01*
X206243080Y-96518359D01*
X206009731Y-96692412D01*
X205814822Y-96908645D01*
X205745195Y-97025534D01*
X205623475Y-96843368D01*
X205416632Y-96636525D01*
X205173411Y-96474010D01*
X204903158Y-96362068D01*
X204616260Y-96305000D01*
X204323740Y-96305000D01*
X204036842Y-96362068D01*
X203766589Y-96474010D01*
X203523368Y-96636525D01*
X203391513Y-96768380D01*
X203369502Y-96695820D01*
X203310537Y-96585506D01*
X203231185Y-96488815D01*
X203134494Y-96409463D01*
X203024180Y-96350498D01*
X202904482Y-96314188D01*
X202780000Y-96301928D01*
X201080000Y-96301928D01*
X200955518Y-96314188D01*
X200835820Y-96350498D01*
X200725506Y-96409463D01*
X200628815Y-96488815D01*
X200549463Y-96585506D01*
X200490498Y-96695820D01*
X200454188Y-96815518D01*
X200441928Y-96940000D01*
X185529262Y-96940000D01*
X185529853Y-96938574D01*
X185585000Y-96661335D01*
X185585000Y-96378665D01*
X185529853Y-96101426D01*
X185421680Y-95840273D01*
X185264637Y-95605241D01*
X185064759Y-95405363D01*
X184832241Y-95250000D01*
X185064759Y-95094637D01*
X185264637Y-94894759D01*
X185421680Y-94659727D01*
X185529853Y-94398574D01*
X185585000Y-94121335D01*
X185585000Y-93838665D01*
X186525000Y-93838665D01*
X186525000Y-94121335D01*
X186580147Y-94398574D01*
X186688320Y-94659727D01*
X186845363Y-94894759D01*
X187045241Y-95094637D01*
X187280273Y-95251680D01*
X187541426Y-95359853D01*
X187818665Y-95415000D01*
X188101335Y-95415000D01*
X188378574Y-95359853D01*
X188639727Y-95251680D01*
X188874759Y-95094637D01*
X189074637Y-94894759D01*
X189231680Y-94659727D01*
X189339853Y-94398574D01*
X189395000Y-94121335D01*
X189395000Y-93838665D01*
X196685000Y-93838665D01*
X196685000Y-94121335D01*
X196740147Y-94398574D01*
X196848320Y-94659727D01*
X197005363Y-94894759D01*
X197205241Y-95094637D01*
X197440273Y-95251680D01*
X197701426Y-95359853D01*
X197978665Y-95415000D01*
X198261335Y-95415000D01*
X198538574Y-95359853D01*
X198799727Y-95251680D01*
X199034759Y-95094637D01*
X199234637Y-94894759D01*
X199391680Y-94659727D01*
X199499853Y-94398574D01*
X199555000Y-94121335D01*
X199555000Y-93838665D01*
X199499853Y-93561426D01*
X199391680Y-93300273D01*
X199234637Y-93065241D01*
X199034759Y-92865363D01*
X198799727Y-92708320D01*
X198538574Y-92600147D01*
X198261335Y-92545000D01*
X197978665Y-92545000D01*
X197701426Y-92600147D01*
X197440273Y-92708320D01*
X197205241Y-92865363D01*
X197005363Y-93065241D01*
X196848320Y-93300273D01*
X196740147Y-93561426D01*
X196685000Y-93838665D01*
X189395000Y-93838665D01*
X189339853Y-93561426D01*
X189231680Y-93300273D01*
X189074637Y-93065241D01*
X188874759Y-92865363D01*
X188639727Y-92708320D01*
X188378574Y-92600147D01*
X188101335Y-92545000D01*
X187818665Y-92545000D01*
X187541426Y-92600147D01*
X187280273Y-92708320D01*
X187045241Y-92865363D01*
X186845363Y-93065241D01*
X186688320Y-93300273D01*
X186580147Y-93561426D01*
X186525000Y-93838665D01*
X185585000Y-93838665D01*
X185529853Y-93561426D01*
X185421680Y-93300273D01*
X185264637Y-93065241D01*
X185064759Y-92865363D01*
X184832241Y-92710000D01*
X185064759Y-92554637D01*
X185264637Y-92354759D01*
X185418091Y-92125098D01*
X204255000Y-92125098D01*
X204255000Y-92594902D01*
X204346654Y-93055679D01*
X204526440Y-93489721D01*
X204787450Y-93880349D01*
X205119651Y-94212550D01*
X205510279Y-94473560D01*
X205944321Y-94653346D01*
X206405098Y-94745000D01*
X206874902Y-94745000D01*
X207335679Y-94653346D01*
X207769721Y-94473560D01*
X208160349Y-94212550D01*
X208492550Y-93880349D01*
X208753560Y-93489721D01*
X208933346Y-93055679D01*
X209025000Y-92594902D01*
X209025000Y-92125098D01*
X208933346Y-91664321D01*
X208753560Y-91230279D01*
X208492550Y-90839651D01*
X208160349Y-90507450D01*
X207769721Y-90246440D01*
X207335679Y-90066654D01*
X206874902Y-89975000D01*
X206405098Y-89975000D01*
X205944321Y-90066654D01*
X205510279Y-90246440D01*
X205119651Y-90507450D01*
X204787450Y-90839651D01*
X204526440Y-91230279D01*
X204346654Y-91664321D01*
X204255000Y-92125098D01*
X185418091Y-92125098D01*
X185421680Y-92119727D01*
X185529853Y-91858574D01*
X185585000Y-91581335D01*
X185585000Y-91298665D01*
X185529853Y-91021426D01*
X185421680Y-90760273D01*
X185264637Y-90525241D01*
X185064759Y-90325363D01*
X184832241Y-90170000D01*
X185043764Y-90028665D01*
X186525000Y-90028665D01*
X186525000Y-90311335D01*
X186580147Y-90588574D01*
X186688320Y-90849727D01*
X186845363Y-91084759D01*
X187045241Y-91284637D01*
X187280273Y-91441680D01*
X187541426Y-91549853D01*
X187818665Y-91605000D01*
X188101335Y-91605000D01*
X188378574Y-91549853D01*
X188639727Y-91441680D01*
X188874759Y-91284637D01*
X189074637Y-91084759D01*
X189231680Y-90849727D01*
X189339853Y-90588574D01*
X189395000Y-90311335D01*
X189395000Y-90028665D01*
X196685000Y-90028665D01*
X196685000Y-90311335D01*
X196740147Y-90588574D01*
X196848320Y-90849727D01*
X197005363Y-91084759D01*
X197205241Y-91284637D01*
X197440273Y-91441680D01*
X197701426Y-91549853D01*
X197978665Y-91605000D01*
X198261335Y-91605000D01*
X198538574Y-91549853D01*
X198799727Y-91441680D01*
X199034759Y-91284637D01*
X199234637Y-91084759D01*
X199391680Y-90849727D01*
X199499853Y-90588574D01*
X199555000Y-90311335D01*
X199555000Y-90028665D01*
X199499853Y-89751426D01*
X199391680Y-89490273D01*
X199234637Y-89255241D01*
X199034759Y-89055363D01*
X198799727Y-88898320D01*
X198538574Y-88790147D01*
X198261335Y-88735000D01*
X197978665Y-88735000D01*
X197701426Y-88790147D01*
X197440273Y-88898320D01*
X197205241Y-89055363D01*
X197005363Y-89255241D01*
X196848320Y-89490273D01*
X196740147Y-89751426D01*
X196685000Y-90028665D01*
X189395000Y-90028665D01*
X189339853Y-89751426D01*
X189231680Y-89490273D01*
X189074637Y-89255241D01*
X188874759Y-89055363D01*
X188639727Y-88898320D01*
X188378574Y-88790147D01*
X188101335Y-88735000D01*
X187818665Y-88735000D01*
X187541426Y-88790147D01*
X187280273Y-88898320D01*
X187045241Y-89055363D01*
X186845363Y-89255241D01*
X186688320Y-89490273D01*
X186580147Y-89751426D01*
X186525000Y-90028665D01*
X185043764Y-90028665D01*
X185064759Y-90014637D01*
X185264637Y-89814759D01*
X185421680Y-89579727D01*
X185529853Y-89318574D01*
X185585000Y-89041335D01*
X185585000Y-88758665D01*
X185548688Y-88576113D01*
X188551004Y-85573798D01*
X188580001Y-85550001D01*
X188674974Y-85434276D01*
X188745546Y-85302247D01*
X188789003Y-85158986D01*
X188800000Y-85047333D01*
X188800000Y-85047325D01*
X188803676Y-85010000D01*
X188800000Y-84972675D01*
X188800000Y-84240000D01*
X200441928Y-84240000D01*
X200441928Y-85940000D01*
X200454188Y-86064482D01*
X200490498Y-86184180D01*
X200549463Y-86294494D01*
X200628815Y-86391185D01*
X200725506Y-86470537D01*
X200835820Y-86529502D01*
X200877690Y-86542203D01*
X200776525Y-86643368D01*
X200614010Y-86886589D01*
X200502068Y-87156842D01*
X200445000Y-87443740D01*
X200445000Y-87736260D01*
X200502068Y-88023158D01*
X200614010Y-88293411D01*
X200776525Y-88536632D01*
X200983368Y-88743475D01*
X201226589Y-88905990D01*
X201496842Y-89017932D01*
X201783740Y-89075000D01*
X202076260Y-89075000D01*
X202363158Y-89017932D01*
X202633411Y-88905990D01*
X202876632Y-88743475D01*
X202930000Y-88690107D01*
X202983368Y-88743475D01*
X203226589Y-88905990D01*
X203496842Y-89017932D01*
X203783740Y-89075000D01*
X204076260Y-89075000D01*
X204363158Y-89017932D01*
X204633411Y-88905990D01*
X204876632Y-88743475D01*
X205083475Y-88536632D01*
X205245990Y-88293411D01*
X205357932Y-88023158D01*
X205415000Y-87736260D01*
X205415000Y-87443740D01*
X205357932Y-87156842D01*
X205245990Y-86886589D01*
X205083475Y-86643368D01*
X204876632Y-86436525D01*
X204713590Y-86327584D01*
X204778792Y-86118397D01*
X203930000Y-85269605D01*
X203915858Y-85283748D01*
X203736253Y-85104143D01*
X203750395Y-85090000D01*
X204109605Y-85090000D01*
X204958397Y-85938792D01*
X205207472Y-85861157D01*
X205333371Y-85597117D01*
X205405339Y-85313589D01*
X205420611Y-85021469D01*
X205378599Y-84731981D01*
X205280919Y-84456253D01*
X205207472Y-84318843D01*
X204958397Y-84241208D01*
X204109605Y-85090000D01*
X203750395Y-85090000D01*
X203736253Y-85075858D01*
X203915858Y-84896253D01*
X203930000Y-84910395D01*
X204778792Y-84061603D01*
X204701157Y-83812528D01*
X204437117Y-83686629D01*
X204153589Y-83614661D01*
X203861469Y-83599389D01*
X203571981Y-83641401D01*
X203296253Y-83739081D01*
X203220150Y-83779759D01*
X203134494Y-83709463D01*
X203024180Y-83650498D01*
X202904482Y-83614188D01*
X202780000Y-83601928D01*
X201080000Y-83601928D01*
X200955518Y-83614188D01*
X200835820Y-83650498D01*
X200725506Y-83709463D01*
X200628815Y-83788815D01*
X200549463Y-83885506D01*
X200490498Y-83995820D01*
X200454188Y-84115518D01*
X200441928Y-84240000D01*
X188800000Y-84240000D01*
X188800000Y-82498043D01*
X188954759Y-82394637D01*
X189076694Y-82272702D01*
X192226903Y-82272702D01*
X192298486Y-82516671D01*
X192553996Y-82637571D01*
X192828184Y-82706300D01*
X193110512Y-82720217D01*
X193390130Y-82678787D01*
X193656292Y-82583603D01*
X193781514Y-82516671D01*
X193853097Y-82272702D01*
X193040000Y-81459605D01*
X192226903Y-82272702D01*
X189076694Y-82272702D01*
X189154637Y-82194759D01*
X189311680Y-81959727D01*
X189419853Y-81698574D01*
X189475000Y-81421335D01*
X189475000Y-81350512D01*
X191599783Y-81350512D01*
X191641213Y-81630130D01*
X191736397Y-81896292D01*
X191803329Y-82021514D01*
X192047298Y-82093097D01*
X192860395Y-81280000D01*
X193219605Y-81280000D01*
X194032702Y-82093097D01*
X194276671Y-82021514D01*
X194397571Y-81766004D01*
X194466300Y-81491816D01*
X194480217Y-81209488D01*
X194438787Y-80929870D01*
X194343603Y-80663708D01*
X194276671Y-80538486D01*
X194032702Y-80466903D01*
X193219605Y-81280000D01*
X192860395Y-81280000D01*
X192047298Y-80466903D01*
X191803329Y-80538486D01*
X191682429Y-80793996D01*
X191613700Y-81068184D01*
X191599783Y-81350512D01*
X189475000Y-81350512D01*
X189475000Y-81138665D01*
X189419853Y-80861426D01*
X189311680Y-80600273D01*
X189154637Y-80365241D01*
X189076694Y-80287298D01*
X192226903Y-80287298D01*
X193040000Y-81100395D01*
X193853097Y-80287298D01*
X193793770Y-80085098D01*
X204255000Y-80085098D01*
X204255000Y-80554902D01*
X204346654Y-81015679D01*
X204526440Y-81449721D01*
X204787450Y-81840349D01*
X205119651Y-82172550D01*
X205510279Y-82433560D01*
X205944321Y-82613346D01*
X206405098Y-82705000D01*
X206874902Y-82705000D01*
X207335679Y-82613346D01*
X207769721Y-82433560D01*
X208160349Y-82172550D01*
X208492550Y-81840349D01*
X208753560Y-81449721D01*
X208933346Y-81015679D01*
X209025000Y-80554902D01*
X209025000Y-80085098D01*
X208933346Y-79624321D01*
X208753560Y-79190279D01*
X208492550Y-78799651D01*
X208160349Y-78467450D01*
X207769721Y-78206440D01*
X207335679Y-78026654D01*
X206874902Y-77935000D01*
X206405098Y-77935000D01*
X205944321Y-78026654D01*
X205510279Y-78206440D01*
X205119651Y-78467450D01*
X204787450Y-78799651D01*
X204526440Y-79190279D01*
X204346654Y-79624321D01*
X204255000Y-80085098D01*
X193793770Y-80085098D01*
X193781514Y-80043329D01*
X193526004Y-79922429D01*
X193251816Y-79853700D01*
X192969488Y-79839783D01*
X192689870Y-79881213D01*
X192423708Y-79976397D01*
X192298486Y-80043329D01*
X192226903Y-80287298D01*
X189076694Y-80287298D01*
X188954759Y-80165363D01*
X188719727Y-80008320D01*
X188458574Y-79900147D01*
X188181335Y-79845000D01*
X187898665Y-79845000D01*
X187621426Y-79900147D01*
X187360273Y-80008320D01*
X187125241Y-80165363D01*
X186925363Y-80365241D01*
X186768320Y-80600273D01*
X186660147Y-80861426D01*
X186605000Y-81138665D01*
X186605000Y-81421335D01*
X186660147Y-81698574D01*
X186768320Y-81959727D01*
X186925363Y-82194759D01*
X187125241Y-82394637D01*
X187280001Y-82498044D01*
X187280000Y-84695198D01*
X185585000Y-86390198D01*
X185585000Y-86218665D01*
X185529853Y-85941426D01*
X185421680Y-85680273D01*
X185264637Y-85445241D01*
X185064759Y-85245363D01*
X184832241Y-85090000D01*
X185064759Y-84934637D01*
X185264637Y-84734759D01*
X185421680Y-84499727D01*
X185529853Y-84238574D01*
X185585000Y-83961335D01*
X185585000Y-83678665D01*
X185529853Y-83401426D01*
X185421680Y-83140273D01*
X185264637Y-82905241D01*
X185064759Y-82705363D01*
X184829727Y-82548320D01*
X184819135Y-82543933D01*
X185005131Y-82432385D01*
X185213519Y-82243414D01*
X185381037Y-82017420D01*
X185501246Y-81763087D01*
X185541904Y-81629039D01*
X185419915Y-81407000D01*
X184277000Y-81407000D01*
X184277000Y-81427000D01*
X184023000Y-81427000D01*
X184023000Y-81407000D01*
X182880085Y-81407000D01*
X182758096Y-81629039D01*
X182798754Y-81763087D01*
X182918963Y-82017420D01*
X183086481Y-82243414D01*
X183294869Y-82432385D01*
X183480865Y-82543933D01*
X183470273Y-82548320D01*
X183235241Y-82705363D01*
X183035363Y-82905241D01*
X182878320Y-83140273D01*
X182770147Y-83401426D01*
X182715000Y-83678665D01*
X177965000Y-83678665D01*
X177909853Y-83401426D01*
X177801680Y-83140273D01*
X177644637Y-82905241D01*
X177446039Y-82706643D01*
X177454482Y-82705812D01*
X177574180Y-82669502D01*
X177684494Y-82610537D01*
X177781185Y-82531185D01*
X177860537Y-82434494D01*
X177919502Y-82324180D01*
X177955812Y-82204482D01*
X177968072Y-82080000D01*
X177968072Y-80930961D01*
X182758096Y-80930961D01*
X182880085Y-81153000D01*
X184023000Y-81153000D01*
X184023000Y-80009376D01*
X184277000Y-80009376D01*
X184277000Y-81153000D01*
X185419915Y-81153000D01*
X185541904Y-80930961D01*
X185501246Y-80796913D01*
X185381037Y-80542580D01*
X185213519Y-80316586D01*
X185005131Y-80127615D01*
X184763881Y-79982930D01*
X184499040Y-79888091D01*
X184277000Y-80009376D01*
X184023000Y-80009376D01*
X183800960Y-79888091D01*
X183536119Y-79982930D01*
X183294869Y-80127615D01*
X183086481Y-80316586D01*
X182918963Y-80542580D01*
X182798754Y-80796913D01*
X182758096Y-80930961D01*
X177968072Y-80930961D01*
X177968072Y-80480000D01*
X177955812Y-80355518D01*
X177919502Y-80235820D01*
X177860537Y-80125506D01*
X177781185Y-80028815D01*
X177684494Y-79949463D01*
X177574180Y-79890498D01*
X177454482Y-79854188D01*
X177330000Y-79841928D01*
X175730000Y-79841928D01*
X175605518Y-79854188D01*
X175485820Y-79890498D01*
X175375506Y-79949463D01*
X175278815Y-80028815D01*
X175199463Y-80125506D01*
X175140498Y-80235820D01*
X175104188Y-80355518D01*
X175091928Y-80480000D01*
X171491586Y-80480000D01*
X171372312Y-80301495D01*
X171305873Y-80235056D01*
X171324180Y-80229502D01*
X171434494Y-80170537D01*
X171531185Y-80091185D01*
X171610537Y-79994494D01*
X171669502Y-79884180D01*
X171705812Y-79764482D01*
X171718072Y-79640000D01*
X171718072Y-77840000D01*
X171705812Y-77715518D01*
X171669502Y-77595820D01*
X171610537Y-77485506D01*
X171531185Y-77388815D01*
X171457892Y-77328665D01*
X175175000Y-77328665D01*
X175175000Y-77611335D01*
X175230147Y-77888574D01*
X175338320Y-78149727D01*
X175495363Y-78384759D01*
X175695241Y-78584637D01*
X175930273Y-78741680D01*
X176191426Y-78849853D01*
X176468665Y-78905000D01*
X176751335Y-78905000D01*
X177028574Y-78849853D01*
X177289727Y-78741680D01*
X177524759Y-78584637D01*
X177646694Y-78462702D01*
X180796903Y-78462702D01*
X180868486Y-78706671D01*
X181123996Y-78827571D01*
X181398184Y-78896300D01*
X181680512Y-78910217D01*
X181960130Y-78868787D01*
X182226292Y-78773603D01*
X182351514Y-78706671D01*
X182423097Y-78462702D01*
X181610000Y-77649605D01*
X180796903Y-78462702D01*
X177646694Y-78462702D01*
X177724637Y-78384759D01*
X177881680Y-78149727D01*
X177989853Y-77888574D01*
X178045000Y-77611335D01*
X178045000Y-77540512D01*
X180169783Y-77540512D01*
X180211213Y-77820130D01*
X180306397Y-78086292D01*
X180373329Y-78211514D01*
X180617298Y-78283097D01*
X181430395Y-77470000D01*
X181789605Y-77470000D01*
X182602702Y-78283097D01*
X182846671Y-78211514D01*
X182967571Y-77956004D01*
X183036300Y-77681816D01*
X183050217Y-77399488D01*
X183019579Y-77192702D01*
X187146903Y-77192702D01*
X187218486Y-77436671D01*
X187473996Y-77557571D01*
X187748184Y-77626300D01*
X188030512Y-77640217D01*
X188310130Y-77598787D01*
X188576292Y-77503603D01*
X188701514Y-77436671D01*
X188773097Y-77192702D01*
X187960000Y-76379605D01*
X187146903Y-77192702D01*
X183019579Y-77192702D01*
X183008787Y-77119870D01*
X182913603Y-76853708D01*
X182846671Y-76728486D01*
X182602702Y-76656903D01*
X181789605Y-77470000D01*
X181430395Y-77470000D01*
X180617298Y-76656903D01*
X180373329Y-76728486D01*
X180252429Y-76983996D01*
X180183700Y-77258184D01*
X180169783Y-77540512D01*
X178045000Y-77540512D01*
X178045000Y-77328665D01*
X177989853Y-77051426D01*
X177881680Y-76790273D01*
X177724637Y-76555241D01*
X177646694Y-76477298D01*
X180796903Y-76477298D01*
X181610000Y-77290395D01*
X182423097Y-76477298D01*
X182362424Y-76270512D01*
X186519783Y-76270512D01*
X186561213Y-76550130D01*
X186656397Y-76816292D01*
X186723329Y-76941514D01*
X186967298Y-77013097D01*
X187780395Y-76200000D01*
X188139605Y-76200000D01*
X188952702Y-77013097D01*
X189196671Y-76941514D01*
X189317571Y-76686004D01*
X189386300Y-76411816D01*
X189400217Y-76129488D01*
X189389724Y-76058665D01*
X191525000Y-76058665D01*
X191525000Y-76341335D01*
X191580147Y-76618574D01*
X191688320Y-76879727D01*
X191845363Y-77114759D01*
X192045241Y-77314637D01*
X192280273Y-77471680D01*
X192541426Y-77579853D01*
X192818665Y-77635000D01*
X193101335Y-77635000D01*
X193378574Y-77579853D01*
X193639727Y-77471680D01*
X193874759Y-77314637D01*
X194074637Y-77114759D01*
X194231680Y-76879727D01*
X194339853Y-76618574D01*
X194395000Y-76341335D01*
X194395000Y-76058665D01*
X194339853Y-75781426D01*
X194231680Y-75520273D01*
X194074637Y-75285241D01*
X193874759Y-75085363D01*
X193639727Y-74928320D01*
X193378574Y-74820147D01*
X193101335Y-74765000D01*
X192818665Y-74765000D01*
X192541426Y-74820147D01*
X192280273Y-74928320D01*
X192045241Y-75085363D01*
X191845363Y-75285241D01*
X191688320Y-75520273D01*
X191580147Y-75781426D01*
X191525000Y-76058665D01*
X189389724Y-76058665D01*
X189358787Y-75849870D01*
X189263603Y-75583708D01*
X189196671Y-75458486D01*
X188952702Y-75386903D01*
X188139605Y-76200000D01*
X187780395Y-76200000D01*
X186967298Y-75386903D01*
X186723329Y-75458486D01*
X186602429Y-75713996D01*
X186533700Y-75988184D01*
X186519783Y-76270512D01*
X182362424Y-76270512D01*
X182351514Y-76233329D01*
X182096004Y-76112429D01*
X181821816Y-76043700D01*
X181539488Y-76029783D01*
X181259870Y-76071213D01*
X180993708Y-76166397D01*
X180868486Y-76233329D01*
X180796903Y-76477298D01*
X177646694Y-76477298D01*
X177524759Y-76355363D01*
X177289727Y-76198320D01*
X177028574Y-76090147D01*
X176751335Y-76035000D01*
X176468665Y-76035000D01*
X176191426Y-76090147D01*
X175930273Y-76198320D01*
X175695241Y-76355363D01*
X175495363Y-76555241D01*
X175338320Y-76790273D01*
X175230147Y-77051426D01*
X175175000Y-77328665D01*
X171457892Y-77328665D01*
X171434494Y-77309463D01*
X171324180Y-77250498D01*
X171204482Y-77214188D01*
X171080000Y-77201928D01*
X169280000Y-77201928D01*
X169155518Y-77214188D01*
X169035820Y-77250498D01*
X168925506Y-77309463D01*
X168828815Y-77388815D01*
X168749463Y-77485506D01*
X168690498Y-77595820D01*
X168654188Y-77715518D01*
X168641928Y-77840000D01*
X131470000Y-77840000D01*
X131470000Y-72390000D01*
X135126324Y-72390000D01*
X135130000Y-72427323D01*
X135130001Y-74892668D01*
X135126324Y-74930000D01*
X135130001Y-74967333D01*
X135140998Y-75078986D01*
X135143712Y-75087932D01*
X135184454Y-75222246D01*
X135255026Y-75354276D01*
X135281803Y-75386903D01*
X135350000Y-75470001D01*
X135378998Y-75493799D01*
X136596201Y-76711003D01*
X136619999Y-76740001D01*
X136735724Y-76834974D01*
X136867753Y-76905546D01*
X137011014Y-76949003D01*
X137122667Y-76960000D01*
X137122676Y-76960000D01*
X137159999Y-76963676D01*
X137197322Y-76960000D01*
X151092678Y-76960000D01*
X151130000Y-76963676D01*
X151167322Y-76960000D01*
X151167333Y-76960000D01*
X151278986Y-76949003D01*
X151422247Y-76905546D01*
X151554276Y-76834974D01*
X151670001Y-76740001D01*
X151693804Y-76710997D01*
X153197504Y-75207298D01*
X187146903Y-75207298D01*
X187960000Y-76020395D01*
X188773097Y-75207298D01*
X188701514Y-74963329D01*
X188446004Y-74842429D01*
X188171816Y-74773700D01*
X187889488Y-74759783D01*
X187609870Y-74801213D01*
X187343708Y-74896397D01*
X187218486Y-74963329D01*
X187146903Y-75207298D01*
X153197504Y-75207298D01*
X154181009Y-74223794D01*
X154210001Y-74200001D01*
X154233795Y-74171008D01*
X154233799Y-74171004D01*
X154304973Y-74084277D01*
X154304974Y-74084276D01*
X154375546Y-73952247D01*
X154419003Y-73808986D01*
X154430000Y-73697333D01*
X154430000Y-73697324D01*
X154433676Y-73660001D01*
X154430000Y-73622678D01*
X154430000Y-69798043D01*
X154584759Y-69694637D01*
X154784637Y-69494759D01*
X154940000Y-69262241D01*
X155095363Y-69494759D01*
X155295241Y-69694637D01*
X155530273Y-69851680D01*
X155791426Y-69959853D01*
X156068665Y-70015000D01*
X156351335Y-70015000D01*
X156628574Y-69959853D01*
X156889727Y-69851680D01*
X157124759Y-69694637D01*
X157324637Y-69494759D01*
X157480000Y-69262241D01*
X157635363Y-69494759D01*
X157835241Y-69694637D01*
X158070273Y-69851680D01*
X158331426Y-69959853D01*
X158608665Y-70015000D01*
X158891335Y-70015000D01*
X159168574Y-69959853D01*
X159429727Y-69851680D01*
X159664759Y-69694637D01*
X159864637Y-69494759D01*
X160021680Y-69259727D01*
X160026067Y-69249135D01*
X160137615Y-69435131D01*
X160326586Y-69643519D01*
X160552580Y-69811037D01*
X160806913Y-69931246D01*
X160940961Y-69971904D01*
X161163000Y-69849915D01*
X161163000Y-68707000D01*
X161417000Y-68707000D01*
X161417000Y-69849915D01*
X161639039Y-69971904D01*
X161773087Y-69931246D01*
X162027420Y-69811037D01*
X162253414Y-69643519D01*
X162442385Y-69435131D01*
X162587070Y-69193881D01*
X162681909Y-68929040D01*
X162560624Y-68707000D01*
X161417000Y-68707000D01*
X161163000Y-68707000D01*
X161143000Y-68707000D01*
X161143000Y-68453000D01*
X161163000Y-68453000D01*
X161163000Y-67310085D01*
X160940961Y-67188096D01*
X160806913Y-67228754D01*
X160552580Y-67348963D01*
X160326586Y-67516481D01*
X160137615Y-67724869D01*
X160026067Y-67910865D01*
X160021680Y-67900273D01*
X159864637Y-67665241D01*
X159664759Y-67465363D01*
X159429727Y-67308320D01*
X159168574Y-67200147D01*
X158891335Y-67145000D01*
X158608665Y-67145000D01*
X158331426Y-67200147D01*
X158070273Y-67308320D01*
X157835241Y-67465363D01*
X157635363Y-67665241D01*
X157480000Y-67897759D01*
X157324637Y-67665241D01*
X157124759Y-67465363D01*
X156889727Y-67308320D01*
X156628574Y-67200147D01*
X156351335Y-67145000D01*
X156068665Y-67145000D01*
X155886114Y-67181312D01*
X155503804Y-66799003D01*
X155480001Y-66769999D01*
X155364276Y-66675026D01*
X155232247Y-66604454D01*
X155088986Y-66560997D01*
X154977333Y-66550000D01*
X154977322Y-66550000D01*
X154940000Y-66546324D01*
X154902678Y-66550000D01*
X154234801Y-66550000D01*
X158426114Y-62358688D01*
X158608665Y-62395000D01*
X158891335Y-62395000D01*
X159168574Y-62339853D01*
X159429727Y-62231680D01*
X159664759Y-62074637D01*
X159864637Y-61874759D01*
X160020000Y-61642241D01*
X160175363Y-61874759D01*
X160375241Y-62074637D01*
X160530000Y-62178044D01*
X160530001Y-66002668D01*
X160526324Y-66040000D01*
X160530001Y-66077333D01*
X160540245Y-66181335D01*
X160540998Y-66188985D01*
X160584454Y-66332246D01*
X160655026Y-66464276D01*
X160722362Y-66546324D01*
X160750000Y-66580001D01*
X160778998Y-66603799D01*
X161461071Y-67285872D01*
X161417000Y-67310085D01*
X161417000Y-68453000D01*
X162560624Y-68453000D01*
X162584496Y-68409297D01*
X166931202Y-72756004D01*
X166955000Y-72785002D01*
X166990672Y-72814277D01*
X167070725Y-72879975D01*
X167202754Y-72950547D01*
X167346015Y-72994004D01*
X167495001Y-73008678D01*
X167532334Y-73005001D01*
X175248077Y-73005001D01*
X175150147Y-73241426D01*
X175095000Y-73518665D01*
X175095000Y-73801335D01*
X175150147Y-74078574D01*
X175258320Y-74339727D01*
X175415363Y-74574759D01*
X175615241Y-74774637D01*
X175850273Y-74931680D01*
X176111426Y-75039853D01*
X176388665Y-75095000D01*
X176671335Y-75095000D01*
X176948574Y-75039853D01*
X177209727Y-74931680D01*
X177444759Y-74774637D01*
X177644637Y-74574759D01*
X177801680Y-74339727D01*
X177909853Y-74078574D01*
X177965000Y-73801335D01*
X177965000Y-73518665D01*
X177909853Y-73241426D01*
X177801680Y-72980273D01*
X177644637Y-72745241D01*
X177644600Y-72745204D01*
X178114802Y-72275002D01*
X183295652Y-72275002D01*
X183467759Y-72390000D01*
X183235241Y-72545363D01*
X183035363Y-72745241D01*
X182878320Y-72980273D01*
X182770147Y-73241426D01*
X182715000Y-73518665D01*
X182715000Y-73801335D01*
X182770147Y-74078574D01*
X182878320Y-74339727D01*
X183035363Y-74574759D01*
X183235241Y-74774637D01*
X183470273Y-74931680D01*
X183731426Y-75039853D01*
X184008665Y-75095000D01*
X184291335Y-75095000D01*
X184568574Y-75039853D01*
X184829727Y-74931680D01*
X185064759Y-74774637D01*
X185264637Y-74574759D01*
X185421680Y-74339727D01*
X185529853Y-74078574D01*
X185585000Y-73801335D01*
X185585000Y-73518665D01*
X185529853Y-73241426D01*
X185421680Y-72980273D01*
X185264637Y-72745241D01*
X185064759Y-72545363D01*
X184832241Y-72390000D01*
X185064759Y-72234637D01*
X185264637Y-72034759D01*
X185421680Y-71799727D01*
X185529853Y-71538574D01*
X185543398Y-71470475D01*
X199595000Y-71470475D01*
X199595000Y-71989525D01*
X199696261Y-72498601D01*
X199894893Y-72978141D01*
X200183262Y-73409715D01*
X200550285Y-73776738D01*
X200981859Y-74065107D01*
X201461399Y-74263739D01*
X201970475Y-74365000D01*
X202489525Y-74365000D01*
X202998601Y-74263739D01*
X203478141Y-74065107D01*
X203909715Y-73776738D01*
X204276738Y-73409715D01*
X204565107Y-72978141D01*
X204763739Y-72498601D01*
X204865000Y-71989525D01*
X204865000Y-71470475D01*
X204763739Y-70961399D01*
X204565107Y-70481859D01*
X204276738Y-70050285D01*
X203909715Y-69683262D01*
X203478141Y-69394893D01*
X202998601Y-69196261D01*
X202489525Y-69095000D01*
X201970475Y-69095000D01*
X201461399Y-69196261D01*
X200981859Y-69394893D01*
X200550285Y-69683262D01*
X200183262Y-70050285D01*
X199894893Y-70481859D01*
X199696261Y-70961399D01*
X199595000Y-71470475D01*
X185543398Y-71470475D01*
X185585000Y-71261335D01*
X185585000Y-70978665D01*
X185529853Y-70701426D01*
X185421680Y-70440273D01*
X185264637Y-70205241D01*
X185064759Y-70005363D01*
X184832241Y-69850000D01*
X185064759Y-69694637D01*
X185264637Y-69494759D01*
X185421680Y-69259727D01*
X185529853Y-68998574D01*
X185585000Y-68721335D01*
X185585000Y-68438665D01*
X185529853Y-68161426D01*
X185421680Y-67900273D01*
X185264637Y-67665241D01*
X185064759Y-67465363D01*
X184832241Y-67310000D01*
X185064759Y-67154637D01*
X185264637Y-66954759D01*
X185421680Y-66719727D01*
X185529853Y-66458574D01*
X185585000Y-66181335D01*
X185585000Y-65898665D01*
X185529853Y-65621426D01*
X185421680Y-65360273D01*
X185264637Y-65125241D01*
X185064759Y-64925363D01*
X184832241Y-64770000D01*
X185064759Y-64614637D01*
X185264637Y-64414759D01*
X185421680Y-64179727D01*
X185508551Y-63970000D01*
X200491928Y-63970000D01*
X200491928Y-65570000D01*
X200504188Y-65694482D01*
X200540498Y-65814180D01*
X200599463Y-65924494D01*
X200678815Y-66021185D01*
X200775506Y-66100537D01*
X200885820Y-66159502D01*
X201005518Y-66195812D01*
X201130000Y-66208072D01*
X202730000Y-66208072D01*
X202854482Y-66195812D01*
X202974180Y-66159502D01*
X203084494Y-66100537D01*
X203181185Y-66021185D01*
X203260537Y-65924494D01*
X203319502Y-65814180D01*
X203355812Y-65694482D01*
X203368072Y-65570000D01*
X203368072Y-63970000D01*
X203355812Y-63845518D01*
X203319502Y-63725820D01*
X203260537Y-63615506D01*
X203181185Y-63518815D01*
X203084494Y-63439463D01*
X202974180Y-63380498D01*
X202854482Y-63344188D01*
X202730000Y-63331928D01*
X202464275Y-63331928D01*
X202609727Y-63271680D01*
X202844759Y-63114637D01*
X203044637Y-62914759D01*
X203201680Y-62679727D01*
X203309853Y-62418574D01*
X203365000Y-62141335D01*
X203365000Y-61858665D01*
X203309853Y-61581426D01*
X203201680Y-61320273D01*
X203044637Y-61085241D01*
X202844759Y-60885363D01*
X202609727Y-60728320D01*
X202348574Y-60620147D01*
X202322699Y-60615000D01*
X202348574Y-60609853D01*
X202609727Y-60501680D01*
X202844759Y-60344637D01*
X203044637Y-60144759D01*
X203201680Y-59909727D01*
X203309853Y-59648574D01*
X203365000Y-59371335D01*
X203365000Y-59088665D01*
X203309853Y-58811426D01*
X203201680Y-58550273D01*
X203044637Y-58315241D01*
X202844759Y-58115363D01*
X202609727Y-57958320D01*
X202348574Y-57850147D01*
X202322699Y-57845000D01*
X202348574Y-57839853D01*
X202609727Y-57731680D01*
X202844759Y-57574637D01*
X203044637Y-57374759D01*
X203201680Y-57139727D01*
X203309853Y-56878574D01*
X203365000Y-56601335D01*
X203365000Y-56318665D01*
X203309853Y-56041426D01*
X203201680Y-55780273D01*
X203044637Y-55545241D01*
X202844759Y-55345363D01*
X202609727Y-55188320D01*
X202348574Y-55080147D01*
X202320118Y-55074487D01*
X202546292Y-54993603D01*
X202658429Y-54933665D01*
X203335000Y-54933665D01*
X203335000Y-55216335D01*
X203390147Y-55493574D01*
X203498320Y-55754727D01*
X203655363Y-55989759D01*
X203855241Y-56189637D01*
X204090273Y-56346680D01*
X204351426Y-56454853D01*
X204377301Y-56460000D01*
X204351426Y-56465147D01*
X204090273Y-56573320D01*
X203855241Y-56730363D01*
X203655363Y-56930241D01*
X203498320Y-57165273D01*
X203390147Y-57426426D01*
X203335000Y-57703665D01*
X203335000Y-57986335D01*
X203390147Y-58263574D01*
X203498320Y-58524727D01*
X203655363Y-58759759D01*
X203855241Y-58959637D01*
X204090273Y-59116680D01*
X204351426Y-59224853D01*
X204377301Y-59230000D01*
X204351426Y-59235147D01*
X204090273Y-59343320D01*
X203855241Y-59500363D01*
X203655363Y-59700241D01*
X203498320Y-59935273D01*
X203390147Y-60196426D01*
X203335000Y-60473665D01*
X203335000Y-60756335D01*
X203390147Y-61033574D01*
X203498320Y-61294727D01*
X203655363Y-61529759D01*
X203855241Y-61729637D01*
X204090273Y-61886680D01*
X204351426Y-61994853D01*
X204377301Y-62000000D01*
X204351426Y-62005147D01*
X204090273Y-62113320D01*
X203855241Y-62270363D01*
X203655363Y-62470241D01*
X203498320Y-62705273D01*
X203390147Y-62966426D01*
X203335000Y-63243665D01*
X203335000Y-63526335D01*
X203390147Y-63803574D01*
X203498320Y-64064727D01*
X203655363Y-64299759D01*
X203855241Y-64499637D01*
X204090273Y-64656680D01*
X204351426Y-64764853D01*
X204628665Y-64820000D01*
X204911335Y-64820000D01*
X205188574Y-64764853D01*
X205449727Y-64656680D01*
X205684759Y-64499637D01*
X205884637Y-64299759D01*
X206041680Y-64064727D01*
X206149853Y-63803574D01*
X206205000Y-63526335D01*
X206205000Y-63243665D01*
X206149853Y-62966426D01*
X206041680Y-62705273D01*
X205884637Y-62470241D01*
X205684759Y-62270363D01*
X205449727Y-62113320D01*
X205188574Y-62005147D01*
X205162699Y-62000000D01*
X205188574Y-61994853D01*
X205449727Y-61886680D01*
X205684759Y-61729637D01*
X205884637Y-61529759D01*
X206041680Y-61294727D01*
X206149853Y-61033574D01*
X206205000Y-60756335D01*
X206205000Y-60473665D01*
X206149853Y-60196426D01*
X206041680Y-59935273D01*
X205884637Y-59700241D01*
X205684759Y-59500363D01*
X205449727Y-59343320D01*
X205188574Y-59235147D01*
X205162699Y-59230000D01*
X205188574Y-59224853D01*
X205449727Y-59116680D01*
X205684759Y-58959637D01*
X205884637Y-58759759D01*
X206041680Y-58524727D01*
X206149853Y-58263574D01*
X206205000Y-57986335D01*
X206205000Y-57703665D01*
X206149853Y-57426426D01*
X206041680Y-57165273D01*
X205884637Y-56930241D01*
X205684759Y-56730363D01*
X205449727Y-56573320D01*
X205188574Y-56465147D01*
X205162699Y-56460000D01*
X205188574Y-56454853D01*
X205449727Y-56346680D01*
X205684759Y-56189637D01*
X205884637Y-55989759D01*
X206041680Y-55754727D01*
X206149853Y-55493574D01*
X206205000Y-55216335D01*
X206205000Y-54933665D01*
X206149853Y-54656426D01*
X206041680Y-54395273D01*
X205884637Y-54160241D01*
X205684759Y-53960363D01*
X205449727Y-53803320D01*
X205188574Y-53695147D01*
X204911335Y-53640000D01*
X204628665Y-53640000D01*
X204351426Y-53695147D01*
X204090273Y-53803320D01*
X203855241Y-53960363D01*
X203655363Y-54160241D01*
X203498320Y-54395273D01*
X203390147Y-54656426D01*
X203335000Y-54933665D01*
X202658429Y-54933665D01*
X202671514Y-54926671D01*
X202743097Y-54682702D01*
X201930000Y-53869605D01*
X201116903Y-54682702D01*
X201188486Y-54926671D01*
X201443996Y-55047571D01*
X201546289Y-55073212D01*
X201511426Y-55080147D01*
X201250273Y-55188320D01*
X201015241Y-55345363D01*
X200815363Y-55545241D01*
X200658320Y-55780273D01*
X200550147Y-56041426D01*
X200495000Y-56318665D01*
X200495000Y-56601335D01*
X200550147Y-56878574D01*
X200658320Y-57139727D01*
X200815363Y-57374759D01*
X201015241Y-57574637D01*
X201250273Y-57731680D01*
X201511426Y-57839853D01*
X201537301Y-57845000D01*
X201511426Y-57850147D01*
X201250273Y-57958320D01*
X201015241Y-58115363D01*
X200815363Y-58315241D01*
X200658320Y-58550273D01*
X200550147Y-58811426D01*
X200495000Y-59088665D01*
X200495000Y-59371335D01*
X200550147Y-59648574D01*
X200658320Y-59909727D01*
X200815363Y-60144759D01*
X201015241Y-60344637D01*
X201250273Y-60501680D01*
X201511426Y-60609853D01*
X201537301Y-60615000D01*
X201511426Y-60620147D01*
X201250273Y-60728320D01*
X201015241Y-60885363D01*
X200815363Y-61085241D01*
X200658320Y-61320273D01*
X200550147Y-61581426D01*
X200495000Y-61858665D01*
X200495000Y-62141335D01*
X200550147Y-62418574D01*
X200658320Y-62679727D01*
X200815363Y-62914759D01*
X201015241Y-63114637D01*
X201250273Y-63271680D01*
X201395725Y-63331928D01*
X201130000Y-63331928D01*
X201005518Y-63344188D01*
X200885820Y-63380498D01*
X200775506Y-63439463D01*
X200678815Y-63518815D01*
X200599463Y-63615506D01*
X200540498Y-63725820D01*
X200504188Y-63845518D01*
X200491928Y-63970000D01*
X185508551Y-63970000D01*
X185529853Y-63918574D01*
X185585000Y-63641335D01*
X185585000Y-63358665D01*
X185529853Y-63081426D01*
X185421680Y-62820273D01*
X185264637Y-62585241D01*
X185064759Y-62385363D01*
X184832241Y-62230000D01*
X185064759Y-62074637D01*
X185264637Y-61874759D01*
X185421680Y-61639727D01*
X185529853Y-61378574D01*
X185585000Y-61101335D01*
X185585000Y-60818665D01*
X185529853Y-60541426D01*
X185421680Y-60280273D01*
X185264637Y-60045241D01*
X185064759Y-59845363D01*
X184829727Y-59688320D01*
X184819135Y-59683933D01*
X185005131Y-59572385D01*
X185213519Y-59383414D01*
X185381037Y-59157420D01*
X185501246Y-58903087D01*
X185541904Y-58769039D01*
X185419915Y-58547000D01*
X184277000Y-58547000D01*
X184277000Y-58567000D01*
X184023000Y-58567000D01*
X184023000Y-58547000D01*
X182880085Y-58547000D01*
X182758096Y-58769039D01*
X182798754Y-58903087D01*
X182918963Y-59157420D01*
X183086481Y-59383414D01*
X183294869Y-59572385D01*
X183480865Y-59683933D01*
X183470273Y-59688320D01*
X183235241Y-59845363D01*
X183035363Y-60045241D01*
X182878320Y-60280273D01*
X182770147Y-60541426D01*
X182715000Y-60818665D01*
X182715000Y-61101335D01*
X182770147Y-61378574D01*
X182878320Y-61639727D01*
X183035363Y-61874759D01*
X183235241Y-62074637D01*
X183467759Y-62230000D01*
X183235241Y-62385363D01*
X183035363Y-62585241D01*
X182878320Y-62820273D01*
X182770147Y-63081426D01*
X182715000Y-63358665D01*
X182715000Y-63641335D01*
X182770147Y-63918574D01*
X182878320Y-64179727D01*
X183035363Y-64414759D01*
X183235241Y-64614637D01*
X183467759Y-64770000D01*
X183235241Y-64925363D01*
X183035363Y-65125241D01*
X182878320Y-65360273D01*
X182770147Y-65621426D01*
X182715000Y-65898665D01*
X182715000Y-66181335D01*
X182770147Y-66458574D01*
X182878320Y-66719727D01*
X183035363Y-66954759D01*
X183235241Y-67154637D01*
X183467759Y-67310000D01*
X183235241Y-67465363D01*
X183035363Y-67665241D01*
X182878320Y-67900273D01*
X182770147Y-68161426D01*
X182715000Y-68438665D01*
X182715000Y-68721335D01*
X182770147Y-68998574D01*
X182878320Y-69259727D01*
X183035363Y-69494759D01*
X183235241Y-69694637D01*
X183467759Y-69850000D01*
X183235241Y-70005363D01*
X183035363Y-70205241D01*
X182878320Y-70440273D01*
X182770147Y-70701426D01*
X182759490Y-70755002D01*
X177920510Y-70755002D01*
X177909853Y-70701426D01*
X177801680Y-70440273D01*
X177644637Y-70205241D01*
X177444759Y-70005363D01*
X177212241Y-69850000D01*
X177444759Y-69694637D01*
X177644637Y-69494759D01*
X177801680Y-69259727D01*
X177909853Y-68998574D01*
X177965000Y-68721335D01*
X177965000Y-68438665D01*
X177909853Y-68161426D01*
X177801680Y-67900273D01*
X177644637Y-67665241D01*
X177444759Y-67465363D01*
X177212241Y-67310000D01*
X177444759Y-67154637D01*
X177644637Y-66954759D01*
X177801680Y-66719727D01*
X177909853Y-66458574D01*
X177965000Y-66181335D01*
X177965000Y-65898665D01*
X177909853Y-65621426D01*
X177801680Y-65360273D01*
X177644637Y-65125241D01*
X177444759Y-64925363D01*
X177212241Y-64770000D01*
X177444759Y-64614637D01*
X177644637Y-64414759D01*
X177801680Y-64179727D01*
X177909853Y-63918574D01*
X177965000Y-63641335D01*
X177965000Y-63358665D01*
X177909853Y-63081426D01*
X177801680Y-62820273D01*
X177644637Y-62585241D01*
X177444759Y-62385363D01*
X177212241Y-62230000D01*
X177444759Y-62074637D01*
X177644637Y-61874759D01*
X177801680Y-61639727D01*
X177909853Y-61378574D01*
X177965000Y-61101335D01*
X177965000Y-60818665D01*
X177909853Y-60541426D01*
X177801680Y-60280273D01*
X177644637Y-60045241D01*
X177444759Y-59845363D01*
X177212241Y-59690000D01*
X177444759Y-59534637D01*
X177644637Y-59334759D01*
X177801680Y-59099727D01*
X177909853Y-58838574D01*
X177965000Y-58561335D01*
X177965000Y-58278665D01*
X177909853Y-58001426D01*
X177801680Y-57740273D01*
X177644637Y-57505241D01*
X177444759Y-57305363D01*
X177212241Y-57150000D01*
X177444759Y-56994637D01*
X177644637Y-56794759D01*
X177801680Y-56559727D01*
X177909853Y-56298574D01*
X177965000Y-56021335D01*
X177965000Y-55738665D01*
X177909853Y-55461426D01*
X177801680Y-55200273D01*
X177644637Y-54965241D01*
X177446039Y-54766643D01*
X177454482Y-54765812D01*
X177574180Y-54729502D01*
X177684494Y-54670537D01*
X177781185Y-54591185D01*
X177860537Y-54494494D01*
X177919502Y-54384180D01*
X177955812Y-54264482D01*
X177968072Y-54140000D01*
X177968072Y-53198665D01*
X182715000Y-53198665D01*
X182715000Y-53481335D01*
X182770147Y-53758574D01*
X182878320Y-54019727D01*
X183035363Y-54254759D01*
X183235241Y-54454637D01*
X183467759Y-54610000D01*
X183235241Y-54765363D01*
X183035363Y-54965241D01*
X182878320Y-55200273D01*
X182770147Y-55461426D01*
X182715000Y-55738665D01*
X182715000Y-56021335D01*
X182770147Y-56298574D01*
X182878320Y-56559727D01*
X183035363Y-56794759D01*
X183235241Y-56994637D01*
X183470273Y-57151680D01*
X183480865Y-57156067D01*
X183294869Y-57267615D01*
X183086481Y-57456586D01*
X182918963Y-57682580D01*
X182798754Y-57936913D01*
X182758096Y-58070961D01*
X182880085Y-58293000D01*
X184023000Y-58293000D01*
X184023000Y-58273000D01*
X184277000Y-58273000D01*
X184277000Y-58293000D01*
X185419915Y-58293000D01*
X185541904Y-58070961D01*
X185501246Y-57936913D01*
X185381037Y-57682580D01*
X185213519Y-57456586D01*
X185005131Y-57267615D01*
X184819135Y-57156067D01*
X184829727Y-57151680D01*
X185064759Y-56994637D01*
X185264637Y-56794759D01*
X185421680Y-56559727D01*
X185529853Y-56298574D01*
X185585000Y-56021335D01*
X185585000Y-55738665D01*
X185529853Y-55461426D01*
X185421680Y-55200273D01*
X185264637Y-54965241D01*
X185064759Y-54765363D01*
X184832241Y-54610000D01*
X185064759Y-54454637D01*
X185264637Y-54254759D01*
X185421680Y-54019727D01*
X185529050Y-53760512D01*
X200489783Y-53760512D01*
X200531213Y-54040130D01*
X200626397Y-54306292D01*
X200693329Y-54431514D01*
X200937298Y-54503097D01*
X201750395Y-53690000D01*
X202109605Y-53690000D01*
X202922702Y-54503097D01*
X203166671Y-54431514D01*
X203287571Y-54176004D01*
X203356300Y-53901816D01*
X203370217Y-53619488D01*
X203328787Y-53339870D01*
X203233603Y-53073708D01*
X203166671Y-52948486D01*
X202922702Y-52876903D01*
X202109605Y-53690000D01*
X201750395Y-53690000D01*
X200937298Y-52876903D01*
X200693329Y-52948486D01*
X200572429Y-53203996D01*
X200503700Y-53478184D01*
X200489783Y-53760512D01*
X185529050Y-53760512D01*
X185529853Y-53758574D01*
X185585000Y-53481335D01*
X185585000Y-53198665D01*
X185529853Y-52921426D01*
X185437017Y-52697298D01*
X201116903Y-52697298D01*
X201930000Y-53510395D01*
X202743097Y-52697298D01*
X202671514Y-52453329D01*
X202416004Y-52332429D01*
X202141816Y-52263700D01*
X201859488Y-52249783D01*
X201579870Y-52291213D01*
X201313708Y-52386397D01*
X201188486Y-52453329D01*
X201116903Y-52697298D01*
X185437017Y-52697298D01*
X185421680Y-52660273D01*
X185264637Y-52425241D01*
X185064759Y-52225363D01*
X184829727Y-52068320D01*
X184568574Y-51960147D01*
X184291335Y-51905000D01*
X184008665Y-51905000D01*
X183731426Y-51960147D01*
X183470273Y-52068320D01*
X183235241Y-52225363D01*
X183035363Y-52425241D01*
X182878320Y-52660273D01*
X182770147Y-52921426D01*
X182715000Y-53198665D01*
X177968072Y-53198665D01*
X177968072Y-52540000D01*
X177955812Y-52415518D01*
X177919502Y-52295820D01*
X177860537Y-52185506D01*
X177781185Y-52088815D01*
X177684494Y-52009463D01*
X177574180Y-51950498D01*
X177454482Y-51914188D01*
X177330000Y-51901928D01*
X175730000Y-51901928D01*
X175605518Y-51914188D01*
X175485820Y-51950498D01*
X175375506Y-52009463D01*
X175278815Y-52088815D01*
X175199463Y-52185506D01*
X175140498Y-52295820D01*
X175104188Y-52415518D01*
X175091928Y-52540000D01*
X175091928Y-54140000D01*
X175104188Y-54264482D01*
X175140498Y-54384180D01*
X175199463Y-54494494D01*
X175278815Y-54591185D01*
X175375506Y-54670537D01*
X175485820Y-54729502D01*
X175605518Y-54765812D01*
X175613961Y-54766643D01*
X175415363Y-54965241D01*
X175258320Y-55200273D01*
X175150147Y-55461426D01*
X175095000Y-55738665D01*
X175095000Y-56021335D01*
X175150147Y-56298574D01*
X175258320Y-56559727D01*
X175415363Y-56794759D01*
X175615241Y-56994637D01*
X175847759Y-57150000D01*
X175615241Y-57305363D01*
X175415363Y-57505241D01*
X175258320Y-57740273D01*
X175150147Y-58001426D01*
X175095000Y-58278665D01*
X175095000Y-58561335D01*
X175150147Y-58838574D01*
X175258320Y-59099727D01*
X175415363Y-59334759D01*
X175615241Y-59534637D01*
X175847759Y-59690000D01*
X175615241Y-59845363D01*
X175415363Y-60045241D01*
X175258320Y-60280273D01*
X175150147Y-60541426D01*
X175095000Y-60818665D01*
X175095000Y-61101335D01*
X175150147Y-61378574D01*
X175258320Y-61639727D01*
X175415363Y-61874759D01*
X175615241Y-62074637D01*
X175847759Y-62230000D01*
X175615241Y-62385363D01*
X175415363Y-62585241D01*
X175258320Y-62820273D01*
X175150147Y-63081426D01*
X175095000Y-63358665D01*
X175095000Y-63530199D01*
X174553804Y-62989003D01*
X174530001Y-62959999D01*
X174414276Y-62865026D01*
X174282247Y-62794454D01*
X174138986Y-62750997D01*
X174027333Y-62740000D01*
X174027322Y-62740000D01*
X173990000Y-62736324D01*
X173952678Y-62740000D01*
X173938043Y-62740000D01*
X173834637Y-62585241D01*
X173634759Y-62385363D01*
X173399727Y-62228320D01*
X173138574Y-62120147D01*
X172861335Y-62065000D01*
X172578665Y-62065000D01*
X172301426Y-62120147D01*
X172040273Y-62228320D01*
X171805241Y-62385363D01*
X171605363Y-62585241D01*
X171448320Y-62820273D01*
X171340147Y-63081426D01*
X171285000Y-63358665D01*
X171285000Y-63641335D01*
X171340147Y-63918574D01*
X171448320Y-64179727D01*
X171605363Y-64414759D01*
X171805241Y-64614637D01*
X172040273Y-64771680D01*
X172301426Y-64879853D01*
X172578665Y-64935000D01*
X172861335Y-64935000D01*
X173138574Y-64879853D01*
X173399727Y-64771680D01*
X173634759Y-64614637D01*
X173832297Y-64417099D01*
X175131312Y-65716114D01*
X175095000Y-65898665D01*
X175095000Y-66181335D01*
X175150147Y-66458574D01*
X175258320Y-66719727D01*
X175415363Y-66954759D01*
X175615241Y-67154637D01*
X175847759Y-67310000D01*
X175615241Y-67465363D01*
X175415363Y-67665241D01*
X175258320Y-67900273D01*
X175150147Y-68161426D01*
X175095000Y-68438665D01*
X175095000Y-68721335D01*
X175150147Y-68998574D01*
X175258320Y-69259727D01*
X175415363Y-69494759D01*
X175615241Y-69694637D01*
X175847759Y-69850000D01*
X175615241Y-70005363D01*
X175415363Y-70205241D01*
X175258320Y-70440273D01*
X175150147Y-70701426D01*
X175095000Y-70978665D01*
X175095000Y-71261335D01*
X175139491Y-71485001D01*
X167809803Y-71485001D01*
X165897504Y-69572702D01*
X166826903Y-69572702D01*
X166898486Y-69816671D01*
X167153996Y-69937571D01*
X167428184Y-70006300D01*
X167710512Y-70020217D01*
X167990130Y-69978787D01*
X168256292Y-69883603D01*
X168381514Y-69816671D01*
X168453097Y-69572702D01*
X167640000Y-68759605D01*
X166826903Y-69572702D01*
X165897504Y-69572702D01*
X164975314Y-68650512D01*
X166199783Y-68650512D01*
X166241213Y-68930130D01*
X166336397Y-69196292D01*
X166403329Y-69321514D01*
X166647298Y-69393097D01*
X167460395Y-68580000D01*
X167819605Y-68580000D01*
X168632702Y-69393097D01*
X168876671Y-69321514D01*
X168997571Y-69066004D01*
X169066300Y-68791816D01*
X169080217Y-68509488D01*
X169069724Y-68438665D01*
X171205000Y-68438665D01*
X171205000Y-68721335D01*
X171260147Y-68998574D01*
X171368320Y-69259727D01*
X171525363Y-69494759D01*
X171725241Y-69694637D01*
X171960273Y-69851680D01*
X172221426Y-69959853D01*
X172498665Y-70015000D01*
X172781335Y-70015000D01*
X173058574Y-69959853D01*
X173319727Y-69851680D01*
X173554759Y-69694637D01*
X173754637Y-69494759D01*
X173911680Y-69259727D01*
X174019853Y-68998574D01*
X174075000Y-68721335D01*
X174075000Y-68438665D01*
X174019853Y-68161426D01*
X173911680Y-67900273D01*
X173754637Y-67665241D01*
X173554759Y-67465363D01*
X173319727Y-67308320D01*
X173058574Y-67200147D01*
X172781335Y-67145000D01*
X172498665Y-67145000D01*
X172221426Y-67200147D01*
X171960273Y-67308320D01*
X171725241Y-67465363D01*
X171525363Y-67665241D01*
X171368320Y-67900273D01*
X171260147Y-68161426D01*
X171205000Y-68438665D01*
X169069724Y-68438665D01*
X169038787Y-68229870D01*
X168943603Y-67963708D01*
X168876671Y-67838486D01*
X168632702Y-67766903D01*
X167819605Y-68580000D01*
X167460395Y-68580000D01*
X166647298Y-67766903D01*
X166403329Y-67838486D01*
X166282429Y-68093996D01*
X166213700Y-68368184D01*
X166199783Y-68650512D01*
X164975314Y-68650512D01*
X163912100Y-67587298D01*
X166826903Y-67587298D01*
X167640000Y-68400395D01*
X168453097Y-67587298D01*
X168381514Y-67343329D01*
X168126004Y-67222429D01*
X167851816Y-67153700D01*
X167569488Y-67139783D01*
X167289870Y-67181213D01*
X167023708Y-67276397D01*
X166898486Y-67343329D01*
X166826903Y-67587298D01*
X163912100Y-67587298D01*
X162050000Y-65725199D01*
X162050000Y-63358665D01*
X166285000Y-63358665D01*
X166285000Y-63641335D01*
X166340147Y-63918574D01*
X166448320Y-64179727D01*
X166605363Y-64414759D01*
X166805241Y-64614637D01*
X167040273Y-64771680D01*
X167301426Y-64879853D01*
X167578665Y-64935000D01*
X167861335Y-64935000D01*
X168138574Y-64879853D01*
X168399727Y-64771680D01*
X168634759Y-64614637D01*
X168834637Y-64414759D01*
X168991680Y-64179727D01*
X169099853Y-63918574D01*
X169155000Y-63641335D01*
X169155000Y-63358665D01*
X169099853Y-63081426D01*
X168991680Y-62820273D01*
X168834637Y-62585241D01*
X168634759Y-62385363D01*
X168399727Y-62228320D01*
X168138574Y-62120147D01*
X167861335Y-62065000D01*
X167578665Y-62065000D01*
X167301426Y-62120147D01*
X167040273Y-62228320D01*
X166805241Y-62385363D01*
X166605363Y-62585241D01*
X166448320Y-62820273D01*
X166340147Y-63081426D01*
X166285000Y-63358665D01*
X162050000Y-63358665D01*
X162050000Y-62178043D01*
X162204759Y-62074637D01*
X162404637Y-61874759D01*
X162561680Y-61639727D01*
X162669853Y-61378574D01*
X162725000Y-61101335D01*
X162725000Y-60818665D01*
X162669853Y-60541426D01*
X162561680Y-60280273D01*
X162404637Y-60045241D01*
X162204759Y-59845363D01*
X161969727Y-59688320D01*
X161708574Y-59580147D01*
X161431335Y-59525000D01*
X161148665Y-59525000D01*
X160871426Y-59580147D01*
X160610273Y-59688320D01*
X160375241Y-59845363D01*
X160175363Y-60045241D01*
X160020000Y-60277759D01*
X159864637Y-60045241D01*
X159664759Y-59845363D01*
X159429727Y-59688320D01*
X159168574Y-59580147D01*
X158891335Y-59525000D01*
X158608665Y-59525000D01*
X158331426Y-59580147D01*
X158070273Y-59688320D01*
X157835241Y-59845363D01*
X157635363Y-60045241D01*
X157480000Y-60277759D01*
X157324637Y-60045241D01*
X157124759Y-59845363D01*
X156889727Y-59688320D01*
X156628574Y-59580147D01*
X156351335Y-59525000D01*
X156068665Y-59525000D01*
X155791426Y-59580147D01*
X155530273Y-59688320D01*
X155295241Y-59845363D01*
X155095363Y-60045241D01*
X154940000Y-60277759D01*
X154784637Y-60045241D01*
X154584759Y-59845363D01*
X154349727Y-59688320D01*
X154088574Y-59580147D01*
X153811335Y-59525000D01*
X153528665Y-59525000D01*
X153251426Y-59580147D01*
X152990273Y-59688320D01*
X152755241Y-59845363D01*
X152555363Y-60045241D01*
X152400000Y-60277759D01*
X152244637Y-60045241D01*
X152044759Y-59845363D01*
X151809727Y-59688320D01*
X151548574Y-59580147D01*
X151271335Y-59525000D01*
X150988665Y-59525000D01*
X150711426Y-59580147D01*
X150450273Y-59688320D01*
X150215241Y-59845363D01*
X150015363Y-60045241D01*
X149860000Y-60277759D01*
X149704637Y-60045241D01*
X149504759Y-59845363D01*
X149269727Y-59688320D01*
X149008574Y-59580147D01*
X148731335Y-59525000D01*
X148448665Y-59525000D01*
X148171426Y-59580147D01*
X147910273Y-59688320D01*
X147675241Y-59845363D01*
X147475363Y-60045241D01*
X147320000Y-60277759D01*
X147164637Y-60045241D01*
X146964759Y-59845363D01*
X146729727Y-59688320D01*
X146468574Y-59580147D01*
X146191335Y-59525000D01*
X145908665Y-59525000D01*
X145631426Y-59580147D01*
X145370273Y-59688320D01*
X145135241Y-59845363D01*
X144935363Y-60045241D01*
X144780000Y-60277759D01*
X144624637Y-60045241D01*
X144424759Y-59845363D01*
X144189727Y-59688320D01*
X143928574Y-59580147D01*
X143651335Y-59525000D01*
X143368665Y-59525000D01*
X143091426Y-59580147D01*
X142830273Y-59688320D01*
X142595241Y-59845363D01*
X142395363Y-60045241D01*
X142238320Y-60280273D01*
X142130147Y-60541426D01*
X142075000Y-60818665D01*
X142075000Y-61101335D01*
X142130147Y-61378574D01*
X142238320Y-61639727D01*
X142395363Y-61874759D01*
X142595241Y-62074637D01*
X142830273Y-62231680D01*
X143091426Y-62339853D01*
X143368665Y-62395000D01*
X143651335Y-62395000D01*
X143928574Y-62339853D01*
X144189727Y-62231680D01*
X144424759Y-62074637D01*
X144624637Y-61874759D01*
X144780000Y-61642241D01*
X144935363Y-61874759D01*
X145135241Y-62074637D01*
X145370273Y-62231680D01*
X145631426Y-62339853D01*
X145908665Y-62395000D01*
X146191335Y-62395000D01*
X146468574Y-62339853D01*
X146729727Y-62231680D01*
X146964759Y-62074637D01*
X147164637Y-61874759D01*
X147320000Y-61642241D01*
X147475363Y-61874759D01*
X147675241Y-62074637D01*
X147910273Y-62231680D01*
X148171426Y-62339853D01*
X148448665Y-62395000D01*
X148731335Y-62395000D01*
X149008574Y-62339853D01*
X149269727Y-62231680D01*
X149504759Y-62074637D01*
X149704637Y-61874759D01*
X149860000Y-61642241D01*
X150015363Y-61874759D01*
X150215241Y-62074637D01*
X150450273Y-62231680D01*
X150711426Y-62339853D01*
X150988665Y-62395000D01*
X151271335Y-62395000D01*
X151548574Y-62339853D01*
X151809727Y-62231680D01*
X152044759Y-62074637D01*
X152244637Y-61874759D01*
X152400000Y-61642241D01*
X152555363Y-61874759D01*
X152755241Y-62074637D01*
X152990273Y-62231680D01*
X153251426Y-62339853D01*
X153528665Y-62395000D01*
X153811335Y-62395000D01*
X154088574Y-62339853D01*
X154349727Y-62231680D01*
X154584759Y-62074637D01*
X154784637Y-61874759D01*
X154940000Y-61642241D01*
X155095363Y-61874759D01*
X155295241Y-62074637D01*
X155530273Y-62231680D01*
X155791426Y-62339853D01*
X156068665Y-62395000D01*
X156240198Y-62395000D01*
X153355199Y-65280000D01*
X138438178Y-65280000D01*
X138313475Y-65093368D01*
X138106632Y-64886525D01*
X137924466Y-64764805D01*
X138041355Y-64695178D01*
X138257588Y-64500269D01*
X138431641Y-64266920D01*
X138556825Y-64004099D01*
X138601476Y-63856890D01*
X138480155Y-63627000D01*
X137287000Y-63627000D01*
X137287000Y-63647000D01*
X137033000Y-63647000D01*
X137033000Y-63627000D01*
X135839845Y-63627000D01*
X135718524Y-63856890D01*
X135763175Y-64004099D01*
X135888359Y-64266920D01*
X136062412Y-64500269D01*
X136278645Y-64695178D01*
X136395534Y-64764805D01*
X136213368Y-64886525D01*
X136006525Y-65093368D01*
X135844010Y-65336589D01*
X135732068Y-65606842D01*
X135675000Y-65893740D01*
X135675000Y-66186260D01*
X135732068Y-66473158D01*
X135844010Y-66743411D01*
X136006525Y-66986632D01*
X136213368Y-67193475D01*
X136387760Y-67310000D01*
X136213368Y-67426525D01*
X136006525Y-67633368D01*
X135844010Y-67876589D01*
X135732068Y-68146842D01*
X135675000Y-68433740D01*
X135675000Y-68726260D01*
X135732068Y-69013158D01*
X135844010Y-69283411D01*
X136006525Y-69526632D01*
X136213368Y-69733475D01*
X136387760Y-69850000D01*
X136213368Y-69966525D01*
X136006525Y-70173368D01*
X135844010Y-70416589D01*
X135732068Y-70686842D01*
X135675000Y-70973740D01*
X135675000Y-71266260D01*
X135718791Y-71486408D01*
X135379003Y-71826196D01*
X135349999Y-71849999D01*
X135294871Y-71917174D01*
X135255026Y-71965724D01*
X135218126Y-72034759D01*
X135184454Y-72097754D01*
X135140997Y-72241015D01*
X135130000Y-72352668D01*
X135130000Y-72352678D01*
X135126324Y-72390000D01*
X131470000Y-72390000D01*
X131470000Y-60110000D01*
X135671928Y-60110000D01*
X135671928Y-61810000D01*
X135684188Y-61934482D01*
X135720498Y-62054180D01*
X135779463Y-62164494D01*
X135858815Y-62261185D01*
X135955506Y-62340537D01*
X136065820Y-62399502D01*
X136146466Y-62423966D01*
X136062412Y-62499731D01*
X135888359Y-62733080D01*
X135763175Y-62995901D01*
X135718524Y-63143110D01*
X135839845Y-63373000D01*
X137033000Y-63373000D01*
X137033000Y-63353000D01*
X137287000Y-63353000D01*
X137287000Y-63373000D01*
X138480155Y-63373000D01*
X138601476Y-63143110D01*
X138556825Y-62995901D01*
X138431641Y-62733080D01*
X138257588Y-62499731D01*
X138173534Y-62423966D01*
X138254180Y-62399502D01*
X138364494Y-62340537D01*
X138461185Y-62261185D01*
X138540537Y-62164494D01*
X138599502Y-62054180D01*
X138635812Y-61934482D01*
X138648072Y-61810000D01*
X138648072Y-60110000D01*
X138635812Y-59985518D01*
X138599502Y-59865820D01*
X138540537Y-59755506D01*
X138461185Y-59658815D01*
X138364494Y-59579463D01*
X138254180Y-59520498D01*
X138134482Y-59484188D01*
X138010000Y-59471928D01*
X136310000Y-59471928D01*
X136185518Y-59484188D01*
X136065820Y-59520498D01*
X135955506Y-59579463D01*
X135858815Y-59658815D01*
X135779463Y-59755506D01*
X135720498Y-59865820D01*
X135684188Y-59985518D01*
X135671928Y-60110000D01*
X131470000Y-60110000D01*
X131470000Y-57008665D01*
X142155000Y-57008665D01*
X142155000Y-57291335D01*
X142210147Y-57568574D01*
X142318320Y-57829727D01*
X142475363Y-58064759D01*
X142675241Y-58264637D01*
X142910273Y-58421680D01*
X143171426Y-58529853D01*
X143448665Y-58585000D01*
X143731335Y-58585000D01*
X144008574Y-58529853D01*
X144269727Y-58421680D01*
X144504759Y-58264637D01*
X144626694Y-58142702D01*
X147776903Y-58142702D01*
X147848486Y-58386671D01*
X148103996Y-58507571D01*
X148378184Y-58576300D01*
X148660512Y-58590217D01*
X148940130Y-58548787D01*
X149206292Y-58453603D01*
X149331514Y-58386671D01*
X149403097Y-58142702D01*
X148590000Y-57329605D01*
X147776903Y-58142702D01*
X144626694Y-58142702D01*
X144704637Y-58064759D01*
X144861680Y-57829727D01*
X144969853Y-57568574D01*
X145025000Y-57291335D01*
X145025000Y-57220512D01*
X147149783Y-57220512D01*
X147191213Y-57500130D01*
X147286397Y-57766292D01*
X147353329Y-57891514D01*
X147597298Y-57963097D01*
X148410395Y-57150000D01*
X148769605Y-57150000D01*
X149582702Y-57963097D01*
X149826671Y-57891514D01*
X149947571Y-57636004D01*
X149979935Y-57506890D01*
X152228524Y-57506890D01*
X152273175Y-57654099D01*
X152398359Y-57916920D01*
X152572412Y-58150269D01*
X152788645Y-58345178D01*
X153038748Y-58494157D01*
X153313109Y-58591481D01*
X153543000Y-58470814D01*
X153543000Y-57277000D01*
X153797000Y-57277000D01*
X153797000Y-58470814D01*
X154026891Y-58591481D01*
X154301252Y-58494157D01*
X154551355Y-58345178D01*
X154625144Y-58278665D01*
X166205000Y-58278665D01*
X166205000Y-58561335D01*
X166260147Y-58838574D01*
X166368320Y-59099727D01*
X166525363Y-59334759D01*
X166725241Y-59534637D01*
X166960273Y-59691680D01*
X167221426Y-59799853D01*
X167498665Y-59855000D01*
X167781335Y-59855000D01*
X168058574Y-59799853D01*
X168319727Y-59691680D01*
X168554759Y-59534637D01*
X168754637Y-59334759D01*
X168911680Y-59099727D01*
X169019853Y-58838574D01*
X169075000Y-58561335D01*
X169075000Y-58278665D01*
X171205000Y-58278665D01*
X171205000Y-58561335D01*
X171260147Y-58838574D01*
X171368320Y-59099727D01*
X171525363Y-59334759D01*
X171725241Y-59534637D01*
X171960273Y-59691680D01*
X172221426Y-59799853D01*
X172498665Y-59855000D01*
X172781335Y-59855000D01*
X173058574Y-59799853D01*
X173319727Y-59691680D01*
X173554759Y-59534637D01*
X173754637Y-59334759D01*
X173911680Y-59099727D01*
X174019853Y-58838574D01*
X174075000Y-58561335D01*
X174075000Y-58278665D01*
X174019853Y-58001426D01*
X173911680Y-57740273D01*
X173754637Y-57505241D01*
X173554759Y-57305363D01*
X173319727Y-57148320D01*
X173058574Y-57040147D01*
X172781335Y-56985000D01*
X172498665Y-56985000D01*
X172221426Y-57040147D01*
X171960273Y-57148320D01*
X171725241Y-57305363D01*
X171525363Y-57505241D01*
X171368320Y-57740273D01*
X171260147Y-58001426D01*
X171205000Y-58278665D01*
X169075000Y-58278665D01*
X169019853Y-58001426D01*
X168911680Y-57740273D01*
X168754637Y-57505241D01*
X168554759Y-57305363D01*
X168319727Y-57148320D01*
X168058574Y-57040147D01*
X167781335Y-56985000D01*
X167498665Y-56985000D01*
X167221426Y-57040147D01*
X166960273Y-57148320D01*
X166725241Y-57305363D01*
X166525363Y-57505241D01*
X166368320Y-57740273D01*
X166260147Y-58001426D01*
X166205000Y-58278665D01*
X154625144Y-58278665D01*
X154767588Y-58150269D01*
X154941641Y-57916920D01*
X155066825Y-57654099D01*
X155111476Y-57506890D01*
X154990155Y-57277000D01*
X153797000Y-57277000D01*
X153543000Y-57277000D01*
X152349845Y-57277000D01*
X152228524Y-57506890D01*
X149979935Y-57506890D01*
X150016300Y-57361816D01*
X150030217Y-57079488D01*
X149988787Y-56799870D01*
X149893603Y-56533708D01*
X149826671Y-56408486D01*
X149582702Y-56336903D01*
X148769605Y-57150000D01*
X148410395Y-57150000D01*
X147597298Y-56336903D01*
X147353329Y-56408486D01*
X147232429Y-56663996D01*
X147163700Y-56938184D01*
X147149783Y-57220512D01*
X145025000Y-57220512D01*
X145025000Y-57008665D01*
X144969853Y-56731426D01*
X144861680Y-56470273D01*
X144704637Y-56235241D01*
X144626694Y-56157298D01*
X147776903Y-56157298D01*
X148590000Y-56970395D01*
X149403097Y-56157298D01*
X149331514Y-55913329D01*
X149076004Y-55792429D01*
X148801816Y-55723700D01*
X148519488Y-55709783D01*
X148239870Y-55751213D01*
X147973708Y-55846397D01*
X147848486Y-55913329D01*
X147776903Y-56157298D01*
X144626694Y-56157298D01*
X144504759Y-56035363D01*
X144269727Y-55878320D01*
X144008574Y-55770147D01*
X143731335Y-55715000D01*
X143448665Y-55715000D01*
X143171426Y-55770147D01*
X142910273Y-55878320D01*
X142675241Y-56035363D01*
X142475363Y-56235241D01*
X142318320Y-56470273D01*
X142210147Y-56731426D01*
X142155000Y-57008665D01*
X131470000Y-57008665D01*
X131470000Y-50676481D01*
X133653124Y-50676481D01*
X133965308Y-51125177D01*
X134561259Y-51445612D01*
X135208273Y-51643626D01*
X135881484Y-51711610D01*
X136555023Y-51646949D01*
X137203006Y-51452130D01*
X137639879Y-51220000D01*
X152181928Y-51220000D01*
X152181928Y-52920000D01*
X152194188Y-53044482D01*
X152230498Y-53164180D01*
X152289463Y-53274494D01*
X152368815Y-53371185D01*
X152465506Y-53450537D01*
X152575820Y-53509502D01*
X152648380Y-53531513D01*
X152516525Y-53663368D01*
X152354010Y-53906589D01*
X152242068Y-54176842D01*
X152185000Y-54463740D01*
X152185000Y-54756260D01*
X152242068Y-55043158D01*
X152354010Y-55313411D01*
X152516525Y-55556632D01*
X152723368Y-55763475D01*
X152905534Y-55885195D01*
X152788645Y-55954822D01*
X152572412Y-56149731D01*
X152398359Y-56383080D01*
X152273175Y-56645901D01*
X152228524Y-56793110D01*
X152349845Y-57023000D01*
X153543000Y-57023000D01*
X153543000Y-57003000D01*
X153797000Y-57003000D01*
X153797000Y-57023000D01*
X154990155Y-57023000D01*
X155111476Y-56793110D01*
X155066825Y-56645901D01*
X154941641Y-56383080D01*
X154767588Y-56149731D01*
X154551355Y-55954822D01*
X154434466Y-55885195D01*
X154616632Y-55763475D01*
X154823475Y-55556632D01*
X154985990Y-55313411D01*
X155097932Y-55043158D01*
X155155000Y-54756260D01*
X155155000Y-54463740D01*
X155128935Y-54332702D01*
X166826903Y-54332702D01*
X166898486Y-54576671D01*
X167153996Y-54697571D01*
X167428184Y-54766300D01*
X167710512Y-54780217D01*
X167990130Y-54738787D01*
X168256292Y-54643603D01*
X168381514Y-54576671D01*
X168453097Y-54332702D01*
X167640000Y-53519605D01*
X166826903Y-54332702D01*
X155128935Y-54332702D01*
X155097932Y-54176842D01*
X154985990Y-53906589D01*
X154823475Y-53663368D01*
X154691620Y-53531513D01*
X154764180Y-53509502D01*
X154874494Y-53450537D01*
X154923264Y-53410512D01*
X166199783Y-53410512D01*
X166241213Y-53690130D01*
X166336397Y-53956292D01*
X166403329Y-54081514D01*
X166647298Y-54153097D01*
X167460395Y-53340000D01*
X167819605Y-53340000D01*
X168632702Y-54153097D01*
X168876671Y-54081514D01*
X168997571Y-53826004D01*
X169066300Y-53551816D01*
X169080217Y-53269488D01*
X169069724Y-53198665D01*
X171205000Y-53198665D01*
X171205000Y-53481335D01*
X171260147Y-53758574D01*
X171368320Y-54019727D01*
X171525363Y-54254759D01*
X171725241Y-54454637D01*
X171960273Y-54611680D01*
X172221426Y-54719853D01*
X172498665Y-54775000D01*
X172781335Y-54775000D01*
X173058574Y-54719853D01*
X173319727Y-54611680D01*
X173554759Y-54454637D01*
X173754637Y-54254759D01*
X173911680Y-54019727D01*
X174019853Y-53758574D01*
X174075000Y-53481335D01*
X174075000Y-53198665D01*
X174019853Y-52921426D01*
X173911680Y-52660273D01*
X173754637Y-52425241D01*
X173554759Y-52225363D01*
X173319727Y-52068320D01*
X173058574Y-51960147D01*
X172781335Y-51905000D01*
X172498665Y-51905000D01*
X172221426Y-51960147D01*
X171960273Y-52068320D01*
X171725241Y-52225363D01*
X171525363Y-52425241D01*
X171368320Y-52660273D01*
X171260147Y-52921426D01*
X171205000Y-53198665D01*
X169069724Y-53198665D01*
X169038787Y-52989870D01*
X168943603Y-52723708D01*
X168876671Y-52598486D01*
X168632702Y-52526903D01*
X167819605Y-53340000D01*
X167460395Y-53340000D01*
X166647298Y-52526903D01*
X166403329Y-52598486D01*
X166282429Y-52853996D01*
X166213700Y-53128184D01*
X166199783Y-53410512D01*
X154923264Y-53410512D01*
X154971185Y-53371185D01*
X155050537Y-53274494D01*
X155109502Y-53164180D01*
X155145812Y-53044482D01*
X155158072Y-52920000D01*
X155158072Y-52347298D01*
X166826903Y-52347298D01*
X167640000Y-53160395D01*
X168453097Y-52347298D01*
X168381514Y-52103329D01*
X168126004Y-51982429D01*
X167851816Y-51913700D01*
X167569488Y-51899783D01*
X167289870Y-51941213D01*
X167023708Y-52036397D01*
X166898486Y-52103329D01*
X166826903Y-52347298D01*
X155158072Y-52347298D01*
X155158072Y-51220000D01*
X155145812Y-51095518D01*
X155109502Y-50975820D01*
X155050537Y-50865506D01*
X154971185Y-50768815D01*
X154874494Y-50689463D01*
X154764180Y-50630498D01*
X154644482Y-50594188D01*
X154520000Y-50581928D01*
X152820000Y-50581928D01*
X152695518Y-50594188D01*
X152575820Y-50630498D01*
X152465506Y-50689463D01*
X152368815Y-50768815D01*
X152289463Y-50865506D01*
X152230498Y-50975820D01*
X152194188Y-51095518D01*
X152181928Y-51220000D01*
X137639879Y-51220000D01*
X137800530Y-51134639D01*
X137814692Y-51125177D01*
X138126876Y-50676481D01*
X135890000Y-48439605D01*
X133653124Y-50676481D01*
X131470000Y-50676481D01*
X131470000Y-48251484D01*
X132438390Y-48251484D01*
X132503051Y-48925023D01*
X132697870Y-49573006D01*
X133015361Y-50170530D01*
X133024823Y-50184692D01*
X133473519Y-50496876D01*
X135710395Y-48260000D01*
X136069605Y-48260000D01*
X138306481Y-50496876D01*
X138755177Y-50184692D01*
X139075612Y-49588741D01*
X139178454Y-49252702D01*
X178256903Y-49252702D01*
X178328486Y-49496671D01*
X178583996Y-49617571D01*
X178858184Y-49686300D01*
X179140512Y-49700217D01*
X179420130Y-49658787D01*
X179686292Y-49563603D01*
X179811514Y-49496671D01*
X179883097Y-49252702D01*
X179070000Y-48439605D01*
X178256903Y-49252702D01*
X139178454Y-49252702D01*
X139273626Y-48941727D01*
X139335349Y-48330512D01*
X177629783Y-48330512D01*
X177671213Y-48610130D01*
X177766397Y-48876292D01*
X177833329Y-49001514D01*
X178077298Y-49073097D01*
X178890395Y-48260000D01*
X179249605Y-48260000D01*
X180062702Y-49073097D01*
X180306671Y-49001514D01*
X180427571Y-48746004D01*
X180496300Y-48471816D01*
X180510217Y-48189488D01*
X180499724Y-48118665D01*
X182635000Y-48118665D01*
X182635000Y-48401335D01*
X182690147Y-48678574D01*
X182798320Y-48939727D01*
X182955363Y-49174759D01*
X183155241Y-49374637D01*
X183390273Y-49531680D01*
X183651426Y-49639853D01*
X183928665Y-49695000D01*
X184211335Y-49695000D01*
X184488574Y-49639853D01*
X184749727Y-49531680D01*
X184984759Y-49374637D01*
X185184637Y-49174759D01*
X185341680Y-48939727D01*
X185449853Y-48678574D01*
X185505000Y-48401335D01*
X185505000Y-48118665D01*
X185449853Y-47841426D01*
X185341680Y-47580273D01*
X185184637Y-47345241D01*
X184984759Y-47145363D01*
X184749727Y-46988320D01*
X184488574Y-46880147D01*
X184211335Y-46825000D01*
X183928665Y-46825000D01*
X183651426Y-46880147D01*
X183390273Y-46988320D01*
X183155241Y-47145363D01*
X182955363Y-47345241D01*
X182798320Y-47580273D01*
X182690147Y-47841426D01*
X182635000Y-48118665D01*
X180499724Y-48118665D01*
X180468787Y-47909870D01*
X180373603Y-47643708D01*
X180306671Y-47518486D01*
X180062702Y-47446903D01*
X179249605Y-48260000D01*
X178890395Y-48260000D01*
X178077298Y-47446903D01*
X177833329Y-47518486D01*
X177712429Y-47773996D01*
X177643700Y-48048184D01*
X177629783Y-48330512D01*
X139335349Y-48330512D01*
X139341610Y-48268516D01*
X139276949Y-47594977D01*
X139178431Y-47267298D01*
X178256903Y-47267298D01*
X179070000Y-48080395D01*
X179883097Y-47267298D01*
X179811514Y-47023329D01*
X179556004Y-46902429D01*
X179281816Y-46833700D01*
X178999488Y-46819783D01*
X178719870Y-46861213D01*
X178453708Y-46956397D01*
X178328486Y-47023329D01*
X178256903Y-47267298D01*
X139178431Y-47267298D01*
X139082130Y-46946994D01*
X138828935Y-46470475D01*
X199595000Y-46470475D01*
X199595000Y-46989525D01*
X199696261Y-47498601D01*
X199894893Y-47978141D01*
X200183262Y-48409715D01*
X200550285Y-48776738D01*
X200981859Y-49065107D01*
X201461399Y-49263739D01*
X201970475Y-49365000D01*
X202489525Y-49365000D01*
X202998601Y-49263739D01*
X203478141Y-49065107D01*
X203909715Y-48776738D01*
X204276738Y-48409715D01*
X204565107Y-47978141D01*
X204763739Y-47498601D01*
X204865000Y-46989525D01*
X204865000Y-46470475D01*
X204763739Y-45961399D01*
X204565107Y-45481859D01*
X204276738Y-45050285D01*
X203909715Y-44683262D01*
X203478141Y-44394893D01*
X202998601Y-44196261D01*
X202489525Y-44095000D01*
X201970475Y-44095000D01*
X201461399Y-44196261D01*
X200981859Y-44394893D01*
X200550285Y-44683262D01*
X200183262Y-45050285D01*
X199894893Y-45481859D01*
X199696261Y-45961399D01*
X199595000Y-46470475D01*
X138828935Y-46470475D01*
X138764639Y-46349470D01*
X138755177Y-46335308D01*
X138306481Y-46023124D01*
X136069605Y-48260000D01*
X135710395Y-48260000D01*
X133473519Y-46023124D01*
X133024823Y-46335308D01*
X132704388Y-46931259D01*
X132506374Y-47578273D01*
X132438390Y-48251484D01*
X131470000Y-48251484D01*
X131470000Y-45843519D01*
X133653124Y-45843519D01*
X135890000Y-48080395D01*
X138126876Y-45843519D01*
X137814692Y-45394823D01*
X137218741Y-45074388D01*
X136571727Y-44876374D01*
X135898516Y-44808390D01*
X135224977Y-44873051D01*
X134576994Y-45067870D01*
X133979470Y-45385361D01*
X133965308Y-45394823D01*
X133653124Y-45843519D01*
X131470000Y-45843519D01*
X131470000Y-43840000D01*
X216510000Y-43840000D01*
X216510001Y-99670000D01*
G37*
X216510001Y-99670000D02*
X155777195Y-99670000D01*
X155857205Y-99550256D01*
X155935226Y-99361898D01*
X155975000Y-99161939D01*
X155975000Y-98958061D01*
X155935226Y-98758102D01*
X155857205Y-98569744D01*
X155743937Y-98400226D01*
X155700000Y-98356289D01*
X155700000Y-87578043D01*
X155854759Y-87474637D01*
X156054637Y-87274759D01*
X156211680Y-87039727D01*
X156319853Y-86778574D01*
X156375000Y-86501335D01*
X156375000Y-86218665D01*
X163665000Y-86218665D01*
X163665000Y-86501335D01*
X163720147Y-86778574D01*
X163828320Y-87039727D01*
X163985363Y-87274759D01*
X164185241Y-87474637D01*
X164420273Y-87631680D01*
X164681426Y-87739853D01*
X164958665Y-87795000D01*
X165241335Y-87795000D01*
X165518574Y-87739853D01*
X165779727Y-87631680D01*
X166014759Y-87474637D01*
X166214637Y-87274759D01*
X166371680Y-87039727D01*
X166479853Y-86778574D01*
X166535000Y-86501335D01*
X166535000Y-86218665D01*
X166479853Y-85941426D01*
X166371680Y-85680273D01*
X166214637Y-85445241D01*
X166014759Y-85245363D01*
X165779727Y-85088320D01*
X165518574Y-84980147D01*
X165241335Y-84925000D01*
X164958665Y-84925000D01*
X164681426Y-84980147D01*
X164420273Y-85088320D01*
X164185241Y-85245363D01*
X163985363Y-85445241D01*
X163828320Y-85680273D01*
X163720147Y-85941426D01*
X163665000Y-86218665D01*
X156375000Y-86218665D01*
X156319853Y-85941426D01*
X156211680Y-85680273D01*
X156054637Y-85445241D01*
X155854759Y-85245363D01*
X155700000Y-85141957D01*
X155700000Y-83740000D01*
X168641928Y-83740000D01*
X168641928Y-85540000D01*
X168654188Y-85664482D01*
X168690498Y-85784180D01*
X168749463Y-85894494D01*
X168828815Y-85991185D01*
X168925506Y-86070537D01*
X169035820Y-86129502D01*
X169054127Y-86135056D01*
X168987688Y-86201495D01*
X168819701Y-86452905D01*
X168703989Y-86732257D01*
X168645000Y-87028816D01*
X168645000Y-87331184D01*
X168703989Y-87627743D01*
X168819701Y-87907095D01*
X168987688Y-88158505D01*
X169201495Y-88372312D01*
X169452905Y-88540299D01*
X169732257Y-88656011D01*
X170028816Y-88715000D01*
X170331184Y-88715000D01*
X170627743Y-88656011D01*
X170907095Y-88540299D01*
X171158505Y-88372312D01*
X171372312Y-88158505D01*
X171540299Y-87907095D01*
X171656011Y-87627743D01*
X171715000Y-87331184D01*
X171715000Y-87028816D01*
X171656011Y-86732257D01*
X171540299Y-86452905D01*
X171372312Y-86201495D01*
X171305873Y-86135056D01*
X171324180Y-86129502D01*
X171434494Y-86070537D01*
X171531185Y-85991185D01*
X171610537Y-85894494D01*
X171669502Y-85784180D01*
X171705812Y-85664482D01*
X171718072Y-85540000D01*
X171718072Y-83740000D01*
X171705812Y-83615518D01*
X171669502Y-83495820D01*
X171610537Y-83385506D01*
X171531185Y-83288815D01*
X171434494Y-83209463D01*
X171324180Y-83150498D01*
X171204482Y-83114188D01*
X171080000Y-83101928D01*
X169280000Y-83101928D01*
X169155518Y-83114188D01*
X169035820Y-83150498D01*
X168925506Y-83209463D01*
X168828815Y-83288815D01*
X168749463Y-83385506D01*
X168690498Y-83495820D01*
X168654188Y-83615518D01*
X168641928Y-83740000D01*
X155700000Y-83740000D01*
X155700000Y-82498043D01*
X155854759Y-82394637D01*
X156054637Y-82194759D01*
X156211680Y-81959727D01*
X156319853Y-81698574D01*
X156375000Y-81421335D01*
X156375000Y-81138665D01*
X163665000Y-81138665D01*
X163665000Y-81421335D01*
X163720147Y-81698574D01*
X163828320Y-81959727D01*
X163985363Y-82194759D01*
X164185241Y-82394637D01*
X164420273Y-82551680D01*
X164681426Y-82659853D01*
X164958665Y-82715000D01*
X165241335Y-82715000D01*
X165518574Y-82659853D01*
X165779727Y-82551680D01*
X166014759Y-82394637D01*
X166214637Y-82194759D01*
X166371680Y-81959727D01*
X166479853Y-81698574D01*
X166535000Y-81421335D01*
X166535000Y-81138665D01*
X166479853Y-80861426D01*
X166371680Y-80600273D01*
X166214637Y-80365241D01*
X166014759Y-80165363D01*
X165779727Y-80008320D01*
X165518574Y-79900147D01*
X165241335Y-79845000D01*
X164958665Y-79845000D01*
X164681426Y-79900147D01*
X164420273Y-80008320D01*
X164185241Y-80165363D01*
X163985363Y-80365241D01*
X163828320Y-80600273D01*
X163720147Y-80861426D01*
X163665000Y-81138665D01*
X156375000Y-81138665D01*
X156319853Y-80861426D01*
X156211680Y-80600273D01*
X156054637Y-80365241D01*
X155854759Y-80165363D01*
X155619727Y-80008320D01*
X155358574Y-79900147D01*
X155081335Y-79845000D01*
X154798665Y-79845000D01*
X154521426Y-79900147D01*
X154260273Y-80008320D01*
X154025241Y-80165363D01*
X153825363Y-80365241D01*
X153668320Y-80600273D01*
X153560147Y-80861426D01*
X153505000Y-81138665D01*
X153505000Y-81421335D01*
X153560147Y-81698574D01*
X153668320Y-81959727D01*
X153825363Y-82194759D01*
X154025241Y-82394637D01*
X154180000Y-82498044D01*
X154180001Y-85141956D01*
X154025241Y-85245363D01*
X153825363Y-85445241D01*
X153668320Y-85680273D01*
X153560147Y-85941426D01*
X153505000Y-86218665D01*
X153505000Y-86501335D01*
X153560147Y-86778574D01*
X153668320Y-87039727D01*
X153825363Y-87274759D01*
X154025241Y-87474637D01*
X154180000Y-87578043D01*
X154180001Y-98356288D01*
X154136063Y-98400226D01*
X154022795Y-98569744D01*
X153944774Y-98758102D01*
X153905000Y-98958061D01*
X153905000Y-99161939D01*
X153944774Y-99361898D01*
X154022795Y-99550256D01*
X154102805Y-99670000D01*
X131470000Y-99670000D01*
X131470000Y-97666481D01*
X133653124Y-97666481D01*
X133965308Y-98115177D01*
X134561259Y-98435612D01*
X135208273Y-98633626D01*
X135881484Y-98701610D01*
X136555023Y-98636949D01*
X137203006Y-98442130D01*
X137800530Y-98124639D01*
X137814692Y-98115177D01*
X138126876Y-97666481D01*
X135890000Y-95429605D01*
X133653124Y-97666481D01*
X131470000Y-97666481D01*
X131470000Y-95241484D01*
X132438390Y-95241484D01*
X132503051Y-95915023D01*
X132697870Y-96563006D01*
X133015361Y-97160530D01*
X133024823Y-97174692D01*
X133473519Y-97486876D01*
X135710395Y-95250000D01*
X136069605Y-95250000D01*
X138306481Y-97486876D01*
X138755177Y-97174692D01*
X139075612Y-96578741D01*
X139273626Y-95931727D01*
X139341610Y-95258516D01*
X139276949Y-94584977D01*
X139082130Y-93936994D01*
X138764639Y-93339470D01*
X138755177Y-93325308D01*
X138306481Y-93013124D01*
X136069605Y-95250000D01*
X135710395Y-95250000D01*
X133473519Y-93013124D01*
X133024823Y-93325308D01*
X132704388Y-93921259D01*
X132506374Y-94568273D01*
X132438390Y-95241484D01*
X131470000Y-95241484D01*
X131470000Y-92833519D01*
X133653124Y-92833519D01*
X135890000Y-95070395D01*
X138126876Y-92833519D01*
X137814692Y-92384823D01*
X137218741Y-92064388D01*
X136571727Y-91866374D01*
X135898516Y-91798390D01*
X135224977Y-91863051D01*
X134576994Y-92057870D01*
X133979470Y-92375361D01*
X133965308Y-92384823D01*
X133653124Y-92833519D01*
X131470000Y-92833519D01*
X131470000Y-77840000D01*
X168641928Y-77840000D01*
X168641928Y-79640000D01*
X168654188Y-79764482D01*
X168690498Y-79884180D01*
X168749463Y-79994494D01*
X168828815Y-80091185D01*
X168925506Y-80170537D01*
X169035820Y-80229502D01*
X169054127Y-80235056D01*
X168987688Y-80301495D01*
X168819701Y-80552905D01*
X168703989Y-80832257D01*
X168645000Y-81128816D01*
X168645000Y-81431184D01*
X168703989Y-81727743D01*
X168819701Y-82007095D01*
X168987688Y-82258505D01*
X169201495Y-82472312D01*
X169452905Y-82640299D01*
X169732257Y-82756011D01*
X170028816Y-82815000D01*
X170331184Y-82815000D01*
X170627743Y-82756011D01*
X170907095Y-82640299D01*
X171158505Y-82472312D01*
X171372312Y-82258505D01*
X171540299Y-82007095D01*
X171656011Y-81727743D01*
X171715000Y-81431184D01*
X171715000Y-81128816D01*
X171656011Y-80832257D01*
X171540299Y-80552905D01*
X171491586Y-80480000D01*
X175091928Y-80480000D01*
X175091928Y-82080000D01*
X175104188Y-82204482D01*
X175140498Y-82324180D01*
X175199463Y-82434494D01*
X175278815Y-82531185D01*
X175375506Y-82610537D01*
X175485820Y-82669502D01*
X175605518Y-82705812D01*
X175613961Y-82706643D01*
X175415363Y-82905241D01*
X175258320Y-83140273D01*
X175150147Y-83401426D01*
X175095000Y-83678665D01*
X175095000Y-83961335D01*
X175150147Y-84238574D01*
X175258320Y-84499727D01*
X175415363Y-84734759D01*
X175615241Y-84934637D01*
X175847759Y-85090000D01*
X175615241Y-85245363D01*
X175415363Y-85445241D01*
X175258320Y-85680273D01*
X175150147Y-85941426D01*
X175095000Y-86218665D01*
X175095000Y-86501335D01*
X175150147Y-86778574D01*
X175258320Y-87039727D01*
X175415363Y-87274759D01*
X175615241Y-87474637D01*
X175847759Y-87630000D01*
X175615241Y-87785363D01*
X175415363Y-87985241D01*
X175258320Y-88220273D01*
X175150147Y-88481426D01*
X175095000Y-88758665D01*
X175095000Y-89041335D01*
X175150147Y-89318574D01*
X175258320Y-89579727D01*
X175415363Y-89814759D01*
X175615241Y-90014637D01*
X175847759Y-90170000D01*
X175615241Y-90325363D01*
X175415363Y-90525241D01*
X175258320Y-90760273D01*
X175150147Y-91021426D01*
X175095000Y-91298665D01*
X175095000Y-91581335D01*
X175150147Y-91858574D01*
X175258320Y-92119727D01*
X175415363Y-92354759D01*
X175615241Y-92554637D01*
X175847759Y-92710000D01*
X175615241Y-92865363D01*
X175415363Y-93065241D01*
X175258320Y-93300273D01*
X175150147Y-93561426D01*
X175095000Y-93838665D01*
X175095000Y-94121335D01*
X175150147Y-94398574D01*
X175258320Y-94659727D01*
X175415363Y-94894759D01*
X175615241Y-95094637D01*
X175847759Y-95250000D01*
X175615241Y-95405363D01*
X175415363Y-95605241D01*
X175258320Y-95840273D01*
X175150147Y-96101426D01*
X175095000Y-96378665D01*
X175095000Y-96661335D01*
X175150147Y-96938574D01*
X175258320Y-97199727D01*
X175415363Y-97434759D01*
X175615241Y-97634637D01*
X175850273Y-97791680D01*
X176111426Y-97899853D01*
X176388665Y-97955000D01*
X176671335Y-97955000D01*
X176948574Y-97899853D01*
X177209727Y-97791680D01*
X177444759Y-97634637D01*
X177644637Y-97434759D01*
X177801680Y-97199727D01*
X177909853Y-96938574D01*
X177965000Y-96661335D01*
X177965000Y-96378665D01*
X177909853Y-96101426D01*
X177801680Y-95840273D01*
X177644637Y-95605241D01*
X177444759Y-95405363D01*
X177212241Y-95250000D01*
X177444759Y-95094637D01*
X177644637Y-94894759D01*
X177801680Y-94659727D01*
X177909853Y-94398574D01*
X177965000Y-94121335D01*
X177965000Y-93838665D01*
X177909853Y-93561426D01*
X177801680Y-93300273D01*
X177644637Y-93065241D01*
X177444759Y-92865363D01*
X177212241Y-92710000D01*
X177444759Y-92554637D01*
X177644637Y-92354759D01*
X177801680Y-92119727D01*
X177909853Y-91858574D01*
X177965000Y-91581335D01*
X177965000Y-91298665D01*
X177909853Y-91021426D01*
X177801680Y-90760273D01*
X177644637Y-90525241D01*
X177444759Y-90325363D01*
X177212241Y-90170000D01*
X177444759Y-90014637D01*
X177644637Y-89814759D01*
X177801680Y-89579727D01*
X177909853Y-89318574D01*
X177965000Y-89041335D01*
X177965000Y-88758665D01*
X177909853Y-88481426D01*
X177801680Y-88220273D01*
X177644637Y-87985241D01*
X177444759Y-87785363D01*
X177212241Y-87630000D01*
X177444759Y-87474637D01*
X177644637Y-87274759D01*
X177801680Y-87039727D01*
X177909853Y-86778574D01*
X177965000Y-86501335D01*
X177965000Y-86218665D01*
X177909853Y-85941426D01*
X177801680Y-85680273D01*
X177644637Y-85445241D01*
X177444759Y-85245363D01*
X177212241Y-85090000D01*
X177444759Y-84934637D01*
X177644637Y-84734759D01*
X177801680Y-84499727D01*
X177909853Y-84238574D01*
X177965000Y-83961335D01*
X177965000Y-83678665D01*
X182715000Y-83678665D01*
X182715000Y-83961335D01*
X182770147Y-84238574D01*
X182878320Y-84499727D01*
X183035363Y-84734759D01*
X183235241Y-84934637D01*
X183467759Y-85090000D01*
X183235241Y-85245363D01*
X183035363Y-85445241D01*
X182878320Y-85680273D01*
X182770147Y-85941426D01*
X182715000Y-86218665D01*
X182715000Y-86501335D01*
X182770147Y-86778574D01*
X182878320Y-87039727D01*
X183035363Y-87274759D01*
X183235241Y-87474637D01*
X183467759Y-87630000D01*
X183235241Y-87785363D01*
X183035363Y-87985241D01*
X182878320Y-88220273D01*
X182770147Y-88481426D01*
X182715000Y-88758665D01*
X182715000Y-89041335D01*
X182770147Y-89318574D01*
X182878320Y-89579727D01*
X183035363Y-89814759D01*
X183235241Y-90014637D01*
X183467759Y-90170000D01*
X183235241Y-90325363D01*
X183035363Y-90525241D01*
X182878320Y-90760273D01*
X182770147Y-91021426D01*
X182715000Y-91298665D01*
X182715000Y-91581335D01*
X182770147Y-91858574D01*
X182878320Y-92119727D01*
X183035363Y-92354759D01*
X183235241Y-92554637D01*
X183467759Y-92710000D01*
X183235241Y-92865363D01*
X183035363Y-93065241D01*
X182878320Y-93300273D01*
X182770147Y-93561426D01*
X182715000Y-93838665D01*
X182715000Y-94121335D01*
X182770147Y-94398574D01*
X182878320Y-94659727D01*
X183035363Y-94894759D01*
X183235241Y-95094637D01*
X183467759Y-95250000D01*
X183235241Y-95405363D01*
X183035363Y-95605241D01*
X182878320Y-95840273D01*
X182770147Y-96101426D01*
X182715000Y-96378665D01*
X182715000Y-96661335D01*
X182770147Y-96938574D01*
X182878320Y-97199727D01*
X183035363Y-97434759D01*
X183235241Y-97634637D01*
X183470273Y-97791680D01*
X183731426Y-97899853D01*
X184008665Y-97955000D01*
X184291335Y-97955000D01*
X184568574Y-97899853D01*
X184829727Y-97791680D01*
X185064759Y-97634637D01*
X185264637Y-97434759D01*
X185421680Y-97199727D01*
X185529262Y-96940000D01*
X200441928Y-96940000D01*
X200441928Y-98640000D01*
X200454188Y-98764482D01*
X200490498Y-98884180D01*
X200549463Y-98994494D01*
X200628815Y-99091185D01*
X200725506Y-99170537D01*
X200835820Y-99229502D01*
X200955518Y-99265812D01*
X201080000Y-99278072D01*
X202780000Y-99278072D01*
X202904482Y-99265812D01*
X203024180Y-99229502D01*
X203134494Y-99170537D01*
X203231185Y-99091185D01*
X203310537Y-98994494D01*
X203369502Y-98884180D01*
X203391513Y-98811620D01*
X203523368Y-98943475D01*
X203766589Y-99105990D01*
X204036842Y-99217932D01*
X204323740Y-99275000D01*
X204616260Y-99275000D01*
X204903158Y-99217932D01*
X205173411Y-99105990D01*
X205416632Y-98943475D01*
X205623475Y-98736632D01*
X205745195Y-98554466D01*
X205814822Y-98671355D01*
X206009731Y-98887588D01*
X206243080Y-99061641D01*
X206505901Y-99186825D01*
X206653110Y-99231476D01*
X206883000Y-99110155D01*
X206883000Y-97917000D01*
X207137000Y-97917000D01*
X207137000Y-99110155D01*
X207366890Y-99231476D01*
X207514099Y-99186825D01*
X207776920Y-99061641D01*
X208010269Y-98887588D01*
X208205178Y-98671355D01*
X208354157Y-98421252D01*
X208451481Y-98146891D01*
X208330814Y-97917000D01*
X207137000Y-97917000D01*
X206883000Y-97917000D01*
X206863000Y-97917000D01*
X206863000Y-97663000D01*
X206883000Y-97663000D01*
X206883000Y-96469845D01*
X207137000Y-96469845D01*
X207137000Y-97663000D01*
X208330814Y-97663000D01*
X208451481Y-97433109D01*
X208354157Y-97158748D01*
X208205178Y-96908645D01*
X208010269Y-96692412D01*
X207776920Y-96518359D01*
X207514099Y-96393175D01*
X207366890Y-96348524D01*
X207137000Y-96469845D01*
X206883000Y-96469845D01*
X206653110Y-96348524D01*
X206505901Y-96393175D01*
X206243080Y-96518359D01*
X206009731Y-96692412D01*
X205814822Y-96908645D01*
X205745195Y-97025534D01*
X205623475Y-96843368D01*
X205416632Y-96636525D01*
X205173411Y-96474010D01*
X204903158Y-96362068D01*
X204616260Y-96305000D01*
X204323740Y-96305000D01*
X204036842Y-96362068D01*
X203766589Y-96474010D01*
X203523368Y-96636525D01*
X203391513Y-96768380D01*
X203369502Y-96695820D01*
X203310537Y-96585506D01*
X203231185Y-96488815D01*
X203134494Y-96409463D01*
X203024180Y-96350498D01*
X202904482Y-96314188D01*
X202780000Y-96301928D01*
X201080000Y-96301928D01*
X200955518Y-96314188D01*
X200835820Y-96350498D01*
X200725506Y-96409463D01*
X200628815Y-96488815D01*
X200549463Y-96585506D01*
X200490498Y-96695820D01*
X200454188Y-96815518D01*
X200441928Y-96940000D01*
X185529262Y-96940000D01*
X185529853Y-96938574D01*
X185585000Y-96661335D01*
X185585000Y-96378665D01*
X185529853Y-96101426D01*
X185421680Y-95840273D01*
X185264637Y-95605241D01*
X185064759Y-95405363D01*
X184832241Y-95250000D01*
X185064759Y-95094637D01*
X185264637Y-94894759D01*
X185421680Y-94659727D01*
X185529853Y-94398574D01*
X185585000Y-94121335D01*
X185585000Y-93838665D01*
X186525000Y-93838665D01*
X186525000Y-94121335D01*
X186580147Y-94398574D01*
X186688320Y-94659727D01*
X186845363Y-94894759D01*
X187045241Y-95094637D01*
X187280273Y-95251680D01*
X187541426Y-95359853D01*
X187818665Y-95415000D01*
X188101335Y-95415000D01*
X188378574Y-95359853D01*
X188639727Y-95251680D01*
X188874759Y-95094637D01*
X189074637Y-94894759D01*
X189231680Y-94659727D01*
X189339853Y-94398574D01*
X189395000Y-94121335D01*
X189395000Y-93838665D01*
X196685000Y-93838665D01*
X196685000Y-94121335D01*
X196740147Y-94398574D01*
X196848320Y-94659727D01*
X197005363Y-94894759D01*
X197205241Y-95094637D01*
X197440273Y-95251680D01*
X197701426Y-95359853D01*
X197978665Y-95415000D01*
X198261335Y-95415000D01*
X198538574Y-95359853D01*
X198799727Y-95251680D01*
X199034759Y-95094637D01*
X199234637Y-94894759D01*
X199391680Y-94659727D01*
X199499853Y-94398574D01*
X199555000Y-94121335D01*
X199555000Y-93838665D01*
X199499853Y-93561426D01*
X199391680Y-93300273D01*
X199234637Y-93065241D01*
X199034759Y-92865363D01*
X198799727Y-92708320D01*
X198538574Y-92600147D01*
X198261335Y-92545000D01*
X197978665Y-92545000D01*
X197701426Y-92600147D01*
X197440273Y-92708320D01*
X197205241Y-92865363D01*
X197005363Y-93065241D01*
X196848320Y-93300273D01*
X196740147Y-93561426D01*
X196685000Y-93838665D01*
X189395000Y-93838665D01*
X189339853Y-93561426D01*
X189231680Y-93300273D01*
X189074637Y-93065241D01*
X188874759Y-92865363D01*
X188639727Y-92708320D01*
X188378574Y-92600147D01*
X188101335Y-92545000D01*
X187818665Y-92545000D01*
X187541426Y-92600147D01*
X187280273Y-92708320D01*
X187045241Y-92865363D01*
X186845363Y-93065241D01*
X186688320Y-93300273D01*
X186580147Y-93561426D01*
X186525000Y-93838665D01*
X185585000Y-93838665D01*
X185529853Y-93561426D01*
X185421680Y-93300273D01*
X185264637Y-93065241D01*
X185064759Y-92865363D01*
X184832241Y-92710000D01*
X185064759Y-92554637D01*
X185264637Y-92354759D01*
X185418091Y-92125098D01*
X204255000Y-92125098D01*
X204255000Y-92594902D01*
X204346654Y-93055679D01*
X204526440Y-93489721D01*
X204787450Y-93880349D01*
X205119651Y-94212550D01*
X205510279Y-94473560D01*
X205944321Y-94653346D01*
X206405098Y-94745000D01*
X206874902Y-94745000D01*
X207335679Y-94653346D01*
X207769721Y-94473560D01*
X208160349Y-94212550D01*
X208492550Y-93880349D01*
X208753560Y-93489721D01*
X208933346Y-93055679D01*
X209025000Y-92594902D01*
X209025000Y-92125098D01*
X208933346Y-91664321D01*
X208753560Y-91230279D01*
X208492550Y-90839651D01*
X208160349Y-90507450D01*
X207769721Y-90246440D01*
X207335679Y-90066654D01*
X206874902Y-89975000D01*
X206405098Y-89975000D01*
X205944321Y-90066654D01*
X205510279Y-90246440D01*
X205119651Y-90507450D01*
X204787450Y-90839651D01*
X204526440Y-91230279D01*
X204346654Y-91664321D01*
X204255000Y-92125098D01*
X185418091Y-92125098D01*
X185421680Y-92119727D01*
X185529853Y-91858574D01*
X185585000Y-91581335D01*
X185585000Y-91298665D01*
X185529853Y-91021426D01*
X185421680Y-90760273D01*
X185264637Y-90525241D01*
X185064759Y-90325363D01*
X184832241Y-90170000D01*
X185043764Y-90028665D01*
X186525000Y-90028665D01*
X186525000Y-90311335D01*
X186580147Y-90588574D01*
X186688320Y-90849727D01*
X186845363Y-91084759D01*
X187045241Y-91284637D01*
X187280273Y-91441680D01*
X187541426Y-91549853D01*
X187818665Y-91605000D01*
X188101335Y-91605000D01*
X188378574Y-91549853D01*
X188639727Y-91441680D01*
X188874759Y-91284637D01*
X189074637Y-91084759D01*
X189231680Y-90849727D01*
X189339853Y-90588574D01*
X189395000Y-90311335D01*
X189395000Y-90028665D01*
X196685000Y-90028665D01*
X196685000Y-90311335D01*
X196740147Y-90588574D01*
X196848320Y-90849727D01*
X197005363Y-91084759D01*
X197205241Y-91284637D01*
X197440273Y-91441680D01*
X197701426Y-91549853D01*
X197978665Y-91605000D01*
X198261335Y-91605000D01*
X198538574Y-91549853D01*
X198799727Y-91441680D01*
X199034759Y-91284637D01*
X199234637Y-91084759D01*
X199391680Y-90849727D01*
X199499853Y-90588574D01*
X199555000Y-90311335D01*
X199555000Y-90028665D01*
X199499853Y-89751426D01*
X199391680Y-89490273D01*
X199234637Y-89255241D01*
X199034759Y-89055363D01*
X198799727Y-88898320D01*
X198538574Y-88790147D01*
X198261335Y-88735000D01*
X197978665Y-88735000D01*
X197701426Y-88790147D01*
X197440273Y-88898320D01*
X197205241Y-89055363D01*
X197005363Y-89255241D01*
X196848320Y-89490273D01*
X196740147Y-89751426D01*
X196685000Y-90028665D01*
X189395000Y-90028665D01*
X189339853Y-89751426D01*
X189231680Y-89490273D01*
X189074637Y-89255241D01*
X188874759Y-89055363D01*
X188639727Y-88898320D01*
X188378574Y-88790147D01*
X188101335Y-88735000D01*
X187818665Y-88735000D01*
X187541426Y-88790147D01*
X187280273Y-88898320D01*
X187045241Y-89055363D01*
X186845363Y-89255241D01*
X186688320Y-89490273D01*
X186580147Y-89751426D01*
X186525000Y-90028665D01*
X185043764Y-90028665D01*
X185064759Y-90014637D01*
X185264637Y-89814759D01*
X185421680Y-89579727D01*
X185529853Y-89318574D01*
X185585000Y-89041335D01*
X185585000Y-88758665D01*
X185548688Y-88576113D01*
X188551004Y-85573798D01*
X188580001Y-85550001D01*
X188674974Y-85434276D01*
X188745546Y-85302247D01*
X188789003Y-85158986D01*
X188800000Y-85047333D01*
X188800000Y-85047325D01*
X188803676Y-85010000D01*
X188800000Y-84972675D01*
X188800000Y-84240000D01*
X200441928Y-84240000D01*
X200441928Y-85940000D01*
X200454188Y-86064482D01*
X200490498Y-86184180D01*
X200549463Y-86294494D01*
X200628815Y-86391185D01*
X200725506Y-86470537D01*
X200835820Y-86529502D01*
X200877690Y-86542203D01*
X200776525Y-86643368D01*
X200614010Y-86886589D01*
X200502068Y-87156842D01*
X200445000Y-87443740D01*
X200445000Y-87736260D01*
X200502068Y-88023158D01*
X200614010Y-88293411D01*
X200776525Y-88536632D01*
X200983368Y-88743475D01*
X201226589Y-88905990D01*
X201496842Y-89017932D01*
X201783740Y-89075000D01*
X202076260Y-89075000D01*
X202363158Y-89017932D01*
X202633411Y-88905990D01*
X202876632Y-88743475D01*
X202930000Y-88690107D01*
X202983368Y-88743475D01*
X203226589Y-88905990D01*
X203496842Y-89017932D01*
X203783740Y-89075000D01*
X204076260Y-89075000D01*
X204363158Y-89017932D01*
X204633411Y-88905990D01*
X204876632Y-88743475D01*
X205083475Y-88536632D01*
X205245990Y-88293411D01*
X205357932Y-88023158D01*
X205415000Y-87736260D01*
X205415000Y-87443740D01*
X205357932Y-87156842D01*
X205245990Y-86886589D01*
X205083475Y-86643368D01*
X204876632Y-86436525D01*
X204713590Y-86327584D01*
X204778792Y-86118397D01*
X203930000Y-85269605D01*
X203915858Y-85283748D01*
X203736253Y-85104143D01*
X203750395Y-85090000D01*
X204109605Y-85090000D01*
X204958397Y-85938792D01*
X205207472Y-85861157D01*
X205333371Y-85597117D01*
X205405339Y-85313589D01*
X205420611Y-85021469D01*
X205378599Y-84731981D01*
X205280919Y-84456253D01*
X205207472Y-84318843D01*
X204958397Y-84241208D01*
X204109605Y-85090000D01*
X203750395Y-85090000D01*
X203736253Y-85075858D01*
X203915858Y-84896253D01*
X203930000Y-84910395D01*
X204778792Y-84061603D01*
X204701157Y-83812528D01*
X204437117Y-83686629D01*
X204153589Y-83614661D01*
X203861469Y-83599389D01*
X203571981Y-83641401D01*
X203296253Y-83739081D01*
X203220150Y-83779759D01*
X203134494Y-83709463D01*
X203024180Y-83650498D01*
X202904482Y-83614188D01*
X202780000Y-83601928D01*
X201080000Y-83601928D01*
X200955518Y-83614188D01*
X200835820Y-83650498D01*
X200725506Y-83709463D01*
X200628815Y-83788815D01*
X200549463Y-83885506D01*
X200490498Y-83995820D01*
X200454188Y-84115518D01*
X200441928Y-84240000D01*
X188800000Y-84240000D01*
X188800000Y-82498043D01*
X188954759Y-82394637D01*
X189076694Y-82272702D01*
X192226903Y-82272702D01*
X192298486Y-82516671D01*
X192553996Y-82637571D01*
X192828184Y-82706300D01*
X193110512Y-82720217D01*
X193390130Y-82678787D01*
X193656292Y-82583603D01*
X193781514Y-82516671D01*
X193853097Y-82272702D01*
X193040000Y-81459605D01*
X192226903Y-82272702D01*
X189076694Y-82272702D01*
X189154637Y-82194759D01*
X189311680Y-81959727D01*
X189419853Y-81698574D01*
X189475000Y-81421335D01*
X189475000Y-81350512D01*
X191599783Y-81350512D01*
X191641213Y-81630130D01*
X191736397Y-81896292D01*
X191803329Y-82021514D01*
X192047298Y-82093097D01*
X192860395Y-81280000D01*
X193219605Y-81280000D01*
X194032702Y-82093097D01*
X194276671Y-82021514D01*
X194397571Y-81766004D01*
X194466300Y-81491816D01*
X194480217Y-81209488D01*
X194438787Y-80929870D01*
X194343603Y-80663708D01*
X194276671Y-80538486D01*
X194032702Y-80466903D01*
X193219605Y-81280000D01*
X192860395Y-81280000D01*
X192047298Y-80466903D01*
X191803329Y-80538486D01*
X191682429Y-80793996D01*
X191613700Y-81068184D01*
X191599783Y-81350512D01*
X189475000Y-81350512D01*
X189475000Y-81138665D01*
X189419853Y-80861426D01*
X189311680Y-80600273D01*
X189154637Y-80365241D01*
X189076694Y-80287298D01*
X192226903Y-80287298D01*
X193040000Y-81100395D01*
X193853097Y-80287298D01*
X193793770Y-80085098D01*
X204255000Y-80085098D01*
X204255000Y-80554902D01*
X204346654Y-81015679D01*
X204526440Y-81449721D01*
X204787450Y-81840349D01*
X205119651Y-82172550D01*
X205510279Y-82433560D01*
X205944321Y-82613346D01*
X206405098Y-82705000D01*
X206874902Y-82705000D01*
X207335679Y-82613346D01*
X207769721Y-82433560D01*
X208160349Y-82172550D01*
X208492550Y-81840349D01*
X208753560Y-81449721D01*
X208933346Y-81015679D01*
X209025000Y-80554902D01*
X209025000Y-80085098D01*
X208933346Y-79624321D01*
X208753560Y-79190279D01*
X208492550Y-78799651D01*
X208160349Y-78467450D01*
X207769721Y-78206440D01*
X207335679Y-78026654D01*
X206874902Y-77935000D01*
X206405098Y-77935000D01*
X205944321Y-78026654D01*
X205510279Y-78206440D01*
X205119651Y-78467450D01*
X204787450Y-78799651D01*
X204526440Y-79190279D01*
X204346654Y-79624321D01*
X204255000Y-80085098D01*
X193793770Y-80085098D01*
X193781514Y-80043329D01*
X193526004Y-79922429D01*
X193251816Y-79853700D01*
X192969488Y-79839783D01*
X192689870Y-79881213D01*
X192423708Y-79976397D01*
X192298486Y-80043329D01*
X192226903Y-80287298D01*
X189076694Y-80287298D01*
X188954759Y-80165363D01*
X188719727Y-80008320D01*
X188458574Y-79900147D01*
X188181335Y-79845000D01*
X187898665Y-79845000D01*
X187621426Y-79900147D01*
X187360273Y-80008320D01*
X187125241Y-80165363D01*
X186925363Y-80365241D01*
X186768320Y-80600273D01*
X186660147Y-80861426D01*
X186605000Y-81138665D01*
X186605000Y-81421335D01*
X186660147Y-81698574D01*
X186768320Y-81959727D01*
X186925363Y-82194759D01*
X187125241Y-82394637D01*
X187280001Y-82498044D01*
X187280000Y-84695198D01*
X185585000Y-86390198D01*
X185585000Y-86218665D01*
X185529853Y-85941426D01*
X185421680Y-85680273D01*
X185264637Y-85445241D01*
X185064759Y-85245363D01*
X184832241Y-85090000D01*
X185064759Y-84934637D01*
X185264637Y-84734759D01*
X185421680Y-84499727D01*
X185529853Y-84238574D01*
X185585000Y-83961335D01*
X185585000Y-83678665D01*
X185529853Y-83401426D01*
X185421680Y-83140273D01*
X185264637Y-82905241D01*
X185064759Y-82705363D01*
X184829727Y-82548320D01*
X184819135Y-82543933D01*
X185005131Y-82432385D01*
X185213519Y-82243414D01*
X185381037Y-82017420D01*
X185501246Y-81763087D01*
X185541904Y-81629039D01*
X185419915Y-81407000D01*
X184277000Y-81407000D01*
X184277000Y-81427000D01*
X184023000Y-81427000D01*
X184023000Y-81407000D01*
X182880085Y-81407000D01*
X182758096Y-81629039D01*
X182798754Y-81763087D01*
X182918963Y-82017420D01*
X183086481Y-82243414D01*
X183294869Y-82432385D01*
X183480865Y-82543933D01*
X183470273Y-82548320D01*
X183235241Y-82705363D01*
X183035363Y-82905241D01*
X182878320Y-83140273D01*
X182770147Y-83401426D01*
X182715000Y-83678665D01*
X177965000Y-83678665D01*
X177909853Y-83401426D01*
X177801680Y-83140273D01*
X177644637Y-82905241D01*
X177446039Y-82706643D01*
X177454482Y-82705812D01*
X177574180Y-82669502D01*
X177684494Y-82610537D01*
X177781185Y-82531185D01*
X177860537Y-82434494D01*
X177919502Y-82324180D01*
X177955812Y-82204482D01*
X177968072Y-82080000D01*
X177968072Y-80930961D01*
X182758096Y-80930961D01*
X182880085Y-81153000D01*
X184023000Y-81153000D01*
X184023000Y-80009376D01*
X184277000Y-80009376D01*
X184277000Y-81153000D01*
X185419915Y-81153000D01*
X185541904Y-80930961D01*
X185501246Y-80796913D01*
X185381037Y-80542580D01*
X185213519Y-80316586D01*
X185005131Y-80127615D01*
X184763881Y-79982930D01*
X184499040Y-79888091D01*
X184277000Y-80009376D01*
X184023000Y-80009376D01*
X183800960Y-79888091D01*
X183536119Y-79982930D01*
X183294869Y-80127615D01*
X183086481Y-80316586D01*
X182918963Y-80542580D01*
X182798754Y-80796913D01*
X182758096Y-80930961D01*
X177968072Y-80930961D01*
X177968072Y-80480000D01*
X177955812Y-80355518D01*
X177919502Y-80235820D01*
X177860537Y-80125506D01*
X177781185Y-80028815D01*
X177684494Y-79949463D01*
X177574180Y-79890498D01*
X177454482Y-79854188D01*
X177330000Y-79841928D01*
X175730000Y-79841928D01*
X175605518Y-79854188D01*
X175485820Y-79890498D01*
X175375506Y-79949463D01*
X175278815Y-80028815D01*
X175199463Y-80125506D01*
X175140498Y-80235820D01*
X175104188Y-80355518D01*
X175091928Y-80480000D01*
X171491586Y-80480000D01*
X171372312Y-80301495D01*
X171305873Y-80235056D01*
X171324180Y-80229502D01*
X171434494Y-80170537D01*
X171531185Y-80091185D01*
X171610537Y-79994494D01*
X171669502Y-79884180D01*
X171705812Y-79764482D01*
X171718072Y-79640000D01*
X171718072Y-77840000D01*
X171705812Y-77715518D01*
X171669502Y-77595820D01*
X171610537Y-77485506D01*
X171531185Y-77388815D01*
X171457892Y-77328665D01*
X175175000Y-77328665D01*
X175175000Y-77611335D01*
X175230147Y-77888574D01*
X175338320Y-78149727D01*
X175495363Y-78384759D01*
X175695241Y-78584637D01*
X175930273Y-78741680D01*
X176191426Y-78849853D01*
X176468665Y-78905000D01*
X176751335Y-78905000D01*
X177028574Y-78849853D01*
X177289727Y-78741680D01*
X177524759Y-78584637D01*
X177646694Y-78462702D01*
X180796903Y-78462702D01*
X180868486Y-78706671D01*
X181123996Y-78827571D01*
X181398184Y-78896300D01*
X181680512Y-78910217D01*
X181960130Y-78868787D01*
X182226292Y-78773603D01*
X182351514Y-78706671D01*
X182423097Y-78462702D01*
X181610000Y-77649605D01*
X180796903Y-78462702D01*
X177646694Y-78462702D01*
X177724637Y-78384759D01*
X177881680Y-78149727D01*
X177989853Y-77888574D01*
X178045000Y-77611335D01*
X178045000Y-77540512D01*
X180169783Y-77540512D01*
X180211213Y-77820130D01*
X180306397Y-78086292D01*
X180373329Y-78211514D01*
X180617298Y-78283097D01*
X181430395Y-77470000D01*
X181789605Y-77470000D01*
X182602702Y-78283097D01*
X182846671Y-78211514D01*
X182967571Y-77956004D01*
X183036300Y-77681816D01*
X183050217Y-77399488D01*
X183019579Y-77192702D01*
X187146903Y-77192702D01*
X187218486Y-77436671D01*
X187473996Y-77557571D01*
X187748184Y-77626300D01*
X188030512Y-77640217D01*
X188310130Y-77598787D01*
X188576292Y-77503603D01*
X188701514Y-77436671D01*
X188773097Y-77192702D01*
X187960000Y-76379605D01*
X187146903Y-77192702D01*
X183019579Y-77192702D01*
X183008787Y-77119870D01*
X182913603Y-76853708D01*
X182846671Y-76728486D01*
X182602702Y-76656903D01*
X181789605Y-77470000D01*
X181430395Y-77470000D01*
X180617298Y-76656903D01*
X180373329Y-76728486D01*
X180252429Y-76983996D01*
X180183700Y-77258184D01*
X180169783Y-77540512D01*
X178045000Y-77540512D01*
X178045000Y-77328665D01*
X177989853Y-77051426D01*
X177881680Y-76790273D01*
X177724637Y-76555241D01*
X177646694Y-76477298D01*
X180796903Y-76477298D01*
X181610000Y-77290395D01*
X182423097Y-76477298D01*
X182362424Y-76270512D01*
X186519783Y-76270512D01*
X186561213Y-76550130D01*
X186656397Y-76816292D01*
X186723329Y-76941514D01*
X186967298Y-77013097D01*
X187780395Y-76200000D01*
X188139605Y-76200000D01*
X188952702Y-77013097D01*
X189196671Y-76941514D01*
X189317571Y-76686004D01*
X189386300Y-76411816D01*
X189400217Y-76129488D01*
X189389724Y-76058665D01*
X191525000Y-76058665D01*
X191525000Y-76341335D01*
X191580147Y-76618574D01*
X191688320Y-76879727D01*
X191845363Y-77114759D01*
X192045241Y-77314637D01*
X192280273Y-77471680D01*
X192541426Y-77579853D01*
X192818665Y-77635000D01*
X193101335Y-77635000D01*
X193378574Y-77579853D01*
X193639727Y-77471680D01*
X193874759Y-77314637D01*
X194074637Y-77114759D01*
X194231680Y-76879727D01*
X194339853Y-76618574D01*
X194395000Y-76341335D01*
X194395000Y-76058665D01*
X194339853Y-75781426D01*
X194231680Y-75520273D01*
X194074637Y-75285241D01*
X193874759Y-75085363D01*
X193639727Y-74928320D01*
X193378574Y-74820147D01*
X193101335Y-74765000D01*
X192818665Y-74765000D01*
X192541426Y-74820147D01*
X192280273Y-74928320D01*
X192045241Y-75085363D01*
X191845363Y-75285241D01*
X191688320Y-75520273D01*
X191580147Y-75781426D01*
X191525000Y-76058665D01*
X189389724Y-76058665D01*
X189358787Y-75849870D01*
X189263603Y-75583708D01*
X189196671Y-75458486D01*
X188952702Y-75386903D01*
X188139605Y-76200000D01*
X187780395Y-76200000D01*
X186967298Y-75386903D01*
X186723329Y-75458486D01*
X186602429Y-75713996D01*
X186533700Y-75988184D01*
X186519783Y-76270512D01*
X182362424Y-76270512D01*
X182351514Y-76233329D01*
X182096004Y-76112429D01*
X181821816Y-76043700D01*
X181539488Y-76029783D01*
X181259870Y-76071213D01*
X180993708Y-76166397D01*
X180868486Y-76233329D01*
X180796903Y-76477298D01*
X177646694Y-76477298D01*
X177524759Y-76355363D01*
X177289727Y-76198320D01*
X177028574Y-76090147D01*
X176751335Y-76035000D01*
X176468665Y-76035000D01*
X176191426Y-76090147D01*
X175930273Y-76198320D01*
X175695241Y-76355363D01*
X175495363Y-76555241D01*
X175338320Y-76790273D01*
X175230147Y-77051426D01*
X175175000Y-77328665D01*
X171457892Y-77328665D01*
X171434494Y-77309463D01*
X171324180Y-77250498D01*
X171204482Y-77214188D01*
X171080000Y-77201928D01*
X169280000Y-77201928D01*
X169155518Y-77214188D01*
X169035820Y-77250498D01*
X168925506Y-77309463D01*
X168828815Y-77388815D01*
X168749463Y-77485506D01*
X168690498Y-77595820D01*
X168654188Y-77715518D01*
X168641928Y-77840000D01*
X131470000Y-77840000D01*
X131470000Y-72390000D01*
X135126324Y-72390000D01*
X135130000Y-72427323D01*
X135130001Y-74892668D01*
X135126324Y-74930000D01*
X135130001Y-74967333D01*
X135140998Y-75078986D01*
X135143712Y-75087932D01*
X135184454Y-75222246D01*
X135255026Y-75354276D01*
X135281803Y-75386903D01*
X135350000Y-75470001D01*
X135378998Y-75493799D01*
X136596201Y-76711003D01*
X136619999Y-76740001D01*
X136735724Y-76834974D01*
X136867753Y-76905546D01*
X137011014Y-76949003D01*
X137122667Y-76960000D01*
X137122676Y-76960000D01*
X137159999Y-76963676D01*
X137197322Y-76960000D01*
X151092678Y-76960000D01*
X151130000Y-76963676D01*
X151167322Y-76960000D01*
X151167333Y-76960000D01*
X151278986Y-76949003D01*
X151422247Y-76905546D01*
X151554276Y-76834974D01*
X151670001Y-76740001D01*
X151693804Y-76710997D01*
X153197504Y-75207298D01*
X187146903Y-75207298D01*
X187960000Y-76020395D01*
X188773097Y-75207298D01*
X188701514Y-74963329D01*
X188446004Y-74842429D01*
X188171816Y-74773700D01*
X187889488Y-74759783D01*
X187609870Y-74801213D01*
X187343708Y-74896397D01*
X187218486Y-74963329D01*
X187146903Y-75207298D01*
X153197504Y-75207298D01*
X154181009Y-74223794D01*
X154210001Y-74200001D01*
X154233795Y-74171008D01*
X154233799Y-74171004D01*
X154304973Y-74084277D01*
X154304974Y-74084276D01*
X154375546Y-73952247D01*
X154419003Y-73808986D01*
X154430000Y-73697333D01*
X154430000Y-73697324D01*
X154433676Y-73660001D01*
X154430000Y-73622678D01*
X154430000Y-69798043D01*
X154584759Y-69694637D01*
X154784637Y-69494759D01*
X154940000Y-69262241D01*
X155095363Y-69494759D01*
X155295241Y-69694637D01*
X155530273Y-69851680D01*
X155791426Y-69959853D01*
X156068665Y-70015000D01*
X156351335Y-70015000D01*
X156628574Y-69959853D01*
X156889727Y-69851680D01*
X157124759Y-69694637D01*
X157324637Y-69494759D01*
X157480000Y-69262241D01*
X157635363Y-69494759D01*
X157835241Y-69694637D01*
X158070273Y-69851680D01*
X158331426Y-69959853D01*
X158608665Y-70015000D01*
X158891335Y-70015000D01*
X159168574Y-69959853D01*
X159429727Y-69851680D01*
X159664759Y-69694637D01*
X159864637Y-69494759D01*
X160021680Y-69259727D01*
X160026067Y-69249135D01*
X160137615Y-69435131D01*
X160326586Y-69643519D01*
X160552580Y-69811037D01*
X160806913Y-69931246D01*
X160940961Y-69971904D01*
X161163000Y-69849915D01*
X161163000Y-68707000D01*
X161417000Y-68707000D01*
X161417000Y-69849915D01*
X161639039Y-69971904D01*
X161773087Y-69931246D01*
X162027420Y-69811037D01*
X162253414Y-69643519D01*
X162442385Y-69435131D01*
X162587070Y-69193881D01*
X162681909Y-68929040D01*
X162560624Y-68707000D01*
X161417000Y-68707000D01*
X161163000Y-68707000D01*
X161143000Y-68707000D01*
X161143000Y-68453000D01*
X161163000Y-68453000D01*
X161163000Y-67310085D01*
X160940961Y-67188096D01*
X160806913Y-67228754D01*
X160552580Y-67348963D01*
X160326586Y-67516481D01*
X160137615Y-67724869D01*
X160026067Y-67910865D01*
X160021680Y-67900273D01*
X159864637Y-67665241D01*
X159664759Y-67465363D01*
X159429727Y-67308320D01*
X159168574Y-67200147D01*
X158891335Y-67145000D01*
X158608665Y-67145000D01*
X158331426Y-67200147D01*
X158070273Y-67308320D01*
X157835241Y-67465363D01*
X157635363Y-67665241D01*
X157480000Y-67897759D01*
X157324637Y-67665241D01*
X157124759Y-67465363D01*
X156889727Y-67308320D01*
X156628574Y-67200147D01*
X156351335Y-67145000D01*
X156068665Y-67145000D01*
X155886114Y-67181312D01*
X155503804Y-66799003D01*
X155480001Y-66769999D01*
X155364276Y-66675026D01*
X155232247Y-66604454D01*
X155088986Y-66560997D01*
X154977333Y-66550000D01*
X154977322Y-66550000D01*
X154940000Y-66546324D01*
X154902678Y-66550000D01*
X154234801Y-66550000D01*
X158426114Y-62358688D01*
X158608665Y-62395000D01*
X158891335Y-62395000D01*
X159168574Y-62339853D01*
X159429727Y-62231680D01*
X159664759Y-62074637D01*
X159864637Y-61874759D01*
X160020000Y-61642241D01*
X160175363Y-61874759D01*
X160375241Y-62074637D01*
X160530000Y-62178044D01*
X160530001Y-66002668D01*
X160526324Y-66040000D01*
X160530001Y-66077333D01*
X160540245Y-66181335D01*
X160540998Y-66188985D01*
X160584454Y-66332246D01*
X160655026Y-66464276D01*
X160722362Y-66546324D01*
X160750000Y-66580001D01*
X160778998Y-66603799D01*
X161461071Y-67285872D01*
X161417000Y-67310085D01*
X161417000Y-68453000D01*
X162560624Y-68453000D01*
X162584496Y-68409297D01*
X166931202Y-72756004D01*
X166955000Y-72785002D01*
X166990672Y-72814277D01*
X167070725Y-72879975D01*
X167202754Y-72950547D01*
X167346015Y-72994004D01*
X167495001Y-73008678D01*
X167532334Y-73005001D01*
X175248077Y-73005001D01*
X175150147Y-73241426D01*
X175095000Y-73518665D01*
X175095000Y-73801335D01*
X175150147Y-74078574D01*
X175258320Y-74339727D01*
X175415363Y-74574759D01*
X175615241Y-74774637D01*
X175850273Y-74931680D01*
X176111426Y-75039853D01*
X176388665Y-75095000D01*
X176671335Y-75095000D01*
X176948574Y-75039853D01*
X177209727Y-74931680D01*
X177444759Y-74774637D01*
X177644637Y-74574759D01*
X177801680Y-74339727D01*
X177909853Y-74078574D01*
X177965000Y-73801335D01*
X177965000Y-73518665D01*
X177909853Y-73241426D01*
X177801680Y-72980273D01*
X177644637Y-72745241D01*
X177644600Y-72745204D01*
X178114802Y-72275002D01*
X183295652Y-72275002D01*
X183467759Y-72390000D01*
X183235241Y-72545363D01*
X183035363Y-72745241D01*
X182878320Y-72980273D01*
X182770147Y-73241426D01*
X182715000Y-73518665D01*
X182715000Y-73801335D01*
X182770147Y-74078574D01*
X182878320Y-74339727D01*
X183035363Y-74574759D01*
X183235241Y-74774637D01*
X183470273Y-74931680D01*
X183731426Y-75039853D01*
X184008665Y-75095000D01*
X184291335Y-75095000D01*
X184568574Y-75039853D01*
X184829727Y-74931680D01*
X185064759Y-74774637D01*
X185264637Y-74574759D01*
X185421680Y-74339727D01*
X185529853Y-74078574D01*
X185585000Y-73801335D01*
X185585000Y-73518665D01*
X185529853Y-73241426D01*
X185421680Y-72980273D01*
X185264637Y-72745241D01*
X185064759Y-72545363D01*
X184832241Y-72390000D01*
X185064759Y-72234637D01*
X185264637Y-72034759D01*
X185421680Y-71799727D01*
X185529853Y-71538574D01*
X185543398Y-71470475D01*
X199595000Y-71470475D01*
X199595000Y-71989525D01*
X199696261Y-72498601D01*
X199894893Y-72978141D01*
X200183262Y-73409715D01*
X200550285Y-73776738D01*
X200981859Y-74065107D01*
X201461399Y-74263739D01*
X201970475Y-74365000D01*
X202489525Y-74365000D01*
X202998601Y-74263739D01*
X203478141Y-74065107D01*
X203909715Y-73776738D01*
X204276738Y-73409715D01*
X204565107Y-72978141D01*
X204763739Y-72498601D01*
X204865000Y-71989525D01*
X204865000Y-71470475D01*
X204763739Y-70961399D01*
X204565107Y-70481859D01*
X204276738Y-70050285D01*
X203909715Y-69683262D01*
X203478141Y-69394893D01*
X202998601Y-69196261D01*
X202489525Y-69095000D01*
X201970475Y-69095000D01*
X201461399Y-69196261D01*
X200981859Y-69394893D01*
X200550285Y-69683262D01*
X200183262Y-70050285D01*
X199894893Y-70481859D01*
X199696261Y-70961399D01*
X199595000Y-71470475D01*
X185543398Y-71470475D01*
X185585000Y-71261335D01*
X185585000Y-70978665D01*
X185529853Y-70701426D01*
X185421680Y-70440273D01*
X185264637Y-70205241D01*
X185064759Y-70005363D01*
X184832241Y-69850000D01*
X185064759Y-69694637D01*
X185264637Y-69494759D01*
X185421680Y-69259727D01*
X185529853Y-68998574D01*
X185585000Y-68721335D01*
X185585000Y-68438665D01*
X185529853Y-68161426D01*
X185421680Y-67900273D01*
X185264637Y-67665241D01*
X185064759Y-67465363D01*
X184832241Y-67310000D01*
X185064759Y-67154637D01*
X185264637Y-66954759D01*
X185421680Y-66719727D01*
X185529853Y-66458574D01*
X185585000Y-66181335D01*
X185585000Y-65898665D01*
X185529853Y-65621426D01*
X185421680Y-65360273D01*
X185264637Y-65125241D01*
X185064759Y-64925363D01*
X184832241Y-64770000D01*
X185064759Y-64614637D01*
X185264637Y-64414759D01*
X185421680Y-64179727D01*
X185508551Y-63970000D01*
X200491928Y-63970000D01*
X200491928Y-65570000D01*
X200504188Y-65694482D01*
X200540498Y-65814180D01*
X200599463Y-65924494D01*
X200678815Y-66021185D01*
X200775506Y-66100537D01*
X200885820Y-66159502D01*
X201005518Y-66195812D01*
X201130000Y-66208072D01*
X202730000Y-66208072D01*
X202854482Y-66195812D01*
X202974180Y-66159502D01*
X203084494Y-66100537D01*
X203181185Y-66021185D01*
X203260537Y-65924494D01*
X203319502Y-65814180D01*
X203355812Y-65694482D01*
X203368072Y-65570000D01*
X203368072Y-63970000D01*
X203355812Y-63845518D01*
X203319502Y-63725820D01*
X203260537Y-63615506D01*
X203181185Y-63518815D01*
X203084494Y-63439463D01*
X202974180Y-63380498D01*
X202854482Y-63344188D01*
X202730000Y-63331928D01*
X202464275Y-63331928D01*
X202609727Y-63271680D01*
X202844759Y-63114637D01*
X203044637Y-62914759D01*
X203201680Y-62679727D01*
X203309853Y-62418574D01*
X203365000Y-62141335D01*
X203365000Y-61858665D01*
X203309853Y-61581426D01*
X203201680Y-61320273D01*
X203044637Y-61085241D01*
X202844759Y-60885363D01*
X202609727Y-60728320D01*
X202348574Y-60620147D01*
X202322699Y-60615000D01*
X202348574Y-60609853D01*
X202609727Y-60501680D01*
X202844759Y-60344637D01*
X203044637Y-60144759D01*
X203201680Y-59909727D01*
X203309853Y-59648574D01*
X203365000Y-59371335D01*
X203365000Y-59088665D01*
X203309853Y-58811426D01*
X203201680Y-58550273D01*
X203044637Y-58315241D01*
X202844759Y-58115363D01*
X202609727Y-57958320D01*
X202348574Y-57850147D01*
X202322699Y-57845000D01*
X202348574Y-57839853D01*
X202609727Y-57731680D01*
X202844759Y-57574637D01*
X203044637Y-57374759D01*
X203201680Y-57139727D01*
X203309853Y-56878574D01*
X203365000Y-56601335D01*
X203365000Y-56318665D01*
X203309853Y-56041426D01*
X203201680Y-55780273D01*
X203044637Y-55545241D01*
X202844759Y-55345363D01*
X202609727Y-55188320D01*
X202348574Y-55080147D01*
X202320118Y-55074487D01*
X202546292Y-54993603D01*
X202658429Y-54933665D01*
X203335000Y-54933665D01*
X203335000Y-55216335D01*
X203390147Y-55493574D01*
X203498320Y-55754727D01*
X203655363Y-55989759D01*
X203855241Y-56189637D01*
X204090273Y-56346680D01*
X204351426Y-56454853D01*
X204377301Y-56460000D01*
X204351426Y-56465147D01*
X204090273Y-56573320D01*
X203855241Y-56730363D01*
X203655363Y-56930241D01*
X203498320Y-57165273D01*
X203390147Y-57426426D01*
X203335000Y-57703665D01*
X203335000Y-57986335D01*
X203390147Y-58263574D01*
X203498320Y-58524727D01*
X203655363Y-58759759D01*
X203855241Y-58959637D01*
X204090273Y-59116680D01*
X204351426Y-59224853D01*
X204377301Y-59230000D01*
X204351426Y-59235147D01*
X204090273Y-59343320D01*
X203855241Y-59500363D01*
X203655363Y-59700241D01*
X203498320Y-59935273D01*
X203390147Y-60196426D01*
X203335000Y-60473665D01*
X203335000Y-60756335D01*
X203390147Y-61033574D01*
X203498320Y-61294727D01*
X203655363Y-61529759D01*
X203855241Y-61729637D01*
X204090273Y-61886680D01*
X204351426Y-61994853D01*
X204377301Y-62000000D01*
X204351426Y-62005147D01*
X204090273Y-62113320D01*
X203855241Y-62270363D01*
X203655363Y-62470241D01*
X203498320Y-62705273D01*
X203390147Y-62966426D01*
X203335000Y-63243665D01*
X203335000Y-63526335D01*
X203390147Y-63803574D01*
X203498320Y-64064727D01*
X203655363Y-64299759D01*
X203855241Y-64499637D01*
X204090273Y-64656680D01*
X204351426Y-64764853D01*
X204628665Y-64820000D01*
X204911335Y-64820000D01*
X205188574Y-64764853D01*
X205449727Y-64656680D01*
X205684759Y-64499637D01*
X205884637Y-64299759D01*
X206041680Y-64064727D01*
X206149853Y-63803574D01*
X206205000Y-63526335D01*
X206205000Y-63243665D01*
X206149853Y-62966426D01*
X206041680Y-62705273D01*
X205884637Y-62470241D01*
X205684759Y-62270363D01*
X205449727Y-62113320D01*
X205188574Y-62005147D01*
X205162699Y-62000000D01*
X205188574Y-61994853D01*
X205449727Y-61886680D01*
X205684759Y-61729637D01*
X205884637Y-61529759D01*
X206041680Y-61294727D01*
X206149853Y-61033574D01*
X206205000Y-60756335D01*
X206205000Y-60473665D01*
X206149853Y-60196426D01*
X206041680Y-59935273D01*
X205884637Y-59700241D01*
X205684759Y-59500363D01*
X205449727Y-59343320D01*
X205188574Y-59235147D01*
X205162699Y-59230000D01*
X205188574Y-59224853D01*
X205449727Y-59116680D01*
X205684759Y-58959637D01*
X205884637Y-58759759D01*
X206041680Y-58524727D01*
X206149853Y-58263574D01*
X206205000Y-57986335D01*
X206205000Y-57703665D01*
X206149853Y-57426426D01*
X206041680Y-57165273D01*
X205884637Y-56930241D01*
X205684759Y-56730363D01*
X205449727Y-56573320D01*
X205188574Y-56465147D01*
X205162699Y-56460000D01*
X205188574Y-56454853D01*
X205449727Y-56346680D01*
X205684759Y-56189637D01*
X205884637Y-55989759D01*
X206041680Y-55754727D01*
X206149853Y-55493574D01*
X206205000Y-55216335D01*
X206205000Y-54933665D01*
X206149853Y-54656426D01*
X206041680Y-54395273D01*
X205884637Y-54160241D01*
X205684759Y-53960363D01*
X205449727Y-53803320D01*
X205188574Y-53695147D01*
X204911335Y-53640000D01*
X204628665Y-53640000D01*
X204351426Y-53695147D01*
X204090273Y-53803320D01*
X203855241Y-53960363D01*
X203655363Y-54160241D01*
X203498320Y-54395273D01*
X203390147Y-54656426D01*
X203335000Y-54933665D01*
X202658429Y-54933665D01*
X202671514Y-54926671D01*
X202743097Y-54682702D01*
X201930000Y-53869605D01*
X201116903Y-54682702D01*
X201188486Y-54926671D01*
X201443996Y-55047571D01*
X201546289Y-55073212D01*
X201511426Y-55080147D01*
X201250273Y-55188320D01*
X201015241Y-55345363D01*
X200815363Y-55545241D01*
X200658320Y-55780273D01*
X200550147Y-56041426D01*
X200495000Y-56318665D01*
X200495000Y-56601335D01*
X200550147Y-56878574D01*
X200658320Y-57139727D01*
X200815363Y-57374759D01*
X201015241Y-57574637D01*
X201250273Y-57731680D01*
X201511426Y-57839853D01*
X201537301Y-57845000D01*
X201511426Y-57850147D01*
X201250273Y-57958320D01*
X201015241Y-58115363D01*
X200815363Y-58315241D01*
X200658320Y-58550273D01*
X200550147Y-58811426D01*
X200495000Y-59088665D01*
X200495000Y-59371335D01*
X200550147Y-59648574D01*
X200658320Y-59909727D01*
X200815363Y-60144759D01*
X201015241Y-60344637D01*
X201250273Y-60501680D01*
X201511426Y-60609853D01*
X201537301Y-60615000D01*
X201511426Y-60620147D01*
X201250273Y-60728320D01*
X201015241Y-60885363D01*
X200815363Y-61085241D01*
X200658320Y-61320273D01*
X200550147Y-61581426D01*
X200495000Y-61858665D01*
X200495000Y-62141335D01*
X200550147Y-62418574D01*
X200658320Y-62679727D01*
X200815363Y-62914759D01*
X201015241Y-63114637D01*
X201250273Y-63271680D01*
X201395725Y-63331928D01*
X201130000Y-63331928D01*
X201005518Y-63344188D01*
X200885820Y-63380498D01*
X200775506Y-63439463D01*
X200678815Y-63518815D01*
X200599463Y-63615506D01*
X200540498Y-63725820D01*
X200504188Y-63845518D01*
X200491928Y-63970000D01*
X185508551Y-63970000D01*
X185529853Y-63918574D01*
X185585000Y-63641335D01*
X185585000Y-63358665D01*
X185529853Y-63081426D01*
X185421680Y-62820273D01*
X185264637Y-62585241D01*
X185064759Y-62385363D01*
X184832241Y-62230000D01*
X185064759Y-62074637D01*
X185264637Y-61874759D01*
X185421680Y-61639727D01*
X185529853Y-61378574D01*
X185585000Y-61101335D01*
X185585000Y-60818665D01*
X185529853Y-60541426D01*
X185421680Y-60280273D01*
X185264637Y-60045241D01*
X185064759Y-59845363D01*
X184829727Y-59688320D01*
X184819135Y-59683933D01*
X185005131Y-59572385D01*
X185213519Y-59383414D01*
X185381037Y-59157420D01*
X185501246Y-58903087D01*
X185541904Y-58769039D01*
X185419915Y-58547000D01*
X184277000Y-58547000D01*
X184277000Y-58567000D01*
X184023000Y-58567000D01*
X184023000Y-58547000D01*
X182880085Y-58547000D01*
X182758096Y-58769039D01*
X182798754Y-58903087D01*
X182918963Y-59157420D01*
X183086481Y-59383414D01*
X183294869Y-59572385D01*
X183480865Y-59683933D01*
X183470273Y-59688320D01*
X183235241Y-59845363D01*
X183035363Y-60045241D01*
X182878320Y-60280273D01*
X182770147Y-60541426D01*
X182715000Y-60818665D01*
X182715000Y-61101335D01*
X182770147Y-61378574D01*
X182878320Y-61639727D01*
X183035363Y-61874759D01*
X183235241Y-62074637D01*
X183467759Y-62230000D01*
X183235241Y-62385363D01*
X183035363Y-62585241D01*
X182878320Y-62820273D01*
X182770147Y-63081426D01*
X182715000Y-63358665D01*
X182715000Y-63641335D01*
X182770147Y-63918574D01*
X182878320Y-64179727D01*
X183035363Y-64414759D01*
X183235241Y-64614637D01*
X183467759Y-64770000D01*
X183235241Y-64925363D01*
X183035363Y-65125241D01*
X182878320Y-65360273D01*
X182770147Y-65621426D01*
X182715000Y-65898665D01*
X182715000Y-66181335D01*
X182770147Y-66458574D01*
X182878320Y-66719727D01*
X183035363Y-66954759D01*
X183235241Y-67154637D01*
X183467759Y-67310000D01*
X183235241Y-67465363D01*
X183035363Y-67665241D01*
X182878320Y-67900273D01*
X182770147Y-68161426D01*
X182715000Y-68438665D01*
X182715000Y-68721335D01*
X182770147Y-68998574D01*
X182878320Y-69259727D01*
X183035363Y-69494759D01*
X183235241Y-69694637D01*
X183467759Y-69850000D01*
X183235241Y-70005363D01*
X183035363Y-70205241D01*
X182878320Y-70440273D01*
X182770147Y-70701426D01*
X182759490Y-70755002D01*
X177920510Y-70755002D01*
X177909853Y-70701426D01*
X177801680Y-70440273D01*
X177644637Y-70205241D01*
X177444759Y-70005363D01*
X177212241Y-69850000D01*
X177444759Y-69694637D01*
X177644637Y-69494759D01*
X177801680Y-69259727D01*
X177909853Y-68998574D01*
X177965000Y-68721335D01*
X177965000Y-68438665D01*
X177909853Y-68161426D01*
X177801680Y-67900273D01*
X177644637Y-67665241D01*
X177444759Y-67465363D01*
X177212241Y-67310000D01*
X177444759Y-67154637D01*
X177644637Y-66954759D01*
X177801680Y-66719727D01*
X177909853Y-66458574D01*
X177965000Y-66181335D01*
X177965000Y-65898665D01*
X177909853Y-65621426D01*
X177801680Y-65360273D01*
X177644637Y-65125241D01*
X177444759Y-64925363D01*
X177212241Y-64770000D01*
X177444759Y-64614637D01*
X177644637Y-64414759D01*
X177801680Y-64179727D01*
X177909853Y-63918574D01*
X177965000Y-63641335D01*
X177965000Y-63358665D01*
X177909853Y-63081426D01*
X177801680Y-62820273D01*
X177644637Y-62585241D01*
X177444759Y-62385363D01*
X177212241Y-62230000D01*
X177444759Y-62074637D01*
X177644637Y-61874759D01*
X177801680Y-61639727D01*
X177909853Y-61378574D01*
X177965000Y-61101335D01*
X177965000Y-60818665D01*
X177909853Y-60541426D01*
X177801680Y-60280273D01*
X177644637Y-60045241D01*
X177444759Y-59845363D01*
X177212241Y-59690000D01*
X177444759Y-59534637D01*
X177644637Y-59334759D01*
X177801680Y-59099727D01*
X177909853Y-58838574D01*
X177965000Y-58561335D01*
X177965000Y-58278665D01*
X177909853Y-58001426D01*
X177801680Y-57740273D01*
X177644637Y-57505241D01*
X177444759Y-57305363D01*
X177212241Y-57150000D01*
X177444759Y-56994637D01*
X177644637Y-56794759D01*
X177801680Y-56559727D01*
X177909853Y-56298574D01*
X177965000Y-56021335D01*
X177965000Y-55738665D01*
X177909853Y-55461426D01*
X177801680Y-55200273D01*
X177644637Y-54965241D01*
X177446039Y-54766643D01*
X177454482Y-54765812D01*
X177574180Y-54729502D01*
X177684494Y-54670537D01*
X177781185Y-54591185D01*
X177860537Y-54494494D01*
X177919502Y-54384180D01*
X177955812Y-54264482D01*
X177968072Y-54140000D01*
X177968072Y-53198665D01*
X182715000Y-53198665D01*
X182715000Y-53481335D01*
X182770147Y-53758574D01*
X182878320Y-54019727D01*
X183035363Y-54254759D01*
X183235241Y-54454637D01*
X183467759Y-54610000D01*
X183235241Y-54765363D01*
X183035363Y-54965241D01*
X182878320Y-55200273D01*
X182770147Y-55461426D01*
X182715000Y-55738665D01*
X182715000Y-56021335D01*
X182770147Y-56298574D01*
X182878320Y-56559727D01*
X183035363Y-56794759D01*
X183235241Y-56994637D01*
X183470273Y-57151680D01*
X183480865Y-57156067D01*
X183294869Y-57267615D01*
X183086481Y-57456586D01*
X182918963Y-57682580D01*
X182798754Y-57936913D01*
X182758096Y-58070961D01*
X182880085Y-58293000D01*
X184023000Y-58293000D01*
X184023000Y-58273000D01*
X184277000Y-58273000D01*
X184277000Y-58293000D01*
X185419915Y-58293000D01*
X185541904Y-58070961D01*
X185501246Y-57936913D01*
X185381037Y-57682580D01*
X185213519Y-57456586D01*
X185005131Y-57267615D01*
X184819135Y-57156067D01*
X184829727Y-57151680D01*
X185064759Y-56994637D01*
X185264637Y-56794759D01*
X185421680Y-56559727D01*
X185529853Y-56298574D01*
X185585000Y-56021335D01*
X185585000Y-55738665D01*
X185529853Y-55461426D01*
X185421680Y-55200273D01*
X185264637Y-54965241D01*
X185064759Y-54765363D01*
X184832241Y-54610000D01*
X185064759Y-54454637D01*
X185264637Y-54254759D01*
X185421680Y-54019727D01*
X185529050Y-53760512D01*
X200489783Y-53760512D01*
X200531213Y-54040130D01*
X200626397Y-54306292D01*
X200693329Y-54431514D01*
X200937298Y-54503097D01*
X201750395Y-53690000D01*
X202109605Y-53690000D01*
X202922702Y-54503097D01*
X203166671Y-54431514D01*
X203287571Y-54176004D01*
X203356300Y-53901816D01*
X203370217Y-53619488D01*
X203328787Y-53339870D01*
X203233603Y-53073708D01*
X203166671Y-52948486D01*
X202922702Y-52876903D01*
X202109605Y-53690000D01*
X201750395Y-53690000D01*
X200937298Y-52876903D01*
X200693329Y-52948486D01*
X200572429Y-53203996D01*
X200503700Y-53478184D01*
X200489783Y-53760512D01*
X185529050Y-53760512D01*
X185529853Y-53758574D01*
X185585000Y-53481335D01*
X185585000Y-53198665D01*
X185529853Y-52921426D01*
X185437017Y-52697298D01*
X201116903Y-52697298D01*
X201930000Y-53510395D01*
X202743097Y-52697298D01*
X202671514Y-52453329D01*
X202416004Y-52332429D01*
X202141816Y-52263700D01*
X201859488Y-52249783D01*
X201579870Y-52291213D01*
X201313708Y-52386397D01*
X201188486Y-52453329D01*
X201116903Y-52697298D01*
X185437017Y-52697298D01*
X185421680Y-52660273D01*
X185264637Y-52425241D01*
X185064759Y-52225363D01*
X184829727Y-52068320D01*
X184568574Y-51960147D01*
X184291335Y-51905000D01*
X184008665Y-51905000D01*
X183731426Y-51960147D01*
X183470273Y-52068320D01*
X183235241Y-52225363D01*
X183035363Y-52425241D01*
X182878320Y-52660273D01*
X182770147Y-52921426D01*
X182715000Y-53198665D01*
X177968072Y-53198665D01*
X177968072Y-52540000D01*
X177955812Y-52415518D01*
X177919502Y-52295820D01*
X177860537Y-52185506D01*
X177781185Y-52088815D01*
X177684494Y-52009463D01*
X177574180Y-51950498D01*
X177454482Y-51914188D01*
X177330000Y-51901928D01*
X175730000Y-51901928D01*
X175605518Y-51914188D01*
X175485820Y-51950498D01*
X175375506Y-52009463D01*
X175278815Y-52088815D01*
X175199463Y-52185506D01*
X175140498Y-52295820D01*
X175104188Y-52415518D01*
X175091928Y-52540000D01*
X175091928Y-54140000D01*
X175104188Y-54264482D01*
X175140498Y-54384180D01*
X175199463Y-54494494D01*
X175278815Y-54591185D01*
X175375506Y-54670537D01*
X175485820Y-54729502D01*
X175605518Y-54765812D01*
X175613961Y-54766643D01*
X175415363Y-54965241D01*
X175258320Y-55200273D01*
X175150147Y-55461426D01*
X175095000Y-55738665D01*
X175095000Y-56021335D01*
X175150147Y-56298574D01*
X175258320Y-56559727D01*
X175415363Y-56794759D01*
X175615241Y-56994637D01*
X175847759Y-57150000D01*
X175615241Y-57305363D01*
X175415363Y-57505241D01*
X175258320Y-57740273D01*
X175150147Y-58001426D01*
X175095000Y-58278665D01*
X175095000Y-58561335D01*
X175150147Y-58838574D01*
X175258320Y-59099727D01*
X175415363Y-59334759D01*
X175615241Y-59534637D01*
X175847759Y-59690000D01*
X175615241Y-59845363D01*
X175415363Y-60045241D01*
X175258320Y-60280273D01*
X175150147Y-60541426D01*
X175095000Y-60818665D01*
X175095000Y-61101335D01*
X175150147Y-61378574D01*
X175258320Y-61639727D01*
X175415363Y-61874759D01*
X175615241Y-62074637D01*
X175847759Y-62230000D01*
X175615241Y-62385363D01*
X175415363Y-62585241D01*
X175258320Y-62820273D01*
X175150147Y-63081426D01*
X175095000Y-63358665D01*
X175095000Y-63530199D01*
X174553804Y-62989003D01*
X174530001Y-62959999D01*
X174414276Y-62865026D01*
X174282247Y-62794454D01*
X174138986Y-62750997D01*
X174027333Y-62740000D01*
X174027322Y-62740000D01*
X173990000Y-62736324D01*
X173952678Y-62740000D01*
X173938043Y-62740000D01*
X173834637Y-62585241D01*
X173634759Y-62385363D01*
X173399727Y-62228320D01*
X173138574Y-62120147D01*
X172861335Y-62065000D01*
X172578665Y-62065000D01*
X172301426Y-62120147D01*
X172040273Y-62228320D01*
X171805241Y-62385363D01*
X171605363Y-62585241D01*
X171448320Y-62820273D01*
X171340147Y-63081426D01*
X171285000Y-63358665D01*
X171285000Y-63641335D01*
X171340147Y-63918574D01*
X171448320Y-64179727D01*
X171605363Y-64414759D01*
X171805241Y-64614637D01*
X172040273Y-64771680D01*
X172301426Y-64879853D01*
X172578665Y-64935000D01*
X172861335Y-64935000D01*
X173138574Y-64879853D01*
X173399727Y-64771680D01*
X173634759Y-64614637D01*
X173832297Y-64417099D01*
X175131312Y-65716114D01*
X175095000Y-65898665D01*
X175095000Y-66181335D01*
X175150147Y-66458574D01*
X175258320Y-66719727D01*
X175415363Y-66954759D01*
X175615241Y-67154637D01*
X175847759Y-67310000D01*
X175615241Y-67465363D01*
X175415363Y-67665241D01*
X175258320Y-67900273D01*
X175150147Y-68161426D01*
X175095000Y-68438665D01*
X175095000Y-68721335D01*
X175150147Y-68998574D01*
X175258320Y-69259727D01*
X175415363Y-69494759D01*
X175615241Y-69694637D01*
X175847759Y-69850000D01*
X175615241Y-70005363D01*
X175415363Y-70205241D01*
X175258320Y-70440273D01*
X175150147Y-70701426D01*
X175095000Y-70978665D01*
X175095000Y-71261335D01*
X175139491Y-71485001D01*
X167809803Y-71485001D01*
X165897504Y-69572702D01*
X166826903Y-69572702D01*
X166898486Y-69816671D01*
X167153996Y-69937571D01*
X167428184Y-70006300D01*
X167710512Y-70020217D01*
X167990130Y-69978787D01*
X168256292Y-69883603D01*
X168381514Y-69816671D01*
X168453097Y-69572702D01*
X167640000Y-68759605D01*
X166826903Y-69572702D01*
X165897504Y-69572702D01*
X164975314Y-68650512D01*
X166199783Y-68650512D01*
X166241213Y-68930130D01*
X166336397Y-69196292D01*
X166403329Y-69321514D01*
X166647298Y-69393097D01*
X167460395Y-68580000D01*
X167819605Y-68580000D01*
X168632702Y-69393097D01*
X168876671Y-69321514D01*
X168997571Y-69066004D01*
X169066300Y-68791816D01*
X169080217Y-68509488D01*
X169069724Y-68438665D01*
X171205000Y-68438665D01*
X171205000Y-68721335D01*
X171260147Y-68998574D01*
X171368320Y-69259727D01*
X171525363Y-69494759D01*
X171725241Y-69694637D01*
X171960273Y-69851680D01*
X172221426Y-69959853D01*
X172498665Y-70015000D01*
X172781335Y-70015000D01*
X173058574Y-69959853D01*
X173319727Y-69851680D01*
X173554759Y-69694637D01*
X173754637Y-69494759D01*
X173911680Y-69259727D01*
X174019853Y-68998574D01*
X174075000Y-68721335D01*
X174075000Y-68438665D01*
X174019853Y-68161426D01*
X173911680Y-67900273D01*
X173754637Y-67665241D01*
X173554759Y-67465363D01*
X173319727Y-67308320D01*
X173058574Y-67200147D01*
X172781335Y-67145000D01*
X172498665Y-67145000D01*
X172221426Y-67200147D01*
X171960273Y-67308320D01*
X171725241Y-67465363D01*
X171525363Y-67665241D01*
X171368320Y-67900273D01*
X171260147Y-68161426D01*
X171205000Y-68438665D01*
X169069724Y-68438665D01*
X169038787Y-68229870D01*
X168943603Y-67963708D01*
X168876671Y-67838486D01*
X168632702Y-67766903D01*
X167819605Y-68580000D01*
X167460395Y-68580000D01*
X166647298Y-67766903D01*
X166403329Y-67838486D01*
X166282429Y-68093996D01*
X166213700Y-68368184D01*
X166199783Y-68650512D01*
X164975314Y-68650512D01*
X163912100Y-67587298D01*
X166826903Y-67587298D01*
X167640000Y-68400395D01*
X168453097Y-67587298D01*
X168381514Y-67343329D01*
X168126004Y-67222429D01*
X167851816Y-67153700D01*
X167569488Y-67139783D01*
X167289870Y-67181213D01*
X167023708Y-67276397D01*
X166898486Y-67343329D01*
X166826903Y-67587298D01*
X163912100Y-67587298D01*
X162050000Y-65725199D01*
X162050000Y-63358665D01*
X166285000Y-63358665D01*
X166285000Y-63641335D01*
X166340147Y-63918574D01*
X166448320Y-64179727D01*
X166605363Y-64414759D01*
X166805241Y-64614637D01*
X167040273Y-64771680D01*
X167301426Y-64879853D01*
X167578665Y-64935000D01*
X167861335Y-64935000D01*
X168138574Y-64879853D01*
X168399727Y-64771680D01*
X168634759Y-64614637D01*
X168834637Y-64414759D01*
X168991680Y-64179727D01*
X169099853Y-63918574D01*
X169155000Y-63641335D01*
X169155000Y-63358665D01*
X169099853Y-63081426D01*
X168991680Y-62820273D01*
X168834637Y-62585241D01*
X168634759Y-62385363D01*
X168399727Y-62228320D01*
X168138574Y-62120147D01*
X167861335Y-62065000D01*
X167578665Y-62065000D01*
X167301426Y-62120147D01*
X167040273Y-62228320D01*
X166805241Y-62385363D01*
X166605363Y-62585241D01*
X166448320Y-62820273D01*
X166340147Y-63081426D01*
X166285000Y-63358665D01*
X162050000Y-63358665D01*
X162050000Y-62178043D01*
X162204759Y-62074637D01*
X162404637Y-61874759D01*
X162561680Y-61639727D01*
X162669853Y-61378574D01*
X162725000Y-61101335D01*
X162725000Y-60818665D01*
X162669853Y-60541426D01*
X162561680Y-60280273D01*
X162404637Y-60045241D01*
X162204759Y-59845363D01*
X161969727Y-59688320D01*
X161708574Y-59580147D01*
X161431335Y-59525000D01*
X161148665Y-59525000D01*
X160871426Y-59580147D01*
X160610273Y-59688320D01*
X160375241Y-59845363D01*
X160175363Y-60045241D01*
X160020000Y-60277759D01*
X159864637Y-60045241D01*
X159664759Y-59845363D01*
X159429727Y-59688320D01*
X159168574Y-59580147D01*
X158891335Y-59525000D01*
X158608665Y-59525000D01*
X158331426Y-59580147D01*
X158070273Y-59688320D01*
X157835241Y-59845363D01*
X157635363Y-60045241D01*
X157480000Y-60277759D01*
X157324637Y-60045241D01*
X157124759Y-59845363D01*
X156889727Y-59688320D01*
X156628574Y-59580147D01*
X156351335Y-59525000D01*
X156068665Y-59525000D01*
X155791426Y-59580147D01*
X155530273Y-59688320D01*
X155295241Y-59845363D01*
X155095363Y-60045241D01*
X154940000Y-60277759D01*
X154784637Y-60045241D01*
X154584759Y-59845363D01*
X154349727Y-59688320D01*
X154088574Y-59580147D01*
X153811335Y-59525000D01*
X153528665Y-59525000D01*
X153251426Y-59580147D01*
X152990273Y-59688320D01*
X152755241Y-59845363D01*
X152555363Y-60045241D01*
X152400000Y-60277759D01*
X152244637Y-60045241D01*
X152044759Y-59845363D01*
X151809727Y-59688320D01*
X151548574Y-59580147D01*
X151271335Y-59525000D01*
X150988665Y-59525000D01*
X150711426Y-59580147D01*
X150450273Y-59688320D01*
X150215241Y-59845363D01*
X150015363Y-60045241D01*
X149860000Y-60277759D01*
X149704637Y-60045241D01*
X149504759Y-59845363D01*
X149269727Y-59688320D01*
X149008574Y-59580147D01*
X148731335Y-59525000D01*
X148448665Y-59525000D01*
X148171426Y-59580147D01*
X147910273Y-59688320D01*
X147675241Y-59845363D01*
X147475363Y-60045241D01*
X147320000Y-60277759D01*
X147164637Y-60045241D01*
X146964759Y-59845363D01*
X146729727Y-59688320D01*
X146468574Y-59580147D01*
X146191335Y-59525000D01*
X145908665Y-59525000D01*
X145631426Y-59580147D01*
X145370273Y-59688320D01*
X145135241Y-59845363D01*
X144935363Y-60045241D01*
X144780000Y-60277759D01*
X144624637Y-60045241D01*
X144424759Y-59845363D01*
X144189727Y-59688320D01*
X143928574Y-59580147D01*
X143651335Y-59525000D01*
X143368665Y-59525000D01*
X143091426Y-59580147D01*
X142830273Y-59688320D01*
X142595241Y-59845363D01*
X142395363Y-60045241D01*
X142238320Y-60280273D01*
X142130147Y-60541426D01*
X142075000Y-60818665D01*
X142075000Y-61101335D01*
X142130147Y-61378574D01*
X142238320Y-61639727D01*
X142395363Y-61874759D01*
X142595241Y-62074637D01*
X142830273Y-62231680D01*
X143091426Y-62339853D01*
X143368665Y-62395000D01*
X143651335Y-62395000D01*
X143928574Y-62339853D01*
X144189727Y-62231680D01*
X144424759Y-62074637D01*
X144624637Y-61874759D01*
X144780000Y-61642241D01*
X144935363Y-61874759D01*
X145135241Y-62074637D01*
X145370273Y-62231680D01*
X145631426Y-62339853D01*
X145908665Y-62395000D01*
X146191335Y-62395000D01*
X146468574Y-62339853D01*
X146729727Y-62231680D01*
X146964759Y-62074637D01*
X147164637Y-61874759D01*
X147320000Y-61642241D01*
X147475363Y-61874759D01*
X147675241Y-62074637D01*
X147910273Y-62231680D01*
X148171426Y-62339853D01*
X148448665Y-62395000D01*
X148731335Y-62395000D01*
X149008574Y-62339853D01*
X149269727Y-62231680D01*
X149504759Y-62074637D01*
X149704637Y-61874759D01*
X149860000Y-61642241D01*
X150015363Y-61874759D01*
X150215241Y-62074637D01*
X150450273Y-62231680D01*
X150711426Y-62339853D01*
X150988665Y-62395000D01*
X151271335Y-62395000D01*
X151548574Y-62339853D01*
X151809727Y-62231680D01*
X152044759Y-62074637D01*
X152244637Y-61874759D01*
X152400000Y-61642241D01*
X152555363Y-61874759D01*
X152755241Y-62074637D01*
X152990273Y-62231680D01*
X153251426Y-62339853D01*
X153528665Y-62395000D01*
X153811335Y-62395000D01*
X154088574Y-62339853D01*
X154349727Y-62231680D01*
X154584759Y-62074637D01*
X154784637Y-61874759D01*
X154940000Y-61642241D01*
X155095363Y-61874759D01*
X155295241Y-62074637D01*
X155530273Y-62231680D01*
X155791426Y-62339853D01*
X156068665Y-62395000D01*
X156240198Y-62395000D01*
X153355199Y-65280000D01*
X138438178Y-65280000D01*
X138313475Y-65093368D01*
X138106632Y-64886525D01*
X137924466Y-64764805D01*
X138041355Y-64695178D01*
X138257588Y-64500269D01*
X138431641Y-64266920D01*
X138556825Y-64004099D01*
X138601476Y-63856890D01*
X138480155Y-63627000D01*
X137287000Y-63627000D01*
X137287000Y-63647000D01*
X137033000Y-63647000D01*
X137033000Y-63627000D01*
X135839845Y-63627000D01*
X135718524Y-63856890D01*
X135763175Y-64004099D01*
X135888359Y-64266920D01*
X136062412Y-64500269D01*
X136278645Y-64695178D01*
X136395534Y-64764805D01*
X136213368Y-64886525D01*
X136006525Y-65093368D01*
X135844010Y-65336589D01*
X135732068Y-65606842D01*
X135675000Y-65893740D01*
X135675000Y-66186260D01*
X135732068Y-66473158D01*
X135844010Y-66743411D01*
X136006525Y-66986632D01*
X136213368Y-67193475D01*
X136387760Y-67310000D01*
X136213368Y-67426525D01*
X136006525Y-67633368D01*
X135844010Y-67876589D01*
X135732068Y-68146842D01*
X135675000Y-68433740D01*
X135675000Y-68726260D01*
X135732068Y-69013158D01*
X135844010Y-69283411D01*
X136006525Y-69526632D01*
X136213368Y-69733475D01*
X136387760Y-69850000D01*
X136213368Y-69966525D01*
X136006525Y-70173368D01*
X135844010Y-70416589D01*
X135732068Y-70686842D01*
X135675000Y-70973740D01*
X135675000Y-71266260D01*
X135718791Y-71486408D01*
X135379003Y-71826196D01*
X135349999Y-71849999D01*
X135294871Y-71917174D01*
X135255026Y-71965724D01*
X135218126Y-72034759D01*
X135184454Y-72097754D01*
X135140997Y-72241015D01*
X135130000Y-72352668D01*
X135130000Y-72352678D01*
X135126324Y-72390000D01*
X131470000Y-72390000D01*
X131470000Y-60110000D01*
X135671928Y-60110000D01*
X135671928Y-61810000D01*
X135684188Y-61934482D01*
X135720498Y-62054180D01*
X135779463Y-62164494D01*
X135858815Y-62261185D01*
X135955506Y-62340537D01*
X136065820Y-62399502D01*
X136146466Y-62423966D01*
X136062412Y-62499731D01*
X135888359Y-62733080D01*
X135763175Y-62995901D01*
X135718524Y-63143110D01*
X135839845Y-63373000D01*
X137033000Y-63373000D01*
X137033000Y-63353000D01*
X137287000Y-63353000D01*
X137287000Y-63373000D01*
X138480155Y-63373000D01*
X138601476Y-63143110D01*
X138556825Y-62995901D01*
X138431641Y-62733080D01*
X138257588Y-62499731D01*
X138173534Y-62423966D01*
X138254180Y-62399502D01*
X138364494Y-62340537D01*
X138461185Y-62261185D01*
X138540537Y-62164494D01*
X138599502Y-62054180D01*
X138635812Y-61934482D01*
X138648072Y-61810000D01*
X138648072Y-60110000D01*
X138635812Y-59985518D01*
X138599502Y-59865820D01*
X138540537Y-59755506D01*
X138461185Y-59658815D01*
X138364494Y-59579463D01*
X138254180Y-59520498D01*
X138134482Y-59484188D01*
X138010000Y-59471928D01*
X136310000Y-59471928D01*
X136185518Y-59484188D01*
X136065820Y-59520498D01*
X135955506Y-59579463D01*
X135858815Y-59658815D01*
X135779463Y-59755506D01*
X135720498Y-59865820D01*
X135684188Y-59985518D01*
X135671928Y-60110000D01*
X131470000Y-60110000D01*
X131470000Y-57008665D01*
X142155000Y-57008665D01*
X142155000Y-57291335D01*
X142210147Y-57568574D01*
X142318320Y-57829727D01*
X142475363Y-58064759D01*
X142675241Y-58264637D01*
X142910273Y-58421680D01*
X143171426Y-58529853D01*
X143448665Y-58585000D01*
X143731335Y-58585000D01*
X144008574Y-58529853D01*
X144269727Y-58421680D01*
X144504759Y-58264637D01*
X144626694Y-58142702D01*
X147776903Y-58142702D01*
X147848486Y-58386671D01*
X148103996Y-58507571D01*
X148378184Y-58576300D01*
X148660512Y-58590217D01*
X148940130Y-58548787D01*
X149206292Y-58453603D01*
X149331514Y-58386671D01*
X149403097Y-58142702D01*
X148590000Y-57329605D01*
X147776903Y-58142702D01*
X144626694Y-58142702D01*
X144704637Y-58064759D01*
X144861680Y-57829727D01*
X144969853Y-57568574D01*
X145025000Y-57291335D01*
X145025000Y-57220512D01*
X147149783Y-57220512D01*
X147191213Y-57500130D01*
X147286397Y-57766292D01*
X147353329Y-57891514D01*
X147597298Y-57963097D01*
X148410395Y-57150000D01*
X148769605Y-57150000D01*
X149582702Y-57963097D01*
X149826671Y-57891514D01*
X149947571Y-57636004D01*
X149979935Y-57506890D01*
X152228524Y-57506890D01*
X152273175Y-57654099D01*
X152398359Y-57916920D01*
X152572412Y-58150269D01*
X152788645Y-58345178D01*
X153038748Y-58494157D01*
X153313109Y-58591481D01*
X153543000Y-58470814D01*
X153543000Y-57277000D01*
X153797000Y-57277000D01*
X153797000Y-58470814D01*
X154026891Y-58591481D01*
X154301252Y-58494157D01*
X154551355Y-58345178D01*
X154625144Y-58278665D01*
X166205000Y-58278665D01*
X166205000Y-58561335D01*
X166260147Y-58838574D01*
X166368320Y-59099727D01*
X166525363Y-59334759D01*
X166725241Y-59534637D01*
X166960273Y-59691680D01*
X167221426Y-59799853D01*
X167498665Y-59855000D01*
X167781335Y-59855000D01*
X168058574Y-59799853D01*
X168319727Y-59691680D01*
X168554759Y-59534637D01*
X168754637Y-59334759D01*
X168911680Y-59099727D01*
X169019853Y-58838574D01*
X169075000Y-58561335D01*
X169075000Y-58278665D01*
X171205000Y-58278665D01*
X171205000Y-58561335D01*
X171260147Y-58838574D01*
X171368320Y-59099727D01*
X171525363Y-59334759D01*
X171725241Y-59534637D01*
X171960273Y-59691680D01*
X172221426Y-59799853D01*
X172498665Y-59855000D01*
X172781335Y-59855000D01*
X173058574Y-59799853D01*
X173319727Y-59691680D01*
X173554759Y-59534637D01*
X173754637Y-59334759D01*
X173911680Y-59099727D01*
X174019853Y-58838574D01*
X174075000Y-58561335D01*
X174075000Y-58278665D01*
X174019853Y-58001426D01*
X173911680Y-57740273D01*
X173754637Y-57505241D01*
X173554759Y-57305363D01*
X173319727Y-57148320D01*
X173058574Y-57040147D01*
X172781335Y-56985000D01*
X172498665Y-56985000D01*
X172221426Y-57040147D01*
X171960273Y-57148320D01*
X171725241Y-57305363D01*
X171525363Y-57505241D01*
X171368320Y-57740273D01*
X171260147Y-58001426D01*
X171205000Y-58278665D01*
X169075000Y-58278665D01*
X169019853Y-58001426D01*
X168911680Y-57740273D01*
X168754637Y-57505241D01*
X168554759Y-57305363D01*
X168319727Y-57148320D01*
X168058574Y-57040147D01*
X167781335Y-56985000D01*
X167498665Y-56985000D01*
X167221426Y-57040147D01*
X166960273Y-57148320D01*
X166725241Y-57305363D01*
X166525363Y-57505241D01*
X166368320Y-57740273D01*
X166260147Y-58001426D01*
X166205000Y-58278665D01*
X154625144Y-58278665D01*
X154767588Y-58150269D01*
X154941641Y-57916920D01*
X155066825Y-57654099D01*
X155111476Y-57506890D01*
X154990155Y-57277000D01*
X153797000Y-57277000D01*
X153543000Y-57277000D01*
X152349845Y-57277000D01*
X152228524Y-57506890D01*
X149979935Y-57506890D01*
X150016300Y-57361816D01*
X150030217Y-57079488D01*
X149988787Y-56799870D01*
X149893603Y-56533708D01*
X149826671Y-56408486D01*
X149582702Y-56336903D01*
X148769605Y-57150000D01*
X148410395Y-57150000D01*
X147597298Y-56336903D01*
X147353329Y-56408486D01*
X147232429Y-56663996D01*
X147163700Y-56938184D01*
X147149783Y-57220512D01*
X145025000Y-57220512D01*
X145025000Y-57008665D01*
X144969853Y-56731426D01*
X144861680Y-56470273D01*
X144704637Y-56235241D01*
X144626694Y-56157298D01*
X147776903Y-56157298D01*
X148590000Y-56970395D01*
X149403097Y-56157298D01*
X149331514Y-55913329D01*
X149076004Y-55792429D01*
X148801816Y-55723700D01*
X148519488Y-55709783D01*
X148239870Y-55751213D01*
X147973708Y-55846397D01*
X147848486Y-55913329D01*
X147776903Y-56157298D01*
X144626694Y-56157298D01*
X144504759Y-56035363D01*
X144269727Y-55878320D01*
X144008574Y-55770147D01*
X143731335Y-55715000D01*
X143448665Y-55715000D01*
X143171426Y-55770147D01*
X142910273Y-55878320D01*
X142675241Y-56035363D01*
X142475363Y-56235241D01*
X142318320Y-56470273D01*
X142210147Y-56731426D01*
X142155000Y-57008665D01*
X131470000Y-57008665D01*
X131470000Y-50676481D01*
X133653124Y-50676481D01*
X133965308Y-51125177D01*
X134561259Y-51445612D01*
X135208273Y-51643626D01*
X135881484Y-51711610D01*
X136555023Y-51646949D01*
X137203006Y-51452130D01*
X137639879Y-51220000D01*
X152181928Y-51220000D01*
X152181928Y-52920000D01*
X152194188Y-53044482D01*
X152230498Y-53164180D01*
X152289463Y-53274494D01*
X152368815Y-53371185D01*
X152465506Y-53450537D01*
X152575820Y-53509502D01*
X152648380Y-53531513D01*
X152516525Y-53663368D01*
X152354010Y-53906589D01*
X152242068Y-54176842D01*
X152185000Y-54463740D01*
X152185000Y-54756260D01*
X152242068Y-55043158D01*
X152354010Y-55313411D01*
X152516525Y-55556632D01*
X152723368Y-55763475D01*
X152905534Y-55885195D01*
X152788645Y-55954822D01*
X152572412Y-56149731D01*
X152398359Y-56383080D01*
X152273175Y-56645901D01*
X152228524Y-56793110D01*
X152349845Y-57023000D01*
X153543000Y-57023000D01*
X153543000Y-57003000D01*
X153797000Y-57003000D01*
X153797000Y-57023000D01*
X154990155Y-57023000D01*
X155111476Y-56793110D01*
X155066825Y-56645901D01*
X154941641Y-56383080D01*
X154767588Y-56149731D01*
X154551355Y-55954822D01*
X154434466Y-55885195D01*
X154616632Y-55763475D01*
X154823475Y-55556632D01*
X154985990Y-55313411D01*
X155097932Y-55043158D01*
X155155000Y-54756260D01*
X155155000Y-54463740D01*
X155128935Y-54332702D01*
X166826903Y-54332702D01*
X166898486Y-54576671D01*
X167153996Y-54697571D01*
X167428184Y-54766300D01*
X167710512Y-54780217D01*
X167990130Y-54738787D01*
X168256292Y-54643603D01*
X168381514Y-54576671D01*
X168453097Y-54332702D01*
X167640000Y-53519605D01*
X166826903Y-54332702D01*
X155128935Y-54332702D01*
X155097932Y-54176842D01*
X154985990Y-53906589D01*
X154823475Y-53663368D01*
X154691620Y-53531513D01*
X154764180Y-53509502D01*
X154874494Y-53450537D01*
X154923264Y-53410512D01*
X166199783Y-53410512D01*
X166241213Y-53690130D01*
X166336397Y-53956292D01*
X166403329Y-54081514D01*
X166647298Y-54153097D01*
X167460395Y-53340000D01*
X167819605Y-53340000D01*
X168632702Y-54153097D01*
X168876671Y-54081514D01*
X168997571Y-53826004D01*
X169066300Y-53551816D01*
X169080217Y-53269488D01*
X169069724Y-53198665D01*
X171205000Y-53198665D01*
X171205000Y-53481335D01*
X171260147Y-53758574D01*
X171368320Y-54019727D01*
X171525363Y-54254759D01*
X171725241Y-54454637D01*
X171960273Y-54611680D01*
X172221426Y-54719853D01*
X172498665Y-54775000D01*
X172781335Y-54775000D01*
X173058574Y-54719853D01*
X173319727Y-54611680D01*
X173554759Y-54454637D01*
X173754637Y-54254759D01*
X173911680Y-54019727D01*
X174019853Y-53758574D01*
X174075000Y-53481335D01*
X174075000Y-53198665D01*
X174019853Y-52921426D01*
X173911680Y-52660273D01*
X173754637Y-52425241D01*
X173554759Y-52225363D01*
X173319727Y-52068320D01*
X173058574Y-51960147D01*
X172781335Y-51905000D01*
X172498665Y-51905000D01*
X172221426Y-51960147D01*
X171960273Y-52068320D01*
X171725241Y-52225363D01*
X171525363Y-52425241D01*
X171368320Y-52660273D01*
X171260147Y-52921426D01*
X171205000Y-53198665D01*
X169069724Y-53198665D01*
X169038787Y-52989870D01*
X168943603Y-52723708D01*
X168876671Y-52598486D01*
X168632702Y-52526903D01*
X167819605Y-53340000D01*
X167460395Y-53340000D01*
X166647298Y-52526903D01*
X166403329Y-52598486D01*
X166282429Y-52853996D01*
X166213700Y-53128184D01*
X166199783Y-53410512D01*
X154923264Y-53410512D01*
X154971185Y-53371185D01*
X155050537Y-53274494D01*
X155109502Y-53164180D01*
X155145812Y-53044482D01*
X155158072Y-52920000D01*
X155158072Y-52347298D01*
X166826903Y-52347298D01*
X167640000Y-53160395D01*
X168453097Y-52347298D01*
X168381514Y-52103329D01*
X168126004Y-51982429D01*
X167851816Y-51913700D01*
X167569488Y-51899783D01*
X167289870Y-51941213D01*
X167023708Y-52036397D01*
X166898486Y-52103329D01*
X166826903Y-52347298D01*
X155158072Y-52347298D01*
X155158072Y-51220000D01*
X155145812Y-51095518D01*
X155109502Y-50975820D01*
X155050537Y-50865506D01*
X154971185Y-50768815D01*
X154874494Y-50689463D01*
X154764180Y-50630498D01*
X154644482Y-50594188D01*
X154520000Y-50581928D01*
X152820000Y-50581928D01*
X152695518Y-50594188D01*
X152575820Y-50630498D01*
X152465506Y-50689463D01*
X152368815Y-50768815D01*
X152289463Y-50865506D01*
X152230498Y-50975820D01*
X152194188Y-51095518D01*
X152181928Y-51220000D01*
X137639879Y-51220000D01*
X137800530Y-51134639D01*
X137814692Y-51125177D01*
X138126876Y-50676481D01*
X135890000Y-48439605D01*
X133653124Y-50676481D01*
X131470000Y-50676481D01*
X131470000Y-48251484D01*
X132438390Y-48251484D01*
X132503051Y-48925023D01*
X132697870Y-49573006D01*
X133015361Y-50170530D01*
X133024823Y-50184692D01*
X133473519Y-50496876D01*
X135710395Y-48260000D01*
X136069605Y-48260000D01*
X138306481Y-50496876D01*
X138755177Y-50184692D01*
X139075612Y-49588741D01*
X139178454Y-49252702D01*
X178256903Y-49252702D01*
X178328486Y-49496671D01*
X178583996Y-49617571D01*
X178858184Y-49686300D01*
X179140512Y-49700217D01*
X179420130Y-49658787D01*
X179686292Y-49563603D01*
X179811514Y-49496671D01*
X179883097Y-49252702D01*
X179070000Y-48439605D01*
X178256903Y-49252702D01*
X139178454Y-49252702D01*
X139273626Y-48941727D01*
X139335349Y-48330512D01*
X177629783Y-48330512D01*
X177671213Y-48610130D01*
X177766397Y-48876292D01*
X177833329Y-49001514D01*
X178077298Y-49073097D01*
X178890395Y-48260000D01*
X179249605Y-48260000D01*
X180062702Y-49073097D01*
X180306671Y-49001514D01*
X180427571Y-48746004D01*
X180496300Y-48471816D01*
X180510217Y-48189488D01*
X180499724Y-48118665D01*
X182635000Y-48118665D01*
X182635000Y-48401335D01*
X182690147Y-48678574D01*
X182798320Y-48939727D01*
X182955363Y-49174759D01*
X183155241Y-49374637D01*
X183390273Y-49531680D01*
X183651426Y-49639853D01*
X183928665Y-49695000D01*
X184211335Y-49695000D01*
X184488574Y-49639853D01*
X184749727Y-49531680D01*
X184984759Y-49374637D01*
X185184637Y-49174759D01*
X185341680Y-48939727D01*
X185449853Y-48678574D01*
X185505000Y-48401335D01*
X185505000Y-48118665D01*
X185449853Y-47841426D01*
X185341680Y-47580273D01*
X185184637Y-47345241D01*
X184984759Y-47145363D01*
X184749727Y-46988320D01*
X184488574Y-46880147D01*
X184211335Y-46825000D01*
X183928665Y-46825000D01*
X183651426Y-46880147D01*
X183390273Y-46988320D01*
X183155241Y-47145363D01*
X182955363Y-47345241D01*
X182798320Y-47580273D01*
X182690147Y-47841426D01*
X182635000Y-48118665D01*
X180499724Y-48118665D01*
X180468787Y-47909870D01*
X180373603Y-47643708D01*
X180306671Y-47518486D01*
X180062702Y-47446903D01*
X179249605Y-48260000D01*
X178890395Y-48260000D01*
X178077298Y-47446903D01*
X177833329Y-47518486D01*
X177712429Y-47773996D01*
X177643700Y-48048184D01*
X177629783Y-48330512D01*
X139335349Y-48330512D01*
X139341610Y-48268516D01*
X139276949Y-47594977D01*
X139178431Y-47267298D01*
X178256903Y-47267298D01*
X179070000Y-48080395D01*
X179883097Y-47267298D01*
X179811514Y-47023329D01*
X179556004Y-46902429D01*
X179281816Y-46833700D01*
X178999488Y-46819783D01*
X178719870Y-46861213D01*
X178453708Y-46956397D01*
X178328486Y-47023329D01*
X178256903Y-47267298D01*
X139178431Y-47267298D01*
X139082130Y-46946994D01*
X138828935Y-46470475D01*
X199595000Y-46470475D01*
X199595000Y-46989525D01*
X199696261Y-47498601D01*
X199894893Y-47978141D01*
X200183262Y-48409715D01*
X200550285Y-48776738D01*
X200981859Y-49065107D01*
X201461399Y-49263739D01*
X201970475Y-49365000D01*
X202489525Y-49365000D01*
X202998601Y-49263739D01*
X203478141Y-49065107D01*
X203909715Y-48776738D01*
X204276738Y-48409715D01*
X204565107Y-47978141D01*
X204763739Y-47498601D01*
X204865000Y-46989525D01*
X204865000Y-46470475D01*
X204763739Y-45961399D01*
X204565107Y-45481859D01*
X204276738Y-45050285D01*
X203909715Y-44683262D01*
X203478141Y-44394893D01*
X202998601Y-44196261D01*
X202489525Y-44095000D01*
X201970475Y-44095000D01*
X201461399Y-44196261D01*
X200981859Y-44394893D01*
X200550285Y-44683262D01*
X200183262Y-45050285D01*
X199894893Y-45481859D01*
X199696261Y-45961399D01*
X199595000Y-46470475D01*
X138828935Y-46470475D01*
X138764639Y-46349470D01*
X138755177Y-46335308D01*
X138306481Y-46023124D01*
X136069605Y-48260000D01*
X135710395Y-48260000D01*
X133473519Y-46023124D01*
X133024823Y-46335308D01*
X132704388Y-46931259D01*
X132506374Y-47578273D01*
X132438390Y-48251484D01*
X131470000Y-48251484D01*
X131470000Y-45843519D01*
X133653124Y-45843519D01*
X135890000Y-48080395D01*
X138126876Y-45843519D01*
X137814692Y-45394823D01*
X137218741Y-45074388D01*
X136571727Y-44876374D01*
X135898516Y-44808390D01*
X135224977Y-44873051D01*
X134576994Y-45067870D01*
X133979470Y-45385361D01*
X133965308Y-45394823D01*
X133653124Y-45843519D01*
X131470000Y-45843519D01*
X131470000Y-43840000D01*
X216510000Y-43840000D01*
X216510001Y-99670000D01*
%TD*%
M02*
