%FSLAX45Y45*%
G04 Gerber Fmt 4.5, Leading zero omitted, Abs format (unit mm)*
G04 Created by KiCad (PCBNEW (5.1.6)-1) date 2020-07-22 17:21:02*
%MOMM*%
%LPD*%
G01*
G04 APERTURE LIST*
%TA.AperFunction,Profile*%
%ADD10C,0.050000*%
%TD*%
%ADD11C,0.200000*%
%ADD12C,0.300000*%
G04 APERTURE END LIST*
D10*
X13081000Y-10033000D02*
X13081000Y-4318000D01*
X21717000Y-10033000D02*
X13081000Y-10033000D01*
X21717000Y-4318000D02*
X21717000Y-10033000D01*
X13081000Y-4318000D02*
X21717000Y-4318000D01*
D11*
X15474000Y-9886000D02*
X15514000Y-9926000D01*
X15514000Y-9886000D02*
X15474000Y-9926000D01*
X15534000Y-8636000D02*
G75*
G03*
X15534000Y-8636000I-40000J0D01*
G01*
X16550000Y-8636000D02*
G75*
G03*
X16550000Y-8636000I-40000J0D01*
G01*
X16804000Y-5842000D02*
G75*
G03*
X16804000Y-5842000I-40000J0D01*
G01*
X17304000Y-5842000D02*
G75*
G03*
X17304000Y-5842000I-40000J0D01*
G01*
X18844000Y-8128000D02*
G75*
G03*
X18844000Y-8128000I-40000J0D01*
G01*
X19344000Y-8128000D02*
G75*
G03*
X19344000Y-8128000I-40000J0D01*
G01*
X17947000Y-4826000D02*
G75*
G03*
X17947000Y-4826000I-40000J0D01*
G01*
X18447000Y-4826000D02*
G75*
G03*
X18447000Y-4826000I-40000J0D01*
G01*
X17701000Y-7747000D02*
G75*
G03*
X17701000Y-7747000I-40000J0D01*
G01*
X18201000Y-7747000D02*
G75*
G03*
X18201000Y-7747000I-40000J0D01*
G01*
X17693000Y-5334000D02*
G75*
G03*
X17693000Y-5334000I-40000J0D01*
G01*
X17693000Y-5588000D02*
G75*
G03*
X17693000Y-5588000I-40000J0D01*
G01*
X17693000Y-5842000D02*
G75*
G03*
X17693000Y-5842000I-40000J0D01*
G01*
X17693000Y-6096000D02*
G75*
G03*
X17693000Y-6096000I-40000J0D01*
G01*
X17693000Y-6350000D02*
G75*
G03*
X17693000Y-6350000I-40000J0D01*
G01*
X17693000Y-6604000D02*
G75*
G03*
X17693000Y-6604000I-40000J0D01*
G01*
X17693000Y-6858000D02*
G75*
G03*
X17693000Y-6858000I-40000J0D01*
G01*
X17693000Y-7112000D02*
G75*
G03*
X17693000Y-7112000I-40000J0D01*
G01*
X17693000Y-7366000D02*
G75*
G03*
X17693000Y-7366000I-40000J0D01*
G01*
X18455000Y-5334000D02*
G75*
G03*
X18455000Y-5334000I-40000J0D01*
G01*
X18455000Y-5588000D02*
G75*
G03*
X18455000Y-5588000I-40000J0D01*
G01*
X18455000Y-5842000D02*
G75*
G03*
X18455000Y-5842000I-40000J0D01*
G01*
X18455000Y-6096000D02*
G75*
G03*
X18455000Y-6096000I-40000J0D01*
G01*
X18455000Y-6350000D02*
G75*
G03*
X18455000Y-6350000I-40000J0D01*
G01*
X18455000Y-6604000D02*
G75*
G03*
X18455000Y-6604000I-40000J0D01*
G01*
X18455000Y-6858000D02*
G75*
G03*
X18455000Y-6858000I-40000J0D01*
G01*
X18455000Y-7112000D02*
G75*
G03*
X18455000Y-7112000I-40000J0D01*
G01*
X18455000Y-7366000D02*
G75*
G03*
X18455000Y-7366000I-40000J0D01*
G01*
X16812000Y-6350000D02*
G75*
G03*
X16812000Y-6350000I-40000J0D01*
G01*
X17312000Y-6350000D02*
G75*
G03*
X17312000Y-6350000I-40000J0D01*
G01*
X18836000Y-9398000D02*
G75*
G03*
X18836000Y-9398000I-40000J0D01*
G01*
X19852000Y-9398000D02*
G75*
G03*
X19852000Y-9398000I-40000J0D01*
G01*
X18836000Y-7620000D02*
G75*
G03*
X18836000Y-7620000I-40000J0D01*
G01*
X19336000Y-7620000D02*
G75*
G03*
X19336000Y-7620000I-40000J0D01*
G01*
X18836000Y-9017000D02*
G75*
G03*
X18836000Y-9017000I-40000J0D01*
G01*
X19852000Y-9017000D02*
G75*
G03*
X19852000Y-9017000I-40000J0D01*
G01*
X16804000Y-6858000D02*
G75*
G03*
X16804000Y-6858000I-40000J0D01*
G01*
X17304000Y-6858000D02*
G75*
G03*
X17304000Y-6858000I-40000J0D01*
G01*
X14399000Y-5715000D02*
G75*
G03*
X14399000Y-5715000I-40000J0D01*
G01*
X14899000Y-5715000D02*
G75*
G03*
X14899000Y-5715000I-40000J0D01*
G01*
X16804000Y-5334000D02*
G75*
G03*
X16804000Y-5334000I-40000J0D01*
G01*
X17304000Y-5334000D02*
G75*
G03*
X17304000Y-5334000I-40000J0D01*
G01*
X17693000Y-8128000D02*
G75*
G03*
X17693000Y-8128000I-40000J0D01*
G01*
X17693000Y-8382000D02*
G75*
G03*
X17693000Y-8382000I-40000J0D01*
G01*
X17693000Y-8636000D02*
G75*
G03*
X17693000Y-8636000I-40000J0D01*
G01*
X17693000Y-8890000D02*
G75*
G03*
X17693000Y-8890000I-40000J0D01*
G01*
X17693000Y-9144000D02*
G75*
G03*
X17693000Y-9144000I-40000J0D01*
G01*
X17693000Y-9398000D02*
G75*
G03*
X17693000Y-9398000I-40000J0D01*
G01*
X17693000Y-9652000D02*
G75*
G03*
X17693000Y-9652000I-40000J0D01*
G01*
X18455000Y-8128000D02*
G75*
G03*
X18455000Y-8128000I-40000J0D01*
G01*
X18455000Y-8382000D02*
G75*
G03*
X18455000Y-8382000I-40000J0D01*
G01*
X18455000Y-8636000D02*
G75*
G03*
X18455000Y-8636000I-40000J0D01*
G01*
X18455000Y-8890000D02*
G75*
G03*
X18455000Y-8890000I-40000J0D01*
G01*
X18455000Y-9144000D02*
G75*
G03*
X18455000Y-9144000I-40000J0D01*
G01*
X18455000Y-9398000D02*
G75*
G03*
X18455000Y-9398000I-40000J0D01*
G01*
X18455000Y-9652000D02*
G75*
G03*
X18455000Y-9652000I-40000J0D01*
G01*
X15534000Y-8128000D02*
G75*
G03*
X15534000Y-8128000I-40000J0D01*
G01*
X16550000Y-8128000D02*
G75*
G03*
X16550000Y-8128000I-40000J0D01*
G01*
X14391000Y-6096000D02*
G75*
G03*
X14391000Y-6096000I-40000J0D01*
G01*
X14391000Y-6858000D02*
G75*
G03*
X14391000Y-6858000I-40000J0D01*
G01*
X14645000Y-6096000D02*
G75*
G03*
X14645000Y-6096000I-40000J0D01*
G01*
X14645000Y-6858000D02*
G75*
G03*
X14645000Y-6858000I-40000J0D01*
G01*
X14899000Y-6096000D02*
G75*
G03*
X14899000Y-6096000I-40000J0D01*
G01*
X14899000Y-6858000D02*
G75*
G03*
X14899000Y-6858000I-40000J0D01*
G01*
X15153000Y-6096000D02*
G75*
G03*
X15153000Y-6096000I-40000J0D01*
G01*
X15153000Y-6858000D02*
G75*
G03*
X15153000Y-6858000I-40000J0D01*
G01*
X15407000Y-6096000D02*
G75*
G03*
X15407000Y-6096000I-40000J0D01*
G01*
X15407000Y-6858000D02*
G75*
G03*
X15407000Y-6858000I-40000J0D01*
G01*
X15661000Y-6096000D02*
G75*
G03*
X15661000Y-6096000I-40000J0D01*
G01*
X15661000Y-6858000D02*
G75*
G03*
X15661000Y-6858000I-40000J0D01*
G01*
X15915000Y-6096000D02*
G75*
G03*
X15915000Y-6096000I-40000J0D01*
G01*
X15915000Y-6858000D02*
G75*
G03*
X15915000Y-6858000I-40000J0D01*
G01*
X16169000Y-6096000D02*
G75*
G03*
X16169000Y-6096000I-40000J0D01*
G01*
X16169000Y-6858000D02*
G75*
G03*
X16169000Y-6858000I-40000J0D01*
G01*
X17018000Y-8419000D02*
X17018000Y-8509000D01*
X16973000Y-8464000D02*
X17063000Y-8464000D01*
X17018000Y-8673000D02*
X17018000Y-8763000D01*
X16973000Y-8718000D02*
X17063000Y-8718000D01*
X17018000Y-7829000D02*
X17018000Y-7919000D01*
X16973000Y-7874000D02*
X17063000Y-7874000D01*
X17018000Y-8083000D02*
X17018000Y-8173000D01*
X16973000Y-8128000D02*
X17063000Y-8128000D01*
X20225527Y-8541527D02*
X20225527Y-8476473D01*
X20160473Y-8476473D01*
X20160473Y-8541527D01*
X20225527Y-8541527D01*
X20225527Y-8791527D02*
X20225527Y-8726473D01*
X20160473Y-8726473D01*
X20160473Y-8791527D01*
X20225527Y-8791527D01*
X20425527Y-8541527D02*
X20425527Y-8476473D01*
X20360473Y-8476473D01*
X20360473Y-8541527D01*
X20425527Y-8541527D01*
X20425527Y-8791527D02*
X20425527Y-8726473D01*
X20360473Y-8726473D01*
X20360473Y-8791527D01*
X20425527Y-8791527D01*
X15367000Y-5257000D02*
X15417000Y-5207000D01*
X15367000Y-5157000D01*
X15317000Y-5207000D01*
X15367000Y-5257000D01*
X15367000Y-5511000D02*
X15417000Y-5461000D01*
X15367000Y-5411000D01*
X15317000Y-5461000D01*
X15367000Y-5511000D01*
X15367000Y-5765000D02*
X15417000Y-5715000D01*
X15367000Y-5665000D01*
X15317000Y-5715000D01*
X15367000Y-5765000D01*
X13716000Y-6146000D02*
X13766000Y-6096000D01*
X13716000Y-6046000D01*
X13666000Y-6096000D01*
X13716000Y-6146000D01*
X13716000Y-6400000D02*
X13766000Y-6350000D01*
X13716000Y-6300000D01*
X13666000Y-6350000D01*
X13716000Y-6400000D01*
X13716000Y-6654000D02*
X13766000Y-6604000D01*
X13716000Y-6554000D01*
X13666000Y-6604000D01*
X13716000Y-6654000D01*
X13716000Y-6908000D02*
X13766000Y-6858000D01*
X13716000Y-6808000D01*
X13666000Y-6858000D01*
X13716000Y-6908000D01*
X13716000Y-7162000D02*
X13766000Y-7112000D01*
X13716000Y-7062000D01*
X13666000Y-7112000D01*
X13716000Y-7162000D01*
X13716000Y-7416000D02*
X13766000Y-7366000D01*
X13716000Y-7316000D01*
X13666000Y-7366000D01*
X13716000Y-7416000D01*
X20193000Y-9829000D02*
X20243000Y-9779000D01*
X20193000Y-9729000D01*
X20143000Y-9779000D01*
X20193000Y-9829000D01*
X20447000Y-9829000D02*
X20497000Y-9779000D01*
X20447000Y-9729000D01*
X20397000Y-9779000D01*
X20447000Y-9829000D01*
X20701000Y-9829000D02*
X20751000Y-9779000D01*
X20701000Y-9729000D01*
X20651000Y-9779000D01*
X20701000Y-9829000D01*
X20193000Y-5419000D02*
X20243000Y-5369000D01*
X20193000Y-5319000D01*
X20143000Y-5369000D01*
X20193000Y-5419000D01*
X20193000Y-5696000D02*
X20243000Y-5646000D01*
X20193000Y-5596000D01*
X20143000Y-5646000D01*
X20193000Y-5696000D01*
X20193000Y-5973000D02*
X20243000Y-5923000D01*
X20193000Y-5873000D01*
X20143000Y-5923000D01*
X20193000Y-5973000D01*
X20193000Y-6250000D02*
X20243000Y-6200000D01*
X20193000Y-6150000D01*
X20143000Y-6200000D01*
X20193000Y-6250000D01*
X20193000Y-6527000D02*
X20243000Y-6477000D01*
X20193000Y-6427000D01*
X20143000Y-6477000D01*
X20193000Y-6527000D01*
X20477000Y-5557500D02*
X20527000Y-5507500D01*
X20477000Y-5457500D01*
X20427000Y-5507500D01*
X20477000Y-5557500D01*
X20477000Y-5834500D02*
X20527000Y-5784500D01*
X20477000Y-5734500D01*
X20427000Y-5784500D01*
X20477000Y-5834500D01*
X20477000Y-6111500D02*
X20527000Y-6061500D01*
X20477000Y-6011500D01*
X20427000Y-6061500D01*
X20477000Y-6111500D01*
X20477000Y-6388500D02*
X20527000Y-6338500D01*
X20477000Y-6288500D01*
X20427000Y-6338500D01*
X20477000Y-6388500D01*
X20547500Y-7915500D02*
X20780500Y-8148500D01*
X20780500Y-7915500D02*
X20547500Y-8148500D01*
X20780500Y-8032000D02*
G75*
G03*
X20780500Y-8032000I-116500J0D01*
G01*
X20547500Y-9119500D02*
X20780500Y-9352500D01*
X20780500Y-9119500D02*
X20547500Y-9352500D01*
X20780500Y-9236000D02*
G75*
G03*
X20780500Y-9236000I-116500J0D01*
G01*
X13429000Y-4666000D02*
X13749000Y-4986000D01*
X13749000Y-4666000D02*
X13429000Y-4986000D01*
X13589000Y-4666000D02*
X13589000Y-4986000D01*
X13429000Y-4826000D02*
X13749000Y-4826000D01*
X20063000Y-4513000D02*
X20383000Y-4833000D01*
X20383000Y-4513000D02*
X20063000Y-4833000D01*
X20223000Y-4513000D02*
X20223000Y-4833000D01*
X20063000Y-4673000D02*
X20383000Y-4673000D01*
X20063000Y-7013000D02*
X20383000Y-7333000D01*
X20383000Y-7013000D02*
X20063000Y-7333000D01*
X20223000Y-7013000D02*
X20223000Y-7333000D01*
X20063000Y-7173000D02*
X20383000Y-7173000D01*
X13429000Y-9365000D02*
X13749000Y-9685000D01*
X13749000Y-9365000D02*
X13429000Y-9685000D01*
X13589000Y-9365000D02*
X13589000Y-9685000D01*
X13429000Y-9525000D02*
X13749000Y-9525000D01*
D12*
X13364928Y-10501214D02*
X13364928Y-10201214D01*
X13436357Y-10201214D01*
X13479214Y-10215500D01*
X13507786Y-10244072D01*
X13522071Y-10272643D01*
X13536357Y-10329786D01*
X13536357Y-10372643D01*
X13522071Y-10429786D01*
X13507786Y-10458357D01*
X13479214Y-10486929D01*
X13436357Y-10501214D01*
X13364928Y-10501214D01*
X13664928Y-10501214D02*
X13664928Y-10301214D01*
X13664928Y-10358357D02*
X13679214Y-10329786D01*
X13693500Y-10315500D01*
X13722071Y-10301214D01*
X13750643Y-10301214D01*
X13850643Y-10501214D02*
X13850643Y-10301214D01*
X13850643Y-10201214D02*
X13836357Y-10215500D01*
X13850643Y-10229786D01*
X13864928Y-10215500D01*
X13850643Y-10201214D01*
X13850643Y-10229786D01*
X14036357Y-10501214D02*
X14007786Y-10486929D01*
X13993500Y-10458357D01*
X13993500Y-10201214D01*
X14193500Y-10501214D02*
X14164928Y-10486929D01*
X14150643Y-10458357D01*
X14150643Y-10201214D01*
X14536357Y-10501214D02*
X14536357Y-10201214D01*
X14636357Y-10415500D01*
X14736357Y-10201214D01*
X14736357Y-10501214D01*
X15007786Y-10501214D02*
X15007786Y-10344072D01*
X14993500Y-10315500D01*
X14964928Y-10301214D01*
X14907786Y-10301214D01*
X14879214Y-10315500D01*
X15007786Y-10486929D02*
X14979214Y-10501214D01*
X14907786Y-10501214D01*
X14879214Y-10486929D01*
X14864928Y-10458357D01*
X14864928Y-10429786D01*
X14879214Y-10401214D01*
X14907786Y-10386929D01*
X14979214Y-10386929D01*
X15007786Y-10372643D01*
X15150643Y-10301214D02*
X15150643Y-10601214D01*
X15150643Y-10315500D02*
X15179214Y-10301214D01*
X15236357Y-10301214D01*
X15264928Y-10315500D01*
X15279214Y-10329786D01*
X15293500Y-10358357D01*
X15293500Y-10444072D01*
X15279214Y-10472643D01*
X15264928Y-10486929D01*
X15236357Y-10501214D01*
X15179214Y-10501214D01*
X15150643Y-10486929D01*
X15422071Y-10472643D02*
X15436357Y-10486929D01*
X15422071Y-10501214D01*
X15407786Y-10486929D01*
X15422071Y-10472643D01*
X15422071Y-10501214D01*
X15422071Y-10315500D02*
X15436357Y-10329786D01*
X15422071Y-10344072D01*
X15407786Y-10329786D01*
X15422071Y-10315500D01*
X15422071Y-10344072D01*
X13038500Y-10975500D02*
X13078500Y-11015500D01*
X13078500Y-10975500D02*
X13038500Y-11015500D01*
X13422071Y-10831214D02*
X13450643Y-10831214D01*
X13479214Y-10845500D01*
X13493500Y-10859786D01*
X13507786Y-10888357D01*
X13522071Y-10945500D01*
X13522071Y-11016929D01*
X13507786Y-11074072D01*
X13493500Y-11102643D01*
X13479214Y-11116929D01*
X13450643Y-11131214D01*
X13422071Y-11131214D01*
X13393500Y-11116929D01*
X13379214Y-11102643D01*
X13364928Y-11074072D01*
X13350643Y-11016929D01*
X13350643Y-10945500D01*
X13364928Y-10888357D01*
X13379214Y-10859786D01*
X13393500Y-10845500D01*
X13422071Y-10831214D01*
X13650643Y-11102643D02*
X13664928Y-11116929D01*
X13650643Y-11131214D01*
X13636357Y-11116929D01*
X13650643Y-11102643D01*
X13650643Y-11131214D01*
X13922071Y-10931214D02*
X13922071Y-11131214D01*
X13850643Y-10816929D02*
X13779214Y-11031214D01*
X13964928Y-11031214D01*
X14136357Y-10831214D02*
X14164928Y-10831214D01*
X14193500Y-10845500D01*
X14207786Y-10859786D01*
X14222071Y-10888357D01*
X14236357Y-10945500D01*
X14236357Y-11016929D01*
X14222071Y-11074072D01*
X14207786Y-11102643D01*
X14193500Y-11116929D01*
X14164928Y-11131214D01*
X14136357Y-11131214D01*
X14107786Y-11116929D01*
X14093500Y-11102643D01*
X14079214Y-11074072D01*
X14064928Y-11016929D01*
X14064928Y-10945500D01*
X14079214Y-10888357D01*
X14093500Y-10859786D01*
X14107786Y-10845500D01*
X14136357Y-10831214D01*
X14364928Y-11131214D02*
X14364928Y-10931214D01*
X14364928Y-10959786D02*
X14379214Y-10945500D01*
X14407786Y-10931214D01*
X14450643Y-10931214D01*
X14479214Y-10945500D01*
X14493500Y-10974072D01*
X14493500Y-11131214D01*
X14493500Y-10974072D02*
X14507786Y-10945500D01*
X14536357Y-10931214D01*
X14579214Y-10931214D01*
X14607786Y-10945500D01*
X14622071Y-10974072D01*
X14622071Y-11131214D01*
X14764928Y-11131214D02*
X14764928Y-10931214D01*
X14764928Y-10959786D02*
X14779214Y-10945500D01*
X14807786Y-10931214D01*
X14850643Y-10931214D01*
X14879214Y-10945500D01*
X14893500Y-10974072D01*
X14893500Y-11131214D01*
X14893500Y-10974072D02*
X14907786Y-10945500D01*
X14936357Y-10931214D01*
X14979214Y-10931214D01*
X15007786Y-10945500D01*
X15022071Y-10974072D01*
X15022071Y-11131214D01*
X15607786Y-10816929D02*
X15350643Y-11202643D01*
X15993500Y-10831214D02*
X16022071Y-10831214D01*
X16050643Y-10845500D01*
X16064928Y-10859786D01*
X16079214Y-10888357D01*
X16093500Y-10945500D01*
X16093500Y-11016929D01*
X16079214Y-11074072D01*
X16064928Y-11102643D01*
X16050643Y-11116929D01*
X16022071Y-11131214D01*
X15993500Y-11131214D01*
X15964928Y-11116929D01*
X15950643Y-11102643D01*
X15936357Y-11074072D01*
X15922071Y-11016929D01*
X15922071Y-10945500D01*
X15936357Y-10888357D01*
X15950643Y-10859786D01*
X15964928Y-10845500D01*
X15993500Y-10831214D01*
X16222071Y-11102643D02*
X16236357Y-11116929D01*
X16222071Y-11131214D01*
X16207786Y-11116929D01*
X16222071Y-11102643D01*
X16222071Y-11131214D01*
X16422071Y-10831214D02*
X16450643Y-10831214D01*
X16479214Y-10845500D01*
X16493500Y-10859786D01*
X16507786Y-10888357D01*
X16522071Y-10945500D01*
X16522071Y-11016929D01*
X16507786Y-11074072D01*
X16493500Y-11102643D01*
X16479214Y-11116929D01*
X16450643Y-11131214D01*
X16422071Y-11131214D01*
X16393500Y-11116929D01*
X16379214Y-11102643D01*
X16364928Y-11074072D01*
X16350643Y-11016929D01*
X16350643Y-10945500D01*
X16364928Y-10888357D01*
X16379214Y-10859786D01*
X16393500Y-10845500D01*
X16422071Y-10831214D01*
X16807786Y-11131214D02*
X16636357Y-11131214D01*
X16722071Y-11131214D02*
X16722071Y-10831214D01*
X16693500Y-10874072D01*
X16664928Y-10902643D01*
X16636357Y-10916929D01*
X17064928Y-10831214D02*
X17007786Y-10831214D01*
X16979214Y-10845500D01*
X16964928Y-10859786D01*
X16936357Y-10902643D01*
X16922071Y-10959786D01*
X16922071Y-11074072D01*
X16936357Y-11102643D01*
X16950643Y-11116929D01*
X16979214Y-11131214D01*
X17036357Y-11131214D01*
X17064928Y-11116929D01*
X17079214Y-11102643D01*
X17093500Y-11074072D01*
X17093500Y-11002643D01*
X17079214Y-10974072D01*
X17064928Y-10959786D01*
X17036357Y-10945500D01*
X16979214Y-10945500D01*
X16950643Y-10959786D01*
X16936357Y-10974072D01*
X16922071Y-11002643D01*
X17207786Y-10831214D02*
X17207786Y-10888357D01*
X17322071Y-10831214D02*
X17322071Y-10888357D01*
X17764928Y-11245500D02*
X17750643Y-11231214D01*
X17722071Y-11188357D01*
X17707786Y-11159786D01*
X17693500Y-11116929D01*
X17679214Y-11045500D01*
X17679214Y-10988357D01*
X17693500Y-10916929D01*
X17707786Y-10874072D01*
X17722071Y-10845500D01*
X17750643Y-10802643D01*
X17764928Y-10788357D01*
X18036357Y-11131214D02*
X17864928Y-11131214D01*
X17950643Y-11131214D02*
X17950643Y-10831214D01*
X17922071Y-10874072D01*
X17893500Y-10902643D01*
X17864928Y-10916929D01*
X18393500Y-11131214D02*
X18393500Y-10831214D01*
X18522071Y-11131214D02*
X18522071Y-10974072D01*
X18507786Y-10945500D01*
X18479214Y-10931214D01*
X18436357Y-10931214D01*
X18407786Y-10945500D01*
X18393500Y-10959786D01*
X18707786Y-11131214D02*
X18679214Y-11116929D01*
X18664928Y-11102643D01*
X18650643Y-11074072D01*
X18650643Y-10988357D01*
X18664928Y-10959786D01*
X18679214Y-10945500D01*
X18707786Y-10931214D01*
X18750643Y-10931214D01*
X18779214Y-10945500D01*
X18793500Y-10959786D01*
X18807786Y-10988357D01*
X18807786Y-11074072D01*
X18793500Y-11102643D01*
X18779214Y-11116929D01*
X18750643Y-11131214D01*
X18707786Y-11131214D01*
X18979214Y-11131214D02*
X18950643Y-11116929D01*
X18936357Y-11088357D01*
X18936357Y-10831214D01*
X19207786Y-11116929D02*
X19179214Y-11131214D01*
X19122071Y-11131214D01*
X19093500Y-11116929D01*
X19079214Y-11088357D01*
X19079214Y-10974072D01*
X19093500Y-10945500D01*
X19122071Y-10931214D01*
X19179214Y-10931214D01*
X19207786Y-10945500D01*
X19222071Y-10974072D01*
X19222071Y-11002643D01*
X19079214Y-11031214D01*
X19322071Y-11245500D02*
X19336357Y-11231214D01*
X19364928Y-11188357D01*
X19379214Y-11159786D01*
X19393500Y-11116929D01*
X19407786Y-11045500D01*
X19407786Y-10988357D01*
X19393500Y-10916929D01*
X19379214Y-10874072D01*
X19364928Y-10845500D01*
X19336357Y-10802643D01*
X19322071Y-10788357D01*
X13078500Y-11391500D02*
G75*
G03*
X13078500Y-11391500I-40000J0D01*
G01*
X13422071Y-11227214D02*
X13450643Y-11227214D01*
X13479214Y-11241500D01*
X13493500Y-11255786D01*
X13507786Y-11284357D01*
X13522071Y-11341500D01*
X13522071Y-11412929D01*
X13507786Y-11470071D01*
X13493500Y-11498643D01*
X13479214Y-11512929D01*
X13450643Y-11527214D01*
X13422071Y-11527214D01*
X13393500Y-11512929D01*
X13379214Y-11498643D01*
X13364928Y-11470071D01*
X13350643Y-11412929D01*
X13350643Y-11341500D01*
X13364928Y-11284357D01*
X13379214Y-11255786D01*
X13393500Y-11241500D01*
X13422071Y-11227214D01*
X13650643Y-11498643D02*
X13664928Y-11512929D01*
X13650643Y-11527214D01*
X13636357Y-11512929D01*
X13650643Y-11498643D01*
X13650643Y-11527214D01*
X13836357Y-11355786D02*
X13807786Y-11341500D01*
X13793500Y-11327214D01*
X13779214Y-11298643D01*
X13779214Y-11284357D01*
X13793500Y-11255786D01*
X13807786Y-11241500D01*
X13836357Y-11227214D01*
X13893500Y-11227214D01*
X13922071Y-11241500D01*
X13936357Y-11255786D01*
X13950643Y-11284357D01*
X13950643Y-11298643D01*
X13936357Y-11327214D01*
X13922071Y-11341500D01*
X13893500Y-11355786D01*
X13836357Y-11355786D01*
X13807786Y-11370071D01*
X13793500Y-11384357D01*
X13779214Y-11412929D01*
X13779214Y-11470071D01*
X13793500Y-11498643D01*
X13807786Y-11512929D01*
X13836357Y-11527214D01*
X13893500Y-11527214D01*
X13922071Y-11512929D01*
X13936357Y-11498643D01*
X13950643Y-11470071D01*
X13950643Y-11412929D01*
X13936357Y-11384357D01*
X13922071Y-11370071D01*
X13893500Y-11355786D01*
X14136357Y-11227214D02*
X14164928Y-11227214D01*
X14193500Y-11241500D01*
X14207786Y-11255786D01*
X14222071Y-11284357D01*
X14236357Y-11341500D01*
X14236357Y-11412929D01*
X14222071Y-11470071D01*
X14207786Y-11498643D01*
X14193500Y-11512929D01*
X14164928Y-11527214D01*
X14136357Y-11527214D01*
X14107786Y-11512929D01*
X14093500Y-11498643D01*
X14079214Y-11470071D01*
X14064928Y-11412929D01*
X14064928Y-11341500D01*
X14079214Y-11284357D01*
X14093500Y-11255786D01*
X14107786Y-11241500D01*
X14136357Y-11227214D01*
X14364928Y-11527214D02*
X14364928Y-11327214D01*
X14364928Y-11355786D02*
X14379214Y-11341500D01*
X14407786Y-11327214D01*
X14450643Y-11327214D01*
X14479214Y-11341500D01*
X14493500Y-11370071D01*
X14493500Y-11527214D01*
X14493500Y-11370071D02*
X14507786Y-11341500D01*
X14536357Y-11327214D01*
X14579214Y-11327214D01*
X14607786Y-11341500D01*
X14622071Y-11370071D01*
X14622071Y-11527214D01*
X14764928Y-11527214D02*
X14764928Y-11327214D01*
X14764928Y-11355786D02*
X14779214Y-11341500D01*
X14807786Y-11327214D01*
X14850643Y-11327214D01*
X14879214Y-11341500D01*
X14893500Y-11370071D01*
X14893500Y-11527214D01*
X14893500Y-11370071D02*
X14907786Y-11341500D01*
X14936357Y-11327214D01*
X14979214Y-11327214D01*
X15007786Y-11341500D01*
X15022071Y-11370071D01*
X15022071Y-11527214D01*
X15607786Y-11212929D02*
X15350643Y-11598643D01*
X15993500Y-11227214D02*
X16022071Y-11227214D01*
X16050643Y-11241500D01*
X16064928Y-11255786D01*
X16079214Y-11284357D01*
X16093500Y-11341500D01*
X16093500Y-11412929D01*
X16079214Y-11470071D01*
X16064928Y-11498643D01*
X16050643Y-11512929D01*
X16022071Y-11527214D01*
X15993500Y-11527214D01*
X15964928Y-11512929D01*
X15950643Y-11498643D01*
X15936357Y-11470071D01*
X15922071Y-11412929D01*
X15922071Y-11341500D01*
X15936357Y-11284357D01*
X15950643Y-11255786D01*
X15964928Y-11241500D01*
X15993500Y-11227214D01*
X16222071Y-11498643D02*
X16236357Y-11512929D01*
X16222071Y-11527214D01*
X16207786Y-11512929D01*
X16222071Y-11498643D01*
X16222071Y-11527214D01*
X16422071Y-11227214D02*
X16450643Y-11227214D01*
X16479214Y-11241500D01*
X16493500Y-11255786D01*
X16507786Y-11284357D01*
X16522071Y-11341500D01*
X16522071Y-11412929D01*
X16507786Y-11470071D01*
X16493500Y-11498643D01*
X16479214Y-11512929D01*
X16450643Y-11527214D01*
X16422071Y-11527214D01*
X16393500Y-11512929D01*
X16379214Y-11498643D01*
X16364928Y-11470071D01*
X16350643Y-11412929D01*
X16350643Y-11341500D01*
X16364928Y-11284357D01*
X16379214Y-11255786D01*
X16393500Y-11241500D01*
X16422071Y-11227214D01*
X16622071Y-11227214D02*
X16807786Y-11227214D01*
X16707786Y-11341500D01*
X16750643Y-11341500D01*
X16779214Y-11355786D01*
X16793500Y-11370071D01*
X16807786Y-11398643D01*
X16807786Y-11470071D01*
X16793500Y-11498643D01*
X16779214Y-11512929D01*
X16750643Y-11527214D01*
X16664928Y-11527214D01*
X16636357Y-11512929D01*
X16622071Y-11498643D01*
X17093500Y-11527214D02*
X16922071Y-11527214D01*
X17007786Y-11527214D02*
X17007786Y-11227214D01*
X16979214Y-11270071D01*
X16950643Y-11298643D01*
X16922071Y-11312929D01*
X17207786Y-11227214D02*
X17207786Y-11284357D01*
X17322071Y-11227214D02*
X17322071Y-11284357D01*
X17764928Y-11641500D02*
X17750643Y-11627214D01*
X17722071Y-11584357D01*
X17707786Y-11555786D01*
X17693500Y-11512929D01*
X17679214Y-11441500D01*
X17679214Y-11384357D01*
X17693500Y-11312929D01*
X17707786Y-11270071D01*
X17722071Y-11241500D01*
X17750643Y-11198643D01*
X17764928Y-11184357D01*
X17850643Y-11227214D02*
X18050643Y-11227214D01*
X17922071Y-11527214D01*
X18293500Y-11327214D02*
X18293500Y-11527214D01*
X18222071Y-11212929D02*
X18150643Y-11427214D01*
X18336357Y-11427214D01*
X18679214Y-11527214D02*
X18679214Y-11227214D01*
X18807786Y-11527214D02*
X18807786Y-11370071D01*
X18793500Y-11341500D01*
X18764928Y-11327214D01*
X18722071Y-11327214D01*
X18693500Y-11341500D01*
X18679214Y-11355786D01*
X18993500Y-11527214D02*
X18964928Y-11512929D01*
X18950643Y-11498643D01*
X18936357Y-11470071D01*
X18936357Y-11384357D01*
X18950643Y-11355786D01*
X18964928Y-11341500D01*
X18993500Y-11327214D01*
X19036357Y-11327214D01*
X19064928Y-11341500D01*
X19079214Y-11355786D01*
X19093500Y-11384357D01*
X19093500Y-11470071D01*
X19079214Y-11498643D01*
X19064928Y-11512929D01*
X19036357Y-11527214D01*
X18993500Y-11527214D01*
X19264928Y-11527214D02*
X19236357Y-11512929D01*
X19222071Y-11484357D01*
X19222071Y-11227214D01*
X19493500Y-11512929D02*
X19464928Y-11527214D01*
X19407786Y-11527214D01*
X19379214Y-11512929D01*
X19364928Y-11484357D01*
X19364928Y-11370071D01*
X19379214Y-11341500D01*
X19407786Y-11327214D01*
X19464928Y-11327214D01*
X19493500Y-11341500D01*
X19507786Y-11370071D01*
X19507786Y-11398643D01*
X19364928Y-11427214D01*
X19622071Y-11512929D02*
X19650643Y-11527214D01*
X19707786Y-11527214D01*
X19736357Y-11512929D01*
X19750643Y-11484357D01*
X19750643Y-11470071D01*
X19736357Y-11441500D01*
X19707786Y-11427214D01*
X19664928Y-11427214D01*
X19636357Y-11412929D01*
X19622071Y-11384357D01*
X19622071Y-11370071D01*
X19636357Y-11341500D01*
X19664928Y-11327214D01*
X19707786Y-11327214D01*
X19736357Y-11341500D01*
X19850643Y-11641500D02*
X19864928Y-11627214D01*
X19893500Y-11584357D01*
X19907786Y-11555786D01*
X19922071Y-11512929D01*
X19936357Y-11441500D01*
X19936357Y-11384357D01*
X19922071Y-11312929D01*
X19907786Y-11270071D01*
X19893500Y-11241500D01*
X19864928Y-11198643D01*
X19850643Y-11184357D01*
X13033500Y-11742500D02*
X13033500Y-11832500D01*
X12988500Y-11787500D02*
X13078500Y-11787500D01*
X13422071Y-11623214D02*
X13450643Y-11623214D01*
X13479214Y-11637500D01*
X13493500Y-11651786D01*
X13507786Y-11680357D01*
X13522071Y-11737500D01*
X13522071Y-11808929D01*
X13507786Y-11866071D01*
X13493500Y-11894643D01*
X13479214Y-11908929D01*
X13450643Y-11923214D01*
X13422071Y-11923214D01*
X13393500Y-11908929D01*
X13379214Y-11894643D01*
X13364928Y-11866071D01*
X13350643Y-11808929D01*
X13350643Y-11737500D01*
X13364928Y-11680357D01*
X13379214Y-11651786D01*
X13393500Y-11637500D01*
X13422071Y-11623214D01*
X13650643Y-11894643D02*
X13664928Y-11908929D01*
X13650643Y-11923214D01*
X13636357Y-11908929D01*
X13650643Y-11894643D01*
X13650643Y-11923214D01*
X13807786Y-11923214D02*
X13864928Y-11923214D01*
X13893500Y-11908929D01*
X13907786Y-11894643D01*
X13936357Y-11851786D01*
X13950643Y-11794643D01*
X13950643Y-11680357D01*
X13936357Y-11651786D01*
X13922071Y-11637500D01*
X13893500Y-11623214D01*
X13836357Y-11623214D01*
X13807786Y-11637500D01*
X13793500Y-11651786D01*
X13779214Y-11680357D01*
X13779214Y-11751786D01*
X13793500Y-11780357D01*
X13807786Y-11794643D01*
X13836357Y-11808929D01*
X13893500Y-11808929D01*
X13922071Y-11794643D01*
X13936357Y-11780357D01*
X13950643Y-11751786D01*
X14136357Y-11623214D02*
X14164928Y-11623214D01*
X14193500Y-11637500D01*
X14207786Y-11651786D01*
X14222071Y-11680357D01*
X14236357Y-11737500D01*
X14236357Y-11808929D01*
X14222071Y-11866071D01*
X14207786Y-11894643D01*
X14193500Y-11908929D01*
X14164928Y-11923214D01*
X14136357Y-11923214D01*
X14107786Y-11908929D01*
X14093500Y-11894643D01*
X14079214Y-11866071D01*
X14064928Y-11808929D01*
X14064928Y-11737500D01*
X14079214Y-11680357D01*
X14093500Y-11651786D01*
X14107786Y-11637500D01*
X14136357Y-11623214D01*
X14364928Y-11923214D02*
X14364928Y-11723214D01*
X14364928Y-11751786D02*
X14379214Y-11737500D01*
X14407786Y-11723214D01*
X14450643Y-11723214D01*
X14479214Y-11737500D01*
X14493500Y-11766071D01*
X14493500Y-11923214D01*
X14493500Y-11766071D02*
X14507786Y-11737500D01*
X14536357Y-11723214D01*
X14579214Y-11723214D01*
X14607786Y-11737500D01*
X14622071Y-11766071D01*
X14622071Y-11923214D01*
X14764928Y-11923214D02*
X14764928Y-11723214D01*
X14764928Y-11751786D02*
X14779214Y-11737500D01*
X14807786Y-11723214D01*
X14850643Y-11723214D01*
X14879214Y-11737500D01*
X14893500Y-11766071D01*
X14893500Y-11923214D01*
X14893500Y-11766071D02*
X14907786Y-11737500D01*
X14936357Y-11723214D01*
X14979214Y-11723214D01*
X15007786Y-11737500D01*
X15022071Y-11766071D01*
X15022071Y-11923214D01*
X15607786Y-11608929D02*
X15350643Y-11994643D01*
X15993500Y-11623214D02*
X16022071Y-11623214D01*
X16050643Y-11637500D01*
X16064928Y-11651786D01*
X16079214Y-11680357D01*
X16093500Y-11737500D01*
X16093500Y-11808929D01*
X16079214Y-11866071D01*
X16064928Y-11894643D01*
X16050643Y-11908929D01*
X16022071Y-11923214D01*
X15993500Y-11923214D01*
X15964928Y-11908929D01*
X15950643Y-11894643D01*
X15936357Y-11866071D01*
X15922071Y-11808929D01*
X15922071Y-11737500D01*
X15936357Y-11680357D01*
X15950643Y-11651786D01*
X15964928Y-11637500D01*
X15993500Y-11623214D01*
X16222071Y-11894643D02*
X16236357Y-11908929D01*
X16222071Y-11923214D01*
X16207786Y-11908929D01*
X16222071Y-11894643D01*
X16222071Y-11923214D01*
X16422071Y-11623214D02*
X16450643Y-11623214D01*
X16479214Y-11637500D01*
X16493500Y-11651786D01*
X16507786Y-11680357D01*
X16522071Y-11737500D01*
X16522071Y-11808929D01*
X16507786Y-11866071D01*
X16493500Y-11894643D01*
X16479214Y-11908929D01*
X16450643Y-11923214D01*
X16422071Y-11923214D01*
X16393500Y-11908929D01*
X16379214Y-11894643D01*
X16364928Y-11866071D01*
X16350643Y-11808929D01*
X16350643Y-11737500D01*
X16364928Y-11680357D01*
X16379214Y-11651786D01*
X16393500Y-11637500D01*
X16422071Y-11623214D01*
X16622071Y-11623214D02*
X16807786Y-11623214D01*
X16707786Y-11737500D01*
X16750643Y-11737500D01*
X16779214Y-11751786D01*
X16793500Y-11766071D01*
X16807786Y-11794643D01*
X16807786Y-11866071D01*
X16793500Y-11894643D01*
X16779214Y-11908929D01*
X16750643Y-11923214D01*
X16664928Y-11923214D01*
X16636357Y-11908929D01*
X16622071Y-11894643D01*
X17079214Y-11623214D02*
X16936357Y-11623214D01*
X16922071Y-11766071D01*
X16936357Y-11751786D01*
X16964928Y-11737500D01*
X17036357Y-11737500D01*
X17064928Y-11751786D01*
X17079214Y-11766071D01*
X17093500Y-11794643D01*
X17093500Y-11866071D01*
X17079214Y-11894643D01*
X17064928Y-11908929D01*
X17036357Y-11923214D01*
X16964928Y-11923214D01*
X16936357Y-11908929D01*
X16922071Y-11894643D01*
X17207786Y-11623214D02*
X17207786Y-11680357D01*
X17322071Y-11623214D02*
X17322071Y-11680357D01*
X17764928Y-12037500D02*
X17750643Y-12023214D01*
X17722071Y-11980357D01*
X17707786Y-11951786D01*
X17693500Y-11908929D01*
X17679214Y-11837500D01*
X17679214Y-11780357D01*
X17693500Y-11708929D01*
X17707786Y-11666071D01*
X17722071Y-11637500D01*
X17750643Y-11594643D01*
X17764928Y-11580357D01*
X18007786Y-11723214D02*
X18007786Y-11923214D01*
X17936357Y-11608929D02*
X17864928Y-11823214D01*
X18050643Y-11823214D01*
X18393500Y-11923214D02*
X18393500Y-11623214D01*
X18522071Y-11923214D02*
X18522071Y-11766071D01*
X18507786Y-11737500D01*
X18479214Y-11723214D01*
X18436357Y-11723214D01*
X18407786Y-11737500D01*
X18393500Y-11751786D01*
X18707786Y-11923214D02*
X18679214Y-11908929D01*
X18664928Y-11894643D01*
X18650643Y-11866071D01*
X18650643Y-11780357D01*
X18664928Y-11751786D01*
X18679214Y-11737500D01*
X18707786Y-11723214D01*
X18750643Y-11723214D01*
X18779214Y-11737500D01*
X18793500Y-11751786D01*
X18807786Y-11780357D01*
X18807786Y-11866071D01*
X18793500Y-11894643D01*
X18779214Y-11908929D01*
X18750643Y-11923214D01*
X18707786Y-11923214D01*
X18979214Y-11923214D02*
X18950643Y-11908929D01*
X18936357Y-11880357D01*
X18936357Y-11623214D01*
X19207786Y-11908929D02*
X19179214Y-11923214D01*
X19122071Y-11923214D01*
X19093500Y-11908929D01*
X19079214Y-11880357D01*
X19079214Y-11766071D01*
X19093500Y-11737500D01*
X19122071Y-11723214D01*
X19179214Y-11723214D01*
X19207786Y-11737500D01*
X19222071Y-11766071D01*
X19222071Y-11794643D01*
X19079214Y-11823214D01*
X19336357Y-11908929D02*
X19364928Y-11923214D01*
X19422071Y-11923214D01*
X19450643Y-11908929D01*
X19464928Y-11880357D01*
X19464928Y-11866071D01*
X19450643Y-11837500D01*
X19422071Y-11823214D01*
X19379214Y-11823214D01*
X19350643Y-11808929D01*
X19336357Y-11780357D01*
X19336357Y-11766071D01*
X19350643Y-11737500D01*
X19379214Y-11723214D01*
X19422071Y-11723214D01*
X19450643Y-11737500D01*
X19564928Y-12037500D02*
X19579214Y-12023214D01*
X19607786Y-11980357D01*
X19622071Y-11951786D01*
X19636357Y-11908929D01*
X19650643Y-11837500D01*
X19650643Y-11780357D01*
X19636357Y-11708929D01*
X19622071Y-11666071D01*
X19607786Y-11637500D01*
X19579214Y-11594643D01*
X19564928Y-11580357D01*
X13065027Y-12216027D02*
X13065027Y-12150973D01*
X12999973Y-12150973D01*
X12999973Y-12216027D01*
X13065027Y-12216027D01*
X13422071Y-12019214D02*
X13450643Y-12019214D01*
X13479214Y-12033500D01*
X13493500Y-12047786D01*
X13507786Y-12076357D01*
X13522071Y-12133500D01*
X13522071Y-12204929D01*
X13507786Y-12262071D01*
X13493500Y-12290643D01*
X13479214Y-12304929D01*
X13450643Y-12319214D01*
X13422071Y-12319214D01*
X13393500Y-12304929D01*
X13379214Y-12290643D01*
X13364928Y-12262071D01*
X13350643Y-12204929D01*
X13350643Y-12133500D01*
X13364928Y-12076357D01*
X13379214Y-12047786D01*
X13393500Y-12033500D01*
X13422071Y-12019214D01*
X13650643Y-12290643D02*
X13664928Y-12304929D01*
X13650643Y-12319214D01*
X13636357Y-12304929D01*
X13650643Y-12290643D01*
X13650643Y-12319214D01*
X13807786Y-12319214D02*
X13864928Y-12319214D01*
X13893500Y-12304929D01*
X13907786Y-12290643D01*
X13936357Y-12247786D01*
X13950643Y-12190643D01*
X13950643Y-12076357D01*
X13936357Y-12047786D01*
X13922071Y-12033500D01*
X13893500Y-12019214D01*
X13836357Y-12019214D01*
X13807786Y-12033500D01*
X13793500Y-12047786D01*
X13779214Y-12076357D01*
X13779214Y-12147786D01*
X13793500Y-12176357D01*
X13807786Y-12190643D01*
X13836357Y-12204929D01*
X13893500Y-12204929D01*
X13922071Y-12190643D01*
X13936357Y-12176357D01*
X13950643Y-12147786D01*
X14064928Y-12047786D02*
X14079214Y-12033500D01*
X14107786Y-12019214D01*
X14179214Y-12019214D01*
X14207786Y-12033500D01*
X14222071Y-12047786D01*
X14236357Y-12076357D01*
X14236357Y-12104929D01*
X14222071Y-12147786D01*
X14050643Y-12319214D01*
X14236357Y-12319214D01*
X14364928Y-12319214D02*
X14364928Y-12119214D01*
X14364928Y-12147786D02*
X14379214Y-12133500D01*
X14407786Y-12119214D01*
X14450643Y-12119214D01*
X14479214Y-12133500D01*
X14493500Y-12162071D01*
X14493500Y-12319214D01*
X14493500Y-12162071D02*
X14507786Y-12133500D01*
X14536357Y-12119214D01*
X14579214Y-12119214D01*
X14607786Y-12133500D01*
X14622071Y-12162071D01*
X14622071Y-12319214D01*
X14764928Y-12319214D02*
X14764928Y-12119214D01*
X14764928Y-12147786D02*
X14779214Y-12133500D01*
X14807786Y-12119214D01*
X14850643Y-12119214D01*
X14879214Y-12133500D01*
X14893500Y-12162071D01*
X14893500Y-12319214D01*
X14893500Y-12162071D02*
X14907786Y-12133500D01*
X14936357Y-12119214D01*
X14979214Y-12119214D01*
X15007786Y-12133500D01*
X15022071Y-12162071D01*
X15022071Y-12319214D01*
X15607786Y-12004929D02*
X15350643Y-12390643D01*
X15993500Y-12019214D02*
X16022071Y-12019214D01*
X16050643Y-12033500D01*
X16064928Y-12047786D01*
X16079214Y-12076357D01*
X16093500Y-12133500D01*
X16093500Y-12204929D01*
X16079214Y-12262071D01*
X16064928Y-12290643D01*
X16050643Y-12304929D01*
X16022071Y-12319214D01*
X15993500Y-12319214D01*
X15964928Y-12304929D01*
X15950643Y-12290643D01*
X15936357Y-12262071D01*
X15922071Y-12204929D01*
X15922071Y-12133500D01*
X15936357Y-12076357D01*
X15950643Y-12047786D01*
X15964928Y-12033500D01*
X15993500Y-12019214D01*
X16222071Y-12290643D02*
X16236357Y-12304929D01*
X16222071Y-12319214D01*
X16207786Y-12304929D01*
X16222071Y-12290643D01*
X16222071Y-12319214D01*
X16422071Y-12019214D02*
X16450643Y-12019214D01*
X16479214Y-12033500D01*
X16493500Y-12047786D01*
X16507786Y-12076357D01*
X16522071Y-12133500D01*
X16522071Y-12204929D01*
X16507786Y-12262071D01*
X16493500Y-12290643D01*
X16479214Y-12304929D01*
X16450643Y-12319214D01*
X16422071Y-12319214D01*
X16393500Y-12304929D01*
X16379214Y-12290643D01*
X16364928Y-12262071D01*
X16350643Y-12204929D01*
X16350643Y-12133500D01*
X16364928Y-12076357D01*
X16379214Y-12047786D01*
X16393500Y-12033500D01*
X16422071Y-12019214D01*
X16622071Y-12019214D02*
X16807786Y-12019214D01*
X16707786Y-12133500D01*
X16750643Y-12133500D01*
X16779214Y-12147786D01*
X16793500Y-12162071D01*
X16807786Y-12190643D01*
X16807786Y-12262071D01*
X16793500Y-12290643D01*
X16779214Y-12304929D01*
X16750643Y-12319214D01*
X16664928Y-12319214D01*
X16636357Y-12304929D01*
X16622071Y-12290643D01*
X17064928Y-12019214D02*
X17007786Y-12019214D01*
X16979214Y-12033500D01*
X16964928Y-12047786D01*
X16936357Y-12090643D01*
X16922071Y-12147786D01*
X16922071Y-12262071D01*
X16936357Y-12290643D01*
X16950643Y-12304929D01*
X16979214Y-12319214D01*
X17036357Y-12319214D01*
X17064928Y-12304929D01*
X17079214Y-12290643D01*
X17093500Y-12262071D01*
X17093500Y-12190643D01*
X17079214Y-12162071D01*
X17064928Y-12147786D01*
X17036357Y-12133500D01*
X16979214Y-12133500D01*
X16950643Y-12147786D01*
X16936357Y-12162071D01*
X16922071Y-12190643D01*
X17207786Y-12019214D02*
X17207786Y-12076357D01*
X17322071Y-12019214D02*
X17322071Y-12076357D01*
X17764928Y-12433500D02*
X17750643Y-12419214D01*
X17722071Y-12376357D01*
X17707786Y-12347786D01*
X17693500Y-12304929D01*
X17679214Y-12233500D01*
X17679214Y-12176357D01*
X17693500Y-12104929D01*
X17707786Y-12062071D01*
X17722071Y-12033500D01*
X17750643Y-11990643D01*
X17764928Y-11976357D01*
X18007786Y-12119214D02*
X18007786Y-12319214D01*
X17936357Y-12004929D02*
X17864928Y-12219214D01*
X18050643Y-12219214D01*
X18393500Y-12319214D02*
X18393500Y-12019214D01*
X18522071Y-12319214D02*
X18522071Y-12162071D01*
X18507786Y-12133500D01*
X18479214Y-12119214D01*
X18436357Y-12119214D01*
X18407786Y-12133500D01*
X18393500Y-12147786D01*
X18707786Y-12319214D02*
X18679214Y-12304929D01*
X18664928Y-12290643D01*
X18650643Y-12262071D01*
X18650643Y-12176357D01*
X18664928Y-12147786D01*
X18679214Y-12133500D01*
X18707786Y-12119214D01*
X18750643Y-12119214D01*
X18779214Y-12133500D01*
X18793500Y-12147786D01*
X18807786Y-12176357D01*
X18807786Y-12262071D01*
X18793500Y-12290643D01*
X18779214Y-12304929D01*
X18750643Y-12319214D01*
X18707786Y-12319214D01*
X18979214Y-12319214D02*
X18950643Y-12304929D01*
X18936357Y-12276357D01*
X18936357Y-12019214D01*
X19207786Y-12304929D02*
X19179214Y-12319214D01*
X19122071Y-12319214D01*
X19093500Y-12304929D01*
X19079214Y-12276357D01*
X19079214Y-12162071D01*
X19093500Y-12133500D01*
X19122071Y-12119214D01*
X19179214Y-12119214D01*
X19207786Y-12133500D01*
X19222071Y-12162071D01*
X19222071Y-12190643D01*
X19079214Y-12219214D01*
X19336357Y-12304929D02*
X19364928Y-12319214D01*
X19422071Y-12319214D01*
X19450643Y-12304929D01*
X19464928Y-12276357D01*
X19464928Y-12262071D01*
X19450643Y-12233500D01*
X19422071Y-12219214D01*
X19379214Y-12219214D01*
X19350643Y-12204929D01*
X19336357Y-12176357D01*
X19336357Y-12162071D01*
X19350643Y-12133500D01*
X19379214Y-12119214D01*
X19422071Y-12119214D01*
X19450643Y-12133500D01*
X19564928Y-12433500D02*
X19579214Y-12419214D01*
X19607786Y-12376357D01*
X19622071Y-12347786D01*
X19636357Y-12304929D01*
X19650643Y-12233500D01*
X19650643Y-12176357D01*
X19636357Y-12104929D01*
X19622071Y-12062071D01*
X19607786Y-12033500D01*
X19579214Y-11990643D01*
X19564928Y-11976357D01*
X13028500Y-12629500D02*
X13078500Y-12579500D01*
X13028500Y-12529500D01*
X12978500Y-12579500D01*
X13028500Y-12629500D01*
X13522071Y-12715214D02*
X13350643Y-12715214D01*
X13436357Y-12715214D02*
X13436357Y-12415214D01*
X13407786Y-12458071D01*
X13379214Y-12486643D01*
X13350643Y-12500929D01*
X13650643Y-12686643D02*
X13664928Y-12700929D01*
X13650643Y-12715214D01*
X13636357Y-12700929D01*
X13650643Y-12686643D01*
X13650643Y-12715214D01*
X13850643Y-12415214D02*
X13879214Y-12415214D01*
X13907786Y-12429500D01*
X13922071Y-12443786D01*
X13936357Y-12472357D01*
X13950643Y-12529500D01*
X13950643Y-12600929D01*
X13936357Y-12658071D01*
X13922071Y-12686643D01*
X13907786Y-12700929D01*
X13879214Y-12715214D01*
X13850643Y-12715214D01*
X13822071Y-12700929D01*
X13807786Y-12686643D01*
X13793500Y-12658071D01*
X13779214Y-12600929D01*
X13779214Y-12529500D01*
X13793500Y-12472357D01*
X13807786Y-12443786D01*
X13822071Y-12429500D01*
X13850643Y-12415214D01*
X14136357Y-12415214D02*
X14164928Y-12415214D01*
X14193500Y-12429500D01*
X14207786Y-12443786D01*
X14222071Y-12472357D01*
X14236357Y-12529500D01*
X14236357Y-12600929D01*
X14222071Y-12658071D01*
X14207786Y-12686643D01*
X14193500Y-12700929D01*
X14164928Y-12715214D01*
X14136357Y-12715214D01*
X14107786Y-12700929D01*
X14093500Y-12686643D01*
X14079214Y-12658071D01*
X14064928Y-12600929D01*
X14064928Y-12529500D01*
X14079214Y-12472357D01*
X14093500Y-12443786D01*
X14107786Y-12429500D01*
X14136357Y-12415214D01*
X14364928Y-12715214D02*
X14364928Y-12515214D01*
X14364928Y-12543786D02*
X14379214Y-12529500D01*
X14407786Y-12515214D01*
X14450643Y-12515214D01*
X14479214Y-12529500D01*
X14493500Y-12558071D01*
X14493500Y-12715214D01*
X14493500Y-12558071D02*
X14507786Y-12529500D01*
X14536357Y-12515214D01*
X14579214Y-12515214D01*
X14607786Y-12529500D01*
X14622071Y-12558071D01*
X14622071Y-12715214D01*
X14764928Y-12715214D02*
X14764928Y-12515214D01*
X14764928Y-12543786D02*
X14779214Y-12529500D01*
X14807786Y-12515214D01*
X14850643Y-12515214D01*
X14879214Y-12529500D01*
X14893500Y-12558071D01*
X14893500Y-12715214D01*
X14893500Y-12558071D02*
X14907786Y-12529500D01*
X14936357Y-12515214D01*
X14979214Y-12515214D01*
X15007786Y-12529500D01*
X15022071Y-12558071D01*
X15022071Y-12715214D01*
X15607786Y-12400929D02*
X15350643Y-12786643D01*
X15993500Y-12415214D02*
X16022071Y-12415214D01*
X16050643Y-12429500D01*
X16064928Y-12443786D01*
X16079214Y-12472357D01*
X16093500Y-12529500D01*
X16093500Y-12600929D01*
X16079214Y-12658071D01*
X16064928Y-12686643D01*
X16050643Y-12700929D01*
X16022071Y-12715214D01*
X15993500Y-12715214D01*
X15964928Y-12700929D01*
X15950643Y-12686643D01*
X15936357Y-12658071D01*
X15922071Y-12600929D01*
X15922071Y-12529500D01*
X15936357Y-12472357D01*
X15950643Y-12443786D01*
X15964928Y-12429500D01*
X15993500Y-12415214D01*
X16222071Y-12686643D02*
X16236357Y-12700929D01*
X16222071Y-12715214D01*
X16207786Y-12700929D01*
X16222071Y-12686643D01*
X16222071Y-12715214D01*
X16422071Y-12415214D02*
X16450643Y-12415214D01*
X16479214Y-12429500D01*
X16493500Y-12443786D01*
X16507786Y-12472357D01*
X16522071Y-12529500D01*
X16522071Y-12600929D01*
X16507786Y-12658071D01*
X16493500Y-12686643D01*
X16479214Y-12700929D01*
X16450643Y-12715214D01*
X16422071Y-12715214D01*
X16393500Y-12700929D01*
X16379214Y-12686643D01*
X16364928Y-12658071D01*
X16350643Y-12600929D01*
X16350643Y-12529500D01*
X16364928Y-12472357D01*
X16379214Y-12443786D01*
X16393500Y-12429500D01*
X16422071Y-12415214D01*
X16622071Y-12415214D02*
X16807786Y-12415214D01*
X16707786Y-12529500D01*
X16750643Y-12529500D01*
X16779214Y-12543786D01*
X16793500Y-12558071D01*
X16807786Y-12586643D01*
X16807786Y-12658071D01*
X16793500Y-12686643D01*
X16779214Y-12700929D01*
X16750643Y-12715214D01*
X16664928Y-12715214D01*
X16636357Y-12700929D01*
X16622071Y-12686643D01*
X16950643Y-12715214D02*
X17007786Y-12715214D01*
X17036357Y-12700929D01*
X17050643Y-12686643D01*
X17079214Y-12643786D01*
X17093500Y-12586643D01*
X17093500Y-12472357D01*
X17079214Y-12443786D01*
X17064928Y-12429500D01*
X17036357Y-12415214D01*
X16979214Y-12415214D01*
X16950643Y-12429500D01*
X16936357Y-12443786D01*
X16922071Y-12472357D01*
X16922071Y-12543786D01*
X16936357Y-12572357D01*
X16950643Y-12586643D01*
X16979214Y-12600929D01*
X17036357Y-12600929D01*
X17064928Y-12586643D01*
X17079214Y-12572357D01*
X17093500Y-12543786D01*
X17207786Y-12415214D02*
X17207786Y-12472357D01*
X17322071Y-12415214D02*
X17322071Y-12472357D01*
X17764928Y-12829500D02*
X17750643Y-12815214D01*
X17722071Y-12772357D01*
X17707786Y-12743786D01*
X17693500Y-12700929D01*
X17679214Y-12629500D01*
X17679214Y-12572357D01*
X17693500Y-12500929D01*
X17707786Y-12458071D01*
X17722071Y-12429500D01*
X17750643Y-12386643D01*
X17764928Y-12372357D01*
X17864928Y-12443786D02*
X17879214Y-12429500D01*
X17907786Y-12415214D01*
X17979214Y-12415214D01*
X18007786Y-12429500D01*
X18022071Y-12443786D01*
X18036357Y-12472357D01*
X18036357Y-12500929D01*
X18022071Y-12543786D01*
X17850643Y-12715214D01*
X18036357Y-12715214D01*
X18322071Y-12715214D02*
X18150643Y-12715214D01*
X18236357Y-12715214D02*
X18236357Y-12415214D01*
X18207786Y-12458071D01*
X18179214Y-12486643D01*
X18150643Y-12500929D01*
X18679214Y-12715214D02*
X18679214Y-12415214D01*
X18807786Y-12715214D02*
X18807786Y-12558071D01*
X18793500Y-12529500D01*
X18764928Y-12515214D01*
X18722071Y-12515214D01*
X18693500Y-12529500D01*
X18679214Y-12543786D01*
X18993500Y-12715214D02*
X18964928Y-12700929D01*
X18950643Y-12686643D01*
X18936357Y-12658071D01*
X18936357Y-12572357D01*
X18950643Y-12543786D01*
X18964928Y-12529500D01*
X18993500Y-12515214D01*
X19036357Y-12515214D01*
X19064928Y-12529500D01*
X19079214Y-12543786D01*
X19093500Y-12572357D01*
X19093500Y-12658071D01*
X19079214Y-12686643D01*
X19064928Y-12700929D01*
X19036357Y-12715214D01*
X18993500Y-12715214D01*
X19264928Y-12715214D02*
X19236357Y-12700929D01*
X19222071Y-12672357D01*
X19222071Y-12415214D01*
X19493500Y-12700929D02*
X19464928Y-12715214D01*
X19407786Y-12715214D01*
X19379214Y-12700929D01*
X19364928Y-12672357D01*
X19364928Y-12558071D01*
X19379214Y-12529500D01*
X19407786Y-12515214D01*
X19464928Y-12515214D01*
X19493500Y-12529500D01*
X19507786Y-12558071D01*
X19507786Y-12586643D01*
X19364928Y-12615214D01*
X19622071Y-12700929D02*
X19650643Y-12715214D01*
X19707786Y-12715214D01*
X19736357Y-12700929D01*
X19750643Y-12672357D01*
X19750643Y-12658071D01*
X19736357Y-12629500D01*
X19707786Y-12615214D01*
X19664928Y-12615214D01*
X19636357Y-12600929D01*
X19622071Y-12572357D01*
X19622071Y-12558071D01*
X19636357Y-12529500D01*
X19664928Y-12515214D01*
X19707786Y-12515214D01*
X19736357Y-12529500D01*
X19850643Y-12829500D02*
X19864928Y-12815214D01*
X19893500Y-12772357D01*
X19907786Y-12743786D01*
X19922071Y-12700929D01*
X19936357Y-12629500D01*
X19936357Y-12572357D01*
X19922071Y-12500929D01*
X19907786Y-12458071D01*
X19893500Y-12429500D01*
X19864928Y-12386643D01*
X19850643Y-12372357D01*
X12845500Y-12859000D02*
X13078500Y-13092000D01*
X13078500Y-12859000D02*
X12845500Y-13092000D01*
X13078500Y-12975500D02*
G75*
G03*
X13078500Y-12975500I-116500J0D01*
G01*
X13350643Y-12839786D02*
X13364928Y-12825500D01*
X13393500Y-12811214D01*
X13464928Y-12811214D01*
X13493500Y-12825500D01*
X13507786Y-12839786D01*
X13522071Y-12868357D01*
X13522071Y-12896929D01*
X13507786Y-12939786D01*
X13336357Y-13111214D01*
X13522071Y-13111214D01*
X13650643Y-13082643D02*
X13664928Y-13096929D01*
X13650643Y-13111214D01*
X13636357Y-13096929D01*
X13650643Y-13082643D01*
X13650643Y-13111214D01*
X13764928Y-12811214D02*
X13950643Y-12811214D01*
X13850643Y-12925500D01*
X13893500Y-12925500D01*
X13922071Y-12939786D01*
X13936357Y-12954071D01*
X13950643Y-12982643D01*
X13950643Y-13054071D01*
X13936357Y-13082643D01*
X13922071Y-13096929D01*
X13893500Y-13111214D01*
X13807786Y-13111214D01*
X13779214Y-13096929D01*
X13764928Y-13082643D01*
X14050643Y-12811214D02*
X14236357Y-12811214D01*
X14136357Y-12925500D01*
X14179214Y-12925500D01*
X14207786Y-12939786D01*
X14222071Y-12954071D01*
X14236357Y-12982643D01*
X14236357Y-13054071D01*
X14222071Y-13082643D01*
X14207786Y-13096929D01*
X14179214Y-13111214D01*
X14093500Y-13111214D01*
X14064928Y-13096929D01*
X14050643Y-13082643D01*
X14364928Y-13111214D02*
X14364928Y-12911214D01*
X14364928Y-12939786D02*
X14379214Y-12925500D01*
X14407786Y-12911214D01*
X14450643Y-12911214D01*
X14479214Y-12925500D01*
X14493500Y-12954071D01*
X14493500Y-13111214D01*
X14493500Y-12954071D02*
X14507786Y-12925500D01*
X14536357Y-12911214D01*
X14579214Y-12911214D01*
X14607786Y-12925500D01*
X14622071Y-12954071D01*
X14622071Y-13111214D01*
X14764928Y-13111214D02*
X14764928Y-12911214D01*
X14764928Y-12939786D02*
X14779214Y-12925500D01*
X14807786Y-12911214D01*
X14850643Y-12911214D01*
X14879214Y-12925500D01*
X14893500Y-12954071D01*
X14893500Y-13111214D01*
X14893500Y-12954071D02*
X14907786Y-12925500D01*
X14936357Y-12911214D01*
X14979214Y-12911214D01*
X15007786Y-12925500D01*
X15022071Y-12954071D01*
X15022071Y-13111214D01*
X15607786Y-12796929D02*
X15350643Y-13182643D01*
X15993500Y-12811214D02*
X16022071Y-12811214D01*
X16050643Y-12825500D01*
X16064928Y-12839786D01*
X16079214Y-12868357D01*
X16093500Y-12925500D01*
X16093500Y-12996929D01*
X16079214Y-13054071D01*
X16064928Y-13082643D01*
X16050643Y-13096929D01*
X16022071Y-13111214D01*
X15993500Y-13111214D01*
X15964928Y-13096929D01*
X15950643Y-13082643D01*
X15936357Y-13054071D01*
X15922071Y-12996929D01*
X15922071Y-12925500D01*
X15936357Y-12868357D01*
X15950643Y-12839786D01*
X15964928Y-12825500D01*
X15993500Y-12811214D01*
X16222071Y-13082643D02*
X16236357Y-13096929D01*
X16222071Y-13111214D01*
X16207786Y-13096929D01*
X16222071Y-13082643D01*
X16222071Y-13111214D01*
X16422071Y-12811214D02*
X16450643Y-12811214D01*
X16479214Y-12825500D01*
X16493500Y-12839786D01*
X16507786Y-12868357D01*
X16522071Y-12925500D01*
X16522071Y-12996929D01*
X16507786Y-13054071D01*
X16493500Y-13082643D01*
X16479214Y-13096929D01*
X16450643Y-13111214D01*
X16422071Y-13111214D01*
X16393500Y-13096929D01*
X16379214Y-13082643D01*
X16364928Y-13054071D01*
X16350643Y-12996929D01*
X16350643Y-12925500D01*
X16364928Y-12868357D01*
X16379214Y-12839786D01*
X16393500Y-12825500D01*
X16422071Y-12811214D01*
X16664928Y-13111214D02*
X16722071Y-13111214D01*
X16750643Y-13096929D01*
X16764928Y-13082643D01*
X16793500Y-13039786D01*
X16807786Y-12982643D01*
X16807786Y-12868357D01*
X16793500Y-12839786D01*
X16779214Y-12825500D01*
X16750643Y-12811214D01*
X16693500Y-12811214D01*
X16664928Y-12825500D01*
X16650643Y-12839786D01*
X16636357Y-12868357D01*
X16636357Y-12939786D01*
X16650643Y-12968357D01*
X16664928Y-12982643D01*
X16693500Y-12996929D01*
X16750643Y-12996929D01*
X16779214Y-12982643D01*
X16793500Y-12968357D01*
X16807786Y-12939786D01*
X16922071Y-12839786D02*
X16936357Y-12825500D01*
X16964928Y-12811214D01*
X17036357Y-12811214D01*
X17064928Y-12825500D01*
X17079214Y-12839786D01*
X17093500Y-12868357D01*
X17093500Y-12896929D01*
X17079214Y-12939786D01*
X16907786Y-13111214D01*
X17093500Y-13111214D01*
X17207786Y-12811214D02*
X17207786Y-12868357D01*
X17322071Y-12811214D02*
X17322071Y-12868357D01*
X17764928Y-13225500D02*
X17750643Y-13211214D01*
X17722071Y-13168357D01*
X17707786Y-13139786D01*
X17693500Y-13096929D01*
X17679214Y-13025500D01*
X17679214Y-12968357D01*
X17693500Y-12896929D01*
X17707786Y-12854071D01*
X17722071Y-12825500D01*
X17750643Y-12782643D01*
X17764928Y-12768357D01*
X17864928Y-12839786D02*
X17879214Y-12825500D01*
X17907786Y-12811214D01*
X17979214Y-12811214D01*
X18007786Y-12825500D01*
X18022071Y-12839786D01*
X18036357Y-12868357D01*
X18036357Y-12896929D01*
X18022071Y-12939786D01*
X17850643Y-13111214D01*
X18036357Y-13111214D01*
X18393500Y-13111214D02*
X18393500Y-12811214D01*
X18522071Y-13111214D02*
X18522071Y-12954071D01*
X18507786Y-12925500D01*
X18479214Y-12911214D01*
X18436357Y-12911214D01*
X18407786Y-12925500D01*
X18393500Y-12939786D01*
X18707786Y-13111214D02*
X18679214Y-13096929D01*
X18664928Y-13082643D01*
X18650643Y-13054071D01*
X18650643Y-12968357D01*
X18664928Y-12939786D01*
X18679214Y-12925500D01*
X18707786Y-12911214D01*
X18750643Y-12911214D01*
X18779214Y-12925500D01*
X18793500Y-12939786D01*
X18807786Y-12968357D01*
X18807786Y-13054071D01*
X18793500Y-13082643D01*
X18779214Y-13096929D01*
X18750643Y-13111214D01*
X18707786Y-13111214D01*
X18979214Y-13111214D02*
X18950643Y-13096929D01*
X18936357Y-13068357D01*
X18936357Y-12811214D01*
X19207786Y-13096929D02*
X19179214Y-13111214D01*
X19122071Y-13111214D01*
X19093500Y-13096929D01*
X19079214Y-13068357D01*
X19079214Y-12954071D01*
X19093500Y-12925500D01*
X19122071Y-12911214D01*
X19179214Y-12911214D01*
X19207786Y-12925500D01*
X19222071Y-12954071D01*
X19222071Y-12982643D01*
X19079214Y-13011214D01*
X19336357Y-13096929D02*
X19364928Y-13111214D01*
X19422071Y-13111214D01*
X19450643Y-13096929D01*
X19464928Y-13068357D01*
X19464928Y-13054071D01*
X19450643Y-13025500D01*
X19422071Y-13011214D01*
X19379214Y-13011214D01*
X19350643Y-12996929D01*
X19336357Y-12968357D01*
X19336357Y-12954071D01*
X19350643Y-12925500D01*
X19379214Y-12911214D01*
X19422071Y-12911214D01*
X19450643Y-12925500D01*
X19564928Y-13225500D02*
X19579214Y-13211214D01*
X19607786Y-13168357D01*
X19622071Y-13139786D01*
X19636357Y-13096929D01*
X19650643Y-13025500D01*
X19650643Y-12968357D01*
X19636357Y-12896929D01*
X19622071Y-12854071D01*
X19607786Y-12825500D01*
X19579214Y-12782643D01*
X19564928Y-12768357D01*
X12758500Y-13211500D02*
X13078500Y-13531500D01*
X13078500Y-13211500D02*
X12758500Y-13531500D01*
X12918500Y-13211500D02*
X12918500Y-13531500D01*
X12758500Y-13371500D02*
X13078500Y-13371500D01*
X13336357Y-13207214D02*
X13522071Y-13207214D01*
X13422071Y-13321500D01*
X13464928Y-13321500D01*
X13493500Y-13335786D01*
X13507786Y-13350071D01*
X13522071Y-13378643D01*
X13522071Y-13450071D01*
X13507786Y-13478643D01*
X13493500Y-13492929D01*
X13464928Y-13507214D01*
X13379214Y-13507214D01*
X13350643Y-13492929D01*
X13336357Y-13478643D01*
X13650643Y-13478643D02*
X13664928Y-13492929D01*
X13650643Y-13507214D01*
X13636357Y-13492929D01*
X13650643Y-13478643D01*
X13650643Y-13507214D01*
X13779214Y-13235786D02*
X13793500Y-13221500D01*
X13822071Y-13207214D01*
X13893500Y-13207214D01*
X13922071Y-13221500D01*
X13936357Y-13235786D01*
X13950643Y-13264357D01*
X13950643Y-13292929D01*
X13936357Y-13335786D01*
X13764928Y-13507214D01*
X13950643Y-13507214D01*
X14136357Y-13207214D02*
X14164928Y-13207214D01*
X14193500Y-13221500D01*
X14207786Y-13235786D01*
X14222071Y-13264357D01*
X14236357Y-13321500D01*
X14236357Y-13392929D01*
X14222071Y-13450071D01*
X14207786Y-13478643D01*
X14193500Y-13492929D01*
X14164928Y-13507214D01*
X14136357Y-13507214D01*
X14107786Y-13492929D01*
X14093500Y-13478643D01*
X14079214Y-13450071D01*
X14064928Y-13392929D01*
X14064928Y-13321500D01*
X14079214Y-13264357D01*
X14093500Y-13235786D01*
X14107786Y-13221500D01*
X14136357Y-13207214D01*
X14364928Y-13507214D02*
X14364928Y-13307214D01*
X14364928Y-13335786D02*
X14379214Y-13321500D01*
X14407786Y-13307214D01*
X14450643Y-13307214D01*
X14479214Y-13321500D01*
X14493500Y-13350071D01*
X14493500Y-13507214D01*
X14493500Y-13350071D02*
X14507786Y-13321500D01*
X14536357Y-13307214D01*
X14579214Y-13307214D01*
X14607786Y-13321500D01*
X14622071Y-13350071D01*
X14622071Y-13507214D01*
X14764928Y-13507214D02*
X14764928Y-13307214D01*
X14764928Y-13335786D02*
X14779214Y-13321500D01*
X14807786Y-13307214D01*
X14850643Y-13307214D01*
X14879214Y-13321500D01*
X14893500Y-13350071D01*
X14893500Y-13507214D01*
X14893500Y-13350071D02*
X14907786Y-13321500D01*
X14936357Y-13307214D01*
X14979214Y-13307214D01*
X15007786Y-13321500D01*
X15022071Y-13350071D01*
X15022071Y-13507214D01*
X15607786Y-13192929D02*
X15350643Y-13578643D01*
X15993500Y-13207214D02*
X16022071Y-13207214D01*
X16050643Y-13221500D01*
X16064928Y-13235786D01*
X16079214Y-13264357D01*
X16093500Y-13321500D01*
X16093500Y-13392929D01*
X16079214Y-13450071D01*
X16064928Y-13478643D01*
X16050643Y-13492929D01*
X16022071Y-13507214D01*
X15993500Y-13507214D01*
X15964928Y-13492929D01*
X15950643Y-13478643D01*
X15936357Y-13450071D01*
X15922071Y-13392929D01*
X15922071Y-13321500D01*
X15936357Y-13264357D01*
X15950643Y-13235786D01*
X15964928Y-13221500D01*
X15993500Y-13207214D01*
X16222071Y-13478643D02*
X16236357Y-13492929D01*
X16222071Y-13507214D01*
X16207786Y-13492929D01*
X16222071Y-13478643D01*
X16222071Y-13507214D01*
X16522071Y-13507214D02*
X16350643Y-13507214D01*
X16436357Y-13507214D02*
X16436357Y-13207214D01*
X16407786Y-13250071D01*
X16379214Y-13278643D01*
X16350643Y-13292929D01*
X16636357Y-13235786D02*
X16650643Y-13221500D01*
X16679214Y-13207214D01*
X16750643Y-13207214D01*
X16779214Y-13221500D01*
X16793500Y-13235786D01*
X16807786Y-13264357D01*
X16807786Y-13292929D01*
X16793500Y-13335786D01*
X16622071Y-13507214D01*
X16807786Y-13507214D01*
X17064928Y-13207214D02*
X17007786Y-13207214D01*
X16979214Y-13221500D01*
X16964928Y-13235786D01*
X16936357Y-13278643D01*
X16922071Y-13335786D01*
X16922071Y-13450071D01*
X16936357Y-13478643D01*
X16950643Y-13492929D01*
X16979214Y-13507214D01*
X17036357Y-13507214D01*
X17064928Y-13492929D01*
X17079214Y-13478643D01*
X17093500Y-13450071D01*
X17093500Y-13378643D01*
X17079214Y-13350071D01*
X17064928Y-13335786D01*
X17036357Y-13321500D01*
X16979214Y-13321500D01*
X16950643Y-13335786D01*
X16936357Y-13350071D01*
X16922071Y-13378643D01*
X17207786Y-13207214D02*
X17207786Y-13264357D01*
X17322071Y-13207214D02*
X17322071Y-13264357D01*
X17764928Y-13621500D02*
X17750643Y-13607214D01*
X17722071Y-13564357D01*
X17707786Y-13535786D01*
X17693500Y-13492929D01*
X17679214Y-13421500D01*
X17679214Y-13364357D01*
X17693500Y-13292929D01*
X17707786Y-13250071D01*
X17722071Y-13221500D01*
X17750643Y-13178643D01*
X17764928Y-13164357D01*
X18007786Y-13307214D02*
X18007786Y-13507214D01*
X17936357Y-13192929D02*
X17864928Y-13407214D01*
X18050643Y-13407214D01*
X18393500Y-13507214D02*
X18393500Y-13207214D01*
X18522071Y-13507214D02*
X18522071Y-13350071D01*
X18507786Y-13321500D01*
X18479214Y-13307214D01*
X18436357Y-13307214D01*
X18407786Y-13321500D01*
X18393500Y-13335786D01*
X18707786Y-13507214D02*
X18679214Y-13492929D01*
X18664928Y-13478643D01*
X18650643Y-13450071D01*
X18650643Y-13364357D01*
X18664928Y-13335786D01*
X18679214Y-13321500D01*
X18707786Y-13307214D01*
X18750643Y-13307214D01*
X18779214Y-13321500D01*
X18793500Y-13335786D01*
X18807786Y-13364357D01*
X18807786Y-13450071D01*
X18793500Y-13478643D01*
X18779214Y-13492929D01*
X18750643Y-13507214D01*
X18707786Y-13507214D01*
X18979214Y-13507214D02*
X18950643Y-13492929D01*
X18936357Y-13464357D01*
X18936357Y-13207214D01*
X19207786Y-13492929D02*
X19179214Y-13507214D01*
X19122071Y-13507214D01*
X19093500Y-13492929D01*
X19079214Y-13464357D01*
X19079214Y-13350071D01*
X19093500Y-13321500D01*
X19122071Y-13307214D01*
X19179214Y-13307214D01*
X19207786Y-13321500D01*
X19222071Y-13350071D01*
X19222071Y-13378643D01*
X19079214Y-13407214D01*
X19336357Y-13492929D02*
X19364928Y-13507214D01*
X19422071Y-13507214D01*
X19450643Y-13492929D01*
X19464928Y-13464357D01*
X19464928Y-13450071D01*
X19450643Y-13421500D01*
X19422071Y-13407214D01*
X19379214Y-13407214D01*
X19350643Y-13392929D01*
X19336357Y-13364357D01*
X19336357Y-13350071D01*
X19350643Y-13321500D01*
X19379214Y-13307214D01*
X19422071Y-13307214D01*
X19450643Y-13321500D01*
X19564928Y-13621500D02*
X19579214Y-13607214D01*
X19607786Y-13564357D01*
X19622071Y-13535786D01*
X19636357Y-13492929D01*
X19650643Y-13421500D01*
X19650643Y-13364357D01*
X19636357Y-13292929D01*
X19622071Y-13250071D01*
X19607786Y-13221500D01*
X19579214Y-13178643D01*
X19564928Y-13164357D01*
M02*
