M48
INCH,TZ
T1C0.0157
T2C0.0295
T3C0.0315
T4C0.0394
T5C0.0400
T6C0.0512
T7C0.0610
T8C0.1122
T9C0.1260
%
G90
G05
T1
X23360Y-39500
X23500Y-30000
X23500Y-33345
X24500Y-32500
X24500Y-45500
X25000Y-40000
X25500Y-35378
X25500Y-46000
X26000Y-32000
X26000Y-37500
X26500Y-34000
X26500Y-40500
X27000Y-30000
X27000Y-36381
X27000Y-41000
X27500Y-21000
X27500Y-45500
X27500Y-46500
X28000Y-26500
X28000Y-47000
X29500Y-28000
X31000Y-26500
X33360Y-44500
X33500Y-37500
X34000Y-36500
X36000Y-37000
X36500Y-47500
X37500Y-22000
X39500Y-42500
X40000Y-36000
X40000Y-46500
X40500Y-29500
X40500Y-30500
X40500Y-32000
X40500Y-33000
X40500Y-34000
X40500Y-45500
X40500Y-47500
X41000Y-44000
X41500Y-23000
X41500Y-43500
X41500Y-44500
X42000Y-24100
X42000Y-32000
X42000Y-42943
X42000Y-45000
X43000Y-30500
X43500Y-25000
X44000Y-25500
X44000Y-32000
X44000Y-52000
X48500Y-34500
X50000Y-32500
X53000Y-25500
X57500Y-24000
X65000Y-21500
X67500Y-54000
X67923Y-40423
X68000Y-41500
X68000Y-55000
X68055Y-42349
X69000Y-32500
X69000Y-53500
X72000Y-32500
X72000Y-36000
X73000Y-25000
X73000Y-34000
X73548Y-35048
X74000Y-34500
X75468Y-35968
X79000Y-26000
X83000Y-18000
T2
X84000Y-49000
X84500Y-49000
X85000Y-49000
T3
X83000Y-51500
X84969Y-51500
X84500Y-20000
X88500Y-20000
X85000Y-43000
X85984Y-43000
X84500Y-23500
X88500Y-23500
X80425Y-20000
X80425Y-20787
X81213Y-20000
X81213Y-20787
X82000Y-20000
X82000Y-20787
X80425Y-23500
X81213Y-23500
X82000Y-23500
X42000Y-33531
X42000Y-35500
X69000Y-20531
X69000Y-22500
X32500Y-20500
X32500Y-23500
X33500Y-20500
X33500Y-23500
X34500Y-20500
X34500Y-23500
X35500Y-20500
X35500Y-23500
X36500Y-20500
X36500Y-23500
X37500Y-20500
X37500Y-23500
X38500Y-20500
X38500Y-23500
X88500Y-32500
X92500Y-32500
X79000Y-47000
X83000Y-47000
X82500Y-30500
X82500Y-31287
X92500Y-29000
X92500Y-30969
X29500Y-47425
X29500Y-48213
X29500Y-49000
X44000Y-47000
X44000Y-50000
X45000Y-47000
X45000Y-50000
X46000Y-47000
X46000Y-50000
X47000Y-47000
X47000Y-50000
X48000Y-47000
X48000Y-50000
X49000Y-47000
X49000Y-50000
X50000Y-47000
X50000Y-50000
X57500Y-27000
X57500Y-28000
X57500Y-29000
X57500Y-30000
X57500Y-31000
X57500Y-32000
X57500Y-33000
X57500Y-34000
X57500Y-35000
X57500Y-36000
X57500Y-37000
X57500Y-38000
X57500Y-39000
X57500Y-40000
X63500Y-27000
X63500Y-28000
X63500Y-29000
X63500Y-30000
X63500Y-31000
X63500Y-32000
X63500Y-33000
X63500Y-34000
X63500Y-35000
X63500Y-36000
X63500Y-37000
X63500Y-38000
X63500Y-39000
X63500Y-40000
X44000Y-20500
X44000Y-23500
X45000Y-20500
X45000Y-23500
X46000Y-20500
X46000Y-23500
X47000Y-20500
X47000Y-23500
X48000Y-20500
X48000Y-23500
X49000Y-20500
X49000Y-23500
X50000Y-20500
X50000Y-23500
X51000Y-20500
X51000Y-23500
X52000Y-20500
X52000Y-23500
X53000Y-20500
X53000Y-23500
X71000Y-20500
X71000Y-23500
X72000Y-20500
X72000Y-23500
X73000Y-20500
X73000Y-23500
X74000Y-20500
X74000Y-23500
X75000Y-20500
X75000Y-23500
X76000Y-20500
X76000Y-23500
X77000Y-20500
X77000Y-23500
X71000Y-27000
X71000Y-28000
X71000Y-29000
X71000Y-30000
X71000Y-31000
X71000Y-32000
X71000Y-33000
X71000Y-34000
X71000Y-35000
X71000Y-36000
X71000Y-37000
X71000Y-38000
X71000Y-39000
X71000Y-40000
X71000Y-41000
X71000Y-42000
X71000Y-43000
X71000Y-44000
X71000Y-45000
X71000Y-46000
X77000Y-27000
X77000Y-28000
X77000Y-29000
X77000Y-30000
X77000Y-31000
X77000Y-32000
X77000Y-33000
X77000Y-34000
X77000Y-35000
X77000Y-36000
X77000Y-37000
X77000Y-38000
X77000Y-39000
X77000Y-40000
X77000Y-41000
X77000Y-42000
X77000Y-43000
X77000Y-44000
X77000Y-45000
X77000Y-46000
X61531Y-25500
X63500Y-25500
X79000Y-49000
X83000Y-49000
X44000Y-33500
X44000Y-36500
X45000Y-33500
X45000Y-36500
X46000Y-33500
X46000Y-36500
X47000Y-33500
X47000Y-36500
X48000Y-33500
X48000Y-36500
X49000Y-33500
X49000Y-36500
X50000Y-33500
X50000Y-36500
X51000Y-33500
X51000Y-36500
X52000Y-33500
X52000Y-36500
X53000Y-33500
X53000Y-36500
X30500Y-20531
X30500Y-22500
X28000Y-28071
X28000Y-30000
X32500Y-27500
X32500Y-28500
X32500Y-29500
X32500Y-30500
X32500Y-31500
X32500Y-32500
X32500Y-33500
X32500Y-34500
X32500Y-35500
X32500Y-36500
X32500Y-37500
X32500Y-38500
X32500Y-39500
X32500Y-40500
X32500Y-41500
X32500Y-42500
X32500Y-43500
X32500Y-44500
X32500Y-45500
X32500Y-46500
X38500Y-27500
X38500Y-28500
X38500Y-29500
X38500Y-30500
X38500Y-31500
X38500Y-32500
X38500Y-33500
X38500Y-34500
X38500Y-35500
X38500Y-36500
X38500Y-37500
X38500Y-38500
X38500Y-39500
X38500Y-40500
X38500Y-41500
X38500Y-42500
X38500Y-43500
X38500Y-44500
X38500Y-45500
X38500Y-46500
X84500Y-22000
X88500Y-22000
X30500Y-31031
X30500Y-33000
X84500Y-27000
X84500Y-28000
X84500Y-29000
X84500Y-30000
X87500Y-27000
X87500Y-28000
X87500Y-29000
X87500Y-30000
X44000Y-27000
X44000Y-30000
X45000Y-27000
X45000Y-30000
X46000Y-27000
X46000Y-30000
X47000Y-27000
X47000Y-30000
X48000Y-27000
X48000Y-30000
X49000Y-27000
X49000Y-30000
X50000Y-27000
X50000Y-30000
X51000Y-27000
X51000Y-30000
X52000Y-27000
X52000Y-30000
X53000Y-27000
X53000Y-30000
X90000Y-30000
X90984Y-30000
X82500Y-27031
X82500Y-29000
X36500Y-26000
X38469Y-26000
X84500Y-47000
X88500Y-47000
X30500Y-27665
X30500Y-29634
X82500Y-35000
X82500Y-38000
X88500Y-35000
X88500Y-38000
X42000Y-20500
X42000Y-22469
X75031Y-25000
X77000Y-25000
X86531Y-25500
X88500Y-25500
X42000Y-27031
X42000Y-29000
X83531Y-25500
X85500Y-25500
X42000Y-47031
X42000Y-49000
T4
X91000Y-22500
X91000Y-24000
T5
X68000Y-51000
X68000Y-52000
X69000Y-51000
X69000Y-52000
X70000Y-51000
X70000Y-52000
X71000Y-51000
X71000Y-52000
X72000Y-51000
X72000Y-52000
X73000Y-51000
X73000Y-52000
X74000Y-51000
X74000Y-52000
X75000Y-51000
X75000Y-52000
X76000Y-51000
X76000Y-52000
X77000Y-51000
X77000Y-52000
T6
X26000Y-22000
X26984Y-25937
X27969Y-22000
T7
X87870Y-43000
X87870Y-51000
T8
X90732Y-40244
X90732Y-45756
X90732Y-48244
X90732Y-53756
T9
X88000Y-55500
X92000Y-19000
X25500Y-19000
X25500Y-55500
T0
M30
