%FSLAX45Y45*%
G04 Gerber Fmt 4.5, Leading zero omitted, Abs format (unit mm)*
G04 Created by KiCad (PCBNEW (5.1.4)-1) date 2019-12-09 02:50:15*
%MOMM*%
%LPD*%
G04 APERTURE LIST*
%ADD10C,0.050000*%
%ADD11C,0.200000*%
%ADD12C,0.300000*%
G04 APERTURE END LIST*
D10*
X24003000Y-14732000D02*
X5842000Y-14732000D01*
X5842000Y-14732000D02*
X5842000Y-12319000D01*
X5842000Y-12319000D02*
X4572000Y-12319000D01*
X4572000Y-6985000D02*
X5842000Y-6985000D01*
X4572000Y-12319000D02*
X4572000Y-6985000D01*
X5842000Y-6985000D02*
X5842000Y-4191000D01*
X5842000Y-4191000D02*
X24003000Y-4191000D01*
X24003000Y-4191000D02*
X24003000Y-14732000D01*
D11*
X6690000Y-5682000D02*
X7010000Y-6002000D01*
X7010000Y-5682000D02*
X6690000Y-6002000D01*
D12*
X4855928Y-15200214D02*
X4855928Y-14900214D01*
X4927357Y-14900214D01*
X4970214Y-14914500D01*
X4998786Y-14943071D01*
X5013071Y-14971643D01*
X5027357Y-15028786D01*
X5027357Y-15071643D01*
X5013071Y-15128786D01*
X4998786Y-15157357D01*
X4970214Y-15185929D01*
X4927357Y-15200214D01*
X4855928Y-15200214D01*
X5155928Y-15200214D02*
X5155928Y-15000214D01*
X5155928Y-15057357D02*
X5170214Y-15028786D01*
X5184500Y-15014500D01*
X5213071Y-15000214D01*
X5241643Y-15000214D01*
X5341643Y-15200214D02*
X5341643Y-15000214D01*
X5341643Y-14900214D02*
X5327357Y-14914500D01*
X5341643Y-14928786D01*
X5355928Y-14914500D01*
X5341643Y-14900214D01*
X5341643Y-14928786D01*
X5527357Y-15200214D02*
X5498786Y-15185929D01*
X5484500Y-15157357D01*
X5484500Y-14900214D01*
X5684500Y-15200214D02*
X5655928Y-15185929D01*
X5641643Y-15157357D01*
X5641643Y-14900214D01*
X6027357Y-15200214D02*
X6027357Y-14900214D01*
X6127357Y-15114500D01*
X6227357Y-14900214D01*
X6227357Y-15200214D01*
X6498786Y-15200214D02*
X6498786Y-15043071D01*
X6484500Y-15014500D01*
X6455928Y-15000214D01*
X6398786Y-15000214D01*
X6370214Y-15014500D01*
X6498786Y-15185929D02*
X6470214Y-15200214D01*
X6398786Y-15200214D01*
X6370214Y-15185929D01*
X6355928Y-15157357D01*
X6355928Y-15128786D01*
X6370214Y-15100214D01*
X6398786Y-15085929D01*
X6470214Y-15085929D01*
X6498786Y-15071643D01*
X6641643Y-15000214D02*
X6641643Y-15300214D01*
X6641643Y-15014500D02*
X6670214Y-15000214D01*
X6727357Y-15000214D01*
X6755928Y-15014500D01*
X6770214Y-15028786D01*
X6784500Y-15057357D01*
X6784500Y-15143071D01*
X6770214Y-15171643D01*
X6755928Y-15185929D01*
X6727357Y-15200214D01*
X6670214Y-15200214D01*
X6641643Y-15185929D01*
X6913071Y-15171643D02*
X6927357Y-15185929D01*
X6913071Y-15200214D01*
X6898786Y-15185929D01*
X6913071Y-15171643D01*
X6913071Y-15200214D01*
X6913071Y-15014500D02*
X6927357Y-15028786D01*
X6913071Y-15043071D01*
X6898786Y-15028786D01*
X6913071Y-15014500D01*
X6913071Y-15043071D01*
X4249500Y-15534500D02*
X4569500Y-15854500D01*
X4569500Y-15534500D02*
X4249500Y-15854500D01*
X4827357Y-15530214D02*
X5013071Y-15530214D01*
X4913071Y-15644500D01*
X4955928Y-15644500D01*
X4984500Y-15658786D01*
X4998786Y-15673071D01*
X5013071Y-15701643D01*
X5013071Y-15773071D01*
X4998786Y-15801643D01*
X4984500Y-15815929D01*
X4955928Y-15830214D01*
X4870214Y-15830214D01*
X4841643Y-15815929D01*
X4827357Y-15801643D01*
X5141643Y-15801643D02*
X5155928Y-15815929D01*
X5141643Y-15830214D01*
X5127357Y-15815929D01*
X5141643Y-15801643D01*
X5141643Y-15830214D01*
X5270214Y-15558786D02*
X5284500Y-15544500D01*
X5313071Y-15530214D01*
X5384500Y-15530214D01*
X5413071Y-15544500D01*
X5427357Y-15558786D01*
X5441643Y-15587357D01*
X5441643Y-15615929D01*
X5427357Y-15658786D01*
X5255928Y-15830214D01*
X5441643Y-15830214D01*
X5627357Y-15530214D02*
X5655928Y-15530214D01*
X5684500Y-15544500D01*
X5698786Y-15558786D01*
X5713071Y-15587357D01*
X5727357Y-15644500D01*
X5727357Y-15715929D01*
X5713071Y-15773071D01*
X5698786Y-15801643D01*
X5684500Y-15815929D01*
X5655928Y-15830214D01*
X5627357Y-15830214D01*
X5598786Y-15815929D01*
X5584500Y-15801643D01*
X5570214Y-15773071D01*
X5555928Y-15715929D01*
X5555928Y-15644500D01*
X5570214Y-15587357D01*
X5584500Y-15558786D01*
X5598786Y-15544500D01*
X5627357Y-15530214D01*
X5855928Y-15830214D02*
X5855928Y-15630214D01*
X5855928Y-15658786D02*
X5870214Y-15644500D01*
X5898786Y-15630214D01*
X5941643Y-15630214D01*
X5970214Y-15644500D01*
X5984500Y-15673071D01*
X5984500Y-15830214D01*
X5984500Y-15673071D02*
X5998786Y-15644500D01*
X6027357Y-15630214D01*
X6070214Y-15630214D01*
X6098786Y-15644500D01*
X6113071Y-15673071D01*
X6113071Y-15830214D01*
X6255928Y-15830214D02*
X6255928Y-15630214D01*
X6255928Y-15658786D02*
X6270214Y-15644500D01*
X6298786Y-15630214D01*
X6341643Y-15630214D01*
X6370214Y-15644500D01*
X6384500Y-15673071D01*
X6384500Y-15830214D01*
X6384500Y-15673071D02*
X6398786Y-15644500D01*
X6427357Y-15630214D01*
X6470214Y-15630214D01*
X6498786Y-15644500D01*
X6513071Y-15673071D01*
X6513071Y-15830214D01*
X7098786Y-15515929D02*
X6841643Y-15901643D01*
X7484500Y-15530214D02*
X7513071Y-15530214D01*
X7541643Y-15544500D01*
X7555928Y-15558786D01*
X7570214Y-15587357D01*
X7584500Y-15644500D01*
X7584500Y-15715929D01*
X7570214Y-15773071D01*
X7555928Y-15801643D01*
X7541643Y-15815929D01*
X7513071Y-15830214D01*
X7484500Y-15830214D01*
X7455928Y-15815929D01*
X7441643Y-15801643D01*
X7427357Y-15773071D01*
X7413071Y-15715929D01*
X7413071Y-15644500D01*
X7427357Y-15587357D01*
X7441643Y-15558786D01*
X7455928Y-15544500D01*
X7484500Y-15530214D01*
X7713071Y-15801643D02*
X7727357Y-15815929D01*
X7713071Y-15830214D01*
X7698786Y-15815929D01*
X7713071Y-15801643D01*
X7713071Y-15830214D01*
X8013071Y-15830214D02*
X7841643Y-15830214D01*
X7927357Y-15830214D02*
X7927357Y-15530214D01*
X7898786Y-15573071D01*
X7870214Y-15601643D01*
X7841643Y-15615929D01*
X8127357Y-15558786D02*
X8141643Y-15544500D01*
X8170214Y-15530214D01*
X8241643Y-15530214D01*
X8270214Y-15544500D01*
X8284500Y-15558786D01*
X8298786Y-15587357D01*
X8298786Y-15615929D01*
X8284500Y-15658786D01*
X8113071Y-15830214D01*
X8298786Y-15830214D01*
X8555928Y-15530214D02*
X8498786Y-15530214D01*
X8470214Y-15544500D01*
X8455928Y-15558786D01*
X8427357Y-15601643D01*
X8413071Y-15658786D01*
X8413071Y-15773071D01*
X8427357Y-15801643D01*
X8441643Y-15815929D01*
X8470214Y-15830214D01*
X8527357Y-15830214D01*
X8555928Y-15815929D01*
X8570214Y-15801643D01*
X8584500Y-15773071D01*
X8584500Y-15701643D01*
X8570214Y-15673071D01*
X8555928Y-15658786D01*
X8527357Y-15644500D01*
X8470214Y-15644500D01*
X8441643Y-15658786D01*
X8427357Y-15673071D01*
X8413071Y-15701643D01*
X8698786Y-15530214D02*
X8698786Y-15587357D01*
X8813071Y-15530214D02*
X8813071Y-15587357D01*
X9255928Y-15944500D02*
X9241643Y-15930214D01*
X9213071Y-15887357D01*
X9198786Y-15858786D01*
X9184500Y-15815929D01*
X9170214Y-15744500D01*
X9170214Y-15687357D01*
X9184500Y-15615929D01*
X9198786Y-15573071D01*
X9213071Y-15544500D01*
X9241643Y-15501643D01*
X9255928Y-15487357D01*
X9527357Y-15830214D02*
X9355928Y-15830214D01*
X9441643Y-15830214D02*
X9441643Y-15530214D01*
X9413071Y-15573071D01*
X9384500Y-15601643D01*
X9355928Y-15615929D01*
X9884500Y-15830214D02*
X9884500Y-15530214D01*
X10013071Y-15830214D02*
X10013071Y-15673071D01*
X9998786Y-15644500D01*
X9970214Y-15630214D01*
X9927357Y-15630214D01*
X9898786Y-15644500D01*
X9884500Y-15658786D01*
X10198786Y-15830214D02*
X10170214Y-15815929D01*
X10155928Y-15801643D01*
X10141643Y-15773071D01*
X10141643Y-15687357D01*
X10155928Y-15658786D01*
X10170214Y-15644500D01*
X10198786Y-15630214D01*
X10241643Y-15630214D01*
X10270214Y-15644500D01*
X10284500Y-15658786D01*
X10298786Y-15687357D01*
X10298786Y-15773071D01*
X10284500Y-15801643D01*
X10270214Y-15815929D01*
X10241643Y-15830214D01*
X10198786Y-15830214D01*
X10470214Y-15830214D02*
X10441643Y-15815929D01*
X10427357Y-15787357D01*
X10427357Y-15530214D01*
X10698786Y-15815929D02*
X10670214Y-15830214D01*
X10613071Y-15830214D01*
X10584500Y-15815929D01*
X10570214Y-15787357D01*
X10570214Y-15673071D01*
X10584500Y-15644500D01*
X10613071Y-15630214D01*
X10670214Y-15630214D01*
X10698786Y-15644500D01*
X10713071Y-15673071D01*
X10713071Y-15701643D01*
X10570214Y-15730214D01*
X10813071Y-15944500D02*
X10827357Y-15930214D01*
X10855928Y-15887357D01*
X10870214Y-15858786D01*
X10884500Y-15815929D01*
X10898786Y-15744500D01*
X10898786Y-15687357D01*
X10884500Y-15615929D01*
X10870214Y-15573071D01*
X10855928Y-15544500D01*
X10827357Y-15501643D01*
X10813071Y-15487357D01*
X11355928Y-15944500D02*
X11341643Y-15930214D01*
X11313071Y-15887357D01*
X11298786Y-15858786D01*
X11284500Y-15815929D01*
X11270214Y-15744500D01*
X11270214Y-15687357D01*
X11284500Y-15615929D01*
X11298786Y-15573071D01*
X11313071Y-15544500D01*
X11341643Y-15501643D01*
X11355928Y-15487357D01*
X11470214Y-15630214D02*
X11470214Y-15830214D01*
X11470214Y-15658786D02*
X11484500Y-15644500D01*
X11513071Y-15630214D01*
X11555928Y-15630214D01*
X11584500Y-15644500D01*
X11598786Y-15673071D01*
X11598786Y-15830214D01*
X11784500Y-15830214D02*
X11755928Y-15815929D01*
X11741643Y-15801643D01*
X11727357Y-15773071D01*
X11727357Y-15687357D01*
X11741643Y-15658786D01*
X11755928Y-15644500D01*
X11784500Y-15630214D01*
X11827357Y-15630214D01*
X11855928Y-15644500D01*
X11870214Y-15658786D01*
X11884500Y-15687357D01*
X11884500Y-15773071D01*
X11870214Y-15801643D01*
X11855928Y-15815929D01*
X11827357Y-15830214D01*
X11784500Y-15830214D01*
X11970214Y-15630214D02*
X12084500Y-15630214D01*
X12013071Y-15530214D02*
X12013071Y-15787357D01*
X12027357Y-15815929D01*
X12055928Y-15830214D01*
X12084500Y-15830214D01*
X12413071Y-15630214D02*
X12413071Y-15930214D01*
X12413071Y-15644500D02*
X12441643Y-15630214D01*
X12498786Y-15630214D01*
X12527357Y-15644500D01*
X12541643Y-15658786D01*
X12555928Y-15687357D01*
X12555928Y-15773071D01*
X12541643Y-15801643D01*
X12527357Y-15815929D01*
X12498786Y-15830214D01*
X12441643Y-15830214D01*
X12413071Y-15815929D01*
X12727357Y-15830214D02*
X12698786Y-15815929D01*
X12684500Y-15787357D01*
X12684500Y-15530214D01*
X12970214Y-15830214D02*
X12970214Y-15673071D01*
X12955928Y-15644500D01*
X12927357Y-15630214D01*
X12870214Y-15630214D01*
X12841643Y-15644500D01*
X12970214Y-15815929D02*
X12941643Y-15830214D01*
X12870214Y-15830214D01*
X12841643Y-15815929D01*
X12827357Y-15787357D01*
X12827357Y-15758786D01*
X12841643Y-15730214D01*
X12870214Y-15715929D01*
X12941643Y-15715929D01*
X12970214Y-15701643D01*
X13070214Y-15630214D02*
X13184500Y-15630214D01*
X13113071Y-15530214D02*
X13113071Y-15787357D01*
X13127357Y-15815929D01*
X13155928Y-15830214D01*
X13184500Y-15830214D01*
X13398786Y-15815929D02*
X13370214Y-15830214D01*
X13313071Y-15830214D01*
X13284500Y-15815929D01*
X13270214Y-15787357D01*
X13270214Y-15673071D01*
X13284500Y-15644500D01*
X13313071Y-15630214D01*
X13370214Y-15630214D01*
X13398786Y-15644500D01*
X13413071Y-15673071D01*
X13413071Y-15701643D01*
X13270214Y-15730214D01*
X13670214Y-15830214D02*
X13670214Y-15530214D01*
X13670214Y-15815929D02*
X13641643Y-15830214D01*
X13584500Y-15830214D01*
X13555928Y-15815929D01*
X13541643Y-15801643D01*
X13527357Y-15773071D01*
X13527357Y-15687357D01*
X13541643Y-15658786D01*
X13555928Y-15644500D01*
X13584500Y-15630214D01*
X13641643Y-15630214D01*
X13670214Y-15644500D01*
X13784500Y-15944500D02*
X13798786Y-15930214D01*
X13827357Y-15887357D01*
X13841643Y-15858786D01*
X13855928Y-15815929D01*
X13870214Y-15744500D01*
X13870214Y-15687357D01*
X13855928Y-15615929D01*
X13841643Y-15573071D01*
X13827357Y-15544500D01*
X13798786Y-15501643D01*
X13784500Y-15487357D01*
M02*
