G04 #@! TF.GenerationSoftware,KiCad,Pcbnew,(5.1.4)-1*
G04 #@! TF.CreationDate,2020-01-21T03:05:47+01:00*
G04 #@! TF.ProjectId,Z80MiniFrame-Sound_Graphics,5a38304d-696e-4694-9672-616d652d536f,rev?*
G04 #@! TF.SameCoordinates,Original*
G04 #@! TF.FileFunction,Copper,L1,Top*
G04 #@! TF.FilePolarity,Positive*
%FSLAX46Y46*%
G04 Gerber Fmt 4.6, Leading zero omitted, Abs format (unit mm)*
G04 Created by KiCad (PCBNEW (5.1.4)-1) date 2020-01-21 03:05:47*
%MOMM*%
%LPD*%
G04 APERTURE LIST*
%ADD10O,1.700000X1.700000*%
%ADD11R,1.700000X1.700000*%
%ADD12R,2.400000X1.600000*%
%ADD13O,2.400000X1.600000*%
%ADD14O,1.600000X1.600000*%
%ADD15R,1.600000X1.600000*%
%ADD16C,5.500000*%
%ADD17C,2.340000*%
%ADD18O,1.727200X1.727200*%
%ADD19R,1.727200X1.727200*%
%ADD20C,2.400000*%
%ADD21C,4.000000*%
%ADD22O,1.600000X2.400000*%
%ADD23R,1.600000X2.400000*%
%ADD24C,1.600000*%
%ADD25R,1.050000X1.500000*%
%ADD26O,1.050000X1.500000*%
%ADD27C,1.500000*%
%ADD28R,13.000000X1.650000*%
%ADD29C,0.800000*%
%ADD30C,0.250000*%
%ADD31C,1.000000*%
G04 APERTURE END LIST*
D10*
X205740000Y-114300000D03*
X205740000Y-111760000D03*
D11*
X205740000Y-109220000D03*
D12*
X180340000Y-68580000D03*
D13*
X195580000Y-116840000D03*
X180340000Y-71120000D03*
X195580000Y-114300000D03*
X180340000Y-73660000D03*
X195580000Y-111760000D03*
X180340000Y-76200000D03*
X195580000Y-109220000D03*
X180340000Y-78740000D03*
X195580000Y-106680000D03*
X180340000Y-81280000D03*
X195580000Y-104140000D03*
X180340000Y-83820000D03*
X195580000Y-101600000D03*
X180340000Y-86360000D03*
X195580000Y-99060000D03*
X180340000Y-88900000D03*
X195580000Y-96520000D03*
X180340000Y-91440000D03*
X195580000Y-93980000D03*
X180340000Y-93980000D03*
X195580000Y-91440000D03*
X180340000Y-96520000D03*
X195580000Y-88900000D03*
X180340000Y-99060000D03*
X195580000Y-86360000D03*
X180340000Y-101600000D03*
X195580000Y-83820000D03*
X180340000Y-104140000D03*
X195580000Y-81280000D03*
X180340000Y-106680000D03*
X195580000Y-78740000D03*
X180340000Y-109220000D03*
X195580000Y-76200000D03*
X180340000Y-111760000D03*
X195580000Y-73660000D03*
X180340000Y-114300000D03*
X195580000Y-71120000D03*
X180340000Y-116840000D03*
X195580000Y-68580000D03*
D10*
X234950000Y-68580000D03*
D11*
X234950000Y-66040000D03*
D10*
X201930000Y-54610000D03*
X201930000Y-52070000D03*
X204470000Y-54610000D03*
X204470000Y-52070000D03*
X207010000Y-54610000D03*
D11*
X207010000Y-52070000D03*
D10*
X201930000Y-59690000D03*
X204470000Y-59690000D03*
D11*
X207010000Y-59690000D03*
D10*
X74930000Y-119380000D03*
X74930000Y-121920000D03*
D11*
X74930000Y-124460000D03*
D14*
X78740000Y-124460000D03*
D15*
X86360000Y-124460000D03*
D16*
X64770000Y-48260000D03*
X223520000Y-140970000D03*
X233680000Y-48260000D03*
X64770000Y-140970000D03*
D17*
X66040000Y-55880000D03*
X68540000Y-65880000D03*
X71040000Y-55880000D03*
D18*
X172720000Y-132080000D03*
X172720000Y-129540000D03*
X175260000Y-132080000D03*
X175260000Y-129540000D03*
X177800000Y-132080000D03*
X177800000Y-129540000D03*
X180340000Y-132080000D03*
X180340000Y-129540000D03*
X182880000Y-132080000D03*
X182880000Y-129540000D03*
X185420000Y-132080000D03*
X185420000Y-129540000D03*
X187960000Y-132080000D03*
X187960000Y-129540000D03*
X190500000Y-132080000D03*
X190500000Y-129540000D03*
X193040000Y-132080000D03*
X193040000Y-129540000D03*
X195580000Y-132080000D03*
D19*
X195580000Y-129540000D03*
D20*
X223190000Y-129540000D03*
D21*
X230460000Y-136540000D03*
X230460000Y-122540000D03*
D20*
X223190000Y-109220000D03*
D21*
X230460000Y-116220000D03*
X230460000Y-102220000D03*
D22*
X111760000Y-119380000D03*
X127000000Y-127000000D03*
X114300000Y-119380000D03*
X124460000Y-127000000D03*
X116840000Y-119380000D03*
X121920000Y-127000000D03*
X119380000Y-119380000D03*
X119380000Y-127000000D03*
X121920000Y-119380000D03*
X116840000Y-127000000D03*
X124460000Y-119380000D03*
X114300000Y-127000000D03*
X127000000Y-119380000D03*
D23*
X111760000Y-127000000D03*
D14*
X224790000Y-119380000D03*
D24*
X214630000Y-119380000D03*
D14*
X200660000Y-124460000D03*
D24*
X210820000Y-124460000D03*
D25*
X213360000Y-124460000D03*
D26*
X215900000Y-124460000D03*
X214630000Y-124460000D03*
D24*
X215820000Y-130810000D03*
X210820000Y-130810000D03*
X218400000Y-109220000D03*
D15*
X215900000Y-109220000D03*
D13*
X222250000Y-68580000D03*
X214630000Y-76200000D03*
X222250000Y-71120000D03*
X214630000Y-73660000D03*
X222250000Y-73660000D03*
X214630000Y-71120000D03*
X222250000Y-76200000D03*
D12*
X214630000Y-68580000D03*
D14*
X214630000Y-59690000D03*
D24*
X224790000Y-59690000D03*
X209550000Y-68660000D03*
X209550000Y-73660000D03*
X209550000Y-79470000D03*
D15*
X209550000Y-77470000D03*
D13*
X97790000Y-69850000D03*
X82550000Y-118110000D03*
X97790000Y-72390000D03*
X82550000Y-115570000D03*
X97790000Y-74930000D03*
X82550000Y-113030000D03*
X97790000Y-77470000D03*
X82550000Y-110490000D03*
X97790000Y-80010000D03*
X82550000Y-107950000D03*
X97790000Y-82550000D03*
X82550000Y-105410000D03*
X97790000Y-85090000D03*
X82550000Y-102870000D03*
X97790000Y-87630000D03*
X82550000Y-100330000D03*
X97790000Y-90170000D03*
X82550000Y-97790000D03*
X97790000Y-92710000D03*
X82550000Y-95250000D03*
X97790000Y-95250000D03*
X82550000Y-92710000D03*
X97790000Y-97790000D03*
X82550000Y-90170000D03*
X97790000Y-100330000D03*
X82550000Y-87630000D03*
X97790000Y-102870000D03*
X82550000Y-85090000D03*
X97790000Y-105410000D03*
X82550000Y-82550000D03*
X97790000Y-107950000D03*
X82550000Y-80010000D03*
X97790000Y-110490000D03*
X82550000Y-77470000D03*
X97790000Y-113030000D03*
X82550000Y-74930000D03*
X97790000Y-115570000D03*
X82550000Y-72390000D03*
X97790000Y-118110000D03*
D12*
X82550000Y-69850000D03*
D24*
X77470000Y-70270000D03*
X77470000Y-75270000D03*
D13*
X161290000Y-68580000D03*
X146050000Y-101600000D03*
X161290000Y-71120000D03*
X146050000Y-99060000D03*
X161290000Y-73660000D03*
X146050000Y-96520000D03*
X161290000Y-76200000D03*
X146050000Y-93980000D03*
X161290000Y-78740000D03*
X146050000Y-91440000D03*
X161290000Y-81280000D03*
X146050000Y-88900000D03*
X161290000Y-83820000D03*
X146050000Y-86360000D03*
X161290000Y-86360000D03*
X146050000Y-83820000D03*
X161290000Y-88900000D03*
X146050000Y-81280000D03*
X161290000Y-91440000D03*
X146050000Y-78740000D03*
X161290000Y-93980000D03*
X146050000Y-76200000D03*
X161290000Y-96520000D03*
X146050000Y-73660000D03*
X161290000Y-99060000D03*
X146050000Y-71120000D03*
X161290000Y-101600000D03*
D12*
X146050000Y-68580000D03*
D24*
X224790000Y-96520000D03*
X224790000Y-88900000D03*
X209550000Y-88900000D03*
D15*
X209550000Y-96520000D03*
D24*
X106680000Y-119460000D03*
X106680000Y-124460000D03*
D14*
X210820000Y-119380000D03*
D24*
X200660000Y-119380000D03*
D27*
X71120000Y-71300000D03*
X71120000Y-76200000D03*
D24*
X77470000Y-78820000D03*
X77470000Y-83820000D03*
X175260000Y-52150000D03*
X175260000Y-57150000D03*
X77470000Y-52150000D03*
X77470000Y-57150000D03*
X161290000Y-64770000D03*
X156290000Y-64770000D03*
D28*
X51943000Y-120459000D03*
X51943000Y-117909000D03*
X51943000Y-115359000D03*
X51943000Y-112809000D03*
X51943000Y-110259000D03*
X51943000Y-107709000D03*
X51943000Y-105159000D03*
X51943000Y-102609000D03*
X51943000Y-100059000D03*
X51943000Y-97509000D03*
X51943000Y-94959000D03*
X51943000Y-92409000D03*
X51943000Y-89859000D03*
X51943000Y-87309000D03*
X51943000Y-84759000D03*
X51943000Y-82209000D03*
X51943000Y-79659000D03*
X51943000Y-77109000D03*
X51943000Y-74559000D03*
X51943000Y-72009000D03*
D24*
X107950000Y-85170000D03*
X107950000Y-90170000D03*
X106680000Y-68660000D03*
X106680000Y-73660000D03*
X106680000Y-57070000D03*
X106680000Y-52070000D03*
X104140000Y-90090000D03*
X104140000Y-85090000D03*
X190580000Y-63500000D03*
X195580000Y-63500000D03*
D14*
X234950000Y-82550000D03*
D24*
X224790000Y-82550000D03*
X234950000Y-78660000D03*
X234950000Y-73660000D03*
X219790000Y-64770000D03*
X224790000Y-64770000D03*
X212170000Y-64770000D03*
X217170000Y-64770000D03*
X228600000Y-74970000D03*
D15*
X228600000Y-77470000D03*
D14*
X224790000Y-55880000D03*
D24*
X214630000Y-55880000D03*
D14*
X224790000Y-50800000D03*
D24*
X214630000Y-50800000D03*
D23*
X82550000Y-59690000D03*
D22*
X97790000Y-52070000D03*
X85090000Y-59690000D03*
X95250000Y-52070000D03*
X87630000Y-59690000D03*
X92710000Y-52070000D03*
X90170000Y-59690000D03*
X90170000Y-52070000D03*
X92710000Y-59690000D03*
X87630000Y-52070000D03*
X95250000Y-59690000D03*
X85090000Y-52070000D03*
X97790000Y-59690000D03*
X82550000Y-52070000D03*
D23*
X180340000Y-59690000D03*
D22*
X195580000Y-52070000D03*
X182880000Y-59690000D03*
X193040000Y-52070000D03*
X185420000Y-59690000D03*
X190500000Y-52070000D03*
X187960000Y-59690000D03*
X187960000Y-52070000D03*
X190500000Y-59690000D03*
X185420000Y-52070000D03*
X193040000Y-59690000D03*
X182880000Y-52070000D03*
X195580000Y-59690000D03*
X180340000Y-52070000D03*
X111760000Y-85090000D03*
X134620000Y-92710000D03*
X114300000Y-85090000D03*
X132080000Y-92710000D03*
X116840000Y-85090000D03*
X129540000Y-92710000D03*
X119380000Y-85090000D03*
X127000000Y-92710000D03*
X121920000Y-85090000D03*
X124460000Y-92710000D03*
X124460000Y-85090000D03*
X121920000Y-92710000D03*
X127000000Y-85090000D03*
X119380000Y-92710000D03*
X129540000Y-85090000D03*
X116840000Y-92710000D03*
X132080000Y-85090000D03*
X114300000Y-92710000D03*
X134620000Y-85090000D03*
D23*
X111760000Y-92710000D03*
D22*
X111760000Y-68580000D03*
X134620000Y-76200000D03*
X114300000Y-68580000D03*
X132080000Y-76200000D03*
X116840000Y-68580000D03*
X129540000Y-76200000D03*
X119380000Y-68580000D03*
X127000000Y-76200000D03*
X121920000Y-68580000D03*
X124460000Y-76200000D03*
X124460000Y-68580000D03*
X121920000Y-76200000D03*
X127000000Y-68580000D03*
X119380000Y-76200000D03*
X129540000Y-68580000D03*
X116840000Y-76200000D03*
X132080000Y-68580000D03*
X114300000Y-76200000D03*
X134620000Y-68580000D03*
D23*
X111760000Y-76200000D03*
D22*
X111760000Y-52070000D03*
X134620000Y-59690000D03*
X114300000Y-52070000D03*
X132080000Y-59690000D03*
X116840000Y-52070000D03*
X129540000Y-59690000D03*
X119380000Y-52070000D03*
X127000000Y-59690000D03*
X121920000Y-52070000D03*
X124460000Y-59690000D03*
X124460000Y-52070000D03*
X121920000Y-59690000D03*
X127000000Y-52070000D03*
X119380000Y-59690000D03*
X129540000Y-52070000D03*
X116840000Y-59690000D03*
X132080000Y-52070000D03*
X114300000Y-59690000D03*
X134620000Y-52070000D03*
D23*
X111760000Y-59690000D03*
D29*
X78740000Y-67310000D03*
X85090000Y-95250000D03*
X167640000Y-57150000D03*
X95250000Y-55880000D03*
X134620000Y-64770000D03*
X111760000Y-64770000D03*
X106680000Y-61215010D03*
X110490000Y-63500000D03*
X105410000Y-58420000D03*
X101600000Y-74930000D03*
X175260000Y-135890000D03*
X146050000Y-60960000D03*
X105410000Y-86360000D03*
X101600000Y-67310000D03*
X101600000Y-91440000D03*
X101600000Y-86360000D03*
X123190000Y-87630000D03*
X101600000Y-83820000D03*
X127000000Y-82550000D03*
X101600000Y-80010000D03*
X101600000Y-77470000D03*
X109220000Y-77470000D03*
X110490000Y-80010000D03*
X200660000Y-64770000D03*
X168910000Y-55880000D03*
X71120000Y-67310000D03*
X74930000Y-67310000D03*
X62230000Y-82550000D03*
X105410000Y-110490000D03*
X95250000Y-111760000D03*
X59690000Y-84696000D03*
X77470000Y-88900000D03*
X77470000Y-115570000D03*
X62230000Y-97790000D03*
X172720000Y-105410000D03*
X97790000Y-127000000D03*
X104140000Y-111760000D03*
X60960000Y-96520000D03*
X85090000Y-111760000D03*
X106680000Y-109075010D03*
X172859034Y-107566285D03*
X64770000Y-89859000D03*
X106680000Y-114300000D03*
X64770000Y-100330000D03*
X100330000Y-128270000D03*
X172524136Y-102674135D03*
X93980000Y-115570000D03*
X68580000Y-102870000D03*
X68580000Y-87630000D03*
X105410000Y-113030000D03*
X69850000Y-104140000D03*
X69850000Y-86360000D03*
X59690000Y-76200000D03*
X210820000Y-45720000D03*
X68580000Y-76200000D03*
X63500000Y-99060000D03*
X59690000Y-97790000D03*
X67310000Y-101600000D03*
X111760000Y-132080000D03*
X182880000Y-91440000D03*
X185420000Y-86360000D03*
X186812338Y-89022338D03*
X187960000Y-87630000D03*
X191688601Y-91358601D03*
X92710000Y-120650000D03*
X88900000Y-92710000D03*
X172720000Y-139700000D03*
X91440000Y-93980000D03*
X101600000Y-116840000D03*
X171450000Y-137160000D03*
X69850000Y-53340000D03*
X66040000Y-95250000D03*
X66040000Y-81280000D03*
X100330000Y-52070000D03*
X163830000Y-54610000D03*
X195580000Y-55880000D03*
X203200000Y-63500000D03*
D30*
X124460000Y-127400000D02*
X124460000Y-127000000D01*
X82950000Y-105410000D02*
X82550000Y-105410000D01*
X124460000Y-127000000D02*
X124460000Y-126600000D01*
X124460000Y-127000000D02*
X124460000Y-124460000D01*
X124460000Y-124460000D02*
X123190000Y-123190000D01*
X88900000Y-123190000D02*
X86360000Y-120650000D01*
X123190000Y-123190000D02*
X88900000Y-123190000D01*
X86360000Y-120650000D02*
X86360000Y-106680000D01*
X86360000Y-106680000D02*
X85090000Y-105410000D01*
X85090000Y-105410000D02*
X82550000Y-105410000D01*
X82550000Y-102870000D02*
X82950000Y-102870000D01*
X127000000Y-119780000D02*
X124860000Y-121920000D01*
X127000000Y-119380000D02*
X127000000Y-119780000D01*
X88900000Y-121920000D02*
X87630000Y-120650000D01*
X124860000Y-121920000D02*
X88900000Y-121920000D01*
X87630000Y-120650000D02*
X87630000Y-104140000D01*
X87630000Y-104140000D02*
X86360000Y-102870000D01*
X86360000Y-102870000D02*
X82550000Y-102870000D01*
X82550000Y-95250000D02*
X82950000Y-95250000D01*
X161690000Y-71120000D02*
X161290000Y-71120000D01*
X161290000Y-71120000D02*
X160890000Y-71120000D01*
X160020000Y-71120000D02*
X161290000Y-71120000D01*
X156210000Y-74930000D02*
X160020000Y-71120000D01*
X111760000Y-93110000D02*
X112885010Y-94235010D01*
X111760000Y-92710000D02*
X111760000Y-93110000D01*
X156210000Y-86360000D02*
X156210000Y-74930000D01*
X135085995Y-94235010D02*
X136611005Y-92710000D01*
X136611005Y-92710000D02*
X149860000Y-92710000D01*
X112885010Y-94235010D02*
X135085995Y-94235010D01*
X149860000Y-92710000D02*
X156210000Y-86360000D01*
X78740000Y-55880000D02*
X78740000Y-67310000D01*
X80010000Y-54610000D02*
X78740000Y-55880000D01*
X88900000Y-54610000D02*
X80010000Y-54610000D01*
X90170000Y-52070000D02*
X90170000Y-53340000D01*
X90170000Y-53340000D02*
X88900000Y-54610000D01*
X82550000Y-95250000D02*
X85090000Y-95250000D01*
X85090000Y-95250000D02*
X85090000Y-95250000D01*
X82550000Y-72390000D02*
X82150000Y-72390000D01*
X161690000Y-88900000D02*
X161290000Y-88900000D01*
X167640000Y-82950000D02*
X161690000Y-88900000D01*
X167640000Y-57150000D02*
X167640000Y-82950000D01*
X82550000Y-69850000D02*
X82550000Y-59690000D01*
X93431004Y-55880000D02*
X86360000Y-55880000D01*
X85090000Y-57150000D02*
X85090000Y-59690000D01*
X86360000Y-55880000D02*
X85090000Y-57150000D01*
X93431004Y-55880000D02*
X95250000Y-55880000D01*
X134620000Y-68580000D02*
X134620000Y-64770000D01*
X134620000Y-64770000D02*
X134620000Y-64770000D01*
X106935010Y-61215010D02*
X110490000Y-64770000D01*
X110490000Y-64770000D02*
X111760000Y-64770000D01*
X160890000Y-83820000D02*
X161290000Y-83820000D01*
X105410000Y-58420000D02*
X110490000Y-63500000D01*
X82470000Y-52150000D02*
X82550000Y-52070000D01*
D31*
X77470000Y-52150000D02*
X82470000Y-52150000D01*
D30*
X82550000Y-52070000D02*
X82550000Y-51670000D01*
X111680000Y-68660000D02*
X111760000Y-68580000D01*
D31*
X106680000Y-68660000D02*
X111680000Y-68660000D01*
D30*
X111760000Y-68580000D02*
X111760000Y-68180000D01*
D31*
X106680000Y-49530000D02*
X106680000Y-52070000D01*
X106680000Y-52070000D02*
X111760000Y-52070000D01*
D30*
X180260000Y-52150000D02*
X180340000Y-52070000D01*
D31*
X175260000Y-52150000D02*
X180260000Y-52150000D01*
X195580000Y-63500000D02*
X195580000Y-68580000D01*
X161290000Y-64770000D02*
X161290000Y-68580000D01*
D30*
X111680000Y-85170000D02*
X111760000Y-85090000D01*
X195580000Y-68580000D02*
X195980000Y-68580000D01*
D31*
X199390000Y-71990000D02*
X199390000Y-97790000D01*
X198120000Y-99060000D02*
X195580000Y-99060000D01*
X199390000Y-97790000D02*
X198120000Y-99060000D01*
D30*
X111760000Y-52070000D02*
X111760000Y-51670000D01*
D31*
X106680000Y-52070000D02*
X105410000Y-52070000D01*
X105410000Y-52070000D02*
X104140000Y-53340000D01*
X104140000Y-53340000D02*
X104140000Y-63500000D01*
X175260000Y-49530000D02*
X175260000Y-52150000D01*
X104220000Y-68660000D02*
X104140000Y-68580000D01*
X106680000Y-68660000D02*
X104220000Y-68660000D01*
X104140000Y-63500000D02*
X104140000Y-68580000D01*
X104140000Y-68580000D02*
X104140000Y-82630000D01*
X106680000Y-119380000D02*
X111760000Y-119380000D01*
X106680000Y-49530000D02*
X106680000Y-48260000D01*
X115170000Y-48260000D02*
X106680000Y-48260000D01*
X175260000Y-49530000D02*
X175260000Y-48260000D01*
X181610000Y-48260000D02*
X175260000Y-48260000D01*
X175260000Y-48260000D02*
X173990000Y-48260000D01*
X195580000Y-63500000D02*
X199390000Y-63500000D01*
X199390000Y-71990000D02*
X199390000Y-63500000D01*
X77470000Y-52150000D02*
X77470000Y-48260000D01*
X106680000Y-48260000D02*
X77470000Y-48260000D01*
X181610000Y-48260000D02*
X196850000Y-48260000D01*
X196850000Y-48260000D02*
X198120000Y-48260000D01*
X199390000Y-49530000D02*
X199390000Y-48260000D01*
X199390000Y-63500000D02*
X199390000Y-49530000D01*
X196850000Y-48260000D02*
X199390000Y-48260000D01*
X221850000Y-73660000D02*
X222250000Y-73660000D01*
X209550000Y-77470000D02*
X209550000Y-73660000D01*
X209550000Y-77470000D02*
X211350000Y-77470000D01*
X217170000Y-78740000D02*
X219710000Y-76200000D01*
X219710000Y-76200000D02*
X222250000Y-73660000D01*
X211859999Y-77979999D02*
X211720000Y-77840000D01*
X211350000Y-77470000D02*
X211720000Y-77840000D01*
X224790000Y-73660000D02*
X222250000Y-73660000D01*
X227330000Y-71120000D02*
X224790000Y-73660000D01*
X227330000Y-50800000D02*
X227330000Y-71120000D01*
X199390000Y-48260000D02*
X224790000Y-48260000D01*
X224790000Y-48260000D02*
X227330000Y-50800000D01*
X211720000Y-77840000D02*
X212355000Y-78475000D01*
X212355000Y-78475000D02*
X212620000Y-78740000D01*
X193380000Y-104880000D02*
X195180000Y-106680000D01*
X193380000Y-100860000D02*
X193380000Y-104880000D01*
X195180000Y-99060000D02*
X193380000Y-100860000D01*
X195580000Y-99060000D02*
X195180000Y-99060000D01*
X175260000Y-128270000D02*
X175260000Y-129540000D01*
X173990000Y-127000000D02*
X175260000Y-128270000D01*
X111760000Y-116840000D02*
X113030000Y-115570000D01*
X111760000Y-119380000D02*
X111760000Y-116840000D01*
X113030000Y-115570000D02*
X167640000Y-115570000D01*
X167640000Y-115570000D02*
X168910000Y-116840000D01*
X173990000Y-127000000D02*
X168910000Y-127000000D01*
X168910000Y-116840000D02*
X168910000Y-127000000D01*
X168910000Y-139700000D02*
X168910000Y-127000000D01*
X171450000Y-142240000D02*
X168910000Y-139700000D01*
X161290000Y-64770000D02*
X161290000Y-48260000D01*
X115170000Y-48260000D02*
X161290000Y-48260000D01*
X161290000Y-48260000D02*
X173990000Y-48260000D01*
X212620000Y-78740000D02*
X214630000Y-78740000D01*
X214630000Y-78740000D02*
X217170000Y-78740000D01*
X212620000Y-80750000D02*
X209550000Y-83820000D01*
X212620000Y-78740000D02*
X212620000Y-80750000D01*
X209550000Y-83820000D02*
X209550000Y-87630000D01*
X209550000Y-87630000D02*
X209550000Y-88900000D01*
X59443000Y-82209000D02*
X51943000Y-82209000D01*
X60960000Y-80692000D02*
X59443000Y-82209000D01*
X60960000Y-55880000D02*
X60960000Y-80692000D01*
X64690000Y-52150000D02*
X77470000Y-52150000D01*
X60960000Y-55880000D02*
X64690000Y-52150000D01*
X104140000Y-82630000D02*
X104140000Y-85090000D01*
X107870000Y-85090000D02*
X107950000Y-85170000D01*
X108030000Y-85090000D02*
X107950000Y-85170000D01*
X111760000Y-85090000D02*
X108030000Y-85090000D01*
X104140000Y-86360000D02*
X102870000Y-87630000D01*
X104140000Y-85090000D02*
X104140000Y-86360000D01*
X97790000Y-87630000D02*
X102870000Y-87630000D01*
X107950000Y-86360000D02*
X107950000Y-85170000D01*
X102870000Y-87630000D02*
X106680000Y-87630000D01*
X106680000Y-87630000D02*
X107950000Y-86360000D01*
X215900000Y-130730000D02*
X215900000Y-124460000D01*
X215820000Y-130810000D02*
X215900000Y-130730000D01*
X203200000Y-142240000D02*
X212090000Y-142240000D01*
X215820000Y-138510000D02*
X215820000Y-130810000D01*
X212090000Y-142240000D02*
X215820000Y-138510000D01*
X198120000Y-108820000D02*
X198120000Y-142240000D01*
X195980000Y-106680000D02*
X198120000Y-108820000D01*
X195580000Y-106680000D02*
X195980000Y-106680000D01*
X203200000Y-142240000D02*
X198120000Y-142240000D01*
X198120000Y-142240000D02*
X171450000Y-142240000D01*
D30*
X101600000Y-74930000D02*
X101600000Y-67310000D01*
X134620000Y-60090000D02*
X137160000Y-62630000D01*
X134620000Y-59690000D02*
X134620000Y-60090000D01*
X134620000Y-74750000D02*
X134620000Y-76200000D01*
X137160000Y-72210000D02*
X134620000Y-74750000D01*
X137160000Y-62630000D02*
X137160000Y-72210000D01*
X134620000Y-76600000D02*
X137160000Y-79140000D01*
X134620000Y-76200000D02*
X134620000Y-76600000D01*
X134620000Y-91260000D02*
X134620000Y-92710000D01*
X137160000Y-88720000D02*
X134620000Y-91260000D01*
X137160000Y-79140000D02*
X137160000Y-88720000D01*
X106680000Y-73660000D02*
X106680000Y-74930000D01*
X107950000Y-76200000D02*
X111760000Y-76200000D01*
X106680000Y-74930000D02*
X107950000Y-76200000D01*
X215030000Y-76200000D02*
X214630000Y-76200000D01*
X175260000Y-132080000D02*
X175260000Y-135890000D01*
X175260000Y-135890000D02*
X175260000Y-135890000D01*
D31*
X146050000Y-68580000D02*
X146050000Y-60960000D01*
D30*
X146050000Y-60960000D02*
X146050000Y-60960000D01*
X106680000Y-85090000D02*
X105410000Y-86360000D01*
X106680000Y-73660000D02*
X106680000Y-85090000D01*
X195580000Y-59290000D02*
X195580000Y-59690000D01*
X90170000Y-59690000D02*
X92710000Y-59690000D01*
X223658630Y-64770000D02*
X218440000Y-69988630D01*
X224790000Y-64770000D02*
X223658630Y-64770000D01*
X218440000Y-69988630D02*
X218440000Y-72390000D01*
X217170000Y-73660000D02*
X214630000Y-73660000D01*
X218440000Y-72390000D02*
X217170000Y-73660000D01*
X234950000Y-76200000D02*
X234950000Y-73660000D01*
X233680000Y-77470000D02*
X234950000Y-76200000D01*
X222650000Y-76200000D02*
X223920000Y-77470000D01*
X222250000Y-76200000D02*
X222650000Y-76200000D01*
X223920000Y-77470000D02*
X228600000Y-77470000D01*
X228600000Y-77470000D02*
X233680000Y-77470000D01*
X100330000Y-90170000D02*
X97790000Y-90170000D01*
X101600000Y-91440000D02*
X100330000Y-90170000D01*
X101999999Y-91839999D02*
X101600000Y-91440000D01*
X104845021Y-94685021D02*
X101999999Y-91839999D01*
X135272394Y-94685021D02*
X104845021Y-94685021D01*
X135977415Y-93980000D02*
X135272394Y-94685021D01*
X146050000Y-93980000D02*
X135977415Y-93980000D01*
X146050000Y-96520000D02*
X101600000Y-96520000D01*
X101600000Y-96520000D02*
X97790000Y-92710000D01*
X99060000Y-96520000D02*
X97790000Y-95250000D01*
X146050000Y-99060000D02*
X101600000Y-99060000D01*
X101600000Y-99060000D02*
X99060000Y-96520000D01*
X114300000Y-76200000D02*
X114300000Y-82550000D01*
X114300000Y-91260000D02*
X114300000Y-92710000D01*
X113174990Y-90134990D02*
X114300000Y-91260000D01*
X113174990Y-83675010D02*
X113174990Y-90134990D01*
X114300000Y-82550000D02*
X113174990Y-83675010D01*
X114300000Y-60090000D02*
X113030000Y-61360000D01*
X114300000Y-59690000D02*
X114300000Y-60090000D01*
X113030000Y-61360000D02*
X113030000Y-73660000D01*
X113030000Y-73660000D02*
X114300000Y-74930000D01*
X114300000Y-74930000D02*
X114300000Y-76200000D01*
X116840000Y-91260000D02*
X116840000Y-92710000D01*
X115570000Y-89990000D02*
X116840000Y-91260000D01*
X115570000Y-83820000D02*
X115570000Y-89990000D01*
X116840000Y-82550000D02*
X115570000Y-83820000D01*
X116840000Y-76200000D02*
X116840000Y-82550000D01*
X116840000Y-60090000D02*
X115570000Y-61360000D01*
X116840000Y-59690000D02*
X116840000Y-60090000D01*
X115570000Y-61360000D02*
X115570000Y-73660000D01*
X115570000Y-73660000D02*
X116840000Y-74930000D01*
X116840000Y-74930000D02*
X116840000Y-76200000D01*
X119380000Y-76200000D02*
X119380000Y-82550000D01*
X119380000Y-82550000D02*
X118110000Y-83820000D01*
X118110000Y-83820000D02*
X118110000Y-90170000D01*
X118110000Y-90170000D02*
X119380000Y-91440000D01*
X119380000Y-91440000D02*
X119380000Y-92710000D01*
X119380000Y-60090000D02*
X118110000Y-61360000D01*
X119380000Y-59690000D02*
X119380000Y-60090000D01*
X118110000Y-61360000D02*
X118110000Y-73660000D01*
X118110000Y-73660000D02*
X119380000Y-74930000D01*
X119380000Y-74930000D02*
X119380000Y-76200000D01*
X121920000Y-76200000D02*
X121920000Y-82550000D01*
X121920000Y-82550000D02*
X120650000Y-83820000D01*
X120650000Y-83820000D02*
X120650000Y-90170000D01*
X120650000Y-90170000D02*
X121920000Y-91440000D01*
X121920000Y-91440000D02*
X121920000Y-92710000D01*
X121920000Y-60090000D02*
X120650000Y-61360000D01*
X121920000Y-59690000D02*
X121920000Y-60090000D01*
X120650000Y-61360000D02*
X120650000Y-73660000D01*
X120650000Y-73660000D02*
X121920000Y-74930000D01*
X121920000Y-74930000D02*
X121920000Y-76200000D01*
X124460000Y-82550000D02*
X123190000Y-83820000D01*
X123190000Y-83820000D02*
X123190000Y-87630000D01*
X124460000Y-76200000D02*
X124460000Y-82550000D01*
X123190000Y-90170000D02*
X124460000Y-91440000D01*
X124460000Y-91440000D02*
X124460000Y-92710000D01*
X124460000Y-60090000D02*
X123190000Y-61360000D01*
X124460000Y-59690000D02*
X124460000Y-60090000D01*
X124460000Y-74750000D02*
X124460000Y-76200000D01*
X123190000Y-73480000D02*
X124460000Y-74750000D01*
X123190000Y-61360000D02*
X123190000Y-73480000D01*
X82550000Y-82550000D02*
X91440000Y-82550000D01*
X91440000Y-82550000D02*
X95250000Y-86360000D01*
X123190000Y-87630000D02*
X123190000Y-90170000D01*
X95250000Y-86360000D02*
X101600000Y-86360000D01*
X127000000Y-91440000D02*
X127000000Y-92710000D01*
X125730000Y-90170000D02*
X127000000Y-91440000D01*
X125730000Y-83820000D02*
X125730000Y-90170000D01*
X127000000Y-76200000D02*
X127000000Y-82550000D01*
X127000000Y-82550000D02*
X125730000Y-83820000D01*
X127000000Y-60090000D02*
X125730000Y-61360000D01*
X127000000Y-59690000D02*
X127000000Y-60090000D01*
X127000000Y-74750000D02*
X127000000Y-76200000D01*
X125730000Y-73480000D02*
X127000000Y-74750000D01*
X125730000Y-61360000D02*
X125730000Y-73480000D01*
X82550000Y-80010000D02*
X92710000Y-80010000D01*
X92710000Y-80010000D02*
X96520000Y-83820000D01*
X96520000Y-83820000D02*
X101600000Y-83820000D01*
X129540000Y-76200000D02*
X129540000Y-82550000D01*
X129540000Y-82550000D02*
X128270000Y-83820000D01*
X128270000Y-83820000D02*
X128270000Y-90170000D01*
X128270000Y-90170000D02*
X129540000Y-91440000D01*
X129540000Y-91440000D02*
X129540000Y-92710000D01*
X129540000Y-60090000D02*
X128270000Y-61360000D01*
X129540000Y-59690000D02*
X129540000Y-60090000D01*
X129540000Y-74750000D02*
X129540000Y-76200000D01*
X128270000Y-73480000D02*
X129540000Y-74750000D01*
X128270000Y-61360000D02*
X128270000Y-73480000D01*
X95250000Y-77470000D02*
X96664990Y-78884990D01*
X82550000Y-77470000D02*
X95250000Y-77470000D01*
X96664990Y-78884990D02*
X100474990Y-78884990D01*
X100474990Y-78884990D02*
X101600000Y-80010000D01*
X132080000Y-82550000D02*
X130810000Y-83820000D01*
X132080000Y-76200000D02*
X132080000Y-82550000D01*
X130810000Y-83820000D02*
X130810000Y-90170000D01*
X130810000Y-90170000D02*
X132080000Y-91440000D01*
X132080000Y-91440000D02*
X132080000Y-92710000D01*
X132080000Y-60090000D02*
X130954990Y-61215010D01*
X132080000Y-59690000D02*
X132080000Y-60090000D01*
X130954990Y-61215010D02*
X130954990Y-73804990D01*
X130954990Y-73804990D02*
X132080000Y-74930000D01*
X132080000Y-74930000D02*
X132080000Y-76200000D01*
X109220000Y-77470000D02*
X109220000Y-78740000D01*
X109220000Y-78740000D02*
X110490000Y-80010000D01*
X110490000Y-80010000D02*
X110490000Y-80010000D01*
X84000000Y-74930000D02*
X82550000Y-74930000D01*
X85414990Y-76344990D02*
X84000000Y-74930000D01*
X100474990Y-76344990D02*
X85414990Y-76344990D01*
X101600000Y-77470000D02*
X100474990Y-76344990D01*
X116840000Y-51670000D02*
X116840000Y-52070000D01*
X146050000Y-91440000D02*
X146450000Y-91440000D01*
X146450000Y-91440000D02*
X148590000Y-89300000D01*
X148590000Y-89300000D02*
X148590000Y-58420000D01*
X148590000Y-58420000D02*
X140714990Y-50544990D01*
X140714990Y-50544990D02*
X117965010Y-50544990D01*
X117965010Y-50544990D02*
X116840000Y-51670000D01*
X146050000Y-88900000D02*
X145650000Y-88900000D01*
X124960022Y-58050022D02*
X119380000Y-52470000D01*
X145650000Y-88900000D02*
X138430000Y-81680000D01*
X138430000Y-81680000D02*
X138430000Y-75969233D01*
X119380000Y-52470000D02*
X119380000Y-52070000D01*
X134971026Y-58050022D02*
X124960022Y-58050022D01*
X137899956Y-60978952D02*
X134971026Y-58050022D01*
X137899956Y-75439189D02*
X137899956Y-60978952D01*
X138430000Y-75969233D02*
X137899956Y-75439189D01*
X139249989Y-79959989D02*
X139249989Y-76152811D01*
X139249989Y-76152811D02*
X138349967Y-75252789D01*
X138349967Y-75252789D02*
X138349967Y-60792553D01*
X121920000Y-53976411D02*
X121920000Y-53520000D01*
X135157425Y-57600011D02*
X125543600Y-57600011D01*
X138349967Y-60792553D02*
X135157425Y-57600011D01*
X121920000Y-53520000D02*
X121920000Y-52070000D01*
X145650000Y-86360000D02*
X139249989Y-79959989D01*
X146050000Y-86360000D02*
X145650000Y-86360000D01*
X125543600Y-57600011D02*
X121920000Y-53976411D01*
X124460000Y-52470000D02*
X124460000Y-52070000D01*
X145650000Y-83820000D02*
X139700000Y-77870000D01*
X129140000Y-57150000D02*
X124460000Y-52470000D01*
X146050000Y-83820000D02*
X145650000Y-83820000D01*
X135343825Y-57150001D02*
X129140000Y-57150000D01*
X138799978Y-60606154D02*
X135343825Y-57150001D01*
X138799978Y-75066388D02*
X138799978Y-60606154D01*
X139700000Y-75966410D02*
X138799978Y-75066388D01*
X139700000Y-77870000D02*
X139700000Y-75966410D01*
X127000000Y-52070000D02*
X127000000Y-51670000D01*
X135530224Y-56699990D02*
X133769990Y-56699990D01*
X133769990Y-56699990D02*
X129540000Y-52470000D01*
X139249989Y-74879989D02*
X139249989Y-60419755D01*
X129540000Y-52470000D02*
X129540000Y-52070000D01*
X145650000Y-81280000D02*
X139249989Y-74879989D01*
X146050000Y-81280000D02*
X145650000Y-81280000D01*
X139249989Y-60419755D02*
X135530224Y-56699990D01*
X145650000Y-78740000D02*
X139700000Y-72790000D01*
X146050000Y-78740000D02*
X145650000Y-78740000D01*
X132080000Y-52470000D02*
X132080000Y-52070000D01*
X139700000Y-60090000D02*
X132080000Y-52470000D01*
X139700000Y-72790000D02*
X139700000Y-60090000D01*
X132080000Y-68180000D02*
X132080000Y-68580000D01*
X99060000Y-97790000D02*
X97790000Y-97790000D01*
X101600000Y-100330000D02*
X99060000Y-97790000D01*
X157480000Y-100330000D02*
X101600000Y-100330000D01*
X161290000Y-101600000D02*
X158750000Y-101600000D01*
X158750000Y-101600000D02*
X157480000Y-100330000D01*
X97790000Y-100330000D02*
X100330000Y-100330000D01*
X100330000Y-100330000D02*
X102819988Y-102819988D01*
X161690000Y-99060000D02*
X161290000Y-99060000D01*
X162815010Y-100185010D02*
X161690000Y-99060000D01*
X162815010Y-102065994D02*
X162815010Y-100185010D01*
X162061016Y-102819988D02*
X162815010Y-102065994D01*
X102819988Y-102819988D02*
X162061016Y-102819988D01*
X99240000Y-102870000D02*
X100510000Y-104140000D01*
X97790000Y-102870000D02*
X99240000Y-102870000D01*
X161690000Y-96520000D02*
X161290000Y-96520000D01*
X163265021Y-98095021D02*
X161690000Y-96520000D01*
X163265021Y-102252394D02*
X163265021Y-98095021D01*
X161377415Y-104140000D02*
X163265021Y-102252394D01*
X100510000Y-104140000D02*
X161377415Y-104140000D01*
X160743823Y-105410000D02*
X163830000Y-102323823D01*
X97790000Y-105410000D02*
X160743823Y-105410000D01*
X161690000Y-93980000D02*
X161290000Y-93980000D01*
X163830000Y-96120000D02*
X161690000Y-93980000D01*
X163830000Y-102323823D02*
X163830000Y-96120000D01*
X132080000Y-85090000D02*
X132080000Y-85490000D01*
X87630000Y-59290000D02*
X89770000Y-57150000D01*
X87630000Y-59690000D02*
X87630000Y-59290000D01*
X89770000Y-57150000D02*
X96520000Y-57150000D01*
X97790000Y-55880000D02*
X97790000Y-52070000D01*
X96520000Y-57150000D02*
X97790000Y-55880000D01*
X195180000Y-96520000D02*
X195580000Y-96520000D01*
X180340000Y-60090000D02*
X186290000Y-66040000D01*
X186290000Y-66040000D02*
X186690000Y-66040000D01*
X186690000Y-66040000D02*
X192734979Y-72084979D01*
X192734979Y-72084979D02*
X194553975Y-72084979D01*
X180340000Y-59690000D02*
X180340000Y-60090000D01*
X198120000Y-94380000D02*
X195980000Y-96520000D01*
X195980000Y-96520000D02*
X195580000Y-96520000D01*
X198120000Y-73660000D02*
X198120000Y-94380000D01*
X196850000Y-72390000D02*
X198120000Y-73660000D01*
X194858995Y-72390000D02*
X196850000Y-72390000D01*
X194553975Y-72084979D02*
X194858995Y-72390000D01*
X201930000Y-66040000D02*
X200660000Y-64770000D01*
X201930000Y-100330000D02*
X201930000Y-66040000D01*
X195580000Y-101600000D02*
X200660000Y-101600000D01*
X200660000Y-101600000D02*
X201930000Y-100330000D01*
X185420000Y-59690000D02*
X185420000Y-60090000D01*
X190500000Y-59290000D02*
X190500000Y-59690000D01*
X189374990Y-58164990D02*
X190500000Y-59290000D01*
X186545010Y-58164990D02*
X189374990Y-58164990D01*
X185420000Y-59290000D02*
X186545010Y-58164990D01*
X190500000Y-59690000D02*
X193040000Y-59690000D01*
X185420000Y-59290000D02*
X185420000Y-59690000D01*
X182010000Y-55880000D02*
X185420000Y-59290000D01*
X168910000Y-55880000D02*
X182010000Y-55880000D01*
X224790000Y-59690000D02*
X224790000Y-55880000D01*
X217170000Y-64770000D02*
X219790000Y-64770000D01*
X219790000Y-64770000D02*
X222250000Y-64770000D01*
X224790000Y-62230000D02*
X224790000Y-59690000D01*
X222250000Y-64770000D02*
X224790000Y-62230000D01*
X228600000Y-74970000D02*
X228600000Y-72390000D01*
X232410000Y-68580000D02*
X234950000Y-68580000D01*
X228600000Y-72390000D02*
X232410000Y-68580000D01*
X234950000Y-78660000D02*
X234950000Y-82550000D01*
X74930000Y-67310000D02*
X71120000Y-67310000D01*
X62795685Y-82550000D02*
X62230000Y-82550000D01*
X74534998Y-82550000D02*
X62795685Y-82550000D01*
X78489988Y-86504990D02*
X74534998Y-82550000D01*
X90314990Y-86504990D02*
X78489988Y-86504990D01*
X93980000Y-90170000D02*
X90314990Y-86504990D01*
X93980000Y-90170000D02*
X93980000Y-104140000D01*
X99315010Y-110955994D02*
X98511004Y-111760000D01*
X99315010Y-110024006D02*
X99315010Y-110955994D01*
X98655994Y-109364990D02*
X99315010Y-110024006D01*
X97213986Y-109364990D02*
X98655994Y-109364990D01*
X93980000Y-104140000D02*
X93980000Y-106131004D01*
X93980000Y-106131004D02*
X97213986Y-109364990D01*
X98511004Y-111760000D02*
X95250000Y-111760000D01*
X95250000Y-111760000D02*
X95250000Y-111760000D01*
X195180000Y-76200000D02*
X195580000Y-76200000D01*
X105410000Y-110490000D02*
X172720000Y-110490000D01*
X172720000Y-110490000D02*
X173990000Y-109220000D01*
X173990000Y-109220000D02*
X173990000Y-73660000D01*
X175260000Y-72390000D02*
X191370000Y-72390000D01*
X173990000Y-73660000D02*
X175260000Y-72390000D01*
X191370000Y-72390000D02*
X195180000Y-76200000D01*
X59690000Y-84696000D02*
X74536000Y-84696000D01*
X74536000Y-84696000D02*
X77470000Y-87630000D01*
X77470000Y-87630000D02*
X77470000Y-88900000D01*
X77470000Y-115570000D02*
X82550000Y-115570000D01*
X97790000Y-127000000D02*
X72390000Y-127000000D01*
X170180000Y-107950000D02*
X105497414Y-107950000D01*
X101600000Y-118110000D02*
X99240000Y-118110000D01*
X99240000Y-118110000D02*
X97790000Y-118110000D01*
X102870000Y-116840000D02*
X101600000Y-118110000D01*
X102870000Y-110577414D02*
X102870000Y-116840000D01*
X105497414Y-107950000D02*
X102870000Y-110577414D01*
X172720000Y-105410000D02*
X170180000Y-107950000D01*
X72390000Y-127000000D02*
X67310000Y-127000000D01*
X67310000Y-127000000D02*
X66040000Y-125730000D01*
X66040000Y-125730000D02*
X66040000Y-113030000D01*
X64770000Y-97790000D02*
X62230000Y-97790000D01*
X66040000Y-120650000D02*
X66040000Y-99060000D01*
X66040000Y-99060000D02*
X64770000Y-97790000D01*
X195580000Y-91440000D02*
X195980000Y-91440000D01*
X195980000Y-91440000D02*
X197105010Y-90314990D01*
X175260000Y-82550000D02*
X175260000Y-82550000D01*
X85090000Y-111760000D02*
X85090000Y-111760000D01*
X64770000Y-96520000D02*
X60960000Y-96520000D01*
X85090000Y-111760000D02*
X80010000Y-111760000D01*
X80010000Y-111760000D02*
X64770000Y-96520000D01*
X197105010Y-90314990D02*
X197105010Y-84075010D01*
X197105010Y-84075010D02*
X197105010Y-83354006D01*
X197105010Y-78274006D02*
X197105010Y-84075010D01*
X104140000Y-111760000D02*
X173990000Y-111760000D01*
X175260000Y-110490000D02*
X175260000Y-78740000D01*
X173990000Y-111760000D02*
X175260000Y-110490000D01*
X175260000Y-78740000D02*
X176530000Y-77470000D01*
X176530000Y-77470000D02*
X196301004Y-77470000D01*
X196301004Y-77470000D02*
X197105010Y-78274006D01*
X106680000Y-109075010D02*
X171594990Y-109075010D01*
X171594990Y-109075010D02*
X172864990Y-107805010D01*
X51943000Y-92409000D02*
X77771000Y-92409000D01*
X77771000Y-92409000D02*
X81280000Y-88900000D01*
X81280000Y-88900000D02*
X90170000Y-88900000D01*
X90170000Y-88900000D02*
X92710000Y-91440000D01*
X92710000Y-91440000D02*
X92710000Y-107950000D01*
X92710000Y-107950000D02*
X95250000Y-110490000D01*
X95250000Y-110490000D02*
X97790000Y-110490000D01*
X97390000Y-115570000D02*
X97790000Y-115570000D01*
X178814990Y-112015010D02*
X178814990Y-83354006D01*
X178814990Y-83354006D02*
X179618996Y-82550000D01*
X176530000Y-114300000D02*
X178814990Y-112015010D01*
X106680000Y-114300000D02*
X140970000Y-114300000D01*
X139700000Y-114300000D02*
X140970000Y-114300000D01*
X140970000Y-114300000D02*
X176530000Y-114300000D01*
X51943000Y-89859000D02*
X64770000Y-89859000D01*
X100330000Y-128270000D02*
X100330000Y-128270000D01*
X64770000Y-124460000D02*
X64770000Y-119380000D01*
X64770000Y-120016411D02*
X64770000Y-119380000D01*
X100330000Y-128270000D02*
X67310000Y-128270000D01*
X67310000Y-128270000D02*
X64770000Y-125730000D01*
X64770000Y-125730000D02*
X64770000Y-124460000D01*
X64770000Y-102870000D02*
X64770000Y-100330000D01*
X64770000Y-119380000D02*
X64770000Y-102870000D01*
X188830000Y-82550000D02*
X180340000Y-82550000D01*
X195180000Y-88900000D02*
X188830000Y-82550000D01*
X195580000Y-88900000D02*
X195180000Y-88900000D01*
X179618996Y-82550000D02*
X180340000Y-82550000D01*
X180340000Y-82550000D02*
X181806998Y-82550000D01*
X51943000Y-87309000D02*
X57618000Y-87309000D01*
X172124137Y-103074134D02*
X172524136Y-102674135D01*
X168518271Y-106680000D02*
X172124137Y-103074134D01*
X93980000Y-115570000D02*
X93980000Y-115570000D01*
X95105010Y-114444990D02*
X98366014Y-114444990D01*
X93980000Y-115570000D02*
X95105010Y-114444990D01*
X98366014Y-114444990D02*
X106131004Y-106680000D01*
X106680000Y-106680000D02*
X168518271Y-106680000D01*
X106131004Y-106680000D02*
X106680000Y-106680000D01*
X68580000Y-106680000D02*
X68580000Y-106680000D01*
X52264000Y-87630000D02*
X51943000Y-87309000D01*
X68580000Y-87630000D02*
X52264000Y-87630000D01*
X68580000Y-106680000D02*
X68580000Y-102870000D01*
X68580000Y-116840000D02*
X68580000Y-106680000D01*
X82550000Y-118110000D02*
X69850000Y-118110000D01*
X69850000Y-118110000D02*
X68580000Y-116840000D01*
X51943000Y-84759000D02*
X57618000Y-84759000D01*
X195180000Y-78740000D02*
X195580000Y-78740000D01*
X193040000Y-78740000D02*
X195580000Y-78740000D01*
X191770000Y-80010000D02*
X193040000Y-78740000D01*
X177800000Y-80010000D02*
X191770000Y-80010000D01*
X176530000Y-81280000D02*
X177800000Y-80010000D01*
X175260000Y-113030000D02*
X176530000Y-111760000D01*
X176530000Y-111760000D02*
X176530000Y-81280000D01*
X140970000Y-113030000D02*
X138430000Y-113030000D01*
X175260000Y-113030000D02*
X140970000Y-113030000D01*
X138430000Y-113030000D02*
X105410000Y-113030000D01*
X69850000Y-111760000D02*
X69850000Y-107950000D01*
X82550000Y-113030000D02*
X71120000Y-113030000D01*
X71120000Y-113030000D02*
X69850000Y-111760000D01*
X69850000Y-107950000D02*
X69850000Y-104140000D01*
X60294000Y-86360000D02*
X69850000Y-86360000D01*
X51943000Y-84759000D02*
X58693000Y-84759000D01*
X58693000Y-84759000D02*
X60294000Y-86360000D01*
X58781000Y-77109000D02*
X59690000Y-76200000D01*
X51943000Y-77109000D02*
X58781000Y-77109000D01*
X73660000Y-81280000D02*
X68580000Y-76200000D01*
X91440000Y-81280000D02*
X73660000Y-81280000D01*
X97790000Y-85090000D02*
X95250000Y-85090000D01*
X95250000Y-85090000D02*
X91440000Y-81280000D01*
X59690000Y-48788998D02*
X65298998Y-43180000D01*
X59690000Y-76200000D02*
X59690000Y-48788998D01*
X208280000Y-43180000D02*
X210820000Y-45720000D01*
X65298998Y-43180000D02*
X208280000Y-43180000D01*
X121920000Y-126600000D02*
X121920000Y-127000000D01*
X63500000Y-125730000D02*
X67310000Y-129540000D01*
X121920000Y-127400000D02*
X121920000Y-127000000D01*
X119780000Y-129540000D02*
X121920000Y-127400000D01*
X67310000Y-129540000D02*
X119780000Y-129540000D01*
X63500000Y-101600000D02*
X63500000Y-125730000D01*
X63500000Y-101600000D02*
X63500000Y-99060000D01*
X62230000Y-125730000D02*
X62230000Y-104140000D01*
X67310000Y-130810000D02*
X62230000Y-125730000D01*
X59690000Y-101600000D02*
X59690000Y-97790000D01*
X128270000Y-130810000D02*
X67310000Y-130810000D01*
X121920000Y-118980000D02*
X124060000Y-116840000D01*
X121920000Y-119380000D02*
X121920000Y-118980000D01*
X124060000Y-116840000D02*
X128270000Y-116840000D01*
X62230000Y-104140000D02*
X59690000Y-101600000D01*
X128270000Y-116840000D02*
X129540000Y-118110000D01*
X129540000Y-118110000D02*
X129540000Y-129540000D01*
X129540000Y-129540000D02*
X128270000Y-130810000D01*
X114300000Y-126600000D02*
X113174999Y-125474999D01*
X114300000Y-127000000D02*
X114300000Y-126600000D01*
X113174999Y-125474999D02*
X107330003Y-125474999D01*
X107330003Y-125474999D02*
X107075002Y-125730000D01*
X67310000Y-105410000D02*
X67310000Y-124460000D01*
X68580000Y-125730000D02*
X74930000Y-125730000D01*
X67310000Y-124460000D02*
X68580000Y-125730000D01*
X107075002Y-125730000D02*
X74930000Y-125730000D01*
X74930000Y-125730000D02*
X72392820Y-125730000D01*
X67310000Y-105410000D02*
X67310000Y-101600000D01*
X51943000Y-112809000D02*
X59469000Y-112809000D01*
X59469000Y-112809000D02*
X60960000Y-114300000D01*
X60960000Y-114300000D02*
X60960000Y-119352002D01*
X60960000Y-119352002D02*
X60960000Y-125730000D01*
X60960000Y-125730000D02*
X67310000Y-132080000D01*
X67310000Y-132080000D02*
X111760000Y-132080000D01*
X111760000Y-132080000D02*
X111760000Y-132080000D01*
X81643620Y-73515010D02*
X85234990Y-73515010D01*
X77470000Y-78820000D02*
X77470000Y-77688630D01*
X77470000Y-77688630D02*
X81643620Y-73515010D01*
X86360000Y-72390000D02*
X97790000Y-72390000D01*
X85234990Y-73515010D02*
X86360000Y-72390000D01*
X68540000Y-65880000D02*
X71120000Y-68460000D01*
X71120000Y-69850000D02*
X71120000Y-71300000D01*
X71120000Y-68460000D02*
X71120000Y-69850000D01*
X71120000Y-69850000D02*
X71120000Y-70030000D01*
X72148998Y-78820000D02*
X69850000Y-76521002D01*
X77470000Y-78820000D02*
X72148998Y-78820000D01*
X69850000Y-72570000D02*
X71120000Y-71300000D01*
X69850000Y-76521002D02*
X69850000Y-72570000D01*
X77230000Y-70030000D02*
X77470000Y-70270000D01*
X78269999Y-71069999D02*
X77470000Y-70270000D01*
X95120001Y-71069999D02*
X78269999Y-71069999D01*
X96340000Y-69850000D02*
X95120001Y-71069999D01*
X97790000Y-69850000D02*
X96340000Y-69850000D01*
X77050000Y-70270000D02*
X77470000Y-70270000D01*
X71120000Y-76200000D02*
X77050000Y-70270000D01*
X218400000Y-109220000D02*
X223190000Y-109220000D01*
X116840000Y-127000000D02*
X119380000Y-127000000D01*
X214630000Y-59690000D02*
X215900000Y-58420000D01*
X215900000Y-58420000D02*
X215900000Y-52070000D01*
X223520000Y-52070000D02*
X224790000Y-50800000D01*
X201930000Y-52070000D02*
X223520000Y-52070000D01*
X201930000Y-59690000D02*
X201930000Y-54610000D01*
X179940000Y-73660000D02*
X180340000Y-73660000D01*
X204470000Y-54610000D02*
X204470000Y-59690000D01*
X195492585Y-73660000D02*
X195580000Y-73660000D01*
X207010000Y-54610000D02*
X207010000Y-59690000D01*
X176530000Y-122641004D02*
X182880000Y-116291004D01*
X177800000Y-132080000D02*
X176530000Y-130810000D01*
X176530000Y-130810000D02*
X176530000Y-122641004D01*
X182880000Y-116291004D02*
X182880000Y-91440000D01*
X182880000Y-91440000D02*
X182880000Y-91440000D01*
X180740000Y-83820000D02*
X180340000Y-83820000D01*
X179070000Y-120737415D02*
X184150000Y-115657415D01*
X179070000Y-130810000D02*
X179070000Y-120737415D01*
X180340000Y-132080000D02*
X179070000Y-130810000D01*
X184150000Y-115657415D02*
X184150000Y-85090000D01*
X182880000Y-83820000D02*
X180340000Y-83820000D01*
X184150000Y-85090000D02*
X182880000Y-83820000D01*
X184068601Y-130891399D02*
X184068601Y-116921399D01*
X182880000Y-132080000D02*
X184068601Y-130891399D01*
X184068601Y-116921399D02*
X185420000Y-115570000D01*
X185420000Y-115570000D02*
X185420000Y-86360000D01*
X185420000Y-86360000D02*
X185420000Y-86360000D01*
X186771399Y-88981399D02*
X186771399Y-88981399D01*
X186812338Y-89588023D02*
X186812338Y-89022338D01*
X186771399Y-89628962D02*
X186812338Y-89588023D01*
X186771399Y-130728601D02*
X186771399Y-89628962D01*
X185420000Y-132080000D02*
X186771399Y-130728601D01*
X189148601Y-130891399D02*
X189148601Y-88818601D01*
X187960000Y-132080000D02*
X189148601Y-130891399D01*
X189148601Y-88818601D02*
X187960000Y-87630000D01*
X187960000Y-87630000D02*
X187960000Y-87630000D01*
X191688601Y-130891399D02*
X191688601Y-91358601D01*
X190500000Y-132080000D02*
X191688601Y-130891399D01*
X191688601Y-91358601D02*
X191688601Y-91358601D01*
X212090000Y-124460000D02*
X213360000Y-124460000D01*
X210820000Y-119380000D02*
X210820000Y-124460000D01*
X213360000Y-124460000D02*
X210820000Y-124460000D01*
X57618000Y-100059000D02*
X51943000Y-100059000D01*
X172720000Y-132080000D02*
X172720000Y-138430000D01*
X172720000Y-138430000D02*
X172720000Y-139700000D01*
X88900000Y-116840000D02*
X92710000Y-120650000D01*
X88900000Y-93275685D02*
X88900000Y-116840000D01*
X88900000Y-93275685D02*
X88900000Y-92710000D01*
X214630000Y-119380000D02*
X214630000Y-124460000D01*
X172720000Y-129540000D02*
X171450000Y-130810000D01*
X171450000Y-130810000D02*
X171450000Y-137160000D01*
X171450000Y-137160000D02*
X171450000Y-137160000D01*
X99060000Y-116840000D02*
X101600000Y-116840000D01*
X92710000Y-116840000D02*
X99060000Y-116840000D01*
X91440000Y-93980000D02*
X91440000Y-115570000D01*
X91440000Y-115570000D02*
X92710000Y-116840000D01*
X51943000Y-94959000D02*
X57618000Y-94959000D01*
X68580000Y-54610000D02*
X69850000Y-53340000D01*
X68580000Y-60960000D02*
X68580000Y-54610000D01*
X66040000Y-81280000D02*
X66040000Y-63500000D01*
X66040000Y-63500000D02*
X68580000Y-60960000D01*
X58693000Y-94959000D02*
X51943000Y-94959000D01*
X65749000Y-94959000D02*
X58693000Y-94959000D01*
X71120000Y-100330000D02*
X65749000Y-94959000D01*
X82550000Y-100330000D02*
X71120000Y-100330000D01*
X98190000Y-74930000D02*
X100330000Y-72790000D01*
X97790000Y-74930000D02*
X98190000Y-74930000D01*
X100330000Y-72790000D02*
X100330000Y-52070000D01*
X100330000Y-52070000D02*
X100330000Y-52070000D01*
X205740000Y-66040000D02*
X203200000Y-63500000D01*
X205740000Y-109220000D02*
X205740000Y-66040000D01*
X194310000Y-54610000D02*
X195580000Y-55880000D01*
X163830000Y-54610000D02*
X194310000Y-54610000D01*
M02*
