%FSLAX45Y45*%
G04 Gerber Fmt 4.5, Leading zero omitted, Abs format (unit mm)*
G04 Created by KiCad (PCBNEW (5.1.4)-1) date 2020-01-21 03:05:40*
%MOMM*%
%LPD*%
G04 APERTURE LIST*
%ADD10C,0.050000*%
%ADD11C,0.200000*%
%ADD12C,0.300000*%
G04 APERTURE END LIST*
D10*
X24003000Y-14732000D02*
X5842000Y-14732000D01*
X5842000Y-14732000D02*
X5842000Y-12319000D01*
X5842000Y-12319000D02*
X4572000Y-12319000D01*
X4572000Y-6985000D02*
X5842000Y-6985000D01*
X4572000Y-12319000D02*
X4572000Y-6985000D01*
X5842000Y-6985000D02*
X5842000Y-4191000D01*
X5842000Y-4191000D02*
X24003000Y-4191000D01*
X24003000Y-4191000D02*
X24003000Y-14732000D01*
D11*
D12*
X4855928Y-15200214D02*
X4855928Y-14900214D01*
X4927357Y-14900214D01*
X4970214Y-14914500D01*
X4998786Y-14943071D01*
X5013071Y-14971643D01*
X5027357Y-15028786D01*
X5027357Y-15071643D01*
X5013071Y-15128786D01*
X4998786Y-15157357D01*
X4970214Y-15185929D01*
X4927357Y-15200214D01*
X4855928Y-15200214D01*
X5155928Y-15200214D02*
X5155928Y-15000214D01*
X5155928Y-15057357D02*
X5170214Y-15028786D01*
X5184500Y-15014500D01*
X5213071Y-15000214D01*
X5241643Y-15000214D01*
X5341643Y-15200214D02*
X5341643Y-15000214D01*
X5341643Y-14900214D02*
X5327357Y-14914500D01*
X5341643Y-14928786D01*
X5355928Y-14914500D01*
X5341643Y-14900214D01*
X5341643Y-14928786D01*
X5527357Y-15200214D02*
X5498786Y-15185929D01*
X5484500Y-15157357D01*
X5484500Y-14900214D01*
X5684500Y-15200214D02*
X5655928Y-15185929D01*
X5641643Y-15157357D01*
X5641643Y-14900214D01*
X6027357Y-15200214D02*
X6027357Y-14900214D01*
X6127357Y-15114500D01*
X6227357Y-14900214D01*
X6227357Y-15200214D01*
X6498786Y-15200214D02*
X6498786Y-15043071D01*
X6484500Y-15014500D01*
X6455928Y-15000214D01*
X6398786Y-15000214D01*
X6370214Y-15014500D01*
X6498786Y-15185929D02*
X6470214Y-15200214D01*
X6398786Y-15200214D01*
X6370214Y-15185929D01*
X6355928Y-15157357D01*
X6355928Y-15128786D01*
X6370214Y-15100214D01*
X6398786Y-15085929D01*
X6470214Y-15085929D01*
X6498786Y-15071643D01*
X6641643Y-15000214D02*
X6641643Y-15300214D01*
X6641643Y-15014500D02*
X6670214Y-15000214D01*
X6727357Y-15000214D01*
X6755928Y-15014500D01*
X6770214Y-15028786D01*
X6784500Y-15057357D01*
X6784500Y-15143071D01*
X6770214Y-15171643D01*
X6755928Y-15185929D01*
X6727357Y-15200214D01*
X6670214Y-15200214D01*
X6641643Y-15185929D01*
X6913071Y-15171643D02*
X6927357Y-15185929D01*
X6913071Y-15200214D01*
X6898786Y-15185929D01*
X6913071Y-15171643D01*
X6913071Y-15200214D01*
X6913071Y-15014500D02*
X6927357Y-15028786D01*
X6913071Y-15043071D01*
X6898786Y-15028786D01*
X6913071Y-15014500D01*
X6913071Y-15043071D01*
M02*
