%FSLAX45Y45*%
G04 Gerber Fmt 4.5, Leading zero omitted, Abs format (unit mm)*
G04 Created by KiCad (PCBNEW (5.1.4)-1) date 2019-12-09 02:50:15*
%MOMM*%
%LPD*%
G04 APERTURE LIST*
%ADD10C,0.050000*%
%ADD11C,0.200000*%
%ADD12C,0.300000*%
G04 APERTURE END LIST*
D10*
X24003000Y-14732000D02*
X5842000Y-14732000D01*
X5842000Y-14732000D02*
X5842000Y-12319000D01*
X5842000Y-12319000D02*
X4572000Y-12319000D01*
X4572000Y-6985000D02*
X5842000Y-6985000D01*
X4572000Y-12319000D02*
X4572000Y-6985000D01*
X5842000Y-6985000D02*
X5842000Y-4191000D01*
X5842000Y-4191000D02*
X24003000Y-4191000D01*
X24003000Y-4191000D02*
X24003000Y-14732000D01*
D11*
X5913497Y-10013000D02*
X5953497Y-10053000D01*
X5953497Y-10013000D02*
X5913497Y-10053000D01*
X5949000Y-7600000D02*
X5989000Y-7640000D01*
X5989000Y-7600000D02*
X5949000Y-7640000D01*
X5949000Y-8449600D02*
X5989000Y-8489600D01*
X5989000Y-8449600D02*
X5949000Y-8489600D01*
X6203000Y-8235000D02*
X6243000Y-8275000D01*
X6243000Y-8235000D02*
X6203000Y-8275000D01*
X6203000Y-11537000D02*
X6243000Y-11577000D01*
X6243000Y-11537000D02*
X6203000Y-11577000D01*
X6330000Y-10140000D02*
X6370000Y-10180000D01*
X6370000Y-10140000D02*
X6330000Y-10180000D01*
X6457000Y-8965900D02*
X6497000Y-9005900D01*
X6497000Y-8965900D02*
X6457000Y-9005900D01*
X6457000Y-11664000D02*
X6497000Y-11704000D01*
X6497000Y-11664000D02*
X6457000Y-11704000D01*
X6584000Y-8108000D02*
X6624000Y-8148000D01*
X6624000Y-8108000D02*
X6584000Y-8148000D01*
X6584000Y-9505000D02*
X6624000Y-9545000D01*
X6624000Y-9505000D02*
X6584000Y-9545000D01*
X6711000Y-8616000D02*
X6751000Y-8656000D01*
X6751000Y-8616000D02*
X6711000Y-8656000D01*
X6711000Y-10267000D02*
X6751000Y-10307000D01*
X6751000Y-10267000D02*
X6711000Y-10307000D01*
X6838000Y-9220900D02*
X6878000Y-9260900D01*
X6878000Y-9220900D02*
X6838000Y-9260900D01*
X6838000Y-10394000D02*
X6878000Y-10434000D01*
X6878000Y-10394000D02*
X6838000Y-10434000D01*
X6961184Y-7603816D02*
X7001184Y-7643816D01*
X7001184Y-7603816D02*
X6961184Y-7643816D01*
X6965000Y-5314000D02*
X7005000Y-5354000D01*
X7005000Y-5314000D02*
X6965000Y-5354000D01*
X6965000Y-11537000D02*
X7005000Y-11577000D01*
X7005000Y-11537000D02*
X6965000Y-11577000D01*
X6965000Y-11791000D02*
X7005000Y-11831000D01*
X7005000Y-11791000D02*
X6965000Y-11831000D01*
X7219000Y-11918000D02*
X7259000Y-11958000D01*
X7259000Y-11918000D02*
X7219000Y-11958000D01*
X7854000Y-6711000D02*
X7894000Y-6751000D01*
X7894000Y-6711000D02*
X7854000Y-6751000D01*
X8453497Y-11283000D02*
X8493497Y-11323000D01*
X8493497Y-11283000D02*
X8453497Y-11323000D01*
X8489000Y-9505000D02*
X8529000Y-9545000D01*
X8529000Y-9505000D02*
X8489000Y-9545000D01*
X8616000Y-9251000D02*
X8656000Y-9291000D01*
X8656000Y-9251000D02*
X8616000Y-9291000D01*
X9124000Y-9378000D02*
X9164000Y-9418000D01*
X9164000Y-9378000D02*
X9124000Y-9418000D01*
X9251000Y-12045000D02*
X9291000Y-12085000D01*
X9291000Y-12045000D02*
X9251000Y-12085000D01*
X9505000Y-5568000D02*
X9545000Y-5608000D01*
X9545000Y-5568000D02*
X9505000Y-5608000D01*
X10013000Y-10775000D02*
X10053000Y-10815000D01*
X10053000Y-10775000D02*
X10013000Y-10815000D01*
X10140000Y-9124000D02*
X10180000Y-9164000D01*
X10180000Y-9124000D02*
X10140000Y-9164000D01*
X10140000Y-11791000D02*
X10180000Y-11831000D01*
X10180000Y-11791000D02*
X10140000Y-11831000D01*
X10267000Y-7473000D02*
X10307000Y-7513000D01*
X10307000Y-7473000D02*
X10267000Y-7513000D01*
X10267000Y-7727000D02*
X10307000Y-7767000D01*
X10307000Y-7727000D02*
X10267000Y-7767000D01*
X10267000Y-8108000D02*
X10307000Y-8148000D01*
X10307000Y-8108000D02*
X10267000Y-8148000D01*
X10267000Y-8362000D02*
X10307000Y-8402000D01*
X10307000Y-8362000D02*
X10267000Y-8402000D01*
X10267000Y-8616000D02*
X10307000Y-8656000D01*
X10307000Y-8616000D02*
X10267000Y-8656000D01*
X10267000Y-11537000D02*
X10307000Y-11577000D01*
X10307000Y-11537000D02*
X10267000Y-11577000D01*
X10267000Y-12045000D02*
X10307000Y-12085000D01*
X10307000Y-12045000D02*
X10267000Y-12085000D01*
X10394000Y-11156000D02*
X10434000Y-11196000D01*
X10434000Y-11156000D02*
X10394000Y-11196000D01*
X10521000Y-5822000D02*
X10561000Y-5862000D01*
X10561000Y-5822000D02*
X10521000Y-5862000D01*
X10521000Y-11029000D02*
X10561000Y-11069000D01*
X10561000Y-11029000D02*
X10521000Y-11069000D01*
X10521000Y-11283000D02*
X10561000Y-11323000D01*
X10561000Y-11283000D02*
X10521000Y-11323000D01*
X10648000Y-6101501D02*
X10688000Y-6141501D01*
X10688000Y-6101501D02*
X10648000Y-6141501D01*
X10648000Y-8108000D02*
X10688000Y-8148000D01*
X10688000Y-8108000D02*
X10648000Y-8148000D01*
X10648000Y-10887501D02*
X10688000Y-10927501D01*
X10688000Y-10887501D02*
X10648000Y-10927501D01*
X10648000Y-11410000D02*
X10688000Y-11450000D01*
X10688000Y-11410000D02*
X10648000Y-11450000D01*
X10902000Y-7727000D02*
X10942000Y-7767000D01*
X10942000Y-7727000D02*
X10902000Y-7767000D01*
X11029000Y-6330000D02*
X11069000Y-6370000D01*
X11069000Y-6330000D02*
X11029000Y-6370000D01*
X11156000Y-6457000D02*
X11196000Y-6497000D01*
X11196000Y-6457000D02*
X11156000Y-6497000D01*
X11156000Y-8108000D02*
X11196000Y-8148000D01*
X11196000Y-8108000D02*
X11156000Y-8148000D01*
X11156000Y-13188000D02*
X11196000Y-13228000D01*
X11196000Y-13188000D02*
X11156000Y-13228000D01*
X12299000Y-8743000D02*
X12339000Y-8783000D01*
X12339000Y-8743000D02*
X12299000Y-8783000D01*
X12680000Y-8235000D02*
X12720000Y-8275000D01*
X12720000Y-8235000D02*
X12680000Y-8275000D01*
X13442000Y-6457000D02*
X13482000Y-6497000D01*
X13482000Y-6457000D02*
X13442000Y-6497000D01*
X16490000Y-5441000D02*
X16530000Y-5481000D01*
X16530000Y-5441000D02*
X16490000Y-5481000D01*
X17125000Y-13696000D02*
X17165000Y-13736000D01*
X17165000Y-13696000D02*
X17125000Y-13736000D01*
X17232414Y-10247414D02*
X17272414Y-10287414D01*
X17272414Y-10247414D02*
X17232414Y-10287414D01*
X17252000Y-10521000D02*
X17292000Y-10561000D01*
X17292000Y-10521000D02*
X17252000Y-10561000D01*
X17252000Y-13950000D02*
X17292000Y-13990000D01*
X17292000Y-13950000D02*
X17252000Y-13990000D01*
X17265903Y-10736629D02*
X17305903Y-10776629D01*
X17305903Y-10736629D02*
X17265903Y-10776629D01*
X17506000Y-8235000D02*
X17546000Y-8275000D01*
X17546000Y-8235000D02*
X17506000Y-8275000D01*
X17506000Y-13569000D02*
X17546000Y-13609000D01*
X17546000Y-13569000D02*
X17506000Y-13609000D01*
X18268000Y-8235000D02*
X18308000Y-8275000D01*
X18308000Y-8235000D02*
X18268000Y-8275000D01*
X18268000Y-9124000D02*
X18308000Y-9164000D01*
X18308000Y-9124000D02*
X18268000Y-9164000D01*
X18522000Y-6330000D02*
X18562000Y-6370000D01*
X18562000Y-6330000D02*
X18522000Y-6370000D01*
X18522000Y-8616000D02*
X18562000Y-8656000D01*
X18562000Y-8616000D02*
X18522000Y-8656000D01*
X18661234Y-8882234D02*
X18701234Y-8922234D01*
X18701234Y-8882234D02*
X18661234Y-8922234D01*
X18776000Y-8743000D02*
X18816000Y-8783000D01*
X18816000Y-8743000D02*
X18776000Y-8783000D01*
X19148860Y-9115860D02*
X19188860Y-9155860D01*
X19188860Y-9115860D02*
X19148860Y-9155860D01*
X20046000Y-6584000D02*
X20086000Y-6624000D01*
X20086000Y-6584000D02*
X20046000Y-6624000D01*
X21062000Y-4552000D02*
X21102000Y-4592000D01*
X21102000Y-4552000D02*
X21062000Y-4592000D01*
X21373500Y-12446000D02*
G75*
G03X21373500Y-12446000I-37500J0D01*
G01*
X21500500Y-12446000D02*
G75*
G03X21500500Y-12446000I-37500J0D01*
G01*
X21627500Y-12446000D02*
G75*
G03X21627500Y-12446000I-37500J0D01*
G01*
X9271000Y-6564000D02*
X9271000Y-6644000D01*
X9231000Y-6604000D02*
X9311000Y-6604000D01*
X9771000Y-6564000D02*
X9771000Y-6644000D01*
X9731000Y-6604000D02*
X9811000Y-6604000D01*
X21463000Y-5929000D02*
X21463000Y-6009000D01*
X21423000Y-5969000D02*
X21503000Y-5969000D01*
X22479000Y-5929000D02*
X22479000Y-6009000D01*
X22439000Y-5969000D02*
X22519000Y-5969000D01*
X19058000Y-6310000D02*
X19058000Y-6390000D01*
X19018000Y-6350000D02*
X19098000Y-6350000D01*
X19558000Y-6310000D02*
X19558000Y-6390000D01*
X19518000Y-6350000D02*
X19598000Y-6350000D01*
X20428000Y-5040000D02*
X20428000Y-5120000D01*
X20388000Y-5080000D02*
X20468000Y-5080000D01*
X20428000Y-5240000D02*
X20428000Y-5320000D01*
X20388000Y-5280000D02*
X20468000Y-5280000D01*
X20628000Y-5040000D02*
X20628000Y-5120000D01*
X20588000Y-5080000D02*
X20668000Y-5080000D01*
X20628000Y-5240000D02*
X20628000Y-5320000D01*
X20588000Y-5280000D02*
X20668000Y-5280000D01*
X20828000Y-5040000D02*
X20828000Y-5120000D01*
X20788000Y-5080000D02*
X20868000Y-5080000D01*
X20828000Y-5240000D02*
X20828000Y-5320000D01*
X20788000Y-5280000D02*
X20868000Y-5280000D01*
X18034000Y-5167000D02*
X18034000Y-5247000D01*
X17994000Y-5207000D02*
X18074000Y-5207000D01*
X18034000Y-5929000D02*
X18034000Y-6009000D01*
X17994000Y-5969000D02*
X18074000Y-5969000D01*
X18288000Y-5167000D02*
X18288000Y-5247000D01*
X18248000Y-5207000D02*
X18328000Y-5207000D01*
X18288000Y-5929000D02*
X18288000Y-6009000D01*
X18248000Y-5969000D02*
X18328000Y-5969000D01*
X18542000Y-5167000D02*
X18542000Y-5247000D01*
X18502000Y-5207000D02*
X18582000Y-5207000D01*
X18542000Y-5929000D02*
X18542000Y-6009000D01*
X18502000Y-5969000D02*
X18582000Y-5969000D01*
X18796000Y-5167000D02*
X18796000Y-5247000D01*
X18756000Y-5207000D02*
X18836000Y-5207000D01*
X18796000Y-5929000D02*
X18796000Y-6009000D01*
X18756000Y-5969000D02*
X18836000Y-5969000D01*
X19050000Y-5167000D02*
X19050000Y-5247000D01*
X19010000Y-5207000D02*
X19090000Y-5207000D01*
X19050000Y-5929000D02*
X19050000Y-6009000D01*
X19010000Y-5969000D02*
X19090000Y-5969000D01*
X19304000Y-5167000D02*
X19304000Y-5247000D01*
X19264000Y-5207000D02*
X19344000Y-5207000D01*
X19304000Y-5929000D02*
X19304000Y-6009000D01*
X19264000Y-5969000D02*
X19344000Y-5969000D01*
X19558000Y-5167000D02*
X19558000Y-5247000D01*
X19518000Y-5207000D02*
X19598000Y-5207000D01*
X19558000Y-5929000D02*
X19558000Y-6009000D01*
X19518000Y-5969000D02*
X19598000Y-5969000D01*
X23495000Y-7326000D02*
X23495000Y-7406000D01*
X23455000Y-7366000D02*
X23535000Y-7366000D01*
X23495000Y-7826000D02*
X23495000Y-7906000D01*
X23455000Y-7866000D02*
X23535000Y-7866000D01*
X21979000Y-6437000D02*
X21979000Y-6517000D01*
X21939000Y-6477000D02*
X22019000Y-6477000D01*
X22479000Y-6437000D02*
X22479000Y-6517000D01*
X22439000Y-6477000D02*
X22519000Y-6477000D01*
X21590000Y-10882000D02*
X21590000Y-10962000D01*
X21550000Y-10922000D02*
X21630000Y-10922000D01*
X21840000Y-10882000D02*
X21840000Y-10962000D01*
X21800000Y-10922000D02*
X21880000Y-10922000D01*
X20955000Y-6826000D02*
X20955000Y-6906000D01*
X20915000Y-6866000D02*
X20995000Y-6866000D01*
X20955000Y-7326000D02*
X20955000Y-7406000D01*
X20915000Y-7366000D02*
X20995000Y-7366000D01*
X15629000Y-6437000D02*
X15629000Y-6517000D01*
X15589000Y-6477000D02*
X15669000Y-6477000D01*
X16129000Y-6437000D02*
X16129000Y-6517000D01*
X16089000Y-6477000D02*
X16169000Y-6477000D01*
X22479000Y-8215000D02*
X22479000Y-8295000D01*
X22439000Y-8255000D02*
X22519000Y-8255000D01*
X23495000Y-8215000D02*
X23495000Y-8295000D01*
X23455000Y-8255000D02*
X23535000Y-8255000D01*
X10668000Y-11906000D02*
X10668000Y-11986000D01*
X10628000Y-11946000D02*
X10708000Y-11946000D01*
X10668000Y-12406000D02*
X10668000Y-12486000D01*
X10628000Y-12446000D02*
X10708000Y-12446000D01*
X7112000Y-6963000D02*
X7112000Y-7043000D01*
X7072000Y-7003000D02*
X7152000Y-7003000D01*
X7112000Y-7453000D02*
X7112000Y-7533000D01*
X7072000Y-7493000D02*
X7152000Y-7493000D01*
X20955000Y-8342000D02*
X20955000Y-8422000D01*
X20915000Y-8382000D02*
X20995000Y-8382000D01*
X21455000Y-8342000D02*
X21455000Y-8422000D01*
X21415000Y-8382000D02*
X21495000Y-8382000D01*
X20955000Y-7707000D02*
X20955000Y-7787000D01*
X20915000Y-7747000D02*
X20995000Y-7747000D01*
X20955000Y-7907000D02*
X20955000Y-7987000D01*
X20915000Y-7947000D02*
X20995000Y-7947000D01*
X8255000Y-5167000D02*
X8255000Y-5247000D01*
X8215000Y-5207000D02*
X8295000Y-5207000D01*
X8255000Y-5929000D02*
X8255000Y-6009000D01*
X8215000Y-5969000D02*
X8295000Y-5969000D01*
X8509000Y-5167000D02*
X8509000Y-5247000D01*
X8469000Y-5207000D02*
X8549000Y-5207000D01*
X8509000Y-5929000D02*
X8509000Y-6009000D01*
X8469000Y-5969000D02*
X8549000Y-5969000D01*
X8763000Y-5167000D02*
X8763000Y-5247000D01*
X8723000Y-5207000D02*
X8803000Y-5207000D01*
X8763000Y-5929000D02*
X8763000Y-6009000D01*
X8723000Y-5969000D02*
X8803000Y-5969000D01*
X9017000Y-5167000D02*
X9017000Y-5247000D01*
X8977000Y-5207000D02*
X9057000Y-5207000D01*
X9017000Y-5929000D02*
X9017000Y-6009000D01*
X8977000Y-5969000D02*
X9057000Y-5969000D01*
X9271000Y-5167000D02*
X9271000Y-5247000D01*
X9231000Y-5207000D02*
X9311000Y-5207000D01*
X9271000Y-5929000D02*
X9271000Y-6009000D01*
X9231000Y-5969000D02*
X9311000Y-5969000D01*
X9525000Y-5167000D02*
X9525000Y-5247000D01*
X9485000Y-5207000D02*
X9565000Y-5207000D01*
X9525000Y-5929000D02*
X9525000Y-6009000D01*
X9485000Y-5969000D02*
X9565000Y-5969000D01*
X9779000Y-5167000D02*
X9779000Y-5247000D01*
X9739000Y-5207000D02*
X9819000Y-5207000D01*
X9779000Y-5929000D02*
X9779000Y-6009000D01*
X9739000Y-5969000D02*
X9819000Y-5969000D01*
X20066000Y-12406000D02*
X20066000Y-12486000D01*
X20026000Y-12446000D02*
X20106000Y-12446000D01*
X21082000Y-12406000D02*
X21082000Y-12486000D01*
X21042000Y-12446000D02*
X21122000Y-12446000D01*
X21463000Y-6818000D02*
X21463000Y-6898000D01*
X21423000Y-6858000D02*
X21503000Y-6858000D01*
X21463000Y-7072000D02*
X21463000Y-7152000D01*
X21423000Y-7112000D02*
X21503000Y-7112000D01*
X21463000Y-7326000D02*
X21463000Y-7406000D01*
X21423000Y-7366000D02*
X21503000Y-7366000D01*
X21463000Y-7580000D02*
X21463000Y-7660000D01*
X21423000Y-7620000D02*
X21503000Y-7620000D01*
X22225000Y-6818000D02*
X22225000Y-6898000D01*
X22185000Y-6858000D02*
X22265000Y-6858000D01*
X22225000Y-7072000D02*
X22225000Y-7152000D01*
X22185000Y-7112000D02*
X22265000Y-7112000D01*
X22225000Y-7326000D02*
X22225000Y-7406000D01*
X22185000Y-7366000D02*
X22265000Y-7366000D01*
X22225000Y-7580000D02*
X22225000Y-7660000D01*
X22185000Y-7620000D02*
X22265000Y-7620000D01*
X20428000Y-5929000D02*
X20428000Y-6009000D01*
X20388000Y-5969000D02*
X20468000Y-5969000D01*
X20628000Y-5929000D02*
X20628000Y-6009000D01*
X20588000Y-5969000D02*
X20668000Y-5969000D01*
X20828000Y-5929000D02*
X20828000Y-6009000D01*
X20788000Y-5969000D02*
X20868000Y-5969000D01*
X11176000Y-8469000D02*
X11176000Y-8549000D01*
X11136000Y-8509000D02*
X11216000Y-8509000D01*
X11176000Y-9231000D02*
X11176000Y-9311000D01*
X11136000Y-9271000D02*
X11216000Y-9271000D01*
X11430000Y-8469000D02*
X11430000Y-8549000D01*
X11390000Y-8509000D02*
X11470000Y-8509000D01*
X11430000Y-9231000D02*
X11430000Y-9311000D01*
X11390000Y-9271000D02*
X11470000Y-9271000D01*
X11684000Y-8469000D02*
X11684000Y-8549000D01*
X11644000Y-8509000D02*
X11724000Y-8509000D01*
X11684000Y-9231000D02*
X11684000Y-9311000D01*
X11644000Y-9271000D02*
X11724000Y-9271000D01*
X11938000Y-8469000D02*
X11938000Y-8549000D01*
X11898000Y-8509000D02*
X11978000Y-8509000D01*
X11938000Y-9231000D02*
X11938000Y-9311000D01*
X11898000Y-9271000D02*
X11978000Y-9271000D01*
X12192000Y-8469000D02*
X12192000Y-8549000D01*
X12152000Y-8509000D02*
X12232000Y-8509000D01*
X12192000Y-9231000D02*
X12192000Y-9311000D01*
X12152000Y-9271000D02*
X12232000Y-9271000D01*
X12446000Y-8469000D02*
X12446000Y-8549000D01*
X12406000Y-8509000D02*
X12486000Y-8509000D01*
X12446000Y-9231000D02*
X12446000Y-9311000D01*
X12406000Y-9271000D02*
X12486000Y-9271000D01*
X12700000Y-8469000D02*
X12700000Y-8549000D01*
X12660000Y-8509000D02*
X12740000Y-8509000D01*
X12700000Y-9231000D02*
X12700000Y-9311000D01*
X12660000Y-9271000D02*
X12740000Y-9271000D01*
X12954000Y-8469000D02*
X12954000Y-8549000D01*
X12914000Y-8509000D02*
X12994000Y-8509000D01*
X12954000Y-9231000D02*
X12954000Y-9311000D01*
X12914000Y-9271000D02*
X12994000Y-9271000D01*
X13208000Y-8469000D02*
X13208000Y-8549000D01*
X13168000Y-8509000D02*
X13248000Y-8509000D01*
X13208000Y-9231000D02*
X13208000Y-9311000D01*
X13168000Y-9271000D02*
X13248000Y-9271000D01*
X13462000Y-8469000D02*
X13462000Y-8549000D01*
X13422000Y-8509000D02*
X13502000Y-8509000D01*
X13462000Y-9231000D02*
X13462000Y-9311000D01*
X13422000Y-9271000D02*
X13502000Y-9271000D01*
X7747000Y-6987000D02*
X7747000Y-7067000D01*
X7707000Y-7027000D02*
X7787000Y-7027000D01*
X7747000Y-7487000D02*
X7747000Y-7567000D01*
X7707000Y-7527000D02*
X7787000Y-7527000D01*
X11176000Y-6818000D02*
X11176000Y-6898000D01*
X11136000Y-6858000D02*
X11216000Y-6858000D01*
X11176000Y-7580000D02*
X11176000Y-7660000D01*
X11136000Y-7620000D02*
X11216000Y-7620000D01*
X11430000Y-6818000D02*
X11430000Y-6898000D01*
X11390000Y-6858000D02*
X11470000Y-6858000D01*
X11430000Y-7580000D02*
X11430000Y-7660000D01*
X11390000Y-7620000D02*
X11470000Y-7620000D01*
X11684000Y-6818000D02*
X11684000Y-6898000D01*
X11644000Y-6858000D02*
X11724000Y-6858000D01*
X11684000Y-7580000D02*
X11684000Y-7660000D01*
X11644000Y-7620000D02*
X11724000Y-7620000D01*
X11938000Y-6818000D02*
X11938000Y-6898000D01*
X11898000Y-6858000D02*
X11978000Y-6858000D01*
X11938000Y-7580000D02*
X11938000Y-7660000D01*
X11898000Y-7620000D02*
X11978000Y-7620000D01*
X12192000Y-6818000D02*
X12192000Y-6898000D01*
X12152000Y-6858000D02*
X12232000Y-6858000D01*
X12192000Y-7580000D02*
X12192000Y-7660000D01*
X12152000Y-7620000D02*
X12232000Y-7620000D01*
X12446000Y-6818000D02*
X12446000Y-6898000D01*
X12406000Y-6858000D02*
X12486000Y-6858000D01*
X12446000Y-7580000D02*
X12446000Y-7660000D01*
X12406000Y-7620000D02*
X12486000Y-7620000D01*
X12700000Y-6818000D02*
X12700000Y-6898000D01*
X12660000Y-6858000D02*
X12740000Y-6858000D01*
X12700000Y-7580000D02*
X12700000Y-7660000D01*
X12660000Y-7620000D02*
X12740000Y-7620000D01*
X12954000Y-6818000D02*
X12954000Y-6898000D01*
X12914000Y-6858000D02*
X12994000Y-6858000D01*
X12954000Y-7580000D02*
X12954000Y-7660000D01*
X12914000Y-7620000D02*
X12994000Y-7620000D01*
X13208000Y-6818000D02*
X13208000Y-6898000D01*
X13168000Y-6858000D02*
X13248000Y-6858000D01*
X13208000Y-7580000D02*
X13208000Y-7660000D01*
X13168000Y-7620000D02*
X13248000Y-7620000D01*
X13462000Y-6818000D02*
X13462000Y-6898000D01*
X13422000Y-6858000D02*
X13502000Y-6858000D01*
X13462000Y-7580000D02*
X13462000Y-7660000D01*
X13422000Y-7620000D02*
X13502000Y-7620000D01*
X21463000Y-11898000D02*
X21463000Y-11978000D01*
X21423000Y-11938000D02*
X21503000Y-11938000D01*
X22479000Y-11898000D02*
X22479000Y-11978000D01*
X22439000Y-11938000D02*
X22519000Y-11938000D01*
X10668000Y-8477000D02*
X10668000Y-8557000D01*
X10628000Y-8517000D02*
X10708000Y-8517000D01*
X10668000Y-8977000D02*
X10668000Y-9057000D01*
X10628000Y-9017000D02*
X10708000Y-9017000D01*
X18034000Y-6818000D02*
X18034000Y-6898000D01*
X17994000Y-6858000D02*
X18074000Y-6858000D01*
X18034000Y-7072000D02*
X18034000Y-7152000D01*
X17994000Y-7112000D02*
X18074000Y-7112000D01*
X18034000Y-7326000D02*
X18034000Y-7406000D01*
X17994000Y-7366000D02*
X18074000Y-7366000D01*
X18034000Y-7580000D02*
X18034000Y-7660000D01*
X17994000Y-7620000D02*
X18074000Y-7620000D01*
X18034000Y-7834000D02*
X18034000Y-7914000D01*
X17994000Y-7874000D02*
X18074000Y-7874000D01*
X18034000Y-8088000D02*
X18034000Y-8168000D01*
X17994000Y-8128000D02*
X18074000Y-8128000D01*
X18034000Y-8342000D02*
X18034000Y-8422000D01*
X17994000Y-8382000D02*
X18074000Y-8382000D01*
X18034000Y-8596000D02*
X18034000Y-8676000D01*
X17994000Y-8636000D02*
X18074000Y-8636000D01*
X18034000Y-8850000D02*
X18034000Y-8930000D01*
X17994000Y-8890000D02*
X18074000Y-8890000D01*
X18034000Y-9104000D02*
X18034000Y-9184000D01*
X17994000Y-9144000D02*
X18074000Y-9144000D01*
X18034000Y-9358000D02*
X18034000Y-9438000D01*
X17994000Y-9398000D02*
X18074000Y-9398000D01*
X18034000Y-9612000D02*
X18034000Y-9692000D01*
X17994000Y-9652000D02*
X18074000Y-9652000D01*
X18034000Y-9866000D02*
X18034000Y-9946000D01*
X17994000Y-9906000D02*
X18074000Y-9906000D01*
X18034000Y-10120000D02*
X18034000Y-10200000D01*
X17994000Y-10160000D02*
X18074000Y-10160000D01*
X18034000Y-10374000D02*
X18034000Y-10454000D01*
X17994000Y-10414000D02*
X18074000Y-10414000D01*
X18034000Y-10628000D02*
X18034000Y-10708000D01*
X17994000Y-10668000D02*
X18074000Y-10668000D01*
X18034000Y-10882000D02*
X18034000Y-10962000D01*
X17994000Y-10922000D02*
X18074000Y-10922000D01*
X18034000Y-11136000D02*
X18034000Y-11216000D01*
X17994000Y-11176000D02*
X18074000Y-11176000D01*
X18034000Y-11390000D02*
X18034000Y-11470000D01*
X17994000Y-11430000D02*
X18074000Y-11430000D01*
X18034000Y-11644000D02*
X18034000Y-11724000D01*
X17994000Y-11684000D02*
X18074000Y-11684000D01*
X19558000Y-6818000D02*
X19558000Y-6898000D01*
X19518000Y-6858000D02*
X19598000Y-6858000D01*
X19558000Y-7072000D02*
X19558000Y-7152000D01*
X19518000Y-7112000D02*
X19598000Y-7112000D01*
X19558000Y-7326000D02*
X19558000Y-7406000D01*
X19518000Y-7366000D02*
X19598000Y-7366000D01*
X19558000Y-7580000D02*
X19558000Y-7660000D01*
X19518000Y-7620000D02*
X19598000Y-7620000D01*
X19558000Y-7834000D02*
X19558000Y-7914000D01*
X19518000Y-7874000D02*
X19598000Y-7874000D01*
X19558000Y-8088000D02*
X19558000Y-8168000D01*
X19518000Y-8128000D02*
X19598000Y-8128000D01*
X19558000Y-8342000D02*
X19558000Y-8422000D01*
X19518000Y-8382000D02*
X19598000Y-8382000D01*
X19558000Y-8596000D02*
X19558000Y-8676000D01*
X19518000Y-8636000D02*
X19598000Y-8636000D01*
X19558000Y-8850000D02*
X19558000Y-8930000D01*
X19518000Y-8890000D02*
X19598000Y-8890000D01*
X19558000Y-9104000D02*
X19558000Y-9184000D01*
X19518000Y-9144000D02*
X19598000Y-9144000D01*
X19558000Y-9358000D02*
X19558000Y-9438000D01*
X19518000Y-9398000D02*
X19598000Y-9398000D01*
X19558000Y-9612000D02*
X19558000Y-9692000D01*
X19518000Y-9652000D02*
X19598000Y-9652000D01*
X19558000Y-9866000D02*
X19558000Y-9946000D01*
X19518000Y-9906000D02*
X19598000Y-9906000D01*
X19558000Y-10120000D02*
X19558000Y-10200000D01*
X19518000Y-10160000D02*
X19598000Y-10160000D01*
X19558000Y-10374000D02*
X19558000Y-10454000D01*
X19518000Y-10414000D02*
X19598000Y-10414000D01*
X19558000Y-10628000D02*
X19558000Y-10708000D01*
X19518000Y-10668000D02*
X19598000Y-10668000D01*
X19558000Y-10882000D02*
X19558000Y-10962000D01*
X19518000Y-10922000D02*
X19598000Y-10922000D01*
X19558000Y-11136000D02*
X19558000Y-11216000D01*
X19518000Y-11176000D02*
X19598000Y-11176000D01*
X19558000Y-11390000D02*
X19558000Y-11470000D01*
X19518000Y-11430000D02*
X19598000Y-11430000D01*
X19558000Y-11644000D02*
X19558000Y-11724000D01*
X19518000Y-11684000D02*
X19598000Y-11684000D01*
X21463000Y-5548000D02*
X21463000Y-5628000D01*
X21423000Y-5588000D02*
X21503000Y-5588000D01*
X22479000Y-5548000D02*
X22479000Y-5628000D01*
X22439000Y-5588000D02*
X22519000Y-5588000D01*
X8255000Y-6945000D02*
X8255000Y-7025000D01*
X8215000Y-6985000D02*
X8295000Y-6985000D01*
X8255000Y-7199000D02*
X8255000Y-7279000D01*
X8215000Y-7239000D02*
X8295000Y-7239000D01*
X8255000Y-7453000D02*
X8255000Y-7533000D01*
X8215000Y-7493000D02*
X8295000Y-7493000D01*
X8255000Y-7707000D02*
X8255000Y-7787000D01*
X8215000Y-7747000D02*
X8295000Y-7747000D01*
X8255000Y-7961000D02*
X8255000Y-8041000D01*
X8215000Y-8001000D02*
X8295000Y-8001000D01*
X8255000Y-8215000D02*
X8255000Y-8295000D01*
X8215000Y-8255000D02*
X8295000Y-8255000D01*
X8255000Y-8469000D02*
X8255000Y-8549000D01*
X8215000Y-8509000D02*
X8295000Y-8509000D01*
X8255000Y-8723000D02*
X8255000Y-8803000D01*
X8215000Y-8763000D02*
X8295000Y-8763000D01*
X8255000Y-8977000D02*
X8255000Y-9057000D01*
X8215000Y-9017000D02*
X8295000Y-9017000D01*
X8255000Y-9231000D02*
X8255000Y-9311000D01*
X8215000Y-9271000D02*
X8295000Y-9271000D01*
X8255000Y-9485000D02*
X8255000Y-9565000D01*
X8215000Y-9525000D02*
X8295000Y-9525000D01*
X8255000Y-9739000D02*
X8255000Y-9819000D01*
X8215000Y-9779000D02*
X8295000Y-9779000D01*
X8255000Y-9993000D02*
X8255000Y-10073000D01*
X8215000Y-10033000D02*
X8295000Y-10033000D01*
X8255000Y-10247000D02*
X8255000Y-10327000D01*
X8215000Y-10287000D02*
X8295000Y-10287000D01*
X8255000Y-10501000D02*
X8255000Y-10581000D01*
X8215000Y-10541000D02*
X8295000Y-10541000D01*
X8255000Y-10755000D02*
X8255000Y-10835000D01*
X8215000Y-10795000D02*
X8295000Y-10795000D01*
X8255000Y-11009000D02*
X8255000Y-11089000D01*
X8215000Y-11049000D02*
X8295000Y-11049000D01*
X8255000Y-11263000D02*
X8255000Y-11343000D01*
X8215000Y-11303000D02*
X8295000Y-11303000D01*
X8255000Y-11517000D02*
X8255000Y-11597000D01*
X8215000Y-11557000D02*
X8295000Y-11557000D01*
X8255000Y-11771000D02*
X8255000Y-11851000D01*
X8215000Y-11811000D02*
X8295000Y-11811000D01*
X9779000Y-6945000D02*
X9779000Y-7025000D01*
X9739000Y-6985000D02*
X9819000Y-6985000D01*
X9779000Y-7199000D02*
X9779000Y-7279000D01*
X9739000Y-7239000D02*
X9819000Y-7239000D01*
X9779000Y-7453000D02*
X9779000Y-7533000D01*
X9739000Y-7493000D02*
X9819000Y-7493000D01*
X9779000Y-7707000D02*
X9779000Y-7787000D01*
X9739000Y-7747000D02*
X9819000Y-7747000D01*
X9779000Y-7961000D02*
X9779000Y-8041000D01*
X9739000Y-8001000D02*
X9819000Y-8001000D01*
X9779000Y-8215000D02*
X9779000Y-8295000D01*
X9739000Y-8255000D02*
X9819000Y-8255000D01*
X9779000Y-8469000D02*
X9779000Y-8549000D01*
X9739000Y-8509000D02*
X9819000Y-8509000D01*
X9779000Y-8723000D02*
X9779000Y-8803000D01*
X9739000Y-8763000D02*
X9819000Y-8763000D01*
X9779000Y-8977000D02*
X9779000Y-9057000D01*
X9739000Y-9017000D02*
X9819000Y-9017000D01*
X9779000Y-9231000D02*
X9779000Y-9311000D01*
X9739000Y-9271000D02*
X9819000Y-9271000D01*
X9779000Y-9485000D02*
X9779000Y-9565000D01*
X9739000Y-9525000D02*
X9819000Y-9525000D01*
X9779000Y-9739000D02*
X9779000Y-9819000D01*
X9739000Y-9779000D02*
X9819000Y-9779000D01*
X9779000Y-9993000D02*
X9779000Y-10073000D01*
X9739000Y-10033000D02*
X9819000Y-10033000D01*
X9779000Y-10247000D02*
X9779000Y-10327000D01*
X9739000Y-10287000D02*
X9819000Y-10287000D01*
X9779000Y-10501000D02*
X9779000Y-10581000D01*
X9739000Y-10541000D02*
X9819000Y-10541000D01*
X9779000Y-10755000D02*
X9779000Y-10835000D01*
X9739000Y-10795000D02*
X9819000Y-10795000D01*
X9779000Y-11009000D02*
X9779000Y-11089000D01*
X9739000Y-11049000D02*
X9819000Y-11049000D01*
X9779000Y-11263000D02*
X9779000Y-11343000D01*
X9739000Y-11303000D02*
X9819000Y-11303000D01*
X9779000Y-11517000D02*
X9779000Y-11597000D01*
X9739000Y-11557000D02*
X9819000Y-11557000D01*
X9779000Y-11771000D02*
X9779000Y-11851000D01*
X9739000Y-11811000D02*
X9819000Y-11811000D01*
X11176000Y-5167000D02*
X11176000Y-5247000D01*
X11136000Y-5207000D02*
X11216000Y-5207000D01*
X11176000Y-5929000D02*
X11176000Y-6009000D01*
X11136000Y-5969000D02*
X11216000Y-5969000D01*
X11430000Y-5167000D02*
X11430000Y-5247000D01*
X11390000Y-5207000D02*
X11470000Y-5207000D01*
X11430000Y-5929000D02*
X11430000Y-6009000D01*
X11390000Y-5969000D02*
X11470000Y-5969000D01*
X11684000Y-5167000D02*
X11684000Y-5247000D01*
X11644000Y-5207000D02*
X11724000Y-5207000D01*
X11684000Y-5929000D02*
X11684000Y-6009000D01*
X11644000Y-5969000D02*
X11724000Y-5969000D01*
X11938000Y-5167000D02*
X11938000Y-5247000D01*
X11898000Y-5207000D02*
X11978000Y-5207000D01*
X11938000Y-5929000D02*
X11938000Y-6009000D01*
X11898000Y-5969000D02*
X11978000Y-5969000D01*
X12192000Y-5167000D02*
X12192000Y-5247000D01*
X12152000Y-5207000D02*
X12232000Y-5207000D01*
X12192000Y-5929000D02*
X12192000Y-6009000D01*
X12152000Y-5969000D02*
X12232000Y-5969000D01*
X12446000Y-5167000D02*
X12446000Y-5247000D01*
X12406000Y-5207000D02*
X12486000Y-5207000D01*
X12446000Y-5929000D02*
X12446000Y-6009000D01*
X12406000Y-5969000D02*
X12486000Y-5969000D01*
X12700000Y-5167000D02*
X12700000Y-5247000D01*
X12660000Y-5207000D02*
X12740000Y-5207000D01*
X12700000Y-5929000D02*
X12700000Y-6009000D01*
X12660000Y-5969000D02*
X12740000Y-5969000D01*
X12954000Y-5167000D02*
X12954000Y-5247000D01*
X12914000Y-5207000D02*
X12994000Y-5207000D01*
X12954000Y-5929000D02*
X12954000Y-6009000D01*
X12914000Y-5969000D02*
X12994000Y-5969000D01*
X13208000Y-5167000D02*
X13208000Y-5247000D01*
X13168000Y-5207000D02*
X13248000Y-5207000D01*
X13208000Y-5929000D02*
X13208000Y-6009000D01*
X13168000Y-5969000D02*
X13248000Y-5969000D01*
X13462000Y-5167000D02*
X13462000Y-5247000D01*
X13422000Y-5207000D02*
X13502000Y-5207000D01*
X13462000Y-5929000D02*
X13462000Y-6009000D01*
X13422000Y-5969000D02*
X13502000Y-5969000D01*
X20066000Y-11898000D02*
X20066000Y-11978000D01*
X20026000Y-11938000D02*
X20106000Y-11938000D01*
X21082000Y-11898000D02*
X21082000Y-11978000D01*
X21042000Y-11938000D02*
X21122000Y-11938000D01*
X7747000Y-7842000D02*
X7747000Y-7922000D01*
X7707000Y-7882000D02*
X7787000Y-7882000D01*
X7747000Y-8342000D02*
X7747000Y-8422000D01*
X7707000Y-8382000D02*
X7787000Y-8382000D01*
X22860000Y-7580000D02*
X22860000Y-7660000D01*
X22820000Y-7620000D02*
X22900000Y-7620000D01*
X23110000Y-7580000D02*
X23110000Y-7660000D01*
X23070000Y-7620000D02*
X23150000Y-7620000D01*
X7747000Y-5175000D02*
X7747000Y-5255000D01*
X7707000Y-5215000D02*
X7787000Y-5215000D01*
X7747000Y-5675000D02*
X7747000Y-5755000D01*
X7707000Y-5715000D02*
X7787000Y-5715000D01*
X21082000Y-13041000D02*
X21082000Y-13121000D01*
X21042000Y-13081000D02*
X21122000Y-13081000D01*
X21582000Y-13041000D02*
X21582000Y-13121000D01*
X21542000Y-13081000D02*
X21622000Y-13081000D01*
X10668000Y-6826000D02*
X10668000Y-6906000D01*
X10628000Y-6866000D02*
X10708000Y-6866000D01*
X10668000Y-7326000D02*
X10668000Y-7406000D01*
X10628000Y-7366000D02*
X10708000Y-7366000D01*
X17526000Y-5175000D02*
X17526000Y-5255000D01*
X17486000Y-5215000D02*
X17566000Y-5215000D01*
X17526000Y-5675000D02*
X17526000Y-5755000D01*
X17486000Y-5715000D02*
X17566000Y-5715000D01*
X20955000Y-8850000D02*
X20955000Y-8930000D01*
X20915000Y-8890000D02*
X20995000Y-8890000D01*
X20955000Y-9612000D02*
X20955000Y-9692000D01*
X20915000Y-9652000D02*
X20995000Y-9652000D01*
X22479000Y-8850000D02*
X22479000Y-8930000D01*
X22439000Y-8890000D02*
X22519000Y-8890000D01*
X22479000Y-9612000D02*
X22479000Y-9692000D01*
X22439000Y-9652000D02*
X22519000Y-9652000D01*
X21217000Y-6437000D02*
X21217000Y-6517000D01*
X21177000Y-6477000D02*
X21257000Y-6477000D01*
X21717000Y-6437000D02*
X21717000Y-6517000D01*
X21677000Y-6477000D02*
X21757000Y-6477000D01*
X10668000Y-5167000D02*
X10668000Y-5247000D01*
X10628000Y-5207000D02*
X10708000Y-5207000D01*
X10668000Y-5667000D02*
X10668000Y-5747000D01*
X10628000Y-5707000D02*
X10708000Y-5707000D01*
X11176000Y-11898000D02*
X11176000Y-11978000D01*
X11136000Y-11938000D02*
X11216000Y-11938000D01*
X11176000Y-12660000D02*
X11176000Y-12740000D01*
X11136000Y-12700000D02*
X11216000Y-12700000D01*
X11430000Y-11898000D02*
X11430000Y-11978000D01*
X11390000Y-11938000D02*
X11470000Y-11938000D01*
X11430000Y-12660000D02*
X11430000Y-12740000D01*
X11390000Y-12700000D02*
X11470000Y-12700000D01*
X11684000Y-11898000D02*
X11684000Y-11978000D01*
X11644000Y-11938000D02*
X11724000Y-11938000D01*
X11684000Y-12660000D02*
X11684000Y-12740000D01*
X11644000Y-12700000D02*
X11724000Y-12700000D01*
X11938000Y-11898000D02*
X11938000Y-11978000D01*
X11898000Y-11938000D02*
X11978000Y-11938000D01*
X11938000Y-12660000D02*
X11938000Y-12740000D01*
X11898000Y-12700000D02*
X11978000Y-12700000D01*
X12192000Y-11898000D02*
X12192000Y-11978000D01*
X12152000Y-11938000D02*
X12232000Y-11938000D01*
X12192000Y-12660000D02*
X12192000Y-12740000D01*
X12152000Y-12700000D02*
X12232000Y-12700000D01*
X12446000Y-11898000D02*
X12446000Y-11978000D01*
X12406000Y-11938000D02*
X12486000Y-11938000D01*
X12446000Y-12660000D02*
X12446000Y-12740000D01*
X12406000Y-12700000D02*
X12486000Y-12700000D01*
X12700000Y-11898000D02*
X12700000Y-11978000D01*
X12660000Y-11938000D02*
X12740000Y-11938000D01*
X12700000Y-12660000D02*
X12700000Y-12740000D01*
X12660000Y-12700000D02*
X12740000Y-12700000D01*
X14605000Y-6818000D02*
X14605000Y-6898000D01*
X14565000Y-6858000D02*
X14645000Y-6858000D01*
X14605000Y-7072000D02*
X14605000Y-7152000D01*
X14565000Y-7112000D02*
X14645000Y-7112000D01*
X14605000Y-7326000D02*
X14605000Y-7406000D01*
X14565000Y-7366000D02*
X14645000Y-7366000D01*
X14605000Y-7580000D02*
X14605000Y-7660000D01*
X14565000Y-7620000D02*
X14645000Y-7620000D01*
X14605000Y-7834000D02*
X14605000Y-7914000D01*
X14565000Y-7874000D02*
X14645000Y-7874000D01*
X14605000Y-8088000D02*
X14605000Y-8168000D01*
X14565000Y-8128000D02*
X14645000Y-8128000D01*
X14605000Y-8342000D02*
X14605000Y-8422000D01*
X14565000Y-8382000D02*
X14645000Y-8382000D01*
X14605000Y-8596000D02*
X14605000Y-8676000D01*
X14565000Y-8636000D02*
X14645000Y-8636000D01*
X14605000Y-8850000D02*
X14605000Y-8930000D01*
X14565000Y-8890000D02*
X14645000Y-8890000D01*
X14605000Y-9104000D02*
X14605000Y-9184000D01*
X14565000Y-9144000D02*
X14645000Y-9144000D01*
X14605000Y-9358000D02*
X14605000Y-9438000D01*
X14565000Y-9398000D02*
X14645000Y-9398000D01*
X14605000Y-9612000D02*
X14605000Y-9692000D01*
X14565000Y-9652000D02*
X14645000Y-9652000D01*
X14605000Y-9866000D02*
X14605000Y-9946000D01*
X14565000Y-9906000D02*
X14645000Y-9906000D01*
X14605000Y-10120000D02*
X14605000Y-10200000D01*
X14565000Y-10160000D02*
X14645000Y-10160000D01*
X16129000Y-6818000D02*
X16129000Y-6898000D01*
X16089000Y-6858000D02*
X16169000Y-6858000D01*
X16129000Y-7072000D02*
X16129000Y-7152000D01*
X16089000Y-7112000D02*
X16169000Y-7112000D01*
X16129000Y-7326000D02*
X16129000Y-7406000D01*
X16089000Y-7366000D02*
X16169000Y-7366000D01*
X16129000Y-7580000D02*
X16129000Y-7660000D01*
X16089000Y-7620000D02*
X16169000Y-7620000D01*
X16129000Y-7834000D02*
X16129000Y-7914000D01*
X16089000Y-7874000D02*
X16169000Y-7874000D01*
X16129000Y-8088000D02*
X16129000Y-8168000D01*
X16089000Y-8128000D02*
X16169000Y-8128000D01*
X16129000Y-8342000D02*
X16129000Y-8422000D01*
X16089000Y-8382000D02*
X16169000Y-8382000D01*
X16129000Y-8596000D02*
X16129000Y-8676000D01*
X16089000Y-8636000D02*
X16169000Y-8636000D01*
X16129000Y-8850000D02*
X16129000Y-8930000D01*
X16089000Y-8890000D02*
X16169000Y-8890000D01*
X16129000Y-9104000D02*
X16129000Y-9184000D01*
X16089000Y-9144000D02*
X16169000Y-9144000D01*
X16129000Y-9358000D02*
X16129000Y-9438000D01*
X16089000Y-9398000D02*
X16169000Y-9398000D01*
X16129000Y-9612000D02*
X16129000Y-9692000D01*
X16089000Y-9652000D02*
X16169000Y-9652000D01*
X16129000Y-9866000D02*
X16129000Y-9946000D01*
X16089000Y-9906000D02*
X16169000Y-9906000D01*
X16129000Y-10120000D02*
X16129000Y-10200000D01*
X16089000Y-10160000D02*
X16169000Y-10160000D01*
X21463000Y-5040000D02*
X21463000Y-5120000D01*
X21423000Y-5080000D02*
X21503000Y-5080000D01*
X22479000Y-5040000D02*
X22479000Y-5120000D01*
X22439000Y-5080000D02*
X22519000Y-5080000D01*
X23149382Y-5242383D02*
X23149382Y-5171618D01*
X23078617Y-5171618D01*
X23078617Y-5242383D01*
X23149382Y-5242383D01*
X23149382Y-5623382D02*
X23149382Y-5552618D01*
X23078617Y-5552618D01*
X23078617Y-5623382D01*
X23149382Y-5623382D01*
X17272000Y-13004800D02*
X17322800Y-12954000D01*
X17272000Y-12903200D01*
X17221200Y-12954000D01*
X17272000Y-13004800D01*
X17272000Y-13258800D02*
X17322800Y-13208000D01*
X17272000Y-13157200D01*
X17221200Y-13208000D01*
X17272000Y-13258800D01*
X17526000Y-13004800D02*
X17576800Y-12954000D01*
X17526000Y-12903200D01*
X17475200Y-12954000D01*
X17526000Y-13004800D01*
X17526000Y-13258800D02*
X17576800Y-13208000D01*
X17526000Y-13157200D01*
X17475200Y-13208000D01*
X17526000Y-13258800D01*
X17780000Y-13004800D02*
X17830800Y-12954000D01*
X17780000Y-12903200D01*
X17729200Y-12954000D01*
X17780000Y-13004800D01*
X17780000Y-13258800D02*
X17830800Y-13208000D01*
X17780000Y-13157200D01*
X17729200Y-13208000D01*
X17780000Y-13258800D01*
X18034000Y-13004800D02*
X18084800Y-12954000D01*
X18034000Y-12903200D01*
X17983200Y-12954000D01*
X18034000Y-13004800D01*
X18034000Y-13258800D02*
X18084800Y-13208000D01*
X18034000Y-13157200D01*
X17983200Y-13208000D01*
X18034000Y-13258800D01*
X18288000Y-13004800D02*
X18338800Y-12954000D01*
X18288000Y-12903200D01*
X18237200Y-12954000D01*
X18288000Y-13004800D01*
X18288000Y-13258800D02*
X18338800Y-13208000D01*
X18288000Y-13157200D01*
X18237200Y-13208000D01*
X18288000Y-13258800D01*
X18542000Y-13004800D02*
X18592800Y-12954000D01*
X18542000Y-12903200D01*
X18491200Y-12954000D01*
X18542000Y-13004800D01*
X18542000Y-13258800D02*
X18592800Y-13208000D01*
X18542000Y-13157200D01*
X18491200Y-13208000D01*
X18542000Y-13258800D01*
X18796000Y-13004800D02*
X18846800Y-12954000D01*
X18796000Y-12903200D01*
X18745200Y-12954000D01*
X18796000Y-13004800D01*
X18796000Y-13258800D02*
X18846800Y-13208000D01*
X18796000Y-13157200D01*
X18745200Y-13208000D01*
X18796000Y-13258800D01*
X19050000Y-13004800D02*
X19100800Y-12954000D01*
X19050000Y-12903200D01*
X18999200Y-12954000D01*
X19050000Y-13004800D01*
X19050000Y-13258800D02*
X19100800Y-13208000D01*
X19050000Y-13157200D01*
X18999200Y-13208000D01*
X19050000Y-13258800D01*
X19304000Y-13004800D02*
X19354800Y-12954000D01*
X19304000Y-12903200D01*
X19253200Y-12954000D01*
X19304000Y-13004800D01*
X19304000Y-13258800D02*
X19354800Y-13208000D01*
X19304000Y-13157200D01*
X19253200Y-13208000D01*
X19304000Y-13258800D01*
X19558000Y-13004800D02*
X19608800Y-12954000D01*
X19558000Y-12903200D01*
X19507200Y-12954000D01*
X19558000Y-13004800D01*
X19558000Y-13258800D02*
X19608800Y-13208000D01*
X19558000Y-13157200D01*
X19507200Y-13208000D01*
X19558000Y-13258800D01*
X6285000Y-5777000D02*
X6415000Y-5907000D01*
X6415000Y-5777000D02*
X6285000Y-5907000D01*
X6415000Y-5842000D02*
G75*
G03X6415000Y-5842000I-65000J0D01*
G01*
X6785000Y-6277000D02*
X6915000Y-6407000D01*
X6915000Y-6277000D02*
X6785000Y-6407000D01*
X6915000Y-6342000D02*
G75*
G03X6915000Y-6342000I-65000J0D01*
G01*
X7285000Y-5777000D02*
X7415000Y-5907000D01*
X7415000Y-5777000D02*
X7285000Y-5907000D01*
X7415000Y-5842000D02*
G75*
G03X7415000Y-5842000I-65000J0D01*
G01*
X22241500Y-12876500D02*
X22396500Y-13031500D01*
X22396500Y-12876500D02*
X22241500Y-13031500D01*
X22319000Y-12876500D02*
X22319000Y-13031500D01*
X22241500Y-12954000D02*
X22396500Y-12954000D01*
X22241500Y-10844500D02*
X22396500Y-10999500D01*
X22396500Y-10844500D02*
X22241500Y-10999500D01*
X22319000Y-10844500D02*
X22319000Y-10999500D01*
X22241500Y-10922000D02*
X22396500Y-10922000D01*
X22903500Y-12111500D02*
X23188500Y-12396500D01*
X23188500Y-12111500D02*
X22903500Y-12396500D01*
X23146764Y-12354764D02*
X23146764Y-12153236D01*
X22945236Y-12153236D01*
X22945236Y-12354764D01*
X23146764Y-12354764D01*
X22903500Y-13511500D02*
X23188500Y-13796500D01*
X23188500Y-13511500D02*
X22903500Y-13796500D01*
X23146764Y-13754764D02*
X23146764Y-13553236D01*
X22945236Y-13553236D01*
X22945236Y-13754764D01*
X23146764Y-13754764D01*
X22903500Y-10079500D02*
X23188500Y-10364500D01*
X23188500Y-10079500D02*
X22903500Y-10364500D01*
X23146764Y-10322764D02*
X23146764Y-10121236D01*
X22945236Y-10121236D01*
X22945236Y-10322764D01*
X23146764Y-10322764D01*
X22903500Y-11479500D02*
X23188500Y-11764500D01*
X23188500Y-11479500D02*
X22903500Y-11764500D01*
X23146764Y-11722764D02*
X23146764Y-11521236D01*
X22945236Y-11521236D01*
X22945236Y-11722764D01*
X23146764Y-11722764D01*
D12*
X4855928Y-15200214D02*
X4855928Y-14900214D01*
X4927357Y-14900214D01*
X4970214Y-14914500D01*
X4998786Y-14943071D01*
X5013071Y-14971643D01*
X5027357Y-15028786D01*
X5027357Y-15071643D01*
X5013071Y-15128786D01*
X4998786Y-15157357D01*
X4970214Y-15185929D01*
X4927357Y-15200214D01*
X4855928Y-15200214D01*
X5155928Y-15200214D02*
X5155928Y-15000214D01*
X5155928Y-15057357D02*
X5170214Y-15028786D01*
X5184500Y-15014500D01*
X5213071Y-15000214D01*
X5241643Y-15000214D01*
X5341643Y-15200214D02*
X5341643Y-15000214D01*
X5341643Y-14900214D02*
X5327357Y-14914500D01*
X5341643Y-14928786D01*
X5355928Y-14914500D01*
X5341643Y-14900214D01*
X5341643Y-14928786D01*
X5527357Y-15200214D02*
X5498786Y-15185929D01*
X5484500Y-15157357D01*
X5484500Y-14900214D01*
X5684500Y-15200214D02*
X5655928Y-15185929D01*
X5641643Y-15157357D01*
X5641643Y-14900214D01*
X6027357Y-15200214D02*
X6027357Y-14900214D01*
X6127357Y-15114500D01*
X6227357Y-14900214D01*
X6227357Y-15200214D01*
X6498786Y-15200214D02*
X6498786Y-15043071D01*
X6484500Y-15014500D01*
X6455928Y-15000214D01*
X6398786Y-15000214D01*
X6370214Y-15014500D01*
X6498786Y-15185929D02*
X6470214Y-15200214D01*
X6398786Y-15200214D01*
X6370214Y-15185929D01*
X6355928Y-15157357D01*
X6355928Y-15128786D01*
X6370214Y-15100214D01*
X6398786Y-15085929D01*
X6470214Y-15085929D01*
X6498786Y-15071643D01*
X6641643Y-15000214D02*
X6641643Y-15300214D01*
X6641643Y-15014500D02*
X6670214Y-15000214D01*
X6727357Y-15000214D01*
X6755928Y-15014500D01*
X6770214Y-15028786D01*
X6784500Y-15057357D01*
X6784500Y-15143071D01*
X6770214Y-15171643D01*
X6755928Y-15185929D01*
X6727357Y-15200214D01*
X6670214Y-15200214D01*
X6641643Y-15185929D01*
X6913071Y-15171643D02*
X6927357Y-15185929D01*
X6913071Y-15200214D01*
X6898786Y-15185929D01*
X6913071Y-15171643D01*
X6913071Y-15200214D01*
X6913071Y-15014500D02*
X6927357Y-15028786D01*
X6913071Y-15043071D01*
X6898786Y-15028786D01*
X6913071Y-15014500D01*
X6913071Y-15043071D01*
X4529500Y-15674500D02*
X4569500Y-15714500D01*
X4569500Y-15674500D02*
X4529500Y-15714500D01*
X4913071Y-15530214D02*
X4941643Y-15530214D01*
X4970214Y-15544500D01*
X4984500Y-15558786D01*
X4998786Y-15587357D01*
X5013071Y-15644500D01*
X5013071Y-15715929D01*
X4998786Y-15773071D01*
X4984500Y-15801643D01*
X4970214Y-15815929D01*
X4941643Y-15830214D01*
X4913071Y-15830214D01*
X4884500Y-15815929D01*
X4870214Y-15801643D01*
X4855928Y-15773071D01*
X4841643Y-15715929D01*
X4841643Y-15644500D01*
X4855928Y-15587357D01*
X4870214Y-15558786D01*
X4884500Y-15544500D01*
X4913071Y-15530214D01*
X5141643Y-15801643D02*
X5155928Y-15815929D01*
X5141643Y-15830214D01*
X5127357Y-15815929D01*
X5141643Y-15801643D01*
X5141643Y-15830214D01*
X5413071Y-15630214D02*
X5413071Y-15830214D01*
X5341643Y-15515929D02*
X5270214Y-15730214D01*
X5455928Y-15730214D01*
X5627357Y-15530214D02*
X5655928Y-15530214D01*
X5684500Y-15544500D01*
X5698786Y-15558786D01*
X5713071Y-15587357D01*
X5727357Y-15644500D01*
X5727357Y-15715929D01*
X5713071Y-15773071D01*
X5698786Y-15801643D01*
X5684500Y-15815929D01*
X5655928Y-15830214D01*
X5627357Y-15830214D01*
X5598786Y-15815929D01*
X5584500Y-15801643D01*
X5570214Y-15773071D01*
X5555928Y-15715929D01*
X5555928Y-15644500D01*
X5570214Y-15587357D01*
X5584500Y-15558786D01*
X5598786Y-15544500D01*
X5627357Y-15530214D01*
X5855928Y-15830214D02*
X5855928Y-15630214D01*
X5855928Y-15658786D02*
X5870214Y-15644500D01*
X5898786Y-15630214D01*
X5941643Y-15630214D01*
X5970214Y-15644500D01*
X5984500Y-15673071D01*
X5984500Y-15830214D01*
X5984500Y-15673071D02*
X5998786Y-15644500D01*
X6027357Y-15630214D01*
X6070214Y-15630214D01*
X6098786Y-15644500D01*
X6113071Y-15673071D01*
X6113071Y-15830214D01*
X6255928Y-15830214D02*
X6255928Y-15630214D01*
X6255928Y-15658786D02*
X6270214Y-15644500D01*
X6298786Y-15630214D01*
X6341643Y-15630214D01*
X6370214Y-15644500D01*
X6384500Y-15673071D01*
X6384500Y-15830214D01*
X6384500Y-15673071D02*
X6398786Y-15644500D01*
X6427357Y-15630214D01*
X6470214Y-15630214D01*
X6498786Y-15644500D01*
X6513071Y-15673071D01*
X6513071Y-15830214D01*
X7098786Y-15515929D02*
X6841643Y-15901643D01*
X7484500Y-15530214D02*
X7513071Y-15530214D01*
X7541643Y-15544500D01*
X7555928Y-15558786D01*
X7570214Y-15587357D01*
X7584500Y-15644500D01*
X7584500Y-15715929D01*
X7570214Y-15773071D01*
X7555928Y-15801643D01*
X7541643Y-15815929D01*
X7513071Y-15830214D01*
X7484500Y-15830214D01*
X7455928Y-15815929D01*
X7441643Y-15801643D01*
X7427357Y-15773071D01*
X7413071Y-15715929D01*
X7413071Y-15644500D01*
X7427357Y-15587357D01*
X7441643Y-15558786D01*
X7455928Y-15544500D01*
X7484500Y-15530214D01*
X7713071Y-15801643D02*
X7727357Y-15815929D01*
X7713071Y-15830214D01*
X7698786Y-15815929D01*
X7713071Y-15801643D01*
X7713071Y-15830214D01*
X7913071Y-15530214D02*
X7941643Y-15530214D01*
X7970214Y-15544500D01*
X7984500Y-15558786D01*
X7998786Y-15587357D01*
X8013071Y-15644500D01*
X8013071Y-15715929D01*
X7998786Y-15773071D01*
X7984500Y-15801643D01*
X7970214Y-15815929D01*
X7941643Y-15830214D01*
X7913071Y-15830214D01*
X7884500Y-15815929D01*
X7870214Y-15801643D01*
X7855928Y-15773071D01*
X7841643Y-15715929D01*
X7841643Y-15644500D01*
X7855928Y-15587357D01*
X7870214Y-15558786D01*
X7884500Y-15544500D01*
X7913071Y-15530214D01*
X8298786Y-15830214D02*
X8127357Y-15830214D01*
X8213071Y-15830214D02*
X8213071Y-15530214D01*
X8184500Y-15573071D01*
X8155928Y-15601643D01*
X8127357Y-15615929D01*
X8555928Y-15530214D02*
X8498786Y-15530214D01*
X8470214Y-15544500D01*
X8455928Y-15558786D01*
X8427357Y-15601643D01*
X8413071Y-15658786D01*
X8413071Y-15773071D01*
X8427357Y-15801643D01*
X8441643Y-15815929D01*
X8470214Y-15830214D01*
X8527357Y-15830214D01*
X8555928Y-15815929D01*
X8570214Y-15801643D01*
X8584500Y-15773071D01*
X8584500Y-15701643D01*
X8570214Y-15673071D01*
X8555928Y-15658786D01*
X8527357Y-15644500D01*
X8470214Y-15644500D01*
X8441643Y-15658786D01*
X8427357Y-15673071D01*
X8413071Y-15701643D01*
X8698786Y-15530214D02*
X8698786Y-15587357D01*
X8813071Y-15530214D02*
X8813071Y-15587357D01*
X9255928Y-15944500D02*
X9241643Y-15930214D01*
X9213071Y-15887357D01*
X9198786Y-15858786D01*
X9184500Y-15815929D01*
X9170214Y-15744500D01*
X9170214Y-15687357D01*
X9184500Y-15615929D01*
X9198786Y-15573071D01*
X9213071Y-15544500D01*
X9241643Y-15501643D01*
X9255928Y-15487357D01*
X9498786Y-15530214D02*
X9441643Y-15530214D01*
X9413071Y-15544500D01*
X9398786Y-15558786D01*
X9370214Y-15601643D01*
X9355928Y-15658786D01*
X9355928Y-15773071D01*
X9370214Y-15801643D01*
X9384500Y-15815929D01*
X9413071Y-15830214D01*
X9470214Y-15830214D01*
X9498786Y-15815929D01*
X9513071Y-15801643D01*
X9527357Y-15773071D01*
X9527357Y-15701643D01*
X9513071Y-15673071D01*
X9498786Y-15658786D01*
X9470214Y-15644500D01*
X9413071Y-15644500D01*
X9384500Y-15658786D01*
X9370214Y-15673071D01*
X9355928Y-15701643D01*
X9670214Y-15830214D02*
X9727357Y-15830214D01*
X9755928Y-15815929D01*
X9770214Y-15801643D01*
X9798786Y-15758786D01*
X9813071Y-15701643D01*
X9813071Y-15587357D01*
X9798786Y-15558786D01*
X9784500Y-15544500D01*
X9755928Y-15530214D01*
X9698786Y-15530214D01*
X9670214Y-15544500D01*
X9655928Y-15558786D01*
X9641643Y-15587357D01*
X9641643Y-15658786D01*
X9655928Y-15687357D01*
X9670214Y-15701643D01*
X9698786Y-15715929D01*
X9755928Y-15715929D01*
X9784500Y-15701643D01*
X9798786Y-15687357D01*
X9813071Y-15658786D01*
X10170214Y-15830214D02*
X10170214Y-15530214D01*
X10298786Y-15830214D02*
X10298786Y-15673071D01*
X10284500Y-15644500D01*
X10255928Y-15630214D01*
X10213071Y-15630214D01*
X10184500Y-15644500D01*
X10170214Y-15658786D01*
X10484500Y-15830214D02*
X10455928Y-15815929D01*
X10441643Y-15801643D01*
X10427357Y-15773071D01*
X10427357Y-15687357D01*
X10441643Y-15658786D01*
X10455928Y-15644500D01*
X10484500Y-15630214D01*
X10527357Y-15630214D01*
X10555928Y-15644500D01*
X10570214Y-15658786D01*
X10584500Y-15687357D01*
X10584500Y-15773071D01*
X10570214Y-15801643D01*
X10555928Y-15815929D01*
X10527357Y-15830214D01*
X10484500Y-15830214D01*
X10755928Y-15830214D02*
X10727357Y-15815929D01*
X10713071Y-15787357D01*
X10713071Y-15530214D01*
X10984500Y-15815929D02*
X10955928Y-15830214D01*
X10898786Y-15830214D01*
X10870214Y-15815929D01*
X10855928Y-15787357D01*
X10855928Y-15673071D01*
X10870214Y-15644500D01*
X10898786Y-15630214D01*
X10955928Y-15630214D01*
X10984500Y-15644500D01*
X10998786Y-15673071D01*
X10998786Y-15701643D01*
X10855928Y-15730214D01*
X11113071Y-15815929D02*
X11141643Y-15830214D01*
X11198786Y-15830214D01*
X11227357Y-15815929D01*
X11241643Y-15787357D01*
X11241643Y-15773071D01*
X11227357Y-15744500D01*
X11198786Y-15730214D01*
X11155928Y-15730214D01*
X11127357Y-15715929D01*
X11113071Y-15687357D01*
X11113071Y-15673071D01*
X11127357Y-15644500D01*
X11155928Y-15630214D01*
X11198786Y-15630214D01*
X11227357Y-15644500D01*
X11341643Y-15944500D02*
X11355928Y-15930214D01*
X11384500Y-15887357D01*
X11398786Y-15858786D01*
X11413071Y-15815929D01*
X11427357Y-15744500D01*
X11427357Y-15687357D01*
X11413071Y-15615929D01*
X11398786Y-15573071D01*
X11384500Y-15544500D01*
X11355928Y-15501643D01*
X11341643Y-15487357D01*
X4569500Y-16090500D02*
G75*
G03X4569500Y-16090500I-37500J0D01*
G01*
X4913071Y-15926214D02*
X4941643Y-15926214D01*
X4970214Y-15940500D01*
X4984500Y-15954786D01*
X4998786Y-15983357D01*
X5013071Y-16040500D01*
X5013071Y-16111929D01*
X4998786Y-16169071D01*
X4984500Y-16197643D01*
X4970214Y-16211929D01*
X4941643Y-16226214D01*
X4913071Y-16226214D01*
X4884500Y-16211929D01*
X4870214Y-16197643D01*
X4855928Y-16169071D01*
X4841643Y-16111929D01*
X4841643Y-16040500D01*
X4855928Y-15983357D01*
X4870214Y-15954786D01*
X4884500Y-15940500D01*
X4913071Y-15926214D01*
X5141643Y-16197643D02*
X5155928Y-16211929D01*
X5141643Y-16226214D01*
X5127357Y-16211929D01*
X5141643Y-16197643D01*
X5141643Y-16226214D01*
X5255928Y-15926214D02*
X5455928Y-15926214D01*
X5327357Y-16226214D01*
X5713071Y-15926214D02*
X5570214Y-15926214D01*
X5555928Y-16069071D01*
X5570214Y-16054786D01*
X5598786Y-16040500D01*
X5670214Y-16040500D01*
X5698786Y-16054786D01*
X5713071Y-16069071D01*
X5727357Y-16097643D01*
X5727357Y-16169071D01*
X5713071Y-16197643D01*
X5698786Y-16211929D01*
X5670214Y-16226214D01*
X5598786Y-16226214D01*
X5570214Y-16211929D01*
X5555928Y-16197643D01*
X5855928Y-16226214D02*
X5855928Y-16026214D01*
X5855928Y-16054786D02*
X5870214Y-16040500D01*
X5898786Y-16026214D01*
X5941643Y-16026214D01*
X5970214Y-16040500D01*
X5984500Y-16069071D01*
X5984500Y-16226214D01*
X5984500Y-16069071D02*
X5998786Y-16040500D01*
X6027357Y-16026214D01*
X6070214Y-16026214D01*
X6098786Y-16040500D01*
X6113071Y-16069071D01*
X6113071Y-16226214D01*
X6255928Y-16226214D02*
X6255928Y-16026214D01*
X6255928Y-16054786D02*
X6270214Y-16040500D01*
X6298786Y-16026214D01*
X6341643Y-16026214D01*
X6370214Y-16040500D01*
X6384500Y-16069071D01*
X6384500Y-16226214D01*
X6384500Y-16069071D02*
X6398786Y-16040500D01*
X6427357Y-16026214D01*
X6470214Y-16026214D01*
X6498786Y-16040500D01*
X6513071Y-16069071D01*
X6513071Y-16226214D01*
X7098786Y-15911929D02*
X6841643Y-16297643D01*
X7484500Y-15926214D02*
X7513071Y-15926214D01*
X7541643Y-15940500D01*
X7555928Y-15954786D01*
X7570214Y-15983357D01*
X7584500Y-16040500D01*
X7584500Y-16111929D01*
X7570214Y-16169071D01*
X7555928Y-16197643D01*
X7541643Y-16211929D01*
X7513071Y-16226214D01*
X7484500Y-16226214D01*
X7455928Y-16211929D01*
X7441643Y-16197643D01*
X7427357Y-16169071D01*
X7413071Y-16111929D01*
X7413071Y-16040500D01*
X7427357Y-15983357D01*
X7441643Y-15954786D01*
X7455928Y-15940500D01*
X7484500Y-15926214D01*
X7713071Y-16197643D02*
X7727357Y-16211929D01*
X7713071Y-16226214D01*
X7698786Y-16211929D01*
X7713071Y-16197643D01*
X7713071Y-16226214D01*
X7913071Y-15926214D02*
X7941643Y-15926214D01*
X7970214Y-15940500D01*
X7984500Y-15954786D01*
X7998786Y-15983357D01*
X8013071Y-16040500D01*
X8013071Y-16111929D01*
X7998786Y-16169071D01*
X7984500Y-16197643D01*
X7970214Y-16211929D01*
X7941643Y-16226214D01*
X7913071Y-16226214D01*
X7884500Y-16211929D01*
X7870214Y-16197643D01*
X7855928Y-16169071D01*
X7841643Y-16111929D01*
X7841643Y-16040500D01*
X7855928Y-15983357D01*
X7870214Y-15954786D01*
X7884500Y-15940500D01*
X7913071Y-15926214D01*
X8113071Y-15926214D02*
X8298786Y-15926214D01*
X8198786Y-16040500D01*
X8241643Y-16040500D01*
X8270214Y-16054786D01*
X8284500Y-16069071D01*
X8298786Y-16097643D01*
X8298786Y-16169071D01*
X8284500Y-16197643D01*
X8270214Y-16211929D01*
X8241643Y-16226214D01*
X8155928Y-16226214D01*
X8127357Y-16211929D01*
X8113071Y-16197643D01*
X8484500Y-15926214D02*
X8513071Y-15926214D01*
X8541643Y-15940500D01*
X8555928Y-15954786D01*
X8570214Y-15983357D01*
X8584500Y-16040500D01*
X8584500Y-16111929D01*
X8570214Y-16169071D01*
X8555928Y-16197643D01*
X8541643Y-16211929D01*
X8513071Y-16226214D01*
X8484500Y-16226214D01*
X8455928Y-16211929D01*
X8441643Y-16197643D01*
X8427357Y-16169071D01*
X8413071Y-16111929D01*
X8413071Y-16040500D01*
X8427357Y-15983357D01*
X8441643Y-15954786D01*
X8455928Y-15940500D01*
X8484500Y-15926214D01*
X8698786Y-15926214D02*
X8698786Y-15983357D01*
X8813071Y-15926214D02*
X8813071Y-15983357D01*
X9255928Y-16340500D02*
X9241643Y-16326214D01*
X9213071Y-16283357D01*
X9198786Y-16254786D01*
X9184500Y-16211929D01*
X9170214Y-16140500D01*
X9170214Y-16083357D01*
X9184500Y-16011929D01*
X9198786Y-15969071D01*
X9213071Y-15940500D01*
X9241643Y-15897643D01*
X9255928Y-15883357D01*
X9341643Y-15926214D02*
X9527357Y-15926214D01*
X9427357Y-16040500D01*
X9470214Y-16040500D01*
X9498786Y-16054786D01*
X9513071Y-16069071D01*
X9527357Y-16097643D01*
X9527357Y-16169071D01*
X9513071Y-16197643D01*
X9498786Y-16211929D01*
X9470214Y-16226214D01*
X9384500Y-16226214D01*
X9355928Y-16211929D01*
X9341643Y-16197643D01*
X9884500Y-16226214D02*
X9884500Y-15926214D01*
X10013071Y-16226214D02*
X10013071Y-16069071D01*
X9998786Y-16040500D01*
X9970214Y-16026214D01*
X9927357Y-16026214D01*
X9898786Y-16040500D01*
X9884500Y-16054786D01*
X10198786Y-16226214D02*
X10170214Y-16211929D01*
X10155928Y-16197643D01*
X10141643Y-16169071D01*
X10141643Y-16083357D01*
X10155928Y-16054786D01*
X10170214Y-16040500D01*
X10198786Y-16026214D01*
X10241643Y-16026214D01*
X10270214Y-16040500D01*
X10284500Y-16054786D01*
X10298786Y-16083357D01*
X10298786Y-16169071D01*
X10284500Y-16197643D01*
X10270214Y-16211929D01*
X10241643Y-16226214D01*
X10198786Y-16226214D01*
X10470214Y-16226214D02*
X10441643Y-16211929D01*
X10427357Y-16183357D01*
X10427357Y-15926214D01*
X10698786Y-16211929D02*
X10670214Y-16226214D01*
X10613071Y-16226214D01*
X10584500Y-16211929D01*
X10570214Y-16183357D01*
X10570214Y-16069071D01*
X10584500Y-16040500D01*
X10613071Y-16026214D01*
X10670214Y-16026214D01*
X10698786Y-16040500D01*
X10713071Y-16069071D01*
X10713071Y-16097643D01*
X10570214Y-16126214D01*
X10827357Y-16211929D02*
X10855928Y-16226214D01*
X10913071Y-16226214D01*
X10941643Y-16211929D01*
X10955928Y-16183357D01*
X10955928Y-16169071D01*
X10941643Y-16140500D01*
X10913071Y-16126214D01*
X10870214Y-16126214D01*
X10841643Y-16111929D01*
X10827357Y-16083357D01*
X10827357Y-16069071D01*
X10841643Y-16040500D01*
X10870214Y-16026214D01*
X10913071Y-16026214D01*
X10941643Y-16040500D01*
X11055928Y-16340500D02*
X11070214Y-16326214D01*
X11098786Y-16283357D01*
X11113071Y-16254786D01*
X11127357Y-16211929D01*
X11141643Y-16140500D01*
X11141643Y-16083357D01*
X11127357Y-16011929D01*
X11113071Y-15969071D01*
X11098786Y-15940500D01*
X11070214Y-15897643D01*
X11055928Y-15883357D01*
X4529500Y-16446500D02*
X4529500Y-16526500D01*
X4489500Y-16486500D02*
X4569500Y-16486500D01*
X4913071Y-16322214D02*
X4941643Y-16322214D01*
X4970214Y-16336500D01*
X4984500Y-16350786D01*
X4998786Y-16379357D01*
X5013071Y-16436500D01*
X5013071Y-16507929D01*
X4998786Y-16565071D01*
X4984500Y-16593643D01*
X4970214Y-16607929D01*
X4941643Y-16622214D01*
X4913071Y-16622214D01*
X4884500Y-16607929D01*
X4870214Y-16593643D01*
X4855928Y-16565071D01*
X4841643Y-16507929D01*
X4841643Y-16436500D01*
X4855928Y-16379357D01*
X4870214Y-16350786D01*
X4884500Y-16336500D01*
X4913071Y-16322214D01*
X5141643Y-16593643D02*
X5155928Y-16607929D01*
X5141643Y-16622214D01*
X5127357Y-16607929D01*
X5141643Y-16593643D01*
X5141643Y-16622214D01*
X5327357Y-16450786D02*
X5298786Y-16436500D01*
X5284500Y-16422214D01*
X5270214Y-16393643D01*
X5270214Y-16379357D01*
X5284500Y-16350786D01*
X5298786Y-16336500D01*
X5327357Y-16322214D01*
X5384500Y-16322214D01*
X5413071Y-16336500D01*
X5427357Y-16350786D01*
X5441643Y-16379357D01*
X5441643Y-16393643D01*
X5427357Y-16422214D01*
X5413071Y-16436500D01*
X5384500Y-16450786D01*
X5327357Y-16450786D01*
X5298786Y-16465071D01*
X5284500Y-16479357D01*
X5270214Y-16507929D01*
X5270214Y-16565071D01*
X5284500Y-16593643D01*
X5298786Y-16607929D01*
X5327357Y-16622214D01*
X5384500Y-16622214D01*
X5413071Y-16607929D01*
X5427357Y-16593643D01*
X5441643Y-16565071D01*
X5441643Y-16507929D01*
X5427357Y-16479357D01*
X5413071Y-16465071D01*
X5384500Y-16450786D01*
X5627357Y-16322214D02*
X5655928Y-16322214D01*
X5684500Y-16336500D01*
X5698786Y-16350786D01*
X5713071Y-16379357D01*
X5727357Y-16436500D01*
X5727357Y-16507929D01*
X5713071Y-16565071D01*
X5698786Y-16593643D01*
X5684500Y-16607929D01*
X5655928Y-16622214D01*
X5627357Y-16622214D01*
X5598786Y-16607929D01*
X5584500Y-16593643D01*
X5570214Y-16565071D01*
X5555928Y-16507929D01*
X5555928Y-16436500D01*
X5570214Y-16379357D01*
X5584500Y-16350786D01*
X5598786Y-16336500D01*
X5627357Y-16322214D01*
X5855928Y-16622214D02*
X5855928Y-16422214D01*
X5855928Y-16450786D02*
X5870214Y-16436500D01*
X5898786Y-16422214D01*
X5941643Y-16422214D01*
X5970214Y-16436500D01*
X5984500Y-16465071D01*
X5984500Y-16622214D01*
X5984500Y-16465071D02*
X5998786Y-16436500D01*
X6027357Y-16422214D01*
X6070214Y-16422214D01*
X6098786Y-16436500D01*
X6113071Y-16465071D01*
X6113071Y-16622214D01*
X6255928Y-16622214D02*
X6255928Y-16422214D01*
X6255928Y-16450786D02*
X6270214Y-16436500D01*
X6298786Y-16422214D01*
X6341643Y-16422214D01*
X6370214Y-16436500D01*
X6384500Y-16465071D01*
X6384500Y-16622214D01*
X6384500Y-16465071D02*
X6398786Y-16436500D01*
X6427357Y-16422214D01*
X6470214Y-16422214D01*
X6498786Y-16436500D01*
X6513071Y-16465071D01*
X6513071Y-16622214D01*
X7098786Y-16307929D02*
X6841643Y-16693643D01*
X7484500Y-16322214D02*
X7513071Y-16322214D01*
X7541643Y-16336500D01*
X7555928Y-16350786D01*
X7570214Y-16379357D01*
X7584500Y-16436500D01*
X7584500Y-16507929D01*
X7570214Y-16565071D01*
X7555928Y-16593643D01*
X7541643Y-16607929D01*
X7513071Y-16622214D01*
X7484500Y-16622214D01*
X7455928Y-16607929D01*
X7441643Y-16593643D01*
X7427357Y-16565071D01*
X7413071Y-16507929D01*
X7413071Y-16436500D01*
X7427357Y-16379357D01*
X7441643Y-16350786D01*
X7455928Y-16336500D01*
X7484500Y-16322214D01*
X7713071Y-16593643D02*
X7727357Y-16607929D01*
X7713071Y-16622214D01*
X7698786Y-16607929D01*
X7713071Y-16593643D01*
X7713071Y-16622214D01*
X7913071Y-16322214D02*
X7941643Y-16322214D01*
X7970214Y-16336500D01*
X7984500Y-16350786D01*
X7998786Y-16379357D01*
X8013071Y-16436500D01*
X8013071Y-16507929D01*
X7998786Y-16565071D01*
X7984500Y-16593643D01*
X7970214Y-16607929D01*
X7941643Y-16622214D01*
X7913071Y-16622214D01*
X7884500Y-16607929D01*
X7870214Y-16593643D01*
X7855928Y-16565071D01*
X7841643Y-16507929D01*
X7841643Y-16436500D01*
X7855928Y-16379357D01*
X7870214Y-16350786D01*
X7884500Y-16336500D01*
X7913071Y-16322214D01*
X8113071Y-16322214D02*
X8298786Y-16322214D01*
X8198786Y-16436500D01*
X8241643Y-16436500D01*
X8270214Y-16450786D01*
X8284500Y-16465071D01*
X8298786Y-16493643D01*
X8298786Y-16565071D01*
X8284500Y-16593643D01*
X8270214Y-16607929D01*
X8241643Y-16622214D01*
X8155928Y-16622214D01*
X8127357Y-16607929D01*
X8113071Y-16593643D01*
X8584500Y-16622214D02*
X8413071Y-16622214D01*
X8498786Y-16622214D02*
X8498786Y-16322214D01*
X8470214Y-16365071D01*
X8441643Y-16393643D01*
X8413071Y-16407929D01*
X8698786Y-16322214D02*
X8698786Y-16379357D01*
X8813071Y-16322214D02*
X8813071Y-16379357D01*
X9255928Y-16736500D02*
X9241643Y-16722214D01*
X9213071Y-16679357D01*
X9198786Y-16650786D01*
X9184500Y-16607929D01*
X9170214Y-16536500D01*
X9170214Y-16479357D01*
X9184500Y-16407929D01*
X9198786Y-16365071D01*
X9213071Y-16336500D01*
X9241643Y-16293643D01*
X9255928Y-16279357D01*
X9355928Y-16350786D02*
X9370214Y-16336500D01*
X9398786Y-16322214D01*
X9470214Y-16322214D01*
X9498786Y-16336500D01*
X9513071Y-16350786D01*
X9527357Y-16379357D01*
X9527357Y-16407929D01*
X9513071Y-16450786D01*
X9341643Y-16622214D01*
X9527357Y-16622214D01*
X9698786Y-16450786D02*
X9670214Y-16436500D01*
X9655928Y-16422214D01*
X9641643Y-16393643D01*
X9641643Y-16379357D01*
X9655928Y-16350786D01*
X9670214Y-16336500D01*
X9698786Y-16322214D01*
X9755928Y-16322214D01*
X9784500Y-16336500D01*
X9798786Y-16350786D01*
X9813071Y-16379357D01*
X9813071Y-16393643D01*
X9798786Y-16422214D01*
X9784500Y-16436500D01*
X9755928Y-16450786D01*
X9698786Y-16450786D01*
X9670214Y-16465071D01*
X9655928Y-16479357D01*
X9641643Y-16507929D01*
X9641643Y-16565071D01*
X9655928Y-16593643D01*
X9670214Y-16607929D01*
X9698786Y-16622214D01*
X9755928Y-16622214D01*
X9784500Y-16607929D01*
X9798786Y-16593643D01*
X9813071Y-16565071D01*
X9813071Y-16507929D01*
X9798786Y-16479357D01*
X9784500Y-16465071D01*
X9755928Y-16450786D01*
X9913071Y-16322214D02*
X10113071Y-16322214D01*
X9984500Y-16622214D01*
X10455928Y-16622214D02*
X10455928Y-16322214D01*
X10584500Y-16622214D02*
X10584500Y-16465071D01*
X10570214Y-16436500D01*
X10541643Y-16422214D01*
X10498786Y-16422214D01*
X10470214Y-16436500D01*
X10455928Y-16450786D01*
X10770214Y-16622214D02*
X10741643Y-16607929D01*
X10727357Y-16593643D01*
X10713071Y-16565071D01*
X10713071Y-16479357D01*
X10727357Y-16450786D01*
X10741643Y-16436500D01*
X10770214Y-16422214D01*
X10813071Y-16422214D01*
X10841643Y-16436500D01*
X10855928Y-16450786D01*
X10870214Y-16479357D01*
X10870214Y-16565071D01*
X10855928Y-16593643D01*
X10841643Y-16607929D01*
X10813071Y-16622214D01*
X10770214Y-16622214D01*
X11041643Y-16622214D02*
X11013071Y-16607929D01*
X10998786Y-16579357D01*
X10998786Y-16322214D01*
X11270214Y-16607929D02*
X11241643Y-16622214D01*
X11184500Y-16622214D01*
X11155928Y-16607929D01*
X11141643Y-16579357D01*
X11141643Y-16465071D01*
X11155928Y-16436500D01*
X11184500Y-16422214D01*
X11241643Y-16422214D01*
X11270214Y-16436500D01*
X11284500Y-16465071D01*
X11284500Y-16493643D01*
X11141643Y-16522214D01*
X11398786Y-16607929D02*
X11427357Y-16622214D01*
X11484500Y-16622214D01*
X11513071Y-16607929D01*
X11527357Y-16579357D01*
X11527357Y-16565071D01*
X11513071Y-16536500D01*
X11484500Y-16522214D01*
X11441643Y-16522214D01*
X11413071Y-16507929D01*
X11398786Y-16479357D01*
X11398786Y-16465071D01*
X11413071Y-16436500D01*
X11441643Y-16422214D01*
X11484500Y-16422214D01*
X11513071Y-16436500D01*
X11627357Y-16736500D02*
X11641643Y-16722214D01*
X11670214Y-16679357D01*
X11684500Y-16650786D01*
X11698786Y-16607929D01*
X11713071Y-16536500D01*
X11713071Y-16479357D01*
X11698786Y-16407929D01*
X11684500Y-16365071D01*
X11670214Y-16336500D01*
X11641643Y-16293643D01*
X11627357Y-16279357D01*
X4554844Y-16917883D02*
X4554844Y-16847118D01*
X4484079Y-16847118D01*
X4484079Y-16917883D01*
X4554844Y-16917883D01*
X5013071Y-17018214D02*
X4841643Y-17018214D01*
X4927357Y-17018214D02*
X4927357Y-16718214D01*
X4898786Y-16761071D01*
X4870214Y-16789643D01*
X4841643Y-16803929D01*
X5141643Y-16989643D02*
X5155928Y-17003929D01*
X5141643Y-17018214D01*
X5127357Y-17003929D01*
X5141643Y-16989643D01*
X5141643Y-17018214D01*
X5341643Y-16718214D02*
X5370214Y-16718214D01*
X5398786Y-16732500D01*
X5413071Y-16746786D01*
X5427357Y-16775357D01*
X5441643Y-16832500D01*
X5441643Y-16903929D01*
X5427357Y-16961072D01*
X5413071Y-16989643D01*
X5398786Y-17003929D01*
X5370214Y-17018214D01*
X5341643Y-17018214D01*
X5313071Y-17003929D01*
X5298786Y-16989643D01*
X5284500Y-16961072D01*
X5270214Y-16903929D01*
X5270214Y-16832500D01*
X5284500Y-16775357D01*
X5298786Y-16746786D01*
X5313071Y-16732500D01*
X5341643Y-16718214D01*
X5627357Y-16718214D02*
X5655928Y-16718214D01*
X5684500Y-16732500D01*
X5698786Y-16746786D01*
X5713071Y-16775357D01*
X5727357Y-16832500D01*
X5727357Y-16903929D01*
X5713071Y-16961072D01*
X5698786Y-16989643D01*
X5684500Y-17003929D01*
X5655928Y-17018214D01*
X5627357Y-17018214D01*
X5598786Y-17003929D01*
X5584500Y-16989643D01*
X5570214Y-16961072D01*
X5555928Y-16903929D01*
X5555928Y-16832500D01*
X5570214Y-16775357D01*
X5584500Y-16746786D01*
X5598786Y-16732500D01*
X5627357Y-16718214D01*
X5855928Y-17018214D02*
X5855928Y-16818214D01*
X5855928Y-16846786D02*
X5870214Y-16832500D01*
X5898786Y-16818214D01*
X5941643Y-16818214D01*
X5970214Y-16832500D01*
X5984500Y-16861072D01*
X5984500Y-17018214D01*
X5984500Y-16861072D02*
X5998786Y-16832500D01*
X6027357Y-16818214D01*
X6070214Y-16818214D01*
X6098786Y-16832500D01*
X6113071Y-16861072D01*
X6113071Y-17018214D01*
X6255928Y-17018214D02*
X6255928Y-16818214D01*
X6255928Y-16846786D02*
X6270214Y-16832500D01*
X6298786Y-16818214D01*
X6341643Y-16818214D01*
X6370214Y-16832500D01*
X6384500Y-16861072D01*
X6384500Y-17018214D01*
X6384500Y-16861072D02*
X6398786Y-16832500D01*
X6427357Y-16818214D01*
X6470214Y-16818214D01*
X6498786Y-16832500D01*
X6513071Y-16861072D01*
X6513071Y-17018214D01*
X7098786Y-16703929D02*
X6841643Y-17089643D01*
X7484500Y-16718214D02*
X7513071Y-16718214D01*
X7541643Y-16732500D01*
X7555928Y-16746786D01*
X7570214Y-16775357D01*
X7584500Y-16832500D01*
X7584500Y-16903929D01*
X7570214Y-16961072D01*
X7555928Y-16989643D01*
X7541643Y-17003929D01*
X7513071Y-17018214D01*
X7484500Y-17018214D01*
X7455928Y-17003929D01*
X7441643Y-16989643D01*
X7427357Y-16961072D01*
X7413071Y-16903929D01*
X7413071Y-16832500D01*
X7427357Y-16775357D01*
X7441643Y-16746786D01*
X7455928Y-16732500D01*
X7484500Y-16718214D01*
X7713071Y-16989643D02*
X7727357Y-17003929D01*
X7713071Y-17018214D01*
X7698786Y-17003929D01*
X7713071Y-16989643D01*
X7713071Y-17018214D01*
X7913071Y-16718214D02*
X7941643Y-16718214D01*
X7970214Y-16732500D01*
X7984500Y-16746786D01*
X7998786Y-16775357D01*
X8013071Y-16832500D01*
X8013071Y-16903929D01*
X7998786Y-16961072D01*
X7984500Y-16989643D01*
X7970214Y-17003929D01*
X7941643Y-17018214D01*
X7913071Y-17018214D01*
X7884500Y-17003929D01*
X7870214Y-16989643D01*
X7855928Y-16961072D01*
X7841643Y-16903929D01*
X7841643Y-16832500D01*
X7855928Y-16775357D01*
X7870214Y-16746786D01*
X7884500Y-16732500D01*
X7913071Y-16718214D01*
X8113071Y-16718214D02*
X8298786Y-16718214D01*
X8198786Y-16832500D01*
X8241643Y-16832500D01*
X8270214Y-16846786D01*
X8284500Y-16861072D01*
X8298786Y-16889643D01*
X8298786Y-16961072D01*
X8284500Y-16989643D01*
X8270214Y-17003929D01*
X8241643Y-17018214D01*
X8155928Y-17018214D01*
X8127357Y-17003929D01*
X8113071Y-16989643D01*
X8441643Y-17018214D02*
X8498786Y-17018214D01*
X8527357Y-17003929D01*
X8541643Y-16989643D01*
X8570214Y-16946786D01*
X8584500Y-16889643D01*
X8584500Y-16775357D01*
X8570214Y-16746786D01*
X8555928Y-16732500D01*
X8527357Y-16718214D01*
X8470214Y-16718214D01*
X8441643Y-16732500D01*
X8427357Y-16746786D01*
X8413071Y-16775357D01*
X8413071Y-16846786D01*
X8427357Y-16875357D01*
X8441643Y-16889643D01*
X8470214Y-16903929D01*
X8527357Y-16903929D01*
X8555928Y-16889643D01*
X8570214Y-16875357D01*
X8584500Y-16846786D01*
X8698786Y-16718214D02*
X8698786Y-16775357D01*
X8813071Y-16718214D02*
X8813071Y-16775357D01*
X9255928Y-17132500D02*
X9241643Y-17118214D01*
X9213071Y-17075357D01*
X9198786Y-17046786D01*
X9184500Y-17003929D01*
X9170214Y-16932500D01*
X9170214Y-16875357D01*
X9184500Y-16803929D01*
X9198786Y-16761071D01*
X9213071Y-16732500D01*
X9241643Y-16689643D01*
X9255928Y-16675357D01*
X9355928Y-16746786D02*
X9370214Y-16732500D01*
X9398786Y-16718214D01*
X9470214Y-16718214D01*
X9498786Y-16732500D01*
X9513071Y-16746786D01*
X9527357Y-16775357D01*
X9527357Y-16803929D01*
X9513071Y-16846786D01*
X9341643Y-17018214D01*
X9527357Y-17018214D01*
X9884500Y-17018214D02*
X9884500Y-16718214D01*
X10013071Y-17018214D02*
X10013071Y-16861072D01*
X9998786Y-16832500D01*
X9970214Y-16818214D01*
X9927357Y-16818214D01*
X9898786Y-16832500D01*
X9884500Y-16846786D01*
X10198786Y-17018214D02*
X10170214Y-17003929D01*
X10155928Y-16989643D01*
X10141643Y-16961072D01*
X10141643Y-16875357D01*
X10155928Y-16846786D01*
X10170214Y-16832500D01*
X10198786Y-16818214D01*
X10241643Y-16818214D01*
X10270214Y-16832500D01*
X10284500Y-16846786D01*
X10298786Y-16875357D01*
X10298786Y-16961072D01*
X10284500Y-16989643D01*
X10270214Y-17003929D01*
X10241643Y-17018214D01*
X10198786Y-17018214D01*
X10470214Y-17018214D02*
X10441643Y-17003929D01*
X10427357Y-16975357D01*
X10427357Y-16718214D01*
X10698786Y-17003929D02*
X10670214Y-17018214D01*
X10613071Y-17018214D01*
X10584500Y-17003929D01*
X10570214Y-16975357D01*
X10570214Y-16861072D01*
X10584500Y-16832500D01*
X10613071Y-16818214D01*
X10670214Y-16818214D01*
X10698786Y-16832500D01*
X10713071Y-16861072D01*
X10713071Y-16889643D01*
X10570214Y-16918214D01*
X10827357Y-17003929D02*
X10855928Y-17018214D01*
X10913071Y-17018214D01*
X10941643Y-17003929D01*
X10955928Y-16975357D01*
X10955928Y-16961072D01*
X10941643Y-16932500D01*
X10913071Y-16918214D01*
X10870214Y-16918214D01*
X10841643Y-16903929D01*
X10827357Y-16875357D01*
X10827357Y-16861072D01*
X10841643Y-16832500D01*
X10870214Y-16818214D01*
X10913071Y-16818214D01*
X10941643Y-16832500D01*
X11055928Y-17132500D02*
X11070214Y-17118214D01*
X11098786Y-17075357D01*
X11113071Y-17046786D01*
X11127357Y-17003929D01*
X11141643Y-16932500D01*
X11141643Y-16875357D01*
X11127357Y-16803929D01*
X11113071Y-16761071D01*
X11098786Y-16732500D01*
X11070214Y-16689643D01*
X11055928Y-16675357D01*
X4518700Y-17329300D02*
X4569500Y-17278500D01*
X4518700Y-17227700D01*
X4467900Y-17278500D01*
X4518700Y-17329300D01*
X5013071Y-17414214D02*
X4841643Y-17414214D01*
X4927357Y-17414214D02*
X4927357Y-17114214D01*
X4898786Y-17157072D01*
X4870214Y-17185643D01*
X4841643Y-17199929D01*
X5141643Y-17385643D02*
X5155928Y-17399929D01*
X5141643Y-17414214D01*
X5127357Y-17399929D01*
X5141643Y-17385643D01*
X5141643Y-17414214D01*
X5341643Y-17114214D02*
X5370214Y-17114214D01*
X5398786Y-17128500D01*
X5413071Y-17142786D01*
X5427357Y-17171357D01*
X5441643Y-17228500D01*
X5441643Y-17299929D01*
X5427357Y-17357072D01*
X5413071Y-17385643D01*
X5398786Y-17399929D01*
X5370214Y-17414214D01*
X5341643Y-17414214D01*
X5313071Y-17399929D01*
X5298786Y-17385643D01*
X5284500Y-17357072D01*
X5270214Y-17299929D01*
X5270214Y-17228500D01*
X5284500Y-17171357D01*
X5298786Y-17142786D01*
X5313071Y-17128500D01*
X5341643Y-17114214D01*
X5555928Y-17142786D02*
X5570214Y-17128500D01*
X5598786Y-17114214D01*
X5670214Y-17114214D01*
X5698786Y-17128500D01*
X5713071Y-17142786D01*
X5727357Y-17171357D01*
X5727357Y-17199929D01*
X5713071Y-17242786D01*
X5541643Y-17414214D01*
X5727357Y-17414214D01*
X5855928Y-17414214D02*
X5855928Y-17214214D01*
X5855928Y-17242786D02*
X5870214Y-17228500D01*
X5898786Y-17214214D01*
X5941643Y-17214214D01*
X5970214Y-17228500D01*
X5984500Y-17257072D01*
X5984500Y-17414214D01*
X5984500Y-17257072D02*
X5998786Y-17228500D01*
X6027357Y-17214214D01*
X6070214Y-17214214D01*
X6098786Y-17228500D01*
X6113071Y-17257072D01*
X6113071Y-17414214D01*
X6255928Y-17414214D02*
X6255928Y-17214214D01*
X6255928Y-17242786D02*
X6270214Y-17228500D01*
X6298786Y-17214214D01*
X6341643Y-17214214D01*
X6370214Y-17228500D01*
X6384500Y-17257072D01*
X6384500Y-17414214D01*
X6384500Y-17257072D02*
X6398786Y-17228500D01*
X6427357Y-17214214D01*
X6470214Y-17214214D01*
X6498786Y-17228500D01*
X6513071Y-17257072D01*
X6513071Y-17414214D01*
X7098786Y-17099929D02*
X6841643Y-17485643D01*
X7484500Y-17114214D02*
X7513071Y-17114214D01*
X7541643Y-17128500D01*
X7555928Y-17142786D01*
X7570214Y-17171357D01*
X7584500Y-17228500D01*
X7584500Y-17299929D01*
X7570214Y-17357072D01*
X7555928Y-17385643D01*
X7541643Y-17399929D01*
X7513071Y-17414214D01*
X7484500Y-17414214D01*
X7455928Y-17399929D01*
X7441643Y-17385643D01*
X7427357Y-17357072D01*
X7413071Y-17299929D01*
X7413071Y-17228500D01*
X7427357Y-17171357D01*
X7441643Y-17142786D01*
X7455928Y-17128500D01*
X7484500Y-17114214D01*
X7713071Y-17385643D02*
X7727357Y-17399929D01*
X7713071Y-17414214D01*
X7698786Y-17399929D01*
X7713071Y-17385643D01*
X7713071Y-17414214D01*
X7913071Y-17114214D02*
X7941643Y-17114214D01*
X7970214Y-17128500D01*
X7984500Y-17142786D01*
X7998786Y-17171357D01*
X8013071Y-17228500D01*
X8013071Y-17299929D01*
X7998786Y-17357072D01*
X7984500Y-17385643D01*
X7970214Y-17399929D01*
X7941643Y-17414214D01*
X7913071Y-17414214D01*
X7884500Y-17399929D01*
X7870214Y-17385643D01*
X7855928Y-17357072D01*
X7841643Y-17299929D01*
X7841643Y-17228500D01*
X7855928Y-17171357D01*
X7870214Y-17142786D01*
X7884500Y-17128500D01*
X7913071Y-17114214D01*
X8270214Y-17214214D02*
X8270214Y-17414214D01*
X8198786Y-17099929D02*
X8127357Y-17314214D01*
X8313071Y-17314214D01*
X8484500Y-17114214D02*
X8513071Y-17114214D01*
X8541643Y-17128500D01*
X8555928Y-17142786D01*
X8570214Y-17171357D01*
X8584500Y-17228500D01*
X8584500Y-17299929D01*
X8570214Y-17357072D01*
X8555928Y-17385643D01*
X8541643Y-17399929D01*
X8513071Y-17414214D01*
X8484500Y-17414214D01*
X8455928Y-17399929D01*
X8441643Y-17385643D01*
X8427357Y-17357072D01*
X8413071Y-17299929D01*
X8413071Y-17228500D01*
X8427357Y-17171357D01*
X8441643Y-17142786D01*
X8455928Y-17128500D01*
X8484500Y-17114214D01*
X8698786Y-17114214D02*
X8698786Y-17171357D01*
X8813071Y-17114214D02*
X8813071Y-17171357D01*
X9255928Y-17528500D02*
X9241643Y-17514214D01*
X9213071Y-17471357D01*
X9198786Y-17442786D01*
X9184500Y-17399929D01*
X9170214Y-17328500D01*
X9170214Y-17271357D01*
X9184500Y-17199929D01*
X9198786Y-17157072D01*
X9213071Y-17128500D01*
X9241643Y-17085643D01*
X9255928Y-17071357D01*
X9355928Y-17142786D02*
X9370214Y-17128500D01*
X9398786Y-17114214D01*
X9470214Y-17114214D01*
X9498786Y-17128500D01*
X9513071Y-17142786D01*
X9527357Y-17171357D01*
X9527357Y-17199929D01*
X9513071Y-17242786D01*
X9341643Y-17414214D01*
X9527357Y-17414214D01*
X9713071Y-17114214D02*
X9741643Y-17114214D01*
X9770214Y-17128500D01*
X9784500Y-17142786D01*
X9798786Y-17171357D01*
X9813071Y-17228500D01*
X9813071Y-17299929D01*
X9798786Y-17357072D01*
X9784500Y-17385643D01*
X9770214Y-17399929D01*
X9741643Y-17414214D01*
X9713071Y-17414214D01*
X9684500Y-17399929D01*
X9670214Y-17385643D01*
X9655928Y-17357072D01*
X9641643Y-17299929D01*
X9641643Y-17228500D01*
X9655928Y-17171357D01*
X9670214Y-17142786D01*
X9684500Y-17128500D01*
X9713071Y-17114214D01*
X10170214Y-17414214D02*
X10170214Y-17114214D01*
X10298786Y-17414214D02*
X10298786Y-17257072D01*
X10284500Y-17228500D01*
X10255928Y-17214214D01*
X10213071Y-17214214D01*
X10184500Y-17228500D01*
X10170214Y-17242786D01*
X10484500Y-17414214D02*
X10455928Y-17399929D01*
X10441643Y-17385643D01*
X10427357Y-17357072D01*
X10427357Y-17271357D01*
X10441643Y-17242786D01*
X10455928Y-17228500D01*
X10484500Y-17214214D01*
X10527357Y-17214214D01*
X10555928Y-17228500D01*
X10570214Y-17242786D01*
X10584500Y-17271357D01*
X10584500Y-17357072D01*
X10570214Y-17385643D01*
X10555928Y-17399929D01*
X10527357Y-17414214D01*
X10484500Y-17414214D01*
X10755928Y-17414214D02*
X10727357Y-17399929D01*
X10713071Y-17371357D01*
X10713071Y-17114214D01*
X10984500Y-17399929D02*
X10955928Y-17414214D01*
X10898786Y-17414214D01*
X10870214Y-17399929D01*
X10855928Y-17371357D01*
X10855928Y-17257072D01*
X10870214Y-17228500D01*
X10898786Y-17214214D01*
X10955928Y-17214214D01*
X10984500Y-17228500D01*
X10998786Y-17257072D01*
X10998786Y-17285643D01*
X10855928Y-17314214D01*
X11113071Y-17399929D02*
X11141643Y-17414214D01*
X11198786Y-17414214D01*
X11227357Y-17399929D01*
X11241643Y-17371357D01*
X11241643Y-17357072D01*
X11227357Y-17328500D01*
X11198786Y-17314214D01*
X11155928Y-17314214D01*
X11127357Y-17299929D01*
X11113071Y-17271357D01*
X11113071Y-17257072D01*
X11127357Y-17228500D01*
X11155928Y-17214214D01*
X11198786Y-17214214D01*
X11227357Y-17228500D01*
X11341643Y-17528500D02*
X11355928Y-17514214D01*
X11384500Y-17471357D01*
X11398786Y-17442786D01*
X11413071Y-17399929D01*
X11427357Y-17328500D01*
X11427357Y-17271357D01*
X11413071Y-17199929D01*
X11398786Y-17157072D01*
X11384500Y-17128500D01*
X11355928Y-17085643D01*
X11341643Y-17071357D01*
X4439500Y-17609500D02*
X4569500Y-17739500D01*
X4569500Y-17609500D02*
X4439500Y-17739500D01*
X4569500Y-17674500D02*
G75*
G03X4569500Y-17674500I-65000J0D01*
G01*
X5013071Y-17810214D02*
X4841643Y-17810214D01*
X4927357Y-17810214D02*
X4927357Y-17510214D01*
X4898786Y-17553072D01*
X4870214Y-17581643D01*
X4841643Y-17595929D01*
X5141643Y-17781643D02*
X5155928Y-17795929D01*
X5141643Y-17810214D01*
X5127357Y-17795929D01*
X5141643Y-17781643D01*
X5141643Y-17810214D01*
X5255928Y-17510214D02*
X5441643Y-17510214D01*
X5341643Y-17624500D01*
X5384500Y-17624500D01*
X5413071Y-17638786D01*
X5427357Y-17653072D01*
X5441643Y-17681643D01*
X5441643Y-17753072D01*
X5427357Y-17781643D01*
X5413071Y-17795929D01*
X5384500Y-17810214D01*
X5298786Y-17810214D01*
X5270214Y-17795929D01*
X5255928Y-17781643D01*
X5627357Y-17510214D02*
X5655928Y-17510214D01*
X5684500Y-17524500D01*
X5698786Y-17538786D01*
X5713071Y-17567357D01*
X5727357Y-17624500D01*
X5727357Y-17695929D01*
X5713071Y-17753072D01*
X5698786Y-17781643D01*
X5684500Y-17795929D01*
X5655928Y-17810214D01*
X5627357Y-17810214D01*
X5598786Y-17795929D01*
X5584500Y-17781643D01*
X5570214Y-17753072D01*
X5555928Y-17695929D01*
X5555928Y-17624500D01*
X5570214Y-17567357D01*
X5584500Y-17538786D01*
X5598786Y-17524500D01*
X5627357Y-17510214D01*
X5855928Y-17810214D02*
X5855928Y-17610214D01*
X5855928Y-17638786D02*
X5870214Y-17624500D01*
X5898786Y-17610214D01*
X5941643Y-17610214D01*
X5970214Y-17624500D01*
X5984500Y-17653072D01*
X5984500Y-17810214D01*
X5984500Y-17653072D02*
X5998786Y-17624500D01*
X6027357Y-17610214D01*
X6070214Y-17610214D01*
X6098786Y-17624500D01*
X6113071Y-17653072D01*
X6113071Y-17810214D01*
X6255928Y-17810214D02*
X6255928Y-17610214D01*
X6255928Y-17638786D02*
X6270214Y-17624500D01*
X6298786Y-17610214D01*
X6341643Y-17610214D01*
X6370214Y-17624500D01*
X6384500Y-17653072D01*
X6384500Y-17810214D01*
X6384500Y-17653072D02*
X6398786Y-17624500D01*
X6427357Y-17610214D01*
X6470214Y-17610214D01*
X6498786Y-17624500D01*
X6513071Y-17653072D01*
X6513071Y-17810214D01*
X7098786Y-17495929D02*
X6841643Y-17881643D01*
X7484500Y-17510214D02*
X7513071Y-17510214D01*
X7541643Y-17524500D01*
X7555928Y-17538786D01*
X7570214Y-17567357D01*
X7584500Y-17624500D01*
X7584500Y-17695929D01*
X7570214Y-17753072D01*
X7555928Y-17781643D01*
X7541643Y-17795929D01*
X7513071Y-17810214D01*
X7484500Y-17810214D01*
X7455928Y-17795929D01*
X7441643Y-17781643D01*
X7427357Y-17753072D01*
X7413071Y-17695929D01*
X7413071Y-17624500D01*
X7427357Y-17567357D01*
X7441643Y-17538786D01*
X7455928Y-17524500D01*
X7484500Y-17510214D01*
X7713071Y-17781643D02*
X7727357Y-17795929D01*
X7713071Y-17810214D01*
X7698786Y-17795929D01*
X7713071Y-17781643D01*
X7713071Y-17810214D01*
X7913071Y-17510214D02*
X7941643Y-17510214D01*
X7970214Y-17524500D01*
X7984500Y-17538786D01*
X7998786Y-17567357D01*
X8013071Y-17624500D01*
X8013071Y-17695929D01*
X7998786Y-17753072D01*
X7984500Y-17781643D01*
X7970214Y-17795929D01*
X7941643Y-17810214D01*
X7913071Y-17810214D01*
X7884500Y-17795929D01*
X7870214Y-17781643D01*
X7855928Y-17753072D01*
X7841643Y-17695929D01*
X7841643Y-17624500D01*
X7855928Y-17567357D01*
X7870214Y-17538786D01*
X7884500Y-17524500D01*
X7913071Y-17510214D01*
X8284500Y-17510214D02*
X8141643Y-17510214D01*
X8127357Y-17653072D01*
X8141643Y-17638786D01*
X8170214Y-17624500D01*
X8241643Y-17624500D01*
X8270214Y-17638786D01*
X8284500Y-17653072D01*
X8298786Y-17681643D01*
X8298786Y-17753072D01*
X8284500Y-17781643D01*
X8270214Y-17795929D01*
X8241643Y-17810214D01*
X8170214Y-17810214D01*
X8141643Y-17795929D01*
X8127357Y-17781643D01*
X8584500Y-17810214D02*
X8413071Y-17810214D01*
X8498786Y-17810214D02*
X8498786Y-17510214D01*
X8470214Y-17553072D01*
X8441643Y-17581643D01*
X8413071Y-17595929D01*
X8698786Y-17510214D02*
X8698786Y-17567357D01*
X8813071Y-17510214D02*
X8813071Y-17567357D01*
X9255928Y-17924500D02*
X9241643Y-17910214D01*
X9213071Y-17867357D01*
X9198786Y-17838786D01*
X9184500Y-17795929D01*
X9170214Y-17724500D01*
X9170214Y-17667357D01*
X9184500Y-17595929D01*
X9198786Y-17553072D01*
X9213071Y-17524500D01*
X9241643Y-17481643D01*
X9255928Y-17467357D01*
X9341643Y-17510214D02*
X9527357Y-17510214D01*
X9427357Y-17624500D01*
X9470214Y-17624500D01*
X9498786Y-17638786D01*
X9513071Y-17653072D01*
X9527357Y-17681643D01*
X9527357Y-17753072D01*
X9513071Y-17781643D01*
X9498786Y-17795929D01*
X9470214Y-17810214D01*
X9384500Y-17810214D01*
X9355928Y-17795929D01*
X9341643Y-17781643D01*
X9884500Y-17810214D02*
X9884500Y-17510214D01*
X10013071Y-17810214D02*
X10013071Y-17653072D01*
X9998786Y-17624500D01*
X9970214Y-17610214D01*
X9927357Y-17610214D01*
X9898786Y-17624500D01*
X9884500Y-17638786D01*
X10198786Y-17810214D02*
X10170214Y-17795929D01*
X10155928Y-17781643D01*
X10141643Y-17753072D01*
X10141643Y-17667357D01*
X10155928Y-17638786D01*
X10170214Y-17624500D01*
X10198786Y-17610214D01*
X10241643Y-17610214D01*
X10270214Y-17624500D01*
X10284500Y-17638786D01*
X10298786Y-17667357D01*
X10298786Y-17753072D01*
X10284500Y-17781643D01*
X10270214Y-17795929D01*
X10241643Y-17810214D01*
X10198786Y-17810214D01*
X10470214Y-17810214D02*
X10441643Y-17795929D01*
X10427357Y-17767357D01*
X10427357Y-17510214D01*
X10698786Y-17795929D02*
X10670214Y-17810214D01*
X10613071Y-17810214D01*
X10584500Y-17795929D01*
X10570214Y-17767357D01*
X10570214Y-17653072D01*
X10584500Y-17624500D01*
X10613071Y-17610214D01*
X10670214Y-17610214D01*
X10698786Y-17624500D01*
X10713071Y-17653072D01*
X10713071Y-17681643D01*
X10570214Y-17710214D01*
X10827357Y-17795929D02*
X10855928Y-17810214D01*
X10913071Y-17810214D01*
X10941643Y-17795929D01*
X10955928Y-17767357D01*
X10955928Y-17753072D01*
X10941643Y-17724500D01*
X10913071Y-17710214D01*
X10870214Y-17710214D01*
X10841643Y-17695929D01*
X10827357Y-17667357D01*
X10827357Y-17653072D01*
X10841643Y-17624500D01*
X10870214Y-17610214D01*
X10913071Y-17610214D01*
X10941643Y-17624500D01*
X11055928Y-17924500D02*
X11070214Y-17910214D01*
X11098786Y-17867357D01*
X11113071Y-17838786D01*
X11127357Y-17795929D01*
X11141643Y-17724500D01*
X11141643Y-17667357D01*
X11127357Y-17595929D01*
X11113071Y-17553072D01*
X11098786Y-17524500D01*
X11070214Y-17481643D01*
X11055928Y-17467357D01*
X4414500Y-17993000D02*
X4569500Y-18148000D01*
X4569500Y-17993000D02*
X4414500Y-18148000D01*
X4492000Y-17993000D02*
X4492000Y-18148000D01*
X4414500Y-18070500D02*
X4569500Y-18070500D01*
X5013071Y-18206214D02*
X4841643Y-18206214D01*
X4927357Y-18206214D02*
X4927357Y-17906214D01*
X4898786Y-17949072D01*
X4870214Y-17977643D01*
X4841643Y-17991929D01*
X5141643Y-18177643D02*
X5155928Y-18191929D01*
X5141643Y-18206214D01*
X5127357Y-18191929D01*
X5141643Y-18177643D01*
X5141643Y-18206214D01*
X5427357Y-17906214D02*
X5284500Y-17906214D01*
X5270214Y-18049072D01*
X5284500Y-18034786D01*
X5313071Y-18020500D01*
X5384500Y-18020500D01*
X5413071Y-18034786D01*
X5427357Y-18049072D01*
X5441643Y-18077643D01*
X5441643Y-18149072D01*
X5427357Y-18177643D01*
X5413071Y-18191929D01*
X5384500Y-18206214D01*
X5313071Y-18206214D01*
X5284500Y-18191929D01*
X5270214Y-18177643D01*
X5713071Y-17906214D02*
X5570214Y-17906214D01*
X5555928Y-18049072D01*
X5570214Y-18034786D01*
X5598786Y-18020500D01*
X5670214Y-18020500D01*
X5698786Y-18034786D01*
X5713071Y-18049072D01*
X5727357Y-18077643D01*
X5727357Y-18149072D01*
X5713071Y-18177643D01*
X5698786Y-18191929D01*
X5670214Y-18206214D01*
X5598786Y-18206214D01*
X5570214Y-18191929D01*
X5555928Y-18177643D01*
X5855928Y-18206214D02*
X5855928Y-18006214D01*
X5855928Y-18034786D02*
X5870214Y-18020500D01*
X5898786Y-18006214D01*
X5941643Y-18006214D01*
X5970214Y-18020500D01*
X5984500Y-18049072D01*
X5984500Y-18206214D01*
X5984500Y-18049072D02*
X5998786Y-18020500D01*
X6027357Y-18006214D01*
X6070214Y-18006214D01*
X6098786Y-18020500D01*
X6113071Y-18049072D01*
X6113071Y-18206214D01*
X6255928Y-18206214D02*
X6255928Y-18006214D01*
X6255928Y-18034786D02*
X6270214Y-18020500D01*
X6298786Y-18006214D01*
X6341643Y-18006214D01*
X6370214Y-18020500D01*
X6384500Y-18049072D01*
X6384500Y-18206214D01*
X6384500Y-18049072D02*
X6398786Y-18020500D01*
X6427357Y-18006214D01*
X6470214Y-18006214D01*
X6498786Y-18020500D01*
X6513071Y-18049072D01*
X6513071Y-18206214D01*
X7098786Y-17891929D02*
X6841643Y-18277643D01*
X7484500Y-17906214D02*
X7513071Y-17906214D01*
X7541643Y-17920500D01*
X7555928Y-17934786D01*
X7570214Y-17963357D01*
X7584500Y-18020500D01*
X7584500Y-18091929D01*
X7570214Y-18149072D01*
X7555928Y-18177643D01*
X7541643Y-18191929D01*
X7513071Y-18206214D01*
X7484500Y-18206214D01*
X7455928Y-18191929D01*
X7441643Y-18177643D01*
X7427357Y-18149072D01*
X7413071Y-18091929D01*
X7413071Y-18020500D01*
X7427357Y-17963357D01*
X7441643Y-17934786D01*
X7455928Y-17920500D01*
X7484500Y-17906214D01*
X7713071Y-18177643D02*
X7727357Y-18191929D01*
X7713071Y-18206214D01*
X7698786Y-18191929D01*
X7713071Y-18177643D01*
X7713071Y-18206214D01*
X7913071Y-17906214D02*
X7941643Y-17906214D01*
X7970214Y-17920500D01*
X7984500Y-17934786D01*
X7998786Y-17963357D01*
X8013071Y-18020500D01*
X8013071Y-18091929D01*
X7998786Y-18149072D01*
X7984500Y-18177643D01*
X7970214Y-18191929D01*
X7941643Y-18206214D01*
X7913071Y-18206214D01*
X7884500Y-18191929D01*
X7870214Y-18177643D01*
X7855928Y-18149072D01*
X7841643Y-18091929D01*
X7841643Y-18020500D01*
X7855928Y-17963357D01*
X7870214Y-17934786D01*
X7884500Y-17920500D01*
X7913071Y-17906214D01*
X8270214Y-17906214D02*
X8213071Y-17906214D01*
X8184500Y-17920500D01*
X8170214Y-17934786D01*
X8141643Y-17977643D01*
X8127357Y-18034786D01*
X8127357Y-18149072D01*
X8141643Y-18177643D01*
X8155928Y-18191929D01*
X8184500Y-18206214D01*
X8241643Y-18206214D01*
X8270214Y-18191929D01*
X8284500Y-18177643D01*
X8298786Y-18149072D01*
X8298786Y-18077643D01*
X8284500Y-18049072D01*
X8270214Y-18034786D01*
X8241643Y-18020500D01*
X8184500Y-18020500D01*
X8155928Y-18034786D01*
X8141643Y-18049072D01*
X8127357Y-18077643D01*
X8584500Y-18206214D02*
X8413071Y-18206214D01*
X8498786Y-18206214D02*
X8498786Y-17906214D01*
X8470214Y-17949072D01*
X8441643Y-17977643D01*
X8413071Y-17991929D01*
X8698786Y-17906214D02*
X8698786Y-17963357D01*
X8813071Y-17906214D02*
X8813071Y-17963357D01*
X9255928Y-18320500D02*
X9241643Y-18306214D01*
X9213071Y-18263357D01*
X9198786Y-18234786D01*
X9184500Y-18191929D01*
X9170214Y-18120500D01*
X9170214Y-18063357D01*
X9184500Y-17991929D01*
X9198786Y-17949072D01*
X9213071Y-17920500D01*
X9241643Y-17877643D01*
X9255928Y-17863357D01*
X9355928Y-17934786D02*
X9370214Y-17920500D01*
X9398786Y-17906214D01*
X9470214Y-17906214D01*
X9498786Y-17920500D01*
X9513071Y-17934786D01*
X9527357Y-17963357D01*
X9527357Y-17991929D01*
X9513071Y-18034786D01*
X9341643Y-18206214D01*
X9527357Y-18206214D01*
X9884500Y-18206214D02*
X9884500Y-17906214D01*
X10013071Y-18206214D02*
X10013071Y-18049072D01*
X9998786Y-18020500D01*
X9970214Y-18006214D01*
X9927357Y-18006214D01*
X9898786Y-18020500D01*
X9884500Y-18034786D01*
X10198786Y-18206214D02*
X10170214Y-18191929D01*
X10155928Y-18177643D01*
X10141643Y-18149072D01*
X10141643Y-18063357D01*
X10155928Y-18034786D01*
X10170214Y-18020500D01*
X10198786Y-18006214D01*
X10241643Y-18006214D01*
X10270214Y-18020500D01*
X10284500Y-18034786D01*
X10298786Y-18063357D01*
X10298786Y-18149072D01*
X10284500Y-18177643D01*
X10270214Y-18191929D01*
X10241643Y-18206214D01*
X10198786Y-18206214D01*
X10470214Y-18206214D02*
X10441643Y-18191929D01*
X10427357Y-18163357D01*
X10427357Y-17906214D01*
X10698786Y-18191929D02*
X10670214Y-18206214D01*
X10613071Y-18206214D01*
X10584500Y-18191929D01*
X10570214Y-18163357D01*
X10570214Y-18049072D01*
X10584500Y-18020500D01*
X10613071Y-18006214D01*
X10670214Y-18006214D01*
X10698786Y-18020500D01*
X10713071Y-18049072D01*
X10713071Y-18077643D01*
X10570214Y-18106214D01*
X10827357Y-18191929D02*
X10855928Y-18206214D01*
X10913071Y-18206214D01*
X10941643Y-18191929D01*
X10955928Y-18163357D01*
X10955928Y-18149072D01*
X10941643Y-18120500D01*
X10913071Y-18106214D01*
X10870214Y-18106214D01*
X10841643Y-18091929D01*
X10827357Y-18063357D01*
X10827357Y-18049072D01*
X10841643Y-18020500D01*
X10870214Y-18006214D01*
X10913071Y-18006214D01*
X10941643Y-18020500D01*
X11055928Y-18320500D02*
X11070214Y-18306214D01*
X11098786Y-18263357D01*
X11113071Y-18234786D01*
X11127357Y-18191929D01*
X11141643Y-18120500D01*
X11141643Y-18063357D01*
X11127357Y-17991929D01*
X11113071Y-17949072D01*
X11098786Y-17920500D01*
X11070214Y-17877643D01*
X11055928Y-17863357D01*
X4284500Y-18324000D02*
X4569500Y-18609000D01*
X4569500Y-18324000D02*
X4284500Y-18609000D01*
X4527764Y-18567264D02*
X4527764Y-18365736D01*
X4326236Y-18365736D01*
X4326236Y-18567264D01*
X4527764Y-18567264D01*
X4841643Y-18330786D02*
X4855928Y-18316500D01*
X4884500Y-18302214D01*
X4955928Y-18302214D01*
X4984500Y-18316500D01*
X4998786Y-18330786D01*
X5013071Y-18359357D01*
X5013071Y-18387929D01*
X4998786Y-18430786D01*
X4827357Y-18602214D01*
X5013071Y-18602214D01*
X5141643Y-18573643D02*
X5155928Y-18587929D01*
X5141643Y-18602214D01*
X5127357Y-18587929D01*
X5141643Y-18573643D01*
X5141643Y-18602214D01*
X5327357Y-18430786D02*
X5298786Y-18416500D01*
X5284500Y-18402214D01*
X5270214Y-18373643D01*
X5270214Y-18359357D01*
X5284500Y-18330786D01*
X5298786Y-18316500D01*
X5327357Y-18302214D01*
X5384500Y-18302214D01*
X5413071Y-18316500D01*
X5427357Y-18330786D01*
X5441643Y-18359357D01*
X5441643Y-18373643D01*
X5427357Y-18402214D01*
X5413071Y-18416500D01*
X5384500Y-18430786D01*
X5327357Y-18430786D01*
X5298786Y-18445072D01*
X5284500Y-18459357D01*
X5270214Y-18487929D01*
X5270214Y-18545072D01*
X5284500Y-18573643D01*
X5298786Y-18587929D01*
X5327357Y-18602214D01*
X5384500Y-18602214D01*
X5413071Y-18587929D01*
X5427357Y-18573643D01*
X5441643Y-18545072D01*
X5441643Y-18487929D01*
X5427357Y-18459357D01*
X5413071Y-18445072D01*
X5384500Y-18430786D01*
X5713071Y-18302214D02*
X5570214Y-18302214D01*
X5555928Y-18445072D01*
X5570214Y-18430786D01*
X5598786Y-18416500D01*
X5670214Y-18416500D01*
X5698786Y-18430786D01*
X5713071Y-18445072D01*
X5727357Y-18473643D01*
X5727357Y-18545072D01*
X5713071Y-18573643D01*
X5698786Y-18587929D01*
X5670214Y-18602214D01*
X5598786Y-18602214D01*
X5570214Y-18587929D01*
X5555928Y-18573643D01*
X5855928Y-18602214D02*
X5855928Y-18402214D01*
X5855928Y-18430786D02*
X5870214Y-18416500D01*
X5898786Y-18402214D01*
X5941643Y-18402214D01*
X5970214Y-18416500D01*
X5984500Y-18445072D01*
X5984500Y-18602214D01*
X5984500Y-18445072D02*
X5998786Y-18416500D01*
X6027357Y-18402214D01*
X6070214Y-18402214D01*
X6098786Y-18416500D01*
X6113071Y-18445072D01*
X6113071Y-18602214D01*
X6255928Y-18602214D02*
X6255928Y-18402214D01*
X6255928Y-18430786D02*
X6270214Y-18416500D01*
X6298786Y-18402214D01*
X6341643Y-18402214D01*
X6370214Y-18416500D01*
X6384500Y-18445072D01*
X6384500Y-18602214D01*
X6384500Y-18445072D02*
X6398786Y-18416500D01*
X6427357Y-18402214D01*
X6470214Y-18402214D01*
X6498786Y-18416500D01*
X6513071Y-18445072D01*
X6513071Y-18602214D01*
X7098786Y-18287929D02*
X6841643Y-18673643D01*
X7484500Y-18302214D02*
X7513071Y-18302214D01*
X7541643Y-18316500D01*
X7555928Y-18330786D01*
X7570214Y-18359357D01*
X7584500Y-18416500D01*
X7584500Y-18487929D01*
X7570214Y-18545072D01*
X7555928Y-18573643D01*
X7541643Y-18587929D01*
X7513071Y-18602214D01*
X7484500Y-18602214D01*
X7455928Y-18587929D01*
X7441643Y-18573643D01*
X7427357Y-18545072D01*
X7413071Y-18487929D01*
X7413071Y-18416500D01*
X7427357Y-18359357D01*
X7441643Y-18330786D01*
X7455928Y-18316500D01*
X7484500Y-18302214D01*
X7713071Y-18573643D02*
X7727357Y-18587929D01*
X7713071Y-18602214D01*
X7698786Y-18587929D01*
X7713071Y-18573643D01*
X7713071Y-18602214D01*
X8013071Y-18602214D02*
X7841643Y-18602214D01*
X7927357Y-18602214D02*
X7927357Y-18302214D01*
X7898786Y-18345072D01*
X7870214Y-18373643D01*
X7841643Y-18387929D01*
X8298786Y-18602214D02*
X8127357Y-18602214D01*
X8213071Y-18602214D02*
X8213071Y-18302214D01*
X8184500Y-18345072D01*
X8155928Y-18373643D01*
X8127357Y-18387929D01*
X8413071Y-18330786D02*
X8427357Y-18316500D01*
X8455928Y-18302214D01*
X8527357Y-18302214D01*
X8555928Y-18316500D01*
X8570214Y-18330786D01*
X8584500Y-18359357D01*
X8584500Y-18387929D01*
X8570214Y-18430786D01*
X8398786Y-18602214D01*
X8584500Y-18602214D01*
X8698786Y-18302214D02*
X8698786Y-18359357D01*
X8813071Y-18302214D02*
X8813071Y-18359357D01*
X9255928Y-18716500D02*
X9241643Y-18702214D01*
X9213071Y-18659357D01*
X9198786Y-18630786D01*
X9184500Y-18587929D01*
X9170214Y-18516500D01*
X9170214Y-18459357D01*
X9184500Y-18387929D01*
X9198786Y-18345072D01*
X9213071Y-18316500D01*
X9241643Y-18273643D01*
X9255928Y-18259357D01*
X9498786Y-18402214D02*
X9498786Y-18602214D01*
X9427357Y-18287929D02*
X9355928Y-18502214D01*
X9541643Y-18502214D01*
X9884500Y-18602214D02*
X9884500Y-18302214D01*
X10013071Y-18602214D02*
X10013071Y-18445072D01*
X9998786Y-18416500D01*
X9970214Y-18402214D01*
X9927357Y-18402214D01*
X9898786Y-18416500D01*
X9884500Y-18430786D01*
X10198786Y-18602214D02*
X10170214Y-18587929D01*
X10155928Y-18573643D01*
X10141643Y-18545072D01*
X10141643Y-18459357D01*
X10155928Y-18430786D01*
X10170214Y-18416500D01*
X10198786Y-18402214D01*
X10241643Y-18402214D01*
X10270214Y-18416500D01*
X10284500Y-18430786D01*
X10298786Y-18459357D01*
X10298786Y-18545072D01*
X10284500Y-18573643D01*
X10270214Y-18587929D01*
X10241643Y-18602214D01*
X10198786Y-18602214D01*
X10470214Y-18602214D02*
X10441643Y-18587929D01*
X10427357Y-18559357D01*
X10427357Y-18302214D01*
X10698786Y-18587929D02*
X10670214Y-18602214D01*
X10613071Y-18602214D01*
X10584500Y-18587929D01*
X10570214Y-18559357D01*
X10570214Y-18445072D01*
X10584500Y-18416500D01*
X10613071Y-18402214D01*
X10670214Y-18402214D01*
X10698786Y-18416500D01*
X10713071Y-18445072D01*
X10713071Y-18473643D01*
X10570214Y-18502214D01*
X10827357Y-18587929D02*
X10855928Y-18602214D01*
X10913071Y-18602214D01*
X10941643Y-18587929D01*
X10955928Y-18559357D01*
X10955928Y-18545072D01*
X10941643Y-18516500D01*
X10913071Y-18502214D01*
X10870214Y-18502214D01*
X10841643Y-18487929D01*
X10827357Y-18459357D01*
X10827357Y-18445072D01*
X10841643Y-18416500D01*
X10870214Y-18402214D01*
X10913071Y-18402214D01*
X10941643Y-18416500D01*
X11055928Y-18716500D02*
X11070214Y-18702214D01*
X11098786Y-18659357D01*
X11113071Y-18630786D01*
X11127357Y-18587929D01*
X11141643Y-18516500D01*
X11141643Y-18459357D01*
X11127357Y-18387929D01*
X11113071Y-18345072D01*
X11098786Y-18316500D01*
X11070214Y-18273643D01*
X11055928Y-18259357D01*
M02*
