%TF.GenerationSoftware,KiCad,Pcbnew,(6.0.6)*%
%TF.CreationDate,2022-08-08T10:31:16+02:00*%
%TF.ProjectId,Z80AllInOne,5a383041-6c6c-4496-9e4f-6e652e6b6963,rev?*%
%TF.SameCoordinates,Original*%
%TF.FileFunction,Paste,Top*%
%TF.FilePolarity,Positive*%
%FSLAX46Y46*%
G04 Gerber Fmt 4.6, Leading zero omitted, Abs format (unit mm)*
G04 Created by KiCad (PCBNEW (6.0.6)) date 2022-08-08 10:31:16*
%MOMM*%
%LPD*%
G01*
G04 APERTURE LIST*
G04 Aperture macros list*
%AMRoundRect*
0 Rectangle with rounded corners*
0 $1 Rounding radius*
0 $2 $3 $4 $5 $6 $7 $8 $9 X,Y pos of 4 corners*
0 Add a 4 corners polygon primitive as box body*
4,1,4,$2,$3,$4,$5,$6,$7,$8,$9,$2,$3,0*
0 Add four circle primitives for the rounded corners*
1,1,$1+$1,$2,$3*
1,1,$1+$1,$4,$5*
1,1,$1+$1,$6,$7*
1,1,$1+$1,$8,$9*
0 Add four rect primitives between the rounded corners*
20,1,$1+$1,$2,$3,$4,$5,0*
20,1,$1+$1,$4,$5,$6,$7,0*
20,1,$1+$1,$6,$7,$8,$9,0*
20,1,$1+$1,$8,$9,$2,$3,0*%
G04 Aperture macros list end*
%ADD10R,2.000000X0.500000*%
%ADD11R,1.700000X2.000000*%
%ADD12R,1.750000X0.450000*%
%ADD13RoundRect,0.150000X0.150000X-0.587500X0.150000X0.587500X-0.150000X0.587500X-0.150000X-0.587500X0*%
%ADD14RoundRect,0.218750X0.218750X0.381250X-0.218750X0.381250X-0.218750X-0.381250X0.218750X-0.381250X0*%
G04 APERTURE END LIST*
D10*
%TO.C,J1*%
X397545000Y-129240000D03*
X397545000Y-128440000D03*
X397545000Y-127640000D03*
X397545000Y-126840000D03*
X397545000Y-126040000D03*
D11*
X403095000Y-132090000D03*
X397645000Y-123190000D03*
X397645000Y-132090000D03*
X403095000Y-123190000D03*
%TD*%
D12*
%TO.C,U6*%
X368222500Y-157165000D03*
X368222500Y-157815000D03*
X368222500Y-158465000D03*
X368222500Y-159115000D03*
X368222500Y-159765000D03*
X368222500Y-160415000D03*
X368222500Y-161065000D03*
X368222500Y-161715000D03*
X368222500Y-162365000D03*
X368222500Y-163015000D03*
X368222500Y-163665000D03*
X368222500Y-164315000D03*
X368222500Y-164965000D03*
X368222500Y-165615000D03*
X375422500Y-165615000D03*
X375422500Y-164965000D03*
X375422500Y-164315000D03*
X375422500Y-163665000D03*
X375422500Y-163015000D03*
X375422500Y-162365000D03*
X375422500Y-161715000D03*
X375422500Y-161065000D03*
X375422500Y-160415000D03*
X375422500Y-159765000D03*
X375422500Y-159115000D03*
X375422500Y-158465000D03*
X375422500Y-157815000D03*
X375422500Y-157165000D03*
%TD*%
D13*
%TO.C,Q1*%
X373700000Y-180007500D03*
X375600000Y-180007500D03*
X374650000Y-178132500D03*
%TD*%
D14*
%TO.C,FB1*%
X382270000Y-180340000D03*
X380145000Y-180340000D03*
%TD*%
M02*
