M48
; DRILL file {KiCad (6.0.6)} date Mon Aug  8 10:31:12 2022
; FORMAT={-:-/ absolute / metric / decimal}
; #@! TF.CreationDate,2022-08-08T10:31:12+02:00
; #@! TF.GenerationSoftware,Kicad,Pcbnew,(6.0.6)
; #@! TF.FileFunction,Plated,1,2,PTH
FMAT,2
METRIC
; #@! TA.AperFunction,Plated,PTH,ViaDrill
T1C0.400
; #@! TA.AperFunction,Plated,PTH,ComponentDrill
T2C0.750
; #@! TA.AperFunction,Plated,PTH,ComponentDrill
T3C0.800
; #@! TA.AperFunction,Plated,PTH,ComponentDrill
T4C0.900
; #@! TA.AperFunction,Plated,PTH,ComponentDrill
T5C1.000
; #@! TA.AperFunction,Plated,PTH,ComponentDrill
T6C1.100
; #@! TA.AperFunction,Plated,PTH,ComponentDrill
T7C1.200
; #@! TA.AperFunction,Plated,PTH,ComponentDrill
T8C1.400
; #@! TA.AperFunction,Plated,PTH,ComponentDrill
T9C1.550
; #@! TA.AperFunction,Plated,PTH,ComponentDrill
T10C2.850
; #@! TA.AperFunction,Plated,PTH,ComponentDrill
T11C3.200
%
G90
G05
T1
X20.32Y-170.18
X21.59Y-173.99
X22.86Y-172.72
X24.13Y-171.45
X25.4Y-175.26
X26.67Y-168.91
X27.94Y-167.64
X29.21Y-177.8
X31.75Y-176.53
X34.29Y-49.53
X34.29Y-63.5
X40.64Y-93.98
X40.64Y-214.63
X41.91Y-55.88
X41.91Y-217.805
X44.45Y-49.53
X44.45Y-58.42
X44.45Y-93.98
X45.085Y-177.8
X45.72Y-50.8
X48.26Y-149.86
X48.26Y-171.45
X49.53Y-48.26
X49.53Y-125.095
X50.8Y-49.53
X50.8Y-92.71
X52.07Y-93.98
X52.07Y-176.53
X54.61Y-48.26
X57.15Y-48.26
X58.42Y-215.9
X59.69Y-48.26
X59.69Y-173.99
X60.96Y-173.355
X62.23Y-48.26
X62.23Y-93.98
X62.23Y-172.72
X63.5Y-49.53
X63.5Y-87.63
X63.5Y-172.085
X64.77Y-50.8
X64.77Y-86.36
X64.77Y-171.45
X66.04Y-73.66
X66.04Y-170.815
X67.31Y-48.26
X67.31Y-74.93
X67.31Y-170.18
X68.58Y-85.09
X68.58Y-146.685
X68.58Y-168.91
X69.85Y-48.26
X69.85Y-83.82
X69.85Y-143.51
X69.85Y-151.13
X69.85Y-167.64
X71.12Y-82.55
X71.12Y-140.97
X71.12Y-153.67
X71.12Y-167.005
X72.39Y-48.26
X72.39Y-81.28
X72.39Y-138.43
X72.39Y-156.21
X72.39Y-166.37
X73.66Y-80.01
X73.66Y-135.89
X73.66Y-158.75
X73.66Y-165.735
X74.93Y-92.71
X74.93Y-133.35
X74.93Y-157.48
X74.93Y-165.1
X76.2Y-50.8
X76.2Y-78.74
X76.2Y-130.81
X76.2Y-154.94
X76.2Y-164.465
X77.47Y-128.27
X77.47Y-152.4
X77.47Y-163.83
X78.74Y-49.53
X78.74Y-125.73
X78.74Y-149.86
X78.74Y-163.195
X80.01Y-48.26
X80.01Y-175.26
X80.645Y-95.885
X81.28Y-176.53
X82.55Y-49.53
X82.55Y-168.454
X83.82Y-48.26
X83.82Y-179.07
X85.09Y-215.355
X86.36Y-217.17
X87.63Y-162.56
X88.9Y-216.624
X90.17Y-180.975
X91.44Y-102.325
X91.44Y-212.09
X92.71Y-127.0
X92.71Y-161.29
X97.79Y-179.794
X100.33Y-160.015
X101.6Y-161.925
X102.87Y-161.195
X106.68Y-95.885
X107.95Y-102.325
X113.665Y-167.005
X115.57Y-175.35
X117.475Y-85.725
X118.745Y-84.455
X120.015Y-83.185
X120.65Y-173.802
X124.46Y-62.865
X125.73Y-61.595
X125.73Y-174.625
X132.08Y-104.14
X135.255Y-55.245
X137.16Y-55.245
X139.7Y-151.76
X142.24Y-55.245
X142.24Y-151.76
X144.78Y-151.76
X145.415Y-92.075
X146.05Y-157.48
X146.685Y-88.265
X147.32Y-151.76
X147.32Y-156.929
X149.86Y-154.389
X149.86Y-158.839
X152.4Y-155.024
X154.94Y-155.659
X154.94Y-159.385
X156.21Y-158.204
X157.48Y-156.294
X161.29Y-157.57
X162.56Y-142.235
X163.83Y-112.39
X164.465Y-102.325
X170.815Y-152.484
X172.085Y-153.03
X173.355Y-153.665
X174.665Y-187.96
X174.665Y-213.36
X175.935Y-195.58
X177.8Y-163.284
X179.07Y-162.56
X179.705Y-159.385
X180.34Y-161.379
X180.975Y-156.294
X181.61Y-160.744
X182.245Y-155.659
X185.42Y-164.009
X186.055Y-154.3
X187.236Y-154.935
X187.96Y-156.845
X187.96Y-164.733
X189.23Y-116.835
X189.23Y-157.48
X189.23Y-165.458
X190.5Y-164.009
X191.77Y-173.802
X193.04Y-167.005
X194.31Y-166.183
X196.215Y-86.995
X196.85Y-176.799
X199.39Y-166.183
X199.39Y-179.705
X200.66Y-165.458
X201.93Y-164.733
X202.654Y-163.284
X203.835Y-162.56
X204.559Y-161.469
X205.105Y-93.345
X205.74Y-160.744
X206.375Y-94.615
X207.645Y-90.805
X208.28Y-168.454
X208.915Y-89.535
X209.55Y-167.73
X210.185Y-92.075
X210.82Y-177.165
X218.44Y-95.885
X219.71Y-96.609
X219.71Y-174.625
X220.98Y-167.005
X222.25Y-173.078
X222.25Y-177.889
X223.52Y-172.353
X224.79Y-109.22
X224.79Y-171.629
X226.06Y-170.904
X227.33Y-170.18
X228.6Y-169.178
X230.326Y-168.454
X231.775Y-167.73
X233.68Y-157.48
X240.665Y-154.94
X241.3Y-114.935
X242.57Y-177.165
X242.57Y-210.185
X243.205Y-180.975
X245.11Y-208.28
X246.38Y-153.67
X246.38Y-177.165
X247.65Y-180.975
X248.92Y-175.35
X250.19Y-175.895
X256.54Y-157.48
X256.54Y-207.645
X259.08Y-162.56
X260.35Y-123.19
X260.35Y-161.469
X260.985Y-208.915
X261.62Y-86.995
X261.62Y-160.744
X263.525Y-179.07
X264.795Y-173.9
X265.43Y-166.183
X266.065Y-177.165
X266.7Y-165.458
X267.97Y-164.733
X269.24Y-163.919
X271.78Y-163.284
X274.32Y-118.11
X275.59Y-114.3
X276.86Y-95.885
X276.86Y-107.315
X276.86Y-141.605
X278.765Y-160.02
X280.67Y-191.77
X283.21Y-177.8
X285.115Y-60.96
X285.75Y-156.21
X288.29Y-164.734
X288.29Y-179.07
X289.56Y-165.458
X290.83Y-162.56
X292.1Y-166.183
X293.37Y-160.744
X294.64Y-208.915
X295.91Y-167.005
X298.45Y-96.52
X298.45Y-161.469
X299.72Y-88.265
X299.72Y-163.284
X300.99Y-164.009
X302.26Y-176.53
X303.53Y-175.26
X304.8Y-173.99
X306.07Y-172.72
X307.34Y-171.45
X308.61Y-170.18
X311.15Y-177.8
X313.69Y-179.07
X314.96Y-180.34
X316.23Y-167.64
X316.23Y-205.74
X317.5Y-168.91
X317.5Y-204.47
X318.77Y-151.765
X318.77Y-217.26
X320.04Y-215.265
X321.31Y-150.495
X321.31Y-217.805
X325.12Y-215.265
X330.2Y-98.425
X330.2Y-216.535
X331.47Y-207.645
X332.74Y-159.385
X334.01Y-160.655
X335.28Y-161.925
X336.55Y-163.195
X337.82Y-164.465
X339.09Y-165.735
X340.36Y-167.005
X341.63Y-168.275
X342.9Y-182.88
X347.98Y-179.07
X353.695Y-207.645
X354.33Y-168.275
X355.6Y-181.61
X356.87Y-170.18
X358.14Y-171.45
X359.41Y-172.72
X360.68Y-177.8
X361.95Y-168.275
X365.125Y-159.385
X368.3Y-151.13
X372.11Y-160.02
X374.65Y-153.67
X379.73Y-161.29
X384.81Y-191.77
X384.81Y-210.185
X394.33Y-127.64
X394.335Y-129.54
T2
X173.355Y-73.025
X174.625Y-73.025
X175.895Y-73.025
X293.37Y-86.995
X293.37Y-88.265
X293.37Y-89.535
X330.2Y-65.386
X330.2Y-66.656
X330.2Y-67.926
T3
X17.78Y-91.44
X17.78Y-93.98
X17.78Y-96.52
X17.78Y-99.06
X17.86Y-86.36
X20.955Y-109.22
X20.955Y-114.22
X21.59Y-76.24
X21.59Y-78.74
X22.86Y-86.36
X25.4Y-91.44
X25.4Y-93.98
X25.4Y-96.52
X25.4Y-99.06
X27.94Y-108.9
X27.94Y-110.9
X29.845Y-77.51
X29.845Y-82.51
X31.115Y-98.425
X31.115Y-101.6
X31.115Y-104.775
X31.195Y-86.36
X33.655Y-72.39
X33.655Y-82.55
X36.195Y-86.36
X39.39Y-118.035
X39.39Y-120.575
X39.39Y-123.115
X39.39Y-125.655
X39.39Y-128.195
X39.39Y-130.735
X39.39Y-133.275
X39.39Y-135.815
X39.39Y-138.355
X39.39Y-140.895
X39.39Y-143.435
X39.39Y-145.975
X39.39Y-148.515
X39.39Y-151.055
X39.39Y-153.595
X39.39Y-156.135
X39.39Y-158.675
X39.39Y-161.215
X39.39Y-163.755
X39.39Y-166.295
X41.275Y-98.425
X41.275Y-101.6
X41.275Y-104.775
X46.99Y-187.945
X46.99Y-190.485
X46.99Y-193.025
X46.99Y-195.565
X46.99Y-198.105
X46.99Y-200.645
X46.99Y-203.185
X49.6Y-184.14
X49.61Y-114.3
X54.6Y-184.14
X54.61Y-114.3
X54.61Y-187.945
X54.61Y-190.485
X54.61Y-193.025
X54.61Y-195.565
X54.61Y-198.105
X54.61Y-200.645
X54.61Y-203.185
X54.63Y-118.035
X54.63Y-120.575
X54.63Y-123.115
X54.63Y-125.655
X54.63Y-128.195
X54.63Y-130.735
X54.63Y-133.275
X54.63Y-135.815
X54.63Y-138.355
X54.63Y-140.895
X54.63Y-143.435
X54.63Y-145.975
X54.63Y-148.515
X54.63Y-151.055
X54.63Y-153.595
X54.63Y-156.135
X54.63Y-158.675
X54.63Y-161.215
X54.63Y-163.755
X54.63Y-166.295
X87.63Y-63.589
X87.63Y-71.209
X87.64Y-50.8
X87.64Y-58.42
X90.18Y-50.8
X90.18Y-58.42
X91.44Y-63.5
X91.44Y-71.12
X92.715Y-76.205
X92.715Y-91.445
X92.72Y-50.8
X92.72Y-58.42
X95.25Y-63.589
X95.25Y-71.209
X95.25Y-110.49
X95.25Y-113.03
X95.25Y-115.57
X95.25Y-118.11
X95.25Y-120.65
X95.25Y-123.19
X95.25Y-125.73
X95.25Y-128.27
X95.25Y-130.81
X95.25Y-133.35
X95.25Y-135.89
X95.25Y-138.43
X95.25Y-140.97
X95.25Y-143.51
X95.25Y-146.05
X95.25Y-148.59
X95.25Y-151.13
X95.25Y-153.67
X95.25Y-156.21
X95.25Y-158.75
X95.255Y-76.205
X95.255Y-91.445
X95.26Y-50.8
X95.26Y-58.42
X97.795Y-76.205
X97.795Y-91.445
X99.06Y-63.589
X99.06Y-71.209
X100.335Y-76.205
X100.335Y-91.445
X102.875Y-76.205
X102.875Y-91.445
X105.415Y-76.205
X105.415Y-91.445
X107.955Y-76.205
X107.955Y-91.445
X110.49Y-110.49
X110.49Y-113.03
X110.49Y-115.57
X110.49Y-118.11
X110.49Y-120.65
X110.49Y-123.19
X110.49Y-125.73
X110.49Y-128.27
X110.49Y-130.81
X110.49Y-133.35
X110.49Y-135.89
X110.49Y-138.43
X110.49Y-140.97
X110.49Y-143.51
X110.49Y-146.05
X110.49Y-148.59
X110.49Y-151.13
X110.49Y-153.67
X110.49Y-156.21
X110.49Y-158.75
X110.495Y-76.205
X110.495Y-91.445
X113.035Y-76.205
X113.035Y-91.445
X114.34Y-128.265
X115.51Y-110.575
X115.51Y-115.475
X115.555Y-187.975
X115.555Y-190.515
X115.555Y-193.055
X115.555Y-195.595
X115.555Y-198.135
X115.555Y-200.675
X115.555Y-203.215
X115.575Y-76.205
X115.575Y-91.445
X118.115Y-76.205
X118.115Y-91.445
X118.19Y-184.17
X119.34Y-128.265
X120.055Y-110.485
X120.055Y-115.565
X120.655Y-76.205
X120.655Y-91.445
X123.175Y-187.975
X123.175Y-190.515
X123.175Y-193.055
X123.175Y-195.595
X123.175Y-198.135
X123.175Y-200.675
X123.175Y-203.215
X123.19Y-72.35
X123.19Y-184.17
X123.195Y-76.205
X123.195Y-91.445
X125.055Y-110.485
X125.055Y-115.565
X125.735Y-76.205
X125.735Y-91.445
X128.19Y-72.35
X128.275Y-76.205
X128.275Y-91.445
X130.815Y-76.205
X130.815Y-91.445
X132.08Y-111.755
X132.08Y-116.755
X132.08Y-127.075
X132.08Y-132.075
X132.08Y-142.275
X132.08Y-147.275
X133.355Y-76.205
X133.355Y-91.445
X135.89Y-127.095
X135.89Y-134.715
X135.895Y-76.205
X135.895Y-91.445
X135.895Y-111.845
X135.895Y-119.465
X135.895Y-142.325
X135.895Y-149.945
X138.43Y-127.095
X138.43Y-134.715
X138.435Y-76.205
X138.435Y-91.445
X138.435Y-111.845
X138.435Y-119.465
X138.435Y-142.325
X138.435Y-149.945
X140.97Y-127.095
X140.97Y-134.715
X140.975Y-76.205
X140.975Y-91.445
X140.975Y-111.845
X140.975Y-119.465
X140.975Y-142.325
X140.975Y-149.945
X143.51Y-127.095
X143.51Y-134.715
X143.515Y-111.845
X143.515Y-119.465
X143.515Y-142.325
X143.515Y-149.945
X146.05Y-127.095
X146.05Y-134.715
X146.055Y-111.845
X146.055Y-119.465
X146.055Y-142.325
X146.055Y-149.945
X148.59Y-127.095
X148.59Y-134.715
X148.595Y-111.845
X148.595Y-119.465
X148.595Y-142.325
X148.595Y-149.945
X149.865Y-187.96
X149.865Y-190.5
X149.865Y-193.04
X149.865Y-195.58
X149.865Y-198.12
X149.865Y-200.66
X149.865Y-203.2
X151.13Y-127.095
X151.13Y-134.715
X151.135Y-111.845
X151.135Y-119.465
X151.135Y-142.325
X151.135Y-149.945
X152.475Y-184.155
X153.67Y-127.095
X153.67Y-134.715
X153.675Y-111.845
X153.675Y-119.465
X153.675Y-142.325
X153.675Y-149.945
X156.21Y-127.095
X156.21Y-134.715
X156.215Y-111.845
X156.215Y-119.465
X156.215Y-142.325
X156.215Y-149.945
X157.475Y-184.155
X157.485Y-187.96
X157.485Y-190.5
X157.485Y-193.04
X157.485Y-195.58
X157.485Y-198.12
X157.485Y-200.66
X157.485Y-203.2
X158.75Y-127.095
X158.75Y-134.715
X158.755Y-111.845
X158.755Y-119.465
X158.755Y-142.325
X158.755Y-149.945
X159.385Y-67.945
X159.385Y-73.105
X159.385Y-78.185
X168.91Y-114.295
X168.91Y-116.835
X168.91Y-119.375
X168.91Y-121.915
X168.91Y-124.455
X168.91Y-126.995
X168.91Y-129.535
X168.91Y-132.075
X168.91Y-134.615
X168.91Y-137.155
X168.91Y-139.695
X168.91Y-142.235
X168.91Y-144.775
X168.91Y-147.315
X169.545Y-67.945
X169.545Y-73.105
X169.545Y-78.185
X173.355Y-38.735
X173.355Y-46.355
X179.15Y-110.485
X179.705Y-73.225
X179.705Y-78.225
X180.34Y-38.735
X180.34Y-46.355
X183.505Y-187.97
X183.505Y-190.51
X183.505Y-193.05
X183.505Y-195.59
X183.505Y-198.13
X183.505Y-200.67
X183.505Y-203.21
X183.505Y-205.75
X183.505Y-208.29
X183.505Y-210.83
X184.15Y-110.485
X184.15Y-114.295
X184.15Y-116.835
X184.15Y-119.375
X184.15Y-121.915
X184.15Y-124.455
X184.15Y-126.995
X184.15Y-129.535
X184.15Y-132.075
X184.15Y-134.615
X184.15Y-137.155
X184.15Y-139.695
X184.15Y-142.235
X184.15Y-144.775
X184.15Y-147.315
X186.175Y-184.15
X186.69Y-38.735
X186.69Y-41.91
X186.77Y-45.72
X191.125Y-187.97
X191.125Y-190.51
X191.125Y-193.05
X191.125Y-195.59
X191.125Y-198.13
X191.125Y-200.67
X191.125Y-203.21
X191.125Y-205.75
X191.125Y-208.29
X191.125Y-210.83
X191.175Y-184.15
X191.77Y-45.72
X191.77Y-67.31
X191.77Y-72.39
X191.77Y-77.47
X194.31Y-38.735
X194.31Y-41.91
X195.63Y-114.345
X195.63Y-116.885
X195.63Y-119.425
X195.63Y-121.965
X195.63Y-124.505
X195.63Y-127.045
X195.63Y-129.585
X195.63Y-132.125
X195.63Y-134.665
X195.63Y-137.205
X195.63Y-139.745
X195.63Y-142.285
X195.63Y-144.825
X195.63Y-147.365
X196.85Y-154.3
X198.12Y-36.87
X198.12Y-41.87
X198.875Y-187.98
X198.875Y-190.52
X198.875Y-193.06
X198.875Y-195.6
X198.875Y-198.14
X198.875Y-200.68
X198.875Y-203.22
X198.875Y-205.76
X199.39Y-67.31
X199.39Y-72.39
X199.39Y-77.47
X201.47Y-184.155
X202.01Y-110.485
X203.2Y-64.77
X203.2Y-67.31
X203.2Y-69.85
X203.2Y-72.39
X203.2Y-74.93
X203.2Y-77.47
X203.2Y-80.01
X205.82Y-60.96
X206.47Y-184.155
X206.495Y-187.98
X206.495Y-190.52
X206.495Y-193.06
X206.495Y-195.6
X206.495Y-198.14
X206.495Y-200.68
X206.495Y-203.22
X206.495Y-205.76
X207.01Y-110.485
X207.01Y-154.3
X210.82Y-60.96
X210.82Y-64.77
X210.82Y-67.31
X210.82Y-69.85
X210.82Y-72.39
X210.82Y-74.93
X210.82Y-77.47
X210.82Y-80.01
X210.87Y-114.345
X210.87Y-116.885
X210.87Y-119.425
X210.87Y-121.965
X210.87Y-124.505
X210.87Y-127.045
X210.87Y-129.585
X210.87Y-132.125
X210.87Y-134.665
X210.87Y-137.205
X210.87Y-139.745
X210.87Y-142.285
X210.87Y-144.825
X210.87Y-147.365
X212.86Y-185.425
X212.86Y-187.965
X212.86Y-190.505
X212.86Y-193.045
X212.86Y-195.585
X212.86Y-198.125
X212.86Y-200.665
X212.86Y-203.205
X212.86Y-205.745
X214.63Y-64.77
X214.63Y-69.85
X214.63Y-74.93
X214.63Y-80.01
X221.695Y-187.96
X221.695Y-190.5
X221.695Y-193.04
X221.695Y-195.58
X221.695Y-198.12
X221.695Y-200.66
X221.695Y-203.2
X222.25Y-64.77
X222.25Y-69.85
X222.25Y-74.93
X222.25Y-80.01
X224.235Y-184.15
X229.235Y-73.025
X229.235Y-80.645
X229.235Y-184.15
X229.315Y-187.96
X229.315Y-190.5
X229.315Y-193.04
X229.315Y-195.58
X229.315Y-198.12
X229.315Y-200.66
X229.315Y-203.2
X233.045Y-73.025
X233.045Y-80.645
X233.68Y-118.11
X233.68Y-120.65
X233.68Y-123.19
X233.68Y-125.73
X233.68Y-128.27
X233.68Y-130.81
X233.68Y-133.35
X233.68Y-135.89
X233.68Y-138.43
X233.68Y-140.97
X233.68Y-143.51
X233.68Y-146.05
X233.68Y-148.59
X233.68Y-151.13
X236.302Y-59.055
X236.855Y-69.85
X236.855Y-73.025
X236.855Y-80.645
X237.49Y-187.95
X237.49Y-190.49
X237.49Y-193.03
X237.49Y-195.57
X237.49Y-198.11
X237.49Y-200.65
X237.49Y-203.19
X237.49Y-205.73
X238.802Y-59.055
X240.11Y-184.15
X240.665Y-73.025
X240.665Y-80.645
X241.855Y-69.85
X243.92Y-113.025
X244.475Y-73.025
X244.475Y-80.645
X245.11Y-184.15
X245.11Y-187.95
X245.11Y-190.49
X245.11Y-193.03
X245.11Y-195.57
X245.11Y-198.11
X245.11Y-200.65
X245.11Y-203.19
X245.11Y-205.73
X248.285Y-73.025
X248.285Y-80.645
X248.92Y-113.025
X248.92Y-118.11
X248.92Y-120.65
X248.92Y-123.19
X248.92Y-125.73
X248.92Y-128.27
X248.92Y-130.81
X248.92Y-133.35
X248.92Y-135.89
X248.92Y-138.43
X248.92Y-140.97
X248.92Y-143.51
X248.92Y-146.05
X248.92Y-148.59
X248.92Y-151.13
X252.095Y-73.025
X252.095Y-80.645
X253.35Y-188.06
X253.35Y-190.6
X253.35Y-193.14
X253.35Y-195.68
X253.35Y-198.22
X253.35Y-200.76
X253.35Y-203.3
X255.905Y-73.025
X255.905Y-80.645
X255.985Y-184.15
X256.54Y-118.11
X256.54Y-120.65
X256.54Y-123.19
X256.54Y-125.73
X256.54Y-128.27
X256.54Y-130.81
X256.54Y-133.35
X256.54Y-135.89
X256.54Y-138.43
X256.54Y-140.97
X256.54Y-143.51
X256.54Y-146.05
X256.54Y-148.59
X256.54Y-151.13
X259.715Y-68.58
X259.715Y-73.035
X259.715Y-75.575
X259.715Y-78.115
X259.715Y-80.655
X260.97Y-188.06
X260.97Y-190.6
X260.97Y-193.14
X260.97Y-195.68
X260.97Y-198.22
X260.97Y-200.76
X260.97Y-203.3
X260.985Y-184.15
X266.7Y-113.025
X267.325Y-187.95
X267.325Y-190.49
X267.325Y-193.03
X267.325Y-195.57
X267.325Y-198.11
X267.325Y-200.65
X267.325Y-203.19
X267.325Y-205.73
X267.335Y-68.58
X267.335Y-73.035
X267.335Y-75.575
X267.335Y-78.115
X267.335Y-80.655
X268.358Y-43.265
X268.358Y-48.265
X269.955Y-184.15
X271.7Y-113.025
X271.78Y-118.11
X271.78Y-120.65
X271.78Y-123.19
X271.78Y-125.73
X271.78Y-128.27
X271.78Y-130.81
X271.78Y-133.35
X271.78Y-135.89
X271.78Y-138.43
X271.78Y-140.97
X271.78Y-143.51
X271.78Y-146.05
X271.78Y-148.59
X271.78Y-151.13
X272.415Y-34.925
X272.415Y-38.1
X274.945Y-187.95
X274.945Y-190.49
X274.945Y-193.03
X274.945Y-195.57
X274.945Y-198.11
X274.945Y-200.65
X274.945Y-203.19
X274.945Y-205.73
X274.955Y-184.15
X280.035Y-34.925
X280.035Y-38.1
X280.67Y-88.265
X288.29Y-88.265
X288.29Y-127.635
X288.29Y-132.635
X288.29Y-190.5
X288.29Y-193.04
X288.29Y-195.58
X288.29Y-198.12
X288.29Y-200.66
X288.29Y-203.2
X288.29Y-205.74
X290.87Y-186.69
X295.87Y-186.69
X295.91Y-107.315
X295.91Y-109.855
X295.91Y-112.395
X295.91Y-114.935
X295.91Y-117.475
X295.91Y-120.015
X295.91Y-122.555
X295.91Y-125.095
X295.91Y-127.635
X295.91Y-130.175
X295.91Y-132.715
X295.91Y-135.255
X295.91Y-137.795
X295.91Y-140.335
X295.91Y-142.875
X295.91Y-145.415
X295.91Y-147.955
X295.91Y-150.495
X295.91Y-153.035
X295.91Y-155.575
X295.91Y-190.5
X295.91Y-193.04
X295.91Y-195.58
X295.91Y-198.12
X295.91Y-200.66
X295.91Y-203.2
X295.91Y-205.74
X298.45Y-43.18
X298.45Y-50.8
X300.99Y-90.805
X300.99Y-98.425
X302.27Y-66.035
X302.27Y-68.575
X302.27Y-71.115
X302.27Y-73.655
X302.27Y-76.195
X302.27Y-78.735
X302.27Y-81.275
X304.88Y-60.96
X308.61Y-90.805
X308.61Y-98.425
X309.88Y-60.96
X309.89Y-66.035
X309.89Y-68.575
X309.89Y-71.115
X309.89Y-73.655
X309.89Y-76.195
X309.89Y-78.735
X309.89Y-81.275
X311.15Y-107.315
X311.15Y-109.855
X311.15Y-112.395
X311.15Y-114.935
X311.15Y-117.475
X311.15Y-120.015
X311.15Y-122.555
X311.15Y-125.095
X311.15Y-127.635
X311.15Y-130.175
X311.15Y-132.715
X311.15Y-135.255
X311.15Y-137.795
X311.15Y-140.335
X311.15Y-142.875
X311.15Y-145.415
X311.15Y-147.955
X311.15Y-150.495
X311.15Y-153.035
X311.15Y-155.575
X314.96Y-93.385
X314.96Y-98.385
X314.97Y-66.796
X314.97Y-69.336
X314.97Y-71.876
X314.97Y-74.416
X316.27Y-60.96
X317.54Y-79.356
X318.77Y-60.96
X320.04Y-139.065
X320.04Y-146.685
X322.54Y-79.356
X322.59Y-66.796
X322.59Y-69.336
X322.59Y-71.876
X322.59Y-74.416
X325.12Y-139.065
X325.12Y-146.685
X327.66Y-71.736
X327.66Y-79.356
X330.2Y-139.065
X330.2Y-146.685
X332.74Y-71.736
X332.74Y-79.356
X333.267Y-210.455
X333.267Y-212.455
X335.267Y-210.455
X335.267Y-212.455
X336.55Y-217.17
X337.267Y-210.455
X337.267Y-212.455
X337.82Y-71.736
X337.82Y-79.356
X339.267Y-210.455
X339.267Y-212.455
X341.267Y-210.455
X341.267Y-212.455
X342.9Y-71.736
X342.9Y-79.356
X343.267Y-210.455
X343.267Y-212.455
X345.267Y-210.455
X345.267Y-212.455
X345.44Y-116.84
X345.44Y-119.38
X345.44Y-121.92
X345.44Y-124.46
X345.44Y-127.0
X345.44Y-129.54
X345.44Y-132.08
X345.44Y-134.62
X345.44Y-137.16
X345.44Y-139.7
X345.44Y-142.24
X345.44Y-144.78
X345.44Y-147.32
X345.44Y-149.86
X345.44Y-152.4
X345.44Y-154.94
X345.44Y-157.48
X345.44Y-160.02
X345.44Y-162.56
X345.44Y-165.1
X346.71Y-74.316
X346.71Y-79.316
X346.71Y-217.17
X347.267Y-210.455
X347.267Y-212.455
X349.267Y-210.455
X349.267Y-212.455
X351.267Y-210.455
X351.267Y-212.455
X353.267Y-210.455
X353.267Y-212.455
X355.267Y-210.455
X355.267Y-212.455
X355.645Y-111.755
X357.267Y-210.455
X357.267Y-212.455
X359.267Y-210.455
X359.267Y-212.455
X360.645Y-111.755
X360.68Y-116.84
X360.68Y-119.38
X360.68Y-121.92
X360.68Y-124.46
X360.68Y-127.0
X360.68Y-129.54
X360.68Y-132.08
X360.68Y-134.62
X360.68Y-137.16
X360.68Y-139.7
X360.68Y-142.24
X360.68Y-144.78
X360.68Y-147.32
X360.68Y-149.86
X360.68Y-152.4
X360.68Y-154.94
X360.68Y-157.48
X360.68Y-160.02
X360.68Y-162.56
X360.68Y-165.1
X361.267Y-210.455
X361.267Y-212.455
X363.267Y-210.455
X363.267Y-212.455
X365.267Y-210.455
X365.267Y-212.455
X367.267Y-210.455
X367.267Y-212.455
X368.012Y-171.55
X368.3Y-177.84
X368.3Y-180.34
X369.267Y-210.455
X369.267Y-212.455
X370.88Y-182.88
X371.267Y-210.455
X371.267Y-212.455
X372.765Y-86.36
X372.847Y-75.565
X373.38Y-182.88
X375.265Y-86.36
X375.632Y-171.55
X376.647Y-75.565
X381.0Y-158.83
X381.0Y-163.83
X383.007Y-75.565
X384.81Y-158.75
X384.81Y-163.75
X384.83Y-60.96
X386.807Y-75.565
X387.33Y-60.96
X387.35Y-180.34
X388.62Y-104.775
X389.85Y-180.34
X389.93Y-125.73
X389.93Y-130.81
X391.16Y-99.06
X391.795Y-84.455
X392.43Y-125.73
X392.43Y-130.81
X398.78Y-99.06
X398.78Y-104.775
X399.415Y-84.455
X399.455Y-137.7
X401.955Y-137.7
T4
X173.355Y-33.655
X173.355Y-36.195
X180.34Y-33.655
X180.34Y-36.195
X371.475Y-38.735
X372.745Y-67.945
X379.095Y-38.735
X380.365Y-67.945
X402.59Y-99.06
X402.59Y-104.775
X403.225Y-84.455
X405.13Y-99.06
X405.13Y-104.775
X405.765Y-84.455
T5
X21.59Y-67.31
X24.13Y-67.31
X31.75Y-118.11
X31.75Y-120.65
X31.75Y-123.19
X31.75Y-125.73
X31.75Y-128.27
X31.75Y-130.81
X31.75Y-133.35
X31.75Y-135.89
X31.75Y-138.43
X31.75Y-140.97
X31.75Y-143.51
X31.75Y-146.05
X31.75Y-148.59
X31.75Y-151.13
X31.75Y-153.67
X31.75Y-156.21
X31.75Y-158.75
X31.75Y-161.29
X31.75Y-163.83
X31.75Y-166.37
X215.9Y-115.57
X215.9Y-118.11
X215.9Y-120.65
X215.9Y-123.19
X215.9Y-125.73
X215.9Y-128.27
X215.9Y-130.81
X224.16Y-208.915
X226.7Y-208.915
X370.855Y-187.96
X372.11Y-130.81
X372.11Y-133.35
X372.11Y-135.89
X372.11Y-138.43
X372.11Y-140.97
X372.11Y-143.51
X372.745Y-57.85
X373.395Y-187.96
X375.285Y-57.85
X375.935Y-187.96
X377.825Y-57.85
X387.35Y-187.96
X389.89Y-187.96
T6
X399.995Y-71.12
X399.995Y-77.62
X404.495Y-71.12
X404.495Y-77.62
T7
X272.37Y-43.3
X275.87Y-50.8
X293.37Y-43.3
X293.37Y-50.8
T8
X202.05Y-44.91
X204.55Y-34.91
X204.55Y-47.41
X209.55Y-44.91
X214.55Y-34.91
X214.55Y-47.41
X217.05Y-44.91
T9
X247.65Y-56.21
T10
X240.65Y-48.94
X254.65Y-48.94
T11
X21.59Y-53.34
X21.59Y-213.995
X101.6Y-53.34
X193.675Y-52.07
X400.05Y-39.37
X400.05Y-213.995
X403.225Y-161.29
T3
G00X392.43Y-56.51
M15
G01X392.43Y-53.91
M16
G05
G00X396.53Y-50.41
M15
G01X394.33Y-50.41
M16
G05
G00X398.23Y-56.31
M15
G01X398.23Y-54.11
M16
G05
T0
M30
