%TF.GenerationSoftware,KiCad,Pcbnew,(6.0.6)*%
%TF.CreationDate,2022-08-08T10:31:16+02:00*%
%TF.ProjectId,Z80AllInOne,5a383041-6c6c-4496-9e4f-6e652e6b6963,rev?*%
%TF.SameCoordinates,Original*%
%TF.FileFunction,Soldermask,Bot*%
%TF.FilePolarity,Negative*%
%FSLAX46Y46*%
G04 Gerber Fmt 4.6, Leading zero omitted, Abs format (unit mm)*
G04 Created by KiCad (PCBNEW (6.0.6)) date 2022-08-08 10:31:16*
%MOMM*%
%LPD*%
G01*
G04 APERTURE LIST*
%ADD10C,5.500000*%
%ADD11C,1.600000*%
%ADD12O,1.600000X1.600000*%
%ADD13R,2.500000X2.500000*%
%ADD14O,2.500000X2.500000*%
%ADD15R,1.650000X13.000000*%
%ADD16C,2.400000*%
%ADD17C,4.000000*%
%ADD18R,1.800000X1.800000*%
%ADD19C,1.800000*%
%ADD20R,2.400000X1.600000*%
%ADD21O,2.400000X1.600000*%
%ADD22O,3.200000X3.200000*%
%ADD23O,1.800000X1.800000*%
%ADD24R,1.600000X1.600000*%
%ADD25R,1.700000X1.700000*%
%ADD26O,1.700000X1.700000*%
%ADD27C,1.500000*%
%ADD28R,1.600000X2.400000*%
%ADD29O,1.600000X2.400000*%
%ADD30R,1.500000X1.050000*%
%ADD31O,1.500000X1.050000*%
%ADD32C,1.000000*%
%ADD33C,2.500000*%
%ADD34R,1.800000X4.400000*%
%ADD35O,1.800000X4.000000*%
%ADD36O,4.000000X1.800000*%
%ADD37R,2.000000X13.000000*%
%ADD38R,1.350000X1.350000*%
%ADD39O,1.350000X1.350000*%
%ADD40C,2.000000*%
%ADD41R,1.050000X1.500000*%
%ADD42O,1.050000X1.500000*%
G04 APERTURE END LIST*
D10*
%TO.C,*%
X400050000Y-39370000D03*
%TD*%
%TO.C,*%
X403225000Y-161290000D03*
%TD*%
%TO.C,*%
X400050000Y-213995000D03*
%TD*%
D11*
%TO.C,C4*%
X314960000Y-93385000D03*
X314960000Y-98385000D03*
%TD*%
%TO.C,R21*%
X327660000Y-79355564D03*
D12*
X327660000Y-71735564D03*
%TD*%
D11*
%TO.C,C49*%
X198120000Y-41870000D03*
X198120000Y-36870000D03*
%TD*%
D13*
%TO.C,K1*%
X293370000Y-43300000D03*
D14*
X272370000Y-43300000D03*
X275870000Y-50800000D03*
X293370000Y-50800000D03*
%TD*%
D15*
%TO.C,JE1*%
X83820000Y-39370000D03*
X81270000Y-39370000D03*
X78720000Y-39370000D03*
X76170000Y-39370000D03*
X73620000Y-39370000D03*
X71070000Y-39370000D03*
X68520000Y-39370000D03*
X65970000Y-39370000D03*
X63420000Y-39370000D03*
X60870000Y-39370000D03*
X58320000Y-39370000D03*
X55770000Y-39370000D03*
X53220000Y-39370000D03*
X50670000Y-39370000D03*
X48120000Y-39370000D03*
X45570000Y-39370000D03*
X43020000Y-39370000D03*
X40470000Y-39370000D03*
X37920000Y-39370000D03*
X35370000Y-39370000D03*
%TD*%
D11*
%TO.C,R5*%
X91440000Y-63500000D03*
D12*
X91440000Y-71120000D03*
%TD*%
D11*
%TO.C,C32*%
X20955000Y-109220000D03*
X20955000Y-114220000D03*
%TD*%
%TO.C,R19*%
X169545000Y-67945000D03*
D12*
X159385000Y-67945000D03*
%TD*%
D16*
%TO.C,J3*%
X247650000Y-56210000D03*
D17*
X254650000Y-48940000D03*
X240650000Y-48940000D03*
%TD*%
D18*
%TO.C,D4*%
X403225000Y-84455000D03*
D19*
X405765000Y-84455000D03*
%TD*%
D11*
%TO.C,C38*%
X206470000Y-184155000D03*
X201470000Y-184155000D03*
%TD*%
D20*
%TO.C,U28*%
X183505000Y-187970000D03*
D21*
X183505000Y-190510000D03*
X183505000Y-193050000D03*
X183505000Y-195590000D03*
X183505000Y-198130000D03*
X183505000Y-200670000D03*
X183505000Y-203210000D03*
X183505000Y-205750000D03*
X183505000Y-208290000D03*
X183505000Y-210830000D03*
X191125000Y-210830000D03*
X191125000Y-208290000D03*
X191125000Y-205750000D03*
X191125000Y-203210000D03*
X191125000Y-200670000D03*
X191125000Y-198130000D03*
X191125000Y-195590000D03*
X191125000Y-193050000D03*
X191125000Y-190510000D03*
X191125000Y-187970000D03*
%TD*%
D11*
%TO.C,R38*%
X244475000Y-73025000D03*
D12*
X244475000Y-80645000D03*
%TD*%
D22*
%TO.C,U29*%
X375285000Y-46750000D03*
D18*
X372745000Y-57850000D03*
D23*
X375285000Y-57850000D03*
X377825000Y-57850000D03*
%TD*%
D24*
%TO.C,D10*%
X233045000Y-73025000D03*
D12*
X233045000Y-80645000D03*
%TD*%
D24*
%TO.C,D8*%
X280035000Y-38100000D03*
D12*
X272415000Y-38100000D03*
%TD*%
D24*
%TO.C,C19*%
X236302375Y-59055000D03*
D11*
X238802375Y-59055000D03*
%TD*%
D24*
%TO.C,U23*%
X314970000Y-66795564D03*
D12*
X314970000Y-69335564D03*
X314970000Y-71875564D03*
X314970000Y-74415564D03*
X322590000Y-74415564D03*
X322590000Y-71875564D03*
X322590000Y-69335564D03*
X322590000Y-66795564D03*
%TD*%
D11*
%TO.C,C37*%
X224235000Y-184150000D03*
X229235000Y-184150000D03*
%TD*%
%TO.C,R14*%
X41275000Y-98425000D03*
D12*
X31115000Y-98425000D03*
%TD*%
D11*
%TO.C,C6*%
X355645000Y-111755000D03*
X360645000Y-111755000D03*
%TD*%
%TO.C,R4*%
X87630000Y-63589062D03*
D12*
X87630000Y-71209062D03*
%TD*%
D20*
%TO.C,U26*%
X198875000Y-187980000D03*
D21*
X198875000Y-190520000D03*
X198875000Y-193060000D03*
X198875000Y-195600000D03*
X198875000Y-198140000D03*
X198875000Y-200680000D03*
X198875000Y-203220000D03*
X198875000Y-205760000D03*
X206495000Y-205760000D03*
X206495000Y-203220000D03*
X206495000Y-200680000D03*
X206495000Y-198140000D03*
X206495000Y-195600000D03*
X206495000Y-193060000D03*
X206495000Y-190520000D03*
X206495000Y-187980000D03*
%TD*%
D11*
%TO.C,R3*%
X325120000Y-139065000D03*
D12*
X325120000Y-146685000D03*
%TD*%
D20*
%TO.C,U2*%
X233680000Y-118110000D03*
D21*
X233680000Y-120650000D03*
X233680000Y-123190000D03*
X233680000Y-125730000D03*
X233680000Y-128270000D03*
X233680000Y-130810000D03*
X233680000Y-133350000D03*
X233680000Y-135890000D03*
X233680000Y-138430000D03*
X233680000Y-140970000D03*
X233680000Y-143510000D03*
X233680000Y-146050000D03*
X233680000Y-148590000D03*
X233680000Y-151130000D03*
X248920000Y-151130000D03*
X248920000Y-148590000D03*
X248920000Y-146050000D03*
X248920000Y-143510000D03*
X248920000Y-140970000D03*
X248920000Y-138430000D03*
X248920000Y-135890000D03*
X248920000Y-133350000D03*
X248920000Y-130810000D03*
X248920000Y-128270000D03*
X248920000Y-125730000D03*
X248920000Y-123190000D03*
X248920000Y-120650000D03*
X248920000Y-118110000D03*
%TD*%
D11*
%TO.C,C30*%
X31195000Y-86360000D03*
X36195000Y-86360000D03*
%TD*%
%TO.C,C31*%
X17860000Y-86360000D03*
X22860000Y-86360000D03*
%TD*%
D18*
%TO.C,D6*%
X405130000Y-99060000D03*
D19*
X402590000Y-99060000D03*
%TD*%
D11*
%TO.C,C34*%
X346710000Y-79315564D03*
X346710000Y-74315564D03*
%TD*%
D20*
%TO.C,U20*%
X46990000Y-187945000D03*
D21*
X46990000Y-190485000D03*
X46990000Y-193025000D03*
X46990000Y-195565000D03*
X46990000Y-198105000D03*
X46990000Y-200645000D03*
X46990000Y-203185000D03*
X54610000Y-203185000D03*
X54610000Y-200645000D03*
X54610000Y-198105000D03*
X54610000Y-195565000D03*
X54610000Y-193025000D03*
X54610000Y-190485000D03*
X54610000Y-187945000D03*
%TD*%
D11*
%TO.C,R29*%
X222250000Y-74930000D03*
D12*
X214630000Y-74930000D03*
%TD*%
D11*
%TO.C,C3*%
X266700000Y-113025000D03*
X271700000Y-113025000D03*
%TD*%
D20*
%TO.C,U3*%
X256540000Y-118110000D03*
D21*
X256540000Y-120650000D03*
X256540000Y-123190000D03*
X256540000Y-125730000D03*
X256540000Y-128270000D03*
X256540000Y-130810000D03*
X256540000Y-133350000D03*
X256540000Y-135890000D03*
X256540000Y-138430000D03*
X256540000Y-140970000D03*
X256540000Y-143510000D03*
X256540000Y-146050000D03*
X256540000Y-148590000D03*
X256540000Y-151130000D03*
X271780000Y-151130000D03*
X271780000Y-148590000D03*
X271780000Y-146050000D03*
X271780000Y-143510000D03*
X271780000Y-140970000D03*
X271780000Y-138430000D03*
X271780000Y-135890000D03*
X271780000Y-133350000D03*
X271780000Y-130810000D03*
X271780000Y-128270000D03*
X271780000Y-125730000D03*
X271780000Y-123190000D03*
X271780000Y-120650000D03*
X271780000Y-118110000D03*
%TD*%
D24*
%TO.C,U4*%
X92715000Y-91445000D03*
D12*
X95255000Y-91445000D03*
X97795000Y-91445000D03*
X100335000Y-91445000D03*
X102875000Y-91445000D03*
X105415000Y-91445000D03*
X107955000Y-91445000D03*
X110495000Y-91445000D03*
X113035000Y-91445000D03*
X115575000Y-91445000D03*
X118115000Y-91445000D03*
X120655000Y-91445000D03*
X123195000Y-91445000D03*
X125735000Y-91445000D03*
X128275000Y-91445000D03*
X130815000Y-91445000D03*
X133355000Y-91445000D03*
X135895000Y-91445000D03*
X138435000Y-91445000D03*
X140975000Y-91445000D03*
X140975000Y-76205000D03*
X138435000Y-76205000D03*
X135895000Y-76205000D03*
X133355000Y-76205000D03*
X130815000Y-76205000D03*
X128275000Y-76205000D03*
X125735000Y-76205000D03*
X123195000Y-76205000D03*
X120655000Y-76205000D03*
X118115000Y-76205000D03*
X115575000Y-76205000D03*
X113035000Y-76205000D03*
X110495000Y-76205000D03*
X107955000Y-76205000D03*
X105415000Y-76205000D03*
X102875000Y-76205000D03*
X100335000Y-76205000D03*
X97795000Y-76205000D03*
X95255000Y-76205000D03*
X92715000Y-76205000D03*
%TD*%
D18*
%TO.C,D3*%
X380365000Y-67945000D03*
D23*
X372745000Y-67945000D03*
%TD*%
D20*
%TO.C,U13*%
X253350000Y-188060000D03*
D21*
X253350000Y-190600000D03*
X253350000Y-193140000D03*
X253350000Y-195680000D03*
X253350000Y-198220000D03*
X253350000Y-200760000D03*
X253350000Y-203300000D03*
X260970000Y-203300000D03*
X260970000Y-200760000D03*
X260970000Y-198220000D03*
X260970000Y-195680000D03*
X260970000Y-193140000D03*
X260970000Y-190600000D03*
X260970000Y-188060000D03*
%TD*%
D11*
%TO.C,R24*%
X288290000Y-88265000D03*
D12*
X280670000Y-88265000D03*
%TD*%
D11*
%TO.C,C23*%
X132080000Y-132075000D03*
X132080000Y-127075000D03*
%TD*%
D10*
%TO.C,*%
X101600000Y-53340000D03*
%TD*%
D20*
%TO.C,U19*%
X259715000Y-73035000D03*
D21*
X259715000Y-75575000D03*
X259715000Y-78115000D03*
X259715000Y-80655000D03*
X267335000Y-80655000D03*
X267335000Y-78115000D03*
X267335000Y-75575000D03*
X267335000Y-73035000D03*
%TD*%
D25*
%TO.C,JP2*%
X370855000Y-187960000D03*
D26*
X373395000Y-187960000D03*
X375935000Y-187960000D03*
%TD*%
D11*
%TO.C,R36*%
X248285000Y-73025000D03*
D12*
X248285000Y-80645000D03*
%TD*%
D11*
%TO.C,R8*%
X180340000Y-38735000D03*
D12*
X180340000Y-46355000D03*
%TD*%
D11*
%TO.C,C29*%
X54610000Y-114300000D03*
X49610000Y-114300000D03*
%TD*%
D27*
%TO.C,Y2*%
X115510000Y-115475000D03*
X115510000Y-110575000D03*
%TD*%
D10*
%TO.C,*%
X21590000Y-53340000D03*
%TD*%
D11*
%TO.C,C27*%
X274955000Y-184150000D03*
X269955000Y-184150000D03*
%TD*%
%TO.C,R32*%
X194310000Y-38735000D03*
D12*
X186690000Y-38735000D03*
%TD*%
D28*
%TO.C,U9*%
X135890000Y-134715000D03*
D29*
X138430000Y-134715000D03*
X140970000Y-134715000D03*
X143510000Y-134715000D03*
X146050000Y-134715000D03*
X148590000Y-134715000D03*
X151130000Y-134715000D03*
X153670000Y-134715000D03*
X156210000Y-134715000D03*
X158750000Y-134715000D03*
X158750000Y-127095000D03*
X156210000Y-127095000D03*
X153670000Y-127095000D03*
X151130000Y-127095000D03*
X148590000Y-127095000D03*
X146050000Y-127095000D03*
X143510000Y-127095000D03*
X140970000Y-127095000D03*
X138430000Y-127095000D03*
X135890000Y-127095000D03*
%TD*%
D28*
%TO.C,U8*%
X135895000Y-119465000D03*
D29*
X138435000Y-119465000D03*
X140975000Y-119465000D03*
X143515000Y-119465000D03*
X146055000Y-119465000D03*
X148595000Y-119465000D03*
X151135000Y-119465000D03*
X153675000Y-119465000D03*
X156215000Y-119465000D03*
X158755000Y-119465000D03*
X158755000Y-111845000D03*
X156215000Y-111845000D03*
X153675000Y-111845000D03*
X151135000Y-111845000D03*
X148595000Y-111845000D03*
X146055000Y-111845000D03*
X143515000Y-111845000D03*
X140975000Y-111845000D03*
X138435000Y-111845000D03*
X135895000Y-111845000D03*
%TD*%
D11*
%TO.C,R28*%
X222250000Y-80010000D03*
D12*
X214630000Y-80010000D03*
%TD*%
D11*
%TO.C,R35*%
X252095000Y-80645000D03*
D12*
X252095000Y-73025000D03*
%TD*%
D24*
%TO.C,U27*%
X288290000Y-190500000D03*
D12*
X288290000Y-193040000D03*
X288290000Y-195580000D03*
X288290000Y-198120000D03*
X288290000Y-200660000D03*
X288290000Y-203200000D03*
X288290000Y-205740000D03*
X295910000Y-205740000D03*
X295910000Y-203200000D03*
X295910000Y-200660000D03*
X295910000Y-198120000D03*
X295910000Y-195580000D03*
X295910000Y-193040000D03*
X295910000Y-190500000D03*
%TD*%
D25*
%TO.C,SPEAKER1*%
X24130000Y-67310000D03*
D26*
X21590000Y-67310000D03*
%TD*%
D24*
%TO.C,C42*%
X27940000Y-108899888D03*
D11*
X27940000Y-110899888D03*
%TD*%
%TO.C,R33*%
X186690000Y-41910000D03*
D12*
X194310000Y-41910000D03*
%TD*%
D11*
%TO.C,R10*%
X368012500Y-171550000D03*
D12*
X375632500Y-171550000D03*
%TD*%
D11*
%TO.C,R37*%
X267335000Y-68580000D03*
D12*
X259715000Y-68580000D03*
%TD*%
D11*
%TO.C,R12*%
X31115000Y-104775000D03*
D12*
X41275000Y-104775000D03*
%TD*%
D20*
%TO.C,U12*%
X302270000Y-66035000D03*
D21*
X302270000Y-68575000D03*
X302270000Y-71115000D03*
X302270000Y-73655000D03*
X302270000Y-76195000D03*
X302270000Y-78735000D03*
X302270000Y-81275000D03*
X309890000Y-81275000D03*
X309890000Y-78735000D03*
X309890000Y-76195000D03*
X309890000Y-73655000D03*
X309890000Y-71115000D03*
X309890000Y-68575000D03*
X309890000Y-66035000D03*
%TD*%
D20*
%TO.C,U22*%
X17780000Y-91440000D03*
D21*
X17780000Y-93980000D03*
X17780000Y-96520000D03*
X17780000Y-99060000D03*
X25400000Y-99060000D03*
X25400000Y-96520000D03*
X25400000Y-93980000D03*
X25400000Y-91440000D03*
%TD*%
D11*
%TO.C,C26*%
X118190000Y-184170000D03*
X123190000Y-184170000D03*
%TD*%
D24*
%TO.C,C54*%
X383007349Y-75565000D03*
D11*
X386807349Y-75565000D03*
%TD*%
%TO.C,R11*%
X391160000Y-99060000D03*
D12*
X398780000Y-99060000D03*
%TD*%
D11*
%TO.C,C35*%
X317540000Y-79355564D03*
X322540000Y-79355564D03*
%TD*%
%TO.C,C51*%
X236855000Y-69850000D03*
X241855000Y-69850000D03*
%TD*%
%TO.C,R7*%
X99060000Y-63589062D03*
D12*
X99060000Y-71209062D03*
%TD*%
D11*
%TO.C,R43*%
X398780000Y-104775000D03*
D12*
X388620000Y-104775000D03*
%TD*%
D25*
%TO.C,J4*%
X372110000Y-130810000D03*
D26*
X372110000Y-133350000D03*
X372110000Y-135890000D03*
X372110000Y-138430000D03*
X372110000Y-140970000D03*
X372110000Y-143510000D03*
%TD*%
D11*
%TO.C,R2*%
X320040000Y-139065000D03*
D12*
X320040000Y-146685000D03*
%TD*%
D11*
%TO.C,R30*%
X222250000Y-69850000D03*
D12*
X214630000Y-69850000D03*
%TD*%
D28*
%TO.C,U10*%
X135895000Y-149945000D03*
D29*
X138435000Y-149945000D03*
X140975000Y-149945000D03*
X143515000Y-149945000D03*
X146055000Y-149945000D03*
X148595000Y-149945000D03*
X151135000Y-149945000D03*
X153675000Y-149945000D03*
X156215000Y-149945000D03*
X158755000Y-149945000D03*
X158755000Y-142325000D03*
X156215000Y-142325000D03*
X153675000Y-142325000D03*
X151135000Y-142325000D03*
X148595000Y-142325000D03*
X146055000Y-142325000D03*
X143515000Y-142325000D03*
X140975000Y-142325000D03*
X138435000Y-142325000D03*
X135895000Y-142325000D03*
%TD*%
D10*
%TO.C,*%
X193675000Y-52070000D03*
%TD*%
D11*
%TO.C,C17*%
X125055000Y-110485000D03*
X120055000Y-110485000D03*
%TD*%
D25*
%TO.C,JP1*%
X389890000Y-187960000D03*
D26*
X387350000Y-187960000D03*
%TD*%
D20*
%TO.C,U18*%
X203200000Y-64770000D03*
D21*
X203200000Y-67310000D03*
X203200000Y-69850000D03*
X203200000Y-72390000D03*
X203200000Y-74930000D03*
X203200000Y-77470000D03*
X203200000Y-80010000D03*
X210820000Y-80010000D03*
X210820000Y-77470000D03*
X210820000Y-74930000D03*
X210820000Y-72390000D03*
X210820000Y-69850000D03*
X210820000Y-67310000D03*
X210820000Y-64770000D03*
%TD*%
D30*
%TO.C,Q3*%
X330200000Y-65385564D03*
D31*
X330200000Y-66655564D03*
X330200000Y-67925564D03*
%TD*%
D20*
%TO.C,U17*%
X149865000Y-187960000D03*
D21*
X149865000Y-190500000D03*
X149865000Y-193040000D03*
X149865000Y-195580000D03*
X149865000Y-198120000D03*
X149865000Y-200660000D03*
X149865000Y-203200000D03*
X157485000Y-203200000D03*
X157485000Y-200660000D03*
X157485000Y-198120000D03*
X157485000Y-195580000D03*
X157485000Y-193040000D03*
X157485000Y-190500000D03*
X157485000Y-187960000D03*
%TD*%
D24*
%TO.C,U5*%
X345440000Y-116840000D03*
D12*
X345440000Y-119380000D03*
X345440000Y-121920000D03*
X345440000Y-124460000D03*
X345440000Y-127000000D03*
X345440000Y-129540000D03*
X345440000Y-132080000D03*
X345440000Y-134620000D03*
X345440000Y-137160000D03*
X345440000Y-139700000D03*
X345440000Y-142240000D03*
X345440000Y-144780000D03*
X345440000Y-147320000D03*
X345440000Y-149860000D03*
X345440000Y-152400000D03*
X345440000Y-154940000D03*
X345440000Y-157480000D03*
X345440000Y-160020000D03*
X345440000Y-162560000D03*
X345440000Y-165100000D03*
X360680000Y-165100000D03*
X360680000Y-162560000D03*
X360680000Y-160020000D03*
X360680000Y-157480000D03*
X360680000Y-154940000D03*
X360680000Y-152400000D03*
X360680000Y-149860000D03*
X360680000Y-147320000D03*
X360680000Y-144780000D03*
X360680000Y-142240000D03*
X360680000Y-139700000D03*
X360680000Y-137160000D03*
X360680000Y-134620000D03*
X360680000Y-132080000D03*
X360680000Y-129540000D03*
X360680000Y-127000000D03*
X360680000Y-124460000D03*
X360680000Y-121920000D03*
X360680000Y-119380000D03*
X360680000Y-116840000D03*
%TD*%
D11*
%TO.C,R13*%
X31115000Y-101600000D03*
D12*
X41275000Y-101600000D03*
%TD*%
D20*
%TO.C,U24*%
X195630000Y-114345000D03*
D21*
X195630000Y-116885000D03*
X195630000Y-119425000D03*
X195630000Y-121965000D03*
X195630000Y-124505000D03*
X195630000Y-127045000D03*
X195630000Y-129585000D03*
X195630000Y-132125000D03*
X195630000Y-134665000D03*
X195630000Y-137205000D03*
X195630000Y-139745000D03*
X195630000Y-142285000D03*
X195630000Y-144825000D03*
X195630000Y-147365000D03*
X210870000Y-147365000D03*
X210870000Y-144825000D03*
X210870000Y-142285000D03*
X210870000Y-139745000D03*
X210870000Y-137205000D03*
X210870000Y-134665000D03*
X210870000Y-132125000D03*
X210870000Y-129585000D03*
X210870000Y-127045000D03*
X210870000Y-124505000D03*
X210870000Y-121965000D03*
X210870000Y-119425000D03*
X210870000Y-116885000D03*
X210870000Y-114345000D03*
%TD*%
D24*
%TO.C,C41*%
X387350000Y-180340000D03*
D11*
X389850000Y-180340000D03*
%TD*%
%TO.C,C46*%
X309880000Y-60960000D03*
X304880000Y-60960000D03*
%TD*%
D20*
%TO.C,U7*%
X95250000Y-110490000D03*
D21*
X95250000Y-113030000D03*
X95250000Y-115570000D03*
X95250000Y-118110000D03*
X95250000Y-120650000D03*
X95250000Y-123190000D03*
X95250000Y-125730000D03*
X95250000Y-128270000D03*
X95250000Y-130810000D03*
X95250000Y-133350000D03*
X95250000Y-135890000D03*
X95250000Y-138430000D03*
X95250000Y-140970000D03*
X95250000Y-143510000D03*
X95250000Y-146050000D03*
X95250000Y-148590000D03*
X95250000Y-151130000D03*
X95250000Y-153670000D03*
X95250000Y-156210000D03*
X95250000Y-158750000D03*
X110490000Y-158750000D03*
X110490000Y-156210000D03*
X110490000Y-153670000D03*
X110490000Y-151130000D03*
X110490000Y-148590000D03*
X110490000Y-146050000D03*
X110490000Y-143510000D03*
X110490000Y-140970000D03*
X110490000Y-138430000D03*
X110490000Y-135890000D03*
X110490000Y-133350000D03*
X110490000Y-130810000D03*
X110490000Y-128270000D03*
X110490000Y-125730000D03*
X110490000Y-123190000D03*
X110490000Y-120650000D03*
X110490000Y-118110000D03*
X110490000Y-115570000D03*
X110490000Y-113030000D03*
X110490000Y-110490000D03*
%TD*%
D11*
%TO.C,C24*%
X179150000Y-110485000D03*
X184150000Y-110485000D03*
%TD*%
D18*
%TO.C,D11*%
X402590000Y-104775000D03*
D19*
X405130000Y-104775000D03*
%TD*%
D32*
%TO.C,J1*%
X400245000Y-125440000D03*
X400245000Y-129840000D03*
%TD*%
D11*
%TO.C,C20*%
X114340000Y-128265000D03*
X119340000Y-128265000D03*
%TD*%
%TO.C,R40*%
X236855000Y-80645000D03*
D12*
X236855000Y-73025000D03*
%TD*%
D30*
%TO.C,Q4*%
X293370000Y-86995000D03*
D31*
X293370000Y-88265000D03*
X293370000Y-89535000D03*
%TD*%
D11*
%TO.C,C5*%
X123190000Y-72350000D03*
X128190000Y-72350000D03*
%TD*%
D33*
%TO.C,J6*%
X202050000Y-44910000D03*
X209550000Y-44910000D03*
X217050000Y-44910000D03*
X204550000Y-47410000D03*
X214550000Y-47410000D03*
X214550000Y-34910000D03*
X204550000Y-34910000D03*
%TD*%
D11*
%TO.C,R42*%
X196850000Y-154300000D03*
D12*
X207010000Y-154300000D03*
%TD*%
D11*
%TO.C,C2*%
X243920000Y-113025000D03*
X248920000Y-113025000D03*
%TD*%
%TO.C,C1*%
X288290000Y-132635000D03*
X288290000Y-127635000D03*
%TD*%
%TO.C,C39*%
X207010000Y-110485000D03*
X202010000Y-110485000D03*
%TD*%
D34*
%TO.C,JP5*%
X392430000Y-55210000D03*
D35*
X398230000Y-55210000D03*
D36*
X395430000Y-50410000D03*
%TD*%
D11*
%TO.C,C52*%
X290870000Y-186690000D03*
X295870000Y-186690000D03*
%TD*%
%TO.C,C47*%
X268357500Y-48265000D03*
X268357500Y-43265000D03*
%TD*%
%TO.C,R39*%
X240665000Y-73025000D03*
D12*
X240665000Y-80645000D03*
%TD*%
D11*
%TO.C,C48*%
X191770000Y-45720000D03*
X186770000Y-45720000D03*
%TD*%
%TO.C,C22*%
X132080000Y-147275000D03*
X132080000Y-142275000D03*
%TD*%
D24*
%TO.C,C36*%
X318770000Y-60960000D03*
D11*
X316270000Y-60960000D03*
%TD*%
%TO.C,C21*%
X132080000Y-111755000D03*
X132080000Y-116755000D03*
%TD*%
D20*
%TO.C,U21*%
X39390000Y-118035000D03*
D21*
X39390000Y-120575000D03*
X39390000Y-123115000D03*
X39390000Y-125655000D03*
X39390000Y-128195000D03*
X39390000Y-130735000D03*
X39390000Y-133275000D03*
X39390000Y-135815000D03*
X39390000Y-138355000D03*
X39390000Y-140895000D03*
X39390000Y-143435000D03*
X39390000Y-145975000D03*
X39390000Y-148515000D03*
X39390000Y-151055000D03*
X39390000Y-153595000D03*
X39390000Y-156135000D03*
X39390000Y-158675000D03*
X39390000Y-161215000D03*
X39390000Y-163755000D03*
X39390000Y-166295000D03*
X54630000Y-166295000D03*
X54630000Y-163755000D03*
X54630000Y-161215000D03*
X54630000Y-158675000D03*
X54630000Y-156135000D03*
X54630000Y-153595000D03*
X54630000Y-151055000D03*
X54630000Y-148515000D03*
X54630000Y-145975000D03*
X54630000Y-143435000D03*
X54630000Y-140895000D03*
X54630000Y-138355000D03*
X54630000Y-135815000D03*
X54630000Y-133275000D03*
X54630000Y-130735000D03*
X54630000Y-128195000D03*
X54630000Y-125655000D03*
X54630000Y-123115000D03*
X54630000Y-120575000D03*
X54630000Y-118035000D03*
%TD*%
D11*
%TO.C,R25*%
X191770000Y-67310000D03*
D12*
X199390000Y-67310000D03*
%TD*%
D24*
%TO.C,C53*%
X372847349Y-75565000D03*
D11*
X376647349Y-75565000D03*
%TD*%
%TO.C,R18*%
X169545000Y-73105000D03*
D12*
X159385000Y-73105000D03*
%TD*%
D11*
%TO.C,C45*%
X372765000Y-86360000D03*
X375265000Y-86360000D03*
%TD*%
%TO.C,C28*%
X49600000Y-184140000D03*
X54600000Y-184140000D03*
%TD*%
%TO.C,C12*%
X392430000Y-130810000D03*
X389930000Y-130810000D03*
%TD*%
%TO.C,C9*%
X381000000Y-163830000D03*
X381000000Y-158830000D03*
%TD*%
%TO.C,R27*%
X191770000Y-77470000D03*
D12*
X199390000Y-77470000D03*
%TD*%
D11*
%TO.C,C15*%
X245110000Y-184150000D03*
X240110000Y-184150000D03*
%TD*%
%TO.C,R41*%
X229235000Y-80645000D03*
D12*
X229235000Y-73025000D03*
%TD*%
D25*
%TO.C,JP3*%
X226700000Y-208915000D03*
D26*
X224160000Y-208915000D03*
%TD*%
D11*
%TO.C,R6*%
X95250000Y-63589062D03*
D12*
X95250000Y-71209062D03*
%TD*%
D18*
%TO.C,D1*%
X180340000Y-33655000D03*
D19*
X180340000Y-36195000D03*
%TD*%
D11*
%TO.C,C40*%
X191175000Y-184150000D03*
X186175000Y-184150000D03*
%TD*%
%TO.C,C11*%
X392430000Y-125730000D03*
X389930000Y-125730000D03*
%TD*%
D15*
%TO.C,J2*%
X153035000Y-38735000D03*
X149225000Y-38735000D03*
X145415000Y-38735000D03*
X141605000Y-38735000D03*
D37*
X137795000Y-38735000D03*
X133985000Y-38735000D03*
%TD*%
D11*
%TO.C,R34*%
X255905000Y-73025000D03*
D12*
X255905000Y-80645000D03*
%TD*%
D11*
%TO.C,R1*%
X330200000Y-139065000D03*
D12*
X330200000Y-146685000D03*
%TD*%
D11*
%TO.C,R22*%
X332740000Y-71735564D03*
D12*
X332740000Y-79355564D03*
%TD*%
D24*
%TO.C,U15*%
X267325000Y-187950000D03*
D12*
X267325000Y-190490000D03*
X267325000Y-193030000D03*
X267325000Y-195570000D03*
X267325000Y-198110000D03*
X267325000Y-200650000D03*
X267325000Y-203190000D03*
X267325000Y-205730000D03*
X274945000Y-205730000D03*
X274945000Y-203190000D03*
X274945000Y-200650000D03*
X274945000Y-198110000D03*
X274945000Y-195570000D03*
X274945000Y-193030000D03*
X274945000Y-190490000D03*
X274945000Y-187950000D03*
%TD*%
D10*
%TO.C,REF\u002A\u002A*%
X21590000Y-213995000D03*
%TD*%
D11*
%TO.C,C33*%
X29845000Y-82510000D03*
X29845000Y-77510000D03*
%TD*%
%TO.C,R20*%
X337820000Y-71735564D03*
D12*
X337820000Y-79355564D03*
%TD*%
D11*
%TO.C,R23*%
X391795000Y-84455000D03*
D12*
X399415000Y-84455000D03*
%TD*%
D24*
%TO.C,D7*%
X298450000Y-50800000D03*
D12*
X298450000Y-43180000D03*
%TD*%
D20*
%TO.C,U1*%
X295910000Y-107315000D03*
D21*
X295910000Y-109855000D03*
X295910000Y-112395000D03*
X295910000Y-114935000D03*
X295910000Y-117475000D03*
X295910000Y-120015000D03*
X295910000Y-122555000D03*
X295910000Y-125095000D03*
X295910000Y-127635000D03*
X295910000Y-130175000D03*
X295910000Y-132715000D03*
X295910000Y-135255000D03*
X295910000Y-137795000D03*
X295910000Y-140335000D03*
X295910000Y-142875000D03*
X295910000Y-145415000D03*
X295910000Y-147955000D03*
X295910000Y-150495000D03*
X295910000Y-153035000D03*
X295910000Y-155575000D03*
X311150000Y-155575000D03*
X311150000Y-153035000D03*
X311150000Y-150495000D03*
X311150000Y-147955000D03*
X311150000Y-145415000D03*
X311150000Y-142875000D03*
X311150000Y-140335000D03*
X311150000Y-137795000D03*
X311150000Y-135255000D03*
X311150000Y-132715000D03*
X311150000Y-130175000D03*
X311150000Y-127635000D03*
X311150000Y-125095000D03*
X311150000Y-122555000D03*
X311150000Y-120015000D03*
X311150000Y-117475000D03*
X311150000Y-114935000D03*
X311150000Y-112395000D03*
X311150000Y-109855000D03*
X311150000Y-107315000D03*
%TD*%
D25*
%TO.C,J7*%
X31750000Y-118110000D03*
D26*
X31750000Y-120650000D03*
X31750000Y-123190000D03*
X31750000Y-125730000D03*
X31750000Y-128270000D03*
X31750000Y-130810000D03*
X31750000Y-133350000D03*
X31750000Y-135890000D03*
X31750000Y-138430000D03*
X31750000Y-140970000D03*
X31750000Y-143510000D03*
X31750000Y-146050000D03*
X31750000Y-148590000D03*
X31750000Y-151130000D03*
X31750000Y-153670000D03*
X31750000Y-156210000D03*
X31750000Y-158750000D03*
X31750000Y-161290000D03*
X31750000Y-163830000D03*
X31750000Y-166370000D03*
%TD*%
D38*
%TO.C,J10*%
X371267500Y-210455000D03*
D39*
X371267500Y-212455000D03*
X369267500Y-210455000D03*
X369267500Y-212455000D03*
X367267500Y-210455000D03*
X367267500Y-212455000D03*
X365267500Y-210455000D03*
X365267500Y-212455000D03*
X363267500Y-210455000D03*
X363267500Y-212455000D03*
X361267500Y-210455000D03*
X361267500Y-212455000D03*
X359267500Y-210455000D03*
X359267500Y-212455000D03*
X357267500Y-210455000D03*
X357267500Y-212455000D03*
X355267500Y-210455000D03*
X355267500Y-212455000D03*
X353267500Y-210455000D03*
X353267500Y-212455000D03*
X351267500Y-210455000D03*
X351267500Y-212455000D03*
X349267500Y-210455000D03*
X349267500Y-212455000D03*
X347267500Y-210455000D03*
X347267500Y-212455000D03*
X345267500Y-210455000D03*
X345267500Y-212455000D03*
X343267500Y-210455000D03*
X343267500Y-212455000D03*
X341267500Y-210455000D03*
X341267500Y-212455000D03*
X339267500Y-210455000D03*
X339267500Y-212455000D03*
X337267500Y-210455000D03*
X337267500Y-212455000D03*
X335267500Y-210455000D03*
X335267500Y-212455000D03*
X333267500Y-210455000D03*
X333267500Y-212455000D03*
%TD*%
D24*
%TO.C,RN1*%
X212860000Y-205745000D03*
D12*
X212860000Y-203205000D03*
X212860000Y-200665000D03*
X212860000Y-198125000D03*
X212860000Y-195585000D03*
X212860000Y-193045000D03*
X212860000Y-190505000D03*
X212860000Y-187965000D03*
X212860000Y-185425000D03*
%TD*%
D11*
%TO.C,R15*%
X33655000Y-72390000D03*
D12*
X33655000Y-82550000D03*
%TD*%
D18*
%TO.C,D12*%
X371475000Y-38735000D03*
D23*
X379095000Y-38735000D03*
%TD*%
D11*
%TO.C,C7*%
X373380000Y-182880000D03*
X370880000Y-182880000D03*
%TD*%
%TO.C,R26*%
X191770000Y-72390000D03*
D12*
X199390000Y-72390000D03*
%TD*%
D20*
%TO.C,U16*%
X115555000Y-187975000D03*
D21*
X115555000Y-190515000D03*
X115555000Y-193055000D03*
X115555000Y-195595000D03*
X115555000Y-198135000D03*
X115555000Y-200675000D03*
X115555000Y-203215000D03*
X123175000Y-203215000D03*
X123175000Y-200675000D03*
X123175000Y-198135000D03*
X123175000Y-195595000D03*
X123175000Y-193055000D03*
X123175000Y-190515000D03*
X123175000Y-187975000D03*
%TD*%
D11*
%TO.C,R16*%
X342900000Y-71735564D03*
D12*
X342900000Y-79355564D03*
%TD*%
D20*
%TO.C,U14*%
X237490000Y-187950000D03*
D21*
X237490000Y-190490000D03*
X237490000Y-193030000D03*
X237490000Y-195570000D03*
X237490000Y-198110000D03*
X237490000Y-200650000D03*
X237490000Y-203190000D03*
X237490000Y-205730000D03*
X245110000Y-205730000D03*
X245110000Y-203190000D03*
X245110000Y-200650000D03*
X245110000Y-198110000D03*
X245110000Y-195570000D03*
X245110000Y-193030000D03*
X245110000Y-190490000D03*
X245110000Y-187950000D03*
%TD*%
D24*
%TO.C,D9*%
X280035000Y-34925000D03*
D12*
X272415000Y-34925000D03*
%TD*%
D40*
%TO.C,SW2*%
X404495000Y-77620000D03*
X404495000Y-71120000D03*
X399995000Y-77620000D03*
X399995000Y-71120000D03*
%TD*%
D11*
%TO.C,C44*%
X384830000Y-60960000D03*
X387330000Y-60960000D03*
%TD*%
%TO.C,C14*%
X260985000Y-184150000D03*
X255985000Y-184150000D03*
%TD*%
%TO.C,C16*%
X125055000Y-115565000D03*
X120055000Y-115565000D03*
%TD*%
D24*
%TO.C,C43*%
X21590000Y-78740000D03*
D11*
X21590000Y-76240000D03*
%TD*%
D25*
%TO.C,J8*%
X215900000Y-130810000D03*
D26*
X215900000Y-128270000D03*
X215900000Y-125730000D03*
X215900000Y-123190000D03*
X215900000Y-120650000D03*
X215900000Y-118110000D03*
X215900000Y-115570000D03*
%TD*%
D11*
%TO.C,C18*%
X179705000Y-78225000D03*
X179705000Y-73225000D03*
%TD*%
%TO.C,C13*%
X401955000Y-137700000D03*
X399455000Y-137700000D03*
%TD*%
D24*
%TO.C,X1*%
X308610000Y-90805000D03*
D11*
X300990000Y-90805000D03*
X300990000Y-98425000D03*
X308610000Y-98425000D03*
%TD*%
%TO.C,R17*%
X169545000Y-78185000D03*
D12*
X159385000Y-78185000D03*
%TD*%
D20*
%TO.C,U25*%
X221695000Y-187960000D03*
D21*
X221695000Y-190500000D03*
X221695000Y-193040000D03*
X221695000Y-195580000D03*
X221695000Y-198120000D03*
X221695000Y-200660000D03*
X221695000Y-203200000D03*
X229315000Y-203200000D03*
X229315000Y-200660000D03*
X229315000Y-198120000D03*
X229315000Y-195580000D03*
X229315000Y-193040000D03*
X229315000Y-190500000D03*
X229315000Y-187960000D03*
%TD*%
D11*
%TO.C,C50*%
X210820000Y-60960000D03*
X205820000Y-60960000D03*
%TD*%
%TO.C,C25*%
X152475000Y-184155000D03*
X157475000Y-184155000D03*
%TD*%
%TO.C,C8*%
X368300000Y-180340000D03*
X368300000Y-177840000D03*
%TD*%
%TO.C,R31*%
X214630000Y-64770000D03*
D12*
X222250000Y-64770000D03*
%TD*%
D20*
%TO.C,U11*%
X168910000Y-114295000D03*
D21*
X168910000Y-116835000D03*
X168910000Y-119375000D03*
X168910000Y-121915000D03*
X168910000Y-124455000D03*
X168910000Y-126995000D03*
X168910000Y-129535000D03*
X168910000Y-132075000D03*
X168910000Y-134615000D03*
X168910000Y-137155000D03*
X168910000Y-139695000D03*
X168910000Y-142235000D03*
X168910000Y-144775000D03*
X168910000Y-147315000D03*
X184150000Y-147315000D03*
X184150000Y-144775000D03*
X184150000Y-142235000D03*
X184150000Y-139695000D03*
X184150000Y-137155000D03*
X184150000Y-134615000D03*
X184150000Y-132075000D03*
X184150000Y-129535000D03*
X184150000Y-126995000D03*
X184150000Y-124455000D03*
X184150000Y-121915000D03*
X184150000Y-119375000D03*
X184150000Y-116835000D03*
X184150000Y-114295000D03*
%TD*%
D11*
%TO.C,R44*%
X336550000Y-217170000D03*
D12*
X346710000Y-217170000D03*
%TD*%
D41*
%TO.C,Q2*%
X173355000Y-73025000D03*
D42*
X174625000Y-73025000D03*
X175895000Y-73025000D03*
%TD*%
D18*
%TO.C,D2*%
X173355000Y-33655000D03*
D19*
X173355000Y-36195000D03*
%TD*%
D11*
%TO.C,C10*%
X384810000Y-158750000D03*
X384810000Y-163750000D03*
%TD*%
D28*
%TO.C,SW1*%
X87640000Y-58420000D03*
D29*
X90180000Y-58420000D03*
X92720000Y-58420000D03*
X95260000Y-58420000D03*
X95260000Y-50800000D03*
X92720000Y-50800000D03*
X90180000Y-50800000D03*
X87640000Y-50800000D03*
%TD*%
D11*
%TO.C,R9*%
X173355000Y-38735000D03*
D12*
X173355000Y-46355000D03*
%TD*%
M02*
