%TF.GenerationSoftware,KiCad,Pcbnew,(6.0.6)*%
%TF.CreationDate,2022-08-08T10:31:15+02:00*%
%TF.ProjectId,Z80AllInOne,5a383041-6c6c-4496-9e4f-6e652e6b6963,rev?*%
%TF.SameCoordinates,Original*%
%TF.FileFunction,Copper,L1,Top*%
%TF.FilePolarity,Positive*%
%FSLAX46Y46*%
G04 Gerber Fmt 4.6, Leading zero omitted, Abs format (unit mm)*
G04 Created by KiCad (PCBNEW (6.0.6)) date 2022-08-08 10:31:15*
%MOMM*%
%LPD*%
G01*
G04 APERTURE LIST*
G04 Aperture macros list*
%AMRoundRect*
0 Rectangle with rounded corners*
0 $1 Rounding radius*
0 $2 $3 $4 $5 $6 $7 $8 $9 X,Y pos of 4 corners*
0 Add a 4 corners polygon primitive as box body*
4,1,4,$2,$3,$4,$5,$6,$7,$8,$9,$2,$3,0*
0 Add four circle primitives for the rounded corners*
1,1,$1+$1,$2,$3*
1,1,$1+$1,$4,$5*
1,1,$1+$1,$6,$7*
1,1,$1+$1,$8,$9*
0 Add four rect primitives between the rounded corners*
20,1,$1+$1,$2,$3,$4,$5,0*
20,1,$1+$1,$4,$5,$6,$7,0*
20,1,$1+$1,$6,$7,$8,$9,0*
20,1,$1+$1,$8,$9,$2,$3,0*%
G04 Aperture macros list end*
%TA.AperFunction,ComponentPad*%
%ADD10C,5.500000*%
%TD*%
%TA.AperFunction,ComponentPad*%
%ADD11C,1.600000*%
%TD*%
%TA.AperFunction,ComponentPad*%
%ADD12O,1.600000X1.600000*%
%TD*%
%TA.AperFunction,ComponentPad*%
%ADD13R,2.500000X2.500000*%
%TD*%
%TA.AperFunction,ComponentPad*%
%ADD14O,2.500000X2.500000*%
%TD*%
%TA.AperFunction,ConnectorPad*%
%ADD15R,1.650000X13.000000*%
%TD*%
%TA.AperFunction,ComponentPad*%
%ADD16C,2.400000*%
%TD*%
%TA.AperFunction,ComponentPad*%
%ADD17C,4.000000*%
%TD*%
%TA.AperFunction,ComponentPad*%
%ADD18R,1.800000X1.800000*%
%TD*%
%TA.AperFunction,ComponentPad*%
%ADD19C,1.800000*%
%TD*%
%TA.AperFunction,ComponentPad*%
%ADD20R,2.400000X1.600000*%
%TD*%
%TA.AperFunction,ComponentPad*%
%ADD21O,2.400000X1.600000*%
%TD*%
%TA.AperFunction,ComponentPad*%
%ADD22O,1.800000X1.800000*%
%TD*%
%TA.AperFunction,ComponentPad*%
%ADD23R,1.600000X1.600000*%
%TD*%
%TA.AperFunction,ComponentPad*%
%ADD24R,1.700000X1.700000*%
%TD*%
%TA.AperFunction,ComponentPad*%
%ADD25O,1.700000X1.700000*%
%TD*%
%TA.AperFunction,ComponentPad*%
%ADD26C,1.500000*%
%TD*%
%TA.AperFunction,ComponentPad*%
%ADD27R,1.600000X2.400000*%
%TD*%
%TA.AperFunction,ComponentPad*%
%ADD28O,1.600000X2.400000*%
%TD*%
%TA.AperFunction,ComponentPad*%
%ADD29R,1.500000X1.050000*%
%TD*%
%TA.AperFunction,ComponentPad*%
%ADD30O,1.500000X1.050000*%
%TD*%
%TA.AperFunction,SMDPad,CuDef*%
%ADD31R,2.000000X0.500000*%
%TD*%
%TA.AperFunction,SMDPad,CuDef*%
%ADD32R,1.700000X2.000000*%
%TD*%
%TA.AperFunction,ComponentPad*%
%ADD33C,2.500000*%
%TD*%
%TA.AperFunction,ComponentPad*%
%ADD34R,1.800000X4.400000*%
%TD*%
%TA.AperFunction,ComponentPad*%
%ADD35O,1.800000X4.000000*%
%TD*%
%TA.AperFunction,ComponentPad*%
%ADD36O,4.000000X1.800000*%
%TD*%
%TA.AperFunction,SMDPad,CuDef*%
%ADD37R,1.750000X0.450000*%
%TD*%
%TA.AperFunction,SMDPad,CuDef*%
%ADD38RoundRect,0.150000X0.150000X-0.587500X0.150000X0.587500X-0.150000X0.587500X-0.150000X-0.587500X0*%
%TD*%
%TA.AperFunction,ConnectorPad*%
%ADD39R,2.000000X13.000000*%
%TD*%
%TA.AperFunction,ComponentPad*%
%ADD40R,1.350000X1.350000*%
%TD*%
%TA.AperFunction,ComponentPad*%
%ADD41O,1.350000X1.350000*%
%TD*%
%TA.AperFunction,ComponentPad*%
%ADD42C,2.000000*%
%TD*%
%TA.AperFunction,SMDPad,CuDef*%
%ADD43RoundRect,0.218750X0.218750X0.381250X-0.218750X0.381250X-0.218750X-0.381250X0.218750X-0.381250X0*%
%TD*%
%TA.AperFunction,ComponentPad*%
%ADD44R,1.050000X1.500000*%
%TD*%
%TA.AperFunction,ComponentPad*%
%ADD45O,1.050000X1.500000*%
%TD*%
%TA.AperFunction,ViaPad*%
%ADD46C,0.800000*%
%TD*%
%TA.AperFunction,Conductor*%
%ADD47C,0.250000*%
%TD*%
%TA.AperFunction,Conductor*%
%ADD48C,1.000000*%
%TD*%
G04 APERTURE END LIST*
D10*
%TO.P,,3*%
%TO.N,GND*%
X400050000Y-39370000D03*
%TD*%
%TO.P,,3*%
%TO.N,GND*%
X403225000Y-161290000D03*
%TD*%
%TO.P,,3*%
%TO.N,GND*%
X400050000Y-213995000D03*
%TD*%
D11*
%TO.P,C4,1*%
%TO.N,GND*%
X314960000Y-93385000D03*
%TO.P,C4,2*%
%TO.N,VCC*%
X314960000Y-98385000D03*
%TD*%
%TO.P,R21,1*%
%TO.N,/{slash}RESET*%
X327660000Y-79355564D03*
D12*
%TO.P,R21,2*%
%TO.N,Net-(Q3-Pad2)*%
X327660000Y-71735564D03*
%TD*%
D11*
%TO.P,C49,1*%
%TO.N,Net-(C49-Pad1)*%
X198120000Y-41870000D03*
%TO.P,C49,2*%
%TO.N,GND*%
X198120000Y-36870000D03*
%TD*%
D13*
%TO.P,K1,1*%
%TO.N,VCC*%
X293370000Y-43300000D03*
D14*
%TO.P,K1,3*%
%TO.N,/IO/Casette Interface/M1*%
X272370000Y-43300000D03*
%TO.P,K1,5*%
%TO.N,/IO/Casette Interface/M2*%
X275870000Y-50800000D03*
%TO.P,K1,6*%
%TO.N,Net-(D7-Pad1)*%
X293370000Y-50800000D03*
%TD*%
D15*
%TO.P,JE1,2,Pin_2*%
%TO.N,/NMI*%
X83883000Y-39370000D03*
%TO.P,JE1,4,Pin_4*%
%TO.N,/WAIT*%
X81333000Y-39370000D03*
%TO.P,JE1,6,Pin_6*%
%TO.N,/IORQ*%
X78783000Y-39370000D03*
%TO.P,JE1,8,Pin_8*%
%TO.N,/RD*%
X76233000Y-39370000D03*
%TO.P,JE1,10,Pin_10*%
%TO.N,/BUS Expansion/D0*%
X73683000Y-39370000D03*
%TO.P,JE1,12,Pin_12*%
%TO.N,/BUS Expansion/D2*%
X71133000Y-39370000D03*
%TO.P,JE1,14,Pin_14*%
%TO.N,/BUS Expansion/D4*%
X68583000Y-39370000D03*
%TO.P,JE1,16,Pin_16*%
%TO.N,/BUS Expansion/D6*%
X66033000Y-39370000D03*
%TO.P,JE1,18,Pin_18*%
%TO.N,/WR*%
X63483000Y-39370000D03*
%TO.P,JE1,20,Pin_20*%
%TO.N,/IO/A1*%
X60933000Y-39370000D03*
%TO.P,JE1,22,Pin_22*%
%TO.N,/IO/A3*%
X58383000Y-39370000D03*
%TO.P,JE1,24,Pin_24*%
%TO.N,/IO/A5*%
X55833000Y-39370000D03*
%TO.P,JE1,26,Pin_26*%
%TO.N,/IO/A7*%
X53283000Y-39370000D03*
%TO.P,JE1,28,Pin_28*%
%TO.N,/IO/A9*%
X50733000Y-39370000D03*
%TO.P,JE1,30,Pin_30*%
%TO.N,/IO/A11*%
X48183000Y-39370000D03*
%TO.P,JE1,32,Pin_32*%
%TO.N,/BUSACK*%
X45633000Y-39370000D03*
%TO.P,JE1,34,Pin_34*%
%TO.N,GND*%
X43083000Y-39370000D03*
%TO.P,JE1,36,Pin_36*%
%TO.N,/DEV_CS1*%
X40533000Y-39370000D03*
%TO.P,JE1,38,Pin_38*%
%TO.N,/IO/A14*%
X37983000Y-39370000D03*
%TO.P,JE1,40,Pin_40*%
%TO.N,/INT_DEV1*%
X35433000Y-39370000D03*
%TD*%
D11*
%TO.P,R5,1*%
%TO.N,Net-(R5-Pad1)*%
X91440000Y-63500000D03*
D12*
%TO.P,R5,2*%
%TO.N,GND*%
X91440000Y-71120000D03*
%TD*%
D11*
%TO.P,C32,1*%
%TO.N,VCC*%
X20955000Y-109220000D03*
%TO.P,C32,2*%
%TO.N,GND*%
X20955000Y-114220000D03*
%TD*%
%TO.P,R19,1*%
%TO.N,Net-(C19-Pad1)*%
X169545000Y-67945000D03*
D12*
%TO.P,R19,2*%
%TO.N,Net-(Q2-Pad1)*%
X159385000Y-67945000D03*
%TD*%
D16*
%TO.P,J3,1,In*%
%TO.N,Net-(C19-Pad2)*%
X247650000Y-56210000D03*
D17*
%TO.P,J3,2,Ext*%
%TO.N,GND*%
X254650000Y-48940000D03*
%TO.P,J3,3*%
%TO.N,N/C*%
X240650000Y-48940000D03*
%TD*%
D18*
%TO.P,D4,1,K*%
%TO.N,Net-(D4-Pad1)*%
X403225000Y-84455000D03*
D19*
%TO.P,D4,2,A*%
%TO.N,VCC*%
X405765000Y-84455000D03*
%TD*%
D11*
%TO.P,C38,1*%
%TO.N,VCC*%
X206470000Y-184155000D03*
%TO.P,C38,2*%
%TO.N,GND*%
X201470000Y-184155000D03*
%TD*%
D20*
%TO.P,U28,1,OE*%
%TO.N,Net-(JP3-Pad2)*%
X183505000Y-187970000D03*
D21*
%TO.P,U28,2,O0*%
%TO.N,/BUS Expansion/D0*%
X183505000Y-190510000D03*
%TO.P,U28,3,D0*%
%TO.N,GND*%
X183505000Y-193050000D03*
%TO.P,U28,4,D1*%
%TO.N,Net-(U26-Pad9)*%
X183505000Y-195590000D03*
%TO.P,U28,5,O1*%
%TO.N,/BUS Expansion/D1*%
X183505000Y-198130000D03*
%TO.P,U28,6,O2*%
%TO.N,/BUS Expansion/D2*%
X183505000Y-200670000D03*
%TO.P,U28,7,D2*%
%TO.N,Net-(U26-Pad7)*%
X183505000Y-203210000D03*
%TO.P,U28,8,D3*%
%TO.N,Net-(U26-Pad6)*%
X183505000Y-205750000D03*
%TO.P,U28,9,O3*%
%TO.N,/BUS Expansion/D3*%
X183505000Y-208290000D03*
%TO.P,U28,10,GND*%
%TO.N,GND*%
X183505000Y-210830000D03*
%TO.P,U28,11,LE*%
%TO.N,/M1*%
X191125000Y-210830000D03*
%TO.P,U28,12,O4*%
%TO.N,/BUS Expansion/D4*%
X191125000Y-208290000D03*
%TO.P,U28,13,D4*%
%TO.N,GND*%
X191125000Y-205750000D03*
%TO.P,U28,14,D5*%
X191125000Y-203210000D03*
%TO.P,U28,15,O5*%
%TO.N,/BUS Expansion/D5*%
X191125000Y-200670000D03*
%TO.P,U28,16,O6*%
%TO.N,/BUS Expansion/D6*%
X191125000Y-198130000D03*
%TO.P,U28,17,D6*%
%TO.N,GND*%
X191125000Y-195590000D03*
%TO.P,U28,18,D7*%
X191125000Y-193050000D03*
%TO.P,U28,19,O7*%
%TO.N,/BUS Expansion/D7*%
X191125000Y-190510000D03*
%TO.P,U28,20,VCC*%
%TO.N,VCC*%
X191125000Y-187970000D03*
%TD*%
D11*
%TO.P,R38,1*%
%TO.N,Net-(R38-Pad1)*%
X244475000Y-73025000D03*
D12*
%TO.P,R38,2*%
%TO.N,VCC*%
X244475000Y-80645000D03*
%TD*%
D18*
%TO.P,U29,1,IN*%
%TO.N,Net-(C44-Pad1)*%
X372745000Y-57850000D03*
D22*
%TO.P,U29,2,GND*%
%TO.N,GND*%
X375285000Y-57850000D03*
%TO.P,U29,3,OUT*%
%TO.N,VCC*%
X377825000Y-57850000D03*
%TD*%
D23*
%TO.P,D10,1,A*%
%TO.N,GND*%
X233045000Y-73025000D03*
D12*
%TO.P,D10,2,K*%
%TO.N,Net-(D10-Pad2)*%
X233045000Y-80645000D03*
%TD*%
D23*
%TO.P,D8,1,A*%
%TO.N,Net-(D8-Pad1)*%
X280035000Y-38100000D03*
D12*
%TO.P,D8,2,K*%
%TO.N,/IO/Casette Interface/M1*%
X272415000Y-38100000D03*
%TD*%
D23*
%TO.P,C19,1*%
%TO.N,Net-(C19-Pad1)*%
X236302375Y-59055000D03*
D11*
%TO.P,C19,2*%
%TO.N,Net-(C19-Pad2)*%
X238802375Y-59055000D03*
%TD*%
D23*
%TO.P,U23,1,GND*%
%TO.N,GND*%
X314970000Y-66795564D03*
D12*
%TO.P,U23,2,TR*%
%TO.N,Net-(C34-Pad1)*%
X314970000Y-69335564D03*
%TO.P,U23,3,Q*%
%TO.N,Net-(U12-Pad1)*%
X314970000Y-71875564D03*
%TO.P,U23,4,R*%
%TO.N,VCC*%
X314970000Y-74415564D03*
%TO.P,U23,5,CV*%
%TO.N,unconnected-(U23-Pad5)*%
X322590000Y-74415564D03*
%TO.P,U23,6,THR*%
%TO.N,Net-(C36-Pad1)*%
X322590000Y-71875564D03*
%TO.P,U23,7,DIS*%
X322590000Y-69335564D03*
%TO.P,U23,8,VCC*%
%TO.N,VCC*%
X322590000Y-66795564D03*
%TD*%
D11*
%TO.P,C37,1*%
%TO.N,GND*%
X224235000Y-184150000D03*
%TO.P,C37,2*%
%TO.N,VCC*%
X229235000Y-184150000D03*
%TD*%
%TO.P,R14,1*%
%TO.N,GND*%
X41275000Y-98425000D03*
D12*
%TO.P,R14,2*%
%TO.N,Net-(C30-Pad1)*%
X31115000Y-98425000D03*
%TD*%
D11*
%TO.P,C6,1*%
%TO.N,GND*%
X355645000Y-111755000D03*
%TO.P,C6,2*%
%TO.N,VCC*%
X360645000Y-111755000D03*
%TD*%
%TO.P,R4,1*%
%TO.N,Net-(R4-Pad1)*%
X87630000Y-63589062D03*
D12*
%TO.P,R4,2*%
%TO.N,GND*%
X87630000Y-71209062D03*
%TD*%
D20*
%TO.P,U26,1,I4*%
%TO.N,/INT_DEV2*%
X198875000Y-187980000D03*
D21*
%TO.P,U26,2,I5*%
%TO.N,/INT_DEV3*%
X198875000Y-190520000D03*
%TO.P,U26,3,I6*%
%TO.N,/INT_DEV4*%
X198875000Y-193060000D03*
%TO.P,U26,4,I7*%
%TO.N,/INT_DEV5*%
X198875000Y-195600000D03*
%TO.P,U26,5,EI*%
%TO.N,GND*%
X198875000Y-198140000D03*
%TO.P,U26,6,S2*%
%TO.N,Net-(U26-Pad6)*%
X198875000Y-200680000D03*
%TO.P,U26,7,S1*%
%TO.N,Net-(U26-Pad7)*%
X198875000Y-203220000D03*
%TO.P,U26,8,GND*%
%TO.N,GND*%
X198875000Y-205760000D03*
%TO.P,U26,9,S0*%
%TO.N,Net-(U26-Pad9)*%
X206495000Y-205760000D03*
%TO.P,U26,10,IO*%
%TO.N,/CTC_INT*%
X206495000Y-203220000D03*
%TO.P,U26,11,I1*%
%TO.N,/UART_INT*%
X206495000Y-200680000D03*
%TO.P,U26,12,I2*%
%TO.N,/VDP_INT*%
X206495000Y-198140000D03*
%TO.P,U26,13,I3*%
%TO.N,/INT_DEV1*%
X206495000Y-195600000D03*
%TO.P,U26,14,GS*%
%TO.N,Net-(U25-Pad10)*%
X206495000Y-193060000D03*
%TO.P,U26,15,EO*%
%TO.N,unconnected-(U26-Pad15)*%
X206495000Y-190520000D03*
%TO.P,U26,16,VCC*%
%TO.N,VCC*%
X206495000Y-187980000D03*
%TD*%
D11*
%TO.P,R3,1*%
%TO.N,VCC*%
X325120000Y-139065000D03*
D12*
%TO.P,R3,2*%
%TO.N,/BUSRQ*%
X325120000Y-146685000D03*
%TD*%
D20*
%TO.P,U2,1,A14*%
%TO.N,/IO/A14*%
X233680000Y-118110000D03*
D21*
%TO.P,U2,2,A12*%
%TO.N,/IO/A12*%
X233680000Y-120650000D03*
%TO.P,U2,3,A7*%
%TO.N,/IO/A7*%
X233680000Y-123190000D03*
%TO.P,U2,4,A6*%
%TO.N,/IO/A6*%
X233680000Y-125730000D03*
%TO.P,U2,5,A5*%
%TO.N,/IO/A5*%
X233680000Y-128270000D03*
%TO.P,U2,6,A4*%
%TO.N,/IO/A4*%
X233680000Y-130810000D03*
%TO.P,U2,7,A3*%
%TO.N,/IO/A3*%
X233680000Y-133350000D03*
%TO.P,U2,8,A2*%
%TO.N,/IO/A2*%
X233680000Y-135890000D03*
%TO.P,U2,9,A1*%
%TO.N,/IO/A1*%
X233680000Y-138430000D03*
%TO.P,U2,10,A0*%
%TO.N,/IO/A0*%
X233680000Y-140970000D03*
%TO.P,U2,11,I/O1*%
%TO.N,/BUS Expansion/D0*%
X233680000Y-143510000D03*
%TO.P,U2,12,I/O2*%
%TO.N,/BUS Expansion/D1*%
X233680000Y-146050000D03*
%TO.P,U2,13,I/O3*%
%TO.N,/BUS Expansion/D2*%
X233680000Y-148590000D03*
%TO.P,U2,14,GND*%
%TO.N,GND*%
X233680000Y-151130000D03*
%TO.P,U2,15,I/O4*%
%TO.N,/BUS Expansion/D3*%
X248920000Y-151130000D03*
%TO.P,U2,16,I/O5*%
%TO.N,/BUS Expansion/D4*%
X248920000Y-148590000D03*
%TO.P,U2,17,I/O6*%
%TO.N,/BUS Expansion/D5*%
X248920000Y-146050000D03*
%TO.P,U2,18,I/O7*%
%TO.N,/BUS Expansion/D6*%
X248920000Y-143510000D03*
%TO.P,U2,19,I/O8*%
%TO.N,/BUS Expansion/D7*%
X248920000Y-140970000D03*
%TO.P,U2,20,/CE*%
%TO.N,/ROM_CE*%
X248920000Y-138430000D03*
%TO.P,U2,21,A10*%
%TO.N,/IO/A10*%
X248920000Y-135890000D03*
%TO.P,U2,22,/OE*%
%TO.N,/RD*%
X248920000Y-133350000D03*
%TO.P,U2,23,A11*%
%TO.N,/IO/A11*%
X248920000Y-130810000D03*
%TO.P,U2,24,A9*%
%TO.N,/IO/A9*%
X248920000Y-128270000D03*
%TO.P,U2,25,A8*%
%TO.N,/IO/A8*%
X248920000Y-125730000D03*
%TO.P,U2,26,A13*%
%TO.N,/IO/A13*%
X248920000Y-123190000D03*
%TO.P,U2,27,R/W*%
%TO.N,/WR*%
X248920000Y-120650000D03*
%TO.P,U2,28,VDD*%
%TO.N,VCC*%
X248920000Y-118110000D03*
%TD*%
D11*
%TO.P,C30,1*%
%TO.N,Net-(C30-Pad1)*%
X31195000Y-86360000D03*
%TO.P,C30,2*%
%TO.N,GND*%
X36195000Y-86360000D03*
%TD*%
%TO.P,C31,1*%
%TO.N,Net-(C31-Pad1)*%
X17860000Y-86360000D03*
%TO.P,C31,2*%
%TO.N,Net-(C30-Pad1)*%
X22860000Y-86360000D03*
%TD*%
D18*
%TO.P,D6,1,K*%
%TO.N,GND*%
X405130000Y-99060000D03*
D19*
%TO.P,D6,2,A*%
%TO.N,Net-(D6-Pad2)*%
X402590000Y-99060000D03*
%TD*%
D11*
%TO.P,C34,1*%
%TO.N,Net-(C34-Pad1)*%
X346710000Y-79315564D03*
%TO.P,C34,2*%
%TO.N,GND*%
X346710000Y-74315564D03*
%TD*%
D20*
%TO.P,U20,1*%
%TO.N,Net-(U20-Pad1)*%
X46990000Y-187945000D03*
D21*
%TO.P,U20,2*%
%TO.N,/IO/A0*%
X46990000Y-190485000D03*
%TO.P,U20,3*%
%TO.N,/PSG_CE*%
X46990000Y-193025000D03*
%TO.P,U20,4*%
%TO.N,Net-(U20-Pad4)*%
X46990000Y-195565000D03*
%TO.P,U20,5*%
%TO.N,/PSG_CE*%
X46990000Y-198105000D03*
%TO.P,U20,6*%
%TO.N,/WR*%
X46990000Y-200645000D03*
%TO.P,U20,7,GND*%
%TO.N,GND*%
X46990000Y-203185000D03*
%TO.P,U20,8*%
%TO.N,N/C*%
X54610000Y-203185000D03*
%TO.P,U20,9*%
X54610000Y-200645000D03*
%TO.P,U20,10*%
X54610000Y-198105000D03*
%TO.P,U20,11*%
X54610000Y-195565000D03*
%TO.P,U20,12*%
X54610000Y-193025000D03*
%TO.P,U20,13*%
X54610000Y-190485000D03*
%TO.P,U20,14,VCC*%
%TO.N,VCC*%
X54610000Y-187945000D03*
%TD*%
D11*
%TO.P,R29,1*%
%TO.N,Net-(C48-Pad1)*%
X222250000Y-74930000D03*
D12*
%TO.P,R29,2*%
%TO.N,Net-(R29-Pad2)*%
X214630000Y-74930000D03*
%TD*%
D11*
%TO.P,C3,1*%
%TO.N,GND*%
X266700000Y-113025000D03*
%TO.P,C3,2*%
%TO.N,VCC*%
X271700000Y-113025000D03*
%TD*%
D20*
%TO.P,U3,1,A14*%
%TO.N,/IO/A14*%
X256540000Y-118110000D03*
D21*
%TO.P,U3,2,A12*%
%TO.N,/IO/A12*%
X256540000Y-120650000D03*
%TO.P,U3,3,A7*%
%TO.N,/IO/A7*%
X256540000Y-123190000D03*
%TO.P,U3,4,A6*%
%TO.N,/IO/A6*%
X256540000Y-125730000D03*
%TO.P,U3,5,A5*%
%TO.N,/IO/A5*%
X256540000Y-128270000D03*
%TO.P,U3,6,A4*%
%TO.N,/IO/A4*%
X256540000Y-130810000D03*
%TO.P,U3,7,A3*%
%TO.N,/IO/A3*%
X256540000Y-133350000D03*
%TO.P,U3,8,A2*%
%TO.N,/IO/A2*%
X256540000Y-135890000D03*
%TO.P,U3,9,A1*%
%TO.N,/IO/A1*%
X256540000Y-138430000D03*
%TO.P,U3,10,A0*%
%TO.N,/IO/A0*%
X256540000Y-140970000D03*
%TO.P,U3,11,D0*%
%TO.N,/BUS Expansion/D0*%
X256540000Y-143510000D03*
%TO.P,U3,12,D1*%
%TO.N,/BUS Expansion/D1*%
X256540000Y-146050000D03*
%TO.P,U3,13,D2*%
%TO.N,/BUS Expansion/D2*%
X256540000Y-148590000D03*
%TO.P,U3,14,GND*%
%TO.N,GND*%
X256540000Y-151130000D03*
%TO.P,U3,15,D3*%
%TO.N,/BUS Expansion/D3*%
X271780000Y-151130000D03*
%TO.P,U3,16,D4*%
%TO.N,/BUS Expansion/D4*%
X271780000Y-148590000D03*
%TO.P,U3,17,D5*%
%TO.N,/BUS Expansion/D5*%
X271780000Y-146050000D03*
%TO.P,U3,18,D6*%
%TO.N,/BUS Expansion/D6*%
X271780000Y-143510000D03*
%TO.P,U3,19,D7*%
%TO.N,/BUS Expansion/D7*%
X271780000Y-140970000D03*
%TO.P,U3,20,~{CS}*%
%TO.N,/RAM_CE*%
X271780000Y-138430000D03*
%TO.P,U3,21,A10*%
%TO.N,/IO/A10*%
X271780000Y-135890000D03*
%TO.P,U3,22,~{OE}*%
%TO.N,/RD*%
X271780000Y-133350000D03*
%TO.P,U3,23,A11*%
%TO.N,/IO/A11*%
X271780000Y-130810000D03*
%TO.P,U3,24,A9*%
%TO.N,/IO/A9*%
X271780000Y-128270000D03*
%TO.P,U3,25,A8*%
%TO.N,/IO/A8*%
X271780000Y-125730000D03*
%TO.P,U3,26,A13*%
%TO.N,/IO/A13*%
X271780000Y-123190000D03*
%TO.P,U3,27,~{WE}*%
%TO.N,VCC*%
X271780000Y-120650000D03*
%TO.P,U3,28,VCC*%
X271780000Y-118110000D03*
%TD*%
D23*
%TO.P,U4,1,PA3*%
%TO.N,Net-(R7-Pad1)*%
X92715000Y-91445000D03*
D12*
%TO.P,U4,2,PA2*%
%TO.N,Net-(R6-Pad1)*%
X95255000Y-91445000D03*
%TO.P,U4,3,PA1*%
%TO.N,Net-(R5-Pad1)*%
X97795000Y-91445000D03*
%TO.P,U4,4,PA0*%
%TO.N,Net-(R4-Pad1)*%
X100335000Y-91445000D03*
%TO.P,U4,5,~{RD}*%
%TO.N,/RD*%
X102875000Y-91445000D03*
%TO.P,U4,6,~{CS}*%
%TO.N,/PPI_CE*%
X105415000Y-91445000D03*
%TO.P,U4,7,GND*%
%TO.N,GND*%
X107955000Y-91445000D03*
%TO.P,U4,8,A1*%
%TO.N,/IO/A1*%
X110495000Y-91445000D03*
%TO.P,U4,9,A0*%
%TO.N,/IO/A0*%
X113035000Y-91445000D03*
%TO.P,U4,10,PC7*%
%TO.N,/IO/Casette Interface/PC7*%
X115575000Y-91445000D03*
%TO.P,U4,11,PC6*%
%TO.N,/IO/Casette Interface/PC6*%
X118115000Y-91445000D03*
%TO.P,U4,12,PC5*%
%TO.N,/IO/Casette Interface/PC5*%
X120655000Y-91445000D03*
%TO.P,U4,13,PC4*%
%TO.N,/IO/Casette Interface/PC4*%
X123195000Y-91445000D03*
%TO.P,U4,14,PC0*%
%TO.N,/IO/PC0*%
X125735000Y-91445000D03*
%TO.P,U4,15,PC1*%
%TO.N,/IO/PC1*%
X128275000Y-91445000D03*
%TO.P,U4,16,PC2*%
%TO.N,/IO/Casette Interface/PC2*%
X130815000Y-91445000D03*
%TO.P,U4,17,PC3*%
%TO.N,/IO/Casette Interface/PC3*%
X133355000Y-91445000D03*
%TO.P,U4,18,PB0*%
%TO.N,/IO/PB0*%
X135895000Y-91445000D03*
%TO.P,U4,19,PB1*%
%TO.N,/IO/PB1*%
X138435000Y-91445000D03*
%TO.P,U4,20,PB2*%
%TO.N,/IO/PB2*%
X140975000Y-91445000D03*
%TO.P,U4,21,PB3*%
%TO.N,/IO/PB3*%
X140975000Y-76205000D03*
%TO.P,U4,22,PB4*%
%TO.N,/IO/PB4*%
X138435000Y-76205000D03*
%TO.P,U4,23,PB5*%
%TO.N,/IO/PB5*%
X135895000Y-76205000D03*
%TO.P,U4,24,PB6*%
%TO.N,/IO/PB6*%
X133355000Y-76205000D03*
%TO.P,U4,25,PB7*%
%TO.N,/IO/PB7*%
X130815000Y-76205000D03*
%TO.P,U4,26,VCC*%
%TO.N,VCC*%
X128275000Y-76205000D03*
%TO.P,U4,27,D7*%
%TO.N,/BUS Expansion/D7*%
X125735000Y-76205000D03*
%TO.P,U4,28,D6*%
%TO.N,/BUS Expansion/D6*%
X123195000Y-76205000D03*
%TO.P,U4,29,D5*%
%TO.N,/BUS Expansion/D5*%
X120655000Y-76205000D03*
%TO.P,U4,30,D4*%
%TO.N,/BUS Expansion/D4*%
X118115000Y-76205000D03*
%TO.P,U4,31,D3*%
%TO.N,/BUS Expansion/D3*%
X115575000Y-76205000D03*
%TO.P,U4,32,D2*%
%TO.N,/BUS Expansion/D2*%
X113035000Y-76205000D03*
%TO.P,U4,33,D1*%
%TO.N,/BUS Expansion/D1*%
X110495000Y-76205000D03*
%TO.P,U4,34,D0*%
%TO.N,/BUS Expansion/D0*%
X107955000Y-76205000D03*
%TO.P,U4,35,RESET*%
%TO.N,/RESET_IO*%
X105415000Y-76205000D03*
%TO.P,U4,36,~{WR}*%
%TO.N,/WR*%
X102875000Y-76205000D03*
%TO.P,U4,37,PA7*%
%TO.N,/IO/PA7*%
X100335000Y-76205000D03*
%TO.P,U4,38,PA6*%
%TO.N,/IO/PA6*%
X97795000Y-76205000D03*
%TO.P,U4,39,PA5*%
%TO.N,/IO/PA5*%
X95255000Y-76205000D03*
%TO.P,U4,40,PA4*%
%TO.N,/IO/PA4*%
X92715000Y-76205000D03*
%TD*%
D18*
%TO.P,D3,1,K*%
%TO.N,Net-(D3-Pad1)*%
X380365000Y-67945000D03*
D22*
%TO.P,D3,2,A*%
%TO.N,Net-(C44-Pad1)*%
X372745000Y-67945000D03*
%TD*%
D20*
%TO.P,U13,1*%
%TO.N,/IO/A8*%
X253350000Y-188060000D03*
D21*
%TO.P,U13,2*%
X253350000Y-190600000D03*
%TO.P,U13,3*%
%TO.N,Net-(U13-Pad3)*%
X253350000Y-193140000D03*
%TO.P,U13,4*%
%TO.N,/{slash}RESET*%
X253350000Y-195680000D03*
%TO.P,U13,5*%
X253350000Y-198220000D03*
%TO.P,U13,6*%
%TO.N,/MR*%
X253350000Y-200760000D03*
%TO.P,U13,7,GND*%
%TO.N,GND*%
X253350000Y-203300000D03*
%TO.P,U13,8*%
%TO.N,Net-(U13-Pad8)*%
X260970000Y-203300000D03*
%TO.P,U13,9*%
%TO.N,/RD*%
X260970000Y-200760000D03*
%TO.P,U13,10*%
X260970000Y-198220000D03*
%TO.P,U13,11*%
%TO.N,/UART_INT*%
X260970000Y-195680000D03*
%TO.P,U13,12*%
%TO.N,Net-(U13-Pad12)*%
X260970000Y-193140000D03*
%TO.P,U13,13*%
X260970000Y-190600000D03*
%TO.P,U13,14,VCC*%
%TO.N,VCC*%
X260970000Y-188060000D03*
%TD*%
D11*
%TO.P,R24,1*%
%TO.N,Net-(Q4-Pad2)*%
X288290000Y-88265000D03*
D12*
%TO.P,R24,2*%
%TO.N,/IO/PA7*%
X280670000Y-88265000D03*
%TD*%
D11*
%TO.P,C23,1*%
%TO.N,GND*%
X132080000Y-132075000D03*
%TO.P,C23,2*%
%TO.N,VCC*%
X132080000Y-127075000D03*
%TD*%
D10*
%TO.P,,4*%
%TO.N,GND*%
X101600000Y-53340000D03*
%TD*%
D20*
%TO.P,U19,1*%
%TO.N,/IO/PA6*%
X259715000Y-73035000D03*
D21*
%TO.P,U19,2,-*%
%TO.N,Net-(R35-Pad1)*%
X259715000Y-75575000D03*
%TO.P,U19,3,+*%
%TO.N,Net-(R38-Pad1)*%
X259715000Y-78115000D03*
%TO.P,U19,4,V-*%
%TO.N,VCC*%
X259715000Y-80655000D03*
%TO.P,U19,5*%
%TO.N,N/C*%
X267335000Y-80655000D03*
%TO.P,U19,6*%
X267335000Y-78115000D03*
%TO.P,U19,7*%
X267335000Y-75575000D03*
%TO.P,U19,8,V+*%
%TO.N,GND*%
X267335000Y-73035000D03*
%TD*%
D24*
%TO.P,JP2,1,A*%
%TO.N,Net-(C7-Pad2)*%
X370855000Y-187960000D03*
D25*
%TO.P,JP2,2,C*%
%TO.N,VCC*%
X373395000Y-187960000D03*
%TO.P,JP2,3,B*%
%TO.N,Net-(FB1-Pad2)*%
X375935000Y-187960000D03*
%TD*%
D11*
%TO.P,R36,1*%
%TO.N,Net-(R35-Pad1)*%
X248285000Y-73025000D03*
D12*
%TO.P,R36,2*%
%TO.N,VCC*%
X248285000Y-80645000D03*
%TD*%
D11*
%TO.P,R8,1*%
%TO.N,Net-(D1-Pad2)*%
X180340000Y-38735000D03*
D12*
%TO.P,R8,2*%
%TO.N,/IO/PC1*%
X180340000Y-46355000D03*
%TD*%
D11*
%TO.P,C29,1*%
%TO.N,VCC*%
X54610000Y-114300000D03*
%TO.P,C29,2*%
%TO.N,GND*%
X49610000Y-114300000D03*
%TD*%
D26*
%TO.P,Y2,1,1*%
%TO.N,Net-(C16-Pad2)*%
X115510000Y-115475000D03*
%TO.P,Y2,2,2*%
%TO.N,Net-(C17-Pad2)*%
X115510000Y-110575000D03*
%TD*%
D10*
%TO.P,,1*%
%TO.N,GND*%
X21590000Y-53340000D03*
%TD*%
D11*
%TO.P,C27,1*%
%TO.N,VCC*%
X274955000Y-184150000D03*
%TO.P,C27,2*%
%TO.N,GND*%
X269955000Y-184150000D03*
%TD*%
%TO.P,R32,1*%
%TO.N,Net-(C49-Pad1)*%
X194310000Y-38735000D03*
D12*
%TO.P,R32,2*%
%TO.N,Net-(C48-Pad1)*%
X186690000Y-38735000D03*
%TD*%
D27*
%TO.P,U9,1,OE*%
%TO.N,GND*%
X135890000Y-134715000D03*
D28*
%TO.P,U9,2,D0*%
%TO.N,/VIDEO/AD0*%
X138430000Y-134715000D03*
%TO.P,U9,3,D1*%
%TO.N,/VIDEO/AD1*%
X140970000Y-134715000D03*
%TO.P,U9,4,D2*%
%TO.N,/VIDEO/AD2*%
X143510000Y-134715000D03*
%TO.P,U9,5,D3*%
%TO.N,/VIDEO/AD3*%
X146050000Y-134715000D03*
%TO.P,U9,6,D4*%
%TO.N,/VIDEO/AD4*%
X148590000Y-134715000D03*
%TO.P,U9,7,D5*%
%TO.N,/VIDEO/AD5*%
X151130000Y-134715000D03*
%TO.P,U9,8,D6*%
%TO.N,/VIDEO/AD6*%
X153670000Y-134715000D03*
%TO.P,U9,9,D7*%
%TO.N,/VIDEO/AD7*%
X156210000Y-134715000D03*
%TO.P,U9,10,GND*%
%TO.N,GND*%
X158750000Y-134715000D03*
%TO.P,U9,11,Cp*%
%TO.N,Net-(U17-Pad6)*%
X158750000Y-127095000D03*
%TO.P,U9,12,Q7*%
%TO.N,/VIDEO/VA13*%
X156210000Y-127095000D03*
%TO.P,U9,13,Q6*%
%TO.N,/VIDEO/VA12*%
X153670000Y-127095000D03*
%TO.P,U9,14,Q5*%
%TO.N,/VIDEO/VA11*%
X151130000Y-127095000D03*
%TO.P,U9,15,Q4*%
%TO.N,/VIDEO/VA10*%
X148590000Y-127095000D03*
%TO.P,U9,16,Q3*%
%TO.N,/VIDEO/VA9*%
X146050000Y-127095000D03*
%TO.P,U9,17,Q2*%
%TO.N,/VIDEO/VA8*%
X143510000Y-127095000D03*
%TO.P,U9,18,Q1*%
%TO.N,/VIDEO/VA7*%
X140970000Y-127095000D03*
%TO.P,U9,19,Q0*%
%TO.N,unconnected-(U9-Pad19)*%
X138430000Y-127095000D03*
%TO.P,U9,20,VCC*%
%TO.N,VCC*%
X135890000Y-127095000D03*
%TD*%
D27*
%TO.P,U8,1,OE*%
%TO.N,GND*%
X135895000Y-119465000D03*
D28*
%TO.P,U8,2,D0*%
%TO.N,/VIDEO/AD0*%
X138435000Y-119465000D03*
%TO.P,U8,3,D1*%
%TO.N,/VIDEO/AD1*%
X140975000Y-119465000D03*
%TO.P,U8,4,D2*%
%TO.N,/VIDEO/AD2*%
X143515000Y-119465000D03*
%TO.P,U8,5,D3*%
%TO.N,/VIDEO/AD3*%
X146055000Y-119465000D03*
%TO.P,U8,6,D4*%
%TO.N,/VIDEO/AD4*%
X148595000Y-119465000D03*
%TO.P,U8,7,D5*%
%TO.N,/VIDEO/AD5*%
X151135000Y-119465000D03*
%TO.P,U8,8,D6*%
%TO.N,/VIDEO/AD6*%
X153675000Y-119465000D03*
%TO.P,U8,9,D7*%
%TO.N,/VIDEO/AD7*%
X156215000Y-119465000D03*
%TO.P,U8,10,GND*%
%TO.N,GND*%
X158755000Y-119465000D03*
%TO.P,U8,11,Cp*%
%TO.N,Net-(U17-Pad2)*%
X158755000Y-111845000D03*
%TO.P,U8,12,Q7*%
%TO.N,/VIDEO/VA6*%
X156215000Y-111845000D03*
%TO.P,U8,13,Q6*%
%TO.N,/VIDEO/VA5*%
X153675000Y-111845000D03*
%TO.P,U8,14,Q5*%
%TO.N,/VIDEO/VA4*%
X151135000Y-111845000D03*
%TO.P,U8,15,Q4*%
%TO.N,/VIDEO/VA3*%
X148595000Y-111845000D03*
%TO.P,U8,16,Q3*%
%TO.N,/VIDEO/VA2*%
X146055000Y-111845000D03*
%TO.P,U8,17,Q2*%
%TO.N,/VIDEO/VA1*%
X143515000Y-111845000D03*
%TO.P,U8,18,Q1*%
%TO.N,/VIDEO/VA0*%
X140975000Y-111845000D03*
%TO.P,U8,19,Q0*%
%TO.N,unconnected-(U8-Pad19)*%
X138435000Y-111845000D03*
%TO.P,U8,20,VCC*%
%TO.N,VCC*%
X135895000Y-111845000D03*
%TD*%
D11*
%TO.P,R28,1*%
%TO.N,Net-(C48-Pad1)*%
X222250000Y-80010000D03*
D12*
%TO.P,R28,2*%
%TO.N,Net-(R28-Pad2)*%
X214630000Y-80010000D03*
%TD*%
D11*
%TO.P,R35,1*%
%TO.N,Net-(R35-Pad1)*%
X252095000Y-80645000D03*
D12*
%TO.P,R35,2*%
%TO.N,/IO/PA6*%
X252095000Y-73025000D03*
%TD*%
D23*
%TO.P,U27,1*%
%TO.N,/WR*%
X288290000Y-190500000D03*
D12*
%TO.P,U27,2*%
X288290000Y-193040000D03*
%TO.P,U27,3*%
%TO.N,Net-(U27-Pad13)*%
X288290000Y-195580000D03*
%TO.P,U27,4*%
%TO.N,/IORQ*%
X288290000Y-198120000D03*
%TO.P,U27,5*%
X288290000Y-200660000D03*
%TO.P,U27,6*%
%TO.N,Net-(U27-Pad10)*%
X288290000Y-203200000D03*
%TO.P,U27,7,GND*%
%TO.N,GND*%
X288290000Y-205740000D03*
%TO.P,U27,8*%
%TO.N,/IORD*%
X295910000Y-205740000D03*
%TO.P,U27,9*%
%TO.N,Net-(U13-Pad8)*%
X295910000Y-203200000D03*
%TO.P,U27,10*%
%TO.N,Net-(U27-Pad10)*%
X295910000Y-200660000D03*
%TO.P,U27,11*%
%TO.N,/IOWR*%
X295910000Y-198120000D03*
%TO.P,U27,12*%
%TO.N,Net-(U27-Pad10)*%
X295910000Y-195580000D03*
%TO.P,U27,13*%
%TO.N,Net-(U27-Pad13)*%
X295910000Y-193040000D03*
%TO.P,U27,14,VCC*%
%TO.N,VCC*%
X295910000Y-190500000D03*
%TD*%
D24*
%TO.P,SPEAKER1,1,Pin_1*%
%TO.N,GND*%
X24130000Y-67310000D03*
D25*
%TO.P,SPEAKER1,2,Pin_2*%
%TO.N,Net-(C43-Pad2)*%
X21590000Y-67310000D03*
%TD*%
D23*
%TO.P,C42,1*%
%TO.N,VCC*%
X27940000Y-108899888D03*
D11*
%TO.P,C42,2*%
%TO.N,GND*%
X27940000Y-110899888D03*
%TD*%
%TO.P,R33,1*%
%TO.N,GND*%
X186690000Y-41910000D03*
D12*
%TO.P,R33,2*%
%TO.N,Net-(C49-Pad1)*%
X194310000Y-41910000D03*
%TD*%
D11*
%TO.P,R10,1*%
%TO.N,Net-(R10-Pad1)*%
X368012500Y-171550000D03*
D12*
%TO.P,R10,2*%
%TO.N,Net-(C8-Pad1)*%
X375632500Y-171550000D03*
%TD*%
D11*
%TO.P,R37,1*%
%TO.N,GND*%
X267335000Y-68580000D03*
D12*
%TO.P,R37,2*%
%TO.N,Net-(R35-Pad1)*%
X259715000Y-68580000D03*
%TD*%
D11*
%TO.P,R12,1*%
%TO.N,GND*%
X31115000Y-104775000D03*
D12*
%TO.P,R12,2*%
%TO.N,Net-(R12-Pad2)*%
X41275000Y-104775000D03*
%TD*%
D20*
%TO.P,U12,1*%
%TO.N,Net-(U12-Pad1)*%
X302270000Y-66035000D03*
D21*
%TO.P,U12,2*%
X302270000Y-68575000D03*
%TO.P,U12,3*%
%TO.N,/{slash}RESET*%
X302270000Y-71115000D03*
%TO.P,U12,4*%
X302270000Y-73655000D03*
%TO.P,U12,5*%
X302270000Y-76195000D03*
%TO.P,U12,6*%
%TO.N,/RESET_IO*%
X302270000Y-78735000D03*
%TO.P,U12,7,GND*%
%TO.N,GND*%
X302270000Y-81275000D03*
%TO.P,U12,8*%
%TO.N,N/C*%
X309890000Y-81275000D03*
%TO.P,U12,9*%
X309890000Y-78735000D03*
%TO.P,U12,10*%
X309890000Y-76195000D03*
%TO.P,U12,11*%
X309890000Y-73655000D03*
%TO.P,U12,12*%
X309890000Y-71115000D03*
%TO.P,U12,13*%
X309890000Y-68575000D03*
%TO.P,U12,14,VCC*%
%TO.N,VCC*%
X309890000Y-66035000D03*
%TD*%
D20*
%TO.P,U22,1,GAIN*%
%TO.N,unconnected-(U22-Pad1)*%
X17780000Y-91440000D03*
D21*
%TO.P,U22,2,-*%
%TO.N,GND*%
X17780000Y-93980000D03*
%TO.P,U22,3,+*%
%TO.N,Net-(C31-Pad1)*%
X17780000Y-96520000D03*
%TO.P,U22,4,GND*%
%TO.N,GND*%
X17780000Y-99060000D03*
%TO.P,U22,5*%
%TO.N,Net-(C33-Pad1)*%
X25400000Y-99060000D03*
%TO.P,U22,6,V+*%
%TO.N,VCC*%
X25400000Y-96520000D03*
%TO.P,U22,7,BYPASS*%
%TO.N,unconnected-(U22-Pad7)*%
X25400000Y-93980000D03*
%TO.P,U22,8,GAIN*%
%TO.N,unconnected-(U22-Pad8)*%
X25400000Y-91440000D03*
%TD*%
D11*
%TO.P,C26,1*%
%TO.N,GND*%
X118190000Y-184170000D03*
%TO.P,C26,2*%
%TO.N,VCC*%
X123190000Y-184170000D03*
%TD*%
D23*
%TO.P,C54,1*%
%TO.N,VCC*%
X383007349Y-75565000D03*
D11*
%TO.P,C54,2*%
%TO.N,GND*%
X386807349Y-75565000D03*
%TD*%
%TO.P,R11,1*%
%TO.N,VCC*%
X391160000Y-99060000D03*
D12*
%TO.P,R11,2*%
%TO.N,Net-(D6-Pad2)*%
X398780000Y-99060000D03*
%TD*%
D11*
%TO.P,C35,1*%
%TO.N,VCC*%
X317540000Y-79355564D03*
%TO.P,C35,2*%
%TO.N,GND*%
X322540000Y-79355564D03*
%TD*%
%TO.P,C51,1*%
%TO.N,GND*%
X236855000Y-69850000D03*
%TO.P,C51,2*%
%TO.N,Net-(C51-Pad2)*%
X241855000Y-69850000D03*
%TD*%
%TO.P,R7,1*%
%TO.N,Net-(R7-Pad1)*%
X99060000Y-63589062D03*
D12*
%TO.P,R7,2*%
%TO.N,GND*%
X99060000Y-71209062D03*
%TD*%
D11*
%TO.P,R43,1*%
%TO.N,Net-(D11-Pad1)*%
X398780000Y-104775000D03*
D12*
%TO.P,R43,2*%
%TO.N,Net-(J10-Pad39)*%
X388620000Y-104775000D03*
%TD*%
D24*
%TO.P,J4,1,Pin_1*%
%TO.N,VCC*%
X372110000Y-130810000D03*
D25*
%TO.P,J4,2,Pin_2*%
%TO.N,GND*%
X372110000Y-133350000D03*
%TO.P,J4,3,Pin_3*%
%TO.N,/DTR*%
X372110000Y-135890000D03*
%TO.P,J4,4,Pin_4*%
%TO.N,/TX*%
X372110000Y-138430000D03*
%TO.P,J4,5,Pin_5*%
%TO.N,/DSR*%
X372110000Y-140970000D03*
%TO.P,J4,6,Pin_6*%
%TO.N,/RX*%
X372110000Y-143510000D03*
%TD*%
D11*
%TO.P,R2,1*%
%TO.N,VCC*%
X320040000Y-139065000D03*
D12*
%TO.P,R2,2*%
%TO.N,/WAIT*%
X320040000Y-146685000D03*
%TD*%
D11*
%TO.P,R30,1*%
%TO.N,Net-(C48-Pad1)*%
X222250000Y-69850000D03*
D12*
%TO.P,R30,2*%
%TO.N,Net-(R30-Pad2)*%
X214630000Y-69850000D03*
%TD*%
D27*
%TO.P,U10,1,OE*%
%TO.N,Net-(U10-Pad1)*%
X135895000Y-149945000D03*
D28*
%TO.P,U10,2,D0*%
%TO.N,/VIDEO/AD0*%
X138435000Y-149945000D03*
%TO.P,U10,3,D1*%
%TO.N,/VIDEO/AD1*%
X140975000Y-149945000D03*
%TO.P,U10,4,D2*%
%TO.N,/VIDEO/AD2*%
X143515000Y-149945000D03*
%TO.P,U10,5,D3*%
%TO.N,/VIDEO/AD3*%
X146055000Y-149945000D03*
%TO.P,U10,6,D4*%
%TO.N,/VIDEO/AD4*%
X148595000Y-149945000D03*
%TO.P,U10,7,D5*%
%TO.N,/VIDEO/AD5*%
X151135000Y-149945000D03*
%TO.P,U10,8,D6*%
%TO.N,/VIDEO/AD6*%
X153675000Y-149945000D03*
%TO.P,U10,9,D7*%
%TO.N,/VIDEO/AD7*%
X156215000Y-149945000D03*
%TO.P,U10,10,GND*%
%TO.N,GND*%
X158755000Y-149945000D03*
%TO.P,U10,11,Cp*%
%TO.N,Net-(U10-Pad11)*%
X158755000Y-142325000D03*
%TO.P,U10,12,Q7*%
%TO.N,/VIDEO/VD7*%
X156215000Y-142325000D03*
%TO.P,U10,13,Q6*%
%TO.N,/VIDEO/VD6*%
X153675000Y-142325000D03*
%TO.P,U10,14,Q5*%
%TO.N,/VIDEO/VD5*%
X151135000Y-142325000D03*
%TO.P,U10,15,Q4*%
%TO.N,/VIDEO/VD4*%
X148595000Y-142325000D03*
%TO.P,U10,16,Q3*%
%TO.N,/VIDEO/VD3*%
X146055000Y-142325000D03*
%TO.P,U10,17,Q2*%
%TO.N,/VIDEO/VD2*%
X143515000Y-142325000D03*
%TO.P,U10,18,Q1*%
%TO.N,/VIDEO/VD1*%
X140975000Y-142325000D03*
%TO.P,U10,19,Q0*%
%TO.N,/VIDEO/VD0*%
X138435000Y-142325000D03*
%TO.P,U10,20,VCC*%
%TO.N,VCC*%
X135895000Y-142325000D03*
%TD*%
D10*
%TO.P,,4*%
%TO.N,GND*%
X193675000Y-52070000D03*
%TD*%
D11*
%TO.P,C17,1*%
%TO.N,GND*%
X125055000Y-110485000D03*
%TO.P,C17,2*%
%TO.N,Net-(C17-Pad2)*%
X120055000Y-110485000D03*
%TD*%
D24*
%TO.P,JP1,1,A*%
%TO.N,Net-(J1-Pad1)*%
X389890000Y-187960000D03*
D25*
%TO.P,JP1,2,B*%
%TO.N,Net-(C41-Pad1)*%
X387350000Y-187960000D03*
%TD*%
D20*
%TO.P,U18,1*%
%TO.N,/IO/Casette Interface/PC7*%
X203200000Y-64770000D03*
D21*
%TO.P,U18,2*%
%TO.N,Net-(R25-Pad2)*%
X203200000Y-67310000D03*
%TO.P,U18,3*%
%TO.N,/IO/Casette Interface/PC6*%
X203200000Y-69850000D03*
%TO.P,U18,4*%
%TO.N,Net-(R26-Pad2)*%
X203200000Y-72390000D03*
%TO.P,U18,5*%
%TO.N,/IO/Casette Interface/PC5*%
X203200000Y-74930000D03*
%TO.P,U18,6*%
%TO.N,Net-(R27-Pad2)*%
X203200000Y-77470000D03*
%TO.P,U18,7,GND*%
%TO.N,GND*%
X203200000Y-80010000D03*
%TO.P,U18,8*%
%TO.N,Net-(R28-Pad2)*%
X210820000Y-80010000D03*
%TO.P,U18,9*%
%TO.N,/IO/Casette Interface/PC4*%
X210820000Y-77470000D03*
%TO.P,U18,10*%
%TO.N,Net-(R29-Pad2)*%
X210820000Y-74930000D03*
%TO.P,U18,11*%
%TO.N,/IO/Casette Interface/PC3*%
X210820000Y-72390000D03*
%TO.P,U18,12*%
%TO.N,Net-(R30-Pad2)*%
X210820000Y-69850000D03*
%TO.P,U18,13*%
%TO.N,/IO/Casette Interface/PC2*%
X210820000Y-67310000D03*
%TO.P,U18,14,VCC*%
%TO.N,VCC*%
X210820000Y-64770000D03*
%TD*%
D29*
%TO.P,Q3,1,C*%
%TO.N,Net-(Q3-Pad1)*%
X330200000Y-65385564D03*
D30*
%TO.P,Q3,2,B*%
%TO.N,Net-(Q3-Pad2)*%
X330200000Y-66655564D03*
%TO.P,Q3,3,E*%
%TO.N,GND*%
X330200000Y-67925564D03*
%TD*%
D20*
%TO.P,U17,1*%
%TO.N,/VIDEO/{slash}RAS*%
X149865000Y-187960000D03*
D21*
%TO.P,U17,2*%
%TO.N,Net-(U17-Pad2)*%
X149865000Y-190500000D03*
%TO.P,U17,3*%
%TO.N,Net-(U17-Pad3)*%
X149865000Y-193040000D03*
%TO.P,U17,4*%
%TO.N,Net-(U17-Pad4)*%
X149865000Y-195580000D03*
%TO.P,U17,5*%
X149865000Y-198120000D03*
%TO.P,U17,6*%
%TO.N,Net-(U17-Pad6)*%
X149865000Y-200660000D03*
%TO.P,U17,7,GND*%
%TO.N,GND*%
X149865000Y-203200000D03*
%TO.P,U17,8*%
%TO.N,Net-(U17-Pad3)*%
X157485000Y-203200000D03*
%TO.P,U17,9*%
%TO.N,/VIDEO/{slash}CAS*%
X157485000Y-200660000D03*
%TO.P,U17,10*%
%TO.N,Net-(U10-Pad11)*%
X157485000Y-198120000D03*
%TO.P,U17,11*%
%TO.N,Net-(U10-Pad1)*%
X157485000Y-195580000D03*
%TO.P,U17,12*%
%TO.N,N/C*%
X157485000Y-193040000D03*
%TO.P,U17,13*%
X157485000Y-190500000D03*
%TO.P,U17,14,VCC*%
%TO.N,VCC*%
X157485000Y-187960000D03*
%TD*%
D23*
%TO.P,U5,1,D0*%
%TO.N,/BUS Expansion/D0*%
X345440000Y-116840000D03*
D12*
%TO.P,U5,2,D1*%
%TO.N,/BUS Expansion/D1*%
X345440000Y-119380000D03*
%TO.P,U5,3,D2*%
%TO.N,/BUS Expansion/D2*%
X345440000Y-121920000D03*
%TO.P,U5,4,D3*%
%TO.N,/BUS Expansion/D3*%
X345440000Y-124460000D03*
%TO.P,U5,5,D4*%
%TO.N,/BUS Expansion/D4*%
X345440000Y-127000000D03*
%TO.P,U5,6,D5*%
%TO.N,/BUS Expansion/D5*%
X345440000Y-129540000D03*
%TO.P,U5,7,D6*%
%TO.N,/BUS Expansion/D6*%
X345440000Y-132080000D03*
%TO.P,U5,8,D7*%
%TO.N,/BUS Expansion/D7*%
X345440000Y-134620000D03*
%TO.P,U5,9,RCLK*%
%TO.N,Net-(U5-Pad15)*%
X345440000Y-137160000D03*
%TO.P,U5,10,SIN*%
%TO.N,/RX*%
X345440000Y-139700000D03*
%TO.P,U5,11,SOUT*%
%TO.N,/TX*%
X345440000Y-142240000D03*
%TO.P,U5,12,CS0*%
%TO.N,VCC*%
X345440000Y-144780000D03*
%TO.P,U5,13,CS1*%
X345440000Y-147320000D03*
%TO.P,U5,14,~{CS2}*%
%TO.N,/UART_CE*%
X345440000Y-149860000D03*
%TO.P,U5,15,~{BAUDOUT}*%
%TO.N,Net-(U5-Pad15)*%
X345440000Y-152400000D03*
%TO.P,U5,16,XIN*%
%TO.N,/XTAL*%
X345440000Y-154940000D03*
%TO.P,U5,17,XOUT*%
%TO.N,unconnected-(U5-Pad17)*%
X345440000Y-157480000D03*
%TO.P,U5,18,~{WR}*%
%TO.N,/WR*%
X345440000Y-160020000D03*
%TO.P,U5,19,WR*%
%TO.N,GND*%
X345440000Y-162560000D03*
%TO.P,U5,20,GND*%
X345440000Y-165100000D03*
%TO.P,U5,21,~{RD}*%
%TO.N,/RD*%
X360680000Y-165100000D03*
%TO.P,U5,22,RD*%
%TO.N,GND*%
X360680000Y-162560000D03*
%TO.P,U5,23,DDIS*%
%TO.N,unconnected-(U5-Pad23)*%
X360680000Y-160020000D03*
%TO.P,U5,24,~{TXRDY}*%
%TO.N,unconnected-(U5-Pad24)*%
X360680000Y-157480000D03*
%TO.P,U5,25,~{ADS}*%
%TO.N,GND*%
X360680000Y-154940000D03*
%TO.P,U5,26,A2*%
%TO.N,/IO/A2*%
X360680000Y-152400000D03*
%TO.P,U5,27,A1*%
%TO.N,/IO/A1*%
X360680000Y-149860000D03*
%TO.P,U5,28,A0*%
%TO.N,/IO/A0*%
X360680000Y-147320000D03*
%TO.P,U5,29,~{RXRDY}*%
%TO.N,unconnected-(U5-Pad29)*%
X360680000Y-144780000D03*
%TO.P,U5,30,INTR*%
%TO.N,Net-(U13-Pad12)*%
X360680000Y-142240000D03*
%TO.P,U5,31,~{OUT2}*%
%TO.N,unconnected-(U5-Pad31)*%
X360680000Y-139700000D03*
%TO.P,U5,32,~{RTS}*%
%TO.N,Net-(U5-Pad32)*%
X360680000Y-137160000D03*
%TO.P,U5,33,~{DTR}*%
%TO.N,/DTR*%
X360680000Y-134620000D03*
%TO.P,U5,34,~{OUT1}*%
%TO.N,unconnected-(U5-Pad34)*%
X360680000Y-132080000D03*
%TO.P,U5,35,MR*%
%TO.N,/RESET_IO*%
X360680000Y-129540000D03*
%TO.P,U5,36,~{CTS}*%
%TO.N,Net-(U5-Pad36)*%
X360680000Y-127000000D03*
%TO.P,U5,37,~{DSR}*%
%TO.N,/DSR*%
X360680000Y-124460000D03*
%TO.P,U5,38,~{DCD}*%
X360680000Y-121920000D03*
%TO.P,U5,39,~{RI}*%
%TO.N,VCC*%
X360680000Y-119380000D03*
%TO.P,U5,40,VCC*%
X360680000Y-116840000D03*
%TD*%
D11*
%TO.P,R13,1*%
%TO.N,Net-(C30-Pad1)*%
X31115000Y-101600000D03*
D12*
%TO.P,R13,2*%
%TO.N,Net-(R12-Pad2)*%
X41275000Y-101600000D03*
%TD*%
D20*
%TO.P,U24,1,D4*%
%TO.N,/BUS Expansion/D4*%
X195630000Y-114345000D03*
D21*
%TO.P,U24,2,D5*%
%TO.N,/BUS Expansion/D5*%
X195630000Y-116885000D03*
%TO.P,U24,3,D6*%
%TO.N,/BUS Expansion/D6*%
X195630000Y-119425000D03*
%TO.P,U24,4,D7*%
%TO.N,/BUS Expansion/D7*%
X195630000Y-121965000D03*
%TO.P,U24,5,GND*%
%TO.N,GND*%
X195630000Y-124505000D03*
%TO.P,U24,6,~{RD}*%
%TO.N,/RD*%
X195630000Y-127045000D03*
%TO.P,U24,7,ZC/TO0*%
%TO.N,Net-(J8-Pad6)*%
X195630000Y-129585000D03*
%TO.P,U24,8,ZC/TO1*%
%TO.N,Net-(J8-Pad4)*%
X195630000Y-132125000D03*
%TO.P,U24,9,ZC/TO2*%
%TO.N,Net-(J8-Pad2)*%
X195630000Y-134665000D03*
%TO.P,U24,10,~{IORQ}*%
%TO.N,/IORQ*%
X195630000Y-137205000D03*
%TO.P,U24,11,IEO*%
%TO.N,unconnected-(U24-Pad11)*%
X195630000Y-139745000D03*
%TO.P,U24,12,~{INT}*%
%TO.N,/CTC_INT*%
X195630000Y-142285000D03*
%TO.P,U24,13,IEI*%
%TO.N,Net-(R42-Pad1)*%
X195630000Y-144825000D03*
%TO.P,U24,14,~{M1}*%
%TO.N,/M1*%
X195630000Y-147365000D03*
%TO.P,U24,15,CLK*%
%TO.N,/XTAL*%
X210870000Y-147365000D03*
%TO.P,U24,16,~{CE}*%
%TO.N,/CTC_CE*%
X210870000Y-144825000D03*
%TO.P,U24,17,~{RES}*%
%TO.N,/{slash}RESET*%
X210870000Y-142285000D03*
%TO.P,U24,18,CS0*%
%TO.N,/IO/A0*%
X210870000Y-139745000D03*
%TO.P,U24,19,CS1*%
%TO.N,/IO/A1*%
X210870000Y-137205000D03*
%TO.P,U24,20,CK/TRG3*%
%TO.N,Net-(J8-Pad1)*%
X210870000Y-134665000D03*
%TO.P,U24,21,CK/TRG2*%
%TO.N,Net-(J8-Pad3)*%
X210870000Y-132125000D03*
%TO.P,U24,22,CK/TRG1*%
%TO.N,Net-(J8-Pad5)*%
X210870000Y-129585000D03*
%TO.P,U24,23,CK/TRG0*%
%TO.N,Net-(J8-Pad7)*%
X210870000Y-127045000D03*
%TO.P,U24,24,VDD*%
%TO.N,VCC*%
X210870000Y-124505000D03*
%TO.P,U24,25,D0*%
%TO.N,/BUS Expansion/D0*%
X210870000Y-121965000D03*
%TO.P,U24,26,D1*%
%TO.N,/BUS Expansion/D1*%
X210870000Y-119425000D03*
%TO.P,U24,27,D2*%
%TO.N,/BUS Expansion/D2*%
X210870000Y-116885000D03*
%TO.P,U24,28,D3*%
%TO.N,/BUS Expansion/D3*%
X210870000Y-114345000D03*
%TD*%
D23*
%TO.P,C41,1*%
%TO.N,Net-(C41-Pad1)*%
X387350000Y-180340000D03*
D11*
%TO.P,C41,2*%
%TO.N,GND*%
X389850000Y-180340000D03*
%TD*%
%TO.P,C46,1*%
%TO.N,VCC*%
X309880000Y-60960000D03*
%TO.P,C46,2*%
%TO.N,GND*%
X304880000Y-60960000D03*
%TD*%
D20*
%TO.P,U7,1,~{RAS}*%
%TO.N,/VIDEO/{slash}RAS*%
X95250000Y-110490000D03*
D21*
%TO.P,U7,2,~{CAS}*%
%TO.N,/VIDEO/{slash}CAS*%
X95250000Y-113030000D03*
%TO.P,U7,3,AD7*%
%TO.N,/VIDEO/AD7*%
X95250000Y-115570000D03*
%TO.P,U7,4,AD6*%
%TO.N,/VIDEO/AD6*%
X95250000Y-118110000D03*
%TO.P,U7,5,AD5*%
%TO.N,/VIDEO/AD5*%
X95250000Y-120650000D03*
%TO.P,U7,6,AD4*%
%TO.N,/VIDEO/AD4*%
X95250000Y-123190000D03*
%TO.P,U7,7,AD3*%
%TO.N,/VIDEO/AD3*%
X95250000Y-125730000D03*
%TO.P,U7,8,AD2*%
%TO.N,/VIDEO/AD2*%
X95250000Y-128270000D03*
%TO.P,U7,9,AD1*%
%TO.N,/VIDEO/AD1*%
X95250000Y-130810000D03*
%TO.P,U7,10,AD0*%
%TO.N,/VIDEO/AD0*%
X95250000Y-133350000D03*
%TO.P,U7,11,R/~{W}*%
%TO.N,Net-(U10-Pad1)*%
X95250000Y-135890000D03*
%TO.P,U7,12,VSS*%
%TO.N,GND*%
X95250000Y-138430000D03*
%TO.P,U7,13,MODE*%
%TO.N,/IO/A0*%
X95250000Y-140970000D03*
%TO.P,U7,14,~{CSW}*%
%TO.N,/VIDEO/{slash}CSW*%
X95250000Y-143510000D03*
%TO.P,U7,15,~{CSR}*%
%TO.N,/VIDEO/{slash}CSR*%
X95250000Y-146050000D03*
%TO.P,U7,16,~{INT}*%
%TO.N,/VDP_INT*%
X95250000Y-148590000D03*
%TO.P,U7,17,CD7*%
%TO.N,/BUS Expansion/D7*%
X95250000Y-151130000D03*
%TO.P,U7,18,CD6*%
%TO.N,/BUS Expansion/D6*%
X95250000Y-153670000D03*
%TO.P,U7,19,CD5*%
%TO.N,/BUS Expansion/D5*%
X95250000Y-156210000D03*
%TO.P,U7,20,CD4*%
%TO.N,/BUS Expansion/D4*%
X95250000Y-158750000D03*
%TO.P,U7,21,CD3*%
%TO.N,/BUS Expansion/D3*%
X110490000Y-158750000D03*
%TO.P,U7,22,CD2*%
%TO.N,/BUS Expansion/D2*%
X110490000Y-156210000D03*
%TO.P,U7,23,CD1*%
%TO.N,/BUS Expansion/D1*%
X110490000Y-153670000D03*
%TO.P,U7,24,CD0*%
%TO.N,/BUS Expansion/D0*%
X110490000Y-151130000D03*
%TO.P,U7,25,RD7*%
%TO.N,/VIDEO/VD7*%
X110490000Y-148590000D03*
%TO.P,U7,26,RD6*%
%TO.N,/VIDEO/VD6*%
X110490000Y-146050000D03*
%TO.P,U7,27,RD5*%
%TO.N,/VIDEO/VD5*%
X110490000Y-143510000D03*
%TO.P,U7,28,RD4*%
%TO.N,/VIDEO/VD4*%
X110490000Y-140970000D03*
%TO.P,U7,29,RD3*%
%TO.N,/VIDEO/VD3*%
X110490000Y-138430000D03*
%TO.P,U7,30,RD2*%
%TO.N,/VIDEO/VD2*%
X110490000Y-135890000D03*
%TO.P,U7,31,RD1*%
%TO.N,/VIDEO/VD1*%
X110490000Y-133350000D03*
%TO.P,U7,32,RD0*%
%TO.N,/VIDEO/VD0*%
X110490000Y-130810000D03*
%TO.P,U7,33,VCC*%
%TO.N,VCC*%
X110490000Y-128270000D03*
%TO.P,U7,34,~{RESET}/SYNC*%
%TO.N,/{slash}RESET*%
X110490000Y-125730000D03*
%TO.P,U7,35,EXTVDP*%
%TO.N,unconnected-(U7-Pad35)*%
X110490000Y-123190000D03*
%TO.P,U7,36,COMVID*%
%TO.N,Net-(Q2-Pad2)*%
X110490000Y-120650000D03*
%TO.P,U7,37,GROMCLK*%
%TO.N,unconnected-(U7-Pad37)*%
X110490000Y-118110000D03*
%TO.P,U7,38,CPUCLK*%
%TO.N,unconnected-(U7-Pad38)*%
X110490000Y-115570000D03*
%TO.P,U7,39,XTAL1*%
%TO.N,Net-(C16-Pad2)*%
X110490000Y-113030000D03*
%TO.P,U7,40,XTAL2*%
%TO.N,Net-(C17-Pad2)*%
X110490000Y-110490000D03*
%TD*%
D11*
%TO.P,C24,1*%
%TO.N,GND*%
X179150000Y-110485000D03*
%TO.P,C24,2*%
%TO.N,VCC*%
X184150000Y-110485000D03*
%TD*%
D18*
%TO.P,D11,1,K*%
%TO.N,Net-(D11-Pad1)*%
X402590000Y-104775000D03*
D19*
%TO.P,D11,2,A*%
%TO.N,VCC*%
X405130000Y-104775000D03*
%TD*%
D31*
%TO.P,J1,1,VBUS*%
%TO.N,Net-(J1-Pad1)*%
X397545000Y-129240000D03*
%TO.P,J1,2,D-*%
%TO.N,Net-(C12-Pad2)*%
X397545000Y-128440000D03*
%TO.P,J1,3,D+*%
%TO.N,Net-(C11-Pad2)*%
X397545000Y-127640000D03*
%TO.P,J1,4,ID*%
%TO.N,unconnected-(J1-Pad4)*%
X397545000Y-126840000D03*
%TO.P,J1,5,GND*%
%TO.N,GND*%
X397545000Y-126040000D03*
D32*
%TO.P,J1,6,Shield*%
%TO.N,Net-(C13-Pad1)*%
X403095000Y-132090000D03*
X397645000Y-123190000D03*
X397645000Y-132090000D03*
X403095000Y-123190000D03*
%TD*%
D11*
%TO.P,C20,1*%
%TO.N,VCC*%
X114340000Y-128265000D03*
%TO.P,C20,2*%
%TO.N,GND*%
X119340000Y-128265000D03*
%TD*%
%TO.P,R40,1*%
%TO.N,Net-(D10-Pad2)*%
X236855000Y-80645000D03*
D12*
%TO.P,R40,2*%
%TO.N,Net-(C51-Pad2)*%
X236855000Y-73025000D03*
%TD*%
D29*
%TO.P,Q4,1,C*%
%TO.N,Net-(D7-Pad1)*%
X293370000Y-86995000D03*
D30*
%TO.P,Q4,2,B*%
%TO.N,Net-(Q4-Pad2)*%
X293370000Y-88265000D03*
%TO.P,Q4,3,E*%
%TO.N,GND*%
X293370000Y-89535000D03*
%TD*%
D11*
%TO.P,C5,1*%
%TO.N,GND*%
X123190000Y-72350000D03*
%TO.P,C5,2*%
%TO.N,VCC*%
X128190000Y-72350000D03*
%TD*%
D33*
%TO.P,J6,1*%
%TO.N,/IO/Casette Interface/M1*%
X202050000Y-44910000D03*
%TO.P,J6,2*%
%TO.N,GND*%
X209550000Y-44910000D03*
%TO.P,J6,3*%
%TO.N,/IO/Casette Interface/M2*%
X217050000Y-44910000D03*
%TO.P,J6,4*%
%TO.N,Net-(C51-Pad2)*%
X204550000Y-47410000D03*
%TO.P,J6,5*%
%TO.N,Net-(C49-Pad1)*%
X214550000Y-47410000D03*
%TO.P,J6,6*%
%TO.N,N/C*%
X214550000Y-34910000D03*
X204550000Y-34910000D03*
%TD*%
D11*
%TO.P,R42,1*%
%TO.N,Net-(R42-Pad1)*%
X196850000Y-154300000D03*
D12*
%TO.P,R42,2*%
%TO.N,VCC*%
X207010000Y-154300000D03*
%TD*%
D11*
%TO.P,C2,1*%
%TO.N,GND*%
X243920000Y-113025000D03*
%TO.P,C2,2*%
%TO.N,VCC*%
X248920000Y-113025000D03*
%TD*%
%TO.P,C1,1*%
%TO.N,VCC*%
X288290000Y-132635000D03*
%TO.P,C1,2*%
%TO.N,GND*%
X288290000Y-127635000D03*
%TD*%
%TO.P,C39,1*%
%TO.N,VCC*%
X207010000Y-110485000D03*
%TO.P,C39,2*%
%TO.N,GND*%
X202010000Y-110485000D03*
%TD*%
D34*
%TO.P,JP5,1*%
%TO.N,Net-(D3-Pad1)*%
X392430000Y-55210000D03*
D35*
%TO.P,JP5,2*%
%TO.N,GND*%
X398230000Y-55210000D03*
D36*
%TO.P,JP5,3*%
X395430000Y-50410000D03*
%TD*%
D11*
%TO.P,C52,1*%
%TO.N,GND*%
X290870000Y-186690000D03*
%TO.P,C52,2*%
%TO.N,VCC*%
X295870000Y-186690000D03*
%TD*%
%TO.P,C47,1*%
%TO.N,/IO/Casette Interface/M2*%
X268357500Y-48265000D03*
%TO.P,C47,2*%
%TO.N,/IO/Casette Interface/M1*%
X268357500Y-43265000D03*
%TD*%
%TO.P,R39,1*%
%TO.N,Net-(R38-Pad1)*%
X240665000Y-73025000D03*
D12*
%TO.P,R39,2*%
%TO.N,Net-(D10-Pad2)*%
X240665000Y-80645000D03*
%TD*%
D11*
%TO.P,C48,1*%
%TO.N,Net-(C48-Pad1)*%
X191770000Y-45720000D03*
%TO.P,C48,2*%
%TO.N,GND*%
X186770000Y-45720000D03*
%TD*%
%TO.P,C22,1*%
%TO.N,GND*%
X132080000Y-147275000D03*
%TO.P,C22,2*%
%TO.N,VCC*%
X132080000Y-142275000D03*
%TD*%
D23*
%TO.P,C36,1*%
%TO.N,Net-(C36-Pad1)*%
X318770000Y-60960000D03*
D11*
%TO.P,C36,2*%
%TO.N,GND*%
X316270000Y-60960000D03*
%TD*%
%TO.P,C21,1*%
%TO.N,VCC*%
X132080000Y-111755000D03*
%TO.P,C21,2*%
%TO.N,GND*%
X132080000Y-116755000D03*
%TD*%
D20*
%TO.P,U21,1,VSS*%
%TO.N,GND*%
X39390000Y-118035000D03*
D21*
%TO.P,U21,2*%
%TO.N,N/C*%
X39390000Y-120575000D03*
%TO.P,U21,3,ACH_B*%
%TO.N,Net-(R12-Pad2)*%
X39390000Y-123115000D03*
%TO.P,U21,4,ACH_A*%
X39390000Y-125655000D03*
%TO.P,U21,5*%
%TO.N,N/C*%
X39390000Y-128195000D03*
%TO.P,U21,6,IOB7*%
%TO.N,/SOUND/ROW7*%
X39390000Y-130735000D03*
%TO.P,U21,7,IOB6*%
%TO.N,/SOUND/ROW6*%
X39390000Y-133275000D03*
%TO.P,U21,8,IOB5*%
%TO.N,/SOUND/ROW5*%
X39390000Y-135815000D03*
%TO.P,U21,9,IOB4*%
%TO.N,/SOUND/ROW4*%
X39390000Y-138355000D03*
%TO.P,U21,10,IOB3*%
%TO.N,/SOUND/ROW3*%
X39390000Y-140895000D03*
%TO.P,U21,11,IOB2*%
%TO.N,/SOUND/ROW2*%
X39390000Y-143435000D03*
%TO.P,U21,12,IOB1*%
%TO.N,/SOUND/ROW1*%
X39390000Y-145975000D03*
%TO.P,U21,13,IOB0*%
%TO.N,/SOUND/ROW0*%
X39390000Y-148515000D03*
%TO.P,U21,14,IOA7*%
%TO.N,/SOUND/COL7*%
X39390000Y-151055000D03*
%TO.P,U21,15,IOA6*%
%TO.N,/SOUND/COL6*%
X39390000Y-153595000D03*
%TO.P,U21,16,IOA5*%
%TO.N,/SOUND/COL5*%
X39390000Y-156135000D03*
%TO.P,U21,17,IOA4*%
%TO.N,/SOUND/COL4*%
X39390000Y-158675000D03*
%TO.P,U21,18,IOA3*%
%TO.N,/SOUND/COL3*%
X39390000Y-161215000D03*
%TO.P,U21,19,IOA2*%
%TO.N,/SOUND/COL2*%
X39390000Y-163755000D03*
%TO.P,U21,20,IOA1*%
%TO.N,/SOUND/COL1*%
X39390000Y-166295000D03*
%TO.P,U21,21,IOA0*%
%TO.N,/SOUND/COL0*%
X54630000Y-166295000D03*
%TO.P,U21,22,CLK*%
%TO.N,/XTAL*%
X54630000Y-163755000D03*
%TO.P,U21,23,/RESET*%
%TO.N,/{slash}RESET*%
X54630000Y-161215000D03*
%TO.P,U21,24,A9*%
%TO.N,GND*%
X54630000Y-158675000D03*
%TO.P,U21,25,A8*%
%TO.N,VCC*%
X54630000Y-156135000D03*
%TO.P,U21,26,TEST_2*%
%TO.N,unconnected-(U21-Pad26)*%
X54630000Y-153595000D03*
%TO.P,U21,27,BDIR*%
%TO.N,Net-(U20-Pad4)*%
X54630000Y-151055000D03*
%TO.P,U21,28,BC2*%
%TO.N,VCC*%
X54630000Y-148515000D03*
%TO.P,U21,29,BC1*%
%TO.N,Net-(U20-Pad1)*%
X54630000Y-145975000D03*
%TO.P,U21,30,DA7*%
%TO.N,/BUS Expansion/D7*%
X54630000Y-143435000D03*
%TO.P,U21,31,DA6*%
%TO.N,/BUS Expansion/D6*%
X54630000Y-140895000D03*
%TO.P,U21,32,DA5*%
%TO.N,/BUS Expansion/D5*%
X54630000Y-138355000D03*
%TO.P,U21,33,DA4*%
%TO.N,/BUS Expansion/D4*%
X54630000Y-135815000D03*
%TO.P,U21,34,DA3*%
%TO.N,/BUS Expansion/D3*%
X54630000Y-133275000D03*
%TO.P,U21,35,DA2*%
%TO.N,/BUS Expansion/D2*%
X54630000Y-130735000D03*
%TO.P,U21,36,DA1*%
%TO.N,/BUS Expansion/D1*%
X54630000Y-128195000D03*
%TO.P,U21,37,DA0*%
%TO.N,/BUS Expansion/D0*%
X54630000Y-125655000D03*
%TO.P,U21,38,ACH_C*%
%TO.N,Net-(R12-Pad2)*%
X54630000Y-123115000D03*
%TO.P,U21,39,TEST_1*%
%TO.N,unconnected-(U21-Pad39)*%
X54630000Y-120575000D03*
%TO.P,U21,40,VCC*%
%TO.N,VCC*%
X54630000Y-118035000D03*
%TD*%
D11*
%TO.P,R25,1*%
%TO.N,Net-(C48-Pad1)*%
X191770000Y-67310000D03*
D12*
%TO.P,R25,2*%
%TO.N,Net-(R25-Pad2)*%
X199390000Y-67310000D03*
%TD*%
D23*
%TO.P,C53,1*%
%TO.N,Net-(C44-Pad1)*%
X372847349Y-75565000D03*
D11*
%TO.P,C53,2*%
%TO.N,GND*%
X376647349Y-75565000D03*
%TD*%
%TO.P,R18,1*%
%TO.N,Net-(Q2-Pad1)*%
X169545000Y-73105000D03*
D12*
%TO.P,R18,2*%
%TO.N,GND*%
X159385000Y-73105000D03*
%TD*%
D11*
%TO.P,C45,1*%
%TO.N,VCC*%
X372765000Y-86360000D03*
%TO.P,C45,2*%
%TO.N,GND*%
X375265000Y-86360000D03*
%TD*%
D37*
%TO.P,U6,1,TXD*%
%TO.N,/RX*%
X368222500Y-157165000D03*
%TO.P,U6,2,DTR*%
%TO.N,/DSR*%
X368222500Y-157815000D03*
%TO.P,U6,3,RTS*%
%TO.N,Net-(U5-Pad36)*%
X368222500Y-158465000D03*
%TO.P,U6,4,VCCIO*%
%TO.N,Net-(FB1-Pad2)*%
X368222500Y-159115000D03*
%TO.P,U6,5,RXD*%
%TO.N,/TX*%
X368222500Y-159765000D03*
%TO.P,U6,6,RI*%
%TO.N,unconnected-(U6-Pad6)*%
X368222500Y-160415000D03*
%TO.P,U6,7,GND*%
%TO.N,GND*%
X368222500Y-161065000D03*
%TO.P,U6,8*%
%TO.N,N/C*%
X368222500Y-161715000D03*
%TO.P,U6,9,DCR*%
%TO.N,/DTR*%
X368222500Y-162365000D03*
%TO.P,U6,10,DCD*%
X368222500Y-163015000D03*
%TO.P,U6,11,CTS*%
%TO.N,Net-(U5-Pad32)*%
X368222500Y-163665000D03*
%TO.P,U6,12,CBUS4*%
%TO.N,unconnected-(U6-Pad12)*%
X368222500Y-164315000D03*
%TO.P,U6,13,CBUS2*%
%TO.N,unconnected-(U6-Pad13)*%
X368222500Y-164965000D03*
%TO.P,U6,14,CBUS3*%
%TO.N,Net-(R10-Pad1)*%
X368222500Y-165615000D03*
%TO.P,U6,15,USBD+*%
%TO.N,Net-(C11-Pad2)*%
X375422500Y-165615000D03*
%TO.P,U6,16,USBD-*%
%TO.N,Net-(C12-Pad2)*%
X375422500Y-164965000D03*
%TO.P,U6,17,3V3OUT*%
%TO.N,Net-(C9-Pad1)*%
X375422500Y-164315000D03*
%TO.P,U6,18,GND*%
%TO.N,GND*%
X375422500Y-163665000D03*
%TO.P,U6,19,~{RESET}*%
%TO.N,VCC*%
X375422500Y-163015000D03*
%TO.P,U6,20,VCC*%
%TO.N,Net-(FB1-Pad2)*%
X375422500Y-162365000D03*
%TO.P,U6,21,GND*%
%TO.N,GND*%
X375422500Y-161715000D03*
%TO.P,U6,22,CBUS1*%
%TO.N,unconnected-(U6-Pad22)*%
X375422500Y-161065000D03*
%TO.P,U6,23,CBUS0*%
%TO.N,unconnected-(U6-Pad23)*%
X375422500Y-160415000D03*
%TO.P,U6,24*%
%TO.N,N/C*%
X375422500Y-159765000D03*
%TO.P,U6,25,AGND*%
%TO.N,GND*%
X375422500Y-159115000D03*
%TO.P,U6,26,TEST*%
X375422500Y-158465000D03*
%TO.P,U6,27,OSCI*%
%TO.N,unconnected-(U6-Pad27)*%
X375422500Y-157815000D03*
%TO.P,U6,28,OSCO*%
%TO.N,unconnected-(U6-Pad28)*%
X375422500Y-157165000D03*
%TD*%
D38*
%TO.P,Q1,1,G*%
%TO.N,Net-(C8-Pad1)*%
X373700000Y-180007500D03*
%TO.P,Q1,2,S*%
%TO.N,Net-(FB1-Pad2)*%
X375600000Y-180007500D03*
%TO.P,Q1,3,D*%
%TO.N,Net-(C7-Pad2)*%
X374650000Y-178132500D03*
%TD*%
D11*
%TO.P,C28,1*%
%TO.N,GND*%
X49600000Y-184140000D03*
%TO.P,C28,2*%
%TO.N,VCC*%
X54600000Y-184140000D03*
%TD*%
%TO.P,C12,1*%
%TO.N,GND*%
X392430000Y-130810000D03*
%TO.P,C12,2*%
%TO.N,Net-(C12-Pad2)*%
X389930000Y-130810000D03*
%TD*%
%TO.P,C9,1*%
%TO.N,Net-(C9-Pad1)*%
X381000000Y-163830000D03*
%TO.P,C9,2*%
%TO.N,GND*%
X381000000Y-158830000D03*
%TD*%
%TO.P,R27,1*%
%TO.N,Net-(C48-Pad1)*%
X191770000Y-77470000D03*
D12*
%TO.P,R27,2*%
%TO.N,Net-(R27-Pad2)*%
X199390000Y-77470000D03*
%TD*%
D11*
%TO.P,C15,1*%
%TO.N,VCC*%
X245110000Y-184150000D03*
%TO.P,C15,2*%
%TO.N,GND*%
X240110000Y-184150000D03*
%TD*%
%TO.P,R41,1*%
%TO.N,GND*%
X229235000Y-80645000D03*
D12*
%TO.P,R41,2*%
%TO.N,Net-(C51-Pad2)*%
X229235000Y-73025000D03*
%TD*%
D24*
%TO.P,JP3,1,A*%
%TO.N,Net-(JP3-Pad1)*%
X226700000Y-208915000D03*
D25*
%TO.P,JP3,2,B*%
%TO.N,Net-(JP3-Pad2)*%
X224160000Y-208915000D03*
%TD*%
D11*
%TO.P,R6,1*%
%TO.N,Net-(R6-Pad1)*%
X95250000Y-63589062D03*
D12*
%TO.P,R6,2*%
%TO.N,GND*%
X95250000Y-71209062D03*
%TD*%
D18*
%TO.P,D1,1,K*%
%TO.N,GND*%
X180340000Y-33655000D03*
D19*
%TO.P,D1,2,A*%
%TO.N,Net-(D1-Pad2)*%
X180340000Y-36195000D03*
%TD*%
D11*
%TO.P,C40,1*%
%TO.N,VCC*%
X191175000Y-184150000D03*
%TO.P,C40,2*%
%TO.N,GND*%
X186175000Y-184150000D03*
%TD*%
%TO.P,C11,1*%
%TO.N,GND*%
X392430000Y-125730000D03*
%TO.P,C11,2*%
%TO.N,Net-(C11-Pad2)*%
X389930000Y-125730000D03*
%TD*%
D39*
%TO.P,J2,2,Pin_2*%
%TO.N,/IO/PB1*%
X153035000Y-38735000D03*
%TO.P,J2,4,Pin_4*%
%TO.N,/IO/PB2*%
X149225000Y-38735000D03*
%TO.P,J2,6,Pin_6*%
%TO.N,/IO/PB3*%
X145415000Y-38735000D03*
%TO.P,J2,8,Pin_8*%
%TO.N,/IO/PB5*%
X141605000Y-38735000D03*
%TO.P,J2,10,Pin_10*%
%TO.N,/IO/PB7*%
X137795000Y-38735000D03*
%TO.P,J2,12,Pin_12*%
%TO.N,VCC*%
X133985000Y-38735000D03*
%TD*%
D11*
%TO.P,R34,1*%
%TO.N,/IO/PA6*%
X255905000Y-73025000D03*
D12*
%TO.P,R34,2*%
%TO.N,VCC*%
X255905000Y-80645000D03*
%TD*%
D11*
%TO.P,R1,1*%
%TO.N,VCC*%
X330200000Y-139065000D03*
D12*
%TO.P,R1,2*%
%TO.N,/NMI*%
X330200000Y-146685000D03*
%TD*%
D11*
%TO.P,R22,1*%
%TO.N,VCC*%
X332740000Y-71735564D03*
D12*
%TO.P,R22,2*%
%TO.N,/{slash}RESET*%
X332740000Y-79355564D03*
%TD*%
D23*
%TO.P,U15,1,~{EN}*%
%TO.N,/MREQ*%
X267325000Y-187950000D03*
D12*
%TO.P,U15,2,A*%
%TO.N,GND*%
X267325000Y-190490000D03*
%TO.P,U15,3,B*%
%TO.N,/IO/A15*%
X267325000Y-193030000D03*
%TO.P,U15,4,~{Q0}*%
%TO.N,/ROM_CE*%
X267325000Y-195570000D03*
%TO.P,U15,5,~{Q1}*%
%TO.N,/RAM_CE*%
X267325000Y-198110000D03*
%TO.P,U15,6,~{Q2}*%
%TO.N,unconnected-(U15-Pad6)*%
X267325000Y-200650000D03*
%TO.P,U15,7,~{Q3}*%
%TO.N,unconnected-(U15-Pad7)*%
X267325000Y-203190000D03*
%TO.P,U15,8,GND*%
%TO.N,GND*%
X267325000Y-205730000D03*
%TO.P,U15,9*%
%TO.N,N/C*%
X274945000Y-205730000D03*
%TO.P,U15,10*%
X274945000Y-203190000D03*
%TO.P,U15,11*%
X274945000Y-200650000D03*
%TO.P,U15,12*%
X274945000Y-198110000D03*
%TO.P,U15,13*%
X274945000Y-195570000D03*
%TO.P,U15,14*%
X274945000Y-193030000D03*
%TO.P,U15,15*%
X274945000Y-190490000D03*
%TO.P,U15,16,VCC*%
%TO.N,VCC*%
X274945000Y-187950000D03*
%TD*%
D10*
%TO.P,REF\u002A\u002A,2*%
%TO.N,GND*%
X21590000Y-213995000D03*
%TD*%
D11*
%TO.P,C33,1*%
%TO.N,Net-(C33-Pad1)*%
X29845000Y-82510000D03*
%TO.P,C33,2*%
%TO.N,Net-(C33-Pad2)*%
X29845000Y-77510000D03*
%TD*%
%TO.P,R20,1*%
%TO.N,VCC*%
X337820000Y-71735564D03*
D12*
%TO.P,R20,2*%
%TO.N,Net-(C36-Pad1)*%
X337820000Y-79355564D03*
%TD*%
D11*
%TO.P,R23,1*%
%TO.N,Net-(Q3-Pad1)*%
X391795000Y-84455000D03*
D12*
%TO.P,R23,2*%
%TO.N,Net-(D4-Pad1)*%
X399415000Y-84455000D03*
%TD*%
D23*
%TO.P,D7,1,A*%
%TO.N,Net-(D7-Pad1)*%
X298450000Y-50800000D03*
D12*
%TO.P,D7,2,K*%
%TO.N,VCC*%
X298450000Y-43180000D03*
%TD*%
D20*
%TO.P,U1,1,A11*%
%TO.N,/IO/A11*%
X295910000Y-107315000D03*
D21*
%TO.P,U1,2,A12*%
%TO.N,/IO/A12*%
X295910000Y-109855000D03*
%TO.P,U1,3,A13*%
%TO.N,/IO/A13*%
X295910000Y-112395000D03*
%TO.P,U1,4,A14*%
%TO.N,/IO/A14*%
X295910000Y-114935000D03*
%TO.P,U1,5,A15*%
%TO.N,/IO/A15*%
X295910000Y-117475000D03*
%TO.P,U1,6,~{CLK}*%
%TO.N,/XTAL*%
X295910000Y-120015000D03*
%TO.P,U1,7,D4*%
%TO.N,/BUS Expansion/D4*%
X295910000Y-122555000D03*
%TO.P,U1,8,D3*%
%TO.N,/BUS Expansion/D3*%
X295910000Y-125095000D03*
%TO.P,U1,9,D5*%
%TO.N,/BUS Expansion/D5*%
X295910000Y-127635000D03*
%TO.P,U1,10,D6*%
%TO.N,/BUS Expansion/D6*%
X295910000Y-130175000D03*
%TO.P,U1,11,VCC*%
%TO.N,VCC*%
X295910000Y-132715000D03*
%TO.P,U1,12,D2*%
%TO.N,/BUS Expansion/D2*%
X295910000Y-135255000D03*
%TO.P,U1,13,D7*%
%TO.N,/BUS Expansion/D7*%
X295910000Y-137795000D03*
%TO.P,U1,14,D0*%
%TO.N,/BUS Expansion/D0*%
X295910000Y-140335000D03*
%TO.P,U1,15,D1*%
%TO.N,/BUS Expansion/D1*%
X295910000Y-142875000D03*
%TO.P,U1,16,~{INT}*%
%TO.N,/{slash}INT*%
X295910000Y-145415000D03*
%TO.P,U1,17,~{NMI}*%
%TO.N,/NMI*%
X295910000Y-147955000D03*
%TO.P,U1,18,~{HALT}*%
%TO.N,/HALT*%
X295910000Y-150495000D03*
%TO.P,U1,19,~{MREQ}*%
%TO.N,/MREQ*%
X295910000Y-153035000D03*
%TO.P,U1,20,~{IORQ}*%
%TO.N,/IORQ*%
X295910000Y-155575000D03*
%TO.P,U1,21,~{RD}*%
%TO.N,/RD*%
X311150000Y-155575000D03*
%TO.P,U1,22,~{WR}*%
%TO.N,/WR*%
X311150000Y-153035000D03*
%TO.P,U1,23,~{BUSACK}*%
%TO.N,/BUSACK*%
X311150000Y-150495000D03*
%TO.P,U1,24,~{WAIT}*%
%TO.N,/WAIT*%
X311150000Y-147955000D03*
%TO.P,U1,25,~{BUSRQ}*%
%TO.N,/BUSRQ*%
X311150000Y-145415000D03*
%TO.P,U1,26,~{RESET}*%
%TO.N,/{slash}RESET*%
X311150000Y-142875000D03*
%TO.P,U1,27,~{M1}*%
%TO.N,/M1*%
X311150000Y-140335000D03*
%TO.P,U1,28,~{RFSH}*%
%TO.N,/CPU_MEM/RFSH*%
X311150000Y-137795000D03*
%TO.P,U1,29,GND*%
%TO.N,GND*%
X311150000Y-135255000D03*
%TO.P,U1,30,A0*%
%TO.N,/IO/A0*%
X311150000Y-132715000D03*
%TO.P,U1,31,A1*%
%TO.N,/IO/A1*%
X311150000Y-130175000D03*
%TO.P,U1,32,A2*%
%TO.N,/IO/A2*%
X311150000Y-127635000D03*
%TO.P,U1,33,A3*%
%TO.N,/IO/A3*%
X311150000Y-125095000D03*
%TO.P,U1,34,A4*%
%TO.N,/IO/A4*%
X311150000Y-122555000D03*
%TO.P,U1,35,A5*%
%TO.N,/IO/A5*%
X311150000Y-120015000D03*
%TO.P,U1,36,A6*%
%TO.N,/IO/A6*%
X311150000Y-117475000D03*
%TO.P,U1,37,A7*%
%TO.N,/IO/A7*%
X311150000Y-114935000D03*
%TO.P,U1,38,A8*%
%TO.N,/IO/A8*%
X311150000Y-112395000D03*
%TO.P,U1,39,A9*%
%TO.N,/IO/A9*%
X311150000Y-109855000D03*
%TO.P,U1,40,A10*%
%TO.N,/IO/A10*%
X311150000Y-107315000D03*
%TD*%
D24*
%TO.P,J7,1,Pin_1*%
%TO.N,GND*%
X31750000Y-118110000D03*
D25*
%TO.P,J7,2,Pin_2*%
%TO.N,unconnected-(J7-Pad2)*%
X31750000Y-120650000D03*
%TO.P,J7,3,Pin_3*%
%TO.N,unconnected-(J7-Pad3)*%
X31750000Y-123190000D03*
%TO.P,J7,4,Pin_4*%
%TO.N,unconnected-(J7-Pad4)*%
X31750000Y-125730000D03*
%TO.P,J7,5,Pin_5*%
%TO.N,/SOUND/COL3*%
X31750000Y-128270000D03*
%TO.P,J7,6,Pin_6*%
%TO.N,/SOUND/COL6*%
X31750000Y-130810000D03*
%TO.P,J7,7,Pin_7*%
%TO.N,/SOUND/COL5*%
X31750000Y-133350000D03*
%TO.P,J7,8,Pin_8*%
%TO.N,/SOUND/COL4*%
X31750000Y-135890000D03*
%TO.P,J7,9,Pin_9*%
%TO.N,/SOUND/COL7*%
X31750000Y-138430000D03*
%TO.P,J7,10,Pin_10*%
%TO.N,/SOUND/COL2*%
X31750000Y-140970000D03*
%TO.P,J7,11,Pin_11*%
%TO.N,/SOUND/COL1*%
X31750000Y-143510000D03*
%TO.P,J7,12,Pin_12*%
%TO.N,/SOUND/COL0*%
X31750000Y-146050000D03*
%TO.P,J7,13,Pin_13*%
%TO.N,/SOUND/ROW0*%
X31750000Y-148590000D03*
%TO.P,J7,14,Pin_14*%
%TO.N,/SOUND/ROW6*%
X31750000Y-151130000D03*
%TO.P,J7,15,Pin_15*%
%TO.N,/SOUND/ROW5*%
X31750000Y-153670000D03*
%TO.P,J7,16,Pin_16*%
%TO.N,/SOUND/ROW4*%
X31750000Y-156210000D03*
%TO.P,J7,17,Pin_17*%
%TO.N,/SOUND/ROW3*%
X31750000Y-158750000D03*
%TO.P,J7,18,Pin_18*%
%TO.N,/SOUND/ROW2*%
X31750000Y-161290000D03*
%TO.P,J7,19,Pin_19*%
%TO.N,/SOUND/ROW1*%
X31750000Y-163830000D03*
%TO.P,J7,20,Pin_20*%
%TO.N,/SOUND/ROW7*%
X31750000Y-166370000D03*
%TD*%
D40*
%TO.P,J10,1,Pin_1*%
%TO.N,/MR*%
X371267500Y-210455000D03*
D41*
%TO.P,J10,2,Pin_2*%
%TO.N,GND*%
X371267500Y-212455000D03*
%TO.P,J10,3,Pin_3*%
%TO.N,/BUS Expansion/D7*%
X369267500Y-210455000D03*
%TO.P,J10,4,Pin_4*%
%TO.N,unconnected-(J10-Pad4)*%
X369267500Y-212455000D03*
%TO.P,J10,5,Pin_5*%
%TO.N,/BUS Expansion/D6*%
X367267500Y-210455000D03*
%TO.P,J10,6,Pin_6*%
%TO.N,unconnected-(J10-Pad6)*%
X367267500Y-212455000D03*
%TO.P,J10,7,Pin_7*%
%TO.N,/BUS Expansion/D5*%
X365267500Y-210455000D03*
%TO.P,J10,8,Pin_8*%
%TO.N,unconnected-(J10-Pad8)*%
X365267500Y-212455000D03*
%TO.P,J10,9,Pin_9*%
%TO.N,/BUS Expansion/D4*%
X363267500Y-210455000D03*
%TO.P,J10,10,Pin_10*%
%TO.N,unconnected-(J10-Pad10)*%
X363267500Y-212455000D03*
%TO.P,J10,11,Pin_11*%
%TO.N,/BUS Expansion/D3*%
X361267500Y-210455000D03*
%TO.P,J10,12,Pin_12*%
%TO.N,unconnected-(J10-Pad12)*%
X361267500Y-212455000D03*
%TO.P,J10,13,Pin_13*%
%TO.N,/BUS Expansion/D2*%
X359267500Y-210455000D03*
%TO.P,J10,14,Pin_14*%
%TO.N,unconnected-(J10-Pad14)*%
X359267500Y-212455000D03*
%TO.P,J10,15,Pin_15*%
%TO.N,/BUS Expansion/D1*%
X357267500Y-210455000D03*
%TO.P,J10,16,Pin_16*%
%TO.N,unconnected-(J10-Pad16)*%
X357267500Y-212455000D03*
%TO.P,J10,17,Pin_17*%
%TO.N,/BUS Expansion/D0*%
X355267500Y-210455000D03*
%TO.P,J10,18,Pin_18*%
%TO.N,unconnected-(J10-Pad18)*%
X355267500Y-212455000D03*
%TO.P,J10,19,Pin_19*%
%TO.N,GND*%
X353267500Y-210455000D03*
%TO.P,J10,20,Pin_20*%
%TO.N,VCC*%
X353267500Y-212455000D03*
%TO.P,J10,21,Pin_21*%
%TO.N,unconnected-(J10-Pad21)*%
X351267500Y-210455000D03*
%TO.P,J10,22,Pin_22*%
%TO.N,GND*%
X351267500Y-212455000D03*
%TO.P,J10,23,Pin_23*%
%TO.N,/IOWR*%
X349267500Y-210455000D03*
%TO.P,J10,24,Pin_24*%
%TO.N,GND*%
X349267500Y-212455000D03*
%TO.P,J10,25,Pin_25*%
%TO.N,/IORD*%
X347267500Y-210455000D03*
%TO.P,J10,26,Pin_26*%
%TO.N,GND*%
X347267500Y-212455000D03*
%TO.P,J10,27,Pin_27*%
%TO.N,unconnected-(J10-Pad27)*%
X345267500Y-210455000D03*
%TO.P,J10,28,Pin_28*%
%TO.N,unconnected-(J10-Pad28)*%
X345267500Y-212455000D03*
%TO.P,J10,29,Pin_29*%
%TO.N,unconnected-(J10-Pad29)*%
X343267500Y-210455000D03*
%TO.P,J10,30,Pin_30*%
%TO.N,GND*%
X343267500Y-212455000D03*
%TO.P,J10,31,Pin_31*%
%TO.N,unconnected-(J10-Pad31)*%
X341267500Y-210455000D03*
%TO.P,J10,32,Pin_32*%
%TO.N,unconnected-(J10-Pad32)*%
X341267500Y-212455000D03*
%TO.P,J10,33,Pin_33*%
%TO.N,/IO/A1*%
X339267500Y-210455000D03*
%TO.P,J10,34,Pin_34*%
%TO.N,unconnected-(J10-Pad34)*%
X339267500Y-212455000D03*
%TO.P,J10,35,Pin_35*%
%TO.N,/IO/A0*%
X337267500Y-210455000D03*
%TO.P,J10,36,Pin_36*%
%TO.N,/IO/A2*%
X337267500Y-212455000D03*
%TO.P,J10,37,Pin_37*%
%TO.N,/CF_CE*%
X335267500Y-210455000D03*
%TO.P,J10,38,Pin_38*%
%TO.N,Net-(J10-Pad38)*%
X335267500Y-212455000D03*
%TO.P,J10,39,Pin_39*%
%TO.N,Net-(J10-Pad39)*%
X333267500Y-210455000D03*
%TO.P,J10,40,Pin_40*%
%TO.N,GND*%
X333267500Y-212455000D03*
%TD*%
D23*
%TO.P,RN1,1,common*%
%TO.N,VCC*%
X212860000Y-205745000D03*
D12*
%TO.P,RN1,2,R1*%
%TO.N,/CTC_INT*%
X212860000Y-203205000D03*
%TO.P,RN1,3,R2*%
%TO.N,/UART_INT*%
X212860000Y-200665000D03*
%TO.P,RN1,4,R3*%
%TO.N,/VDP_INT*%
X212860000Y-198125000D03*
%TO.P,RN1,5,R4*%
%TO.N,/INT_DEV1*%
X212860000Y-195585000D03*
%TO.P,RN1,6,R5*%
%TO.N,/INT_DEV2*%
X212860000Y-193045000D03*
%TO.P,RN1,7,R6*%
%TO.N,/INT_DEV3*%
X212860000Y-190505000D03*
%TO.P,RN1,8,R7*%
%TO.N,/INT_DEV4*%
X212860000Y-187965000D03*
%TO.P,RN1,9,R8*%
%TO.N,/INT_DEV5*%
X212860000Y-185425000D03*
%TD*%
D11*
%TO.P,R15,1*%
%TO.N,GND*%
X33655000Y-72390000D03*
D12*
%TO.P,R15,2*%
%TO.N,Net-(C33-Pad2)*%
X33655000Y-82550000D03*
%TD*%
D18*
%TO.P,D12,1,K*%
%TO.N,VCC*%
X371475000Y-38735000D03*
D22*
%TO.P,D12,2,A*%
%TO.N,Net-(C44-Pad1)*%
X379095000Y-38735000D03*
%TD*%
D11*
%TO.P,C7,1*%
%TO.N,GND*%
X373380000Y-182880000D03*
%TO.P,C7,2*%
%TO.N,Net-(C7-Pad2)*%
X370880000Y-182880000D03*
%TD*%
%TO.P,R26,1*%
%TO.N,Net-(C48-Pad1)*%
X191770000Y-72390000D03*
D12*
%TO.P,R26,2*%
%TO.N,Net-(R26-Pad2)*%
X199390000Y-72390000D03*
%TD*%
D20*
%TO.P,U16,1*%
%TO.N,/VDP_CE*%
X115555000Y-187975000D03*
D21*
%TO.P,U16,2*%
%TO.N,/IORQ*%
X115555000Y-190515000D03*
%TO.P,U16,3*%
%TO.N,Net-(U16-Pad3)*%
X115555000Y-193055000D03*
%TO.P,U16,4*%
X115555000Y-195595000D03*
%TO.P,U16,5*%
%TO.N,/RD*%
X115555000Y-198135000D03*
%TO.P,U16,6*%
%TO.N,/VIDEO/{slash}CSR*%
X115555000Y-200675000D03*
%TO.P,U16,7,GND*%
%TO.N,GND*%
X115555000Y-203215000D03*
%TO.P,U16,8*%
%TO.N,/VIDEO/{slash}CSW*%
X123175000Y-203215000D03*
%TO.P,U16,9*%
%TO.N,Net-(U16-Pad3)*%
X123175000Y-200675000D03*
%TO.P,U16,10*%
%TO.N,/WR*%
X123175000Y-198135000D03*
%TO.P,U16,11*%
%TO.N,N/C*%
X123175000Y-195595000D03*
%TO.P,U16,12*%
X123175000Y-193055000D03*
%TO.P,U16,13*%
X123175000Y-190515000D03*
%TO.P,U16,14,VCC*%
%TO.N,VCC*%
X123175000Y-187975000D03*
%TD*%
D11*
%TO.P,R16,1*%
%TO.N,VCC*%
X342900000Y-71735564D03*
D12*
%TO.P,R16,2*%
%TO.N,Net-(C34-Pad1)*%
X342900000Y-79355564D03*
%TD*%
D20*
%TO.P,U14,1,A0*%
%TO.N,/IO/A5*%
X237490000Y-187950000D03*
D21*
%TO.P,U14,2,A1*%
%TO.N,/IO/A6*%
X237490000Y-190490000D03*
%TO.P,U14,3,A2*%
%TO.N,/IO/A7*%
X237490000Y-193030000D03*
%TO.P,U14,4,E1*%
%TO.N,/IORQ*%
X237490000Y-195570000D03*
%TO.P,U14,5,E2*%
X237490000Y-198110000D03*
%TO.P,U14,6,E3*%
%TO.N,Net-(U13-Pad3)*%
X237490000Y-200650000D03*
%TO.P,U14,7,O7*%
%TO.N,unconnected-(U14-Pad7)*%
X237490000Y-203190000D03*
%TO.P,U14,8,GND*%
%TO.N,GND*%
X237490000Y-205730000D03*
%TO.P,U14,9,O6*%
%TO.N,/DEV_CS1*%
X245110000Y-205730000D03*
%TO.P,U14,10,O5*%
%TO.N,/CF_CE*%
X245110000Y-203190000D03*
%TO.P,U14,11,O4*%
%TO.N,/CTC_CE*%
X245110000Y-200650000D03*
%TO.P,U14,12,O3*%
%TO.N,/PSG_CE*%
X245110000Y-198110000D03*
%TO.P,U14,13,O2*%
%TO.N,/VDP_CE*%
X245110000Y-195570000D03*
%TO.P,U14,14,O1*%
%TO.N,/UART_CE*%
X245110000Y-193030000D03*
%TO.P,U14,15,O0*%
%TO.N,/PPI_CE*%
X245110000Y-190490000D03*
%TO.P,U14,16,VCC*%
%TO.N,VCC*%
X245110000Y-187950000D03*
%TD*%
D23*
%TO.P,D9,1,A*%
%TO.N,Net-(D8-Pad1)*%
X280035000Y-34925000D03*
D12*
%TO.P,D9,2,K*%
%TO.N,/IO/Casette Interface/M2*%
X272415000Y-34925000D03*
%TD*%
D42*
%TO.P,SW2,1,1*%
%TO.N,GND*%
X404495000Y-77620000D03*
X404495000Y-71120000D03*
%TO.P,SW2,2,2*%
%TO.N,Net-(C34-Pad1)*%
X399995000Y-77620000D03*
X399995000Y-71120000D03*
%TD*%
D11*
%TO.P,C44,1*%
%TO.N,Net-(C44-Pad1)*%
X384830000Y-60960000D03*
%TO.P,C44,2*%
%TO.N,GND*%
X387330000Y-60960000D03*
%TD*%
%TO.P,C14,1*%
%TO.N,VCC*%
X260985000Y-184150000D03*
%TO.P,C14,2*%
%TO.N,GND*%
X255985000Y-184150000D03*
%TD*%
%TO.P,C16,1*%
%TO.N,GND*%
X125055000Y-115565000D03*
%TO.P,C16,2*%
%TO.N,Net-(C16-Pad2)*%
X120055000Y-115565000D03*
%TD*%
D23*
%TO.P,C43,1*%
%TO.N,Net-(C33-Pad1)*%
X21590000Y-78740000D03*
D11*
%TO.P,C43,2*%
%TO.N,Net-(C43-Pad2)*%
X21590000Y-76240000D03*
%TD*%
D43*
%TO.P,FB1,1*%
%TO.N,Net-(C41-Pad1)*%
X382270000Y-180340000D03*
%TO.P,FB1,2*%
%TO.N,Net-(FB1-Pad2)*%
X380145000Y-180340000D03*
%TD*%
D24*
%TO.P,J8,1,Pin_1*%
%TO.N,Net-(J8-Pad1)*%
X215900000Y-130810000D03*
D25*
%TO.P,J8,2,Pin_2*%
%TO.N,Net-(J8-Pad2)*%
X215900000Y-128270000D03*
%TO.P,J8,3,Pin_3*%
%TO.N,Net-(J8-Pad3)*%
X215900000Y-125730000D03*
%TO.P,J8,4,Pin_4*%
%TO.N,Net-(J8-Pad4)*%
X215900000Y-123190000D03*
%TO.P,J8,5,Pin_5*%
%TO.N,Net-(J8-Pad5)*%
X215900000Y-120650000D03*
%TO.P,J8,6,Pin_6*%
%TO.N,Net-(J8-Pad6)*%
X215900000Y-118110000D03*
%TO.P,J8,7,Pin_7*%
%TO.N,Net-(J8-Pad7)*%
X215900000Y-115570000D03*
%TD*%
D11*
%TO.P,C18,1*%
%TO.N,GND*%
X179705000Y-78225000D03*
%TO.P,C18,2*%
%TO.N,VCC*%
X179705000Y-73225000D03*
%TD*%
%TO.P,C13,1*%
%TO.N,Net-(C13-Pad1)*%
X401955000Y-137700000D03*
%TO.P,C13,2*%
%TO.N,GND*%
X399455000Y-137700000D03*
%TD*%
D23*
%TO.P,X1,1,EN*%
%TO.N,unconnected-(X1-Pad1)*%
X308610000Y-90805000D03*
D11*
%TO.P,X1,4,GND*%
%TO.N,GND*%
X300990000Y-90805000D03*
%TO.P,X1,5,OUT*%
%TO.N,/XTAL*%
X300990000Y-98425000D03*
%TO.P,X1,8,Vcc*%
%TO.N,VCC*%
X308610000Y-98425000D03*
%TD*%
%TO.P,R17,1*%
%TO.N,Net-(Q2-Pad2)*%
X169545000Y-78185000D03*
D12*
%TO.P,R17,2*%
%TO.N,GND*%
X159385000Y-78185000D03*
%TD*%
D20*
%TO.P,U25,1*%
%TO.N,/M1*%
X221695000Y-187960000D03*
D21*
%TO.P,U25,2*%
%TO.N,/IORQ*%
X221695000Y-190500000D03*
%TO.P,U25,3*%
%TO.N,Net-(U25-Pad3)*%
X221695000Y-193040000D03*
%TO.P,U25,4*%
X221695000Y-195580000D03*
%TO.P,U25,5*%
%TO.N,Net-(U25-Pad10)*%
X221695000Y-198120000D03*
%TO.P,U25,6*%
%TO.N,Net-(JP3-Pad1)*%
X221695000Y-200660000D03*
%TO.P,U25,7,GND*%
%TO.N,GND*%
X221695000Y-203200000D03*
%TO.P,U25,8*%
%TO.N,Net-(U25-Pad12)*%
X229315000Y-203200000D03*
%TO.P,U25,9*%
%TO.N,Net-(U25-Pad10)*%
X229315000Y-200660000D03*
%TO.P,U25,10*%
X229315000Y-198120000D03*
%TO.P,U25,11*%
%TO.N,/{slash}INT*%
X229315000Y-195580000D03*
%TO.P,U25,12*%
%TO.N,Net-(U25-Pad12)*%
X229315000Y-193040000D03*
%TO.P,U25,13*%
X229315000Y-190500000D03*
%TO.P,U25,14,VCC*%
%TO.N,VCC*%
X229315000Y-187960000D03*
%TD*%
D11*
%TO.P,C50,1*%
%TO.N,VCC*%
X210820000Y-60960000D03*
%TO.P,C50,2*%
%TO.N,GND*%
X205820000Y-60960000D03*
%TD*%
%TO.P,C25,1*%
%TO.N,GND*%
X152475000Y-184155000D03*
%TO.P,C25,2*%
%TO.N,VCC*%
X157475000Y-184155000D03*
%TD*%
%TO.P,C8,1*%
%TO.N,Net-(C8-Pad1)*%
X368300000Y-180340000D03*
%TO.P,C8,2*%
%TO.N,Net-(C7-Pad2)*%
X368300000Y-177840000D03*
%TD*%
%TO.P,R31,1*%
%TO.N,VCC*%
X214630000Y-64770000D03*
D12*
%TO.P,R31,2*%
%TO.N,Net-(C48-Pad1)*%
X222250000Y-64770000D03*
%TD*%
D20*
%TO.P,U11,1,A14*%
%TO.N,GND*%
X168910000Y-114295000D03*
D21*
%TO.P,U11,2,A12*%
%TO.N,/VIDEO/VA11*%
X168910000Y-116835000D03*
%TO.P,U11,3,A7*%
%TO.N,/VIDEO/VA9*%
X168910000Y-119375000D03*
%TO.P,U11,4,A6*%
%TO.N,/VIDEO/VA8*%
X168910000Y-121915000D03*
%TO.P,U11,5,A5*%
%TO.N,/VIDEO/VA6*%
X168910000Y-124455000D03*
%TO.P,U11,6,A4*%
%TO.N,/VIDEO/VA5*%
X168910000Y-126995000D03*
%TO.P,U11,7,A3*%
%TO.N,/VIDEO/VA3*%
X168910000Y-129535000D03*
%TO.P,U11,8,A2*%
%TO.N,/VIDEO/VA2*%
X168910000Y-132075000D03*
%TO.P,U11,9,A1*%
%TO.N,/VIDEO/VA1*%
X168910000Y-134615000D03*
%TO.P,U11,10,A0*%
%TO.N,/VIDEO/VA0*%
X168910000Y-137155000D03*
%TO.P,U11,11,DQ0*%
%TO.N,/VIDEO/VD0*%
X168910000Y-139695000D03*
%TO.P,U11,12,DQ1*%
%TO.N,/VIDEO/VD1*%
X168910000Y-142235000D03*
%TO.P,U11,13,DQ2*%
%TO.N,/VIDEO/VD2*%
X168910000Y-144775000D03*
%TO.P,U11,14,VSS*%
%TO.N,GND*%
X168910000Y-147315000D03*
%TO.P,U11,15,DQ3*%
%TO.N,/VIDEO/VD3*%
X184150000Y-147315000D03*
%TO.P,U11,16,DQ4*%
%TO.N,/VIDEO/VD4*%
X184150000Y-144775000D03*
%TO.P,U11,17,DQ5*%
%TO.N,/VIDEO/VD5*%
X184150000Y-142235000D03*
%TO.P,U11,18,DQ6*%
%TO.N,/VIDEO/VD6*%
X184150000Y-139695000D03*
%TO.P,U11,19,DQ7*%
%TO.N,/VIDEO/VD7*%
X184150000Y-137155000D03*
%TO.P,U11,20,CE#*%
%TO.N,/VIDEO/{slash}CAS*%
X184150000Y-134615000D03*
%TO.P,U11,21,A10*%
%TO.N,/VIDEO/VA4*%
X184150000Y-132075000D03*
%TO.P,U11,22,OE#*%
%TO.N,Net-(U10-Pad11)*%
X184150000Y-129535000D03*
%TO.P,U11,23,A11*%
%TO.N,/VIDEO/VA7*%
X184150000Y-126995000D03*
%TO.P,U11,24,A9*%
%TO.N,/VIDEO/VA10*%
X184150000Y-124455000D03*
%TO.P,U11,25,A8*%
%TO.N,/VIDEO/VA12*%
X184150000Y-121915000D03*
%TO.P,U11,26,A13*%
%TO.N,/VIDEO/VA13*%
X184150000Y-119375000D03*
%TO.P,U11,27,WE#*%
%TO.N,Net-(U10-Pad1)*%
X184150000Y-116835000D03*
%TO.P,U11,28,VCC*%
%TO.N,VCC*%
X184150000Y-114295000D03*
%TD*%
D11*
%TO.P,R44,1*%
%TO.N,Net-(J10-Pad38)*%
X336550000Y-217170000D03*
D12*
%TO.P,R44,2*%
%TO.N,VCC*%
X346710000Y-217170000D03*
%TD*%
D44*
%TO.P,Q2,1,E*%
%TO.N,Net-(Q2-Pad1)*%
X173355000Y-73025000D03*
D45*
%TO.P,Q2,2,B*%
%TO.N,Net-(Q2-Pad2)*%
X174625000Y-73025000D03*
%TO.P,Q2,3,C*%
%TO.N,VCC*%
X175895000Y-73025000D03*
%TD*%
D18*
%TO.P,D2,1,K*%
%TO.N,GND*%
X173355000Y-33655000D03*
D19*
%TO.P,D2,2,A*%
%TO.N,Net-(D2-Pad2)*%
X173355000Y-36195000D03*
%TD*%
D11*
%TO.P,C10,1*%
%TO.N,GND*%
X384810000Y-158750000D03*
%TO.P,C10,2*%
%TO.N,VCC*%
X384810000Y-163750000D03*
%TD*%
D27*
%TO.P,SW1,1*%
%TO.N,Net-(R4-Pad1)*%
X87640000Y-58420000D03*
D28*
%TO.P,SW1,2*%
%TO.N,Net-(R5-Pad1)*%
X90180000Y-58420000D03*
%TO.P,SW1,3*%
%TO.N,Net-(R6-Pad1)*%
X92720000Y-58420000D03*
%TO.P,SW1,4*%
%TO.N,Net-(R7-Pad1)*%
X95260000Y-58420000D03*
%TO.P,SW1,5*%
%TO.N,VCC*%
X95260000Y-50800000D03*
%TO.P,SW1,6*%
X92720000Y-50800000D03*
%TO.P,SW1,7*%
X90180000Y-50800000D03*
%TO.P,SW1,8*%
X87640000Y-50800000D03*
%TD*%
D11*
%TO.P,R9,1*%
%TO.N,Net-(D2-Pad2)*%
X173355000Y-38735000D03*
D12*
%TO.P,R9,2*%
%TO.N,/IO/PC0*%
X173355000Y-46355000D03*
%TD*%
D46*
%TO.N,Net-(C11-Pad2)*%
X394330000Y-127640000D03*
X394335000Y-129540000D03*
%TO.N,GND*%
X233680000Y-157480000D03*
X224790000Y-109220000D03*
X256540000Y-157480000D03*
X49530000Y-125095000D03*
X372110000Y-160020000D03*
X41910000Y-55880000D03*
%TO.N,/VDP_INT*%
X97790000Y-179794500D03*
X199390000Y-179705000D03*
%TO.N,Net-(FB1-Pad2)*%
X379730000Y-161290000D03*
%TO.N,/IO/PC0*%
X145415000Y-92075000D03*
%TO.N,/IO/PC1*%
X146685000Y-88265000D03*
%TO.N,/IO/PA7*%
X118745000Y-84455000D03*
%TO.N,/IO/PA6*%
X261620000Y-86995000D03*
X117475000Y-85725000D03*
%TO.N,/IO/PA5*%
X125730000Y-61595000D03*
%TO.N,/IO/PA4*%
X124460000Y-62865000D03*
%TO.N,/IO/PB6*%
X137160000Y-55245000D03*
%TO.N,/IO/PB4*%
X142240000Y-55245000D03*
%TO.N,/IO/PB0*%
X135255000Y-55245000D03*
%TO.N,Net-(Q2-Pad2)*%
X107950000Y-102324500D03*
X164465000Y-102324500D03*
%TO.N,/NMI*%
X88900000Y-216624500D03*
X330200000Y-216535000D03*
%TO.N,/WAIT*%
X320040000Y-215265000D03*
X85090000Y-215354500D03*
%TO.N,/BUSRQ*%
X325120000Y-215265000D03*
X58420000Y-215900000D03*
X45720000Y-50800000D03*
%TO.N,/{slash}RESET*%
X106680000Y-95885000D03*
X218440000Y-95885000D03*
X92710000Y-161290000D03*
X80010000Y-48260000D03*
X276860000Y-95885000D03*
X80645000Y-95885000D03*
X299720000Y-88265000D03*
X92710000Y-127000000D03*
X276860000Y-141605000D03*
X276860000Y-107315000D03*
%TO.N,/INT_DEV1*%
X40640000Y-93980000D03*
X91440000Y-102324500D03*
X91440000Y-212090000D03*
%TO.N,/XTAL*%
X219710000Y-96609500D03*
X298450000Y-96520000D03*
X48260000Y-149860000D03*
X44450000Y-49530000D03*
X52070000Y-93980000D03*
%TO.N,/IO/A11*%
X274320000Y-118110000D03*
X49530000Y-48260000D03*
%TO.N,/IO/A13*%
X50800000Y-92710000D03*
X44450000Y-58420000D03*
%TO.N,/IO/A14*%
X44450000Y-93980000D03*
X260350000Y-123190000D03*
%TO.N,/IO/A15*%
X34290000Y-63500000D03*
X34290000Y-49530000D03*
X285750000Y-156210000D03*
%TO.N,/BUS Expansion/D4*%
X73660000Y-158750000D03*
X337820000Y-164465000D03*
X73660000Y-135890000D03*
X185420000Y-164009000D03*
X190500000Y-164009000D03*
X300990000Y-164009000D03*
X269240000Y-163919500D03*
X68580000Y-85090000D03*
X73660000Y-165735000D03*
%TO.N,/BUS Expansion/D3*%
X69850000Y-83820000D03*
X299720000Y-163284500D03*
X74930000Y-165100000D03*
X336550000Y-163195000D03*
X69850000Y-48260000D03*
X202654500Y-163284500D03*
X271780000Y-163284500D03*
X74930000Y-157480000D03*
X74930000Y-133350000D03*
X177800000Y-163284500D03*
%TO.N,/BUS Expansion/D5*%
X67310000Y-74930000D03*
X72390000Y-138430000D03*
X288290000Y-164734000D03*
X187960000Y-164733500D03*
X267970000Y-164733500D03*
X72390000Y-166370000D03*
X67310000Y-48260000D03*
X201930000Y-164733500D03*
X72390000Y-156210000D03*
X339090000Y-165735000D03*
%TO.N,/BUS Expansion/D6*%
X266700000Y-165458000D03*
X66040000Y-73660000D03*
X71120000Y-167005000D03*
X289560000Y-165458500D03*
X340360000Y-167005000D03*
X200660000Y-165458000D03*
X71120000Y-140970000D03*
X71120000Y-153670000D03*
X189230000Y-165458000D03*
%TO.N,/BUS Expansion/D2*%
X290830000Y-162560000D03*
X179070000Y-162560000D03*
X76200000Y-130810000D03*
X203835000Y-162560000D03*
X76200000Y-164465000D03*
X76200000Y-154940000D03*
X335280000Y-161925000D03*
X71120000Y-82550000D03*
X259080000Y-162560000D03*
%TO.N,/BUS Expansion/D7*%
X341630000Y-168275000D03*
X265430000Y-166182500D03*
X194310000Y-166182500D03*
X69850000Y-143510000D03*
X69850000Y-151130000D03*
X63500000Y-49530000D03*
X292100000Y-166183000D03*
X64770000Y-86360000D03*
X199390000Y-166182500D03*
X69850000Y-167640000D03*
%TO.N,/BUS Expansion/D0*%
X78740000Y-149860000D03*
X78740000Y-163195000D03*
X332740000Y-159385000D03*
X73660000Y-80010000D03*
X293370000Y-160744500D03*
X261620000Y-160744500D03*
X78740000Y-125730000D03*
X181610000Y-160744500D03*
X205740000Y-160744500D03*
%TO.N,/BUS Expansion/D1*%
X72390000Y-48260000D03*
X260350000Y-161469000D03*
X77470000Y-152400000D03*
X180340000Y-161379500D03*
X334010000Y-160655000D03*
X77470000Y-163830000D03*
X77470000Y-128270000D03*
X204559500Y-161469000D03*
X72390000Y-81280000D03*
X298450000Y-161469000D03*
%TO.N,/{slash}INT*%
X240665000Y-154940000D03*
%TO.N,/HALT*%
X318770000Y-151765000D03*
X82550000Y-49530000D03*
X86360000Y-217170000D03*
X318770000Y-217259500D03*
%TO.N,/MREQ*%
X83820000Y-48260000D03*
X87630000Y-162560000D03*
X278765000Y-160020000D03*
%TO.N,/IORQ*%
X113665000Y-167005000D03*
X295910000Y-167005000D03*
X82550000Y-168454500D03*
X193040000Y-167005000D03*
X220980000Y-167005000D03*
%TO.N,/BUSACK*%
X321310000Y-217805000D03*
X321310000Y-150495000D03*
X41910000Y-217805000D03*
%TO.N,/M1*%
X314960000Y-180340000D03*
X222250000Y-177889500D03*
X78740000Y-49530000D03*
X196850000Y-176799000D03*
X83820000Y-179070000D03*
%TO.N,/IO/A0*%
X316230000Y-167640000D03*
X63500000Y-87630000D03*
X68580000Y-168910000D03*
X48260000Y-171450000D03*
X231775000Y-167729500D03*
X316230000Y-205740000D03*
X356870000Y-170180000D03*
X62230000Y-48260000D03*
X209550000Y-167729500D03*
X68580000Y-146685000D03*
%TO.N,/IO/A1*%
X358140000Y-171450000D03*
X317500000Y-204470000D03*
X62230000Y-93980000D03*
X208280000Y-168454000D03*
X67310000Y-170180000D03*
X230326000Y-168454000D03*
X317500000Y-168910000D03*
%TO.N,/IO/A2*%
X308610000Y-170180000D03*
X66040000Y-170815000D03*
X59690000Y-48260000D03*
X359410000Y-172720000D03*
X228600000Y-169178500D03*
%TO.N,/IO/A3*%
X307340000Y-171450000D03*
X227330000Y-170180000D03*
X64770000Y-171450000D03*
%TO.N,/IO/A4*%
X57150000Y-48260000D03*
X63500000Y-172085000D03*
X306070000Y-172720000D03*
X226060000Y-170904500D03*
%TO.N,/IO/A5*%
X62230000Y-172720000D03*
X224790000Y-171629000D03*
X304800000Y-173990000D03*
%TO.N,/IO/A6*%
X303530000Y-175260000D03*
X223520000Y-172353500D03*
X60960000Y-173355000D03*
X54610000Y-48260000D03*
%TO.N,/IO/A7*%
X59690000Y-173990000D03*
X222250000Y-173078000D03*
X302260000Y-176530000D03*
%TO.N,/IO/A8*%
X241300000Y-114935000D03*
%TO.N,/IO/A9*%
X50800000Y-49530000D03*
%TO.N,/IO/A10*%
X275590000Y-114300000D03*
%TO.N,/ROM_CE*%
X246380000Y-153670000D03*
X266065000Y-177165000D03*
X246380000Y-177165000D03*
%TO.N,/RAM_CE*%
X280670000Y-191770000D03*
%TO.N,/PPI_CE*%
X243205000Y-180975000D03*
X90170000Y-180975000D03*
%TO.N,/RESET_IO*%
X120015000Y-83185000D03*
%TO.N,/RX*%
X368300000Y-151130000D03*
%TO.N,/TX*%
X365125000Y-159385000D03*
X374650000Y-153670000D03*
%TO.N,/UART_CE*%
X247650000Y-180975000D03*
X342900000Y-182880000D03*
%TO.N,Net-(U5-Pad32)*%
X354330000Y-168275000D03*
X361950000Y-168275000D03*
%TO.N,Net-(U17-Pad2)*%
X187960000Y-156845000D03*
X147320000Y-156929500D03*
%TO.N,/VIDEO/VA4*%
X163830000Y-112390000D03*
%TO.N,Net-(U17-Pad6)*%
X161290000Y-157569500D03*
X146050000Y-157480000D03*
%TO.N,Net-(U10-Pad1)*%
X156210000Y-158204500D03*
X189230000Y-157480000D03*
X189230000Y-116835000D03*
X100330000Y-160015000D03*
%TO.N,Net-(U10-Pad11)*%
X162560000Y-142235000D03*
%TO.N,/VIDEO/VD7*%
X180975000Y-156294500D03*
X157480000Y-156294500D03*
%TO.N,/VIDEO/VD6*%
X154940000Y-155659500D03*
X182245000Y-155659500D03*
%TO.N,/VIDEO/VD5*%
X152400000Y-155024500D03*
X187235500Y-154935000D03*
%TO.N,/VIDEO/VD4*%
X149860000Y-154389500D03*
X186055000Y-154300000D03*
%TO.N,/VIDEO/VD3*%
X147320000Y-151760000D03*
%TO.N,/VIDEO/VD2*%
X170815000Y-152484500D03*
X144780000Y-151760000D03*
%TO.N,/VIDEO/VD1*%
X172085000Y-153030000D03*
X142240000Y-151760000D03*
%TO.N,/VIDEO/VD0*%
X139700000Y-151760000D03*
X173355000Y-153665000D03*
%TO.N,/VIDEO/{slash}CAS*%
X179705000Y-159385000D03*
X154940000Y-159385000D03*
X101600000Y-161925000D03*
%TO.N,Net-(U13-Pad12)*%
X263525000Y-179070000D03*
X355600000Y-181610000D03*
%TO.N,/CF_CE*%
X242570000Y-210185000D03*
%TO.N,/CTC_CE*%
X242570000Y-177165000D03*
X210820000Y-177165000D03*
%TO.N,/PSG_CE*%
X250190000Y-175895000D03*
X45085000Y-177800000D03*
%TO.N,/VDP_CE*%
X115570000Y-175349500D03*
X248920000Y-175349500D03*
%TO.N,/VIDEO/{slash}RAS*%
X149860000Y-158839500D03*
X102870000Y-161195500D03*
%TO.N,/SOUND/ROW7*%
X31750000Y-176530000D03*
%TO.N,/SOUND/COL7*%
X25400000Y-175260000D03*
%TO.N,/SOUND/COL6*%
X21590000Y-173990000D03*
%TO.N,/SOUND/COL5*%
X22860000Y-172720000D03*
%TO.N,/SOUND/COL4*%
X24130000Y-171450000D03*
%TO.N,/SOUND/COL3*%
X20320000Y-170180000D03*
%TO.N,/SOUND/COL2*%
X26670000Y-168910000D03*
%TO.N,/SOUND/COL1*%
X27940000Y-167640000D03*
%TO.N,/SOUND/COL0*%
X29210000Y-177800000D03*
%TO.N,VCC*%
X132080000Y-104140000D03*
X384810000Y-191770000D03*
X330200000Y-98425000D03*
X384810000Y-210185000D03*
X285115000Y-60960000D03*
%TO.N,/DEV_CS1*%
X245110000Y-208280000D03*
X40640000Y-214630000D03*
%TO.N,Net-(U26-Pad9)*%
X175935000Y-195580000D03*
%TO.N,Net-(JP3-Pad2)*%
X174665000Y-213360000D03*
X174665000Y-187960000D03*
%TO.N,/IO/Casette Interface/PC7*%
X196215000Y-86995000D03*
%TO.N,/IO/Casette Interface/PC6*%
X206375000Y-94615000D03*
%TO.N,/IO/Casette Interface/PC5*%
X205105000Y-93345000D03*
%TO.N,/IO/Casette Interface/PC4*%
X210185000Y-92075000D03*
%TO.N,/IO/Casette Interface/PC2*%
X207645000Y-90805000D03*
%TO.N,/IO/Casette Interface/PC3*%
X208915000Y-89535000D03*
%TO.N,/RD*%
X80010000Y-175260000D03*
X283210000Y-177800000D03*
X191770000Y-173802500D03*
X74930000Y-92710000D03*
X264795000Y-173900500D03*
X311150000Y-177800000D03*
X120650000Y-173802500D03*
X360680000Y-177800000D03*
%TO.N,/MR*%
X331470000Y-207645000D03*
X353695000Y-207645000D03*
X256540000Y-207645000D03*
%TO.N,/WR*%
X81280000Y-176530000D03*
X313690000Y-179070000D03*
X76200000Y-50800000D03*
X76200000Y-78740000D03*
X347980000Y-179070000D03*
X125730000Y-174625000D03*
X52070000Y-176530000D03*
X288290000Y-179070000D03*
X219710000Y-174625000D03*
X64770000Y-50800000D03*
%TO.N,Net-(U13-Pad8)*%
X260985000Y-208915000D03*
X294640000Y-208915000D03*
%TD*%
D47*
%TO.N,Net-(J1-Pad1)*%
X394970000Y-182880000D02*
X389890000Y-187960000D01*
X394970000Y-130175000D02*
X394970000Y-182880000D01*
%TO.N,Net-(C11-Pad2)*%
X394335000Y-130810000D02*
X394335000Y-129540000D01*
X393065000Y-132080000D02*
X394335000Y-130810000D01*
X393065000Y-160161396D02*
X393065000Y-132080000D01*
X387611396Y-165615000D02*
X393065000Y-160161396D01*
X375422500Y-165615000D02*
X387611396Y-165615000D01*
%TO.N,Net-(C12-Pad2)*%
X389890000Y-162700000D02*
X389890000Y-130850000D01*
X389890000Y-130850000D02*
X389930000Y-130810000D01*
X387625000Y-164965000D02*
X389890000Y-162700000D01*
X375422500Y-164965000D02*
X387625000Y-164965000D01*
%TO.N,Net-(J10-Pad39)*%
X388620000Y-114300000D02*
X388620000Y-104775000D01*
X391160000Y-116840000D02*
X388620000Y-114300000D01*
X407035000Y-120650000D02*
X403225000Y-116840000D01*
X407035000Y-213360000D02*
X407035000Y-120650000D01*
X403225000Y-116840000D02*
X391160000Y-116840000D01*
X333375000Y-219075000D02*
X401320000Y-219075000D01*
X332105000Y-217805000D02*
X333375000Y-219075000D01*
X332105000Y-211617500D02*
X332105000Y-217805000D01*
X401320000Y-219075000D02*
X407035000Y-213360000D01*
X333267500Y-210455000D02*
X332105000Y-211617500D01*
D48*
%TO.N,VCC*%
X293250000Y-43180000D02*
X293370000Y-43300000D01*
X285115000Y-60960000D02*
X285115000Y-47625000D01*
X285115000Y-47625000D02*
X289560000Y-43180000D01*
X289560000Y-43180000D02*
X293250000Y-43180000D01*
X294005000Y-38735000D02*
X371475000Y-38735000D01*
X293370000Y-39370000D02*
X294005000Y-38735000D01*
X293370000Y-40640000D02*
X293370000Y-39370000D01*
X360680000Y-71755000D02*
X360680000Y-38735000D01*
D47*
X403225000Y-102870000D02*
X405130000Y-104775000D01*
X394970000Y-102870000D02*
X403225000Y-102870000D01*
X391160000Y-99060000D02*
X394970000Y-102870000D01*
X402590000Y-96520000D02*
X393700000Y-96520000D01*
X405765000Y-93345000D02*
X402590000Y-96520000D01*
X405765000Y-84455000D02*
X405765000Y-93345000D01*
X393700000Y-96520000D02*
X391160000Y-99060000D01*
D48*
X361315000Y-97790000D02*
X360680000Y-98425000D01*
X389890000Y-97790000D02*
X361315000Y-97790000D01*
X391160000Y-99060000D02*
X389890000Y-97790000D01*
D47*
%TO.N,Net-(C11-Pad2)*%
X390545000Y-125730000D02*
X392455000Y-127640000D01*
X392455000Y-127640000D02*
X394330000Y-127640000D01*
X389930000Y-125730000D02*
X390545000Y-125730000D01*
%TO.N,GND*%
X392740000Y-126040000D02*
X392430000Y-125730000D01*
X397545000Y-126040000D02*
X392740000Y-126040000D01*
%TO.N,Net-(C11-Pad2)*%
X394330000Y-127640000D02*
X396715000Y-127640000D01*
%TO.N,Net-(C12-Pad2)*%
X389930000Y-129670000D02*
X391160000Y-128440000D01*
X389930000Y-130810000D02*
X389930000Y-129670000D01*
X391160000Y-128440000D02*
X396715000Y-128440000D01*
%TO.N,Net-(J1-Pad1)*%
X395905000Y-129240000D02*
X394970000Y-130175000D01*
X397545000Y-129240000D02*
X395905000Y-129240000D01*
%TO.N,Net-(C49-Pad1)*%
X209335000Y-47410000D02*
X214550000Y-47410000D01*
X202197387Y-46990000D02*
X203352387Y-45835000D01*
X207760000Y-45835000D02*
X209335000Y-47410000D01*
X195580000Y-46990000D02*
X202197387Y-46990000D01*
X203352387Y-45835000D02*
X207760000Y-45835000D01*
X194310000Y-45720000D02*
X195580000Y-46990000D01*
X194310000Y-41910000D02*
X194310000Y-45720000D01*
%TO.N,Net-(C48-Pad1)*%
X191770000Y-40640000D02*
X191770000Y-45720000D01*
%TO.N,Net-(C49-Pad1)*%
X198080000Y-41910000D02*
X198120000Y-41870000D01*
X194310000Y-41910000D02*
X198080000Y-41910000D01*
%TO.N,Net-(C48-Pad1)*%
X189865000Y-47625000D02*
X191770000Y-45720000D01*
X189865000Y-65405000D02*
X189865000Y-47625000D01*
X191770000Y-67310000D02*
X189865000Y-65405000D01*
D48*
%TO.N,VCC*%
X128190000Y-72350000D02*
X128190000Y-48895000D01*
X133985000Y-48895000D02*
X133985000Y-38735000D01*
X126365000Y-48895000D02*
X133985000Y-48895000D01*
X97165000Y-48895000D02*
X126365000Y-48895000D01*
X95260000Y-50800000D02*
X97165000Y-48895000D01*
D47*
%TO.N,GND*%
X49610000Y-114300000D02*
X49610000Y-125015000D01*
X41910000Y-49530000D02*
X43083000Y-48357000D01*
X380715000Y-159115000D02*
X381000000Y-158830000D01*
X372110000Y-158750000D02*
X372395000Y-158465000D01*
X372395000Y-158465000D02*
X375422500Y-158465000D01*
X132080000Y-116755000D02*
X132080000Y-118105000D01*
X158755000Y-119465000D02*
X157625000Y-120595000D01*
X133450000Y-134715000D02*
X135890000Y-134715000D01*
X256540000Y-151130000D02*
X256540000Y-157480000D01*
X132080000Y-132075000D02*
X132080000Y-133345000D01*
X371885000Y-161065000D02*
X368222500Y-161065000D01*
X375422500Y-159115000D02*
X380715000Y-159115000D01*
X224790000Y-109220000D02*
X229235000Y-104775000D01*
X41910000Y-55880000D02*
X41910000Y-49530000D01*
X233680000Y-151130000D02*
X233680000Y-157480000D01*
X132080000Y-118105000D02*
X133440000Y-119465000D01*
X43083000Y-48357000D02*
X43083000Y-39370000D01*
X372535000Y-161715000D02*
X375422500Y-161715000D01*
X157625000Y-120595000D02*
X157625000Y-133590000D01*
X372110000Y-161290000D02*
X372535000Y-161715000D01*
X373215000Y-163665000D02*
X375422500Y-163665000D01*
X372110000Y-160840000D02*
X372110000Y-161290000D01*
X125055000Y-110485000D02*
X125055000Y-115565000D01*
X372110000Y-162560000D02*
X373215000Y-163665000D01*
X229235000Y-104775000D02*
X229235000Y-80645000D01*
X372110000Y-160020000D02*
X372110000Y-158750000D01*
X361950000Y-161290000D02*
X360680000Y-162560000D01*
X49610000Y-125015000D02*
X49530000Y-125095000D01*
X371885000Y-161065000D02*
X372110000Y-160840000D01*
X372110000Y-160840000D02*
X372110000Y-160020000D01*
X375422500Y-158465000D02*
X375422500Y-159115000D01*
X372110000Y-161290000D02*
X372110000Y-162560000D01*
X157625000Y-133590000D02*
X158750000Y-134715000D01*
X361950000Y-156210000D02*
X361950000Y-161290000D01*
X133440000Y-119465000D02*
X135895000Y-119465000D01*
X132080000Y-133345000D02*
X133450000Y-134715000D01*
X360680000Y-154940000D02*
X361950000Y-156210000D01*
%TO.N,Net-(C7-Pad2)*%
X365760000Y-181610000D02*
X367030000Y-182880000D01*
X368300000Y-177840000D02*
X366990000Y-177840000D01*
X374357500Y-177840000D02*
X374650000Y-178132500D01*
X367030000Y-182880000D02*
X370880000Y-182880000D01*
X365760000Y-179070000D02*
X365760000Y-181610000D01*
X368300000Y-177840000D02*
X374357500Y-177840000D01*
X370880000Y-182880000D02*
X370880000Y-187935000D01*
X370880000Y-187935000D02*
X370855000Y-187960000D01*
X366990000Y-177840000D02*
X365760000Y-179070000D01*
%TO.N,Net-(C8-Pad1)*%
X375632500Y-178559251D02*
X374184251Y-180007500D01*
X374184251Y-180007500D02*
X373700000Y-180007500D01*
X375632500Y-171550000D02*
X375632500Y-178559251D01*
X368300000Y-180340000D02*
X373367500Y-180340000D01*
X373367500Y-180340000D02*
X373700000Y-180007500D01*
%TO.N,Net-(C9-Pad1)*%
X380515000Y-164315000D02*
X375422500Y-164315000D01*
X381000000Y-163830000D02*
X380515000Y-164315000D01*
%TO.N,Net-(C13-Pad1)*%
X403225000Y-136430000D02*
X403225000Y-133050000D01*
X397645000Y-132090000D02*
X402265000Y-132090000D01*
X403225000Y-133050000D02*
X402265000Y-132090000D01*
X403225000Y-123190000D02*
X403225000Y-131130000D01*
X403225000Y-131130000D02*
X402265000Y-132090000D01*
X401955000Y-137700000D02*
X403225000Y-136430000D01*
X397645000Y-123190000D02*
X403225000Y-123190000D01*
%TO.N,Net-(C16-Pad2)*%
X113065000Y-113030000D02*
X110490000Y-113030000D01*
X119965000Y-115475000D02*
X120055000Y-115565000D01*
X115510000Y-115475000D02*
X119965000Y-115475000D01*
X115510000Y-115475000D02*
X113065000Y-113030000D01*
%TO.N,Net-(C17-Pad2)*%
X110490000Y-110490000D02*
X115425000Y-110490000D01*
X115425000Y-110490000D02*
X115510000Y-110575000D01*
X115600000Y-110485000D02*
X115510000Y-110575000D01*
X120055000Y-110485000D02*
X115600000Y-110485000D01*
%TO.N,Net-(C30-Pad1)*%
X31115000Y-101600000D02*
X31115000Y-86440000D01*
X22860000Y-86360000D02*
X31195000Y-86360000D01*
X31115000Y-86440000D02*
X31195000Y-86360000D01*
%TO.N,Net-(C31-Pad1)*%
X15240000Y-88980000D02*
X17860000Y-86360000D01*
X15240000Y-95250000D02*
X16510000Y-96520000D01*
X16510000Y-96520000D02*
X17780000Y-96520000D01*
X15240000Y-88980000D02*
X15240000Y-95250000D01*
%TO.N,Net-(C33-Pad1)*%
X29805000Y-82550000D02*
X21590000Y-82550000D01*
X29845000Y-82510000D02*
X29805000Y-82550000D01*
X21590000Y-95250000D02*
X21590000Y-82550000D01*
X21590000Y-82550000D02*
X21590000Y-78740000D01*
X25400000Y-99060000D02*
X21590000Y-95250000D01*
%TO.N,Net-(C33-Pad2)*%
X33655000Y-78740000D02*
X32425000Y-77510000D01*
X33655000Y-82550000D02*
X33655000Y-78740000D01*
X32425000Y-77510000D02*
X29845000Y-77510000D01*
%TO.N,Net-(D1-Pad2)*%
X180340000Y-36195000D02*
X180340000Y-38735000D01*
%TO.N,Net-(D2-Pad2)*%
X173355000Y-36195000D02*
X173355000Y-38735000D01*
%TO.N,Net-(D4-Pad1)*%
X399415000Y-84455000D02*
X403225000Y-84455000D01*
%TO.N,/VDP_INT*%
X197525000Y-196850000D02*
X195860000Y-195185000D01*
X199390000Y-183555000D02*
X199390000Y-179705000D01*
X97790000Y-149220000D02*
X97160000Y-148590000D01*
X212845000Y-198140000D02*
X212860000Y-198125000D01*
X206495000Y-198140000D02*
X205205000Y-196850000D01*
X206495000Y-198140000D02*
X212845000Y-198140000D01*
X97160000Y-148590000D02*
X95250000Y-148590000D01*
X97790000Y-179794500D02*
X97790000Y-149225000D01*
X195860000Y-187085000D02*
X199390000Y-183555000D01*
X205205000Y-196850000D02*
X197525000Y-196850000D01*
X195860000Y-195185000D02*
X195860000Y-187085000D01*
%TO.N,Net-(FB1-Pad2)*%
X369205000Y-159115000D02*
X368222500Y-159115000D01*
X382270000Y-160020000D02*
X382270000Y-157480000D01*
X375935000Y-184155000D02*
X375935000Y-187960000D01*
X377190000Y-162365000D02*
X375422500Y-162365000D01*
X375932500Y-180340000D02*
X375932500Y-184152500D01*
X375932500Y-184152500D02*
X375935000Y-184155000D01*
X378265000Y-161290000D02*
X377190000Y-162365000D01*
X375932500Y-180340000D02*
X375600000Y-180007500D01*
X379730000Y-161290000D02*
X381000000Y-161290000D01*
X381000000Y-161290000D02*
X382270000Y-160020000D01*
X379730000Y-161290000D02*
X378265000Y-161290000D01*
X380145000Y-180340000D02*
X375932500Y-180340000D01*
X372110000Y-156210000D02*
X369205000Y-159115000D01*
X381000000Y-156210000D02*
X372110000Y-156210000D01*
X382270000Y-157480000D02*
X381000000Y-156210000D01*
%TO.N,/IO/PC0*%
X172085000Y-52705000D02*
X173355000Y-51435000D01*
X164465000Y-52705000D02*
X172085000Y-52705000D01*
X173355000Y-51435000D02*
X173355000Y-46355000D01*
X145415000Y-71755000D02*
X164465000Y-52705000D01*
X145415000Y-92075000D02*
X145415000Y-71755000D01*
%TO.N,/IO/PC1*%
X146685000Y-73025000D02*
X165735000Y-53975000D01*
X177800000Y-53975000D02*
X180340000Y-51435000D01*
X165735000Y-53975000D02*
X177800000Y-53975000D01*
X146685000Y-88265000D02*
X146685000Y-73025000D01*
X180340000Y-51435000D02*
X180340000Y-46355000D01*
%TO.N,/IO/PA7*%
X118745000Y-84455000D02*
X108585000Y-84455000D01*
X108585000Y-84455000D02*
X100335000Y-76205000D01*
%TO.N,/IO/PA6*%
X261620000Y-86995000D02*
X261620000Y-74940000D01*
X117475000Y-85725000D02*
X107315000Y-85725000D01*
X252095000Y-73025000D02*
X259705000Y-73025000D01*
X261620000Y-74940000D02*
X259715000Y-73035000D01*
X107315000Y-85725000D02*
X97795000Y-76205000D01*
X259705000Y-73025000D02*
X259715000Y-73035000D01*
%TO.N,/IO/PA5*%
X125730000Y-61595000D02*
X125730000Y-67310000D01*
X96530000Y-74930000D02*
X95255000Y-76205000D01*
X125730000Y-67310000D02*
X118110000Y-74930000D01*
X118110000Y-74930000D02*
X96530000Y-74930000D01*
%TO.N,/IO/PA4*%
X117475000Y-73660000D02*
X95260000Y-73660000D01*
X124460000Y-62865000D02*
X124460000Y-66675000D01*
X95260000Y-73660000D02*
X92715000Y-76205000D01*
X124460000Y-66675000D02*
X117475000Y-73660000D01*
%TO.N,/IO/PB7*%
X130815000Y-76205000D02*
X130815000Y-57780000D01*
X130810000Y-57785000D02*
X131445000Y-57150000D01*
X137795000Y-50800000D02*
X137795000Y-38735000D01*
X130815000Y-57780000D02*
X131445000Y-57150000D01*
X131445000Y-57150000D02*
X137795000Y-50800000D01*
%TO.N,/IO/PB6*%
X137160000Y-55245000D02*
X133355000Y-59050000D01*
X133355000Y-59050000D02*
X133355000Y-76205000D01*
%TO.N,/IO/PB5*%
X141605000Y-52705000D02*
X141605000Y-38735000D01*
X135890000Y-58420000D02*
X141605000Y-52705000D01*
X135895000Y-76205000D02*
X135895000Y-58425000D01*
%TO.N,/IO/PB4*%
X138435000Y-59050000D02*
X138435000Y-76205000D01*
X142240000Y-55245000D02*
X138435000Y-59050000D01*
%TO.N,/IO/PB1*%
X139560000Y-92570000D02*
X141745000Y-92570000D01*
X141745000Y-92570000D02*
X143510000Y-90805000D01*
X138435000Y-91445000D02*
X139560000Y-92570000D01*
X153035000Y-62230000D02*
X153035000Y-38735000D01*
X143510000Y-71755000D02*
X153035000Y-62230000D01*
X143510000Y-90805000D02*
X143510000Y-71755000D01*
%TO.N,/IO/PB0*%
X135895000Y-80650000D02*
X135895000Y-91445000D01*
X132080000Y-76835000D02*
X135895000Y-80650000D01*
X135255000Y-55245000D02*
X132080000Y-58420000D01*
X132080000Y-58420000D02*
X132080000Y-76835000D01*
%TO.N,Net-(R12-Pad2)*%
X39390000Y-123115000D02*
X39390000Y-125655000D01*
X37465000Y-114935000D02*
X41275000Y-111125000D01*
X39390000Y-123115000D02*
X37465000Y-121190000D01*
X41275000Y-111125000D02*
X41275000Y-101600000D01*
X37465000Y-121190000D02*
X37465000Y-114935000D01*
%TO.N,Net-(Q2-Pad1)*%
X164465000Y-73105000D02*
X159385000Y-68025000D01*
X173275000Y-73105000D02*
X173355000Y-73025000D01*
X169545000Y-73105000D02*
X173275000Y-73105000D01*
X169545000Y-73105000D02*
X164465000Y-73105000D01*
%TO.N,Net-(Q2-Pad2)*%
X107950000Y-118105000D02*
X107950000Y-102324500D01*
X107950000Y-118105000D02*
X110490000Y-120645000D01*
X169545000Y-97155000D02*
X169545000Y-78185000D01*
X169545000Y-78185000D02*
X173355000Y-78185000D01*
X173395000Y-78145000D02*
X174625000Y-76915000D01*
X164465000Y-102324500D02*
X164465000Y-102235000D01*
X164465000Y-102235000D02*
X169545000Y-97155000D01*
X174625000Y-76915000D02*
X174625000Y-73025000D01*
%TO.N,Net-(Q3-Pad2)*%
X327660000Y-67925564D02*
X328930000Y-66655564D01*
X327660000Y-71735564D02*
X327660000Y-67925564D01*
X328930000Y-66655564D02*
X330200000Y-66655564D01*
%TO.N,/NMI*%
X330200000Y-146685000D02*
X330200000Y-216535000D01*
X85090000Y-40577000D02*
X83883000Y-39370000D01*
X88900000Y-99060000D02*
X85090000Y-95250000D01*
X85090000Y-95250000D02*
X85090000Y-40577000D01*
X88900000Y-216624500D02*
X88900000Y-99060000D01*
%TO.N,/WAIT*%
X85090000Y-215354500D02*
X85090000Y-99060000D01*
X320040000Y-146685000D02*
X320040000Y-215265000D01*
X85090000Y-99060000D02*
X81333000Y-95303000D01*
X81333000Y-95303000D02*
X81333000Y-39370000D01*
%TO.N,/BUSRQ*%
X58420000Y-100330000D02*
X53340000Y-95250000D01*
X46990000Y-50800000D02*
X45720000Y-50800000D01*
X53340000Y-57150000D02*
X46990000Y-50800000D01*
X53340000Y-95250000D02*
X53340000Y-57150000D01*
X325120000Y-146685000D02*
X325120000Y-215265000D01*
X58420000Y-215900000D02*
X58420000Y-100330000D01*
%TO.N,Net-(R4-Pad1)*%
X87630000Y-63589062D02*
X87630000Y-58430000D01*
X96530000Y-95250000D02*
X90170000Y-95250000D01*
X87630000Y-58430000D02*
X87640000Y-58420000D01*
X90170000Y-95250000D02*
X86360000Y-91440000D01*
X86360000Y-64859062D02*
X87630000Y-63589062D01*
X100335000Y-91445000D02*
X96530000Y-95250000D01*
X86360000Y-91440000D02*
X86360000Y-64859062D01*
%TO.N,Net-(R5-Pad1)*%
X87630000Y-74930000D02*
X90271168Y-72288832D01*
X91440000Y-62230000D02*
X91440000Y-63589062D01*
X90271168Y-64757894D02*
X91440000Y-63589062D01*
X90271168Y-72288832D02*
X90271168Y-64757894D01*
X90170000Y-93980000D02*
X87630000Y-91440000D01*
X90180000Y-60970000D02*
X91440000Y-62230000D01*
X95260000Y-93980000D02*
X90170000Y-93980000D01*
X90180000Y-58420000D02*
X90180000Y-60970000D01*
X97795000Y-91445000D02*
X95260000Y-93980000D01*
X87630000Y-91440000D02*
X87630000Y-74930000D01*
%TO.N,Net-(R6-Pad1)*%
X94069062Y-64770000D02*
X95250000Y-63589062D01*
X92710000Y-60960000D02*
X92710000Y-61049062D01*
X92720000Y-60950000D02*
X92710000Y-60960000D01*
X88900000Y-74930000D02*
X91440000Y-72390000D01*
X92720000Y-58420000D02*
X92720000Y-60950000D01*
X93990000Y-92710000D02*
X90170000Y-92710000D01*
X92710000Y-61049062D02*
X95250000Y-63589062D01*
X92710000Y-72390000D02*
X93980000Y-71120000D01*
X93980000Y-71120000D02*
X93980000Y-64770000D01*
X91440000Y-72390000D02*
X92710000Y-72390000D01*
X90170000Y-92710000D02*
X88900000Y-91440000D01*
X93980000Y-64770000D02*
X94069062Y-64770000D01*
X88900000Y-91440000D02*
X88900000Y-74930000D01*
X95255000Y-91445000D02*
X93990000Y-92710000D01*
%TO.N,Net-(R7-Pad1)*%
X99060000Y-69223604D02*
X99060000Y-63589062D01*
X90170000Y-90170000D02*
X90170000Y-74930000D01*
X91445000Y-91445000D02*
X90170000Y-90170000D01*
X95260000Y-60950000D02*
X95250000Y-60960000D01*
X92715000Y-91445000D02*
X91445000Y-91445000D01*
X96520000Y-62230000D02*
X97790000Y-62230000D01*
X91440000Y-73660000D02*
X94623604Y-73660000D01*
X95250000Y-60960000D02*
X96520000Y-62230000D01*
X97790000Y-62319062D02*
X99060000Y-63589062D01*
X95260000Y-58420000D02*
X95260000Y-60950000D01*
X97790000Y-62230000D02*
X97790000Y-62319062D01*
X94623604Y-73660000D02*
X99060000Y-69223604D01*
X90170000Y-74930000D02*
X91440000Y-73660000D01*
%TO.N,Net-(R10-Pad1)*%
X368222500Y-165615000D02*
X368222500Y-171340000D01*
X368222500Y-171340000D02*
X368012500Y-171550000D01*
%TO.N,/{slash}RESET*%
X319424436Y-58420000D02*
X325120000Y-64115564D01*
X302270000Y-71115000D02*
X302270000Y-73655000D01*
X92710000Y-161290000D02*
X92710000Y-106680000D01*
X326390000Y-79355564D02*
X327660000Y-79355564D01*
X106680000Y-95885000D02*
X100330000Y-102235000D01*
X299720000Y-78745000D02*
X302270000Y-76195000D01*
X264795000Y-170815000D02*
X257810000Y-177800000D01*
X257810000Y-177800000D02*
X257810000Y-191220000D01*
X276860000Y-141605000D02*
X276860000Y-160020000D01*
X80645000Y-95885000D02*
X80010000Y-95250000D01*
X218440000Y-95885000D02*
X218440000Y-134620000D01*
X325120000Y-64115564D02*
X325120000Y-78085564D01*
X257810000Y-191220000D02*
X253350000Y-195680000D01*
X218440000Y-134715000D02*
X210870000Y-142285000D01*
X299720000Y-64115564D02*
X305415564Y-58420000D01*
X276860000Y-107315000D02*
X276860000Y-95885000D01*
X302270000Y-73655000D02*
X302270000Y-76195000D01*
X92710000Y-106680000D02*
X97155000Y-102235000D01*
X100330000Y-102235000D02*
X97155000Y-102235000D01*
X253350000Y-195680000D02*
X253350000Y-198220000D01*
X299720000Y-68565000D02*
X299720000Y-64115564D01*
X305415564Y-58420000D02*
X319424436Y-58420000D01*
X276860000Y-160020000D02*
X266065000Y-170815000D01*
X80010000Y-95250000D02*
X80010000Y-48260000D01*
X325120000Y-78085564D02*
X326390000Y-79355564D01*
X266065000Y-170815000D02*
X264795000Y-170815000D01*
X327660000Y-79355564D02*
X332740000Y-79355564D01*
X299720000Y-88265000D02*
X299720000Y-78745000D01*
X302270000Y-71115000D02*
X299720000Y-68565000D01*
%TO.N,/CTC_INT*%
X196255000Y-199390000D02*
X202665000Y-199390000D01*
X200025000Y-156845000D02*
X197575000Y-159295000D01*
X197575000Y-184100000D02*
X197575000Y-159295000D01*
X194985000Y-186690000D02*
X194985000Y-198120000D01*
X200025000Y-146685000D02*
X200025000Y-156845000D01*
X206495000Y-203220000D02*
X212845000Y-203220000D01*
X196980000Y-184695000D02*
X194985000Y-186690000D01*
X195630000Y-142285000D02*
X200025000Y-146680000D01*
X212845000Y-203220000D02*
X212860000Y-203205000D01*
X196980000Y-184695000D02*
X197575000Y-184100000D01*
X194985000Y-198120000D02*
X196255000Y-199390000D01*
X202665000Y-199390000D02*
X206495000Y-203220000D01*
%TO.N,/UART_INT*%
X217170000Y-217170000D02*
X255905000Y-217170000D01*
X258445000Y-214630000D02*
X258445000Y-198205000D01*
X258445000Y-198205000D02*
X260970000Y-195680000D01*
X255905000Y-217170000D02*
X258445000Y-214630000D01*
X212845000Y-200680000D02*
X212860000Y-200665000D01*
X215305000Y-203110000D02*
X215305000Y-215305000D01*
X206495000Y-200680000D02*
X212845000Y-200680000D01*
X212860000Y-200665000D02*
X215305000Y-203110000D01*
X215305000Y-215305000D02*
X217170000Y-217170000D01*
%TO.N,/INT_DEV1*%
X40640000Y-72390000D02*
X35433000Y-67183000D01*
X35433000Y-67183000D02*
X35433000Y-39370000D01*
X40640000Y-93980000D02*
X40640000Y-72390000D01*
X91440000Y-102324500D02*
X91440000Y-212090000D01*
%TO.N,/INT_DEV2*%
X212860000Y-193045000D02*
X215360000Y-190545000D01*
X215360000Y-187965000D02*
X214090000Y-186695000D01*
X215360000Y-190545000D02*
X215360000Y-187965000D01*
X214090000Y-186695000D02*
X200160000Y-186695000D01*
X200160000Y-186695000D02*
X198875000Y-187980000D01*
%TO.N,/XTAL*%
X349250000Y-115570000D02*
X349250000Y-151130000D01*
X48260000Y-149860000D02*
X48260000Y-111760000D01*
X48260000Y-111760000D02*
X52070000Y-107950000D01*
X219710000Y-135836400D02*
X212395000Y-143151400D01*
X299085000Y-96520000D02*
X303530000Y-100965000D01*
X344170000Y-110490000D02*
X349250000Y-115570000D01*
X349250000Y-151130000D02*
X345440000Y-154940000D01*
X219710000Y-96609500D02*
X219710000Y-135890000D01*
X44450000Y-49530000D02*
X44450000Y-50800000D01*
X52070000Y-58420000D02*
X52070000Y-93980000D01*
X303530000Y-100965000D02*
X314325000Y-100965000D01*
X52070000Y-107950000D02*
X52070000Y-93980000D01*
X212395000Y-143151400D02*
X212395000Y-145840000D01*
X314325000Y-100965000D02*
X323850000Y-110490000D01*
X298450000Y-96520000D02*
X299085000Y-96520000D01*
X212395000Y-145840000D02*
X210870000Y-147365000D01*
X44450000Y-50800000D02*
X52070000Y-58420000D01*
X323850000Y-110490000D02*
X344170000Y-110490000D01*
%TO.N,/INT_DEV5*%
X196310000Y-194315000D02*
X197595000Y-195600000D01*
X197595000Y-195600000D02*
X198875000Y-195600000D01*
X196310000Y-187965000D02*
X196310000Y-194315000D01*
X198850000Y-185425000D02*
X196310000Y-187965000D01*
X212860000Y-185425000D02*
X198850000Y-185425000D01*
%TO.N,/IO/A11*%
X49530000Y-48260000D02*
X48183000Y-46913000D01*
X285115000Y-107315000D02*
X295910000Y-107315000D01*
X274320000Y-118110000D02*
X285115000Y-107315000D01*
X48183000Y-46913000D02*
X48183000Y-39370000D01*
%TO.N,/IO/A12*%
X245110000Y-120650000D02*
X246380000Y-121920000D01*
X285750000Y-109855000D02*
X295910000Y-109855000D01*
X255270000Y-121920000D02*
X256540000Y-120650000D01*
X233680000Y-120650000D02*
X245110000Y-120650000D01*
X246380000Y-121920000D02*
X255270000Y-121920000D01*
X257810000Y-119380000D02*
X276225000Y-119380000D01*
X257810000Y-119380000D02*
X256540000Y-120650000D01*
X276225000Y-119380000D02*
X285750000Y-109855000D01*
%TO.N,/IO/A13*%
X271780000Y-123190000D02*
X274955000Y-123190000D01*
X274955000Y-123190000D02*
X285750000Y-112395000D01*
X44450000Y-64135000D02*
X50800000Y-70485000D01*
X50800000Y-70485000D02*
X50800000Y-92710000D01*
X285750000Y-112395000D02*
X295910000Y-112395000D01*
X44450000Y-58420000D02*
X44450000Y-64135000D01*
%TO.N,/IO/A14*%
X260350000Y-123190000D02*
X267335000Y-123190000D01*
X44450000Y-72390000D02*
X37983000Y-65923000D01*
X276370000Y-124315000D02*
X285750000Y-114935000D01*
X233680000Y-118110000D02*
X234950000Y-118110000D01*
X285750000Y-114935000D02*
X295910000Y-114935000D01*
X268460000Y-124315000D02*
X276370000Y-124315000D01*
X236220000Y-116840000D02*
X255270000Y-116840000D01*
X37983000Y-65923000D02*
X37983000Y-39370000D01*
X234950000Y-118110000D02*
X236220000Y-116840000D01*
X267335000Y-123190000D02*
X268460000Y-124315000D01*
X44450000Y-93980000D02*
X44450000Y-72390000D01*
X255270000Y-116840000D02*
X256540000Y-118110000D01*
%TO.N,/IO/A15*%
X282575000Y-192405000D02*
X282575000Y-181610000D01*
X285750000Y-121285000D02*
X289560000Y-117475000D01*
X282575000Y-181610000D02*
X285750000Y-178435000D01*
X34290000Y-63500000D02*
X34290000Y-49530000D01*
X267325000Y-193030000D02*
X268450000Y-194155000D01*
X289560000Y-117475000D02*
X295910000Y-117475000D01*
X285750000Y-156210000D02*
X285750000Y-121285000D01*
X280825000Y-194155000D02*
X282575000Y-192405000D01*
X285750000Y-178435000D02*
X285750000Y-156210000D01*
X268450000Y-194155000D02*
X280825000Y-194155000D01*
%TO.N,Net-(R42-Pad1)*%
X194105000Y-146350000D02*
X194105000Y-151555000D01*
X195630000Y-144825000D02*
X194105000Y-146350000D01*
X194105000Y-151555000D02*
X196850000Y-154300000D01*
%TO.N,/BUS Expansion/D4*%
X185410000Y-202575000D02*
X191125000Y-208290000D01*
X269240000Y-151130000D02*
X271780000Y-148590000D01*
X340995000Y-196850000D02*
X356235000Y-196850000D01*
X190500000Y-164009000D02*
X190500000Y-119380000D01*
X337820000Y-164465000D02*
X337820000Y-134620000D01*
X300990000Y-127635000D02*
X295910000Y-122555000D01*
X185420000Y-164009000D02*
X185050000Y-164379000D01*
X73660000Y-100330000D02*
X68583000Y-95253000D01*
X356235000Y-196850000D02*
X363267500Y-203882500D01*
X269240000Y-163919500D02*
X269240000Y-151130000D01*
X190500000Y-119375000D02*
X195530000Y-114345000D01*
X337820000Y-193675000D02*
X340995000Y-196850000D01*
X73660000Y-135890000D02*
X73660000Y-100330000D01*
X185030000Y-202195000D02*
X185410000Y-202575000D01*
X185050000Y-164379000D02*
X185050000Y-202215000D01*
X337820000Y-134620000D02*
X345440000Y-127000000D01*
X195530000Y-114345000D02*
X195630000Y-114345000D01*
X363267500Y-203882500D02*
X363267500Y-210455000D01*
X337820000Y-164465000D02*
X337820000Y-193675000D01*
X73660000Y-165735000D02*
X73660000Y-135890000D01*
X300990000Y-164009000D02*
X300990000Y-127635000D01*
X185050000Y-202215000D02*
X185410000Y-202575000D01*
X68583000Y-95253000D02*
X68583000Y-39370000D01*
%TO.N,/BUS Expansion/D3*%
X180350000Y-208290000D02*
X183505000Y-208290000D01*
X74930000Y-100330000D02*
X69850000Y-95250000D01*
X203200000Y-122015000D02*
X210870000Y-114345000D01*
X361267500Y-203787500D02*
X355600000Y-198120000D01*
X361267500Y-210455000D02*
X361267500Y-203787500D01*
X177800000Y-163284500D02*
X177800000Y-205740000D01*
X340360000Y-198120000D02*
X336550000Y-194310000D01*
X74930000Y-133350000D02*
X74930000Y-100330000D01*
X202654500Y-163284500D02*
X202565000Y-163195000D01*
X299720000Y-163284500D02*
X299720000Y-128905000D01*
X271780000Y-151130000D02*
X271780000Y-163284500D01*
X202565000Y-122555000D02*
X203200000Y-121920000D01*
X336550000Y-163195000D02*
X336550000Y-133350000D01*
X336550000Y-133350000D02*
X345440000Y-124460000D01*
X299720000Y-128905000D02*
X295910000Y-125095000D01*
X177800000Y-205740000D02*
X180350000Y-208290000D01*
X69850000Y-95250000D02*
X69850000Y-48260000D01*
X355600000Y-198120000D02*
X340360000Y-198120000D01*
X336550000Y-194310000D02*
X336550000Y-163195000D01*
X202565000Y-163195000D02*
X202565000Y-122555000D01*
X74930000Y-165100000D02*
X74930000Y-133350000D01*
%TO.N,/BUS Expansion/D5*%
X288290000Y-135255000D02*
X295910000Y-127635000D01*
X339090000Y-135890000D02*
X345440000Y-129540000D01*
X72390000Y-138430000D02*
X72390000Y-100330000D01*
X201930000Y-164733500D02*
X201930000Y-123190000D01*
X267970000Y-164733500D02*
X267970000Y-149860000D01*
X187960000Y-197505000D02*
X191125000Y-200670000D01*
X267970000Y-149860000D02*
X271780000Y-146050000D01*
X67310000Y-95250000D02*
X67310000Y-48260000D01*
X356870000Y-195580000D02*
X365267500Y-203977500D01*
X365267500Y-203977500D02*
X365267500Y-210455000D01*
X288290000Y-164734000D02*
X288290000Y-135255000D01*
X341630000Y-195580000D02*
X356870000Y-195580000D01*
X187960000Y-164733500D02*
X187960000Y-197505000D01*
X339090000Y-193040000D02*
X341630000Y-195580000D01*
X339090000Y-165735000D02*
X339090000Y-193040000D01*
X72390000Y-100330000D02*
X67310000Y-95250000D01*
X339090000Y-165735000D02*
X339090000Y-135890000D01*
X72390000Y-166370000D02*
X72390000Y-138430000D01*
X201930000Y-123185000D02*
X195630000Y-116885000D01*
%TO.N,/BUS Expansion/D6*%
X289560000Y-165458500D02*
X289560000Y-136525000D01*
X201295000Y-158115000D02*
X201295000Y-125095000D01*
X289560000Y-136525000D02*
X295910000Y-130175000D01*
X200660000Y-165458000D02*
X200660000Y-158750000D01*
X266700000Y-148590000D02*
X271780000Y-143510000D01*
X71120000Y-167005000D02*
X71120000Y-140970000D01*
X71120000Y-100330000D02*
X67310000Y-96520000D01*
X71120000Y-140970000D02*
X71120000Y-100330000D01*
X66040000Y-49530000D02*
X66033000Y-49523000D01*
X340360000Y-137160000D02*
X345440000Y-132080000D01*
X340360000Y-167005000D02*
X340360000Y-192405000D01*
X340360000Y-192405000D02*
X342265000Y-194310000D01*
X189230000Y-165458000D02*
X189230000Y-196235000D01*
X66033000Y-49523000D02*
X66033000Y-39370000D01*
X340360000Y-167005000D02*
X340360000Y-137160000D01*
X266700000Y-165458000D02*
X266700000Y-148590000D01*
X367267500Y-204072500D02*
X367267500Y-210455000D01*
X200660000Y-158750000D02*
X201295000Y-158115000D01*
X67310000Y-96520000D02*
X66040000Y-95250000D01*
X342265000Y-194310000D02*
X357505000Y-194310000D01*
X357505000Y-194310000D02*
X367267500Y-204072500D01*
X201295000Y-125090000D02*
X195630000Y-119425000D01*
X66040000Y-95250000D02*
X66040000Y-49530000D01*
X189230000Y-196235000D02*
X191125000Y-198130000D01*
%TO.N,/BUS Expansion/D2*%
X203835000Y-162560000D02*
X203200000Y-161925000D01*
X290830000Y-140335000D02*
X295910000Y-135255000D01*
X203835000Y-123920000D02*
X210870000Y-116885000D01*
X354965000Y-199390000D02*
X359267500Y-203692500D01*
X255270000Y-149860000D02*
X256540000Y-148590000D01*
X179070000Y-198755000D02*
X180985000Y-200670000D01*
X335280000Y-161925000D02*
X335280000Y-194945000D01*
X245110000Y-148590000D02*
X246380000Y-149860000D01*
X290830000Y-162560000D02*
X290830000Y-140335000D01*
X335280000Y-161925000D02*
X335280000Y-132080000D01*
X233680000Y-148590000D02*
X245110000Y-148590000D01*
X359267500Y-203692500D02*
X359267500Y-210455000D01*
X76200000Y-100330000D02*
X71133000Y-95263000D01*
X179070000Y-162560000D02*
X179070000Y-198755000D01*
X339725000Y-199390000D02*
X354965000Y-199390000D01*
X259080000Y-162560000D02*
X259080000Y-151130000D01*
X203200000Y-124460000D02*
X203835000Y-123825000D01*
X76200000Y-164465000D02*
X76200000Y-130810000D01*
X180985000Y-200670000D02*
X183505000Y-200670000D01*
X203200000Y-161925000D02*
X203200000Y-124460000D01*
X76200000Y-130810000D02*
X76200000Y-100330000D01*
X259080000Y-151130000D02*
X256540000Y-148590000D01*
X71133000Y-95263000D02*
X71133000Y-39370000D01*
X335280000Y-132080000D02*
X345440000Y-121920000D01*
X246380000Y-149860000D02*
X255270000Y-149860000D01*
X335280000Y-194945000D02*
X339725000Y-199390000D01*
%TO.N,/BUS Expansion/D7*%
X200660000Y-126995000D02*
X195630000Y-121965000D01*
X292100000Y-166183000D02*
X292100000Y-141605000D01*
X341630000Y-191770000D02*
X342900000Y-193040000D01*
X64770000Y-95250000D02*
X64770000Y-52070000D01*
X194310000Y-166182500D02*
X194310000Y-184785000D01*
X341630000Y-168275000D02*
X341630000Y-191770000D01*
X200660000Y-157480000D02*
X200660000Y-127000000D01*
X265430000Y-147320000D02*
X271780000Y-140970000D01*
X199390000Y-166182500D02*
X199390000Y-158750000D01*
X199390000Y-158750000D02*
X200660000Y-157480000D01*
X63500000Y-50800000D02*
X63500000Y-49530000D01*
X64770000Y-52070000D02*
X63500000Y-50800000D01*
X193675000Y-185420000D02*
X193675000Y-187960000D01*
X341630000Y-168275000D02*
X341630000Y-138430000D01*
X265430000Y-166182500D02*
X265430000Y-147320000D01*
X342900000Y-193040000D02*
X358457500Y-193040000D01*
X69850000Y-100330000D02*
X64770000Y-95250000D01*
X292100000Y-141605000D02*
X295910000Y-137795000D01*
X369267500Y-203850000D02*
X369267500Y-210455000D01*
X194310000Y-184785000D02*
X193675000Y-185420000D01*
X193675000Y-187960000D02*
X191125000Y-190510000D01*
X69850000Y-167640000D02*
X69850000Y-143510000D01*
X69850000Y-143510000D02*
X69850000Y-100330000D01*
X358457500Y-193040000D02*
X369267500Y-203850000D01*
X341630000Y-138430000D02*
X345440000Y-134620000D01*
%TO.N,/BUS Expansion/D0*%
X261620000Y-160744500D02*
X261620000Y-148590000D01*
X261620000Y-148590000D02*
X256540000Y-143510000D01*
X255270000Y-144780000D02*
X256540000Y-143510000D01*
X233680000Y-143510000D02*
X245110000Y-143510000D01*
X332740000Y-159385000D02*
X332740000Y-129540000D01*
X355267500Y-203502500D02*
X355267500Y-210455000D01*
X78740000Y-125730000D02*
X78740000Y-100330000D01*
X181610000Y-160744500D02*
X181610000Y-188615000D01*
X353695000Y-201930000D02*
X355267500Y-203502500D01*
X73683000Y-95273000D02*
X73683000Y-39370000D01*
X205740000Y-160744500D02*
X205740000Y-127095000D01*
X293370000Y-142875000D02*
X295910000Y-140335000D01*
X181610000Y-188615000D02*
X183505000Y-190510000D01*
X78740000Y-163195000D02*
X78740000Y-125730000D01*
X293370000Y-160744500D02*
X293370000Y-142875000D01*
X332740000Y-129540000D02*
X345440000Y-116840000D01*
X332740000Y-196215000D02*
X338455000Y-201930000D01*
X78740000Y-100330000D02*
X73683000Y-95273000D01*
X338455000Y-201930000D02*
X353695000Y-201930000D01*
X246380000Y-144780000D02*
X255270000Y-144780000D01*
X205740000Y-127095000D02*
X210870000Y-121965000D01*
X245110000Y-143510000D02*
X246380000Y-144780000D01*
X332740000Y-159385000D02*
X332740000Y-196215000D01*
%TO.N,/BUS Expansion/D1*%
X246380000Y-147320000D02*
X255270000Y-147320000D01*
X354330000Y-200660000D02*
X357267500Y-203597500D01*
X204470000Y-161379500D02*
X204470000Y-125730000D01*
X260350000Y-149860000D02*
X256540000Y-146050000D01*
X260350000Y-161469000D02*
X260350000Y-149860000D01*
X204559500Y-161469000D02*
X204470000Y-161379500D01*
X334010000Y-130810000D02*
X345440000Y-119380000D01*
X334010000Y-195580000D02*
X339090000Y-200660000D01*
X339090000Y-200660000D02*
X354330000Y-200660000D01*
X77470000Y-163830000D02*
X77470000Y-128270000D01*
X77470000Y-100330000D02*
X72390000Y-95250000D01*
X204470000Y-125825000D02*
X210870000Y-119425000D01*
X255270000Y-147320000D02*
X256540000Y-146050000D01*
X298450000Y-145415000D02*
X295910000Y-142875000D01*
X233680000Y-146050000D02*
X245110000Y-146050000D01*
X357267500Y-203597500D02*
X357267500Y-210455000D01*
X180340000Y-161379500D02*
X180340000Y-194965000D01*
X72390000Y-95250000D02*
X72390000Y-48260000D01*
X334010000Y-160655000D02*
X334010000Y-195580000D01*
X298450000Y-161469000D02*
X298450000Y-145415000D01*
X245110000Y-146050000D02*
X246380000Y-147320000D01*
X334010000Y-160655000D02*
X334010000Y-130810000D01*
X77470000Y-128270000D02*
X77470000Y-100330000D01*
X180340000Y-194965000D02*
X183505000Y-198130000D01*
%TO.N,/{slash}INT*%
X240665000Y-154940000D02*
X241235000Y-155510000D01*
X241235000Y-193815990D02*
X238355990Y-196695000D01*
X241235000Y-155510000D02*
X241235000Y-193815990D01*
X238355990Y-196695000D02*
X230430000Y-196695000D01*
X230430000Y-196695000D02*
X229315000Y-195580000D01*
%TO.N,/HALT*%
X86360000Y-217170000D02*
X86360000Y-99060000D01*
X318770000Y-151765000D02*
X318770000Y-217259500D01*
X82550000Y-95250000D02*
X82550000Y-49530000D01*
X86360000Y-99060000D02*
X82550000Y-95250000D01*
%TO.N,/MREQ*%
X267325000Y-187950000D02*
X267325000Y-173365000D01*
X278765000Y-161925000D02*
X278765000Y-160020000D01*
X83820000Y-95250000D02*
X83820000Y-48260000D01*
X87630000Y-99060000D02*
X83820000Y-95250000D01*
X267325000Y-173365000D02*
X278765000Y-161925000D01*
X87630000Y-162560000D02*
X87630000Y-99060000D01*
%TO.N,/IORQ*%
X231150000Y-189230000D02*
X237490000Y-195570000D01*
X77470000Y-48260000D02*
X78783000Y-46947000D01*
X220980000Y-175260000D02*
X219710000Y-176530000D01*
X82550000Y-100330000D02*
X77470000Y-95250000D01*
X114030000Y-188990000D02*
X115555000Y-190515000D01*
X113650000Y-167020000D02*
X113665000Y-167005000D01*
X286385000Y-196215000D02*
X286385000Y-179070000D01*
X221695000Y-190500000D02*
X224155000Y-190500000D01*
X113650000Y-188625000D02*
X113650000Y-167020000D01*
X225425000Y-189230000D02*
X231150000Y-189230000D01*
X82550000Y-168454500D02*
X82550000Y-100330000D01*
X219710000Y-176530000D02*
X219710000Y-188515000D01*
X77470000Y-95250000D02*
X77470000Y-48260000D01*
X193040000Y-167005000D02*
X193040000Y-139795000D01*
X219710000Y-188515000D02*
X221695000Y-190500000D01*
X295910000Y-169545000D02*
X295910000Y-167005000D01*
X78783000Y-46947000D02*
X78783000Y-39370000D01*
X113650000Y-188625000D02*
X114015000Y-188990000D01*
X220980000Y-167005000D02*
X220980000Y-175260000D01*
X224155000Y-190500000D02*
X225425000Y-189230000D01*
X193040000Y-139795000D02*
X195630000Y-137205000D01*
X286385000Y-179070000D02*
X295910000Y-169545000D01*
X288290000Y-198120000D02*
X286385000Y-196215000D01*
X288290000Y-198120000D02*
X288290000Y-200660000D01*
X295910000Y-155575000D02*
X295910000Y-167005000D01*
%TO.N,Net-(D11-Pad1)*%
X398150000Y-104775000D02*
X402590000Y-104775000D01*
%TO.N,/BUSACK*%
X43180000Y-49530000D02*
X45633000Y-47077000D01*
X46990000Y-118110000D02*
X46990000Y-69850000D01*
X43180000Y-167640000D02*
X43180000Y-121920000D01*
X41910000Y-217805000D02*
X41910000Y-168910000D01*
X43180000Y-121920000D02*
X46990000Y-118110000D01*
X46990000Y-69850000D02*
X43180000Y-66040000D01*
X321310000Y-150495000D02*
X321310000Y-217805000D01*
X45633000Y-47077000D02*
X45633000Y-39370000D01*
X43180000Y-66040000D02*
X43180000Y-49530000D01*
X41910000Y-168910000D02*
X43180000Y-167640000D01*
%TO.N,/M1*%
X314960000Y-180340000D02*
X314960000Y-144145000D01*
X196265000Y-147365000D02*
X195630000Y-147365000D01*
X194350000Y-186055000D02*
X196850000Y-183555000D01*
X221695000Y-178444500D02*
X222250000Y-177889500D01*
X196760500Y-176709500D02*
X196760500Y-158740178D01*
X194350000Y-207605000D02*
X194350000Y-186055000D01*
X196850000Y-183555000D02*
X196850000Y-176799000D01*
X199390000Y-156110678D02*
X199390000Y-150495000D01*
X78740000Y-95250000D02*
X78740000Y-49530000D01*
X196760500Y-158740178D02*
X199390000Y-156110678D01*
X314960000Y-144145000D02*
X311150000Y-140335000D01*
X221695000Y-187960000D02*
X221695000Y-178444500D01*
X199390000Y-150490000D02*
X196265000Y-147365000D01*
X191125000Y-210830000D02*
X194350000Y-207605000D01*
X83820000Y-100330000D02*
X78740000Y-95250000D01*
X196850000Y-176799000D02*
X196760500Y-176709500D01*
X83820000Y-179070000D02*
X83820000Y-100330000D01*
%TO.N,/IO/A0*%
X63500000Y-95250000D02*
X63500000Y-87630000D01*
X232410000Y-140970000D02*
X233680000Y-140970000D01*
X356870000Y-151130000D02*
X360680000Y-147320000D01*
X48250000Y-171460000D02*
X48260000Y-171450000D01*
X231140000Y-167094500D02*
X231140000Y-142240000D01*
X316230000Y-167640000D02*
X316230000Y-137795000D01*
X68580000Y-100330000D02*
X63500000Y-95250000D01*
X233680000Y-140970000D02*
X245110000Y-140970000D01*
X48250000Y-185038602D02*
X48250000Y-171460000D01*
X208915000Y-141700000D02*
X210870000Y-139745000D01*
X209550000Y-151761396D02*
X208895000Y-151106396D01*
X231775000Y-167729500D02*
X231140000Y-167094500D01*
X231140000Y-142240000D02*
X232410000Y-140970000D01*
X316230000Y-167640000D02*
X316230000Y-205740000D01*
X255270000Y-142240000D02*
X256540000Y-140970000D01*
X63500000Y-52070000D02*
X62230000Y-50800000D01*
X356870000Y-170180000D02*
X356870000Y-151130000D01*
X48515000Y-185303602D02*
X48515000Y-188960000D01*
X246380000Y-142240000D02*
X255270000Y-142240000D01*
X208915000Y-146143604D02*
X208915000Y-141700000D01*
X208895000Y-151106396D02*
X208895000Y-146163604D01*
X48250000Y-185038602D02*
X48515000Y-185303602D01*
X208895000Y-146163604D02*
X208915000Y-146143604D01*
X48515000Y-188960000D02*
X46990000Y-190485000D01*
X68580000Y-168910000D02*
X68580000Y-100330000D01*
X209550000Y-167729500D02*
X209550000Y-151765000D01*
X316230000Y-137795000D02*
X311150000Y-132715000D01*
X245110000Y-140970000D02*
X246380000Y-142240000D01*
X63500000Y-87630000D02*
X63500000Y-52070000D01*
X62230000Y-50800000D02*
X62230000Y-48260000D01*
%TO.N,/IO/A1*%
X246380000Y-139700000D02*
X255270000Y-139700000D01*
X208445000Y-151292792D02*
X208445000Y-139630000D01*
X229870000Y-167998000D02*
X229870000Y-140970000D01*
X62230000Y-93980000D02*
X62230000Y-52070000D01*
X208915000Y-151762792D02*
X208445000Y-151292792D01*
X62230000Y-95250000D02*
X62230000Y-93980000D01*
X317500000Y-168910000D02*
X317500000Y-136525000D01*
X62230000Y-52070000D02*
X60933000Y-50773000D01*
X60933000Y-50773000D02*
X60933000Y-39370000D01*
X230326000Y-168454000D02*
X229870000Y-167998000D01*
X67310000Y-100330000D02*
X62230000Y-95250000D01*
X233680000Y-138430000D02*
X245110000Y-138430000D01*
X229870000Y-140970000D02*
X232410000Y-138430000D01*
X317500000Y-136525000D02*
X311150000Y-130175000D01*
X317500000Y-168910000D02*
X317500000Y-204470000D01*
X358140000Y-171450000D02*
X358140000Y-152400000D01*
X208280000Y-157480000D02*
X208915000Y-156845000D01*
X358140000Y-152400000D02*
X360680000Y-149860000D01*
X208915000Y-156845000D02*
X208915000Y-151765000D01*
X67310000Y-170180000D02*
X67310000Y-100330000D01*
X232410000Y-138430000D02*
X233680000Y-138430000D01*
X245110000Y-138430000D02*
X246380000Y-139700000D01*
X255270000Y-139700000D02*
X256540000Y-138430000D01*
X208280000Y-168454000D02*
X208280000Y-157480000D01*
X208445000Y-139630000D02*
X210870000Y-137205000D01*
%TO.N,/IO/A2*%
X373222500Y-215265000D02*
X340077500Y-215265000D01*
X60960000Y-52070000D02*
X59690000Y-50800000D01*
X66040000Y-100330000D02*
X60960000Y-95250000D01*
X59690000Y-50800000D02*
X59690000Y-48260000D01*
X60960000Y-95250000D02*
X60960000Y-52070000D01*
X245110000Y-135890000D02*
X246380000Y-137160000D01*
X374015000Y-193675000D02*
X375285000Y-194945000D01*
X246380000Y-137160000D02*
X255270000Y-137160000D01*
X308610000Y-128905000D02*
X309880000Y-127635000D01*
X375285000Y-194945000D02*
X375285000Y-213360000D01*
X340077500Y-215265000D02*
X337267500Y-212455000D01*
X309880000Y-127635000D02*
X311150000Y-127635000D01*
X359410000Y-153670000D02*
X360680000Y-152400000D01*
X66040000Y-170815000D02*
X66040000Y-100330000D01*
X359410000Y-191770000D02*
X361315000Y-193675000D01*
X228600000Y-169178500D02*
X228600000Y-139700000D01*
X308610000Y-170180000D02*
X308610000Y-128905000D01*
X228600000Y-139700000D02*
X232410000Y-135890000D01*
X255270000Y-137160000D02*
X256540000Y-135890000D01*
X359410000Y-172720000D02*
X359410000Y-191770000D01*
X375285000Y-213360000D02*
X373380000Y-215265000D01*
X359410000Y-172720000D02*
X359410000Y-153670000D01*
X232410000Y-135890000D02*
X233680000Y-135890000D01*
X361315000Y-193675000D02*
X374015000Y-193675000D01*
X233680000Y-135890000D02*
X245110000Y-135890000D01*
%TO.N,/IO/A3*%
X233680000Y-133350000D02*
X245110000Y-133350000D01*
X307340000Y-171450000D02*
X307340000Y-126365000D01*
X58383000Y-50763000D02*
X58383000Y-39370000D01*
X255270000Y-134620000D02*
X256540000Y-133350000D01*
X307340000Y-126365000D02*
X308610000Y-125095000D01*
X245110000Y-133350000D02*
X246380000Y-134620000D01*
X246380000Y-134620000D02*
X255270000Y-134620000D01*
X64770000Y-171450000D02*
X64770000Y-100330000D01*
X227330000Y-170180000D02*
X227330000Y-138430000D01*
X64770000Y-100330000D02*
X59690000Y-95250000D01*
X59690000Y-95250000D02*
X59690000Y-52070000D01*
X232410000Y-133350000D02*
X233680000Y-133350000D01*
X227330000Y-138430000D02*
X232410000Y-133350000D01*
X308610000Y-125095000D02*
X311150000Y-125095000D01*
X59690000Y-52070000D02*
X58383000Y-50763000D01*
%TO.N,/IO/A4*%
X255270000Y-132080000D02*
X256540000Y-130810000D01*
X58420000Y-95250000D02*
X58420000Y-52070000D01*
X226060000Y-170904500D02*
X226060000Y-137160000D01*
X226060000Y-137160000D02*
X232410000Y-130810000D01*
X232410000Y-130810000D02*
X233680000Y-130810000D01*
X63500000Y-100330000D02*
X58420000Y-95250000D01*
X57150000Y-50800000D02*
X57150000Y-48260000D01*
X306070000Y-123825000D02*
X307340000Y-122555000D01*
X63500000Y-172085000D02*
X63500000Y-100330000D01*
X233680000Y-130810000D02*
X245110000Y-130810000D01*
X58420000Y-52070000D02*
X57150000Y-50800000D01*
X306070000Y-172720000D02*
X306070000Y-123825000D01*
X307340000Y-122555000D02*
X311150000Y-122555000D01*
X245110000Y-130810000D02*
X246380000Y-132080000D01*
X246380000Y-132080000D02*
X255270000Y-132080000D01*
%TO.N,/IO/A5*%
X236220000Y-186680000D02*
X236220000Y-179705000D01*
X57150000Y-52070000D02*
X55833000Y-50753000D01*
X62230000Y-100330000D02*
X57150000Y-95250000D01*
X224790000Y-171629000D02*
X224790000Y-135890000D01*
X245110000Y-128270000D02*
X246380000Y-129540000D01*
X233680000Y-128270000D02*
X245110000Y-128270000D01*
X232410000Y-128270000D02*
X233680000Y-128270000D01*
X236220000Y-179705000D02*
X228144000Y-171629000D01*
X246380000Y-129540000D02*
X255270000Y-129540000D01*
X237490000Y-187950000D02*
X236220000Y-186680000D01*
X228144000Y-171629000D02*
X224790000Y-171629000D01*
X224790000Y-135890000D02*
X232410000Y-128270000D01*
X57150000Y-95250000D02*
X57150000Y-52070000D01*
X255270000Y-129540000D02*
X256540000Y-128270000D01*
X306070000Y-120015000D02*
X311150000Y-120015000D01*
X304800000Y-121285000D02*
X306070000Y-120015000D01*
X304800000Y-173990000D02*
X304800000Y-121285000D01*
X55833000Y-50753000D02*
X55833000Y-39370000D01*
X62230000Y-172720000D02*
X62230000Y-100330000D01*
%TO.N,/IO/A6*%
X223520000Y-172353500D02*
X223520000Y-134620000D01*
X226963500Y-172353500D02*
X223520000Y-172353500D01*
X245110000Y-125730000D02*
X246380000Y-127000000D01*
X233680000Y-125730000D02*
X245110000Y-125730000D01*
X255270000Y-127000000D02*
X256540000Y-125730000D01*
X234950000Y-180340000D02*
X226963500Y-172353500D01*
X234950000Y-187950000D02*
X234950000Y-180340000D01*
X237490000Y-190490000D02*
X234950000Y-187950000D01*
X303530000Y-118745000D02*
X304800000Y-117475000D01*
X246380000Y-127000000D02*
X255270000Y-127000000D01*
X303530000Y-175260000D02*
X303530000Y-118745000D01*
X304800000Y-117475000D02*
X311150000Y-117475000D01*
X60960000Y-173355000D02*
X60960000Y-100330000D01*
X55880000Y-52070000D02*
X54610000Y-50800000D01*
X60960000Y-100330000D02*
X55880000Y-95250000D01*
X55880000Y-95250000D02*
X55880000Y-52070000D01*
X223520000Y-134620000D02*
X232410000Y-125730000D01*
X54610000Y-50800000D02*
X54610000Y-48260000D01*
X232410000Y-125730000D02*
X233680000Y-125730000D01*
%TO.N,/IO/A7*%
X54610000Y-95250000D02*
X54610000Y-52070000D01*
X237490000Y-193030000D02*
X233680000Y-189220000D01*
X303530000Y-114935000D02*
X311150000Y-114935000D01*
X59690000Y-100330000D02*
X54610000Y-95250000D01*
X225783000Y-173078000D02*
X222250000Y-173078000D01*
X59690000Y-173990000D02*
X59690000Y-100330000D01*
X233680000Y-180975000D02*
X225783000Y-173078000D01*
X302260000Y-176530000D02*
X302260000Y-116205000D01*
X233680000Y-189220000D02*
X233680000Y-180975000D01*
X245110000Y-123190000D02*
X246380000Y-124460000D01*
X233680000Y-123190000D02*
X245110000Y-123190000D01*
X222250000Y-173078000D02*
X222250000Y-133350000D01*
X302260000Y-116205000D02*
X303530000Y-114935000D01*
X255270000Y-124460000D02*
X256540000Y-123190000D01*
X54610000Y-52070000D02*
X53283000Y-50743000D01*
X232410000Y-123190000D02*
X233680000Y-123190000D01*
X222250000Y-133350000D02*
X232410000Y-123190000D01*
X246380000Y-124460000D02*
X255270000Y-124460000D01*
X53283000Y-50743000D02*
X53283000Y-39370000D01*
%TO.N,/IO/A8*%
X253350000Y-180990000D02*
X264160000Y-170180000D01*
X264160000Y-133350000D02*
X271780000Y-125730000D01*
X264160000Y-170180000D02*
X264160000Y-133350000D01*
X253350000Y-188060000D02*
X253350000Y-180990000D01*
X241300000Y-114935000D02*
X272415000Y-114935000D01*
X253350000Y-188060000D02*
X253350000Y-190600000D01*
X311785000Y-104775000D02*
X313055000Y-106045000D01*
X313055000Y-111125000D02*
X311785000Y-112395000D01*
X311785000Y-112395000D02*
X311150000Y-112395000D01*
X313055000Y-106045000D02*
X313055000Y-111125000D01*
X272415000Y-114935000D02*
X282575000Y-104775000D01*
X282575000Y-104775000D02*
X311785000Y-104775000D01*
%TO.N,/IO/A9*%
X50800000Y-49530000D02*
X50733000Y-49463000D01*
X288435000Y-116060000D02*
X299865000Y-116060000D01*
X50733000Y-49463000D02*
X50733000Y-39370000D01*
X299865000Y-116060000D02*
X306070000Y-109855000D01*
X276225000Y-128270000D02*
X288435000Y-116060000D01*
X306070000Y-109855000D02*
X311150000Y-109855000D01*
X271780000Y-128270000D02*
X276225000Y-128270000D01*
%TO.N,/IO/A10*%
X311150000Y-107315000D02*
X309880000Y-106045000D01*
X283845000Y-106045000D02*
X275590000Y-114300000D01*
X309880000Y-106045000D02*
X283845000Y-106045000D01*
%TO.N,/ROM_CE*%
X266065000Y-177165000D02*
X266065000Y-194310000D01*
X266065000Y-194310000D02*
X267325000Y-195570000D01*
X246380000Y-177165000D02*
X246380000Y-153670000D01*
%TO.N,/RAM_CE*%
X278130000Y-138430000D02*
X271780000Y-138430000D01*
X280670000Y-140970000D02*
X278130000Y-138430000D01*
X280670000Y-191770000D02*
X280670000Y-140970000D01*
%TO.N,/PPI_CE*%
X92710000Y-96520000D02*
X100340000Y-96520000D01*
X244465000Y-190490000D02*
X245110000Y-190490000D01*
X90170000Y-99060000D02*
X92710000Y-96520000D01*
X90170000Y-180975000D02*
X90170000Y-99060000D01*
X243205000Y-189230000D02*
X244465000Y-190490000D01*
X243205000Y-180975000D02*
X243205000Y-189230000D01*
X100340000Y-96520000D02*
X105415000Y-91445000D01*
%TO.N,/RESET_IO*%
X120015000Y-83185000D02*
X112395000Y-83185000D01*
X112395000Y-83185000D02*
X105415000Y-76205000D01*
%TO.N,Net-(U5-Pad15)*%
X345440000Y-152400000D02*
X347980000Y-149860000D01*
X347980000Y-139700000D02*
X345440000Y-137160000D01*
X347980000Y-149860000D02*
X347980000Y-139700000D01*
%TO.N,/RX*%
X368300000Y-151130000D02*
X368222500Y-151207500D01*
X368222500Y-151207500D02*
X368222500Y-157165000D01*
X372110000Y-149860000D02*
X372110000Y-143510000D01*
X368300000Y-151130000D02*
X370840000Y-151130000D01*
X370840000Y-151130000D02*
X372110000Y-149860000D01*
%TO.N,/TX*%
X365605000Y-159865000D02*
X368300000Y-159865000D01*
X374650000Y-140970000D02*
X374650000Y-153670000D01*
X372110000Y-138430000D02*
X374650000Y-140970000D01*
X365125000Y-159385000D02*
X365605000Y-159865000D01*
%TO.N,/UART_CE*%
X247640000Y-190500000D02*
X245110000Y-193030000D01*
X344170000Y-149860000D02*
X345440000Y-149860000D01*
X247640000Y-180985000D02*
X247650000Y-180975000D01*
X247640000Y-190500000D02*
X247640000Y-180985000D01*
X342900000Y-182880000D02*
X342900000Y-151130000D01*
X342900000Y-151130000D02*
X344170000Y-149860000D01*
%TO.N,Net-(Q4-Pad2)*%
X288290000Y-88265000D02*
X293370000Y-88265000D01*
%TO.N,Net-(U5-Pad32)*%
X361950000Y-168275000D02*
X362585000Y-168275000D01*
X354330000Y-168275000D02*
X354330000Y-143510000D01*
X354330000Y-143510000D02*
X360680000Y-137160000D01*
X362585000Y-168275000D02*
X367195000Y-163665000D01*
X367195000Y-163665000D02*
X368222500Y-163665000D01*
%TO.N,/DTR*%
X360680000Y-134620000D02*
X363855000Y-137795000D01*
X363855000Y-137795000D02*
X363855000Y-158539695D01*
X364400000Y-159084695D02*
X364400000Y-162470000D01*
X368222500Y-162365000D02*
X368222500Y-163015000D01*
X364945000Y-163015000D02*
X368222500Y-163015000D01*
X364400000Y-162470000D02*
X364945000Y-163015000D01*
X363855000Y-158539695D02*
X364400000Y-159084695D01*
%TO.N,Net-(U5-Pad36)*%
X360680000Y-127000000D02*
X365945000Y-132265000D01*
X367236104Y-158565000D02*
X368300000Y-158565000D01*
X365945000Y-132265000D02*
X365945000Y-157273896D01*
X365945000Y-157273896D02*
X367236104Y-158565000D01*
%TO.N,/DSR*%
X366395000Y-130175000D02*
X360680000Y-124460000D01*
X368222500Y-157815000D02*
X367122500Y-157815000D01*
X367122500Y-157815000D02*
X366395000Y-157087500D01*
X366395000Y-140970000D02*
X372110000Y-140970000D01*
X366395000Y-157087500D02*
X366395000Y-130175000D01*
X360680000Y-121920000D02*
X360680000Y-124460000D01*
%TO.N,/VIDEO/AD0*%
X138035000Y-119465000D02*
X137160000Y-120340000D01*
X137160000Y-133445000D02*
X138430000Y-134715000D01*
X137310000Y-148820000D02*
X138435000Y-149945000D01*
X138435000Y-119465000D02*
X138035000Y-119465000D01*
X138430000Y-134715000D02*
X137310000Y-135835000D01*
X137310000Y-135835000D02*
X137310000Y-148820000D01*
X137160000Y-120340000D02*
X137160000Y-133445000D01*
%TO.N,/VIDEO/AD1*%
X139700000Y-120340000D02*
X139700000Y-133445000D01*
X139850000Y-135835000D02*
X139850000Y-143655000D01*
X140975000Y-144780000D02*
X140975000Y-149945000D01*
X140975000Y-119465000D02*
X140575000Y-119465000D01*
X139850000Y-143655000D02*
X140975000Y-144780000D01*
X139700000Y-133445000D02*
X140970000Y-134715000D01*
X140575000Y-119465000D02*
X139700000Y-120340000D01*
X140970000Y-134715000D02*
X139850000Y-135835000D01*
%TO.N,/VIDEO/AD2*%
X142390000Y-143655000D02*
X143515000Y-144780000D01*
X143515000Y-119465000D02*
X143115000Y-119465000D01*
X142240000Y-120340000D02*
X142240000Y-133445000D01*
X143515000Y-144780000D02*
X143515000Y-149945000D01*
X142390000Y-135835000D02*
X142390000Y-143655000D01*
X143510000Y-134715000D02*
X142390000Y-135835000D01*
X142240000Y-133445000D02*
X143510000Y-134715000D01*
X143115000Y-119465000D02*
X142240000Y-120340000D01*
%TO.N,/VIDEO/AD3*%
X146055000Y-144780000D02*
X146055000Y-149945000D01*
X146050000Y-134715000D02*
X144930000Y-135835000D01*
X146055000Y-119465000D02*
X144925000Y-120595000D01*
X144925000Y-120595000D02*
X144925000Y-133590000D01*
X144925000Y-133590000D02*
X146050000Y-134715000D01*
X144930000Y-143655000D02*
X146055000Y-144780000D01*
X144930000Y-135835000D02*
X144930000Y-143655000D01*
%TO.N,/VIDEO/AD4*%
X148195000Y-119465000D02*
X147320000Y-120340000D01*
X147470000Y-135835000D02*
X147470000Y-143655000D01*
X148595000Y-119465000D02*
X148195000Y-119465000D01*
X148595000Y-144780000D02*
X148595000Y-149945000D01*
X147320000Y-133445000D02*
X148590000Y-134715000D01*
X148590000Y-134715000D02*
X147470000Y-135835000D01*
X147470000Y-143655000D02*
X148595000Y-144780000D01*
X147320000Y-120340000D02*
X147320000Y-133445000D01*
%TO.N,/VIDEO/AD5*%
X150010000Y-135835000D02*
X150010000Y-146195000D01*
X151130000Y-134715000D02*
X150010000Y-135835000D01*
X151135000Y-147320000D02*
X151135000Y-149945000D01*
X150005000Y-120595000D02*
X150005000Y-133590000D01*
X150010000Y-146195000D02*
X151135000Y-147320000D01*
X151135000Y-119465000D02*
X150005000Y-120595000D01*
X150005000Y-133590000D02*
X151130000Y-134715000D01*
%TO.N,/VIDEO/AD6*%
X152545000Y-133590000D02*
X153670000Y-134715000D01*
X152550000Y-135835000D02*
X152550000Y-145602500D01*
X153675000Y-146727500D02*
X153675000Y-149945000D01*
X152545000Y-120595000D02*
X152545000Y-133590000D01*
X153675000Y-119465000D02*
X152545000Y-120595000D01*
X153670000Y-134715000D02*
X152550000Y-135835000D01*
X152550000Y-145602500D02*
X153675000Y-146727500D01*
%TO.N,/VIDEO/AD7*%
X155085000Y-120595000D02*
X155085000Y-133590000D01*
X155085000Y-133590000D02*
X156210000Y-134715000D01*
X156215000Y-146050000D02*
X156215000Y-149945000D01*
X155090000Y-135835000D02*
X155090000Y-144925000D01*
X155090000Y-144925000D02*
X156215000Y-146050000D01*
X156210000Y-134715000D02*
X155090000Y-135835000D01*
X156215000Y-119465000D02*
X155085000Y-120595000D01*
%TO.N,Net-(U17-Pad2)*%
X187325000Y-111755000D02*
X165490305Y-111755000D01*
X149865000Y-190500000D02*
X149465000Y-190500000D01*
X159570000Y-111030000D02*
X158755000Y-111845000D01*
X187960000Y-156845000D02*
X187960000Y-112390000D01*
X147315000Y-188350000D02*
X147445000Y-188480000D01*
X164765305Y-111030000D02*
X159570000Y-111030000D01*
X147315000Y-188350000D02*
X147315000Y-156934500D01*
X165490305Y-111755000D02*
X164765305Y-111030000D01*
X147315000Y-156934500D02*
X147320000Y-156929500D01*
X147325000Y-188360000D02*
X147445000Y-188480000D01*
X149465000Y-190500000D02*
X147445000Y-188480000D01*
X187960000Y-112390000D02*
X187325000Y-111755000D01*
%TO.N,/VIDEO/VA6*%
X168900000Y-124465000D02*
X166380000Y-124465000D01*
X165100000Y-123185000D02*
X165100000Y-116835000D01*
X157770000Y-114585000D02*
X156215000Y-113030000D01*
X156215000Y-113030000D02*
X156215000Y-111845000D01*
X165100000Y-116835000D02*
X162850000Y-114585000D01*
X168910000Y-124455000D02*
X168900000Y-124465000D01*
X166380000Y-124465000D02*
X165100000Y-123185000D01*
X162850000Y-114585000D02*
X157770000Y-114585000D01*
%TO.N,/VIDEO/VA5*%
X162030000Y-115035000D02*
X154410000Y-115035000D01*
X164650000Y-117655000D02*
X162030000Y-115035000D01*
X154410000Y-115035000D02*
X153670000Y-114295000D01*
X166380000Y-127005000D02*
X164650000Y-125275000D01*
X164650000Y-125275000D02*
X164650000Y-117655000D01*
X153675000Y-114290000D02*
X153675000Y-111845000D01*
X168900000Y-127005000D02*
X166380000Y-127005000D01*
X153670000Y-114295000D02*
X153675000Y-114290000D01*
X168910000Y-126995000D02*
X168900000Y-127005000D01*
%TO.N,/VIDEO/VA4*%
X186690000Y-113025000D02*
X186690000Y-129535000D01*
X186055000Y-112390000D02*
X186690000Y-113025000D01*
X186690000Y-129535000D02*
X184150000Y-132075000D01*
X163830000Y-112390000D02*
X186055000Y-112390000D01*
%TO.N,/VIDEO/VA3*%
X148595000Y-114300000D02*
X148595000Y-111845000D01*
X166380000Y-129545000D02*
X164200000Y-127365000D01*
X164200000Y-127365000D02*
X164200000Y-118475000D01*
X168910000Y-129535000D02*
X168900000Y-129545000D01*
X168900000Y-129545000D02*
X166380000Y-129545000D01*
X164200000Y-118475000D02*
X161210000Y-115485000D01*
X149780000Y-115485000D02*
X148595000Y-114300000D01*
X161210000Y-115485000D02*
X149780000Y-115485000D01*
%TO.N,/VIDEO/VA2*%
X160390000Y-115935000D02*
X147690000Y-115935000D01*
X163750000Y-119295000D02*
X160390000Y-115935000D01*
X147690000Y-115935000D02*
X146050000Y-114295000D01*
X146055000Y-114290000D02*
X146055000Y-111845000D01*
X168910000Y-132075000D02*
X166000000Y-132075000D01*
X163750000Y-129825000D02*
X163750000Y-119295000D01*
X166000000Y-132075000D02*
X163750000Y-129825000D01*
X146050000Y-114295000D02*
X146055000Y-114290000D01*
%TO.N,/VIDEO/VA1*%
X163300000Y-120113807D02*
X159571193Y-116385000D01*
X159571193Y-116385000D02*
X145600000Y-116385000D01*
X145600000Y-116385000D02*
X143510000Y-114295000D01*
X168900000Y-134625000D02*
X166380000Y-134625000D01*
X143515000Y-114290000D02*
X143515000Y-111845000D01*
X163300000Y-131545000D02*
X163300000Y-120113807D01*
X143510000Y-114295000D02*
X143515000Y-114290000D01*
X168910000Y-134615000D02*
X168900000Y-134625000D01*
X166380000Y-134625000D02*
X163300000Y-131545000D01*
%TO.N,/VIDEO/VA0*%
X168910000Y-137155000D02*
X168900000Y-137165000D01*
X140975000Y-114300000D02*
X140975000Y-111845000D01*
X168900000Y-137165000D02*
X166380000Y-137165000D01*
X143510000Y-116835000D02*
X140975000Y-114300000D01*
X166380000Y-137165000D02*
X162850000Y-133635000D01*
X159067995Y-116835000D02*
X143510000Y-116835000D01*
X162850000Y-120617005D02*
X159067995Y-116835000D01*
X162850000Y-133635000D02*
X162850000Y-120617005D01*
%TO.N,Net-(U17-Pad6)*%
X146055000Y-196830000D02*
X146055000Y-157485000D01*
X161290000Y-129635000D02*
X158750000Y-127095000D01*
X146055000Y-196830000D02*
X146045000Y-196840000D01*
X146045000Y-196840000D02*
X149865000Y-200660000D01*
X146055000Y-157485000D02*
X146050000Y-157480000D01*
X161290000Y-157569500D02*
X161290000Y-129635000D01*
%TO.N,Net-(U10-Pad1)*%
X155575000Y-187621398D02*
X155575000Y-193670000D01*
X100330000Y-138425000D02*
X97790000Y-135885000D01*
X156210000Y-186986398D02*
X155575000Y-187621398D01*
X156210000Y-186986398D02*
X156210000Y-158204500D01*
X97785000Y-135890000D02*
X95250000Y-135890000D01*
X189230000Y-116835000D02*
X189230000Y-157480000D01*
X97790000Y-135885000D02*
X97785000Y-135890000D01*
X100330000Y-160015000D02*
X100330000Y-138425000D01*
X155575000Y-193670000D02*
X157485000Y-195580000D01*
%TO.N,Net-(U10-Pad11)*%
X175260000Y-138425000D02*
X184150000Y-129535000D01*
X163830000Y-138425000D02*
X175260000Y-138425000D01*
X160015000Y-143585000D02*
X158755000Y-142325000D01*
X162560000Y-139695000D02*
X163830000Y-138425000D01*
X157485000Y-198120000D02*
X160015000Y-195590000D01*
X162560000Y-142235000D02*
X162560000Y-139695000D01*
X160015000Y-195590000D02*
X160015000Y-143585000D01*
%TO.N,/VIDEO/VD7*%
X155419805Y-156205000D02*
X155240305Y-156384500D01*
X112395000Y-150495000D02*
X110490000Y-148590000D01*
X157390500Y-156205000D02*
X155419805Y-156205000D01*
X180975000Y-156294500D02*
X180975000Y-140330000D01*
X155240305Y-156384500D02*
X154639695Y-156384500D01*
X112395000Y-154300698D02*
X112395000Y-150495000D01*
X157480000Y-156294500D02*
X157480000Y-146045000D01*
X114299302Y-156205000D02*
X112395000Y-154300698D01*
X156210000Y-144775000D02*
X156215000Y-144770000D01*
X180975000Y-140330000D02*
X184150000Y-137155000D01*
X157480000Y-146045000D02*
X156210000Y-144775000D01*
X157480000Y-156294500D02*
X157390500Y-156205000D01*
X156215000Y-144770000D02*
X156215000Y-142325000D01*
X154639695Y-156384500D02*
X154460195Y-156205000D01*
X154460195Y-156205000D02*
X114299302Y-156205000D01*
%TO.N,/VIDEO/VD6*%
X113030000Y-153665000D02*
X113030000Y-148585000D01*
X114935000Y-155570000D02*
X113030000Y-153665000D01*
X152879805Y-155570000D02*
X152700305Y-155749500D01*
X151920195Y-155570000D02*
X114935000Y-155570000D01*
X152099695Y-155749500D02*
X151920195Y-155570000D01*
X113030000Y-148585000D02*
X110490000Y-146045000D01*
X154940000Y-155659500D02*
X154940000Y-146680000D01*
X154850500Y-155570000D02*
X152879805Y-155570000D01*
X154940000Y-155659500D02*
X154850500Y-155570000D01*
X152700305Y-155749500D02*
X152099695Y-155749500D01*
X182245000Y-141600000D02*
X184150000Y-139695000D01*
X182245000Y-155659500D02*
X182245000Y-141600000D01*
X153675000Y-145415000D02*
X153675000Y-142325000D01*
X154940000Y-146680000D02*
X153675000Y-145415000D01*
%TO.N,/VIDEO/VD5*%
X113665000Y-153030000D02*
X113665000Y-146685000D01*
X187235500Y-154935000D02*
X187235500Y-145320500D01*
X151135000Y-146050000D02*
X151135000Y-142325000D01*
X152400000Y-155024500D02*
X152310500Y-154935000D01*
X149380195Y-154935000D02*
X115570000Y-154935000D01*
X115570000Y-154935000D02*
X113665000Y-153030000D01*
X149559695Y-155114500D02*
X149380195Y-154935000D01*
X113665000Y-146685000D02*
X110490000Y-143510000D01*
X187235500Y-145320500D02*
X184150000Y-142235000D01*
X152400000Y-147315000D02*
X151135000Y-146050000D01*
X150339805Y-154935000D02*
X150160305Y-155114500D01*
X150160305Y-155114500D02*
X149559695Y-155114500D01*
X152400000Y-155024500D02*
X152400000Y-147315000D01*
X152310500Y-154935000D02*
X150339805Y-154935000D01*
%TO.N,/VIDEO/VD4*%
X148595000Y-143510000D02*
X148595000Y-142325000D01*
X149860000Y-154389500D02*
X149860000Y-148585698D01*
X149770500Y-154300000D02*
X116205000Y-154300000D01*
X114300000Y-144780000D02*
X110490000Y-140970000D01*
X116205000Y-154300000D02*
X114300000Y-152395000D01*
X186055000Y-154300000D02*
X186055000Y-146680000D01*
X149860000Y-154389500D02*
X149770500Y-154300000D01*
X114300000Y-152395000D02*
X114300000Y-144780000D01*
X186055000Y-146680000D02*
X184150000Y-144775000D01*
X149560000Y-144475000D02*
X148595000Y-143510000D01*
X149560000Y-148285698D02*
X149560000Y-144475000D01*
X149860000Y-148585698D02*
X149560000Y-148285698D01*
%TO.N,/VIDEO/VD3*%
X146055000Y-143510000D02*
X146055000Y-142325000D01*
X147320000Y-151760000D02*
X147320000Y-144775000D01*
X116840000Y-153665000D02*
X114935000Y-151760000D01*
X146050000Y-153665000D02*
X116840000Y-153665000D01*
X111130000Y-138430000D02*
X110490000Y-138430000D01*
X114935000Y-151760000D02*
X114935000Y-142235000D01*
X147320000Y-151760000D02*
X147320000Y-152395000D01*
X114935000Y-142235000D02*
X111130000Y-138430000D01*
X147320000Y-144775000D02*
X146055000Y-143510000D01*
X147320000Y-152395000D02*
X146050000Y-153665000D01*
%TO.N,/VIDEO/VD2*%
X143510000Y-153030000D02*
X117475000Y-153030000D01*
X143515000Y-143510000D02*
X143515000Y-142325000D01*
X170815000Y-146680000D02*
X168910000Y-144775000D01*
X170815000Y-152484500D02*
X170815000Y-146680000D01*
X115570000Y-151125000D02*
X115570000Y-140965000D01*
X115570000Y-140965000D02*
X110495000Y-135890000D01*
X144780000Y-151760000D02*
X143510000Y-153030000D01*
X144780000Y-151760000D02*
X144780000Y-144775000D01*
X110495000Y-135890000D02*
X110490000Y-135890000D01*
X144780000Y-144775000D02*
X143515000Y-143510000D01*
X117475000Y-153030000D02*
X115570000Y-151125000D01*
%TO.N,/VIDEO/VD1*%
X141605000Y-152395000D02*
X140090305Y-152395000D01*
X142240000Y-151760000D02*
X141605000Y-152395000D01*
X116205000Y-139065000D02*
X110490000Y-133350000D01*
X142240000Y-151760000D02*
X142240000Y-144775000D01*
X139309695Y-152395000D02*
X118110000Y-152395000D01*
X116205000Y-150490000D02*
X116205000Y-139065000D01*
X142240000Y-144775000D02*
X140975000Y-143510000D01*
X172085000Y-153030000D02*
X172085000Y-145410000D01*
X139399695Y-152485000D02*
X139309695Y-152395000D01*
X140090305Y-152395000D02*
X140000305Y-152485000D01*
X140975000Y-143510000D02*
X140975000Y-142325000D01*
X118110000Y-152395000D02*
X116205000Y-150490000D01*
X140000305Y-152485000D02*
X139399695Y-152485000D01*
X172085000Y-145410000D02*
X168910000Y-142235000D01*
%TO.N,/VIDEO/VD0*%
X139700000Y-151760000D02*
X118745000Y-151760000D01*
X139700000Y-145410000D02*
X138430000Y-144140000D01*
X139700000Y-151760000D02*
X139700000Y-145410000D01*
X116840000Y-149855000D02*
X116840000Y-137160000D01*
X138430000Y-144140000D02*
X138435000Y-144135000D01*
X116840000Y-137160000D02*
X110490000Y-130810000D01*
X173355000Y-144140000D02*
X168910000Y-139695000D01*
X173355000Y-153665000D02*
X173355000Y-144140000D01*
X138435000Y-144135000D02*
X138435000Y-142325000D01*
X118745000Y-151760000D02*
X116840000Y-149855000D01*
%TO.N,/VIDEO/{slash}CAS*%
X154940000Y-199400000D02*
X154940000Y-159385000D01*
X101600000Y-161830500D02*
X101600000Y-116835000D01*
X156200000Y-200660000D02*
X157485000Y-200660000D01*
X154940000Y-199400000D02*
X156200000Y-200660000D01*
X179705000Y-159385000D02*
X179705000Y-139060000D01*
X97790000Y-113025000D02*
X95250000Y-113025000D01*
X179705000Y-139060000D02*
X184150000Y-134615000D01*
X101600000Y-116835000D02*
X97790000Y-113025000D01*
%TO.N,Net-(U13-Pad12)*%
X260970000Y-190600000D02*
X263525000Y-188045000D01*
X263525000Y-188045000D02*
X263525000Y-179070000D01*
X355600000Y-147320000D02*
X360680000Y-142240000D01*
X355600000Y-181610000D02*
X355600000Y-147320000D01*
X260985000Y-190600000D02*
X260985000Y-193140000D01*
%TO.N,/CF_CE*%
X242570000Y-205730000D02*
X245110000Y-203190000D01*
X242570000Y-210185000D02*
X242570000Y-205730000D01*
%TO.N,/CTC_CE*%
X242480000Y-180674695D02*
X242480000Y-198020000D01*
X210820000Y-177165000D02*
X210820000Y-152400000D01*
X209345000Y-146350000D02*
X210870000Y-144825000D01*
X210820000Y-152395000D02*
X209345000Y-150920000D01*
X242570000Y-180584695D02*
X242480000Y-180674695D01*
X209345000Y-150920000D02*
X209345000Y-146350000D01*
X242480000Y-198020000D02*
X245110000Y-200650000D01*
X242570000Y-177165000D02*
X242570000Y-180584695D01*
%TO.N,/PSG_CE*%
X245110000Y-198025000D02*
X245110000Y-198110000D01*
X250190000Y-192945000D02*
X245110000Y-198025000D01*
X44480000Y-194300000D02*
X44480000Y-196840000D01*
X250190000Y-192945000D02*
X250190000Y-175895000D01*
X45745000Y-198105000D02*
X46990000Y-198105000D01*
X46990000Y-193025000D02*
X45755000Y-193025000D01*
X45087500Y-191122500D02*
X46990000Y-193025000D01*
X45087500Y-191122500D02*
X45087500Y-177802500D01*
X45087500Y-177802500D02*
X45085000Y-177800000D01*
X44480000Y-196840000D02*
X45745000Y-198105000D01*
X45755000Y-193025000D02*
X44480000Y-194300000D01*
%TO.N,/VDP_CE*%
X248920000Y-191760000D02*
X245110000Y-195570000D01*
X115555000Y-187975000D02*
X115555000Y-175364500D01*
X115555000Y-175364500D02*
X115570000Y-175349500D01*
X248920000Y-175349500D02*
X248920000Y-191760000D01*
%TO.N,/VIDEO/{slash}CSR*%
X99060000Y-198120000D02*
X101600000Y-200660000D01*
X95250000Y-146045000D02*
X97155000Y-146045000D01*
X101600000Y-200660000D02*
X101912500Y-200660000D01*
X101897500Y-200675000D02*
X115555000Y-200675000D01*
X99060000Y-147955000D02*
X99060000Y-198120000D01*
X97155000Y-146045000D02*
X99060000Y-147950000D01*
%TO.N,/VIDEO/{slash}CSW*%
X121920000Y-204470000D02*
X123175000Y-203215000D01*
X100497500Y-204470000D02*
X121920000Y-204470000D01*
X93345000Y-145415000D02*
X93345000Y-158835990D01*
X96520000Y-200492500D02*
X100497500Y-204470000D01*
X95250000Y-143510000D02*
X93345000Y-145415000D01*
X93345000Y-158835990D02*
X96520000Y-162010990D01*
X96520000Y-162010990D02*
X96520000Y-200492500D01*
%TO.N,/VIDEO/{slash}RAS*%
X102870000Y-161195500D02*
X102870000Y-115881802D01*
X102870000Y-115881802D02*
X97473198Y-110485000D01*
X97473198Y-110485000D02*
X95250000Y-110485000D01*
X149865000Y-158844500D02*
X149860000Y-158839500D01*
X149865000Y-187960000D02*
X149865000Y-158844500D01*
%TO.N,Net-(U17-Pad3)*%
X149865000Y-193040000D02*
X153665000Y-196840000D01*
X153665000Y-199380000D02*
X157485000Y-203200000D01*
X153665000Y-196840000D02*
X153665000Y-199380000D01*
%TO.N,Net-(U17-Pad4)*%
X149865000Y-195580000D02*
X149865000Y-198120000D01*
%TO.N,Net-(U20-Pad1)*%
X46990000Y-153615000D02*
X54630000Y-145975000D01*
X46990000Y-153615000D02*
X46990000Y-187945000D01*
%TO.N,Net-(U20-Pad4)*%
X49570000Y-182519009D02*
X49570000Y-156115000D01*
X49570000Y-182519009D02*
X50800000Y-183749009D01*
X50830000Y-183779009D02*
X50830000Y-193030000D01*
X48295000Y-195565000D02*
X46990000Y-195565000D01*
X54630000Y-151055000D02*
X49570000Y-156115000D01*
X50830000Y-193030000D02*
X48295000Y-195565000D01*
%TO.N,/SOUND/ROW7*%
X31750000Y-176530000D02*
X31750000Y-166370000D01*
%TO.N,/SOUND/ROW6*%
X39390000Y-133275000D02*
X38175000Y-133275000D01*
X38175000Y-133275000D02*
X34290000Y-137160000D01*
X34290000Y-148590000D02*
X31750000Y-151130000D01*
X34290000Y-137160000D02*
X34290000Y-148590000D01*
%TO.N,/SOUND/ROW5*%
X39390000Y-135815000D02*
X38810000Y-135815000D01*
X38810000Y-135815000D02*
X35030000Y-139595000D01*
X35030000Y-139595000D02*
X35030000Y-150390000D01*
X35030000Y-150390000D02*
X31750000Y-153670000D01*
%TO.N,/SOUND/ROW4*%
X39390000Y-138355000D02*
X38175000Y-138355000D01*
X38175000Y-138355000D02*
X35480000Y-141050000D01*
X35480000Y-141050000D02*
X35480000Y-152480000D01*
X35480000Y-152480000D02*
X31750000Y-156210000D01*
%TO.N,/SOUND/ROW3*%
X35930000Y-143140000D02*
X35930000Y-154570000D01*
X38175000Y-140895000D02*
X35930000Y-143140000D01*
X35930000Y-154570000D02*
X31750000Y-158750000D01*
X39390000Y-140895000D02*
X38175000Y-140895000D01*
%TO.N,/SOUND/ROW2*%
X39390000Y-143435000D02*
X38175000Y-143435000D01*
X38175000Y-143435000D02*
X36380000Y-145230000D01*
X36380000Y-145230000D02*
X36380000Y-156660000D01*
X36380000Y-156660000D02*
X31750000Y-161290000D01*
%TO.N,/SOUND/ROW1*%
X39390000Y-145975000D02*
X38175000Y-145975000D01*
X36830000Y-158750000D02*
X31750000Y-163830000D01*
X36830000Y-147320000D02*
X36830000Y-158750000D01*
X38175000Y-145975000D02*
X36830000Y-147320000D01*
%TO.N,/SOUND/COL7*%
X25400000Y-175260000D02*
X25400000Y-144780000D01*
X25400000Y-144780000D02*
X31750000Y-138430000D01*
%TO.N,/SOUND/COL6*%
X21590000Y-140970000D02*
X31750000Y-130810000D01*
X21590000Y-173990000D02*
X21590000Y-140970000D01*
%TO.N,/SOUND/COL5*%
X22860000Y-172720000D02*
X22860000Y-142240000D01*
X22860000Y-142240000D02*
X31750000Y-133350000D01*
%TO.N,/SOUND/COL4*%
X24130000Y-171450000D02*
X24130000Y-143510000D01*
X24130000Y-143510000D02*
X31750000Y-135890000D01*
%TO.N,/SOUND/COL3*%
X20320000Y-139700000D02*
X31750000Y-128270000D01*
X20320000Y-170180000D02*
X20320000Y-139700000D01*
%TO.N,/SOUND/COL2*%
X26670000Y-146050000D02*
X31750000Y-140970000D01*
X26670000Y-168910000D02*
X26670000Y-146050000D01*
%TO.N,/SOUND/COL1*%
X27940000Y-167640000D02*
X27940000Y-147320000D01*
X27940000Y-147320000D02*
X31750000Y-143510000D01*
%TO.N,/SOUND/COL0*%
X29210000Y-177800000D02*
X29210000Y-148590000D01*
X29210000Y-148590000D02*
X31750000Y-146050000D01*
D48*
%TO.N,VCC*%
X314970000Y-74415564D02*
X312560000Y-74415564D01*
X135790000Y-126995000D02*
X135890000Y-127095000D01*
D47*
X255270000Y-81915000D02*
X255905000Y-81280000D01*
X248285000Y-80645000D02*
X249555000Y-81915000D01*
X123175000Y-184185000D02*
X123190000Y-184170000D01*
D48*
X132080000Y-111755000D02*
X132080000Y-104140000D01*
X132080000Y-126995000D02*
X135790000Y-126995000D01*
D47*
X383620000Y-162560000D02*
X384810000Y-163750000D01*
D48*
X360680000Y-81280000D02*
X372745000Y-81280000D01*
D47*
X191125000Y-184200000D02*
X191175000Y-184150000D01*
D48*
X132080000Y-142275000D02*
X135845000Y-142275000D01*
D47*
X191125000Y-187970000D02*
X191125000Y-184200000D01*
X56970500Y-120375500D02*
X56970500Y-146174500D01*
X56970500Y-146174500D02*
X54630000Y-148515000D01*
D48*
X117515000Y-124455000D02*
X114340000Y-127630000D01*
X383540000Y-152400000D02*
X386310000Y-155170000D01*
X360645000Y-116805000D02*
X360680000Y-116840000D01*
X309890000Y-60970000D02*
X309880000Y-60960000D01*
X372765000Y-81300000D02*
X372745000Y-81280000D01*
X360645000Y-97825000D02*
X360680000Y-97790000D01*
X132080000Y-111755000D02*
X129540000Y-114295000D01*
X87640000Y-50800000D02*
X95260000Y-50800000D01*
X309890000Y-66035000D02*
X309890000Y-60970000D01*
X311799436Y-66035000D02*
X312420000Y-66655564D01*
X128190000Y-76120000D02*
X128275000Y-76205000D01*
X342900000Y-71735564D02*
X360660564Y-71735564D01*
X184150000Y-77670000D02*
X184150000Y-110485000D01*
X271780000Y-109855000D02*
X271780000Y-112945000D01*
X312560000Y-74415564D02*
X312420000Y-74275564D01*
D47*
X54610000Y-114300000D02*
X54610000Y-118015000D01*
D48*
X271780000Y-112945000D02*
X271700000Y-113025000D01*
X360680000Y-71755000D02*
X360680000Y-98385000D01*
X312420000Y-74275564D02*
X312420000Y-79355564D01*
X308570000Y-98385000D02*
X304165000Y-93980000D01*
X132080000Y-111755000D02*
X135805000Y-111755000D01*
X386310000Y-162250000D02*
X384810000Y-163750000D01*
D47*
X312420000Y-67925564D02*
X321460000Y-67925564D01*
X321460000Y-67925564D02*
X322590000Y-66795564D01*
X249555000Y-81915000D02*
X255270000Y-81915000D01*
D48*
X360645000Y-111755000D02*
X360645000Y-97825000D01*
X259715000Y-90805000D02*
X259715000Y-80655000D01*
D47*
X157485000Y-184170000D02*
X157475000Y-184160000D01*
X255905000Y-81280000D02*
X255905000Y-80645000D01*
D48*
X293370000Y-41955000D02*
X293370000Y-40640000D01*
X129540000Y-124455000D02*
X129540000Y-139735000D01*
X312420000Y-67925564D02*
X312420000Y-74275564D01*
D47*
X378460000Y-162560000D02*
X383620000Y-162560000D01*
X375422500Y-163015000D02*
X378005000Y-163015000D01*
X293370000Y-43300000D02*
X298330000Y-43300000D01*
D48*
X252090000Y-109855000D02*
X248920000Y-113025000D01*
X128190000Y-72350000D02*
X128190000Y-76120000D01*
D47*
X259705000Y-80645000D02*
X259715000Y-80655000D01*
D48*
X345440000Y-144780000D02*
X345440000Y-147320000D01*
X175895000Y-73025000D02*
X179505000Y-73025000D01*
D47*
X295910000Y-190500000D02*
X295910000Y-186730000D01*
D48*
X129540000Y-114295000D02*
X129540000Y-124455000D01*
X207010000Y-128365000D02*
X207010000Y-183615000D01*
X360680000Y-98385000D02*
X314960000Y-98385000D01*
X114340000Y-127630000D02*
X114340000Y-128265000D01*
D47*
X295910000Y-186730000D02*
X295870000Y-186690000D01*
X123175000Y-187975000D02*
X123175000Y-184185000D01*
D48*
X375285000Y-81280000D02*
X380467349Y-81280000D01*
X383540000Y-130810000D02*
X383540000Y-152400000D01*
X386310000Y-155170000D02*
X386310000Y-162250000D01*
D47*
X54610000Y-187945000D02*
X54610000Y-184150000D01*
D48*
X129540000Y-124455000D02*
X117515000Y-124455000D01*
X377825000Y-57850000D02*
X377825000Y-55880000D01*
X271780000Y-93980000D02*
X271780000Y-109855000D01*
X377825000Y-55880000D02*
X376555000Y-54610000D01*
X179505000Y-73025000D02*
X179705000Y-73225000D01*
X204470000Y-104140000D02*
X207010000Y-106680000D01*
D47*
X244475000Y-80645000D02*
X248285000Y-80645000D01*
D48*
X271780000Y-109855000D02*
X252090000Y-109855000D01*
X262890000Y-93980000D02*
X259715000Y-90805000D01*
X207010000Y-183615000D02*
X206470000Y-184155000D01*
X304165000Y-93980000D02*
X271780000Y-93980000D01*
X179705000Y-73225000D02*
X184150000Y-77670000D01*
D47*
X298330000Y-43300000D02*
X298450000Y-43180000D01*
D48*
X207010000Y-106680000D02*
X207010000Y-110485000D01*
X360645000Y-111755000D02*
X360645000Y-116805000D01*
X380467349Y-81280000D02*
X383007349Y-78740000D01*
X129540000Y-139735000D02*
X132080000Y-142275000D01*
X383540000Y-114300000D02*
X383540000Y-130810000D01*
X135845000Y-142275000D02*
X135895000Y-142325000D01*
X380995000Y-111755000D02*
X383540000Y-114300000D01*
X309890000Y-66035000D02*
X311799436Y-66035000D01*
D47*
X54630000Y-118035000D02*
X56970500Y-120375500D01*
D48*
X372745000Y-81280000D02*
X375285000Y-81280000D01*
X314960000Y-98385000D02*
X308570000Y-98385000D01*
X271780000Y-93980000D02*
X262890000Y-93980000D01*
D47*
X214630000Y-64770000D02*
X210820000Y-64770000D01*
D48*
X360680000Y-116840000D02*
X360680000Y-119380000D01*
X372765000Y-86360000D02*
X372765000Y-81300000D01*
X332740000Y-71735564D02*
X342900000Y-71735564D01*
X135805000Y-111755000D02*
X135895000Y-111845000D01*
X360660564Y-71735564D02*
X360680000Y-71755000D01*
X129540000Y-126995000D02*
X132080000Y-126995000D01*
D47*
X54610000Y-184150000D02*
X54600000Y-184140000D01*
X320040000Y-139065000D02*
X330200000Y-139065000D01*
D48*
X312420000Y-66655564D02*
X312420000Y-67925564D01*
X360645000Y-111755000D02*
X380995000Y-111755000D01*
X27940000Y-99060000D02*
X27940000Y-108899888D01*
D47*
X378005000Y-163015000D02*
X378460000Y-162560000D01*
X157485000Y-187960000D02*
X157485000Y-184165000D01*
D48*
X210870000Y-124505000D02*
X207010000Y-128365000D01*
D47*
X255905000Y-80645000D02*
X259705000Y-80645000D01*
D48*
X317540000Y-79355564D02*
X312420000Y-79355564D01*
X25400000Y-96520000D02*
X27940000Y-99060000D01*
X372110000Y-130810000D02*
X383540000Y-130810000D01*
D47*
X54610000Y-118015000D02*
X54630000Y-118035000D01*
D48*
X114340000Y-128265000D02*
X110490000Y-128265000D01*
X132080000Y-104140000D02*
X204470000Y-104140000D01*
X376555000Y-54610000D02*
X360680000Y-54610000D01*
X384810000Y-210185000D02*
X384810000Y-191770000D01*
X383007349Y-78740000D02*
X383007349Y-75565000D01*
%TO.N,Net-(C44-Pad1)*%
X372745000Y-57850000D02*
X372745000Y-75462651D01*
X379095000Y-60960000D02*
X384830000Y-60960000D01*
X372745000Y-75462651D02*
X372847349Y-75565000D01*
X379095000Y-38735000D02*
X380365000Y-40005000D01*
X380365000Y-40005000D02*
X380365000Y-60960000D01*
X379095000Y-60960000D02*
X372745000Y-60960000D01*
%TO.N,Net-(D3-Pad1)*%
X388620000Y-67945000D02*
X381000000Y-67945000D01*
X392430000Y-64135000D02*
X388620000Y-67945000D01*
X392430000Y-55210000D02*
X392430000Y-64135000D01*
D47*
%TO.N,Net-(D6-Pad2)*%
X398780000Y-99060000D02*
X402590000Y-99060000D01*
%TO.N,/DEV_CS1*%
X245110000Y-208280000D02*
X245110000Y-205730000D01*
X41910000Y-121920000D02*
X45720000Y-118110000D01*
X41910000Y-167640000D02*
X41910000Y-121920000D01*
X40640000Y-214630000D02*
X40640000Y-168910000D01*
X45720000Y-118110000D02*
X45720000Y-71120000D01*
X40533000Y-65933000D02*
X40533000Y-39370000D01*
X45720000Y-71120000D02*
X40533000Y-65933000D01*
X40640000Y-168910000D02*
X41910000Y-167640000D01*
%TO.N,Net-(U12-Pad1)*%
X302270000Y-66035000D02*
X302270000Y-68575000D01*
%TO.N,Net-(U26-Pad6)*%
X183505000Y-205750000D02*
X189845000Y-212090000D01*
X201335000Y-210820000D02*
X201335000Y-201930000D01*
X200065000Y-212090000D02*
X201335000Y-210820000D01*
X200085000Y-200680000D02*
X198875000Y-200680000D01*
X201335000Y-201930000D02*
X200085000Y-200680000D01*
X189845000Y-212090000D02*
X200065000Y-212090000D01*
%TO.N,Net-(U26-Pad9)*%
X179745000Y-214630000D02*
X205145000Y-214630000D01*
X205145000Y-214630000D02*
X206495000Y-213280000D01*
X175935000Y-195580000D02*
X175935000Y-210820000D01*
X206495000Y-213280000D02*
X206495000Y-205760000D01*
X175935000Y-210820000D02*
X179745000Y-214630000D01*
%TO.N,Net-(JP3-Pad2)*%
X174665000Y-187960000D02*
X174665000Y-213360000D01*
%TO.N,Net-(C34-Pad1)*%
X346670000Y-79355564D02*
X346710000Y-79315564D01*
X399995000Y-71120000D02*
X399995000Y-77620000D01*
X338455000Y-81895564D02*
X340995000Y-79355564D01*
X320040000Y-74405564D02*
X320040000Y-79990564D01*
X340995000Y-79355564D02*
X342900000Y-79355564D01*
X320040000Y-79990564D02*
X321945000Y-81895564D01*
X342900000Y-79355564D02*
X346670000Y-79355564D01*
X314970000Y-69335564D02*
X320040000Y-74405564D01*
X321945000Y-81895564D02*
X338455000Y-81895564D01*
%TO.N,Net-(C41-Pad1)*%
X387350000Y-180340000D02*
X387350000Y-187960000D01*
X382270000Y-180340000D02*
X387350000Y-180340000D01*
%TO.N,Net-(C43-Pad2)*%
X21590000Y-76240000D02*
X21590000Y-67310000D01*
%TO.N,/INT_DEV4*%
X200160000Y-191775000D02*
X198875000Y-193060000D01*
X209050000Y-191775000D02*
X200160000Y-191775000D01*
X212860000Y-187965000D02*
X209050000Y-191775000D01*
%TO.N,/IO/Casette Interface/M2*%
X217050000Y-44910000D02*
X265002500Y-44910000D01*
X265002500Y-44910000D02*
X268357500Y-48265000D01*
%TO.N,/IO/Casette Interface/M1*%
X203695000Y-43265000D02*
X202050000Y-44910000D01*
X268357500Y-43265000D02*
X203695000Y-43265000D01*
%TO.N,Net-(C48-Pad1)*%
X222250000Y-64770000D02*
X219710000Y-62230000D01*
X191770000Y-67310000D02*
X191770000Y-77470000D01*
X222250000Y-80010000D02*
X222250000Y-64770000D01*
X219710000Y-62230000D02*
X191770000Y-62230000D01*
X191770000Y-40640000D02*
X189865000Y-38735000D01*
X191770000Y-62230000D02*
X191770000Y-67310000D01*
X189865000Y-38735000D02*
X186690000Y-38735000D01*
%TO.N,Net-(C49-Pad1)*%
X194310000Y-38735000D02*
X194310000Y-42545000D01*
%TO.N,Net-(C51-Pad2)*%
X230360000Y-74150000D02*
X235730000Y-74150000D01*
X229235000Y-73025000D02*
X230360000Y-74150000D01*
X204550000Y-47410000D02*
X204550000Y-50880000D01*
X229235000Y-55880000D02*
X229235000Y-73025000D01*
X207010000Y-53340000D02*
X226695000Y-53340000D01*
X204550000Y-50880000D02*
X207010000Y-53340000D01*
X241855000Y-69850000D02*
X238680000Y-73025000D01*
X238680000Y-73025000D02*
X236855000Y-73025000D01*
X235730000Y-74150000D02*
X236855000Y-73025000D01*
X226695000Y-53340000D02*
X229235000Y-55880000D01*
%TO.N,/IO/PB2*%
X149225000Y-64135000D02*
X149225000Y-38735000D01*
X140970000Y-91440000D02*
X140970000Y-78740000D01*
X140970000Y-78740000D02*
X142875000Y-76835000D01*
X140975000Y-91445000D02*
X140970000Y-91440000D01*
X142875000Y-70485000D02*
X149225000Y-64135000D01*
X142875000Y-76835000D02*
X142875000Y-70485000D01*
%TO.N,/IO/PB3*%
X140970000Y-59690000D02*
X145415000Y-55245000D01*
X140975000Y-59695000D02*
X140975000Y-76205000D01*
X145415000Y-55245000D02*
X145415000Y-38735000D01*
%TO.N,Net-(D7-Pad1)*%
X293370000Y-50800000D02*
X298450000Y-50800000D01*
X293370000Y-86995000D02*
X293370000Y-50800000D01*
%TO.N,Net-(U25-Pad10)*%
X220575000Y-197000000D02*
X210435000Y-197000000D01*
X221695000Y-198120000D02*
X220575000Y-197000000D01*
X210435000Y-197000000D02*
X206495000Y-193060000D01*
%TO.N,Net-(R25-Pad2)*%
X199390000Y-67310000D02*
X203200000Y-67310000D01*
%TO.N,Net-(R26-Pad2)*%
X199390000Y-72390000D02*
X203200000Y-72390000D01*
%TO.N,Net-(R27-Pad2)*%
X199390000Y-77470000D02*
X203200000Y-77470000D01*
%TO.N,Net-(R28-Pad2)*%
X210820000Y-80010000D02*
X214630000Y-80010000D01*
%TO.N,Net-(R29-Pad2)*%
X210820000Y-74930000D02*
X214630000Y-74930000D01*
%TO.N,Net-(R30-Pad2)*%
X210820000Y-69850000D02*
X214630000Y-69850000D01*
%TO.N,Net-(R35-Pad1)*%
X248285000Y-73025000D02*
X248285000Y-74295000D01*
X248285000Y-74295000D02*
X249565000Y-75575000D01*
X249565000Y-75575000D02*
X259715000Y-75575000D01*
%TO.N,Net-(R38-Pad1)*%
X240665000Y-73025000D02*
X244475000Y-73025000D01*
X247660000Y-78115000D02*
X259715000Y-78115000D01*
X244475000Y-73025000D02*
X244475000Y-74930000D01*
X244475000Y-74930000D02*
X247660000Y-78115000D01*
%TO.N,Net-(D10-Pad2)*%
X233045000Y-80645000D02*
X240665000Y-80645000D01*
%TO.N,/IO/Casette Interface/PC7*%
X196215000Y-67310000D02*
X198755000Y-64770000D01*
X198755000Y-64770000D02*
X203200000Y-64770000D01*
X196215000Y-86995000D02*
X196215000Y-67310000D01*
%TO.N,/IO/Casette Interface/PC6*%
X206375000Y-94615000D02*
X206375000Y-73025000D01*
X206375000Y-73025000D02*
X203200000Y-69850000D01*
%TO.N,/IO/Casette Interface/PC5*%
X205105000Y-93345000D02*
X205105000Y-76835000D01*
X205105000Y-76835000D02*
X203200000Y-74930000D01*
%TO.N,/IO/Casette Interface/PC4*%
X209295000Y-80475990D02*
X209295000Y-78995000D01*
X209295000Y-78995000D02*
X210820000Y-77470000D01*
X210185000Y-92075000D02*
X210185000Y-81365990D01*
X210185000Y-81365990D02*
X209295000Y-80475990D01*
%TO.N,/IO/Casette Interface/PC2*%
X207645000Y-70485000D02*
X210820000Y-67310000D01*
X207645000Y-90805000D02*
X207645000Y-70485000D01*
%TO.N,/IO/Casette Interface/PC3*%
X208915000Y-89535000D02*
X208915000Y-80732386D01*
X208845000Y-80662386D02*
X208845000Y-74365000D01*
X208845000Y-74365000D02*
X210820000Y-72390000D01*
X208915000Y-80732386D02*
X208845000Y-80662386D01*
%TO.N,Net-(U25-Pad3)*%
X221695000Y-193040000D02*
X221695000Y-195580000D01*
%TO.N,Net-(JP3-Pad1)*%
X226700000Y-205665000D02*
X226700000Y-208915000D01*
X221695000Y-200660000D02*
X226700000Y-205665000D01*
%TO.N,Net-(U25-Pad12)*%
X229315000Y-190500000D02*
X229315000Y-193040000D01*
%TO.N,/RD*%
X120650000Y-193040000D02*
X115555000Y-198135000D01*
X76233000Y-49497000D02*
X76233000Y-39370000D01*
X311150000Y-177800000D02*
X311150000Y-155575000D01*
X74930000Y-95250000D02*
X74930000Y-92710000D01*
X283210000Y-177800000D02*
X283210000Y-137160000D01*
X80010000Y-175260000D02*
X80010000Y-100330000D01*
X279400000Y-133350000D02*
X271780000Y-133350000D01*
X120650000Y-173802500D02*
X120650000Y-193040000D01*
X80010000Y-100330000D02*
X74930000Y-95250000D01*
X264795000Y-173900500D02*
X264795000Y-194395000D01*
X283210000Y-137160000D02*
X279400000Y-133350000D01*
X74930000Y-50800000D02*
X76233000Y-49497000D01*
X191770000Y-173802500D02*
X191770000Y-130810000D01*
X260970000Y-198220000D02*
X260970000Y-200760000D01*
X360680000Y-177800000D02*
X360680000Y-165100000D01*
X191770000Y-130905000D02*
X195630000Y-127045000D01*
X264795000Y-194395000D02*
X260970000Y-198220000D01*
X74930000Y-92710000D02*
X74930000Y-50800000D01*
%TO.N,Net-(J8-Pad3)*%
X213360000Y-128265000D02*
X213365000Y-128265000D01*
X210870000Y-132125000D02*
X213360000Y-129635000D01*
X213360000Y-129635000D02*
X213360000Y-128265000D01*
X213365000Y-128265000D02*
X215900000Y-125730000D01*
%TO.N,Net-(J8-Pad5)*%
X213810000Y-126645000D02*
X213810000Y-122740000D01*
X210870000Y-129585000D02*
X213810000Y-126645000D01*
X213810000Y-122740000D02*
X215900000Y-120650000D01*
%TO.N,Net-(J8-Pad7)*%
X213360000Y-124555000D02*
X213360000Y-118110000D01*
X210870000Y-127045000D02*
X213360000Y-124555000D01*
X213360000Y-118110000D02*
X215900000Y-115570000D01*
%TO.N,Net-(D8-Pad1)*%
X280035000Y-38100000D02*
X280035000Y-34925000D01*
%TO.N,/MR*%
X256540000Y-203950000D02*
X253350000Y-200760000D01*
X353695000Y-207645000D02*
X331470000Y-207645000D01*
X256540000Y-207645000D02*
X256540000Y-203950000D01*
%TO.N,Net-(J10-Pad38)*%
X335267500Y-216680000D02*
X335757500Y-217170000D01*
X335267500Y-212455000D02*
X335267500Y-216680000D01*
%TO.N,/WR*%
X347980000Y-179070000D02*
X347980000Y-162560000D01*
X347980000Y-162560000D02*
X345440000Y-160020000D01*
X52070000Y-198140000D02*
X49565000Y-200645000D01*
X64770000Y-50800000D02*
X64770000Y-48260000D01*
X288290000Y-193040000D02*
X288290000Y-190500000D01*
X247650000Y-119380000D02*
X248920000Y-120650000D01*
X64770000Y-48260000D02*
X63483000Y-46973000D01*
X313690000Y-155575000D02*
X311150000Y-153035000D01*
X313690000Y-179070000D02*
X313690000Y-155575000D01*
X125715000Y-195595000D02*
X123175000Y-198135000D01*
X125715000Y-174640000D02*
X125730000Y-174625000D01*
X49565000Y-200645000D02*
X46990000Y-200645000D01*
X76200000Y-95250000D02*
X76200000Y-78740000D01*
X232410000Y-119380000D02*
X247650000Y-119380000D01*
X220980000Y-164465000D02*
X220980000Y-130810000D01*
X63483000Y-46973000D02*
X63483000Y-39370000D01*
X220980000Y-130810000D02*
X232410000Y-119380000D01*
X288290000Y-190500000D02*
X288290000Y-179070000D01*
X76200000Y-50800000D02*
X76200000Y-78740000D01*
X81280000Y-100330000D02*
X76200000Y-95250000D01*
X52070000Y-198140000D02*
X52070000Y-176530000D01*
X125715000Y-195595000D02*
X125715000Y-174640000D01*
X219710000Y-174625000D02*
X219710000Y-165735000D01*
X81280000Y-176530000D02*
X81280000Y-100330000D01*
X219710000Y-165735000D02*
X220980000Y-164465000D01*
%TO.N,Net-(U13-Pad8)*%
X260970000Y-208900000D02*
X260970000Y-203300000D01*
X294640000Y-208915000D02*
X294640000Y-204470000D01*
X260985000Y-208915000D02*
X260970000Y-208900000D01*
X294640000Y-204470000D02*
X295910000Y-203200000D01*
%TO.N,Net-(U27-Pad10)*%
X293370000Y-203200000D02*
X295910000Y-200660000D01*
X294785000Y-196705000D02*
X294785000Y-199535000D01*
X295910000Y-195580000D02*
X294785000Y-196705000D01*
X294785000Y-199535000D02*
X295910000Y-200660000D01*
X288290000Y-203200000D02*
X293370000Y-203200000D01*
%TO.N,Net-(U27-Pad13)*%
X293370000Y-195580000D02*
X295910000Y-193040000D01*
X288290000Y-195580000D02*
X293370000Y-195580000D01*
%TD*%
M02*
