%FSLAX45Y45*%
G04 Gerber Fmt 4.5, Leading zero omitted, Abs format (unit mm)*
G04 Created by KiCad (PCBNEW (6.0.6)) date 2022-08-08 10:31:13*
%MOMM*%
%LPD*%
G01*
G04 APERTURE LIST*
%TA.AperFunction,Profile*%
%ADD10C,0.100000*%
%TD*%
%ADD11C,0.200000*%
%ADD12C,0.100000*%
%ADD13C,0.320000*%
G04 APERTURE END LIST*
D10*
X15494000Y-4572000D02*
X15494000Y-3175000D01*
X13144500Y-4572000D02*
X13144500Y-3175000D01*
X8636000Y-4572000D02*
X13144500Y-4572000D01*
X16700500Y-4572000D02*
X15494000Y-4572000D01*
X1397000Y-4572000D02*
X1397000Y-22161500D01*
X8636000Y-3302000D02*
X8636000Y-4572000D01*
X40767000Y-3175000D02*
X16700500Y-3175000D01*
X40767000Y-22098000D02*
X40767000Y-22098000D01*
X3302000Y-4572000D02*
X3302000Y-3175000D01*
X40767000Y-3175000D02*
X40767000Y-22161500D01*
X8636000Y-3175000D02*
X8636000Y-3302000D01*
X16700500Y-3175000D02*
X16700500Y-4572000D01*
X15494000Y-3175000D02*
X13144500Y-3175000D01*
X1397000Y-22161500D02*
X40767000Y-22161500D01*
X1397000Y-4572000D02*
X3302000Y-4572000D01*
X3302000Y-3175000D02*
X8636000Y-3175000D01*
D11*
D12*
X39974500Y-12494000D02*
X40074500Y-12594000D01*
X40074500Y-12494000D02*
X39974500Y-12594000D01*
X39974500Y-12934000D02*
X40074500Y-13034000D01*
X40074500Y-12934000D02*
X39974500Y-13034000D01*
D13*
X37688500Y-4675000D02*
G75*
G03*
X37688500Y-4675000I-160000J0D01*
G01*
D11*
X1649619Y-22476976D02*
X1649619Y-22276976D01*
X1697238Y-22276976D01*
X1725809Y-22286500D01*
X1744857Y-22305548D01*
X1754381Y-22324595D01*
X1763905Y-22362690D01*
X1763905Y-22391262D01*
X1754381Y-22429357D01*
X1744857Y-22448405D01*
X1725809Y-22467452D01*
X1697238Y-22476976D01*
X1649619Y-22476976D01*
X1849619Y-22476976D02*
X1849619Y-22343643D01*
X1849619Y-22381738D02*
X1859143Y-22362690D01*
X1868667Y-22353167D01*
X1887714Y-22343643D01*
X1906762Y-22343643D01*
X1973428Y-22476976D02*
X1973428Y-22343643D01*
X1973428Y-22276976D02*
X1963905Y-22286500D01*
X1973428Y-22296024D01*
X1982952Y-22286500D01*
X1973428Y-22276976D01*
X1973428Y-22296024D01*
X2097238Y-22476976D02*
X2078190Y-22467452D01*
X2068667Y-22448405D01*
X2068667Y-22276976D01*
X2202000Y-22476976D02*
X2182952Y-22467452D01*
X2173429Y-22448405D01*
X2173429Y-22276976D01*
X2430571Y-22476976D02*
X2430571Y-22276976D01*
X2497238Y-22419833D01*
X2563905Y-22276976D01*
X2563905Y-22476976D01*
X2744857Y-22476976D02*
X2744857Y-22372214D01*
X2735333Y-22353167D01*
X2716286Y-22343643D01*
X2678190Y-22343643D01*
X2659143Y-22353167D01*
X2744857Y-22467452D02*
X2725810Y-22476976D01*
X2678190Y-22476976D01*
X2659143Y-22467452D01*
X2649619Y-22448405D01*
X2649619Y-22429357D01*
X2659143Y-22410309D01*
X2678190Y-22400786D01*
X2725810Y-22400786D01*
X2744857Y-22391262D01*
X2840095Y-22343643D02*
X2840095Y-22543643D01*
X2840095Y-22353167D02*
X2859143Y-22343643D01*
X2897238Y-22343643D01*
X2916286Y-22353167D01*
X2925809Y-22362690D01*
X2935333Y-22381738D01*
X2935333Y-22438881D01*
X2925809Y-22457928D01*
X2916286Y-22467452D01*
X2897238Y-22476976D01*
X2859143Y-22476976D01*
X2840095Y-22467452D01*
X3021048Y-22457928D02*
X3030571Y-22467452D01*
X3021048Y-22476976D01*
X3011524Y-22467452D01*
X3021048Y-22457928D01*
X3021048Y-22476976D01*
X3021048Y-22353167D02*
X3030571Y-22362690D01*
X3021048Y-22372214D01*
X3011524Y-22362690D01*
X3021048Y-22353167D01*
X3021048Y-22372214D01*
D12*
X1292000Y-22756500D02*
X1392000Y-22856500D01*
X1392000Y-22756500D02*
X1292000Y-22856500D01*
D11*
X1754381Y-22896976D02*
X1640095Y-22896976D01*
X1697238Y-22896976D02*
X1697238Y-22696976D01*
X1678190Y-22725548D01*
X1659143Y-22744595D01*
X1640095Y-22754119D01*
X1840095Y-22877928D02*
X1849619Y-22887452D01*
X1840095Y-22896976D01*
X1830571Y-22887452D01*
X1840095Y-22877928D01*
X1840095Y-22896976D01*
X1973428Y-22696976D02*
X1992476Y-22696976D01*
X2011524Y-22706500D01*
X2021048Y-22716024D01*
X2030571Y-22735071D01*
X2040095Y-22773167D01*
X2040095Y-22820786D01*
X2030571Y-22858881D01*
X2021048Y-22877928D01*
X2011524Y-22887452D01*
X1992476Y-22896976D01*
X1973428Y-22896976D01*
X1954381Y-22887452D01*
X1944857Y-22877928D01*
X1935333Y-22858881D01*
X1925809Y-22820786D01*
X1925809Y-22773167D01*
X1935333Y-22735071D01*
X1944857Y-22716024D01*
X1954381Y-22706500D01*
X1973428Y-22696976D01*
X2163905Y-22696976D02*
X2182952Y-22696976D01*
X2202000Y-22706500D01*
X2211524Y-22716024D01*
X2221048Y-22735071D01*
X2230571Y-22773167D01*
X2230571Y-22820786D01*
X2221048Y-22858881D01*
X2211524Y-22877928D01*
X2202000Y-22887452D01*
X2182952Y-22896976D01*
X2163905Y-22896976D01*
X2144857Y-22887452D01*
X2135333Y-22877928D01*
X2125810Y-22858881D01*
X2116286Y-22820786D01*
X2116286Y-22773167D01*
X2125810Y-22735071D01*
X2135333Y-22716024D01*
X2144857Y-22706500D01*
X2163905Y-22696976D01*
X2354381Y-22696976D02*
X2373429Y-22696976D01*
X2392476Y-22706500D01*
X2402000Y-22716024D01*
X2411524Y-22735071D01*
X2421048Y-22773167D01*
X2421048Y-22820786D01*
X2411524Y-22858881D01*
X2402000Y-22877928D01*
X2392476Y-22887452D01*
X2373429Y-22896976D01*
X2354381Y-22896976D01*
X2335333Y-22887452D01*
X2325810Y-22877928D01*
X2316286Y-22858881D01*
X2306762Y-22820786D01*
X2306762Y-22773167D01*
X2316286Y-22735071D01*
X2325810Y-22716024D01*
X2335333Y-22706500D01*
X2354381Y-22696976D01*
X2506762Y-22896976D02*
X2506762Y-22763643D01*
X2506762Y-22782690D02*
X2516286Y-22773167D01*
X2535333Y-22763643D01*
X2563905Y-22763643D01*
X2582952Y-22773167D01*
X2592476Y-22792214D01*
X2592476Y-22896976D01*
X2592476Y-22792214D02*
X2602000Y-22773167D01*
X2621048Y-22763643D01*
X2649619Y-22763643D01*
X2668667Y-22773167D01*
X2678190Y-22792214D01*
X2678190Y-22896976D01*
X2773429Y-22896976D02*
X2773429Y-22763643D01*
X2773429Y-22782690D02*
X2782952Y-22773167D01*
X2802000Y-22763643D01*
X2830571Y-22763643D01*
X2849619Y-22773167D01*
X2859143Y-22792214D01*
X2859143Y-22896976D01*
X2859143Y-22792214D02*
X2868667Y-22773167D01*
X2887714Y-22763643D01*
X2916286Y-22763643D01*
X2935333Y-22773167D01*
X2944857Y-22792214D01*
X2944857Y-22896976D01*
X3335333Y-22687452D02*
X3163905Y-22944595D01*
X3592476Y-22696976D02*
X3611524Y-22696976D01*
X3630571Y-22706500D01*
X3640095Y-22716024D01*
X3649619Y-22735071D01*
X3659143Y-22773167D01*
X3659143Y-22820786D01*
X3649619Y-22858881D01*
X3640095Y-22877928D01*
X3630571Y-22887452D01*
X3611524Y-22896976D01*
X3592476Y-22896976D01*
X3573428Y-22887452D01*
X3563905Y-22877928D01*
X3554381Y-22858881D01*
X3544857Y-22820786D01*
X3544857Y-22773167D01*
X3554381Y-22735071D01*
X3563905Y-22716024D01*
X3573428Y-22706500D01*
X3592476Y-22696976D01*
X3744857Y-22877928D02*
X3754381Y-22887452D01*
X3744857Y-22896976D01*
X3735333Y-22887452D01*
X3744857Y-22877928D01*
X3744857Y-22896976D01*
X3878190Y-22696976D02*
X3897238Y-22696976D01*
X3916286Y-22706500D01*
X3925809Y-22716024D01*
X3935333Y-22735071D01*
X3944857Y-22773167D01*
X3944857Y-22820786D01*
X3935333Y-22858881D01*
X3925809Y-22877928D01*
X3916286Y-22887452D01*
X3897238Y-22896976D01*
X3878190Y-22896976D01*
X3859143Y-22887452D01*
X3849619Y-22877928D01*
X3840095Y-22858881D01*
X3830571Y-22820786D01*
X3830571Y-22773167D01*
X3840095Y-22735071D01*
X3849619Y-22716024D01*
X3859143Y-22706500D01*
X3878190Y-22696976D01*
X4011524Y-22696976D02*
X4135333Y-22696976D01*
X4068667Y-22773167D01*
X4097238Y-22773167D01*
X4116286Y-22782690D01*
X4125809Y-22792214D01*
X4135333Y-22811262D01*
X4135333Y-22858881D01*
X4125809Y-22877928D01*
X4116286Y-22887452D01*
X4097238Y-22896976D01*
X4040095Y-22896976D01*
X4021048Y-22887452D01*
X4011524Y-22877928D01*
X4230571Y-22896976D02*
X4268667Y-22896976D01*
X4287714Y-22887452D01*
X4297238Y-22877928D01*
X4316286Y-22849357D01*
X4325810Y-22811262D01*
X4325810Y-22735071D01*
X4316286Y-22716024D01*
X4306762Y-22706500D01*
X4287714Y-22696976D01*
X4249619Y-22696976D01*
X4230571Y-22706500D01*
X4221048Y-22716024D01*
X4211524Y-22735071D01*
X4211524Y-22782690D01*
X4221048Y-22801738D01*
X4230571Y-22811262D01*
X4249619Y-22820786D01*
X4287714Y-22820786D01*
X4306762Y-22811262D01*
X4316286Y-22801738D01*
X4325810Y-22782690D01*
X4497238Y-22763643D02*
X4497238Y-22896976D01*
X4449619Y-22687452D02*
X4402000Y-22830309D01*
X4525810Y-22830309D01*
X4592476Y-22696976D02*
X4592476Y-22735071D01*
X4668667Y-22696976D02*
X4668667Y-22735071D01*
X4963905Y-22973167D02*
X4954381Y-22963643D01*
X4935333Y-22935071D01*
X4925810Y-22916024D01*
X4916286Y-22887452D01*
X4906762Y-22839833D01*
X4906762Y-22801738D01*
X4916286Y-22754119D01*
X4925810Y-22725548D01*
X4935333Y-22706500D01*
X4954381Y-22677928D01*
X4963905Y-22668405D01*
X5030571Y-22716024D02*
X5040095Y-22706500D01*
X5059143Y-22696976D01*
X5106762Y-22696976D01*
X5125810Y-22706500D01*
X5135333Y-22716024D01*
X5144857Y-22735071D01*
X5144857Y-22754119D01*
X5135333Y-22782690D01*
X5021048Y-22896976D01*
X5144857Y-22896976D01*
X5382952Y-22896976D02*
X5382952Y-22696976D01*
X5468667Y-22896976D02*
X5468667Y-22792214D01*
X5459143Y-22773167D01*
X5440095Y-22763643D01*
X5411524Y-22763643D01*
X5392476Y-22773167D01*
X5382952Y-22782690D01*
X5592476Y-22896976D02*
X5573429Y-22887452D01*
X5563905Y-22877928D01*
X5554381Y-22858881D01*
X5554381Y-22801738D01*
X5563905Y-22782690D01*
X5573429Y-22773167D01*
X5592476Y-22763643D01*
X5621048Y-22763643D01*
X5640095Y-22773167D01*
X5649619Y-22782690D01*
X5659143Y-22801738D01*
X5659143Y-22858881D01*
X5649619Y-22877928D01*
X5640095Y-22887452D01*
X5621048Y-22896976D01*
X5592476Y-22896976D01*
X5773428Y-22896976D02*
X5754381Y-22887452D01*
X5744857Y-22868405D01*
X5744857Y-22696976D01*
X5925809Y-22887452D02*
X5906762Y-22896976D01*
X5868667Y-22896976D01*
X5849619Y-22887452D01*
X5840095Y-22868405D01*
X5840095Y-22792214D01*
X5849619Y-22773167D01*
X5868667Y-22763643D01*
X5906762Y-22763643D01*
X5925809Y-22773167D01*
X5935333Y-22792214D01*
X5935333Y-22811262D01*
X5840095Y-22830309D01*
X6011524Y-22887452D02*
X6030571Y-22896976D01*
X6068667Y-22896976D01*
X6087714Y-22887452D01*
X6097238Y-22868405D01*
X6097238Y-22858881D01*
X6087714Y-22839833D01*
X6068667Y-22830309D01*
X6040095Y-22830309D01*
X6021048Y-22820786D01*
X6011524Y-22801738D01*
X6011524Y-22792214D01*
X6021048Y-22773167D01*
X6040095Y-22763643D01*
X6068667Y-22763643D01*
X6087714Y-22773167D01*
X6163905Y-22973167D02*
X6173428Y-22963643D01*
X6192476Y-22935071D01*
X6202000Y-22916024D01*
X6211524Y-22887452D01*
X6221048Y-22839833D01*
X6221048Y-22801738D01*
X6211524Y-22754119D01*
X6202000Y-22725548D01*
X6192476Y-22706500D01*
X6173428Y-22677928D01*
X6163905Y-22668405D01*
X6525809Y-22973167D02*
X6516286Y-22963643D01*
X6497238Y-22935071D01*
X6487714Y-22916024D01*
X6478190Y-22887452D01*
X6468667Y-22839833D01*
X6468667Y-22801738D01*
X6478190Y-22754119D01*
X6487714Y-22725548D01*
X6497238Y-22706500D01*
X6516286Y-22677928D01*
X6525809Y-22668405D01*
X6602000Y-22763643D02*
X6602000Y-22896976D01*
X6602000Y-22782690D02*
X6611524Y-22773167D01*
X6630571Y-22763643D01*
X6659143Y-22763643D01*
X6678190Y-22773167D01*
X6687714Y-22792214D01*
X6687714Y-22896976D01*
X6811524Y-22896976D02*
X6792476Y-22887452D01*
X6782952Y-22877928D01*
X6773428Y-22858881D01*
X6773428Y-22801738D01*
X6782952Y-22782690D01*
X6792476Y-22773167D01*
X6811524Y-22763643D01*
X6840095Y-22763643D01*
X6859143Y-22773167D01*
X6868667Y-22782690D01*
X6878190Y-22801738D01*
X6878190Y-22858881D01*
X6868667Y-22877928D01*
X6859143Y-22887452D01*
X6840095Y-22896976D01*
X6811524Y-22896976D01*
X6935333Y-22763643D02*
X7011524Y-22763643D01*
X6963905Y-22696976D02*
X6963905Y-22868405D01*
X6973428Y-22887452D01*
X6992476Y-22896976D01*
X7011524Y-22896976D01*
X7230571Y-22763643D02*
X7230571Y-22963643D01*
X7230571Y-22773167D02*
X7249619Y-22763643D01*
X7287714Y-22763643D01*
X7306762Y-22773167D01*
X7316286Y-22782690D01*
X7325809Y-22801738D01*
X7325809Y-22858881D01*
X7316286Y-22877928D01*
X7306762Y-22887452D01*
X7287714Y-22896976D01*
X7249619Y-22896976D01*
X7230571Y-22887452D01*
X7440095Y-22896976D02*
X7421048Y-22887452D01*
X7411524Y-22868405D01*
X7411524Y-22696976D01*
X7602000Y-22896976D02*
X7602000Y-22792214D01*
X7592476Y-22773167D01*
X7573428Y-22763643D01*
X7535333Y-22763643D01*
X7516286Y-22773167D01*
X7602000Y-22887452D02*
X7582952Y-22896976D01*
X7535333Y-22896976D01*
X7516286Y-22887452D01*
X7506762Y-22868405D01*
X7506762Y-22849357D01*
X7516286Y-22830309D01*
X7535333Y-22820786D01*
X7582952Y-22820786D01*
X7602000Y-22811262D01*
X7668667Y-22763643D02*
X7744857Y-22763643D01*
X7697238Y-22696976D02*
X7697238Y-22868405D01*
X7706762Y-22887452D01*
X7725809Y-22896976D01*
X7744857Y-22896976D01*
X7887714Y-22887452D02*
X7868667Y-22896976D01*
X7830571Y-22896976D01*
X7811524Y-22887452D01*
X7802000Y-22868405D01*
X7802000Y-22792214D01*
X7811524Y-22773167D01*
X7830571Y-22763643D01*
X7868667Y-22763643D01*
X7887714Y-22773167D01*
X7897238Y-22792214D01*
X7897238Y-22811262D01*
X7802000Y-22830309D01*
X8068667Y-22896976D02*
X8068667Y-22696976D01*
X8068667Y-22887452D02*
X8049619Y-22896976D01*
X8011524Y-22896976D01*
X7992476Y-22887452D01*
X7982952Y-22877928D01*
X7973428Y-22858881D01*
X7973428Y-22801738D01*
X7982952Y-22782690D01*
X7992476Y-22773167D01*
X8011524Y-22763643D01*
X8049619Y-22763643D01*
X8068667Y-22773167D01*
X8144857Y-22973167D02*
X8154381Y-22963643D01*
X8173428Y-22935071D01*
X8182952Y-22916024D01*
X8192476Y-22887452D01*
X8202000Y-22839833D01*
X8202000Y-22801738D01*
X8192476Y-22754119D01*
X8182952Y-22725548D01*
X8173428Y-22706500D01*
X8154381Y-22677928D01*
X8144857Y-22668405D01*
X1392000Y-23070500D02*
G75*
G03*
X1392000Y-23070500I-100000J0D01*
G01*
X1630571Y-22960976D02*
X1754381Y-22960976D01*
X1687714Y-23037167D01*
X1716286Y-23037167D01*
X1735333Y-23046690D01*
X1744857Y-23056214D01*
X1754381Y-23075262D01*
X1754381Y-23122881D01*
X1744857Y-23141928D01*
X1735333Y-23151452D01*
X1716286Y-23160976D01*
X1659143Y-23160976D01*
X1640095Y-23151452D01*
X1630571Y-23141928D01*
X1840095Y-23141928D02*
X1849619Y-23151452D01*
X1840095Y-23160976D01*
X1830571Y-23151452D01*
X1840095Y-23141928D01*
X1840095Y-23160976D01*
X1925809Y-22980024D02*
X1935333Y-22970500D01*
X1954381Y-22960976D01*
X2002000Y-22960976D01*
X2021048Y-22970500D01*
X2030571Y-22980024D01*
X2040095Y-22999071D01*
X2040095Y-23018119D01*
X2030571Y-23046690D01*
X1916286Y-23160976D01*
X2040095Y-23160976D01*
X2163905Y-22960976D02*
X2182952Y-22960976D01*
X2202000Y-22970500D01*
X2211524Y-22980024D01*
X2221048Y-22999071D01*
X2230571Y-23037167D01*
X2230571Y-23084786D01*
X2221048Y-23122881D01*
X2211524Y-23141928D01*
X2202000Y-23151452D01*
X2182952Y-23160976D01*
X2163905Y-23160976D01*
X2144857Y-23151452D01*
X2135333Y-23141928D01*
X2125810Y-23122881D01*
X2116286Y-23084786D01*
X2116286Y-23037167D01*
X2125810Y-22999071D01*
X2135333Y-22980024D01*
X2144857Y-22970500D01*
X2163905Y-22960976D01*
X2354381Y-22960976D02*
X2373429Y-22960976D01*
X2392476Y-22970500D01*
X2402000Y-22980024D01*
X2411524Y-22999071D01*
X2421048Y-23037167D01*
X2421048Y-23084786D01*
X2411524Y-23122881D01*
X2402000Y-23141928D01*
X2392476Y-23151452D01*
X2373429Y-23160976D01*
X2354381Y-23160976D01*
X2335333Y-23151452D01*
X2325810Y-23141928D01*
X2316286Y-23122881D01*
X2306762Y-23084786D01*
X2306762Y-23037167D01*
X2316286Y-22999071D01*
X2325810Y-22980024D01*
X2335333Y-22970500D01*
X2354381Y-22960976D01*
X2506762Y-23160976D02*
X2506762Y-23027643D01*
X2506762Y-23046690D02*
X2516286Y-23037167D01*
X2535333Y-23027643D01*
X2563905Y-23027643D01*
X2582952Y-23037167D01*
X2592476Y-23056214D01*
X2592476Y-23160976D01*
X2592476Y-23056214D02*
X2602000Y-23037167D01*
X2621048Y-23027643D01*
X2649619Y-23027643D01*
X2668667Y-23037167D01*
X2678190Y-23056214D01*
X2678190Y-23160976D01*
X2773429Y-23160976D02*
X2773429Y-23027643D01*
X2773429Y-23046690D02*
X2782952Y-23037167D01*
X2802000Y-23027643D01*
X2830571Y-23027643D01*
X2849619Y-23037167D01*
X2859143Y-23056214D01*
X2859143Y-23160976D01*
X2859143Y-23056214D02*
X2868667Y-23037167D01*
X2887714Y-23027643D01*
X2916286Y-23027643D01*
X2935333Y-23037167D01*
X2944857Y-23056214D01*
X2944857Y-23160976D01*
X3335333Y-22951452D02*
X3163905Y-23208595D01*
X3592476Y-22960976D02*
X3611524Y-22960976D01*
X3630571Y-22970500D01*
X3640095Y-22980024D01*
X3649619Y-22999071D01*
X3659143Y-23037167D01*
X3659143Y-23084786D01*
X3649619Y-23122881D01*
X3640095Y-23141928D01*
X3630571Y-23151452D01*
X3611524Y-23160976D01*
X3592476Y-23160976D01*
X3573428Y-23151452D01*
X3563905Y-23141928D01*
X3554381Y-23122881D01*
X3544857Y-23084786D01*
X3544857Y-23037167D01*
X3554381Y-22999071D01*
X3563905Y-22980024D01*
X3573428Y-22970500D01*
X3592476Y-22960976D01*
X3744857Y-23141928D02*
X3754381Y-23151452D01*
X3744857Y-23160976D01*
X3735333Y-23151452D01*
X3744857Y-23141928D01*
X3744857Y-23160976D01*
X3944857Y-23160976D02*
X3830571Y-23160976D01*
X3887714Y-23160976D02*
X3887714Y-22960976D01*
X3868667Y-22989548D01*
X3849619Y-23008595D01*
X3830571Y-23018119D01*
X4021048Y-22980024D02*
X4030571Y-22970500D01*
X4049619Y-22960976D01*
X4097238Y-22960976D01*
X4116286Y-22970500D01*
X4125809Y-22980024D01*
X4135333Y-22999071D01*
X4135333Y-23018119D01*
X4125809Y-23046690D01*
X4011524Y-23160976D01*
X4135333Y-23160976D01*
X4306762Y-22960976D02*
X4268667Y-22960976D01*
X4249619Y-22970500D01*
X4240095Y-22980024D01*
X4221048Y-23008595D01*
X4211524Y-23046690D01*
X4211524Y-23122881D01*
X4221048Y-23141928D01*
X4230571Y-23151452D01*
X4249619Y-23160976D01*
X4287714Y-23160976D01*
X4306762Y-23151452D01*
X4316286Y-23141928D01*
X4325810Y-23122881D01*
X4325810Y-23075262D01*
X4316286Y-23056214D01*
X4306762Y-23046690D01*
X4287714Y-23037167D01*
X4249619Y-23037167D01*
X4230571Y-23046690D01*
X4221048Y-23056214D01*
X4211524Y-23075262D01*
X4449619Y-22960976D02*
X4468667Y-22960976D01*
X4487714Y-22970500D01*
X4497238Y-22980024D01*
X4506762Y-22999071D01*
X4516286Y-23037167D01*
X4516286Y-23084786D01*
X4506762Y-23122881D01*
X4497238Y-23141928D01*
X4487714Y-23151452D01*
X4468667Y-23160976D01*
X4449619Y-23160976D01*
X4430571Y-23151452D01*
X4421048Y-23141928D01*
X4411524Y-23122881D01*
X4402000Y-23084786D01*
X4402000Y-23037167D01*
X4411524Y-22999071D01*
X4421048Y-22980024D01*
X4430571Y-22970500D01*
X4449619Y-22960976D01*
X4592476Y-22960976D02*
X4592476Y-22999071D01*
X4668667Y-22960976D02*
X4668667Y-22999071D01*
X4963905Y-23237167D02*
X4954381Y-23227643D01*
X4935333Y-23199071D01*
X4925810Y-23180024D01*
X4916286Y-23151452D01*
X4906762Y-23103833D01*
X4906762Y-23065738D01*
X4916286Y-23018119D01*
X4925810Y-22989548D01*
X4935333Y-22970500D01*
X4954381Y-22941928D01*
X4963905Y-22932405D01*
X5144857Y-23160976D02*
X5030571Y-23160976D01*
X5087714Y-23160976D02*
X5087714Y-22960976D01*
X5068667Y-22989548D01*
X5049619Y-23008595D01*
X5030571Y-23018119D01*
X5382952Y-23160976D02*
X5382952Y-22960976D01*
X5468667Y-23160976D02*
X5468667Y-23056214D01*
X5459143Y-23037167D01*
X5440095Y-23027643D01*
X5411524Y-23027643D01*
X5392476Y-23037167D01*
X5382952Y-23046690D01*
X5592476Y-23160976D02*
X5573429Y-23151452D01*
X5563905Y-23141928D01*
X5554381Y-23122881D01*
X5554381Y-23065738D01*
X5563905Y-23046690D01*
X5573429Y-23037167D01*
X5592476Y-23027643D01*
X5621048Y-23027643D01*
X5640095Y-23037167D01*
X5649619Y-23046690D01*
X5659143Y-23065738D01*
X5659143Y-23122881D01*
X5649619Y-23141928D01*
X5640095Y-23151452D01*
X5621048Y-23160976D01*
X5592476Y-23160976D01*
X5773428Y-23160976D02*
X5754381Y-23151452D01*
X5744857Y-23132405D01*
X5744857Y-22960976D01*
X5925809Y-23151452D02*
X5906762Y-23160976D01*
X5868667Y-23160976D01*
X5849619Y-23151452D01*
X5840095Y-23132405D01*
X5840095Y-23056214D01*
X5849619Y-23037167D01*
X5868667Y-23027643D01*
X5906762Y-23027643D01*
X5925809Y-23037167D01*
X5935333Y-23056214D01*
X5935333Y-23075262D01*
X5840095Y-23094309D01*
X6002000Y-23237167D02*
X6011524Y-23227643D01*
X6030571Y-23199071D01*
X6040095Y-23180024D01*
X6049619Y-23151452D01*
X6059143Y-23103833D01*
X6059143Y-23065738D01*
X6049619Y-23018119D01*
X6040095Y-22989548D01*
X6030571Y-22970500D01*
X6011524Y-22941928D01*
X6002000Y-22932405D01*
X6363905Y-23237167D02*
X6354381Y-23227643D01*
X6335333Y-23199071D01*
X6325809Y-23180024D01*
X6316286Y-23151452D01*
X6306762Y-23103833D01*
X6306762Y-23065738D01*
X6316286Y-23018119D01*
X6325809Y-22989548D01*
X6335333Y-22970500D01*
X6354381Y-22941928D01*
X6363905Y-22932405D01*
X6440095Y-23027643D02*
X6440095Y-23160976D01*
X6440095Y-23046690D02*
X6449619Y-23037167D01*
X6468667Y-23027643D01*
X6497238Y-23027643D01*
X6516286Y-23037167D01*
X6525809Y-23056214D01*
X6525809Y-23160976D01*
X6649619Y-23160976D02*
X6630571Y-23151452D01*
X6621048Y-23141928D01*
X6611524Y-23122881D01*
X6611524Y-23065738D01*
X6621048Y-23046690D01*
X6630571Y-23037167D01*
X6649619Y-23027643D01*
X6678190Y-23027643D01*
X6697238Y-23037167D01*
X6706762Y-23046690D01*
X6716286Y-23065738D01*
X6716286Y-23122881D01*
X6706762Y-23141928D01*
X6697238Y-23151452D01*
X6678190Y-23160976D01*
X6649619Y-23160976D01*
X6773428Y-23027643D02*
X6849619Y-23027643D01*
X6802000Y-22960976D02*
X6802000Y-23132405D01*
X6811524Y-23151452D01*
X6830571Y-23160976D01*
X6849619Y-23160976D01*
X7068667Y-23027643D02*
X7068667Y-23227643D01*
X7068667Y-23037167D02*
X7087714Y-23027643D01*
X7125809Y-23027643D01*
X7144857Y-23037167D01*
X7154381Y-23046690D01*
X7163905Y-23065738D01*
X7163905Y-23122881D01*
X7154381Y-23141928D01*
X7144857Y-23151452D01*
X7125809Y-23160976D01*
X7087714Y-23160976D01*
X7068667Y-23151452D01*
X7278190Y-23160976D02*
X7259143Y-23151452D01*
X7249619Y-23132405D01*
X7249619Y-22960976D01*
X7440095Y-23160976D02*
X7440095Y-23056214D01*
X7430571Y-23037167D01*
X7411524Y-23027643D01*
X7373428Y-23027643D01*
X7354381Y-23037167D01*
X7440095Y-23151452D02*
X7421048Y-23160976D01*
X7373428Y-23160976D01*
X7354381Y-23151452D01*
X7344857Y-23132405D01*
X7344857Y-23113357D01*
X7354381Y-23094309D01*
X7373428Y-23084786D01*
X7421048Y-23084786D01*
X7440095Y-23075262D01*
X7506762Y-23027643D02*
X7582952Y-23027643D01*
X7535333Y-22960976D02*
X7535333Y-23132405D01*
X7544857Y-23151452D01*
X7563905Y-23160976D01*
X7582952Y-23160976D01*
X7725809Y-23151452D02*
X7706762Y-23160976D01*
X7668667Y-23160976D01*
X7649619Y-23151452D01*
X7640095Y-23132405D01*
X7640095Y-23056214D01*
X7649619Y-23037167D01*
X7668667Y-23027643D01*
X7706762Y-23027643D01*
X7725809Y-23037167D01*
X7735333Y-23056214D01*
X7735333Y-23075262D01*
X7640095Y-23094309D01*
X7906762Y-23160976D02*
X7906762Y-22960976D01*
X7906762Y-23151452D02*
X7887714Y-23160976D01*
X7849619Y-23160976D01*
X7830571Y-23151452D01*
X7821048Y-23141928D01*
X7811524Y-23122881D01*
X7811524Y-23065738D01*
X7821048Y-23046690D01*
X7830571Y-23037167D01*
X7849619Y-23027643D01*
X7887714Y-23027643D01*
X7906762Y-23037167D01*
X7982952Y-23237167D02*
X7992476Y-23227643D01*
X8011524Y-23199071D01*
X8021048Y-23180024D01*
X8030571Y-23151452D01*
X8040095Y-23103833D01*
X8040095Y-23065738D01*
X8030571Y-23018119D01*
X8021048Y-22989548D01*
X8011524Y-22970500D01*
X7992476Y-22941928D01*
X7982952Y-22932405D01*
M02*
