%TF.GenerationSoftware,KiCad,Pcbnew,(6.0.6)*%
%TF.CreationDate,2022-08-03T12:05:02+02:00*%
%TF.ProjectId,Z80AllInOne,5a383041-6c6c-4496-9e4f-6e652e6b6963,rev?*%
%TF.SameCoordinates,Original*%
%TF.FileFunction,Copper,L1,Top*%
%TF.FilePolarity,Positive*%
%FSLAX46Y46*%
G04 Gerber Fmt 4.6, Leading zero omitted, Abs format (unit mm)*
G04 Created by KiCad (PCBNEW (6.0.6)) date 2022-08-03 12:05:02*
%MOMM*%
%LPD*%
G01*
G04 APERTURE LIST*
G04 Aperture macros list*
%AMRoundRect*
0 Rectangle with rounded corners*
0 $1 Rounding radius*
0 $2 $3 $4 $5 $6 $7 $8 $9 X,Y pos of 4 corners*
0 Add a 4 corners polygon primitive as box body*
4,1,4,$2,$3,$4,$5,$6,$7,$8,$9,$2,$3,0*
0 Add four circle primitives for the rounded corners*
1,1,$1+$1,$2,$3*
1,1,$1+$1,$4,$5*
1,1,$1+$1,$6,$7*
1,1,$1+$1,$8,$9*
0 Add four rect primitives between the rounded corners*
20,1,$1+$1,$2,$3,$4,$5,0*
20,1,$1+$1,$4,$5,$6,$7,0*
20,1,$1+$1,$6,$7,$8,$9,0*
20,1,$1+$1,$8,$9,$2,$3,0*%
G04 Aperture macros list end*
%TA.AperFunction,ComponentPad*%
%ADD10R,1.600000X1.600000*%
%TD*%
%TA.AperFunction,ComponentPad*%
%ADD11O,1.600000X1.600000*%
%TD*%
%TA.AperFunction,ComponentPad*%
%ADD12C,1.600000*%
%TD*%
%TA.AperFunction,ComponentPad*%
%ADD13R,1.350000X1.350000*%
%TD*%
%TA.AperFunction,ComponentPad*%
%ADD14O,1.350000X1.350000*%
%TD*%
%TA.AperFunction,ComponentPad*%
%ADD15R,1.800000X1.800000*%
%TD*%
%TA.AperFunction,ComponentPad*%
%ADD16C,1.800000*%
%TD*%
%TA.AperFunction,ConnectorPad*%
%ADD17R,2.000000X13.000000*%
%TD*%
%TA.AperFunction,ComponentPad*%
%ADD18C,5.500000*%
%TD*%
%TA.AperFunction,ComponentPad*%
%ADD19R,2.500000X2.500000*%
%TD*%
%TA.AperFunction,ComponentPad*%
%ADD20O,2.500000X2.500000*%
%TD*%
%TA.AperFunction,ConnectorPad*%
%ADD21R,1.650000X13.000000*%
%TD*%
%TA.AperFunction,ComponentPad*%
%ADD22C,4.000000*%
%TD*%
%TA.AperFunction,ComponentPad*%
%ADD23C,2.400000*%
%TD*%
%TA.AperFunction,ComponentPad*%
%ADD24R,2.400000X1.600000*%
%TD*%
%TA.AperFunction,ComponentPad*%
%ADD25O,2.400000X1.600000*%
%TD*%
%TA.AperFunction,ComponentPad*%
%ADD26O,1.800000X1.800000*%
%TD*%
%TA.AperFunction,ComponentPad*%
%ADD27R,1.700000X1.700000*%
%TD*%
%TA.AperFunction,ComponentPad*%
%ADD28O,1.700000X1.700000*%
%TD*%
%TA.AperFunction,ComponentPad*%
%ADD29R,3.000000X3.000000*%
%TD*%
%TA.AperFunction,ComponentPad*%
%ADD30C,3.000000*%
%TD*%
%TA.AperFunction,ComponentPad*%
%ADD31C,1.500000*%
%TD*%
%TA.AperFunction,ComponentPad*%
%ADD32R,1.600000X2.400000*%
%TD*%
%TA.AperFunction,ComponentPad*%
%ADD33O,1.600000X2.400000*%
%TD*%
%TA.AperFunction,ComponentPad*%
%ADD34R,1.500000X1.050000*%
%TD*%
%TA.AperFunction,ComponentPad*%
%ADD35O,1.500000X1.050000*%
%TD*%
%TA.AperFunction,SMDPad,CuDef*%
%ADD36R,2.000000X0.500000*%
%TD*%
%TA.AperFunction,SMDPad,CuDef*%
%ADD37R,1.700000X2.000000*%
%TD*%
%TA.AperFunction,ComponentPad*%
%ADD38C,2.500000*%
%TD*%
%TA.AperFunction,ComponentPad*%
%ADD39R,1.800000X4.400000*%
%TD*%
%TA.AperFunction,ComponentPad*%
%ADD40O,1.800000X4.000000*%
%TD*%
%TA.AperFunction,ComponentPad*%
%ADD41O,4.000000X1.800000*%
%TD*%
%TA.AperFunction,SMDPad,CuDef*%
%ADD42R,1.750000X0.450000*%
%TD*%
%TA.AperFunction,SMDPad,CuDef*%
%ADD43RoundRect,0.150000X0.150000X-0.587500X0.150000X0.587500X-0.150000X0.587500X-0.150000X-0.587500X0*%
%TD*%
%TA.AperFunction,ComponentPad*%
%ADD44C,2.000000*%
%TD*%
%TA.AperFunction,SMDPad,CuDef*%
%ADD45RoundRect,0.218750X0.218750X0.381250X-0.218750X0.381250X-0.218750X-0.381250X0.218750X-0.381250X0*%
%TD*%
%TA.AperFunction,ComponentPad*%
%ADD46R,1.050000X1.500000*%
%TD*%
%TA.AperFunction,ComponentPad*%
%ADD47O,1.050000X1.500000*%
%TD*%
%TA.AperFunction,ViaPad*%
%ADD48C,0.800000*%
%TD*%
%TA.AperFunction,Conductor*%
%ADD49C,1.000000*%
%TD*%
%TA.AperFunction,Conductor*%
%ADD50C,0.250000*%
%TD*%
G04 APERTURE END LIST*
D10*
%TO.P,U27,1*%
%TO.N,/WR*%
X300355000Y-204470000D03*
D11*
%TO.P,U27,2*%
X300355000Y-207010000D03*
%TO.P,U27,3*%
%TO.N,Net-(U27-Pad13)*%
X300355000Y-209550000D03*
%TO.P,U27,4*%
%TO.N,/IORQ*%
X300355000Y-212090000D03*
%TO.P,U27,5*%
X300355000Y-214630000D03*
%TO.P,U27,6*%
%TO.N,Net-(U27-Pad10)*%
X300355000Y-217170000D03*
%TO.P,U27,7,GND*%
%TO.N,GND*%
X300355000Y-219710000D03*
%TO.P,U27,8*%
%TO.N,/IORD*%
X307975000Y-219710000D03*
%TO.P,U27,9*%
%TO.N,Net-(U13-Pad8)*%
X307975000Y-217170000D03*
%TO.P,U27,10*%
%TO.N,Net-(U27-Pad10)*%
X307975000Y-214630000D03*
%TO.P,U27,11*%
%TO.N,/IOWR*%
X307975000Y-212090000D03*
%TO.P,U27,12*%
%TO.N,Net-(U27-Pad10)*%
X307975000Y-209550000D03*
%TO.P,U27,13*%
%TO.N,Net-(U27-Pad13)*%
X307975000Y-207010000D03*
%TO.P,U27,14,VCC*%
%TO.N,VCC*%
X307975000Y-204470000D03*
%TD*%
D12*
%TO.P,R44,1*%
%TO.N,Net-(J10-Pad38)*%
X393700000Y-232410000D03*
D11*
%TO.P,R44,2*%
%TO.N,VCC*%
X393700000Y-222250000D03*
%TD*%
D12*
%TO.P,R43,1*%
%TO.N,Net-(D11-Pad1)*%
X397510000Y-116840000D03*
D11*
%TO.P,R43,2*%
%TO.N,Net-(J10-Pad39)*%
X387350000Y-116840000D03*
%TD*%
D13*
%TO.P,J10,1,Pin_1*%
%TO.N,/MR*%
X386985000Y-196900000D03*
D14*
%TO.P,J10,2,Pin_2*%
%TO.N,GND*%
X388985000Y-196900000D03*
%TO.P,J10,3,Pin_3*%
%TO.N,/BUS Expansion/D7*%
X386985000Y-198900000D03*
%TO.P,J10,4,Pin_4*%
%TO.N,unconnected-(J10-Pad4)*%
X388985000Y-198900000D03*
%TO.P,J10,5,Pin_5*%
%TO.N,/BUS Expansion/D6*%
X386985000Y-200900000D03*
%TO.P,J10,6,Pin_6*%
%TO.N,unconnected-(J10-Pad6)*%
X388985000Y-200900000D03*
%TO.P,J10,7,Pin_7*%
%TO.N,/BUS Expansion/D5*%
X386985000Y-202900000D03*
%TO.P,J10,8,Pin_8*%
%TO.N,unconnected-(J10-Pad8)*%
X388985000Y-202900000D03*
%TO.P,J10,9,Pin_9*%
%TO.N,/BUS Expansion/D4*%
X386985000Y-204900000D03*
%TO.P,J10,10,Pin_10*%
%TO.N,unconnected-(J10-Pad10)*%
X388985000Y-204900000D03*
%TO.P,J10,11,Pin_11*%
%TO.N,/BUS Expansion/D3*%
X386985000Y-206900000D03*
%TO.P,J10,12,Pin_12*%
%TO.N,unconnected-(J10-Pad12)*%
X388985000Y-206900000D03*
%TO.P,J10,13,Pin_13*%
%TO.N,/BUS Expansion/D2*%
X386985000Y-208900000D03*
%TO.P,J10,14,Pin_14*%
%TO.N,unconnected-(J10-Pad14)*%
X388985000Y-208900000D03*
%TO.P,J10,15,Pin_15*%
%TO.N,/BUS Expansion/D1*%
X386985000Y-210900000D03*
%TO.P,J10,16,Pin_16*%
%TO.N,unconnected-(J10-Pad16)*%
X388985000Y-210900000D03*
%TO.P,J10,17,Pin_17*%
%TO.N,/BUS Expansion/D0*%
X386985000Y-212900000D03*
%TO.P,J10,18,Pin_18*%
%TO.N,unconnected-(J10-Pad18)*%
X388985000Y-212900000D03*
%TO.P,J10,19,Pin_19*%
%TO.N,GND*%
X386985000Y-214900000D03*
%TO.P,J10,20,Pin_20*%
%TO.N,VCC*%
X388985000Y-214900000D03*
%TO.P,J10,21,Pin_21*%
%TO.N,unconnected-(J10-Pad21)*%
X386985000Y-216900000D03*
%TO.P,J10,22,Pin_22*%
%TO.N,GND*%
X388985000Y-216900000D03*
%TO.P,J10,23,Pin_23*%
%TO.N,/IOWR*%
X386985000Y-218900000D03*
%TO.P,J10,24,Pin_24*%
%TO.N,GND*%
X388985000Y-218900000D03*
%TO.P,J10,25,Pin_25*%
%TO.N,/IORD*%
X386985000Y-220900000D03*
%TO.P,J10,26,Pin_26*%
%TO.N,GND*%
X388985000Y-220900000D03*
%TO.P,J10,27,Pin_27*%
%TO.N,unconnected-(J10-Pad27)*%
X386985000Y-222900000D03*
%TO.P,J10,28,Pin_28*%
%TO.N,unconnected-(J10-Pad28)*%
X388985000Y-222900000D03*
%TO.P,J10,29,Pin_29*%
%TO.N,unconnected-(J10-Pad29)*%
X386985000Y-224900000D03*
%TO.P,J10,30,Pin_30*%
%TO.N,GND*%
X388985000Y-224900000D03*
%TO.P,J10,31,Pin_31*%
%TO.N,unconnected-(J10-Pad31)*%
X386985000Y-226900000D03*
%TO.P,J10,32,Pin_32*%
%TO.N,unconnected-(J10-Pad32)*%
X388985000Y-226900000D03*
%TO.P,J10,33,Pin_33*%
%TO.N,/IO/A1*%
X386985000Y-228900000D03*
%TO.P,J10,34,Pin_34*%
%TO.N,unconnected-(J10-Pad34)*%
X388985000Y-228900000D03*
%TO.P,J10,35,Pin_35*%
%TO.N,/IO/A0*%
X386985000Y-230900000D03*
%TO.P,J10,36,Pin_36*%
%TO.N,/IO/A2*%
X388985000Y-230900000D03*
%TO.P,J10,37,Pin_37*%
%TO.N,/CF_CE*%
X386985000Y-232900000D03*
%TO.P,J10,38,Pin_38*%
%TO.N,Net-(J10-Pad38)*%
X388985000Y-232900000D03*
%TO.P,J10,39,Pin_39*%
%TO.N,Net-(J10-Pad39)*%
X386985000Y-234900000D03*
%TO.P,J10,40,Pin_40*%
%TO.N,GND*%
X388985000Y-234900000D03*
%TD*%
D15*
%TO.P,D11,1,K*%
%TO.N,Net-(D11-Pad1)*%
X401950000Y-116840000D03*
D16*
%TO.P,D11,2,A*%
%TO.N,VCC*%
X404490000Y-116840000D03*
%TD*%
D12*
%TO.P,C52,1*%
%TO.N,GND*%
X302935000Y-200660000D03*
%TO.P,C52,2*%
%TO.N,VCC*%
X307935000Y-200660000D03*
%TD*%
%TO.P,C6,1*%
%TO.N,GND*%
X355645000Y-111755000D03*
%TO.P,C6,2*%
%TO.N,VCC*%
X360645000Y-111755000D03*
%TD*%
%TO.P,R32,1*%
%TO.N,Net-(C49-Pad1)*%
X194310000Y-44450000D03*
D11*
%TO.P,R32,2*%
%TO.N,Net-(C48-Pad1)*%
X186690000Y-44450000D03*
%TD*%
D17*
%TO.P,J2,2,Pin_2*%
%TO.N,/IO/PB1*%
X153035000Y-38735000D03*
%TO.P,J2,4,Pin_4*%
%TO.N,/IO/PB2*%
X149225000Y-38735000D03*
%TO.P,J2,6,Pin_6*%
%TO.N,/IO/PB3*%
X145415000Y-38735000D03*
%TO.P,J2,8,Pin_8*%
%TO.N,/IO/PB5*%
X141605000Y-38735000D03*
%TO.P,J2,10,Pin_10*%
%TO.N,/IO/PB7*%
X137795000Y-38735000D03*
%TO.P,J2,12,Pin_12*%
%TO.N,VCC*%
X133985000Y-38735000D03*
%TD*%
D18*
%TO.P,,4*%
%TO.N,GND*%
X195580000Y-54610000D03*
%TD*%
%TO.P,,4*%
%TO.N,GND*%
X104140000Y-54610000D03*
%TD*%
D12*
%TO.P,R6,1*%
%TO.N,Net-(R6-Pad1)*%
X95250000Y-63589062D03*
D11*
%TO.P,R6,2*%
%TO.N,GND*%
X95250000Y-71209062D03*
%TD*%
D18*
%TO.P,,3*%
%TO.N,GND*%
X397510000Y-210820000D03*
%TD*%
%TO.P,,1*%
%TO.N,GND*%
X22860000Y-54610000D03*
%TD*%
%TO.P,REF\u002A\u002A,2*%
%TO.N,GND*%
X22860000Y-210820000D03*
%TD*%
D12*
%TO.P,C4,1*%
%TO.N,GND*%
X314960000Y-102870000D03*
%TO.P,C4,2*%
%TO.N,VCC*%
X314960000Y-107870000D03*
%TD*%
%TO.P,R21,1*%
%TO.N,/{slash}RESET*%
X355600000Y-97790000D03*
D11*
%TO.P,R21,2*%
%TO.N,Net-(Q3-Pad2)*%
X355600000Y-90170000D03*
%TD*%
D12*
%TO.P,C49,1*%
%TO.N,Net-(C49-Pad1)*%
X198120000Y-50760000D03*
%TO.P,C49,2*%
%TO.N,GND*%
X198120000Y-45760000D03*
%TD*%
D19*
%TO.P,K1,1*%
%TO.N,VCC*%
X299720000Y-78860000D03*
D20*
%TO.P,K1,3*%
%TO.N,/IO/Casette Interface/M1*%
X278720000Y-78860000D03*
%TO.P,K1,5*%
%TO.N,/IO/Casette Interface/M2*%
X282220000Y-86360000D03*
%TO.P,K1,6*%
%TO.N,Net-(D7-Pad1)*%
X299720000Y-86360000D03*
%TD*%
D21*
%TO.P,JE1,2,Pin_2*%
%TO.N,/NMI*%
X83883000Y-39370000D03*
%TO.P,JE1,4,Pin_4*%
%TO.N,/WAIT*%
X81333000Y-39370000D03*
%TO.P,JE1,6,Pin_6*%
%TO.N,/IORQ*%
X78783000Y-39370000D03*
%TO.P,JE1,8,Pin_8*%
%TO.N,/RD*%
X76233000Y-39370000D03*
%TO.P,JE1,10,Pin_10*%
%TO.N,/BUS Expansion/D0*%
X73683000Y-39370000D03*
%TO.P,JE1,12,Pin_12*%
%TO.N,/BUS Expansion/D2*%
X71133000Y-39370000D03*
%TO.P,JE1,14,Pin_14*%
%TO.N,/BUS Expansion/D4*%
X68583000Y-39370000D03*
%TO.P,JE1,16,Pin_16*%
%TO.N,/BUS Expansion/D6*%
X66033000Y-39370000D03*
%TO.P,JE1,18,Pin_18*%
%TO.N,/WR*%
X63483000Y-39370000D03*
%TO.P,JE1,20,Pin_20*%
%TO.N,/IO/A1*%
X60933000Y-39370000D03*
%TO.P,JE1,22,Pin_22*%
%TO.N,/IO/A3*%
X58383000Y-39370000D03*
%TO.P,JE1,24,Pin_24*%
%TO.N,/IO/A5*%
X55833000Y-39370000D03*
%TO.P,JE1,26,Pin_26*%
%TO.N,/IO/A7*%
X53283000Y-39370000D03*
%TO.P,JE1,28,Pin_28*%
%TO.N,/IO/A9*%
X50733000Y-39370000D03*
%TO.P,JE1,30,Pin_30*%
%TO.N,/IO/A11*%
X48183000Y-39370000D03*
%TO.P,JE1,32,Pin_32*%
%TO.N,/BUSACK*%
X45633000Y-39370000D03*
%TO.P,JE1,34,Pin_34*%
%TO.N,GND*%
X43083000Y-39370000D03*
%TO.P,JE1,36,Pin_36*%
%TO.N,/DEV_CS1*%
X40533000Y-39370000D03*
%TO.P,JE1,38,Pin_38*%
%TO.N,/IO/A14*%
X37983000Y-39370000D03*
%TO.P,JE1,40,Pin_40*%
%TO.N,/INT_DEV1*%
X35433000Y-39370000D03*
%TD*%
D12*
%TO.P,R5,1*%
%TO.N,Net-(R5-Pad1)*%
X91440000Y-63589062D03*
D11*
%TO.P,R5,2*%
%TO.N,GND*%
X91440000Y-71209062D03*
%TD*%
D12*
%TO.P,C32,1*%
%TO.N,VCC*%
X17780000Y-102910000D03*
%TO.P,C32,2*%
%TO.N,GND*%
X17780000Y-107910000D03*
%TD*%
%TO.P,R19,1*%
%TO.N,Net-(C19-Pad1)*%
X165100000Y-67230000D03*
D11*
%TO.P,R19,2*%
%TO.N,Net-(Q2-Pad1)*%
X154940000Y-67230000D03*
%TD*%
D22*
%TO.P,J3,3*%
%TO.N,N/C*%
X240650000Y-48940000D03*
%TO.P,J3,2,Ext*%
%TO.N,GND*%
X254650000Y-48940000D03*
D23*
%TO.P,J3,1,In*%
%TO.N,Net-(C19-Pad2)*%
X247650000Y-56210000D03*
%TD*%
D15*
%TO.P,D4,1,K*%
%TO.N,Net-(D4-Pad1)*%
X402590000Y-90170000D03*
D16*
%TO.P,D4,2,A*%
%TO.N,VCC*%
X405130000Y-90170000D03*
%TD*%
D12*
%TO.P,C38,1*%
%TO.N,VCC*%
X207065000Y-200665000D03*
%TO.P,C38,2*%
%TO.N,GND*%
X202065000Y-200665000D03*
%TD*%
D24*
%TO.P,U28,1,OE*%
%TO.N,Net-(JP3-Pad2)*%
X184100000Y-204480000D03*
D25*
%TO.P,U28,2,O0*%
%TO.N,/BUS Expansion/D0*%
X184100000Y-207020000D03*
%TO.P,U28,3,D0*%
%TO.N,GND*%
X184100000Y-209560000D03*
%TO.P,U28,4,D1*%
%TO.N,Net-(U26-Pad9)*%
X184100000Y-212100000D03*
%TO.P,U28,5,O1*%
%TO.N,/BUS Expansion/D1*%
X184100000Y-214640000D03*
%TO.P,U28,6,O2*%
%TO.N,/BUS Expansion/D2*%
X184100000Y-217180000D03*
%TO.P,U28,7,D2*%
%TO.N,Net-(U26-Pad7)*%
X184100000Y-219720000D03*
%TO.P,U28,8,D3*%
%TO.N,Net-(U26-Pad6)*%
X184100000Y-222260000D03*
%TO.P,U28,9,O3*%
%TO.N,/BUS Expansion/D3*%
X184100000Y-224800000D03*
%TO.P,U28,10,GND*%
%TO.N,GND*%
X184100000Y-227340000D03*
%TO.P,U28,11,LE*%
%TO.N,/M1*%
X191720000Y-227340000D03*
%TO.P,U28,12,O4*%
%TO.N,/BUS Expansion/D4*%
X191720000Y-224800000D03*
%TO.P,U28,13,D4*%
%TO.N,GND*%
X191720000Y-222260000D03*
%TO.P,U28,14,D5*%
X191720000Y-219720000D03*
%TO.P,U28,15,O5*%
%TO.N,/BUS Expansion/D5*%
X191720000Y-217180000D03*
%TO.P,U28,16,O6*%
%TO.N,/BUS Expansion/D6*%
X191720000Y-214640000D03*
%TO.P,U28,17,D6*%
%TO.N,GND*%
X191720000Y-212100000D03*
%TO.P,U28,18,D7*%
X191720000Y-209560000D03*
%TO.P,U28,19,O7*%
%TO.N,/BUS Expansion/D7*%
X191720000Y-207020000D03*
%TO.P,U28,20,VCC*%
%TO.N,VCC*%
X191720000Y-204480000D03*
%TD*%
D12*
%TO.P,R38,1*%
%TO.N,Net-(R38-Pad1)*%
X228600000Y-86360000D03*
D11*
%TO.P,R38,2*%
%TO.N,VCC*%
X228600000Y-93980000D03*
%TD*%
D15*
%TO.P,U29,1,IN*%
%TO.N,Net-(C44-Pad1)*%
X378460000Y-61025000D03*
D26*
%TO.P,U29,2,GND*%
%TO.N,GND*%
X381000000Y-61025000D03*
%TO.P,U29,3,OUT*%
%TO.N,VCC*%
X383540000Y-61025000D03*
%TD*%
D10*
%TO.P,D10,1,A*%
%TO.N,GND*%
X205740000Y-97790000D03*
D11*
%TO.P,D10,2,K*%
%TO.N,Net-(D10-Pad2)*%
X213360000Y-97790000D03*
%TD*%
D10*
%TO.P,D8,1,A*%
%TO.N,Net-(D8-Pad1)*%
X292100000Y-71120000D03*
D11*
%TO.P,D8,2,K*%
%TO.N,/IO/Casette Interface/M1*%
X284480000Y-71120000D03*
%TD*%
D10*
%TO.P,C19,1*%
%TO.N,Net-(C19-Pad1)*%
X247650000Y-65957626D03*
D12*
%TO.P,C19,2*%
%TO.N,Net-(C19-Pad2)*%
X247650000Y-63457626D03*
%TD*%
D10*
%TO.P,U23,1,GND*%
%TO.N,GND*%
X342910000Y-85230000D03*
D11*
%TO.P,U23,2,TR*%
%TO.N,Net-(C34-Pad1)*%
X342910000Y-87770000D03*
%TO.P,U23,3,Q*%
%TO.N,Net-(U12-Pad1)*%
X342910000Y-90310000D03*
%TO.P,U23,4,R*%
%TO.N,VCC*%
X342910000Y-92850000D03*
%TO.P,U23,5,CV*%
%TO.N,unconnected-(U23-Pad5)*%
X350530000Y-92850000D03*
%TO.P,U23,6,THR*%
%TO.N,Net-(C36-Pad1)*%
X350530000Y-90310000D03*
%TO.P,U23,7,DIS*%
X350530000Y-87770000D03*
%TO.P,U23,8,VCC*%
%TO.N,VCC*%
X350530000Y-85230000D03*
%TD*%
D12*
%TO.P,C37,1*%
%TO.N,GND*%
X224830000Y-200660000D03*
%TO.P,C37,2*%
%TO.N,VCC*%
X229830000Y-200660000D03*
%TD*%
%TO.P,R14,1*%
%TO.N,GND*%
X39370000Y-91440000D03*
D11*
%TO.P,R14,2*%
%TO.N,Net-(C30-Pad1)*%
X29210000Y-91440000D03*
%TD*%
D10*
%TO.P,D5,1,K*%
%TO.N,Net-(D5-Pad1)*%
X115570000Y-157480000D03*
D11*
%TO.P,D5,2,A*%
%TO.N,/VDP_INT*%
X123190000Y-157480000D03*
%TD*%
D12*
%TO.P,R4,1*%
%TO.N,Net-(R4-Pad1)*%
X87630000Y-63589062D03*
D11*
%TO.P,R4,2*%
%TO.N,GND*%
X87630000Y-71209062D03*
%TD*%
D24*
%TO.P,U26,1,I4*%
%TO.N,/INT_DEV2*%
X199470000Y-204490000D03*
D25*
%TO.P,U26,2,I5*%
%TO.N,/INT_DEV3*%
X199470000Y-207030000D03*
%TO.P,U26,3,I6*%
%TO.N,/INT_DEV4*%
X199470000Y-209570000D03*
%TO.P,U26,4,I7*%
%TO.N,/INT_DEV5*%
X199470000Y-212110000D03*
%TO.P,U26,5,EI*%
%TO.N,GND*%
X199470000Y-214650000D03*
%TO.P,U26,6,S2*%
%TO.N,Net-(U26-Pad6)*%
X199470000Y-217190000D03*
%TO.P,U26,7,S1*%
%TO.N,Net-(U26-Pad7)*%
X199470000Y-219730000D03*
%TO.P,U26,8,GND*%
%TO.N,GND*%
X199470000Y-222270000D03*
%TO.P,U26,9,S0*%
%TO.N,Net-(U26-Pad9)*%
X207090000Y-222270000D03*
%TO.P,U26,10,IO*%
%TO.N,/CTC_INT*%
X207090000Y-219730000D03*
%TO.P,U26,11,I1*%
%TO.N,/UART_INT*%
X207090000Y-217190000D03*
%TO.P,U26,12,I2*%
%TO.N,/VDP_INT*%
X207090000Y-214650000D03*
%TO.P,U26,13,I3*%
%TO.N,/INT_DEV1*%
X207090000Y-212110000D03*
%TO.P,U26,14,GS*%
%TO.N,Net-(U25-Pad10)*%
X207090000Y-209570000D03*
%TO.P,U26,15,EO*%
%TO.N,unconnected-(U26-Pad15)*%
X207090000Y-207030000D03*
%TO.P,U26,16,VCC*%
%TO.N,VCC*%
X207090000Y-204490000D03*
%TD*%
D12*
%TO.P,R3,1*%
%TO.N,VCC*%
X325120000Y-149860000D03*
D11*
%TO.P,R3,2*%
%TO.N,/BUSRQ*%
X325120000Y-157480000D03*
%TD*%
D24*
%TO.P,U2,1,A14*%
%TO.N,/IO/A14*%
X233680000Y-118110000D03*
D25*
%TO.P,U2,2,A12*%
%TO.N,/IO/A12*%
X233680000Y-120650000D03*
%TO.P,U2,3,A7*%
%TO.N,/IO/A7*%
X233680000Y-123190000D03*
%TO.P,U2,4,A6*%
%TO.N,/IO/A6*%
X233680000Y-125730000D03*
%TO.P,U2,5,A5*%
%TO.N,/IO/A5*%
X233680000Y-128270000D03*
%TO.P,U2,6,A4*%
%TO.N,/IO/A4*%
X233680000Y-130810000D03*
%TO.P,U2,7,A3*%
%TO.N,/IO/A3*%
X233680000Y-133350000D03*
%TO.P,U2,8,A2*%
%TO.N,/IO/A2*%
X233680000Y-135890000D03*
%TO.P,U2,9,A1*%
%TO.N,/IO/A1*%
X233680000Y-138430000D03*
%TO.P,U2,10,A0*%
%TO.N,/IO/A0*%
X233680000Y-140970000D03*
%TO.P,U2,11,I/O1*%
%TO.N,/BUS Expansion/D0*%
X233680000Y-143510000D03*
%TO.P,U2,12,I/O2*%
%TO.N,/BUS Expansion/D1*%
X233680000Y-146050000D03*
%TO.P,U2,13,I/O3*%
%TO.N,/BUS Expansion/D2*%
X233680000Y-148590000D03*
%TO.P,U2,14,GND*%
%TO.N,GND*%
X233680000Y-151130000D03*
%TO.P,U2,15,I/O4*%
%TO.N,/BUS Expansion/D3*%
X248920000Y-151130000D03*
%TO.P,U2,16,I/O5*%
%TO.N,/BUS Expansion/D4*%
X248920000Y-148590000D03*
%TO.P,U2,17,I/O6*%
%TO.N,/BUS Expansion/D5*%
X248920000Y-146050000D03*
%TO.P,U2,18,I/O7*%
%TO.N,/BUS Expansion/D6*%
X248920000Y-143510000D03*
%TO.P,U2,19,I/O8*%
%TO.N,/BUS Expansion/D7*%
X248920000Y-140970000D03*
%TO.P,U2,20,/CE*%
%TO.N,/ROM_CE*%
X248920000Y-138430000D03*
%TO.P,U2,21,A10*%
%TO.N,/IO/A10*%
X248920000Y-135890000D03*
%TO.P,U2,22,/OE*%
%TO.N,/RD*%
X248920000Y-133350000D03*
%TO.P,U2,23,A11*%
%TO.N,/IO/A11*%
X248920000Y-130810000D03*
%TO.P,U2,24,A9*%
%TO.N,/IO/A9*%
X248920000Y-128270000D03*
%TO.P,U2,25,A8*%
%TO.N,/IO/A8*%
X248920000Y-125730000D03*
%TO.P,U2,26,A13*%
%TO.N,/IO/A13*%
X248920000Y-123190000D03*
%TO.P,U2,27,R/W*%
%TO.N,/WR*%
X248920000Y-120650000D03*
%TO.P,U2,28,VDD*%
%TO.N,VCC*%
X248920000Y-118110000D03*
%TD*%
D12*
%TO.P,C30,1*%
%TO.N,Net-(C30-Pad1)*%
X29250000Y-86360000D03*
%TO.P,C30,2*%
%TO.N,GND*%
X34250000Y-86360000D03*
%TD*%
%TO.P,C31,1*%
%TO.N,Net-(C31-Pad1)*%
X17860000Y-86360000D03*
%TO.P,C31,2*%
%TO.N,Net-(C30-Pad1)*%
X22860000Y-86360000D03*
%TD*%
D15*
%TO.P,D6,1,K*%
%TO.N,GND*%
X405130000Y-97790000D03*
D16*
%TO.P,D6,2,A*%
%TO.N,Net-(D6-Pad2)*%
X402590000Y-97790000D03*
%TD*%
D12*
%TO.P,C34,2*%
%TO.N,GND*%
X374650000Y-92750000D03*
%TO.P,C34,1*%
%TO.N,Net-(C34-Pad1)*%
X374650000Y-97750000D03*
%TD*%
D24*
%TO.P,U20,1*%
%TO.N,Net-(U20-Pad1)*%
X47000000Y-207005000D03*
D25*
%TO.P,U20,2*%
%TO.N,/IO/A0*%
X47000000Y-209545000D03*
%TO.P,U20,3*%
%TO.N,/PSG_CE*%
X47000000Y-212085000D03*
%TO.P,U20,4*%
%TO.N,Net-(U20-Pad4)*%
X47000000Y-214625000D03*
%TO.P,U20,5*%
%TO.N,/PSG_CE*%
X47000000Y-217165000D03*
%TO.P,U20,6*%
%TO.N,/WR*%
X47000000Y-219705000D03*
%TO.P,U20,7,GND*%
%TO.N,GND*%
X47000000Y-222245000D03*
%TO.P,U20,8*%
%TO.N,N/C*%
X54620000Y-222245000D03*
%TO.P,U20,9*%
X54620000Y-219705000D03*
%TO.P,U20,10*%
X54620000Y-217165000D03*
%TO.P,U20,11*%
X54620000Y-214625000D03*
%TO.P,U20,12*%
X54620000Y-212085000D03*
%TO.P,U20,13*%
X54620000Y-209545000D03*
%TO.P,U20,14,VCC*%
%TO.N,VCC*%
X54620000Y-207005000D03*
%TD*%
D12*
%TO.P,R29,1*%
%TO.N,Net-(C48-Pad1)*%
X213360000Y-87630000D03*
D11*
%TO.P,R29,2*%
%TO.N,Net-(R29-Pad2)*%
X205740000Y-87630000D03*
%TD*%
D12*
%TO.P,C3,1*%
%TO.N,GND*%
X266700000Y-113025000D03*
%TO.P,C3,2*%
%TO.N,VCC*%
X271700000Y-113025000D03*
%TD*%
D24*
%TO.P,U3,1,A14*%
%TO.N,/IO/A14*%
X256540000Y-118110000D03*
D25*
%TO.P,U3,2,A12*%
%TO.N,/IO/A12*%
X256540000Y-120650000D03*
%TO.P,U3,3,A7*%
%TO.N,/IO/A7*%
X256540000Y-123190000D03*
%TO.P,U3,4,A6*%
%TO.N,/IO/A6*%
X256540000Y-125730000D03*
%TO.P,U3,5,A5*%
%TO.N,/IO/A5*%
X256540000Y-128270000D03*
%TO.P,U3,6,A4*%
%TO.N,/IO/A4*%
X256540000Y-130810000D03*
%TO.P,U3,7,A3*%
%TO.N,/IO/A3*%
X256540000Y-133350000D03*
%TO.P,U3,8,A2*%
%TO.N,/IO/A2*%
X256540000Y-135890000D03*
%TO.P,U3,9,A1*%
%TO.N,/IO/A1*%
X256540000Y-138430000D03*
%TO.P,U3,10,A0*%
%TO.N,/IO/A0*%
X256540000Y-140970000D03*
%TO.P,U3,11,D0*%
%TO.N,/BUS Expansion/D0*%
X256540000Y-143510000D03*
%TO.P,U3,12,D1*%
%TO.N,/BUS Expansion/D1*%
X256540000Y-146050000D03*
%TO.P,U3,13,D2*%
%TO.N,/BUS Expansion/D2*%
X256540000Y-148590000D03*
%TO.P,U3,14,GND*%
%TO.N,GND*%
X256540000Y-151130000D03*
%TO.P,U3,15,D3*%
%TO.N,/BUS Expansion/D3*%
X271780000Y-151130000D03*
%TO.P,U3,16,D4*%
%TO.N,/BUS Expansion/D4*%
X271780000Y-148590000D03*
%TO.P,U3,17,D5*%
%TO.N,/BUS Expansion/D5*%
X271780000Y-146050000D03*
%TO.P,U3,18,D6*%
%TO.N,/BUS Expansion/D6*%
X271780000Y-143510000D03*
%TO.P,U3,19,D7*%
%TO.N,/BUS Expansion/D7*%
X271780000Y-140970000D03*
%TO.P,U3,20,~{CS}*%
%TO.N,/RAM_CE*%
X271780000Y-138430000D03*
%TO.P,U3,21,A10*%
%TO.N,/IO/A10*%
X271780000Y-135890000D03*
%TO.P,U3,22,~{OE}*%
%TO.N,/RD*%
X271780000Y-133350000D03*
%TO.P,U3,23,A11*%
%TO.N,/IO/A11*%
X271780000Y-130810000D03*
%TO.P,U3,24,A9*%
%TO.N,/IO/A9*%
X271780000Y-128270000D03*
%TO.P,U3,25,A8*%
%TO.N,/IO/A8*%
X271780000Y-125730000D03*
%TO.P,U3,26,A13*%
%TO.N,/IO/A13*%
X271780000Y-123190000D03*
%TO.P,U3,27,~{WE}*%
%TO.N,VCC*%
X271780000Y-120650000D03*
%TO.P,U3,28,VCC*%
X271780000Y-118110000D03*
%TD*%
D10*
%TO.P,U4,1,PA3*%
%TO.N,Net-(R7-Pad1)*%
X92715000Y-91445000D03*
D11*
%TO.P,U4,2,PA2*%
%TO.N,Net-(R6-Pad1)*%
X95255000Y-91445000D03*
%TO.P,U4,3,PA1*%
%TO.N,Net-(R5-Pad1)*%
X97795000Y-91445000D03*
%TO.P,U4,4,PA0*%
%TO.N,Net-(R4-Pad1)*%
X100335000Y-91445000D03*
%TO.P,U4,5,~{RD}*%
%TO.N,/RD*%
X102875000Y-91445000D03*
%TO.P,U4,6,~{CS}*%
%TO.N,/PPI_CE*%
X105415000Y-91445000D03*
%TO.P,U4,7,GND*%
%TO.N,GND*%
X107955000Y-91445000D03*
%TO.P,U4,8,A1*%
%TO.N,/IO/A1*%
X110495000Y-91445000D03*
%TO.P,U4,9,A0*%
%TO.N,/IO/A0*%
X113035000Y-91445000D03*
%TO.P,U4,10,PC7*%
%TO.N,/IO/Casette Interface/PC7*%
X115575000Y-91445000D03*
%TO.P,U4,11,PC6*%
%TO.N,/IO/Casette Interface/PC6*%
X118115000Y-91445000D03*
%TO.P,U4,12,PC5*%
%TO.N,/IO/Casette Interface/PC5*%
X120655000Y-91445000D03*
%TO.P,U4,13,PC4*%
%TO.N,/IO/Casette Interface/PC4*%
X123195000Y-91445000D03*
%TO.P,U4,14,PC0*%
%TO.N,/IO/PC0*%
X125735000Y-91445000D03*
%TO.P,U4,15,PC1*%
%TO.N,/IO/PC1*%
X128275000Y-91445000D03*
%TO.P,U4,16,PC2*%
%TO.N,/IO/Casette Interface/PC2*%
X130815000Y-91445000D03*
%TO.P,U4,17,PC3*%
%TO.N,/IO/Casette Interface/PC3*%
X133355000Y-91445000D03*
%TO.P,U4,18,PB0*%
%TO.N,/IO/PB0*%
X135895000Y-91445000D03*
%TO.P,U4,19,PB1*%
%TO.N,/IO/PB1*%
X138435000Y-91445000D03*
%TO.P,U4,20,PB2*%
%TO.N,/IO/PB2*%
X140975000Y-91445000D03*
%TO.P,U4,21,PB3*%
%TO.N,/IO/PB3*%
X140975000Y-76205000D03*
%TO.P,U4,22,PB4*%
%TO.N,/IO/PB4*%
X138435000Y-76205000D03*
%TO.P,U4,23,PB5*%
%TO.N,/IO/PB5*%
X135895000Y-76205000D03*
%TO.P,U4,24,PB6*%
%TO.N,/IO/PB6*%
X133355000Y-76205000D03*
%TO.P,U4,25,PB7*%
%TO.N,/IO/PB7*%
X130815000Y-76205000D03*
%TO.P,U4,26,VCC*%
%TO.N,VCC*%
X128275000Y-76205000D03*
%TO.P,U4,27,D7*%
%TO.N,/BUS Expansion/D7*%
X125735000Y-76205000D03*
%TO.P,U4,28,D6*%
%TO.N,/BUS Expansion/D6*%
X123195000Y-76205000D03*
%TO.P,U4,29,D5*%
%TO.N,/BUS Expansion/D5*%
X120655000Y-76205000D03*
%TO.P,U4,30,D4*%
%TO.N,/BUS Expansion/D4*%
X118115000Y-76205000D03*
%TO.P,U4,31,D3*%
%TO.N,/BUS Expansion/D3*%
X115575000Y-76205000D03*
%TO.P,U4,32,D2*%
%TO.N,/BUS Expansion/D2*%
X113035000Y-76205000D03*
%TO.P,U4,33,D1*%
%TO.N,/BUS Expansion/D1*%
X110495000Y-76205000D03*
%TO.P,U4,34,D0*%
%TO.N,/BUS Expansion/D0*%
X107955000Y-76205000D03*
%TO.P,U4,35,RESET*%
%TO.N,/RESET_IO*%
X105415000Y-76205000D03*
%TO.P,U4,36,~{WR}*%
%TO.N,/WR*%
X102875000Y-76205000D03*
%TO.P,U4,37,PA7*%
%TO.N,/IO/PA7*%
X100335000Y-76205000D03*
%TO.P,U4,38,PA6*%
%TO.N,/IO/PA6*%
X97795000Y-76205000D03*
%TO.P,U4,39,PA5*%
%TO.N,/IO/PA5*%
X95255000Y-76205000D03*
%TO.P,U4,40,PA4*%
%TO.N,/IO/PA4*%
X92715000Y-76205000D03*
%TD*%
D15*
%TO.P,D3,1,K*%
%TO.N,Net-(D3-Pad1)*%
X394970000Y-68680000D03*
D26*
%TO.P,D3,2,A*%
%TO.N,Net-(C44-Pad1)*%
X387350000Y-68680000D03*
%TD*%
D24*
%TO.P,U13,1*%
%TO.N,/IO/A8*%
X269215000Y-204570000D03*
D25*
%TO.P,U13,2*%
X269215000Y-207110000D03*
%TO.P,U13,3*%
%TO.N,Net-(U13-Pad3)*%
X269215000Y-209650000D03*
%TO.P,U13,4*%
%TO.N,/{slash}RESET*%
X269215000Y-212190000D03*
%TO.P,U13,5*%
X269215000Y-214730000D03*
%TO.P,U13,6*%
%TO.N,/MR*%
X269215000Y-217270000D03*
%TO.P,U13,7,GND*%
%TO.N,GND*%
X269215000Y-219810000D03*
%TO.P,U13,8*%
%TO.N,Net-(U13-Pad8)*%
X276835000Y-219810000D03*
%TO.P,U13,9*%
%TO.N,/RD*%
X276835000Y-217270000D03*
%TO.P,U13,10*%
X276835000Y-214730000D03*
%TO.P,U13,11*%
%TO.N,/UART_INT*%
X276835000Y-212190000D03*
%TO.P,U13,12*%
%TO.N,Net-(U13-Pad12)*%
X276835000Y-209650000D03*
%TO.P,U13,13*%
X276835000Y-207110000D03*
%TO.P,U13,14,VCC*%
%TO.N,VCC*%
X276835000Y-204570000D03*
%TD*%
D12*
%TO.P,R24,1*%
%TO.N,Net-(Q4-Pad2)*%
X285750000Y-91440000D03*
D11*
%TO.P,R24,2*%
%TO.N,/IO/PA7*%
X278130000Y-91440000D03*
%TD*%
D12*
%TO.P,C23,1*%
%TO.N,GND*%
X127080000Y-130810000D03*
%TO.P,C23,2*%
%TO.N,VCC*%
X132080000Y-130810000D03*
%TD*%
D24*
%TO.P,U19,1*%
%TO.N,/IO/PA6*%
X237475000Y-86370000D03*
D25*
%TO.P,U19,2,-*%
%TO.N,Net-(R35-Pad1)*%
X237475000Y-88910000D03*
%TO.P,U19,3,+*%
%TO.N,Net-(R38-Pad1)*%
X237475000Y-91450000D03*
%TO.P,U19,4,V-*%
%TO.N,VCC*%
X237475000Y-93990000D03*
%TO.P,U19,5*%
%TO.N,N/C*%
X245095000Y-93990000D03*
%TO.P,U19,6*%
X245095000Y-91450000D03*
%TO.P,U19,7*%
X245095000Y-88910000D03*
%TO.P,U19,8,V+*%
%TO.N,GND*%
X245095000Y-86370000D03*
%TD*%
D27*
%TO.P,JP2,1,A*%
%TO.N,Net-(C7-Pad2)*%
X370855000Y-187960000D03*
D28*
%TO.P,JP2,2,C*%
%TO.N,VCC*%
X373395000Y-187960000D03*
%TO.P,JP2,3,B*%
%TO.N,Net-(FB1-Pad2)*%
X375935000Y-187960000D03*
%TD*%
D29*
%TO.P,J9,1,Pin_1*%
%TO.N,GND*%
X401320000Y-55980000D03*
D30*
%TO.P,J9,2,Pin_2*%
%TO.N,Net-(J9-Pad2)*%
X401320000Y-61060000D03*
%TD*%
D12*
%TO.P,R36,1*%
%TO.N,Net-(R35-Pad1)*%
X233680000Y-97790000D03*
D11*
%TO.P,R36,2*%
%TO.N,VCC*%
X226060000Y-97790000D03*
%TD*%
D12*
%TO.P,R8,1*%
%TO.N,Net-(D1-Pad2)*%
X180340000Y-38735000D03*
D11*
%TO.P,R8,2*%
%TO.N,/IO/PC1*%
X180340000Y-46355000D03*
%TD*%
D12*
%TO.P,C29,1*%
%TO.N,VCC*%
X54610000Y-114300000D03*
%TO.P,C29,2*%
%TO.N,GND*%
X49610000Y-114300000D03*
%TD*%
D31*
%TO.P,Y2,1,1*%
%TO.N,Net-(C16-Pad2)*%
X115510000Y-123010000D03*
%TO.P,Y2,2,2*%
%TO.N,Net-(C17-Pad2)*%
X115510000Y-118110000D03*
%TD*%
D12*
%TO.P,C27,1*%
%TO.N,VCC*%
X292100000Y-200660000D03*
%TO.P,C27,2*%
%TO.N,GND*%
X287100000Y-200660000D03*
%TD*%
D32*
%TO.P,U9,1,OE*%
%TO.N,GND*%
X135890000Y-138530000D03*
D33*
%TO.P,U9,2,D0*%
%TO.N,/VIDEO/AD0*%
X138430000Y-138530000D03*
%TO.P,U9,3,D1*%
%TO.N,/VIDEO/AD1*%
X140970000Y-138530000D03*
%TO.P,U9,4,D2*%
%TO.N,/VIDEO/AD2*%
X143510000Y-138530000D03*
%TO.P,U9,5,D3*%
%TO.N,/VIDEO/AD3*%
X146050000Y-138530000D03*
%TO.P,U9,6,D4*%
%TO.N,/VIDEO/AD4*%
X148590000Y-138530000D03*
%TO.P,U9,7,D5*%
%TO.N,/VIDEO/AD5*%
X151130000Y-138530000D03*
%TO.P,U9,8,D6*%
%TO.N,/VIDEO/AD6*%
X153670000Y-138530000D03*
%TO.P,U9,9,D7*%
%TO.N,/VIDEO/AD7*%
X156210000Y-138530000D03*
%TO.P,U9,10,GND*%
%TO.N,GND*%
X158750000Y-138530000D03*
%TO.P,U9,11,Cp*%
%TO.N,Net-(U17-Pad6)*%
X158750000Y-130910000D03*
%TO.P,U9,12,Q7*%
%TO.N,/VIDEO/VA13*%
X156210000Y-130910000D03*
%TO.P,U9,13,Q6*%
%TO.N,/VIDEO/VA12*%
X153670000Y-130910000D03*
%TO.P,U9,14,Q5*%
%TO.N,/VIDEO/VA11*%
X151130000Y-130910000D03*
%TO.P,U9,15,Q4*%
%TO.N,/VIDEO/VA10*%
X148590000Y-130910000D03*
%TO.P,U9,16,Q3*%
%TO.N,/VIDEO/VA9*%
X146050000Y-130910000D03*
%TO.P,U9,17,Q2*%
%TO.N,/VIDEO/VA8*%
X143510000Y-130910000D03*
%TO.P,U9,18,Q1*%
%TO.N,/VIDEO/VA7*%
X140970000Y-130910000D03*
%TO.P,U9,19,Q0*%
%TO.N,unconnected-(U9-Pad19)*%
X138430000Y-130910000D03*
%TO.P,U9,20,VCC*%
%TO.N,VCC*%
X135890000Y-130910000D03*
%TD*%
D32*
%TO.P,U8,1,OE*%
%TO.N,GND*%
X135895000Y-123280000D03*
D33*
%TO.P,U8,2,D0*%
%TO.N,/VIDEO/AD0*%
X138435000Y-123280000D03*
%TO.P,U8,3,D1*%
%TO.N,/VIDEO/AD1*%
X140975000Y-123280000D03*
%TO.P,U8,4,D2*%
%TO.N,/VIDEO/AD2*%
X143515000Y-123280000D03*
%TO.P,U8,5,D3*%
%TO.N,/VIDEO/AD3*%
X146055000Y-123280000D03*
%TO.P,U8,6,D4*%
%TO.N,/VIDEO/AD4*%
X148595000Y-123280000D03*
%TO.P,U8,7,D5*%
%TO.N,/VIDEO/AD5*%
X151135000Y-123280000D03*
%TO.P,U8,8,D6*%
%TO.N,/VIDEO/AD6*%
X153675000Y-123280000D03*
%TO.P,U8,9,D7*%
%TO.N,/VIDEO/AD7*%
X156215000Y-123280000D03*
%TO.P,U8,10,GND*%
%TO.N,GND*%
X158755000Y-123280000D03*
%TO.P,U8,11,Cp*%
%TO.N,Net-(U17-Pad2)*%
X158755000Y-115660000D03*
%TO.P,U8,12,Q7*%
%TO.N,/VIDEO/VA6*%
X156215000Y-115660000D03*
%TO.P,U8,13,Q6*%
%TO.N,/VIDEO/VA5*%
X153675000Y-115660000D03*
%TO.P,U8,14,Q5*%
%TO.N,/VIDEO/VA4*%
X151135000Y-115660000D03*
%TO.P,U8,15,Q4*%
%TO.N,/VIDEO/VA3*%
X148595000Y-115660000D03*
%TO.P,U8,16,Q3*%
%TO.N,/VIDEO/VA2*%
X146055000Y-115660000D03*
%TO.P,U8,17,Q2*%
%TO.N,/VIDEO/VA1*%
X143515000Y-115660000D03*
%TO.P,U8,18,Q1*%
%TO.N,/VIDEO/VA0*%
X140975000Y-115660000D03*
%TO.P,U8,19,Q0*%
%TO.N,unconnected-(U8-Pad19)*%
X138435000Y-115660000D03*
%TO.P,U8,20,VCC*%
%TO.N,VCC*%
X135895000Y-115660000D03*
%TD*%
D12*
%TO.P,R28,1*%
%TO.N,Net-(C48-Pad1)*%
X213360000Y-92710000D03*
D11*
%TO.P,R28,2*%
%TO.N,Net-(R28-Pad2)*%
X205740000Y-92710000D03*
%TD*%
D12*
%TO.P,R35,1*%
%TO.N,Net-(R35-Pad1)*%
X233680000Y-93980000D03*
D11*
%TO.P,R35,2*%
%TO.N,/IO/PA6*%
X233680000Y-86360000D03*
%TD*%
D27*
%TO.P,SPEAKER1,1,Pin_1*%
%TO.N,GND*%
X31750000Y-67310000D03*
D28*
%TO.P,SPEAKER1,2,Pin_2*%
%TO.N,Net-(C43-Pad2)*%
X29210000Y-67310000D03*
%TD*%
D10*
%TO.P,C42,1*%
%TO.N,VCC*%
X24130000Y-104140000D03*
D12*
%TO.P,C42,2*%
%TO.N,GND*%
X24130000Y-106140000D03*
%TD*%
%TO.P,R33,1*%
%TO.N,GND*%
X186690000Y-48260000D03*
D11*
%TO.P,R33,2*%
%TO.N,Net-(C49-Pad1)*%
X194310000Y-48260000D03*
%TD*%
D12*
%TO.P,R10,1*%
%TO.N,Net-(R10-Pad1)*%
X368012500Y-171550000D03*
D11*
%TO.P,R10,2*%
%TO.N,Net-(C8-Pad1)*%
X375632500Y-171550000D03*
%TD*%
D12*
%TO.P,C44,1*%
%TO.N,Net-(C44-Pad1)*%
X375920000Y-78840000D03*
%TO.P,C44,2*%
%TO.N,GND*%
X378420000Y-78840000D03*
%TD*%
%TO.P,R37,1*%
%TO.N,GND*%
X250190000Y-86360000D03*
D11*
%TO.P,R37,2*%
%TO.N,Net-(R35-Pad1)*%
X250190000Y-93980000D03*
%TD*%
D12*
%TO.P,R12,1*%
%TO.N,GND*%
X29210000Y-99060000D03*
D11*
%TO.P,R12,2*%
%TO.N,Net-(JP4-Pad1)*%
X39370000Y-99060000D03*
%TD*%
D24*
%TO.P,U12,1*%
%TO.N,Net-(U12-Pad1)*%
X330210000Y-84469436D03*
D25*
%TO.P,U12,2*%
X330210000Y-87009436D03*
%TO.P,U12,3*%
%TO.N,/{slash}RESET*%
X330210000Y-89549436D03*
%TO.P,U12,4*%
X330210000Y-92089436D03*
%TO.P,U12,5*%
X330210000Y-94629436D03*
%TO.P,U12,6*%
%TO.N,/RESET_IO*%
X330210000Y-97169436D03*
%TO.P,U12,7,GND*%
%TO.N,GND*%
X330210000Y-99709436D03*
%TO.P,U12,8*%
%TO.N,N/C*%
X337830000Y-99709436D03*
%TO.P,U12,9*%
X337830000Y-97169436D03*
%TO.P,U12,10*%
X337830000Y-94629436D03*
%TO.P,U12,11*%
X337830000Y-92089436D03*
%TO.P,U12,12*%
X337830000Y-89549436D03*
%TO.P,U12,13*%
X337830000Y-87009436D03*
%TO.P,U12,14,VCC*%
%TO.N,VCC*%
X337830000Y-84469436D03*
%TD*%
D24*
%TO.P,U22,1,GAIN*%
%TO.N,unconnected-(U22-Pad1)*%
X17780000Y-91440000D03*
D25*
%TO.P,U22,2,-*%
%TO.N,GND*%
X17780000Y-93980000D03*
%TO.P,U22,3,+*%
%TO.N,Net-(C31-Pad1)*%
X17780000Y-96520000D03*
%TO.P,U22,4,GND*%
%TO.N,GND*%
X17780000Y-99060000D03*
%TO.P,U22,5*%
%TO.N,Net-(C33-Pad1)*%
X25400000Y-99060000D03*
%TO.P,U22,6,V+*%
%TO.N,VCC*%
X25400000Y-96520000D03*
%TO.P,U22,7,BYPASS*%
%TO.N,unconnected-(U22-Pad7)*%
X25400000Y-93980000D03*
%TO.P,U22,8,GAIN*%
%TO.N,unconnected-(U22-Pad8)*%
X25400000Y-91440000D03*
%TD*%
D12*
%TO.P,C26,1*%
%TO.N,GND*%
X118150000Y-203200000D03*
%TO.P,C26,2*%
%TO.N,VCC*%
X123150000Y-203200000D03*
%TD*%
%TO.P,R11,1*%
%TO.N,VCC*%
X391160000Y-97790000D03*
D11*
%TO.P,R11,2*%
%TO.N,Net-(D6-Pad2)*%
X398780000Y-97790000D03*
%TD*%
D12*
%TO.P,C35,1*%
%TO.N,VCC*%
X345480000Y-97790000D03*
%TO.P,C35,2*%
%TO.N,GND*%
X350480000Y-97790000D03*
%TD*%
%TO.P,C51,1*%
%TO.N,GND*%
X223520000Y-78740000D03*
%TO.P,C51,2*%
%TO.N,Net-(C51-Pad2)*%
X223520000Y-83740000D03*
%TD*%
%TO.P,R7,1*%
%TO.N,Net-(R7-Pad1)*%
X99060000Y-63589062D03*
D11*
%TO.P,R7,2*%
%TO.N,GND*%
X99060000Y-71209062D03*
%TD*%
D27*
%TO.P,J4,1,Pin_1*%
%TO.N,VCC*%
X372110000Y-130810000D03*
D28*
%TO.P,J4,2,Pin_2*%
%TO.N,GND*%
X372110000Y-133350000D03*
%TO.P,J4,3,Pin_3*%
%TO.N,/DTR*%
X372110000Y-135890000D03*
%TO.P,J4,4,Pin_4*%
%TO.N,/TX*%
X372110000Y-138430000D03*
%TO.P,J4,5,Pin_5*%
%TO.N,/DSR*%
X372110000Y-140970000D03*
%TO.P,J4,6,Pin_6*%
%TO.N,/RX*%
X372110000Y-143510000D03*
%TD*%
D12*
%TO.P,R2,1*%
%TO.N,VCC*%
X320040000Y-149860000D03*
D11*
%TO.P,R2,2*%
%TO.N,/WAIT*%
X320040000Y-157480000D03*
%TD*%
D12*
%TO.P,R30,1*%
%TO.N,Net-(C48-Pad1)*%
X213360000Y-82550000D03*
D11*
%TO.P,R30,2*%
%TO.N,Net-(R30-Pad2)*%
X205740000Y-82550000D03*
%TD*%
D32*
%TO.P,U10,1,OE*%
%TO.N,Net-(U10-Pad1)*%
X135895000Y-153760000D03*
D33*
%TO.P,U10,2,D0*%
%TO.N,/VIDEO/AD0*%
X138435000Y-153760000D03*
%TO.P,U10,3,D1*%
%TO.N,/VIDEO/AD1*%
X140975000Y-153760000D03*
%TO.P,U10,4,D2*%
%TO.N,/VIDEO/AD2*%
X143515000Y-153760000D03*
%TO.P,U10,5,D3*%
%TO.N,/VIDEO/AD3*%
X146055000Y-153760000D03*
%TO.P,U10,6,D4*%
%TO.N,/VIDEO/AD4*%
X148595000Y-153760000D03*
%TO.P,U10,7,D5*%
%TO.N,/VIDEO/AD5*%
X151135000Y-153760000D03*
%TO.P,U10,8,D6*%
%TO.N,/VIDEO/AD6*%
X153675000Y-153760000D03*
%TO.P,U10,9,D7*%
%TO.N,/VIDEO/AD7*%
X156215000Y-153760000D03*
%TO.P,U10,10,GND*%
%TO.N,GND*%
X158755000Y-153760000D03*
%TO.P,U10,11,Cp*%
%TO.N,Net-(U10-Pad11)*%
X158755000Y-146140000D03*
%TO.P,U10,12,Q7*%
%TO.N,/VIDEO/VD7*%
X156215000Y-146140000D03*
%TO.P,U10,13,Q6*%
%TO.N,/VIDEO/VD6*%
X153675000Y-146140000D03*
%TO.P,U10,14,Q5*%
%TO.N,/VIDEO/VD5*%
X151135000Y-146140000D03*
%TO.P,U10,15,Q4*%
%TO.N,/VIDEO/VD4*%
X148595000Y-146140000D03*
%TO.P,U10,16,Q3*%
%TO.N,/VIDEO/VD3*%
X146055000Y-146140000D03*
%TO.P,U10,17,Q2*%
%TO.N,/VIDEO/VD2*%
X143515000Y-146140000D03*
%TO.P,U10,18,Q1*%
%TO.N,/VIDEO/VD1*%
X140975000Y-146140000D03*
%TO.P,U10,19,Q0*%
%TO.N,/VIDEO/VD0*%
X138435000Y-146140000D03*
%TO.P,U10,20,VCC*%
%TO.N,VCC*%
X135895000Y-146140000D03*
%TD*%
D12*
%TO.P,C17,1*%
%TO.N,GND*%
X125670000Y-118110000D03*
%TO.P,C17,2*%
%TO.N,Net-(C17-Pad2)*%
X120670000Y-118110000D03*
%TD*%
D27*
%TO.P,JP1,1,A*%
%TO.N,Net-(J1-Pad1)*%
X389890000Y-187960000D03*
D28*
%TO.P,JP1,2,B*%
%TO.N,Net-(C41-Pad1)*%
X387350000Y-187960000D03*
%TD*%
D24*
%TO.P,U18,1*%
%TO.N,/IO/Casette Interface/PC7*%
X194310000Y-77470000D03*
D25*
%TO.P,U18,2*%
%TO.N,Net-(R25-Pad2)*%
X194310000Y-80010000D03*
%TO.P,U18,3*%
%TO.N,/IO/Casette Interface/PC6*%
X194310000Y-82550000D03*
%TO.P,U18,4*%
%TO.N,Net-(R26-Pad2)*%
X194310000Y-85090000D03*
%TO.P,U18,5*%
%TO.N,/IO/Casette Interface/PC5*%
X194310000Y-87630000D03*
%TO.P,U18,6*%
%TO.N,Net-(R27-Pad2)*%
X194310000Y-90170000D03*
%TO.P,U18,7,GND*%
%TO.N,GND*%
X194310000Y-92710000D03*
%TO.P,U18,8*%
%TO.N,Net-(R28-Pad2)*%
X201930000Y-92710000D03*
%TO.P,U18,9*%
%TO.N,/IO/Casette Interface/PC4*%
X201930000Y-90170000D03*
%TO.P,U18,10*%
%TO.N,Net-(R29-Pad2)*%
X201930000Y-87630000D03*
%TO.P,U18,11*%
%TO.N,/IO/Casette Interface/PC3*%
X201930000Y-85090000D03*
%TO.P,U18,12*%
%TO.N,Net-(R30-Pad2)*%
X201930000Y-82550000D03*
%TO.P,U18,13*%
%TO.N,/IO/Casette Interface/PC2*%
X201930000Y-80010000D03*
%TO.P,U18,14,VCC*%
%TO.N,VCC*%
X201930000Y-77470000D03*
%TD*%
D34*
%TO.P,Q3,1,C*%
%TO.N,Net-(Q3-Pad1)*%
X358140000Y-83820000D03*
D35*
%TO.P,Q3,2,B*%
%TO.N,Net-(Q3-Pad2)*%
X358140000Y-85090000D03*
%TO.P,Q3,3,E*%
%TO.N,GND*%
X358140000Y-86360000D03*
%TD*%
D24*
%TO.P,U17,1*%
%TO.N,/VIDEO/{slash}RAS*%
X149870000Y-207005000D03*
D25*
%TO.P,U17,2*%
%TO.N,Net-(U17-Pad2)*%
X149870000Y-209545000D03*
%TO.P,U17,3*%
%TO.N,Net-(U17-Pad3)*%
X149870000Y-212085000D03*
%TO.P,U17,4*%
%TO.N,Net-(U17-Pad4)*%
X149870000Y-214625000D03*
%TO.P,U17,5*%
X149870000Y-217165000D03*
%TO.P,U17,6*%
%TO.N,Net-(U17-Pad6)*%
X149870000Y-219705000D03*
%TO.P,U17,7,GND*%
%TO.N,GND*%
X149870000Y-222245000D03*
%TO.P,U17,8*%
%TO.N,Net-(U17-Pad3)*%
X157490000Y-222245000D03*
%TO.P,U17,9*%
%TO.N,/VIDEO/{slash}CAS*%
X157490000Y-219705000D03*
%TO.P,U17,10*%
%TO.N,Net-(U10-Pad11)*%
X157490000Y-217165000D03*
%TO.P,U17,11*%
%TO.N,Net-(U10-Pad1)*%
X157490000Y-214625000D03*
%TO.P,U17,12*%
%TO.N,N/C*%
X157490000Y-212085000D03*
%TO.P,U17,13*%
X157490000Y-209545000D03*
%TO.P,U17,14,VCC*%
%TO.N,VCC*%
X157490000Y-207005000D03*
%TD*%
D10*
%TO.P,U5,1,D0*%
%TO.N,/BUS Expansion/D0*%
X345440000Y-116840000D03*
D11*
%TO.P,U5,2,D1*%
%TO.N,/BUS Expansion/D1*%
X345440000Y-119380000D03*
%TO.P,U5,3,D2*%
%TO.N,/BUS Expansion/D2*%
X345440000Y-121920000D03*
%TO.P,U5,4,D3*%
%TO.N,/BUS Expansion/D3*%
X345440000Y-124460000D03*
%TO.P,U5,5,D4*%
%TO.N,/BUS Expansion/D4*%
X345440000Y-127000000D03*
%TO.P,U5,6,D5*%
%TO.N,/BUS Expansion/D5*%
X345440000Y-129540000D03*
%TO.P,U5,7,D6*%
%TO.N,/BUS Expansion/D6*%
X345440000Y-132080000D03*
%TO.P,U5,8,D7*%
%TO.N,/BUS Expansion/D7*%
X345440000Y-134620000D03*
%TO.P,U5,9,RCLK*%
%TO.N,Net-(U5-Pad15)*%
X345440000Y-137160000D03*
%TO.P,U5,10,SIN*%
%TO.N,/RX*%
X345440000Y-139700000D03*
%TO.P,U5,11,SOUT*%
%TO.N,/TX*%
X345440000Y-142240000D03*
%TO.P,U5,12,CS0*%
%TO.N,VCC*%
X345440000Y-144780000D03*
%TO.P,U5,13,CS1*%
X345440000Y-147320000D03*
%TO.P,U5,14,~{CS2}*%
%TO.N,/UART_CE*%
X345440000Y-149860000D03*
%TO.P,U5,15,~{BAUDOUT}*%
%TO.N,Net-(U5-Pad15)*%
X345440000Y-152400000D03*
%TO.P,U5,16,XIN*%
%TO.N,/XTAL*%
X345440000Y-154940000D03*
%TO.P,U5,17,XOUT*%
%TO.N,unconnected-(U5-Pad17)*%
X345440000Y-157480000D03*
%TO.P,U5,18,~{WR}*%
%TO.N,/WR*%
X345440000Y-160020000D03*
%TO.P,U5,19,WR*%
%TO.N,GND*%
X345440000Y-162560000D03*
%TO.P,U5,20,GND*%
X345440000Y-165100000D03*
%TO.P,U5,21,~{RD}*%
%TO.N,/RD*%
X360680000Y-165100000D03*
%TO.P,U5,22,RD*%
%TO.N,GND*%
X360680000Y-162560000D03*
%TO.P,U5,23,DDIS*%
%TO.N,unconnected-(U5-Pad23)*%
X360680000Y-160020000D03*
%TO.P,U5,24,~{TXRDY}*%
%TO.N,unconnected-(U5-Pad24)*%
X360680000Y-157480000D03*
%TO.P,U5,25,~{ADS}*%
%TO.N,GND*%
X360680000Y-154940000D03*
%TO.P,U5,26,A2*%
%TO.N,/IO/A2*%
X360680000Y-152400000D03*
%TO.P,U5,27,A1*%
%TO.N,/IO/A1*%
X360680000Y-149860000D03*
%TO.P,U5,28,A0*%
%TO.N,/IO/A0*%
X360680000Y-147320000D03*
%TO.P,U5,29,~{RXRDY}*%
%TO.N,unconnected-(U5-Pad29)*%
X360680000Y-144780000D03*
%TO.P,U5,30,INTR*%
%TO.N,Net-(U13-Pad12)*%
X360680000Y-142240000D03*
%TO.P,U5,31,~{OUT2}*%
%TO.N,unconnected-(U5-Pad31)*%
X360680000Y-139700000D03*
%TO.P,U5,32,~{RTS}*%
%TO.N,Net-(U5-Pad32)*%
X360680000Y-137160000D03*
%TO.P,U5,33,~{DTR}*%
%TO.N,/DTR*%
X360680000Y-134620000D03*
%TO.P,U5,34,~{OUT1}*%
%TO.N,unconnected-(U5-Pad34)*%
X360680000Y-132080000D03*
%TO.P,U5,35,MR*%
%TO.N,/RESET_IO*%
X360680000Y-129540000D03*
%TO.P,U5,36,~{CTS}*%
%TO.N,Net-(U5-Pad36)*%
X360680000Y-127000000D03*
%TO.P,U5,37,~{DSR}*%
%TO.N,/DSR*%
X360680000Y-124460000D03*
%TO.P,U5,38,~{DCD}*%
X360680000Y-121920000D03*
%TO.P,U5,39,~{RI}*%
%TO.N,VCC*%
X360680000Y-119380000D03*
%TO.P,U5,40,VCC*%
X360680000Y-116840000D03*
%TD*%
D12*
%TO.P,R13,1*%
%TO.N,Net-(C30-Pad1)*%
X29210000Y-95250000D03*
D11*
%TO.P,R13,2*%
%TO.N,Net-(JP4-Pad1)*%
X39370000Y-95250000D03*
%TD*%
D24*
%TO.P,U24,1,D4*%
%TO.N,/BUS Expansion/D4*%
X195630000Y-118160000D03*
D25*
%TO.P,U24,2,D5*%
%TO.N,/BUS Expansion/D5*%
X195630000Y-120700000D03*
%TO.P,U24,3,D6*%
%TO.N,/BUS Expansion/D6*%
X195630000Y-123240000D03*
%TO.P,U24,4,D7*%
%TO.N,/BUS Expansion/D7*%
X195630000Y-125780000D03*
%TO.P,U24,5,GND*%
%TO.N,GND*%
X195630000Y-128320000D03*
%TO.P,U24,6,~{RD}*%
%TO.N,/RD*%
X195630000Y-130860000D03*
%TO.P,U24,7,ZC/TO0*%
%TO.N,Net-(J8-Pad6)*%
X195630000Y-133400000D03*
%TO.P,U24,8,ZC/TO1*%
%TO.N,Net-(J8-Pad4)*%
X195630000Y-135940000D03*
%TO.P,U24,9,ZC/TO2*%
%TO.N,Net-(J8-Pad2)*%
X195630000Y-138480000D03*
%TO.P,U24,10,~{IORQ}*%
%TO.N,/IORQ*%
X195630000Y-141020000D03*
%TO.P,U24,11,IEO*%
%TO.N,unconnected-(U24-Pad11)*%
X195630000Y-143560000D03*
%TO.P,U24,12,~{INT}*%
%TO.N,/CTC_INT*%
X195630000Y-146100000D03*
%TO.P,U24,13,IEI*%
%TO.N,Net-(R42-Pad1)*%
X195630000Y-148640000D03*
%TO.P,U24,14,~{M1}*%
%TO.N,/M1*%
X195630000Y-151180000D03*
%TO.P,U24,15,CLK*%
%TO.N,/XTAL*%
X210870000Y-151180000D03*
%TO.P,U24,16,~{CE}*%
%TO.N,/CTC_CE*%
X210870000Y-148640000D03*
%TO.P,U24,17,~{RES}*%
%TO.N,/{slash}RESET*%
X210870000Y-146100000D03*
%TO.P,U24,18,CS0*%
%TO.N,/IO/A0*%
X210870000Y-143560000D03*
%TO.P,U24,19,CS1*%
%TO.N,/IO/A1*%
X210870000Y-141020000D03*
%TO.P,U24,20,CK/TRG3*%
%TO.N,Net-(J8-Pad1)*%
X210870000Y-138480000D03*
%TO.P,U24,21,CK/TRG2*%
%TO.N,Net-(J8-Pad3)*%
X210870000Y-135940000D03*
%TO.P,U24,22,CK/TRG1*%
%TO.N,Net-(J8-Pad5)*%
X210870000Y-133400000D03*
%TO.P,U24,23,CK/TRG0*%
%TO.N,Net-(J8-Pad7)*%
X210870000Y-130860000D03*
%TO.P,U24,24,VDD*%
%TO.N,VCC*%
X210870000Y-128320000D03*
%TO.P,U24,25,D0*%
%TO.N,/BUS Expansion/D0*%
X210870000Y-125780000D03*
%TO.P,U24,26,D1*%
%TO.N,/BUS Expansion/D1*%
X210870000Y-123240000D03*
%TO.P,U24,27,D2*%
%TO.N,/BUS Expansion/D2*%
X210870000Y-120700000D03*
%TO.P,U24,28,D3*%
%TO.N,/BUS Expansion/D3*%
X210870000Y-118160000D03*
%TD*%
D10*
%TO.P,C41,1*%
%TO.N,Net-(C41-Pad1)*%
X387350000Y-180340000D03*
D12*
%TO.P,C41,2*%
%TO.N,GND*%
X389850000Y-180340000D03*
%TD*%
%TO.P,C46,1*%
%TO.N,VCC*%
X337820000Y-79394436D03*
%TO.P,C46,2*%
%TO.N,GND*%
X332820000Y-79394436D03*
%TD*%
D24*
%TO.P,U7,1,~{RAS}*%
%TO.N,/VIDEO/{slash}RAS*%
X95250000Y-118215000D03*
D25*
%TO.P,U7,2,~{CAS}*%
%TO.N,/VIDEO/{slash}CAS*%
X95250000Y-120755000D03*
%TO.P,U7,3,AD7*%
%TO.N,/VIDEO/AD7*%
X95250000Y-123295000D03*
%TO.P,U7,4,AD6*%
%TO.N,/VIDEO/AD6*%
X95250000Y-125835000D03*
%TO.P,U7,5,AD5*%
%TO.N,/VIDEO/AD5*%
X95250000Y-128375000D03*
%TO.P,U7,6,AD4*%
%TO.N,/VIDEO/AD4*%
X95250000Y-130915000D03*
%TO.P,U7,7,AD3*%
%TO.N,/VIDEO/AD3*%
X95250000Y-133455000D03*
%TO.P,U7,8,AD2*%
%TO.N,/VIDEO/AD2*%
X95250000Y-135995000D03*
%TO.P,U7,9,AD1*%
%TO.N,/VIDEO/AD1*%
X95250000Y-138535000D03*
%TO.P,U7,10,AD0*%
%TO.N,/VIDEO/AD0*%
X95250000Y-141075000D03*
%TO.P,U7,11,R/~{W}*%
%TO.N,Net-(U10-Pad1)*%
X95250000Y-143615000D03*
%TO.P,U7,12,VSS*%
%TO.N,GND*%
X95250000Y-146155000D03*
%TO.P,U7,13,MODE*%
%TO.N,/IO/A0*%
X95250000Y-148695000D03*
%TO.P,U7,14,~{CSW}*%
%TO.N,/VIDEO/{slash}CSW*%
X95250000Y-151235000D03*
%TO.P,U7,15,~{CSR}*%
%TO.N,/VIDEO/{slash}CSR*%
X95250000Y-153775000D03*
%TO.P,U7,16,~{INT}*%
%TO.N,Net-(D5-Pad1)*%
X95250000Y-156315000D03*
%TO.P,U7,17,CD7*%
%TO.N,/BUS Expansion/D7*%
X95250000Y-158855000D03*
%TO.P,U7,18,CD6*%
%TO.N,/BUS Expansion/D6*%
X95250000Y-161395000D03*
%TO.P,U7,19,CD5*%
%TO.N,/BUS Expansion/D5*%
X95250000Y-163935000D03*
%TO.P,U7,20,CD4*%
%TO.N,/BUS Expansion/D4*%
X95250000Y-166475000D03*
%TO.P,U7,21,CD3*%
%TO.N,/BUS Expansion/D3*%
X110490000Y-166475000D03*
%TO.P,U7,22,CD2*%
%TO.N,/BUS Expansion/D2*%
X110490000Y-163935000D03*
%TO.P,U7,23,CD1*%
%TO.N,/BUS Expansion/D1*%
X110490000Y-161395000D03*
%TO.P,U7,24,CD0*%
%TO.N,/BUS Expansion/D0*%
X110490000Y-158855000D03*
%TO.P,U7,25,RD7*%
%TO.N,/VIDEO/VD7*%
X110490000Y-156315000D03*
%TO.P,U7,26,RD6*%
%TO.N,/VIDEO/VD6*%
X110490000Y-153775000D03*
%TO.P,U7,27,RD5*%
%TO.N,/VIDEO/VD5*%
X110490000Y-151235000D03*
%TO.P,U7,28,RD4*%
%TO.N,/VIDEO/VD4*%
X110490000Y-148695000D03*
%TO.P,U7,29,RD3*%
%TO.N,/VIDEO/VD3*%
X110490000Y-146155000D03*
%TO.P,U7,30,RD2*%
%TO.N,/VIDEO/VD2*%
X110490000Y-143615000D03*
%TO.P,U7,31,RD1*%
%TO.N,/VIDEO/VD1*%
X110490000Y-141075000D03*
%TO.P,U7,32,RD0*%
%TO.N,/VIDEO/VD0*%
X110490000Y-138535000D03*
%TO.P,U7,33,VCC*%
%TO.N,VCC*%
X110490000Y-135995000D03*
%TO.P,U7,34,~{RESET}/SYNC*%
%TO.N,/{slash}RESET*%
X110490000Y-133455000D03*
%TO.P,U7,35,EXTVDP*%
%TO.N,unconnected-(U7-Pad35)*%
X110490000Y-130915000D03*
%TO.P,U7,36,COMVID*%
%TO.N,Net-(Q2-Pad2)*%
X110490000Y-128375000D03*
%TO.P,U7,37,GROMCLK*%
%TO.N,unconnected-(U7-Pad37)*%
X110490000Y-125835000D03*
%TO.P,U7,38,CPUCLK*%
%TO.N,unconnected-(U7-Pad38)*%
X110490000Y-123295000D03*
%TO.P,U7,39,XTAL1*%
%TO.N,Net-(C16-Pad2)*%
X110490000Y-120755000D03*
%TO.P,U7,40,XTAL2*%
%TO.N,Net-(C17-Pad2)*%
X110490000Y-118215000D03*
%TD*%
D12*
%TO.P,C24,1*%
%TO.N,GND*%
X179150000Y-114300000D03*
%TO.P,C24,2*%
%TO.N,VCC*%
X184150000Y-114300000D03*
%TD*%
D36*
%TO.P,J1,1,VBUS*%
%TO.N,Net-(J1-Pad1)*%
X397350000Y-161720000D03*
%TO.P,J1,2,D-*%
%TO.N,Net-(C12-Pad2)*%
X397350000Y-160920000D03*
%TO.P,J1,3,D+*%
%TO.N,Net-(C11-Pad2)*%
X397350000Y-160120000D03*
%TO.P,J1,4,ID*%
%TO.N,unconnected-(J1-Pad4)*%
X397350000Y-159320000D03*
%TO.P,J1,5,GND*%
%TO.N,GND*%
X397350000Y-158520000D03*
D37*
%TO.P,J1,6,Shield*%
%TO.N,Net-(C13-Pad1)*%
X402900000Y-164570000D03*
X397450000Y-155670000D03*
X397450000Y-164570000D03*
X402900000Y-155670000D03*
%TD*%
D12*
%TO.P,C20,1*%
%TO.N,VCC*%
X114280000Y-140970000D03*
%TO.P,C20,2*%
%TO.N,GND*%
X119280000Y-140970000D03*
%TD*%
%TO.P,C45,1*%
%TO.N,VCC*%
X383540000Y-78840000D03*
%TO.P,C45,2*%
%TO.N,GND*%
X386040000Y-78840000D03*
%TD*%
%TO.P,R40,1*%
%TO.N,Net-(D10-Pad2)*%
X218440000Y-93980000D03*
D11*
%TO.P,R40,2*%
%TO.N,Net-(C51-Pad2)*%
X218440000Y-86360000D03*
%TD*%
D34*
%TO.P,Q4,1,C*%
%TO.N,Net-(D7-Pad1)*%
X290830000Y-90170000D03*
D35*
%TO.P,Q4,2,B*%
%TO.N,Net-(Q4-Pad2)*%
X290830000Y-91440000D03*
%TO.P,Q4,3,E*%
%TO.N,GND*%
X290830000Y-92710000D03*
%TD*%
D12*
%TO.P,C5,1*%
%TO.N,GND*%
X123190000Y-72350000D03*
%TO.P,C5,2*%
%TO.N,VCC*%
X128190000Y-72350000D03*
%TD*%
D38*
%TO.P,J6,1*%
%TO.N,/IO/Casette Interface/M1*%
X202050000Y-44910000D03*
%TO.P,J6,2*%
%TO.N,GND*%
X209550000Y-44910000D03*
%TO.P,J6,3*%
%TO.N,/IO/Casette Interface/M2*%
X217050000Y-44910000D03*
%TO.P,J6,4*%
%TO.N,Net-(C51-Pad2)*%
X204550000Y-47410000D03*
%TO.P,J6,5*%
%TO.N,Net-(C49-Pad1)*%
X214550000Y-47410000D03*
%TO.P,J6,6*%
%TO.N,N/C*%
X214550000Y-34910000D03*
X204550000Y-34910000D03*
%TD*%
D12*
%TO.P,R42,1*%
%TO.N,Net-(R42-Pad1)*%
X195580000Y-154940000D03*
D11*
%TO.P,R42,2*%
%TO.N,VCC*%
X195580000Y-162560000D03*
%TD*%
D12*
%TO.P,C2,1*%
%TO.N,GND*%
X243920000Y-113025000D03*
%TO.P,C2,2*%
%TO.N,VCC*%
X248920000Y-113025000D03*
%TD*%
%TO.P,C1,1*%
%TO.N,VCC*%
X288290000Y-142160000D03*
%TO.P,C1,2*%
%TO.N,GND*%
X288290000Y-137160000D03*
%TD*%
%TO.P,C39,1*%
%TO.N,VCC*%
X207010000Y-114300000D03*
%TO.P,C39,2*%
%TO.N,GND*%
X202010000Y-114300000D03*
%TD*%
D39*
%TO.P,JP5,1*%
%TO.N,GND*%
X392430000Y-79440000D03*
D40*
%TO.P,JP5,2*%
%TO.N,Net-(J9-Pad2)*%
X398230000Y-79440000D03*
D41*
%TO.P,JP5,3*%
%TO.N,Net-(D3-Pad1)*%
X395430000Y-74640000D03*
%TD*%
D12*
%TO.P,C47,1*%
%TO.N,/IO/Casette Interface/M2*%
X271780000Y-85170000D03*
%TO.P,C47,2*%
%TO.N,/IO/Casette Interface/M1*%
X271780000Y-80170000D03*
%TD*%
%TO.P,R39,1*%
%TO.N,Net-(R38-Pad1)*%
X223520000Y-86360000D03*
D11*
%TO.P,R39,2*%
%TO.N,Net-(D10-Pad2)*%
X223520000Y-93980000D03*
%TD*%
D12*
%TO.P,C48,1*%
%TO.N,Net-(C48-Pad1)*%
X191770000Y-52070000D03*
%TO.P,C48,2*%
%TO.N,GND*%
X186770000Y-52070000D03*
%TD*%
%TO.P,C22,1*%
%TO.N,GND*%
X132080000Y-151090000D03*
%TO.P,C22,2*%
%TO.N,VCC*%
X132080000Y-146090000D03*
%TD*%
D10*
%TO.P,C36,1*%
%TO.N,Net-(C36-Pad1)*%
X346710000Y-79394436D03*
D12*
%TO.P,C36,2*%
%TO.N,GND*%
X344210000Y-79394436D03*
%TD*%
D27*
%TO.P,J5,1,Pin_1*%
%TO.N,Net-(J5-Pad1)*%
X31750000Y-106680000D03*
D28*
%TO.P,J5,2,Pin_2*%
%TO.N,Net-(J5-Pad2)*%
X31750000Y-109220000D03*
%TO.P,J5,3,Pin_3*%
%TO.N,Net-(J5-Pad3)*%
X31750000Y-111760000D03*
%TD*%
D12*
%TO.P,C21,1*%
%TO.N,VCC*%
X132080000Y-115570000D03*
%TO.P,C21,2*%
%TO.N,GND*%
X132080000Y-120570000D03*
%TD*%
D24*
%TO.P,U21,1,VSS*%
%TO.N,GND*%
X39390000Y-118035000D03*
D25*
%TO.P,U21,2*%
%TO.N,N/C*%
X39390000Y-120575000D03*
%TO.P,U21,3,ACH_B*%
%TO.N,Net-(J5-Pad2)*%
X39390000Y-123115000D03*
%TO.P,U21,4,ACH_A*%
%TO.N,Net-(J5-Pad3)*%
X39390000Y-125655000D03*
%TO.P,U21,5*%
%TO.N,N/C*%
X39390000Y-128195000D03*
%TO.P,U21,6,IOB7*%
%TO.N,/SOUND/ROW7*%
X39390000Y-130735000D03*
%TO.P,U21,7,IOB6*%
%TO.N,/SOUND/ROW6*%
X39390000Y-133275000D03*
%TO.P,U21,8,IOB5*%
%TO.N,/SOUND/ROW5*%
X39390000Y-135815000D03*
%TO.P,U21,9,IOB4*%
%TO.N,/SOUND/ROW4*%
X39390000Y-138355000D03*
%TO.P,U21,10,IOB3*%
%TO.N,/SOUND/ROW3*%
X39390000Y-140895000D03*
%TO.P,U21,11,IOB2*%
%TO.N,/SOUND/ROW2*%
X39390000Y-143435000D03*
%TO.P,U21,12,IOB1*%
%TO.N,/SOUND/ROW1*%
X39390000Y-145975000D03*
%TO.P,U21,13,IOB0*%
%TO.N,/SOUND/ROW0*%
X39390000Y-148515000D03*
%TO.P,U21,14,IOA7*%
%TO.N,/SOUND/COL7*%
X39390000Y-151055000D03*
%TO.P,U21,15,IOA6*%
%TO.N,/SOUND/COL6*%
X39390000Y-153595000D03*
%TO.P,U21,16,IOA5*%
%TO.N,/SOUND/COL5*%
X39390000Y-156135000D03*
%TO.P,U21,17,IOA4*%
%TO.N,/SOUND/COL4*%
X39390000Y-158675000D03*
%TO.P,U21,18,IOA3*%
%TO.N,/SOUND/COL3*%
X39390000Y-161215000D03*
%TO.P,U21,19,IOA2*%
%TO.N,/SOUND/COL2*%
X39390000Y-163755000D03*
%TO.P,U21,20,IOA1*%
%TO.N,/SOUND/COL1*%
X39390000Y-166295000D03*
%TO.P,U21,21,IOA0*%
%TO.N,/SOUND/COL0*%
X54630000Y-166295000D03*
%TO.P,U21,22,CLK*%
%TO.N,/XTAL*%
X54630000Y-163755000D03*
%TO.P,U21,23,/RESET*%
%TO.N,/{slash}RESET*%
X54630000Y-161215000D03*
%TO.P,U21,24,A9*%
%TO.N,GND*%
X54630000Y-158675000D03*
%TO.P,U21,25,A8*%
%TO.N,VCC*%
X54630000Y-156135000D03*
%TO.P,U21,26,TEST_2*%
%TO.N,unconnected-(U21-Pad26)*%
X54630000Y-153595000D03*
%TO.P,U21,27,BDIR*%
%TO.N,Net-(U20-Pad4)*%
X54630000Y-151055000D03*
%TO.P,U21,28,BC2*%
%TO.N,VCC*%
X54630000Y-148515000D03*
%TO.P,U21,29,BC1*%
%TO.N,Net-(U20-Pad1)*%
X54630000Y-145975000D03*
%TO.P,U21,30,DA7*%
%TO.N,/BUS Expansion/D7*%
X54630000Y-143435000D03*
%TO.P,U21,31,DA6*%
%TO.N,/BUS Expansion/D6*%
X54630000Y-140895000D03*
%TO.P,U21,32,DA5*%
%TO.N,/BUS Expansion/D5*%
X54630000Y-138355000D03*
%TO.P,U21,33,DA4*%
%TO.N,/BUS Expansion/D4*%
X54630000Y-135815000D03*
%TO.P,U21,34,DA3*%
%TO.N,/BUS Expansion/D3*%
X54630000Y-133275000D03*
%TO.P,U21,35,DA2*%
%TO.N,/BUS Expansion/D2*%
X54630000Y-130735000D03*
%TO.P,U21,36,DA1*%
%TO.N,/BUS Expansion/D1*%
X54630000Y-128195000D03*
%TO.P,U21,37,DA0*%
%TO.N,/BUS Expansion/D0*%
X54630000Y-125655000D03*
%TO.P,U21,38,ACH_C*%
%TO.N,Net-(J5-Pad1)*%
X54630000Y-123115000D03*
%TO.P,U21,39,TEST_1*%
%TO.N,unconnected-(U21-Pad39)*%
X54630000Y-120575000D03*
%TO.P,U21,40,VCC*%
%TO.N,VCC*%
X54630000Y-118035000D03*
%TD*%
D12*
%TO.P,R25,1*%
%TO.N,Net-(C48-Pad1)*%
X182880000Y-80010000D03*
D11*
%TO.P,R25,2*%
%TO.N,Net-(R25-Pad2)*%
X190500000Y-80010000D03*
%TD*%
D12*
%TO.P,R18,1*%
%TO.N,Net-(Q2-Pad1)*%
X165100000Y-72310000D03*
D11*
%TO.P,R18,2*%
%TO.N,GND*%
X154940000Y-72310000D03*
%TD*%
D42*
%TO.P,U6,1,TXD*%
%TO.N,/RX*%
X368222500Y-157165000D03*
%TO.P,U6,2,DTR*%
%TO.N,/DSR*%
X368222500Y-157815000D03*
%TO.P,U6,3,RTS*%
%TO.N,Net-(U5-Pad36)*%
X368222500Y-158465000D03*
%TO.P,U6,4,VCCIO*%
%TO.N,Net-(FB1-Pad2)*%
X368222500Y-159115000D03*
%TO.P,U6,5,RXD*%
%TO.N,/TX*%
X368222500Y-159765000D03*
%TO.P,U6,6,RI*%
%TO.N,unconnected-(U6-Pad6)*%
X368222500Y-160415000D03*
%TO.P,U6,7,GND*%
%TO.N,GND*%
X368222500Y-161065000D03*
%TO.P,U6,8*%
%TO.N,N/C*%
X368222500Y-161715000D03*
%TO.P,U6,9,DCR*%
%TO.N,/DTR*%
X368222500Y-162365000D03*
%TO.P,U6,10,DCD*%
X368222500Y-163015000D03*
%TO.P,U6,11,CTS*%
%TO.N,Net-(U5-Pad32)*%
X368222500Y-163665000D03*
%TO.P,U6,12,CBUS4*%
%TO.N,unconnected-(U6-Pad12)*%
X368222500Y-164315000D03*
%TO.P,U6,13,CBUS2*%
%TO.N,unconnected-(U6-Pad13)*%
X368222500Y-164965000D03*
%TO.P,U6,14,CBUS3*%
%TO.N,Net-(R10-Pad1)*%
X368222500Y-165615000D03*
%TO.P,U6,15,USBD+*%
%TO.N,Net-(C11-Pad2)*%
X375422500Y-165615000D03*
%TO.P,U6,16,USBD-*%
%TO.N,Net-(C12-Pad2)*%
X375422500Y-164965000D03*
%TO.P,U6,17,3V3OUT*%
%TO.N,Net-(C9-Pad1)*%
X375422500Y-164315000D03*
%TO.P,U6,18,GND*%
%TO.N,GND*%
X375422500Y-163665000D03*
%TO.P,U6,19,~{RESET}*%
%TO.N,VCC*%
X375422500Y-163015000D03*
%TO.P,U6,20,VCC*%
%TO.N,Net-(FB1-Pad2)*%
X375422500Y-162365000D03*
%TO.P,U6,21,GND*%
%TO.N,GND*%
X375422500Y-161715000D03*
%TO.P,U6,22,CBUS1*%
%TO.N,unconnected-(U6-Pad22)*%
X375422500Y-161065000D03*
%TO.P,U6,23,CBUS0*%
%TO.N,unconnected-(U6-Pad23)*%
X375422500Y-160415000D03*
%TO.P,U6,24*%
%TO.N,N/C*%
X375422500Y-159765000D03*
%TO.P,U6,25,AGND*%
%TO.N,GND*%
X375422500Y-159115000D03*
%TO.P,U6,26,TEST*%
X375422500Y-158465000D03*
%TO.P,U6,27,OSCI*%
%TO.N,unconnected-(U6-Pad27)*%
X375422500Y-157815000D03*
%TO.P,U6,28,OSCO*%
%TO.N,unconnected-(U6-Pad28)*%
X375422500Y-157165000D03*
%TD*%
D43*
%TO.P,Q1,1,G*%
%TO.N,Net-(C8-Pad1)*%
X373700000Y-180007500D03*
%TO.P,Q1,2,S*%
%TO.N,Net-(FB1-Pad2)*%
X375600000Y-180007500D03*
%TO.P,Q1,3,D*%
%TO.N,Net-(C7-Pad2)*%
X374650000Y-178132500D03*
%TD*%
D12*
%TO.P,C28,1*%
%TO.N,GND*%
X49610000Y-203200000D03*
%TO.P,C28,2*%
%TO.N,VCC*%
X54610000Y-203200000D03*
%TD*%
%TO.P,C12,1*%
%TO.N,GND*%
X392430000Y-162660000D03*
%TO.P,C12,2*%
%TO.N,Net-(C12-Pad2)*%
X389930000Y-162660000D03*
%TD*%
%TO.P,C9,1*%
%TO.N,Net-(C9-Pad1)*%
X381000000Y-163830000D03*
%TO.P,C9,2*%
%TO.N,GND*%
X381000000Y-158830000D03*
%TD*%
%TO.P,R27,1*%
%TO.N,Net-(C48-Pad1)*%
X182880000Y-90170000D03*
D11*
%TO.P,R27,2*%
%TO.N,Net-(R27-Pad2)*%
X190500000Y-90170000D03*
%TD*%
D12*
%TO.P,C15,1*%
%TO.N,VCC*%
X260350000Y-200765000D03*
%TO.P,C15,2*%
%TO.N,GND*%
X255350000Y-200765000D03*
%TD*%
%TO.P,R41,1*%
%TO.N,GND*%
X218440000Y-76200000D03*
D11*
%TO.P,R41,2*%
%TO.N,Net-(C51-Pad2)*%
X218440000Y-83820000D03*
%TD*%
D27*
%TO.P,JP3,1,A*%
%TO.N,Net-(JP3-Pad1)*%
X227330000Y-229870000D03*
D28*
%TO.P,JP3,2,B*%
%TO.N,Net-(JP3-Pad2)*%
X224790000Y-229870000D03*
%TD*%
D16*
%TO.P,D1,2,A*%
%TO.N,Net-(D1-Pad2)*%
X180340000Y-36195000D03*
D15*
%TO.P,D1,1,K*%
%TO.N,GND*%
X180340000Y-33655000D03*
%TD*%
D12*
%TO.P,C40,1*%
%TO.N,VCC*%
X191770000Y-200660000D03*
%TO.P,C40,2*%
%TO.N,GND*%
X186770000Y-200660000D03*
%TD*%
%TO.P,C11,1*%
%TO.N,GND*%
X392390000Y-156210000D03*
%TO.P,C11,2*%
%TO.N,Net-(C11-Pad2)*%
X389890000Y-156210000D03*
%TD*%
%TO.P,R34,1*%
%TO.N,/IO/PA6*%
X237490000Y-81280000D03*
D11*
%TO.P,R34,2*%
%TO.N,VCC*%
X245110000Y-81280000D03*
%TD*%
D12*
%TO.P,R1,1*%
%TO.N,VCC*%
X330200000Y-149860000D03*
D11*
%TO.P,R1,2*%
%TO.N,/NMI*%
X330200000Y-157480000D03*
%TD*%
D12*
%TO.P,R22,1*%
%TO.N,VCC*%
X360680000Y-90170000D03*
D11*
%TO.P,R22,2*%
%TO.N,/{slash}RESET*%
X360680000Y-97790000D03*
%TD*%
D27*
%TO.P,JP4,1,Pin_1*%
%TO.N,Net-(JP4-Pad1)*%
X43165000Y-109215000D03*
D28*
%TO.P,JP4,2,Pin_2*%
%TO.N,Net-(J5-Pad1)*%
X43165000Y-111755000D03*
%TO.P,JP4,3,Pin_3*%
%TO.N,Net-(JP4-Pad1)*%
X40625000Y-109215000D03*
%TO.P,JP4,4,Pin_4*%
%TO.N,Net-(J5-Pad2)*%
X40625000Y-111755000D03*
%TO.P,JP4,5,Pin_5*%
%TO.N,Net-(JP4-Pad1)*%
X38085000Y-109215000D03*
%TO.P,JP4,6,Pin_6*%
%TO.N,Net-(J5-Pad3)*%
X38085000Y-111755000D03*
%TD*%
D10*
%TO.P,U15,1,~{EN}*%
%TO.N,/MREQ*%
X284470000Y-204460000D03*
D11*
%TO.P,U15,2,A*%
%TO.N,GND*%
X284470000Y-207000000D03*
%TO.P,U15,3,B*%
%TO.N,/IO/A15*%
X284470000Y-209540000D03*
%TO.P,U15,4,~{Q0}*%
%TO.N,/ROM_CE*%
X284470000Y-212080000D03*
%TO.P,U15,5,~{Q1}*%
%TO.N,/RAM_CE*%
X284470000Y-214620000D03*
%TO.P,U15,6,~{Q2}*%
%TO.N,unconnected-(U15-Pad6)*%
X284470000Y-217160000D03*
%TO.P,U15,7,~{Q3}*%
%TO.N,unconnected-(U15-Pad7)*%
X284470000Y-219700000D03*
%TO.P,U15,8,GND*%
%TO.N,GND*%
X284470000Y-222240000D03*
%TO.P,U15,9*%
%TO.N,N/C*%
X292090000Y-222240000D03*
%TO.P,U15,10*%
X292090000Y-219700000D03*
%TO.P,U15,11*%
X292090000Y-217160000D03*
%TO.P,U15,12*%
X292090000Y-214620000D03*
%TO.P,U15,13*%
X292090000Y-212080000D03*
%TO.P,U15,14*%
X292090000Y-209540000D03*
%TO.P,U15,15*%
X292090000Y-207000000D03*
%TO.P,U15,16,VCC*%
%TO.N,VCC*%
X292090000Y-204460000D03*
%TD*%
D12*
%TO.P,C33,1*%
%TO.N,Net-(C33-Pad1)*%
X21590000Y-76200000D03*
%TO.P,C33,2*%
%TO.N,Net-(C33-Pad2)*%
X16590000Y-76200000D03*
%TD*%
%TO.P,R20,1*%
%TO.N,VCC*%
X365760000Y-90170000D03*
D11*
%TO.P,R20,2*%
%TO.N,Net-(C36-Pad1)*%
X365760000Y-97790000D03*
%TD*%
D12*
%TO.P,R23,1*%
%TO.N,Net-(Q3-Pad1)*%
X391160000Y-90170000D03*
D11*
%TO.P,R23,2*%
%TO.N,Net-(D4-Pad1)*%
X398780000Y-90170000D03*
%TD*%
D10*
%TO.P,D7,1,A*%
%TO.N,Net-(D7-Pad1)*%
X304800000Y-86360000D03*
D11*
%TO.P,D7,2,K*%
%TO.N,VCC*%
X304800000Y-78740000D03*
%TD*%
D24*
%TO.P,U1,1,A11*%
%TO.N,/IO/A11*%
X295910000Y-116840000D03*
D25*
%TO.P,U1,2,A12*%
%TO.N,/IO/A12*%
X295910000Y-119380000D03*
%TO.P,U1,3,A13*%
%TO.N,/IO/A13*%
X295910000Y-121920000D03*
%TO.P,U1,4,A14*%
%TO.N,/IO/A14*%
X295910000Y-124460000D03*
%TO.P,U1,5,A15*%
%TO.N,/IO/A15*%
X295910000Y-127000000D03*
%TO.P,U1,6,~{CLK}*%
%TO.N,/XTAL*%
X295910000Y-129540000D03*
%TO.P,U1,7,D4*%
%TO.N,/BUS Expansion/D4*%
X295910000Y-132080000D03*
%TO.P,U1,8,D3*%
%TO.N,/BUS Expansion/D3*%
X295910000Y-134620000D03*
%TO.P,U1,9,D5*%
%TO.N,/BUS Expansion/D5*%
X295910000Y-137160000D03*
%TO.P,U1,10,D6*%
%TO.N,/BUS Expansion/D6*%
X295910000Y-139700000D03*
%TO.P,U1,11,VCC*%
%TO.N,VCC*%
X295910000Y-142240000D03*
%TO.P,U1,12,D2*%
%TO.N,/BUS Expansion/D2*%
X295910000Y-144780000D03*
%TO.P,U1,13,D7*%
%TO.N,/BUS Expansion/D7*%
X295910000Y-147320000D03*
%TO.P,U1,14,D0*%
%TO.N,/BUS Expansion/D0*%
X295910000Y-149860000D03*
%TO.P,U1,15,D1*%
%TO.N,/BUS Expansion/D1*%
X295910000Y-152400000D03*
%TO.P,U1,16,~{INT}*%
%TO.N,/{slash}INT*%
X295910000Y-154940000D03*
%TO.P,U1,17,~{NMI}*%
%TO.N,/NMI*%
X295910000Y-157480000D03*
%TO.P,U1,18,~{HALT}*%
%TO.N,/HALT*%
X295910000Y-160020000D03*
%TO.P,U1,19,~{MREQ}*%
%TO.N,/MREQ*%
X295910000Y-162560000D03*
%TO.P,U1,20,~{IORQ}*%
%TO.N,/IORQ*%
X295910000Y-165100000D03*
%TO.P,U1,21,~{RD}*%
%TO.N,/RD*%
X311150000Y-165100000D03*
%TO.P,U1,22,~{WR}*%
%TO.N,/WR*%
X311150000Y-162560000D03*
%TO.P,U1,23,~{BUSACK}*%
%TO.N,/BUSACK*%
X311150000Y-160020000D03*
%TO.P,U1,24,~{WAIT}*%
%TO.N,/WAIT*%
X311150000Y-157480000D03*
%TO.P,U1,25,~{BUSRQ}*%
%TO.N,/BUSRQ*%
X311150000Y-154940000D03*
%TO.P,U1,26,~{RESET}*%
%TO.N,/{slash}RESET*%
X311150000Y-152400000D03*
%TO.P,U1,27,~{M1}*%
%TO.N,/M1*%
X311150000Y-149860000D03*
%TO.P,U1,28,~{RFSH}*%
%TO.N,/CPU_MEM/RFSH*%
X311150000Y-147320000D03*
%TO.P,U1,29,GND*%
%TO.N,GND*%
X311150000Y-144780000D03*
%TO.P,U1,30,A0*%
%TO.N,/IO/A0*%
X311150000Y-142240000D03*
%TO.P,U1,31,A1*%
%TO.N,/IO/A1*%
X311150000Y-139700000D03*
%TO.P,U1,32,A2*%
%TO.N,/IO/A2*%
X311150000Y-137160000D03*
%TO.P,U1,33,A3*%
%TO.N,/IO/A3*%
X311150000Y-134620000D03*
%TO.P,U1,34,A4*%
%TO.N,/IO/A4*%
X311150000Y-132080000D03*
%TO.P,U1,35,A5*%
%TO.N,/IO/A5*%
X311150000Y-129540000D03*
%TO.P,U1,36,A6*%
%TO.N,/IO/A6*%
X311150000Y-127000000D03*
%TO.P,U1,37,A7*%
%TO.N,/IO/A7*%
X311150000Y-124460000D03*
%TO.P,U1,38,A8*%
%TO.N,/IO/A8*%
X311150000Y-121920000D03*
%TO.P,U1,39,A9*%
%TO.N,/IO/A9*%
X311150000Y-119380000D03*
%TO.P,U1,40,A10*%
%TO.N,/IO/A10*%
X311150000Y-116840000D03*
%TD*%
D27*
%TO.P,J7,1,Pin_1*%
%TO.N,GND*%
X31750000Y-118110000D03*
D28*
%TO.P,J7,2,Pin_2*%
%TO.N,unconnected-(J7-Pad2)*%
X31750000Y-120650000D03*
%TO.P,J7,3,Pin_3*%
%TO.N,unconnected-(J7-Pad3)*%
X31750000Y-123190000D03*
%TO.P,J7,4,Pin_4*%
%TO.N,unconnected-(J7-Pad4)*%
X31750000Y-125730000D03*
%TO.P,J7,5,Pin_5*%
%TO.N,/SOUND/COL3*%
X31750000Y-128270000D03*
%TO.P,J7,6,Pin_6*%
%TO.N,/SOUND/COL6*%
X31750000Y-130810000D03*
%TO.P,J7,7,Pin_7*%
%TO.N,/SOUND/COL5*%
X31750000Y-133350000D03*
%TO.P,J7,8,Pin_8*%
%TO.N,/SOUND/COL4*%
X31750000Y-135890000D03*
%TO.P,J7,9,Pin_9*%
%TO.N,/SOUND/COL7*%
X31750000Y-138430000D03*
%TO.P,J7,10,Pin_10*%
%TO.N,/SOUND/COL2*%
X31750000Y-140970000D03*
%TO.P,J7,11,Pin_11*%
%TO.N,/SOUND/COL1*%
X31750000Y-143510000D03*
%TO.P,J7,12,Pin_12*%
%TO.N,/SOUND/COL0*%
X31750000Y-146050000D03*
%TO.P,J7,13,Pin_13*%
%TO.N,/SOUND/ROW0*%
X31750000Y-148590000D03*
%TO.P,J7,14,Pin_14*%
%TO.N,/SOUND/ROW6*%
X31750000Y-151130000D03*
%TO.P,J7,15,Pin_15*%
%TO.N,/SOUND/ROW5*%
X31750000Y-153670000D03*
%TO.P,J7,16,Pin_16*%
%TO.N,/SOUND/ROW4*%
X31750000Y-156210000D03*
%TO.P,J7,17,Pin_17*%
%TO.N,/SOUND/ROW3*%
X31750000Y-158750000D03*
%TO.P,J7,18,Pin_18*%
%TO.N,/SOUND/ROW2*%
X31750000Y-161290000D03*
%TO.P,J7,19,Pin_19*%
%TO.N,/SOUND/ROW1*%
X31750000Y-163830000D03*
%TO.P,J7,20,Pin_20*%
%TO.N,/SOUND/ROW7*%
X31750000Y-166370000D03*
%TD*%
D10*
%TO.P,RN1,1,common*%
%TO.N,VCC*%
X213455000Y-222255000D03*
D11*
%TO.P,RN1,2,R1*%
%TO.N,/CTC_INT*%
X213455000Y-219715000D03*
%TO.P,RN1,3,R2*%
%TO.N,/UART_INT*%
X213455000Y-217175000D03*
%TO.P,RN1,4,R3*%
%TO.N,/VDP_INT*%
X213455000Y-214635000D03*
%TO.P,RN1,5,R4*%
%TO.N,/INT_DEV1*%
X213455000Y-212095000D03*
%TO.P,RN1,6,R5*%
%TO.N,/INT_DEV2*%
X213455000Y-209555000D03*
%TO.P,RN1,7,R6*%
%TO.N,/INT_DEV3*%
X213455000Y-207015000D03*
%TO.P,RN1,8,R7*%
%TO.N,/INT_DEV4*%
X213455000Y-204475000D03*
%TO.P,RN1,9,R8*%
%TO.N,/INT_DEV5*%
X213455000Y-201935000D03*
%TD*%
D12*
%TO.P,R15,1*%
%TO.N,GND*%
X26670000Y-81280000D03*
D11*
%TO.P,R15,2*%
%TO.N,Net-(C33-Pad2)*%
X16510000Y-81280000D03*
%TD*%
D12*
%TO.P,C7,1*%
%TO.N,GND*%
X373380000Y-182880000D03*
%TO.P,C7,2*%
%TO.N,Net-(C7-Pad2)*%
X370880000Y-182880000D03*
%TD*%
%TO.P,R26,1*%
%TO.N,Net-(C48-Pad1)*%
X182880000Y-85090000D03*
D11*
%TO.P,R26,2*%
%TO.N,Net-(R26-Pad2)*%
X190500000Y-85090000D03*
%TD*%
D24*
%TO.P,U16,1*%
%TO.N,/VDP_CE*%
X115515000Y-207005000D03*
D25*
%TO.P,U16,2*%
%TO.N,/IORQ*%
X115515000Y-209545000D03*
%TO.P,U16,3*%
%TO.N,Net-(U16-Pad3)*%
X115515000Y-212085000D03*
%TO.P,U16,4*%
X115515000Y-214625000D03*
%TO.P,U16,5*%
%TO.N,/RD*%
X115515000Y-217165000D03*
%TO.P,U16,6*%
%TO.N,/VIDEO/{slash}CSR*%
X115515000Y-219705000D03*
%TO.P,U16,7,GND*%
%TO.N,GND*%
X115515000Y-222245000D03*
%TO.P,U16,8*%
%TO.N,/VIDEO/{slash}CSW*%
X123135000Y-222245000D03*
%TO.P,U16,9*%
%TO.N,Net-(U16-Pad3)*%
X123135000Y-219705000D03*
%TO.P,U16,10*%
%TO.N,/WR*%
X123135000Y-217165000D03*
%TO.P,U16,11*%
%TO.N,N/C*%
X123135000Y-214625000D03*
%TO.P,U16,12*%
X123135000Y-212085000D03*
%TO.P,U16,13*%
X123135000Y-209545000D03*
%TO.P,U16,14,VCC*%
%TO.N,VCC*%
X123135000Y-207005000D03*
%TD*%
D12*
%TO.P,R16,1*%
%TO.N,VCC*%
X370840000Y-90170000D03*
D11*
%TO.P,R16,2*%
%TO.N,Net-(C34-Pad1)*%
X370840000Y-97790000D03*
%TD*%
D24*
%TO.P,U14,1,A0*%
%TO.N,/IO/A5*%
X252730000Y-204565000D03*
D25*
%TO.P,U14,2,A1*%
%TO.N,/IO/A6*%
X252730000Y-207105000D03*
%TO.P,U14,3,A2*%
%TO.N,/IO/A7*%
X252730000Y-209645000D03*
%TO.P,U14,4,E1*%
%TO.N,/IORQ*%
X252730000Y-212185000D03*
%TO.P,U14,5,E2*%
X252730000Y-214725000D03*
%TO.P,U14,6,E3*%
%TO.N,Net-(U13-Pad3)*%
X252730000Y-217265000D03*
%TO.P,U14,7,O7*%
%TO.N,unconnected-(U14-Pad7)*%
X252730000Y-219805000D03*
%TO.P,U14,8,GND*%
%TO.N,GND*%
X252730000Y-222345000D03*
%TO.P,U14,9,O6*%
%TO.N,/DEV_CS1*%
X260350000Y-222345000D03*
%TO.P,U14,10,O5*%
%TO.N,/CF_CE*%
X260350000Y-219805000D03*
%TO.P,U14,11,O4*%
%TO.N,/CTC_CE*%
X260350000Y-217265000D03*
%TO.P,U14,12,O3*%
%TO.N,/PSG_CE*%
X260350000Y-214725000D03*
%TO.P,U14,13,O2*%
%TO.N,/VDP_CE*%
X260350000Y-212185000D03*
%TO.P,U14,14,O1*%
%TO.N,/UART_CE*%
X260350000Y-209645000D03*
%TO.P,U14,15,O0*%
%TO.N,/PPI_CE*%
X260350000Y-207105000D03*
%TO.P,U14,16,VCC*%
%TO.N,VCC*%
X260350000Y-204565000D03*
%TD*%
D10*
%TO.P,D9,1,A*%
%TO.N,Net-(D8-Pad1)*%
X292100000Y-74930000D03*
D11*
%TO.P,D9,2,K*%
%TO.N,/IO/Casette Interface/M2*%
X284480000Y-74930000D03*
%TD*%
D44*
%TO.P,SW2,1,1*%
%TO.N,GND*%
X403860000Y-110640000D03*
X403860000Y-104140000D03*
%TO.P,SW2,2,2*%
%TO.N,Net-(C34-Pad1)*%
X399360000Y-110640000D03*
X399360000Y-104140000D03*
%TD*%
D12*
%TO.P,C14,1*%
%TO.N,VCC*%
X276850000Y-200660000D03*
%TO.P,C14,2*%
%TO.N,GND*%
X271850000Y-200660000D03*
%TD*%
%TO.P,C16,1*%
%TO.N,GND*%
X125630000Y-123190000D03*
%TO.P,C16,2*%
%TO.N,Net-(C16-Pad2)*%
X120630000Y-123190000D03*
%TD*%
D10*
%TO.P,C43,1*%
%TO.N,Net-(C33-Pad1)*%
X21590000Y-69850000D03*
D12*
%TO.P,C43,2*%
%TO.N,Net-(C43-Pad2)*%
X21590000Y-67350000D03*
%TD*%
D45*
%TO.P,FB1,1*%
%TO.N,Net-(C41-Pad1)*%
X382270000Y-180340000D03*
%TO.P,FB1,2*%
%TO.N,Net-(FB1-Pad2)*%
X380145000Y-180340000D03*
%TD*%
D27*
%TO.P,J8,1,Pin_1*%
%TO.N,Net-(J8-Pad1)*%
X215900000Y-134625000D03*
D28*
%TO.P,J8,2,Pin_2*%
%TO.N,Net-(J8-Pad2)*%
X215900000Y-132085000D03*
%TO.P,J8,3,Pin_3*%
%TO.N,Net-(J8-Pad3)*%
X215900000Y-129545000D03*
%TO.P,J8,4,Pin_4*%
%TO.N,Net-(J8-Pad4)*%
X215900000Y-127005000D03*
%TO.P,J8,5,Pin_5*%
%TO.N,Net-(J8-Pad5)*%
X215900000Y-124465000D03*
%TO.P,J8,6,Pin_6*%
%TO.N,Net-(J8-Pad6)*%
X215900000Y-121925000D03*
%TO.P,J8,7,Pin_7*%
%TO.N,Net-(J8-Pad7)*%
X215900000Y-119385000D03*
%TD*%
D12*
%TO.P,C18,1*%
%TO.N,GND*%
X175260000Y-77430000D03*
%TO.P,C18,2*%
%TO.N,VCC*%
X175260000Y-72430000D03*
%TD*%
%TO.P,C13,1*%
%TO.N,Net-(C13-Pad1)*%
X402590000Y-170180000D03*
%TO.P,C13,2*%
%TO.N,GND*%
X400090000Y-170180000D03*
%TD*%
D10*
%TO.P,X1,1,EN*%
%TO.N,unconnected-(X1-Pad1)*%
X308610000Y-100330000D03*
D12*
%TO.P,X1,4,GND*%
%TO.N,GND*%
X300990000Y-100330000D03*
%TO.P,X1,5,OUT*%
%TO.N,/XTAL*%
X300990000Y-107950000D03*
%TO.P,X1,8,Vcc*%
%TO.N,VCC*%
X308610000Y-107950000D03*
%TD*%
%TO.P,R17,1*%
%TO.N,Net-(Q2-Pad2)*%
X165100000Y-77390000D03*
D11*
%TO.P,R17,2*%
%TO.N,GND*%
X154940000Y-77390000D03*
%TD*%
D24*
%TO.P,U25,1*%
%TO.N,/M1*%
X222290000Y-204470000D03*
D25*
%TO.P,U25,2*%
%TO.N,/IORQ*%
X222290000Y-207010000D03*
%TO.P,U25,3*%
%TO.N,Net-(U25-Pad3)*%
X222290000Y-209550000D03*
%TO.P,U25,4*%
X222290000Y-212090000D03*
%TO.P,U25,5*%
%TO.N,Net-(U25-Pad10)*%
X222290000Y-214630000D03*
%TO.P,U25,6*%
%TO.N,Net-(JP3-Pad1)*%
X222290000Y-217170000D03*
%TO.P,U25,7,GND*%
%TO.N,GND*%
X222290000Y-219710000D03*
%TO.P,U25,8*%
%TO.N,Net-(U25-Pad12)*%
X229910000Y-219710000D03*
%TO.P,U25,9*%
%TO.N,Net-(U25-Pad10)*%
X229910000Y-217170000D03*
%TO.P,U25,10*%
X229910000Y-214630000D03*
%TO.P,U25,11*%
%TO.N,/{slash}INT*%
X229910000Y-212090000D03*
%TO.P,U25,12*%
%TO.N,Net-(U25-Pad12)*%
X229910000Y-209550000D03*
%TO.P,U25,13*%
X229910000Y-207010000D03*
%TO.P,U25,14,VCC*%
%TO.N,VCC*%
X229910000Y-204470000D03*
%TD*%
D12*
%TO.P,C50,1*%
%TO.N,VCC*%
X201930000Y-73660000D03*
%TO.P,C50,2*%
%TO.N,GND*%
X196930000Y-73660000D03*
%TD*%
%TO.P,C25,1*%
%TO.N,GND*%
X152480000Y-203200000D03*
%TO.P,C25,2*%
%TO.N,VCC*%
X157480000Y-203200000D03*
%TD*%
%TO.P,C8,1*%
%TO.N,Net-(C8-Pad1)*%
X368300000Y-180340000D03*
%TO.P,C8,2*%
%TO.N,Net-(C7-Pad2)*%
X368300000Y-177840000D03*
%TD*%
%TO.P,R31,1*%
%TO.N,VCC*%
X205740000Y-77470000D03*
D11*
%TO.P,R31,2*%
%TO.N,Net-(C48-Pad1)*%
X213360000Y-77470000D03*
%TD*%
D24*
%TO.P,U11,1,A14*%
%TO.N,GND*%
X168910000Y-118110000D03*
D25*
%TO.P,U11,2,A12*%
%TO.N,/VIDEO/VA11*%
X168910000Y-120650000D03*
%TO.P,U11,3,A7*%
%TO.N,/VIDEO/VA9*%
X168910000Y-123190000D03*
%TO.P,U11,4,A6*%
%TO.N,/VIDEO/VA8*%
X168910000Y-125730000D03*
%TO.P,U11,5,A5*%
%TO.N,/VIDEO/VA6*%
X168910000Y-128270000D03*
%TO.P,U11,6,A4*%
%TO.N,/VIDEO/VA5*%
X168910000Y-130810000D03*
%TO.P,U11,7,A3*%
%TO.N,/VIDEO/VA3*%
X168910000Y-133350000D03*
%TO.P,U11,8,A2*%
%TO.N,/VIDEO/VA2*%
X168910000Y-135890000D03*
%TO.P,U11,9,A1*%
%TO.N,/VIDEO/VA1*%
X168910000Y-138430000D03*
%TO.P,U11,10,A0*%
%TO.N,/VIDEO/VA0*%
X168910000Y-140970000D03*
%TO.P,U11,11,DQ0*%
%TO.N,/VIDEO/VD0*%
X168910000Y-143510000D03*
%TO.P,U11,12,DQ1*%
%TO.N,/VIDEO/VD1*%
X168910000Y-146050000D03*
%TO.P,U11,13,DQ2*%
%TO.N,/VIDEO/VD2*%
X168910000Y-148590000D03*
%TO.P,U11,14,VSS*%
%TO.N,GND*%
X168910000Y-151130000D03*
%TO.P,U11,15,DQ3*%
%TO.N,/VIDEO/VD3*%
X184150000Y-151130000D03*
%TO.P,U11,16,DQ4*%
%TO.N,/VIDEO/VD4*%
X184150000Y-148590000D03*
%TO.P,U11,17,DQ5*%
%TO.N,/VIDEO/VD5*%
X184150000Y-146050000D03*
%TO.P,U11,18,DQ6*%
%TO.N,/VIDEO/VD6*%
X184150000Y-143510000D03*
%TO.P,U11,19,DQ7*%
%TO.N,/VIDEO/VD7*%
X184150000Y-140970000D03*
%TO.P,U11,20,CE#*%
%TO.N,/VIDEO/{slash}CAS*%
X184150000Y-138430000D03*
%TO.P,U11,21,A10*%
%TO.N,/VIDEO/VA4*%
X184150000Y-135890000D03*
%TO.P,U11,22,OE#*%
%TO.N,Net-(U10-Pad11)*%
X184150000Y-133350000D03*
%TO.P,U11,23,A11*%
%TO.N,/VIDEO/VA7*%
X184150000Y-130810000D03*
%TO.P,U11,24,A9*%
%TO.N,/VIDEO/VA10*%
X184150000Y-128270000D03*
%TO.P,U11,25,A8*%
%TO.N,/VIDEO/VA12*%
X184150000Y-125730000D03*
%TO.P,U11,26,A13*%
%TO.N,/VIDEO/VA13*%
X184150000Y-123190000D03*
%TO.P,U11,27,WE#*%
%TO.N,Net-(U10-Pad1)*%
X184150000Y-120650000D03*
%TO.P,U11,28,VCC*%
%TO.N,VCC*%
X184150000Y-118110000D03*
%TD*%
D46*
%TO.P,Q2,1,E*%
%TO.N,Net-(Q2-Pad1)*%
X168910000Y-72230000D03*
D47*
%TO.P,Q2,2,B*%
%TO.N,Net-(Q2-Pad2)*%
X170180000Y-72230000D03*
%TO.P,Q2,3,C*%
%TO.N,VCC*%
X171450000Y-72230000D03*
%TD*%
D15*
%TO.P,D2,1,K*%
%TO.N,GND*%
X173355000Y-33655000D03*
D16*
%TO.P,D2,2,A*%
%TO.N,Net-(D2-Pad2)*%
X173355000Y-36195000D03*
%TD*%
D12*
%TO.P,C10,1*%
%TO.N,GND*%
X384810000Y-158750000D03*
%TO.P,C10,2*%
%TO.N,VCC*%
X384810000Y-163750000D03*
%TD*%
D32*
%TO.P,SW1,1*%
%TO.N,Net-(R4-Pad1)*%
X87640000Y-58420000D03*
D33*
%TO.P,SW1,2*%
%TO.N,Net-(R5-Pad1)*%
X90180000Y-58420000D03*
%TO.P,SW1,3*%
%TO.N,Net-(R6-Pad1)*%
X92720000Y-58420000D03*
%TO.P,SW1,4*%
%TO.N,Net-(R7-Pad1)*%
X95260000Y-58420000D03*
%TO.P,SW1,5*%
%TO.N,VCC*%
X95260000Y-50800000D03*
%TO.P,SW1,6*%
X92720000Y-50800000D03*
%TO.P,SW1,7*%
X90180000Y-50800000D03*
%TO.P,SW1,8*%
X87640000Y-50800000D03*
%TD*%
D12*
%TO.P,R9,1*%
%TO.N,Net-(D2-Pad2)*%
X173355000Y-38735000D03*
D11*
%TO.P,R9,2*%
%TO.N,/IO/PC0*%
X173355000Y-46355000D03*
%TD*%
D48*
%TO.N,/RD*%
X274320000Y-189230000D03*
%TO.N,/{slash}RESET*%
X276860000Y-151130000D03*
%TO.N,/MR*%
X384175000Y-226060000D03*
X384175000Y-213995000D03*
X271780000Y-226060000D03*
%TO.N,Net-(U13-Pad8)*%
X276860000Y-231140000D03*
X306705000Y-231140000D03*
%TO.N,/WR*%
X300355000Y-190500000D03*
%TO.N,VCC*%
X393700000Y-191770000D03*
X393700000Y-214630000D03*
%TO.N,/CF_CE*%
X257810000Y-232410000D03*
%TO.N,/IO/A0*%
X316230000Y-230505000D03*
%TO.N,/IO/A1*%
X317500000Y-228600000D03*
%TO.N,/IO/PA4*%
X124460000Y-62865000D03*
%TO.N,/IO/PA5*%
X125730000Y-61595000D03*
%TO.N,/IO/PB4*%
X138430000Y-59055000D03*
%TO.N,/IO/PB6*%
X133350000Y-59055000D03*
%TO.N,/IO/PC1*%
X153035000Y-76835000D03*
%TO.N,/IO/PC0*%
X151765000Y-75565000D03*
%TO.N,VCC*%
X183515000Y-50800000D03*
%TO.N,/IO/PB0*%
X132080000Y-58420000D03*
%TO.N,VCC*%
X133985000Y-50800000D03*
%TO.N,GND*%
X224790000Y-113030000D03*
X233680000Y-157480000D03*
X256540000Y-157480000D03*
X372110000Y-160020000D03*
X41910000Y-55880000D03*
X222250000Y-99060000D03*
%TO.N,Net-(C11-Pad2)*%
X393700000Y-160020000D03*
X393700000Y-165100000D03*
%TO.N,/VDP_INT*%
X127000000Y-199390000D03*
X199390000Y-199390000D03*
%TO.N,Net-(FB1-Pad2)*%
X379730000Y-161290000D03*
%TO.N,/IO/PA7*%
X133350000Y-81280000D03*
%TO.N,/IO/PA6*%
X132080000Y-82550000D03*
%TO.N,/NMI*%
X88900000Y-234950000D03*
X330200000Y-236220000D03*
%TO.N,/WAIT*%
X85090000Y-232410000D03*
X320040000Y-233680000D03*
%TO.N,/BUSRQ*%
X325120000Y-234950000D03*
X58420000Y-233680000D03*
X45720000Y-50800000D03*
%TO.N,/{slash}RESET*%
X106660000Y-100330000D03*
X218440000Y-100330000D03*
X106680000Y-114300000D03*
X80010000Y-48260000D03*
X57150000Y-114300000D03*
X83820000Y-99060000D03*
%TO.N,/INT_DEV1*%
X40640000Y-93980000D03*
X91440000Y-113030000D03*
X91440000Y-228600000D03*
%TO.N,/XTAL*%
X219710000Y-101600000D03*
X294640000Y-101600000D03*
X48260000Y-149860000D03*
X44450000Y-49530000D03*
X52070000Y-93980000D03*
%TO.N,/IO/A11*%
X274320000Y-118110000D03*
X49530000Y-48260000D03*
%TO.N,/IO/A13*%
X50800000Y-92710000D03*
X44450000Y-58420000D03*
%TO.N,/IO/A14*%
X44450000Y-93980000D03*
X260350000Y-123190000D03*
%TO.N,/IO/A15*%
X34290000Y-63500000D03*
X34290000Y-49530000D03*
X285750000Y-156210000D03*
%TO.N,/BUS Expansion/D4*%
X73660000Y-166370000D03*
X337820000Y-172720000D03*
X73660000Y-135890000D03*
X185420000Y-176530000D03*
X190500000Y-176530000D03*
X300990000Y-172720000D03*
X269240000Y-172720000D03*
X68580000Y-85090000D03*
X73660000Y-176530000D03*
%TO.N,/BUS Expansion/D3*%
X69850000Y-83820000D03*
X299720000Y-171450000D03*
X74930000Y-175260000D03*
X336550000Y-171450000D03*
X69850000Y-48260000D03*
X201930000Y-172720000D03*
X271780000Y-171450000D03*
X110490000Y-175260000D03*
X74930000Y-133350000D03*
X177800000Y-175260000D03*
%TO.N,/BUS Expansion/D5*%
X67310000Y-74930000D03*
X72390000Y-138430000D03*
X288290000Y-173990000D03*
X187960000Y-177800000D03*
X267970000Y-173990000D03*
X72390000Y-177800000D03*
X67310000Y-48260000D03*
X201930000Y-175260000D03*
X72390000Y-163830000D03*
X339090000Y-173990000D03*
%TO.N,/BUS Expansion/D6*%
X266700000Y-175260000D03*
X66040000Y-73660000D03*
X71120000Y-179070000D03*
X289560000Y-175260000D03*
X71120000Y-161290000D03*
X340360000Y-175260000D03*
X200660000Y-177800000D03*
X71120000Y-140970000D03*
X189230000Y-179070000D03*
%TO.N,/BUS Expansion/D2*%
X290830000Y-170180000D03*
X179070000Y-173990000D03*
X76200000Y-162560000D03*
X76200000Y-130810000D03*
X203200000Y-170180000D03*
X76200000Y-173990000D03*
X335280000Y-170180000D03*
X71120000Y-82550000D03*
X259080000Y-170180000D03*
%TO.N,/BUS Expansion/D7*%
X341630000Y-176530000D03*
X265430000Y-176530000D03*
X194310000Y-180340000D03*
X69850000Y-143510000D03*
X63500000Y-49530000D03*
X292100000Y-176530000D03*
X64770000Y-86360000D03*
X69850000Y-158750000D03*
X199390000Y-180340000D03*
X69850000Y-180340000D03*
%TO.N,/BUS Expansion/D0*%
X78740000Y-171450000D03*
X332740000Y-167640000D03*
X78740000Y-157480000D03*
X73660000Y-80010000D03*
X293370000Y-167640000D03*
X261620000Y-167640000D03*
X78740000Y-125730000D03*
X181610000Y-171450000D03*
X205740000Y-167640000D03*
%TO.N,/BUS Expansion/D1*%
X72390000Y-48260000D03*
X260350000Y-168910000D03*
X180340000Y-172720000D03*
X334010000Y-168910000D03*
X77470000Y-172720000D03*
X77470000Y-128270000D03*
X204470000Y-168910000D03*
X72390000Y-81280000D03*
X77470000Y-160020000D03*
X298450000Y-168910000D03*
%TO.N,/{slash}INT*%
X243840000Y-154940000D03*
%TO.N,/HALT*%
X318770000Y-161290000D03*
X82550000Y-49530000D03*
X86360000Y-236220000D03*
X318770000Y-237490000D03*
%TO.N,/MREQ*%
X83820000Y-48260000D03*
X87630000Y-170180000D03*
X284480000Y-162560000D03*
%TO.N,/IORQ*%
X247650000Y-177800000D03*
X114300000Y-181610000D03*
X295910000Y-177800000D03*
X82550000Y-181610000D03*
X193040000Y-181610000D03*
X220980000Y-177800000D03*
%TO.N,/WR*%
X125730000Y-194310000D03*
X81280000Y-194310000D03*
X313690000Y-190500000D03*
X76200000Y-50800000D03*
X76200000Y-78740000D03*
X347980000Y-190500000D03*
X52070000Y-194310000D03*
X219710000Y-190500000D03*
X64770000Y-50800000D03*
%TO.N,/BUSACK*%
X321310000Y-238760000D03*
X321310000Y-160020000D03*
X41910000Y-237490000D03*
%TO.N,/M1*%
X314960000Y-194310000D03*
X222250000Y-195580000D03*
X78740000Y-49530000D03*
X213360000Y-195580000D03*
X213360000Y-153670000D03*
X195580000Y-198120000D03*
X83820000Y-198120000D03*
%TO.N,/IO/A0*%
X316230000Y-179070000D03*
X63500000Y-87630000D03*
X68580000Y-182880000D03*
X44450000Y-182880000D03*
X68580000Y-148590000D03*
X231140000Y-179070000D03*
X356870000Y-179070000D03*
X62230000Y-48260000D03*
X210820000Y-179070000D03*
%TO.N,/IO/A1*%
X358140000Y-180340000D03*
X63500000Y-96520000D03*
X209550000Y-180340000D03*
X67310000Y-184150000D03*
X229870000Y-180340000D03*
X317500000Y-180340000D03*
%TO.N,/IO/A2*%
X308610000Y-181610000D03*
X66040000Y-185420000D03*
X59690000Y-48260000D03*
X359410000Y-181610000D03*
X228600000Y-181610000D03*
%TO.N,/IO/A3*%
X307340000Y-182880000D03*
X227330000Y-182880000D03*
X64770000Y-186690000D03*
%TO.N,/IO/A4*%
X57150000Y-48260000D03*
X63500000Y-187960000D03*
X306070000Y-184150000D03*
X226060000Y-184150000D03*
%TO.N,/IO/A5*%
X252730000Y-185420000D03*
X62230000Y-189230000D03*
X224790000Y-185420000D03*
X304800000Y-185420000D03*
%TO.N,/IO/A6*%
X303530000Y-186690000D03*
X223520000Y-186690000D03*
X60960000Y-190500000D03*
X250190000Y-186690000D03*
X54610000Y-48260000D03*
%TO.N,/IO/A7*%
X59690000Y-191770000D03*
X248920000Y-187960000D03*
X222250000Y-187960000D03*
X302260000Y-187960000D03*
%TO.N,/IO/A8*%
X241300000Y-111760000D03*
%TO.N,/IO/A9*%
X50800000Y-49530000D03*
%TO.N,/IO/A10*%
X275590000Y-114300000D03*
%TO.N,/ROM_CE*%
X246380000Y-153670000D03*
X281940000Y-193040000D03*
X246380000Y-194310000D03*
%TO.N,/PPI_CE*%
X255270000Y-232410000D03*
X90170000Y-231140000D03*
%TO.N,/RESET_IO*%
X325120000Y-68580000D03*
X134620000Y-80010000D03*
%TO.N,/RX*%
X368300000Y-151130000D03*
%TO.N,/TX*%
X363220000Y-158750000D03*
X374650000Y-153670000D03*
%TO.N,/UART_CE*%
X262890000Y-196850000D03*
X342900000Y-196850000D03*
%TO.N,Net-(U5-Pad32)*%
X354330000Y-171450000D03*
X361950000Y-171450000D03*
%TO.N,Net-(U17-Pad2)*%
X187960000Y-161290000D03*
X147320000Y-161290000D03*
%TO.N,/VIDEO/VA4*%
X186690000Y-115570000D03*
%TO.N,Net-(U17-Pad6)*%
X161290000Y-162560000D03*
X146050000Y-162560000D03*
%TO.N,Net-(U10-Pad1)*%
X189230000Y-163830000D03*
X189230000Y-120650000D03*
X135890000Y-224790000D03*
X135895000Y-163825000D03*
%TO.N,Net-(U10-Pad11)*%
X175260000Y-153670000D03*
%TO.N,/VIDEO/VD7*%
X177800000Y-156210000D03*
X157480000Y-156210000D03*
%TO.N,/VIDEO/VD6*%
X154940000Y-157480000D03*
X179070000Y-157480000D03*
X128270000Y-157480000D03*
%TO.N,/VIDEO/VD5*%
X180340000Y-158750000D03*
X130810000Y-158750000D03*
X152400000Y-158750000D03*
%TO.N,/VIDEO/VD4*%
X133350000Y-160020000D03*
X149860000Y-160020000D03*
X181610000Y-160020000D03*
%TO.N,/VIDEO/{slash}CAS*%
X176530000Y-168910000D03*
X154940000Y-168910000D03*
X104140000Y-168910000D03*
%TO.N,Net-(U13-Pad12)*%
X279400000Y-195580000D03*
X355600000Y-195580000D03*
%TO.N,/CTC_CE*%
X243635000Y-194105000D03*
X262890000Y-224790000D03*
X250190000Y-224585000D03*
X212090000Y-194310000D03*
%TO.N,/PSG_CE*%
X265430000Y-193040000D03*
X43180000Y-196850000D03*
%TO.N,/VDP_CE*%
X115570000Y-195580000D03*
X264160000Y-191770000D03*
%TO.N,/VIDEO/{slash}RAS*%
X149860000Y-167640000D03*
X105410000Y-167640000D03*
%TO.N,/SOUND/ROW7*%
X31750000Y-176530000D03*
%TO.N,/SOUND/COL7*%
X25400000Y-175260000D03*
%TO.N,/SOUND/COL6*%
X21590000Y-173990000D03*
%TO.N,/SOUND/COL5*%
X22860000Y-172720000D03*
%TO.N,/SOUND/COL4*%
X24130000Y-171450000D03*
%TO.N,/SOUND/COL3*%
X20320000Y-170180000D03*
%TO.N,/SOUND/COL2*%
X26670000Y-168910000D03*
%TO.N,/SOUND/COL1*%
X27940000Y-167640000D03*
%TO.N,/SOUND/COL0*%
X29210000Y-177800000D03*
%TO.N,VCC*%
X218440000Y-198120000D03*
X330200000Y-107950000D03*
X129540000Y-200660000D03*
%TO.N,/DEV_CS1*%
X260350000Y-231140000D03*
X40640000Y-229870000D03*
%TO.N,Net-(U26-Pad9)*%
X176530000Y-212090000D03*
%TO.N,Net-(JP3-Pad2)*%
X175260000Y-229870000D03*
X175260000Y-204470000D03*
%TO.N,/IO/Casette Interface/PC7*%
X130810000Y-83820000D03*
%TO.N,/IO/Casette Interface/PC6*%
X189230000Y-99060000D03*
%TO.N,/IO/Casette Interface/PC5*%
X196850000Y-97790000D03*
%TO.N,/IO/Casette Interface/PC3*%
X196850000Y-85090000D03*
%TO.N,/RD*%
X80010000Y-193040000D03*
X283210000Y-189230000D03*
X191770000Y-193040000D03*
X74930000Y-93980000D03*
X311150000Y-189230000D03*
X120650000Y-193040000D03*
X360680000Y-189230000D03*
%TD*%
D49*
%TO.N,Net-(C44-Pad1)*%
X378460000Y-59055000D02*
X378460000Y-61025000D01*
X379730000Y-57785000D02*
X378460000Y-59055000D01*
X385445000Y-57785000D02*
X379730000Y-57785000D01*
X387350000Y-59690000D02*
X385445000Y-57785000D01*
X387350000Y-68680000D02*
X387350000Y-59690000D01*
X378460000Y-68580000D02*
X378460000Y-61025000D01*
X375920000Y-78840000D02*
X375920000Y-71120000D01*
X375920000Y-71120000D02*
X378460000Y-68580000D01*
%TO.N,VCC*%
X383540000Y-78840000D02*
X383540000Y-61025000D01*
D50*
X307975000Y-200700000D02*
X307935000Y-200660000D01*
X307975000Y-204470000D02*
X307975000Y-200700000D01*
%TO.N,/{slash}RESET*%
X269215000Y-212190000D02*
X269215000Y-214730000D01*
%TO.N,/RD*%
X276835000Y-214730000D02*
X276835000Y-217270000D01*
X274320000Y-212215000D02*
X274320000Y-189230000D01*
X276835000Y-214730000D02*
X274320000Y-212215000D01*
%TO.N,/{slash}RESET*%
X273050000Y-154940000D02*
X276860000Y-151130000D01*
X273050000Y-210185000D02*
X273050000Y-154940000D01*
X271045000Y-212190000D02*
X273050000Y-210185000D01*
X269215000Y-212190000D02*
X271045000Y-212190000D01*
%TO.N,/MR*%
X384175000Y-213995000D02*
X384175000Y-226060000D01*
X271780000Y-219835000D02*
X271780000Y-226060000D01*
X269215000Y-217270000D02*
X271780000Y-219835000D01*
%TO.N,Net-(U13-Pad8)*%
X306705000Y-218440000D02*
X306705000Y-231140000D01*
X307975000Y-217170000D02*
X306705000Y-218440000D01*
X276835000Y-231115000D02*
X276860000Y-231140000D01*
X276835000Y-219810000D02*
X276835000Y-231115000D01*
%TO.N,Net-(U27-Pad10)*%
X306850000Y-213505000D02*
X307975000Y-214630000D01*
X306850000Y-210675000D02*
X306850000Y-213505000D01*
X307975000Y-209550000D02*
X306850000Y-210675000D01*
X305435000Y-217170000D02*
X307975000Y-214630000D01*
X300355000Y-217170000D02*
X305435000Y-217170000D01*
%TO.N,/IORQ*%
X300355000Y-212090000D02*
X300355000Y-214630000D01*
X295910000Y-207645000D02*
X295910000Y-177165000D01*
X300355000Y-212090000D02*
X295910000Y-207645000D01*
X295910000Y-177165000D02*
X295910000Y-177800000D01*
X295910000Y-165100000D02*
X295910000Y-177165000D01*
%TO.N,Net-(U27-Pad13)*%
X305435000Y-209550000D02*
X307975000Y-207010000D01*
X300355000Y-209550000D02*
X305435000Y-209550000D01*
%TO.N,/WR*%
X300355000Y-207010000D02*
X300355000Y-204470000D01*
X300355000Y-204470000D02*
X300355000Y-190500000D01*
%TO.N,VCC*%
X401950000Y-114300000D02*
X404490000Y-116840000D01*
X383540000Y-114300000D02*
X401950000Y-114300000D01*
D49*
X383540000Y-114300000D02*
X383540000Y-130810000D01*
X383540000Y-111760000D02*
X383540000Y-114300000D01*
D50*
%TO.N,Net-(D11-Pad1)*%
X397510000Y-116840000D02*
X401950000Y-116840000D01*
%TO.N,Net-(J10-Pad39)*%
X387350000Y-122555000D02*
X387350000Y-116840000D01*
X404495000Y-127000000D02*
X402590000Y-125095000D01*
X389890000Y-125095000D02*
X387350000Y-122555000D01*
X402590000Y-125095000D02*
X389890000Y-125095000D01*
X400370000Y-235900000D02*
X404495000Y-231775000D01*
X387985000Y-235900000D02*
X400370000Y-235900000D01*
X404495000Y-231775000D02*
X404495000Y-127000000D01*
X386985000Y-234900000D02*
X387985000Y-235900000D01*
D49*
%TO.N,VCC*%
X393700000Y-222250000D02*
X393700000Y-191770000D01*
D50*
%TO.N,Net-(J10-Pad38)*%
X393210000Y-232900000D02*
X393700000Y-232410000D01*
X388985000Y-232900000D02*
X393210000Y-232900000D01*
%TO.N,/IO/A2*%
X391795000Y-228090000D02*
X388985000Y-230900000D01*
X390525000Y-193675000D02*
X391795000Y-194945000D01*
X361315000Y-193675000D02*
X390525000Y-193675000D01*
X391795000Y-194945000D02*
X391795000Y-228090000D01*
X359410000Y-181610000D02*
X359410000Y-191770000D01*
X359410000Y-191770000D02*
X361315000Y-193675000D01*
%TO.N,/CF_CE*%
X257810000Y-222345000D02*
X260350000Y-219805000D01*
X257810000Y-232410000D02*
X257810000Y-222345000D01*
%TO.N,/IO/A0*%
X316230000Y-179070000D02*
X316230000Y-230505000D01*
%TO.N,/IO/A1*%
X317500000Y-180340000D02*
X317500000Y-228600000D01*
%TO.N,/BUS Expansion/D7*%
X385935000Y-198900000D02*
X386985000Y-198900000D01*
X385790000Y-198755000D02*
X385935000Y-198900000D01*
X342265000Y-198755000D02*
X385790000Y-198755000D01*
X341630000Y-198120000D02*
X342265000Y-198755000D01*
X341630000Y-176530000D02*
X341630000Y-198120000D01*
%TO.N,/UART_CE*%
X344170000Y-149860000D02*
X345440000Y-149860000D01*
X342900000Y-151130000D02*
X344170000Y-149860000D01*
X342900000Y-196850000D02*
X342900000Y-151130000D01*
%TO.N,/BUS Expansion/D6*%
X341235000Y-200900000D02*
X386985000Y-200900000D01*
X340360000Y-200025000D02*
X341235000Y-200900000D01*
X340360000Y-175260000D02*
X340360000Y-200025000D01*
%TO.N,/BUS Expansion/D5*%
X339090000Y-201930000D02*
X339090000Y-173990000D01*
X340060000Y-202900000D02*
X339090000Y-201930000D01*
X386985000Y-202900000D02*
X340060000Y-202900000D01*
%TO.N,/BUS Expansion/D4*%
X337820000Y-203835000D02*
X337820000Y-172720000D01*
X338885000Y-204900000D02*
X337820000Y-203835000D01*
X386985000Y-204900000D02*
X338885000Y-204900000D01*
%TO.N,/BUS Expansion/D3*%
X336550000Y-205740000D02*
X336550000Y-170815000D01*
X337710000Y-206900000D02*
X336550000Y-205740000D01*
X386985000Y-206900000D02*
X337710000Y-206900000D01*
%TO.N,/BUS Expansion/D2*%
X335280000Y-207645000D02*
X335280000Y-170180000D01*
X336535000Y-208900000D02*
X335280000Y-207645000D01*
X386985000Y-208900000D02*
X336535000Y-208900000D01*
%TO.N,/BUS Expansion/D1*%
X334010000Y-208280000D02*
X334010000Y-168910000D01*
X386985000Y-210900000D02*
X336630000Y-210900000D01*
X336630000Y-210900000D02*
X334010000Y-208280000D01*
%TO.N,/BUS Expansion/D0*%
X336090000Y-212900000D02*
X386985000Y-212900000D01*
X332740000Y-209550000D02*
X336090000Y-212900000D01*
X332740000Y-167640000D02*
X332740000Y-209550000D01*
%TO.N,Net-(C34-Pad1)*%
X347980000Y-98425000D02*
X349885000Y-100330000D01*
X368935000Y-97790000D02*
X370840000Y-97790000D01*
X347980000Y-92840000D02*
X347980000Y-98425000D01*
X342910000Y-87770000D02*
X347980000Y-92840000D01*
X349885000Y-100330000D02*
X366395000Y-100330000D01*
X366395000Y-100330000D02*
X368935000Y-97790000D01*
X374610000Y-97790000D02*
X374650000Y-97750000D01*
X370840000Y-97790000D02*
X374610000Y-97790000D01*
D49*
%TO.N,VCC*%
X360645000Y-107985000D02*
X360680000Y-107950000D01*
X360680000Y-107950000D02*
X383540000Y-107950000D01*
X360645000Y-111755000D02*
X360645000Y-107985000D01*
X358775000Y-107950000D02*
X360680000Y-107950000D01*
D50*
%TO.N,/RESET_IO*%
X325120000Y-95250000D02*
X327039436Y-97169436D01*
X327039436Y-97169436D02*
X330210000Y-97169436D01*
X325120000Y-68580000D02*
X325120000Y-95250000D01*
%TO.N,/IO/Casette Interface/M2*%
X217050000Y-62110000D02*
X217050000Y-44910000D01*
X265430000Y-78740000D02*
X233680000Y-78740000D01*
X271780000Y-85090000D02*
X265430000Y-78740000D01*
X233680000Y-78740000D02*
X217050000Y-62110000D01*
X271780000Y-85170000D02*
X271780000Y-85090000D01*
%TO.N,/IO/Casette Interface/M1*%
X219392500Y-43180000D02*
X203780000Y-43180000D01*
X221615000Y-62865000D02*
X221615000Y-45402500D01*
X203780000Y-43180000D02*
X202050000Y-44910000D01*
X234315000Y-75565000D02*
X221615000Y-62865000D01*
X267175000Y-75565000D02*
X234315000Y-75565000D01*
X221615000Y-45402500D02*
X219392500Y-43180000D01*
X271780000Y-80170000D02*
X267175000Y-75565000D01*
%TO.N,/IO/PA4*%
X95260000Y-73660000D02*
X92715000Y-76205000D01*
X117475000Y-73660000D02*
X95260000Y-73660000D01*
X124460000Y-66675000D02*
X117475000Y-73660000D01*
X124460000Y-62865000D02*
X124460000Y-66675000D01*
%TO.N,/IO/PA5*%
X96530000Y-74930000D02*
X95255000Y-76205000D01*
X118110000Y-74930000D02*
X96530000Y-74930000D01*
X125730000Y-67310000D02*
X118110000Y-74930000D01*
X125730000Y-61595000D02*
X125730000Y-67310000D01*
%TO.N,/IO/PB7*%
X130815000Y-76205000D02*
X130815000Y-57780000D01*
X131445000Y-57150000D02*
X137795000Y-50800000D01*
X130815000Y-57780000D02*
X131445000Y-57150000D01*
X130810000Y-57785000D02*
X131445000Y-57150000D01*
%TO.N,/IO/PB0*%
X133210000Y-77330000D02*
X135895000Y-80015000D01*
X135895000Y-80015000D02*
X135895000Y-91445000D01*
X132575000Y-77330000D02*
X133210000Y-77330000D01*
X132080000Y-58420000D02*
X132080000Y-76835000D01*
X132080000Y-76835000D02*
X132575000Y-77330000D01*
%TO.N,/IO/PB5*%
X135895000Y-76205000D02*
X135895000Y-58425000D01*
%TO.N,/IO/PB3*%
X140975000Y-59695000D02*
X140975000Y-76205000D01*
%TO.N,/IO/PB4*%
X138435000Y-59060000D02*
X138430000Y-59055000D01*
X138435000Y-76205000D02*
X138435000Y-59060000D01*
%TO.N,/IO/PB6*%
X133355000Y-59060000D02*
X133350000Y-59055000D01*
X133355000Y-76205000D02*
X133355000Y-59060000D01*
%TO.N,/IO/PB3*%
X140970000Y-59690000D02*
X145415000Y-55245000D01*
X145415000Y-55245000D02*
X145415000Y-38735000D01*
%TO.N,/IO/PB5*%
X141605000Y-52705000D02*
X141605000Y-38735000D01*
X135890000Y-58420000D02*
X141605000Y-52705000D01*
%TO.N,/IO/PB7*%
X137795000Y-50800000D02*
X137795000Y-38735000D01*
D49*
%TO.N,VCC*%
X383540000Y-97790000D02*
X383540000Y-111760000D01*
X304800000Y-78740000D02*
X304800000Y-40640000D01*
X370840000Y-52070000D02*
X370840000Y-81280000D01*
X359410000Y-40640000D02*
X370840000Y-52070000D01*
X300355000Y-40640000D02*
X359410000Y-40640000D01*
D50*
X133985000Y-50800000D02*
X133985000Y-38735000D01*
%TO.N,/IO/PC1*%
X180340000Y-59055000D02*
X180340000Y-46355000D01*
X175895000Y-63500000D02*
X180340000Y-59055000D01*
X156210000Y-63500000D02*
X175895000Y-63500000D01*
X153035000Y-66675000D02*
X156210000Y-63500000D01*
X153035000Y-76835000D02*
X153035000Y-66675000D01*
%TO.N,/IO/PC0*%
X173355000Y-58420000D02*
X173355000Y-46355000D01*
X155575000Y-61595000D02*
X170180000Y-61595000D01*
X170180000Y-61595000D02*
X173355000Y-58420000D01*
X151765000Y-65405000D02*
X155575000Y-61595000D01*
X151765000Y-75565000D02*
X151765000Y-65405000D01*
D49*
%TO.N,VCC*%
X183390001Y-42669999D02*
X183390001Y-71630001D01*
X185420000Y-40640000D02*
X183390001Y-42669999D01*
X300355000Y-40640000D02*
X185420000Y-40640000D01*
X183390001Y-71630001D02*
X199900001Y-71630001D01*
X176059999Y-71630001D02*
X183390001Y-71630001D01*
D50*
%TO.N,/IO/PB2*%
X149225000Y-64135000D02*
X149225000Y-38735000D01*
X147320000Y-66040000D02*
X149225000Y-64135000D01*
X145410000Y-91445000D02*
X147320000Y-89535000D01*
X147320000Y-89535000D02*
X147320000Y-66040000D01*
X140975000Y-91445000D02*
X145410000Y-91445000D01*
%TO.N,/IO/PB1*%
X148590000Y-90805000D02*
X148590000Y-66675000D01*
X146685000Y-92710000D02*
X148590000Y-90805000D01*
X153035000Y-62230000D02*
X153035000Y-38735000D01*
X139700000Y-92710000D02*
X146685000Y-92710000D01*
X148590000Y-66675000D02*
X153035000Y-62230000D01*
X138435000Y-91445000D02*
X139700000Y-92710000D01*
%TO.N,Net-(C49-Pad1)*%
X209335000Y-47410000D02*
X214550000Y-47410000D01*
X203352387Y-45835000D02*
X207760000Y-45835000D01*
X198427387Y-50760000D02*
X203352387Y-45835000D01*
X207760000Y-45835000D02*
X209335000Y-47410000D01*
X198120000Y-50760000D02*
X198427387Y-50760000D01*
X194310000Y-48260000D02*
X195620000Y-48260000D01*
X195620000Y-48260000D02*
X198120000Y-50760000D01*
X194310000Y-44450000D02*
X194310000Y-48260000D01*
%TO.N,Net-(C48-Pad1)*%
X189865000Y-44450000D02*
X186690000Y-44450000D01*
X191770000Y-46355000D02*
X189865000Y-44450000D01*
X191770000Y-52070000D02*
X191770000Y-46355000D01*
%TO.N,Net-(D1-Pad2)*%
X180340000Y-36195000D02*
X180340000Y-38735000D01*
%TO.N,Net-(D2-Pad2)*%
X173355000Y-36195000D02*
X173355000Y-38735000D01*
%TO.N,Net-(C48-Pad1)*%
X204470000Y-73660000D02*
X204470000Y-74930000D01*
X191770000Y-60960000D02*
X204470000Y-73660000D01*
X191770000Y-52070000D02*
X191770000Y-60960000D01*
%TO.N,/RESET_IO*%
X109220000Y-80010000D02*
X105415000Y-76205000D01*
X134620000Y-80010000D02*
X109220000Y-80010000D01*
%TO.N,/IO/PA7*%
X105410000Y-81280000D02*
X100335000Y-76205000D01*
X133350000Y-81280000D02*
X105410000Y-81280000D01*
%TO.N,/IO/PA6*%
X104140000Y-82550000D02*
X97795000Y-76205000D01*
X132080000Y-82550000D02*
X104140000Y-82550000D01*
%TO.N,/IO/Casette Interface/PC7*%
X123200000Y-83820000D02*
X115575000Y-91445000D01*
X130810000Y-83820000D02*
X123200000Y-83820000D01*
%TO.N,Net-(C51-Pad2)*%
X204550000Y-69770000D02*
X204550000Y-47410000D01*
X204470000Y-69850000D02*
X204550000Y-69770000D01*
X206560000Y-71940000D02*
X204470000Y-69850000D01*
X214180000Y-71940000D02*
X206560000Y-71940000D01*
%TO.N,Net-(R7-Pad1)*%
X97790000Y-62319062D02*
X99060000Y-63589062D01*
X97790000Y-62230000D02*
X97790000Y-62319062D01*
X96520000Y-62230000D02*
X97790000Y-62230000D01*
X95250000Y-60960000D02*
X96520000Y-62230000D01*
X95260000Y-60950000D02*
X95250000Y-60960000D01*
X95260000Y-58420000D02*
X95260000Y-60950000D01*
%TO.N,Net-(R6-Pad1)*%
X92710000Y-61049062D02*
X95250000Y-63589062D01*
X92720000Y-60950000D02*
X92710000Y-60960000D01*
X92720000Y-58420000D02*
X92720000Y-60950000D01*
X92710000Y-60960000D02*
X92710000Y-61049062D01*
%TO.N,Net-(R5-Pad1)*%
X91440000Y-62230000D02*
X91440000Y-63589062D01*
X90180000Y-60970000D02*
X91440000Y-62230000D01*
X90180000Y-58420000D02*
X90180000Y-60970000D01*
%TO.N,Net-(R4-Pad1)*%
X87630000Y-58430000D02*
X87640000Y-58420000D01*
X87630000Y-63589062D02*
X87630000Y-58430000D01*
%TO.N,Net-(R6-Pad1)*%
X94069062Y-64770000D02*
X95250000Y-63589062D01*
X93980000Y-64770000D02*
X94069062Y-64770000D01*
X91440000Y-72390000D02*
X92710000Y-72390000D01*
X90170000Y-92710000D02*
X88900000Y-91440000D01*
X88900000Y-74930000D02*
X91440000Y-72390000D01*
X93990000Y-92710000D02*
X90170000Y-92710000D01*
X88900000Y-91440000D02*
X88900000Y-74930000D01*
X95255000Y-91445000D02*
X93990000Y-92710000D01*
X92710000Y-72390000D02*
X93980000Y-71120000D01*
X93980000Y-71120000D02*
X93980000Y-64770000D01*
%TO.N,Net-(R7-Pad1)*%
X99060000Y-69223604D02*
X99060000Y-63589062D01*
X91440000Y-73660000D02*
X94623604Y-73660000D01*
X90170000Y-74930000D02*
X91440000Y-73660000D01*
X90170000Y-90170000D02*
X90170000Y-74930000D01*
X91445000Y-91445000D02*
X90170000Y-90170000D01*
X94623604Y-73660000D02*
X99060000Y-69223604D01*
X92715000Y-91445000D02*
X91445000Y-91445000D01*
%TO.N,Net-(R5-Pad1)*%
X90271168Y-64757894D02*
X91440000Y-63589062D01*
X90271168Y-72288832D02*
X90271168Y-64757894D01*
X87630000Y-74930000D02*
X90271168Y-72288832D01*
%TO.N,Net-(R4-Pad1)*%
X86360000Y-64859062D02*
X87630000Y-63589062D01*
X86360000Y-91440000D02*
X86360000Y-64859062D01*
X90170000Y-95250000D02*
X86360000Y-91440000D01*
X96530000Y-95250000D02*
X90170000Y-95250000D01*
X100335000Y-91445000D02*
X96530000Y-95250000D01*
%TO.N,Net-(C43-Pad2)*%
X21630000Y-67310000D02*
X29210000Y-67310000D01*
X21590000Y-67350000D02*
X21630000Y-67310000D01*
%TO.N,GND*%
X224790000Y-113030000D02*
X224795000Y-113025000D01*
X41910000Y-49530000D02*
X43083000Y-48357000D01*
X380715000Y-159115000D02*
X381000000Y-158830000D01*
X372110000Y-158750000D02*
X372395000Y-158465000D01*
X372395000Y-158465000D02*
X375422500Y-158465000D01*
X132080000Y-120570000D02*
X132080000Y-121920000D01*
D49*
X386040000Y-78840000D02*
X391830000Y-78840000D01*
D50*
X158755000Y-123280000D02*
X157625000Y-124410000D01*
X196930000Y-73660000D02*
X179030000Y-73660000D01*
X394700000Y-158520000D02*
X392390000Y-156210000D01*
X256540000Y-151130000D02*
X256540000Y-157480000D01*
X371885000Y-161065000D02*
X368222500Y-161065000D01*
X375422500Y-159115000D02*
X380715000Y-159115000D01*
X41910000Y-55880000D02*
X41910000Y-49530000D01*
X233680000Y-151130000D02*
X233680000Y-157480000D01*
X132080000Y-121920000D02*
X133440000Y-123280000D01*
X127000000Y-138430000D02*
X127080000Y-138350000D01*
X43083000Y-48357000D02*
X43083000Y-39370000D01*
X300990000Y-100330000D02*
X302115000Y-101455000D01*
X372535000Y-161715000D02*
X375422500Y-161715000D01*
X157625000Y-124410000D02*
X157625000Y-137405000D01*
D49*
X391830000Y-78840000D02*
X392430000Y-79440000D01*
D50*
X372110000Y-161290000D02*
X372535000Y-161715000D01*
X373215000Y-163665000D02*
X375422500Y-163665000D01*
X372110000Y-160840000D02*
X372110000Y-161290000D01*
X372110000Y-162560000D02*
X373215000Y-163665000D01*
X125670000Y-118110000D02*
X125670000Y-123150000D01*
X124460000Y-147320000D02*
X128270000Y-151130000D01*
X127080000Y-138350000D02*
X127080000Y-130810000D01*
X302115000Y-101455000D02*
X328464436Y-101455000D01*
X372110000Y-160020000D02*
X372110000Y-158750000D01*
X128310000Y-151090000D02*
X132080000Y-151090000D01*
X371885000Y-161065000D02*
X372110000Y-160840000D01*
X127100000Y-138530000D02*
X127000000Y-138430000D01*
X372110000Y-160840000D02*
X372110000Y-160020000D01*
X224795000Y-113025000D02*
X243920000Y-113025000D01*
X397350000Y-158520000D02*
X394700000Y-158520000D01*
X375422500Y-158465000D02*
X375422500Y-159115000D01*
X119280000Y-140970000D02*
X124460000Y-140970000D01*
X222250000Y-99060000D02*
X224790000Y-101600000D01*
X372110000Y-161290000D02*
X372110000Y-162560000D01*
X157625000Y-137405000D02*
X158750000Y-138530000D01*
X124460000Y-140970000D02*
X124460000Y-147320000D01*
X124460000Y-140970000D02*
X127000000Y-138430000D01*
X133440000Y-123280000D02*
X135895000Y-123280000D01*
X135890000Y-138530000D02*
X127100000Y-138530000D01*
X128270000Y-151130000D02*
X128310000Y-151090000D01*
X179030000Y-73660000D02*
X175260000Y-77430000D01*
X328464436Y-101455000D02*
X330210000Y-99709436D01*
X125670000Y-123150000D02*
X125630000Y-123190000D01*
X224790000Y-101600000D02*
X224790000Y-113030000D01*
%TO.N,Net-(C7-Pad2)*%
X365760000Y-181610000D02*
X367030000Y-182880000D01*
X368300000Y-177840000D02*
X366990000Y-177840000D01*
X374357500Y-177840000D02*
X374650000Y-178132500D01*
X367030000Y-182880000D02*
X370880000Y-182880000D01*
X365760000Y-179070000D02*
X365760000Y-181610000D01*
X368300000Y-177840000D02*
X374357500Y-177840000D01*
X370880000Y-182880000D02*
X370880000Y-187935000D01*
X370880000Y-187935000D02*
X370855000Y-187960000D01*
X366990000Y-177840000D02*
X365760000Y-179070000D01*
%TO.N,Net-(C8-Pad1)*%
X375632500Y-178559251D02*
X374184251Y-180007500D01*
X374184251Y-180007500D02*
X373700000Y-180007500D01*
X375632500Y-171550000D02*
X375632500Y-178559251D01*
X368300000Y-180340000D02*
X373367500Y-180340000D01*
X373367500Y-180340000D02*
X373700000Y-180007500D01*
%TO.N,Net-(C9-Pad1)*%
X380515000Y-164315000D02*
X375422500Y-164315000D01*
X381000000Y-163830000D02*
X380515000Y-164315000D01*
%TO.N,Net-(C11-Pad2)*%
X375422500Y-165615000D02*
X393185000Y-165615000D01*
X389890000Y-156210000D02*
X389890000Y-157480000D01*
X393185000Y-165615000D02*
X393700000Y-165100000D01*
X392530000Y-160120000D02*
X397350000Y-160120000D01*
X389890000Y-157480000D02*
X392530000Y-160120000D01*
%TO.N,Net-(C12-Pad2)*%
X387625000Y-164965000D02*
X389930000Y-162660000D01*
X391670000Y-160920000D02*
X397350000Y-160920000D01*
X389930000Y-162660000D02*
X391670000Y-160920000D01*
X375422500Y-164965000D02*
X387625000Y-164965000D01*
%TO.N,Net-(C13-Pad1)*%
X402590000Y-164880000D02*
X402900000Y-164570000D01*
X402900000Y-155670000D02*
X402900000Y-164570000D01*
X397450000Y-155670000D02*
X402900000Y-155670000D01*
X402590000Y-170180000D02*
X402590000Y-164880000D01*
X397450000Y-164570000D02*
X402900000Y-164570000D01*
%TO.N,Net-(C16-Pad2)*%
X115510000Y-123010000D02*
X120450000Y-123010000D01*
X113255000Y-120755000D02*
X115510000Y-123010000D01*
X113255000Y-120755000D02*
X110490000Y-120755000D01*
%TO.N,Net-(C17-Pad2)*%
X115510000Y-118110000D02*
X120670000Y-118110000D01*
X115510000Y-118110000D02*
X110595000Y-118110000D01*
%TO.N,Net-(C30-Pad1)*%
X29210000Y-91440000D02*
X29210000Y-86400000D01*
X29210000Y-86400000D02*
X29250000Y-86360000D01*
X29250000Y-86360000D02*
X22860000Y-86360000D01*
%TO.N,Net-(C31-Pad1)*%
X15240000Y-95250000D02*
X16510000Y-96520000D01*
X16510000Y-96520000D02*
X17780000Y-96520000D01*
X17860000Y-86360000D02*
X15240000Y-88980000D01*
X15240000Y-88980000D02*
X15240000Y-95250000D01*
%TO.N,Net-(C33-Pad1)*%
X21590000Y-76200000D02*
X21590000Y-69850000D01*
X21590000Y-95250000D02*
X21590000Y-76200000D01*
X25400000Y-99060000D02*
X21590000Y-95250000D01*
%TO.N,Net-(C33-Pad2)*%
X16510000Y-76280000D02*
X16590000Y-76200000D01*
X16510000Y-81280000D02*
X16510000Y-76280000D01*
%TO.N,Net-(D4-Pad1)*%
X398780000Y-90170000D02*
X402590000Y-90170000D01*
%TO.N,/VDP_INT*%
X127000000Y-160020000D02*
X124460000Y-157480000D01*
X127000000Y-199390000D02*
X127000000Y-160020000D01*
X124460000Y-157480000D02*
X123190000Y-157480000D01*
X199390000Y-200660000D02*
X196455000Y-203595000D01*
X213440000Y-214650000D02*
X213455000Y-214635000D01*
X207090000Y-214650000D02*
X213440000Y-214650000D01*
X196455000Y-211695000D02*
X198120000Y-213360000D01*
X198120000Y-213360000D02*
X205800000Y-213360000D01*
X205800000Y-213360000D02*
X207090000Y-214650000D01*
X196455000Y-203595000D02*
X196455000Y-211695000D01*
X199390000Y-199390000D02*
X199390000Y-200660000D01*
%TO.N,Net-(FB1-Pad2)*%
X369205000Y-159115000D02*
X368222500Y-159115000D01*
X382270000Y-160020000D02*
X382270000Y-157480000D01*
X375935000Y-184155000D02*
X375935000Y-187960000D01*
X377190000Y-162365000D02*
X375422500Y-162365000D01*
X375932500Y-180340000D02*
X375932500Y-184152500D01*
X375932500Y-184152500D02*
X375935000Y-184155000D01*
X378265000Y-161290000D02*
X377190000Y-162365000D01*
X375932500Y-180340000D02*
X375600000Y-180007500D01*
X379730000Y-161290000D02*
X381000000Y-161290000D01*
X381000000Y-161290000D02*
X382270000Y-160020000D01*
X379730000Y-161290000D02*
X378265000Y-161290000D01*
X380145000Y-180340000D02*
X375932500Y-180340000D01*
X372110000Y-156210000D02*
X369205000Y-159115000D01*
X381000000Y-156210000D02*
X372110000Y-156210000D01*
X382270000Y-157480000D02*
X381000000Y-156210000D01*
%TO.N,/IO/PA6*%
X237490000Y-81280000D02*
X237490000Y-86355000D01*
X237490000Y-86355000D02*
X237475000Y-86370000D01*
X233680000Y-86360000D02*
X237465000Y-86360000D01*
%TO.N,Net-(J5-Pad1)*%
X31750000Y-106680000D02*
X40640000Y-106680000D01*
X41910000Y-110500000D02*
X43165000Y-111755000D01*
X40640000Y-106680000D02*
X41910000Y-107950000D01*
X41910000Y-107950000D02*
X41910000Y-110500000D01*
%TO.N,Net-(J5-Pad2)*%
X31750000Y-109220000D02*
X32920000Y-110390000D01*
X40625000Y-111755000D02*
X41475000Y-112605000D01*
X39260000Y-110390000D02*
X40625000Y-111755000D01*
X41475000Y-112605000D02*
X41475000Y-121030000D01*
X41475000Y-121030000D02*
X39390000Y-123115000D01*
X32920000Y-110390000D02*
X39260000Y-110390000D01*
%TO.N,Net-(J5-Pad3)*%
X37235000Y-112605000D02*
X37235000Y-123500000D01*
X37235000Y-123500000D02*
X39390000Y-125655000D01*
X38085000Y-111755000D02*
X37235000Y-112605000D01*
X38080000Y-111760000D02*
X38085000Y-111755000D01*
X31750000Y-111760000D02*
X38080000Y-111760000D01*
%TO.N,Net-(Q2-Pad1)*%
X154940000Y-67230000D02*
X156130000Y-67230000D01*
X168830000Y-72310000D02*
X168910000Y-72230000D01*
X165100000Y-72310000D02*
X168830000Y-72310000D01*
X161370000Y-72310000D02*
X165100000Y-72310000D01*
X161290000Y-72390000D02*
X161370000Y-72310000D01*
X156130000Y-67230000D02*
X161290000Y-72390000D01*
%TO.N,Net-(Q2-Pad2)*%
X107950000Y-125835000D02*
X110490000Y-128375000D01*
X165100000Y-91440000D02*
X162560000Y-93980000D01*
X165100000Y-77390000D02*
X168910000Y-77390000D01*
X107950000Y-104140000D02*
X107950000Y-125835000D01*
X118110000Y-93980000D02*
X107950000Y-104140000D01*
X168950000Y-77350000D02*
X170180000Y-76120000D01*
X162560000Y-93980000D02*
X118110000Y-93980000D01*
X165100000Y-77390000D02*
X165100000Y-91440000D01*
X170180000Y-76120000D02*
X170180000Y-72230000D01*
%TO.N,Net-(Q3-Pad2)*%
X355600000Y-86360000D02*
X356870000Y-85090000D01*
X355600000Y-90170000D02*
X355600000Y-86360000D01*
X356870000Y-85090000D02*
X358140000Y-85090000D01*
%TO.N,/NMI*%
X88900000Y-234950000D02*
X88900000Y-99060000D01*
X88900000Y-99060000D02*
X85090000Y-95250000D01*
X330200000Y-157480000D02*
X330200000Y-236220000D01*
X85090000Y-40577000D02*
X83883000Y-39370000D01*
X85090000Y-95250000D02*
X85090000Y-40577000D01*
%TO.N,/WAIT*%
X85090000Y-99060000D02*
X81333000Y-95303000D01*
X320040000Y-157480000D02*
X320040000Y-233680000D01*
X81333000Y-95303000D02*
X81333000Y-39370000D01*
X85090000Y-232410000D02*
X85090000Y-99060000D01*
%TO.N,/BUSRQ*%
X46990000Y-50800000D02*
X45720000Y-50800000D01*
X58420000Y-233680000D02*
X58420000Y-100330000D01*
X53340000Y-57150000D02*
X46990000Y-50800000D01*
X53340000Y-95250000D02*
X53340000Y-57150000D01*
X325120000Y-157480000D02*
X325120000Y-234950000D01*
X58420000Y-100330000D02*
X53340000Y-95250000D01*
%TO.N,Net-(R5-Pad1)*%
X90170000Y-93980000D02*
X87630000Y-91440000D01*
X95260000Y-93980000D02*
X90170000Y-93980000D01*
X97795000Y-91445000D02*
X95260000Y-93980000D01*
X87630000Y-91440000D02*
X87630000Y-74930000D01*
%TO.N,Net-(R10-Pad1)*%
X368222500Y-165615000D02*
X368222500Y-171340000D01*
X368222500Y-171340000D02*
X368012500Y-171550000D01*
%TO.N,/{slash}RESET*%
X57150000Y-114300000D02*
X57150000Y-160020000D01*
X106680000Y-132080000D02*
X107950000Y-133350000D01*
X330210000Y-89549436D02*
X330210000Y-92089436D01*
X108035000Y-133455000D02*
X110490000Y-133455000D01*
X354330000Y-97790000D02*
X355600000Y-97790000D01*
X106680000Y-114300000D02*
X106680000Y-132080000D01*
X106680000Y-114300000D02*
X106660000Y-114280000D01*
X80010000Y-48260000D02*
X80010000Y-95250000D01*
X327660000Y-82550000D02*
X328930000Y-81280000D01*
X330210000Y-92089436D02*
X330210000Y-94629436D01*
X330210000Y-89549436D02*
X327660000Y-86999436D01*
X106660000Y-114280000D02*
X106660000Y-100330000D01*
X353060000Y-96520000D02*
X354330000Y-97790000D01*
X55955000Y-161215000D02*
X54630000Y-161215000D01*
X210870000Y-146100000D02*
X218440000Y-138530000D01*
X328930000Y-81280000D02*
X351790000Y-81280000D01*
X218440000Y-138530000D02*
X218440000Y-100330000D01*
X57150000Y-160020000D02*
X55955000Y-161215000D01*
X327660000Y-86999436D02*
X327660000Y-82550000D01*
X351790000Y-81280000D02*
X353060000Y-82550000D01*
X355600000Y-97790000D02*
X360680000Y-97790000D01*
X80010000Y-95250000D02*
X83820000Y-99060000D01*
X353060000Y-82550000D02*
X353060000Y-96520000D01*
%TO.N,/CTC_INT*%
X198120000Y-148590000D02*
X198120000Y-200660000D01*
X195630000Y-146100000D02*
X198120000Y-148590000D01*
X207090000Y-219730000D02*
X213440000Y-219730000D01*
X198120000Y-200660000D02*
X195580000Y-203200000D01*
X196850000Y-215900000D02*
X203260000Y-215900000D01*
X213440000Y-219730000D02*
X213455000Y-219715000D01*
X195580000Y-214630000D02*
X196850000Y-215900000D01*
X203260000Y-215900000D02*
X207090000Y-219730000D01*
X195580000Y-203200000D02*
X195580000Y-214630000D01*
%TO.N,/UART_INT*%
X276960000Y-212190000D02*
X276835000Y-212190000D01*
X213440000Y-217190000D02*
X213455000Y-217175000D01*
X207090000Y-217190000D02*
X213440000Y-217190000D01*
X279400000Y-214630000D02*
X276960000Y-212190000D01*
X279400000Y-232410000D02*
X279400000Y-214630000D01*
X278130000Y-233680000D02*
X279400000Y-232410000D01*
X215900000Y-232410000D02*
X217170000Y-233680000D01*
X213455000Y-217175000D02*
X215900000Y-219620000D01*
X215900000Y-219620000D02*
X215900000Y-232410000D01*
X217170000Y-233680000D02*
X278130000Y-233680000D01*
%TO.N,/INT_DEV1*%
X40640000Y-72390000D02*
X35433000Y-67183000D01*
X35433000Y-67183000D02*
X35433000Y-39370000D01*
X40640000Y-93980000D02*
X40640000Y-72390000D01*
X91440000Y-113030000D02*
X91440000Y-228600000D01*
%TO.N,/INT_DEV2*%
X213455000Y-209555000D02*
X215955000Y-207055000D01*
X215955000Y-204475000D02*
X214685000Y-203205000D01*
X215955000Y-207055000D02*
X215955000Y-204475000D01*
X214685000Y-203205000D02*
X200755000Y-203205000D01*
X200755000Y-203205000D02*
X199470000Y-204490000D01*
%TO.N,/XTAL*%
X48260000Y-149860000D02*
X48260000Y-111760000D01*
X48260000Y-111760000D02*
X52070000Y-107950000D01*
X349250000Y-115570000D02*
X349250000Y-151130000D01*
X300990000Y-107950000D02*
X294640000Y-101600000D01*
X303530000Y-107950000D02*
X300990000Y-107950000D01*
X212395000Y-149655000D02*
X212395000Y-146966400D01*
X44450000Y-49530000D02*
X44450000Y-50800000D01*
X219710000Y-139651400D02*
X219710000Y-101600000D01*
X52070000Y-58420000D02*
X52070000Y-93980000D01*
X212395000Y-146966400D02*
X219710000Y-139651400D01*
X349250000Y-151130000D02*
X345440000Y-154940000D01*
X52070000Y-107950000D02*
X52070000Y-93980000D01*
X210870000Y-151180000D02*
X212395000Y-149655000D01*
X344170000Y-110490000D02*
X306070000Y-110490000D01*
X344170000Y-110490000D02*
X349250000Y-115570000D01*
X306070000Y-110490000D02*
X303530000Y-107950000D01*
X44450000Y-50800000D02*
X52070000Y-58420000D01*
%TO.N,/INT_DEV5*%
X196905000Y-210825000D02*
X198190000Y-212110000D01*
X198190000Y-212110000D02*
X199470000Y-212110000D01*
X196905000Y-204475000D02*
X196905000Y-210825000D01*
X199445000Y-201935000D02*
X196905000Y-204475000D01*
X213455000Y-201935000D02*
X199445000Y-201935000D01*
%TO.N,/IO/A11*%
X49530000Y-48260000D02*
X48183000Y-46913000D01*
X295910000Y-116840000D02*
X275590000Y-116840000D01*
X275590000Y-116840000D02*
X274320000Y-118110000D01*
X48183000Y-46913000D02*
X48183000Y-39370000D01*
%TO.N,/IO/A12*%
X295910000Y-119380000D02*
X257810000Y-119380000D01*
X245110000Y-120650000D02*
X246380000Y-121920000D01*
X255270000Y-121920000D02*
X256540000Y-120650000D01*
X233680000Y-120650000D02*
X245110000Y-120650000D01*
X246380000Y-121920000D02*
X255270000Y-121920000D01*
X257810000Y-119380000D02*
X256540000Y-120650000D01*
%TO.N,/IO/A13*%
X273050000Y-121920000D02*
X271780000Y-123190000D01*
X295910000Y-121920000D02*
X273050000Y-121920000D01*
X44450000Y-64135000D02*
X50800000Y-70485000D01*
X50800000Y-70485000D02*
X50800000Y-92710000D01*
X44450000Y-58420000D02*
X44450000Y-64135000D01*
%TO.N,/IO/A14*%
X44450000Y-72390000D02*
X37983000Y-65923000D01*
X233680000Y-118110000D02*
X234950000Y-118110000D01*
X236220000Y-116840000D02*
X255270000Y-116840000D01*
X37983000Y-65923000D02*
X37983000Y-39370000D01*
X234950000Y-118110000D02*
X236220000Y-116840000D01*
X295910000Y-124460000D02*
X261620000Y-124460000D01*
X261620000Y-124460000D02*
X260350000Y-123190000D01*
X44450000Y-93980000D02*
X44450000Y-72390000D01*
X255270000Y-116840000D02*
X256540000Y-118110000D01*
%TO.N,/IO/A15*%
X285750000Y-208260000D02*
X284470000Y-209540000D01*
X288290000Y-127000000D02*
X295910000Y-127000000D01*
X285750000Y-156210000D02*
X285750000Y-208260000D01*
X34290000Y-63500000D02*
X34290000Y-49530000D01*
X285750000Y-129540000D02*
X285750000Y-156210000D01*
X285750000Y-129540000D02*
X288290000Y-127000000D01*
%TO.N,Net-(R42-Pad1)*%
X194105000Y-153465000D02*
X195580000Y-154940000D01*
X194105000Y-150165000D02*
X194105000Y-153465000D01*
X195630000Y-148640000D02*
X194105000Y-150165000D01*
%TO.N,/BUS Expansion/D4*%
X73660000Y-176530000D02*
X73660000Y-135890000D01*
X300990000Y-137160000D02*
X295910000Y-132080000D01*
X185420000Y-176530000D02*
X185625000Y-176735000D01*
X195530000Y-118160000D02*
X195630000Y-118160000D01*
X73660000Y-100330000D02*
X68583000Y-95253000D01*
X337820000Y-172720000D02*
X337820000Y-134620000D01*
X190500000Y-176530000D02*
X190500000Y-123190000D01*
X185625000Y-176735000D02*
X185625000Y-218705000D01*
X271780000Y-148590000D02*
X269240000Y-151130000D01*
X337820000Y-134620000D02*
X345440000Y-127000000D01*
X73660000Y-135890000D02*
X73660000Y-100330000D01*
X269240000Y-151130000D02*
X269240000Y-172720000D01*
X190500000Y-123190000D02*
X195530000Y-118160000D01*
X300990000Y-172720000D02*
X300990000Y-137160000D01*
X185625000Y-218705000D02*
X191720000Y-224800000D01*
X68583000Y-95253000D02*
X68583000Y-39370000D01*
%TO.N,/BUS Expansion/D3*%
X201930000Y-127100000D02*
X210870000Y-118160000D01*
X74930000Y-100330000D02*
X69850000Y-95250000D01*
X336550000Y-171450000D02*
X336550000Y-133350000D01*
X110490000Y-166475000D02*
X110490000Y-175260000D01*
X271780000Y-151130000D02*
X271780000Y-171450000D01*
X336550000Y-133350000D02*
X345440000Y-124460000D01*
X299720000Y-171450000D02*
X299720000Y-138430000D01*
X74930000Y-133350000D02*
X74930000Y-100330000D01*
X177800000Y-218500000D02*
X184100000Y-224800000D01*
X74930000Y-175260000D02*
X74930000Y-133350000D01*
X69850000Y-95250000D02*
X69850000Y-48260000D01*
X201930000Y-172720000D02*
X201930000Y-127100000D01*
X299720000Y-138430000D02*
X295910000Y-134620000D01*
X177800000Y-175260000D02*
X177800000Y-218500000D01*
%TO.N,/BUS Expansion/D5*%
X339090000Y-173990000D02*
X339090000Y-135890000D01*
X72390000Y-138430000D02*
X72390000Y-100330000D01*
X288290000Y-144780000D02*
X295910000Y-137160000D01*
X267970000Y-149860000D02*
X267970000Y-173990000D01*
X201205000Y-172419695D02*
X201480000Y-172144695D01*
X72390000Y-177800000D02*
X72390000Y-138430000D01*
X67310000Y-95250000D02*
X67310000Y-48260000D01*
X201930000Y-175260000D02*
X201205000Y-174535000D01*
X201205000Y-174535000D02*
X201205000Y-172419695D01*
X187960000Y-177800000D02*
X187960000Y-213420000D01*
X271780000Y-146050000D02*
X267970000Y-149860000D01*
X187960000Y-213420000D02*
X191720000Y-217180000D01*
X72390000Y-100330000D02*
X67310000Y-95250000D01*
X288290000Y-173990000D02*
X288290000Y-144780000D01*
X201480000Y-126550000D02*
X195630000Y-120700000D01*
X339090000Y-135890000D02*
X345440000Y-129540000D01*
X201480000Y-172144695D02*
X201480000Y-126550000D01*
%TO.N,/BUS Expansion/D6*%
X266700000Y-148590000D02*
X266700000Y-175260000D01*
X340360000Y-175260000D02*
X340360000Y-137160000D01*
X289560000Y-175260000D02*
X289560000Y-146050000D01*
X71120000Y-100330000D02*
X67310000Y-96520000D01*
X71120000Y-140970000D02*
X71120000Y-100330000D01*
X66040000Y-49530000D02*
X66033000Y-49523000D01*
X200660000Y-177800000D02*
X200660000Y-128270000D01*
X189230000Y-212150000D02*
X191720000Y-214640000D01*
X200660000Y-128270000D02*
X195630000Y-123240000D01*
X66033000Y-49523000D02*
X66033000Y-39370000D01*
X289560000Y-146050000D02*
X295910000Y-139700000D01*
X67310000Y-96520000D02*
X66040000Y-95250000D01*
X271780000Y-143510000D02*
X266700000Y-148590000D01*
X71120000Y-179070000D02*
X71120000Y-140970000D01*
X66040000Y-95250000D02*
X66040000Y-49530000D01*
X189230000Y-179070000D02*
X189230000Y-212150000D01*
X340360000Y-137160000D02*
X345440000Y-132080000D01*
%TO.N,/BUS Expansion/D2*%
X76200000Y-173990000D02*
X76200000Y-130810000D01*
X203200000Y-170180000D02*
X203200000Y-128370000D01*
X256540000Y-148590000D02*
X259080000Y-151130000D01*
X179070000Y-173990000D02*
X179070000Y-213360000D01*
X255270000Y-149860000D02*
X256540000Y-148590000D01*
X179070000Y-213360000D02*
X182890000Y-217180000D01*
X245110000Y-148590000D02*
X246380000Y-149860000D01*
X335280000Y-170180000D02*
X335280000Y-132080000D01*
X233680000Y-148590000D02*
X245110000Y-148590000D01*
X259080000Y-151130000D02*
X259080000Y-170180000D01*
X182890000Y-217180000D02*
X184100000Y-217180000D01*
X76200000Y-100330000D02*
X71133000Y-95263000D01*
X335280000Y-132080000D02*
X345440000Y-121920000D01*
X290830000Y-149860000D02*
X295910000Y-144780000D01*
X76200000Y-130810000D02*
X76200000Y-100330000D01*
X203200000Y-128370000D02*
X210870000Y-120700000D01*
X290830000Y-170180000D02*
X290830000Y-149860000D01*
X71133000Y-95263000D02*
X71133000Y-39370000D01*
X246380000Y-149860000D02*
X255270000Y-149860000D01*
%TO.N,/BUS Expansion/D7*%
X193030000Y-207020000D02*
X191720000Y-207020000D01*
X341630000Y-138430000D02*
X345440000Y-134620000D01*
X64770000Y-95250000D02*
X64770000Y-52070000D01*
X194310000Y-205740000D02*
X193030000Y-207020000D01*
X292100000Y-176530000D02*
X292100000Y-151130000D01*
X63500000Y-50800000D02*
X63500000Y-49530000D01*
X64770000Y-52070000D02*
X63500000Y-50800000D01*
X194310000Y-180340000D02*
X194310000Y-205740000D01*
X199390000Y-180340000D02*
X199390000Y-129540000D01*
X341630000Y-176530000D02*
X341630000Y-138430000D01*
X292100000Y-151130000D02*
X295910000Y-147320000D01*
X69850000Y-100330000D02*
X64770000Y-95250000D01*
X271780000Y-140970000D02*
X265430000Y-147320000D01*
X69850000Y-143510000D02*
X69850000Y-100330000D01*
X69850000Y-180340000D02*
X69850000Y-143510000D01*
X199390000Y-129540000D02*
X195630000Y-125780000D01*
X265430000Y-147320000D02*
X265430000Y-176530000D01*
%TO.N,/BUS Expansion/D0*%
X261620000Y-167640000D02*
X261620000Y-148590000D01*
X205740000Y-130910000D02*
X210870000Y-125780000D01*
X255270000Y-144780000D02*
X256540000Y-143510000D01*
X233680000Y-143510000D02*
X245110000Y-143510000D01*
X78740000Y-125730000D02*
X78740000Y-100330000D01*
X293370000Y-152400000D02*
X295910000Y-149860000D01*
X78740000Y-171450000D02*
X78740000Y-125730000D01*
X332740000Y-129540000D02*
X345440000Y-116840000D01*
X293370000Y-167640000D02*
X293370000Y-152400000D01*
X73683000Y-95273000D02*
X73683000Y-39370000D01*
X261620000Y-148590000D02*
X256540000Y-143510000D01*
X181610000Y-204530000D02*
X184100000Y-207020000D01*
X332740000Y-167640000D02*
X332740000Y-129540000D01*
X78740000Y-100330000D02*
X73683000Y-95273000D01*
X205740000Y-167640000D02*
X205740000Y-130910000D01*
X246380000Y-144780000D02*
X255270000Y-144780000D01*
X245110000Y-143510000D02*
X246380000Y-144780000D01*
X181610000Y-171450000D02*
X181610000Y-204530000D01*
%TO.N,/BUS Expansion/D1*%
X246380000Y-147320000D02*
X255270000Y-147320000D01*
X204470000Y-168910000D02*
X204470000Y-129640000D01*
X298450000Y-154940000D02*
X295910000Y-152400000D01*
X334010000Y-168910000D02*
X334010000Y-130810000D01*
X77470000Y-100330000D02*
X72390000Y-95250000D01*
X204470000Y-129640000D02*
X210870000Y-123240000D01*
X298450000Y-168910000D02*
X298450000Y-154940000D01*
X255270000Y-147320000D02*
X256540000Y-146050000D01*
X77470000Y-172720000D02*
X77470000Y-128270000D01*
X233680000Y-146050000D02*
X245110000Y-146050000D01*
X334010000Y-130810000D02*
X345440000Y-119380000D01*
X72390000Y-95250000D02*
X72390000Y-48260000D01*
X260350000Y-149860000D02*
X260350000Y-168910000D01*
X256540000Y-146050000D02*
X260350000Y-149860000D01*
X180340000Y-210880000D02*
X184100000Y-214640000D01*
X245110000Y-146050000D02*
X246380000Y-147320000D01*
X180340000Y-172720000D02*
X180340000Y-210880000D01*
X77470000Y-128270000D02*
X77470000Y-100330000D01*
%TO.N,/{slash}INT*%
X227330000Y-210820000D02*
X228600000Y-212090000D01*
X227330000Y-189230000D02*
X227330000Y-210820000D01*
X243840000Y-154940000D02*
X243840000Y-172720000D01*
X228600000Y-212090000D02*
X229910000Y-212090000D01*
X243840000Y-172720000D02*
X227330000Y-189230000D01*
%TO.N,/HALT*%
X318770000Y-161290000D02*
X318770000Y-237490000D01*
X82550000Y-95250000D02*
X82550000Y-49530000D01*
X86360000Y-99060000D02*
X82550000Y-95250000D01*
X86360000Y-236220000D02*
X86360000Y-99060000D01*
%TO.N,/MREQ*%
X284470000Y-162570000D02*
X284470000Y-204460000D01*
X87630000Y-170180000D02*
X87630000Y-99060000D01*
X87630000Y-99060000D02*
X83820000Y-95250000D01*
X83820000Y-95250000D02*
X83820000Y-48260000D01*
%TO.N,/IORQ*%
X252730000Y-212185000D02*
X252730000Y-214725000D01*
X220980000Y-177800000D02*
X220980000Y-201930000D01*
X82550000Y-181610000D02*
X82550000Y-100330000D01*
X195630000Y-141020000D02*
X193040000Y-143610000D01*
X113850000Y-207895000D02*
X113975000Y-208020000D01*
X220765000Y-202145000D02*
X220765000Y-205485000D01*
X220980000Y-201930000D02*
X220765000Y-202145000D01*
X113990000Y-208020000D02*
X115515000Y-209545000D01*
X77470000Y-95250000D02*
X77470000Y-48260000D01*
X193040000Y-143610000D02*
X193040000Y-181610000D01*
X113850000Y-182060000D02*
X113850000Y-207895000D01*
X78783000Y-46947000D02*
X78783000Y-39370000D01*
X220765000Y-205485000D02*
X222290000Y-207010000D01*
X77470000Y-48260000D02*
X78783000Y-46947000D01*
X114300000Y-181610000D02*
X113850000Y-182060000D01*
X247650000Y-177800000D02*
X247650000Y-207105000D01*
X82550000Y-100330000D02*
X77470000Y-95250000D01*
X247650000Y-207105000D02*
X252730000Y-212185000D01*
%TO.N,/WR*%
X347980000Y-190500000D02*
X347980000Y-162560000D01*
X347980000Y-162560000D02*
X345440000Y-160020000D01*
X232410000Y-119380000D02*
X247650000Y-119380000D01*
X247650000Y-119380000D02*
X248920000Y-120650000D01*
X64770000Y-50800000D02*
X64770000Y-48260000D01*
X220980000Y-130810000D02*
X232410000Y-119380000D01*
X64770000Y-48260000D02*
X63483000Y-46973000D01*
X49575000Y-219705000D02*
X47000000Y-219705000D01*
X52110000Y-194310000D02*
X52110000Y-217170000D01*
X125730000Y-194310000D02*
X125730000Y-214570000D01*
X52110000Y-217170000D02*
X49575000Y-219705000D01*
X219710000Y-176530000D02*
X220980000Y-175260000D01*
X63483000Y-46973000D02*
X63483000Y-39370000D01*
X219710000Y-190500000D02*
X219710000Y-176530000D01*
X125730000Y-214570000D02*
X123135000Y-217165000D01*
X81280000Y-100330000D02*
X81280000Y-194310000D01*
X76200000Y-50800000D02*
X76200000Y-78740000D01*
X220980000Y-175260000D02*
X220980000Y-130810000D01*
X76200000Y-95250000D02*
X81280000Y-100330000D01*
X76200000Y-78740000D02*
X76200000Y-95250000D01*
X313690000Y-165100000D02*
X311150000Y-162560000D01*
X313690000Y-190500000D02*
X313690000Y-165100000D01*
%TO.N,/BUSACK*%
X46990000Y-118110000D02*
X46990000Y-69850000D01*
X321310000Y-160020000D02*
X321310000Y-238760000D01*
X43180000Y-66040000D02*
X43180000Y-49530000D01*
X43180000Y-49530000D02*
X45633000Y-47077000D01*
X41910000Y-237490000D02*
X41910000Y-168910000D01*
X46990000Y-69850000D02*
X43180000Y-66040000D01*
X43180000Y-167640000D02*
X43180000Y-121920000D01*
X45633000Y-47077000D02*
X45633000Y-39370000D01*
X43180000Y-121920000D02*
X46990000Y-118110000D01*
X41910000Y-168910000D02*
X43180000Y-167640000D01*
%TO.N,/M1*%
X194310000Y-206376396D02*
X194310000Y-224750000D01*
X195580000Y-198120000D02*
X194760000Y-198940000D01*
X194310000Y-224750000D02*
X191720000Y-227340000D01*
X194760000Y-198940000D02*
X194760000Y-205926396D01*
X222250000Y-195580000D02*
X222290000Y-195620000D01*
X314960000Y-194310000D02*
X314960000Y-153670000D01*
X222290000Y-195620000D02*
X222290000Y-204470000D01*
X78740000Y-49530000D02*
X78740000Y-95250000D01*
X194760000Y-205926396D02*
X194310000Y-206376396D01*
X83820000Y-100330000D02*
X83820000Y-198120000D01*
X213360000Y-195580000D02*
X213360000Y-153670000D01*
X314960000Y-153670000D02*
X311150000Y-149860000D01*
X78740000Y-95250000D02*
X83820000Y-100330000D01*
%TO.N,/IO/A0*%
X232410000Y-140970000D02*
X233680000Y-140970000D01*
X210820000Y-158750000D02*
X208280000Y-156210000D01*
X231140000Y-142240000D02*
X232410000Y-140970000D01*
X231140000Y-179070000D02*
X231140000Y-142240000D01*
X233680000Y-140970000D02*
X245110000Y-140970000D01*
X356870000Y-151130000D02*
X360680000Y-147320000D01*
X255270000Y-142240000D02*
X256540000Y-140970000D01*
X208280000Y-156210000D02*
X208280000Y-146150000D01*
X63500000Y-52070000D02*
X62230000Y-50800000D01*
X68580000Y-100330000D02*
X68580000Y-148590000D01*
X63500000Y-87630000D02*
X63500000Y-95250000D01*
X246380000Y-142240000D02*
X255270000Y-142240000D01*
X208280000Y-146150000D02*
X210870000Y-143560000D01*
X316230000Y-147320000D02*
X311150000Y-142240000D01*
X63500000Y-95250000D02*
X68580000Y-100330000D01*
X44490000Y-207035000D02*
X47000000Y-209545000D01*
X44490000Y-182880000D02*
X44490000Y-207035000D01*
X316230000Y-179070000D02*
X316230000Y-147320000D01*
X356870000Y-179070000D02*
X356870000Y-151130000D01*
X245110000Y-140970000D02*
X246380000Y-142240000D01*
X63500000Y-87630000D02*
X63500000Y-52070000D01*
X68580000Y-148590000D02*
X68580000Y-182880000D01*
X210820000Y-179070000D02*
X210820000Y-158750000D01*
X62230000Y-50800000D02*
X62230000Y-48260000D01*
%TO.N,/IO/A1*%
X246380000Y-139700000D02*
X255270000Y-139700000D01*
X229870000Y-140970000D02*
X232410000Y-138430000D01*
X60933000Y-50773000D02*
X60933000Y-39370000D01*
X62230000Y-52070000D02*
X60933000Y-50773000D01*
X207010000Y-144880000D02*
X210870000Y-141020000D01*
X232410000Y-138430000D02*
X233680000Y-138430000D01*
X67310000Y-184150000D02*
X67310000Y-100330000D01*
X63500000Y-96520000D02*
X62230000Y-95250000D01*
X62230000Y-95250000D02*
X62230000Y-52070000D01*
X67310000Y-100330000D02*
X63500000Y-96520000D01*
X233680000Y-138430000D02*
X245110000Y-138430000D01*
X229870000Y-180340000D02*
X229870000Y-140970000D01*
X317500000Y-146050000D02*
X311150000Y-139700000D01*
X358140000Y-180340000D02*
X358140000Y-152400000D01*
X207010000Y-157480000D02*
X207010000Y-144880000D01*
X358140000Y-152400000D02*
X360680000Y-149860000D01*
X317500000Y-180340000D02*
X317500000Y-146050000D01*
X245110000Y-138430000D02*
X246380000Y-139700000D01*
X209550000Y-160020000D02*
X207010000Y-157480000D01*
X255270000Y-139700000D02*
X256540000Y-138430000D01*
X209550000Y-180340000D02*
X209550000Y-160020000D01*
%TO.N,/IO/A2*%
X359410000Y-153670000D02*
X360680000Y-152400000D01*
X308610000Y-138430000D02*
X309880000Y-137160000D01*
X245110000Y-135890000D02*
X246380000Y-137160000D01*
X246380000Y-137160000D02*
X255270000Y-137160000D01*
X228600000Y-139700000D02*
X232410000Y-135890000D01*
X359410000Y-181610000D02*
X359410000Y-153670000D01*
X308610000Y-181610000D02*
X308610000Y-138430000D01*
X59690000Y-48260000D02*
X59690000Y-50800000D01*
X309880000Y-137160000D02*
X311150000Y-137160000D01*
X66040000Y-100330000D02*
X66040000Y-185420000D01*
X255270000Y-137160000D02*
X256540000Y-135890000D01*
X60960000Y-95250000D02*
X66040000Y-100330000D01*
X59690000Y-50800000D02*
X60960000Y-52070000D01*
X232410000Y-135890000D02*
X233680000Y-135890000D01*
X233680000Y-135890000D02*
X245110000Y-135890000D01*
X228600000Y-181610000D02*
X228600000Y-139700000D01*
X60960000Y-52070000D02*
X60960000Y-95250000D01*
%TO.N,/IO/A3*%
X233680000Y-133350000D02*
X245110000Y-133350000D01*
X64770000Y-100330000D02*
X59690000Y-95250000D01*
X59690000Y-52070000D02*
X58383000Y-50763000D01*
X307340000Y-135890000D02*
X308610000Y-134620000D01*
X59690000Y-95250000D02*
X59690000Y-52070000D01*
X255270000Y-134620000D02*
X256540000Y-133350000D01*
X227330000Y-138430000D02*
X232410000Y-133350000D01*
X307340000Y-182880000D02*
X307340000Y-135890000D01*
X245110000Y-133350000D02*
X246380000Y-134620000D01*
X246380000Y-134620000D02*
X255270000Y-134620000D01*
X58383000Y-50763000D02*
X58383000Y-39370000D01*
X227330000Y-182880000D02*
X227330000Y-138430000D01*
X308610000Y-134620000D02*
X311150000Y-134620000D01*
X232410000Y-133350000D02*
X233680000Y-133350000D01*
X64770000Y-186690000D02*
X64770000Y-100330000D01*
%TO.N,/IO/A4*%
X226060000Y-184150000D02*
X226060000Y-137160000D01*
X232410000Y-130810000D02*
X233680000Y-130810000D01*
X306070000Y-133350000D02*
X307340000Y-132080000D01*
X255270000Y-132080000D02*
X256540000Y-130810000D01*
X58420000Y-52070000D02*
X57150000Y-50800000D01*
X226060000Y-137160000D02*
X232410000Y-130810000D01*
X57150000Y-50800000D02*
X57150000Y-48260000D01*
X58420000Y-95250000D02*
X58420000Y-52070000D01*
X306070000Y-184150000D02*
X306070000Y-133350000D01*
X233680000Y-130810000D02*
X245110000Y-130810000D01*
X63500000Y-100330000D02*
X58420000Y-95250000D01*
X63500000Y-187960000D02*
X63500000Y-100330000D01*
X307340000Y-132080000D02*
X311150000Y-132080000D01*
X245110000Y-130810000D02*
X246380000Y-132080000D01*
X246380000Y-132080000D02*
X255270000Y-132080000D01*
%TO.N,/IO/A5*%
X245110000Y-128270000D02*
X246380000Y-129540000D01*
X55833000Y-50753000D02*
X55833000Y-39370000D01*
X57150000Y-52070000D02*
X55833000Y-50753000D01*
X306070000Y-129540000D02*
X311150000Y-129540000D01*
X232410000Y-128270000D02*
X233680000Y-128270000D01*
X233680000Y-128270000D02*
X245110000Y-128270000D01*
X304800000Y-185420000D02*
X304800000Y-130810000D01*
X57150000Y-95250000D02*
X57150000Y-52070000D01*
X246380000Y-129540000D02*
X255270000Y-129540000D01*
X62230000Y-189230000D02*
X62230000Y-100330000D01*
X62230000Y-100330000D02*
X57150000Y-95250000D01*
X255270000Y-129540000D02*
X256540000Y-128270000D01*
X304800000Y-130810000D02*
X306070000Y-129540000D01*
X224790000Y-185420000D02*
X224790000Y-135890000D01*
X224790000Y-135890000D02*
X232410000Y-128270000D01*
X252730000Y-185420000D02*
X252730000Y-204565000D01*
%TO.N,/IO/A6*%
X55880000Y-52070000D02*
X54610000Y-50800000D01*
X303530000Y-186690000D02*
X303530000Y-128270000D01*
X55880000Y-95250000D02*
X55880000Y-52070000D01*
X245110000Y-125730000D02*
X246380000Y-127000000D01*
X233680000Y-125730000D02*
X245110000Y-125730000D01*
X232410000Y-125730000D02*
X233680000Y-125730000D01*
X54610000Y-50800000D02*
X54610000Y-48260000D01*
X255270000Y-127000000D02*
X256540000Y-125730000D01*
X304800000Y-127000000D02*
X311150000Y-127000000D01*
X223520000Y-186690000D02*
X223520000Y-134620000D01*
X246380000Y-127000000D02*
X255270000Y-127000000D01*
X303530000Y-128270000D02*
X304800000Y-127000000D01*
X60960000Y-100330000D02*
X55880000Y-95250000D01*
X60960000Y-190500000D02*
X60960000Y-100330000D01*
X250190000Y-186690000D02*
X250190000Y-204565000D01*
X223520000Y-134620000D02*
X232410000Y-125730000D01*
X250190000Y-204565000D02*
X252730000Y-207105000D01*
%TO.N,/IO/A7*%
X59690000Y-100330000D02*
X54610000Y-95250000D01*
X232410000Y-123190000D02*
X233680000Y-123190000D01*
X302260000Y-125730000D02*
X303530000Y-124460000D01*
X222250000Y-133350000D02*
X232410000Y-123190000D01*
X222250000Y-187960000D02*
X222250000Y-133350000D01*
X59690000Y-191770000D02*
X59690000Y-100330000D01*
X248920000Y-187960000D02*
X248920000Y-205835000D01*
X54610000Y-52070000D02*
X53283000Y-50743000D01*
X245110000Y-123190000D02*
X246380000Y-124460000D01*
X302260000Y-187960000D02*
X302260000Y-125730000D01*
X233680000Y-123190000D02*
X245110000Y-123190000D01*
X303530000Y-124460000D02*
X311150000Y-124460000D01*
X255270000Y-124460000D02*
X256540000Y-123190000D01*
X53283000Y-50743000D02*
X53283000Y-39370000D01*
X54610000Y-95250000D02*
X54610000Y-52070000D01*
X248920000Y-205835000D02*
X252730000Y-209645000D01*
X246380000Y-124460000D02*
X255270000Y-124460000D01*
%TO.N,/IO/A8*%
X313690000Y-114300000D02*
X311150000Y-111760000D01*
X264160000Y-186690000D02*
X264160000Y-133350000D01*
X313690000Y-119380000D02*
X313690000Y-114300000D01*
X269215000Y-204570000D02*
X269215000Y-207110000D01*
X264160000Y-133350000D02*
X271780000Y-125730000D01*
X269215000Y-191745000D02*
X264160000Y-186690000D01*
X311150000Y-121920000D02*
X313690000Y-119380000D01*
X269215000Y-204570000D02*
X269215000Y-191745000D01*
X311150000Y-111760000D02*
X241300000Y-111760000D01*
%TO.N,/IO/A9*%
X50800000Y-49530000D02*
X50733000Y-49463000D01*
X50733000Y-49463000D02*
X50733000Y-39370000D01*
X303270990Y-119380000D02*
X296904796Y-125746194D01*
X296904796Y-125746194D02*
X274303806Y-125746194D01*
X311150000Y-119380000D02*
X303270990Y-119380000D01*
X274303806Y-125746194D02*
X271780000Y-128270000D01*
%TO.N,/IO/A10*%
X275590000Y-114300000D02*
X308610000Y-114300000D01*
X308610000Y-114300000D02*
X311150000Y-116840000D01*
%TO.N,/ROM_CE*%
X281940000Y-193040000D02*
X281940000Y-209550000D01*
X246380000Y-194310000D02*
X246380000Y-153670000D01*
X281940000Y-209550000D02*
X284470000Y-212080000D01*
%TO.N,/RAM_CE*%
X273050000Y-138430000D02*
X271780000Y-138430000D01*
X280670000Y-146050000D02*
X273050000Y-138430000D01*
X280670000Y-210820000D02*
X280670000Y-146050000D01*
X284470000Y-214620000D02*
X280670000Y-210820000D01*
%TO.N,/PPI_CE*%
X255270000Y-232410000D02*
X255270000Y-212185000D01*
X90170000Y-106690000D02*
X105415000Y-91445000D01*
X90170000Y-231140000D02*
X90170000Y-106690000D01*
X255270000Y-212185000D02*
X260350000Y-207105000D01*
%TO.N,Net-(U5-Pad15)*%
X345440000Y-152400000D02*
X347980000Y-149860000D01*
X347980000Y-139700000D02*
X345440000Y-137160000D01*
X347980000Y-149860000D02*
X347980000Y-139700000D01*
%TO.N,/RX*%
X368300000Y-151130000D02*
X368222500Y-151207500D01*
X368222500Y-151207500D02*
X368222500Y-157165000D01*
X372110000Y-149860000D02*
X372110000Y-143510000D01*
X368300000Y-151130000D02*
X370840000Y-151130000D01*
X370840000Y-151130000D02*
X372110000Y-149860000D01*
%TO.N,/TX*%
X364335000Y-159865000D02*
X368300000Y-159865000D01*
X374650000Y-140970000D02*
X374650000Y-153670000D01*
X372110000Y-138430000D02*
X374650000Y-140970000D01*
X363220000Y-158750000D02*
X364335000Y-159865000D01*
%TO.N,/UART_CE*%
X262890000Y-196850000D02*
X262890000Y-207105000D01*
X262890000Y-207105000D02*
X260350000Y-209645000D01*
%TO.N,Net-(Q4-Pad2)*%
X285750000Y-91440000D02*
X290830000Y-91440000D01*
%TO.N,Net-(U5-Pad32)*%
X354330000Y-143510000D02*
X360680000Y-137160000D01*
X367195000Y-163665000D02*
X368222500Y-163665000D01*
X354330000Y-171450000D02*
X354330000Y-143510000D01*
X361950000Y-168910000D02*
X367195000Y-163665000D01*
X361950000Y-171450000D02*
X361950000Y-168910000D01*
%TO.N,/DTR*%
X360680000Y-134620000D02*
X362400000Y-136340000D01*
X364945000Y-163015000D02*
X368222500Y-163015000D01*
X368222500Y-162365000D02*
X368222500Y-163015000D01*
X362400000Y-160470000D02*
X364945000Y-163015000D01*
X362400000Y-136340000D02*
X362400000Y-160470000D01*
%TO.N,Net-(U5-Pad36)*%
X363300000Y-129620000D02*
X363300000Y-156290000D01*
X363300000Y-156290000D02*
X365575000Y-158565000D01*
X360680000Y-127000000D02*
X363300000Y-129620000D01*
X365575000Y-158565000D02*
X368300000Y-158565000D01*
%TO.N,/DSR*%
X364490000Y-140970000D02*
X372110000Y-140970000D01*
X364490000Y-140970000D02*
X364490000Y-128270000D01*
X364490000Y-128270000D02*
X360680000Y-124460000D01*
X364490000Y-156331250D02*
X365973750Y-157815000D01*
X364490000Y-140970000D02*
X364490000Y-156331250D01*
X365973750Y-157815000D02*
X368222500Y-157815000D01*
X360680000Y-121920000D02*
X360680000Y-124460000D01*
%TO.N,/VIDEO/AD0*%
X138035000Y-123280000D02*
X137160000Y-124155000D01*
X137160000Y-137260000D02*
X138430000Y-138530000D01*
X137310000Y-152635000D02*
X138435000Y-153760000D01*
X138435000Y-123280000D02*
X138035000Y-123280000D01*
X138430000Y-138530000D02*
X137310000Y-139650000D01*
X137310000Y-139650000D02*
X137310000Y-152635000D01*
X137160000Y-124155000D02*
X137160000Y-137260000D01*
%TO.N,/VIDEO/AD1*%
X139700000Y-124155000D02*
X139700000Y-137260000D01*
X140975000Y-123280000D02*
X140575000Y-123280000D01*
X139850000Y-152635000D02*
X140975000Y-153760000D01*
X139700000Y-137260000D02*
X140970000Y-138530000D01*
X140970000Y-138530000D02*
X139850000Y-139650000D01*
X140575000Y-123280000D02*
X139700000Y-124155000D01*
X139850000Y-139650000D02*
X139850000Y-152635000D01*
%TO.N,/VIDEO/AD2*%
X143515000Y-123280000D02*
X143115000Y-123280000D01*
X142240000Y-124155000D02*
X142240000Y-137260000D01*
X142390000Y-139650000D02*
X142390000Y-152635000D01*
X143510000Y-138530000D02*
X142390000Y-139650000D01*
X142240000Y-137260000D02*
X143510000Y-138530000D01*
X143115000Y-123280000D02*
X142240000Y-124155000D01*
X142390000Y-152635000D02*
X143515000Y-153760000D01*
%TO.N,/VIDEO/AD3*%
X144930000Y-139650000D02*
X144930000Y-152635000D01*
X146055000Y-123280000D02*
X144925000Y-124410000D01*
X144925000Y-124410000D02*
X144925000Y-137405000D01*
X144925000Y-137405000D02*
X146050000Y-138530000D01*
X144930000Y-152635000D02*
X146055000Y-153760000D01*
X146050000Y-138530000D02*
X144930000Y-139650000D01*
%TO.N,/VIDEO/AD4*%
X148195000Y-123280000D02*
X147320000Y-124155000D01*
X148595000Y-123280000D02*
X148195000Y-123280000D01*
X147320000Y-137260000D02*
X148590000Y-138530000D01*
X148590000Y-138530000D02*
X147470000Y-139650000D01*
X147470000Y-152635000D02*
X148595000Y-153760000D01*
X147470000Y-139650000D02*
X147470000Y-152635000D01*
X147320000Y-124155000D02*
X147320000Y-137260000D01*
%TO.N,/VIDEO/AD5*%
X150010000Y-139650000D02*
X150010000Y-150010000D01*
X151130000Y-138530000D02*
X150010000Y-139650000D01*
X151135000Y-151135000D02*
X151135000Y-153760000D01*
X150005000Y-124410000D02*
X150005000Y-137405000D01*
X150010000Y-150010000D02*
X151135000Y-151135000D01*
X151135000Y-123280000D02*
X150005000Y-124410000D01*
X150005000Y-137405000D02*
X151130000Y-138530000D01*
%TO.N,/VIDEO/AD6*%
X152545000Y-137405000D02*
X153670000Y-138530000D01*
X152550000Y-139650000D02*
X152550000Y-149417500D01*
X153675000Y-150542500D02*
X153675000Y-153760000D01*
X152545000Y-124410000D02*
X152545000Y-137405000D01*
X153675000Y-123280000D02*
X152545000Y-124410000D01*
X153670000Y-138530000D02*
X152550000Y-139650000D01*
X152550000Y-149417500D02*
X153675000Y-150542500D01*
%TO.N,/VIDEO/AD7*%
X155085000Y-124410000D02*
X155085000Y-137405000D01*
X155085000Y-137405000D02*
X156210000Y-138530000D01*
X156215000Y-149865000D02*
X156215000Y-153760000D01*
X155090000Y-139650000D02*
X155090000Y-148740000D01*
X155090000Y-148740000D02*
X156215000Y-149865000D01*
X156210000Y-138530000D02*
X155090000Y-139650000D01*
X156215000Y-123280000D02*
X155085000Y-124410000D01*
%TO.N,Net-(U17-Pad2)*%
X149470000Y-209545000D02*
X147320000Y-207395000D01*
X149870000Y-209545000D02*
X149470000Y-209545000D01*
X185420000Y-111760000D02*
X170180000Y-111760000D01*
X147320000Y-207395000D02*
X147320000Y-161290000D01*
X187960000Y-114300000D02*
X185420000Y-111760000D01*
X166280000Y-115660000D02*
X158755000Y-115660000D01*
X187960000Y-161290000D02*
X187960000Y-114300000D01*
X170180000Y-111760000D02*
X166280000Y-115660000D01*
%TO.N,/VIDEO/VA6*%
X168900000Y-128280000D02*
X166380000Y-128280000D01*
X165100000Y-127000000D02*
X165100000Y-120650000D01*
X157770000Y-118400000D02*
X156215000Y-116845000D01*
X156215000Y-116845000D02*
X156215000Y-115660000D01*
X165100000Y-120650000D02*
X162850000Y-118400000D01*
X168910000Y-128270000D02*
X168900000Y-128280000D01*
X166380000Y-128280000D02*
X165100000Y-127000000D01*
X162850000Y-118400000D02*
X157770000Y-118400000D01*
%TO.N,/VIDEO/VA5*%
X162030000Y-118850000D02*
X154410000Y-118850000D01*
X164650000Y-121470000D02*
X162030000Y-118850000D01*
X154410000Y-118850000D02*
X153670000Y-118110000D01*
X166380000Y-130820000D02*
X164650000Y-129090000D01*
X164650000Y-129090000D02*
X164650000Y-121470000D01*
X153675000Y-118105000D02*
X153675000Y-115660000D01*
X168900000Y-130820000D02*
X166380000Y-130820000D01*
X153670000Y-118110000D02*
X153675000Y-118105000D01*
X168910000Y-130810000D02*
X168900000Y-130820000D01*
%TO.N,/VIDEO/VA4*%
X186690000Y-133350000D02*
X186690000Y-115570000D01*
X184150000Y-135890000D02*
X186690000Y-133350000D01*
%TO.N,/VIDEO/VA3*%
X148595000Y-118115000D02*
X148595000Y-115660000D01*
X166380000Y-133360000D02*
X164200000Y-131180000D01*
X164200000Y-131180000D02*
X164200000Y-122290000D01*
X168910000Y-133350000D02*
X168900000Y-133360000D01*
X168900000Y-133360000D02*
X166380000Y-133360000D01*
X164200000Y-122290000D02*
X161210000Y-119300000D01*
X149780000Y-119300000D02*
X148595000Y-118115000D01*
X161210000Y-119300000D02*
X149780000Y-119300000D01*
%TO.N,/VIDEO/VA2*%
X160390000Y-119750000D02*
X147690000Y-119750000D01*
X163750000Y-123110000D02*
X160390000Y-119750000D01*
X147690000Y-119750000D02*
X146050000Y-118110000D01*
X146055000Y-118105000D02*
X146055000Y-115660000D01*
X168910000Y-135890000D02*
X166000000Y-135890000D01*
X163750000Y-133640000D02*
X163750000Y-123110000D01*
X166000000Y-135890000D02*
X163750000Y-133640000D01*
X146050000Y-118110000D02*
X146055000Y-118105000D01*
%TO.N,/VIDEO/VA1*%
X163300000Y-123928807D02*
X159571193Y-120200000D01*
X159571193Y-120200000D02*
X145600000Y-120200000D01*
X145600000Y-120200000D02*
X143510000Y-118110000D01*
X168900000Y-138440000D02*
X166380000Y-138440000D01*
X143515000Y-118105000D02*
X143515000Y-115660000D01*
X163300000Y-135360000D02*
X163300000Y-123928807D01*
X143510000Y-118110000D02*
X143515000Y-118105000D01*
X168910000Y-138430000D02*
X168900000Y-138440000D01*
X166380000Y-138440000D02*
X163300000Y-135360000D01*
%TO.N,/VIDEO/VA0*%
X168910000Y-140970000D02*
X168900000Y-140980000D01*
X140975000Y-118115000D02*
X140975000Y-115660000D01*
X168900000Y-140980000D02*
X166380000Y-140980000D01*
X143510000Y-120650000D02*
X140975000Y-118115000D01*
X166380000Y-140980000D02*
X162850000Y-137450000D01*
X159067995Y-120650000D02*
X143510000Y-120650000D01*
X162850000Y-124432005D02*
X159067995Y-120650000D01*
X162850000Y-137450000D02*
X162850000Y-124432005D01*
%TO.N,Net-(U17-Pad6)*%
X146050000Y-162560000D02*
X146050000Y-215885000D01*
X161290000Y-133450000D02*
X158750000Y-130910000D01*
X146050000Y-215885000D02*
X149870000Y-219705000D01*
X161290000Y-162560000D02*
X161290000Y-133450000D01*
%TO.N,Net-(U10-Pad1)*%
X189230000Y-120650000D02*
X189230000Y-163830000D01*
X135895000Y-153760000D02*
X135895000Y-163825000D01*
X135895000Y-224785000D02*
X135890000Y-224790000D01*
X135895000Y-163825000D02*
X135895000Y-224785000D01*
%TO.N,Net-(U10-Pad11)*%
X175260000Y-153670000D02*
X175260000Y-142240000D01*
X157490000Y-217165000D02*
X160020000Y-214635000D01*
X160020000Y-214635000D02*
X160020000Y-149860000D01*
X158755000Y-148595000D02*
X158755000Y-146140000D01*
X175260000Y-142240000D02*
X184150000Y-133350000D01*
X160020000Y-149860000D02*
X158755000Y-148595000D01*
%TO.N,/VIDEO/VD7*%
X177800000Y-156210000D02*
X177800000Y-147320000D01*
X156215000Y-146140000D02*
X156215000Y-148585000D01*
X156210000Y-148590000D02*
X157480000Y-149860000D01*
X157480000Y-149860000D02*
X157480000Y-156210000D01*
X177800000Y-147320000D02*
X184150000Y-140970000D01*
X156215000Y-148585000D02*
X156210000Y-148590000D01*
%TO.N,/VIDEO/VD6*%
X110490000Y-153775000D02*
X124565000Y-153775000D01*
X124565000Y-153775000D02*
X128270000Y-157480000D01*
X184150000Y-143510000D02*
X179070000Y-148590000D01*
X153675000Y-149230000D02*
X154940000Y-150495000D01*
X154940000Y-150495000D02*
X154940000Y-157480000D01*
X179070000Y-148590000D02*
X179070000Y-157480000D01*
X153675000Y-146140000D02*
X153675000Y-149230000D01*
%TO.N,/VIDEO/VD5*%
X180340000Y-149860000D02*
X184150000Y-146050000D01*
X180340000Y-158750000D02*
X180340000Y-149860000D01*
X152400000Y-151130000D02*
X152400000Y-158750000D01*
X151135000Y-149865000D02*
X152400000Y-151130000D01*
X110490000Y-151235000D02*
X123295000Y-151235000D01*
X151135000Y-146140000D02*
X151135000Y-149865000D01*
X123295000Y-151235000D02*
X130810000Y-158750000D01*
%TO.N,/VIDEO/VD4*%
X110490000Y-148695000D02*
X122025000Y-148695000D01*
X148595000Y-149865000D02*
X149860000Y-151130000D01*
X181610000Y-151130000D02*
X181610000Y-160020000D01*
X149860000Y-151130000D02*
X149860000Y-160020000D01*
X122025000Y-148695000D02*
X133350000Y-160020000D01*
X184150000Y-148590000D02*
X181610000Y-151130000D01*
X148595000Y-146140000D02*
X148595000Y-149865000D01*
%TO.N,/VIDEO/{slash}CAS*%
X156205000Y-219705000D02*
X154940000Y-218440000D01*
X154940000Y-218440000D02*
X154940000Y-168910000D01*
X104140000Y-129645000D02*
X95250000Y-120755000D01*
X176530000Y-168910000D02*
X176530000Y-146050000D01*
X104140000Y-168910000D02*
X104140000Y-129645000D01*
X157490000Y-219705000D02*
X156205000Y-219705000D01*
X176530000Y-146050000D02*
X184150000Y-138430000D01*
%TO.N,Net-(U13-Pad12)*%
X279400000Y-204545000D02*
X276835000Y-207110000D01*
X355600000Y-195580000D02*
X355600000Y-147320000D01*
X355600000Y-147320000D02*
X360680000Y-142240000D01*
X276850000Y-207110000D02*
X276850000Y-209650000D01*
X279400000Y-195580000D02*
X279400000Y-204545000D01*
%TO.N,/CTC_CE*%
X243635000Y-194105000D02*
X243635000Y-218030000D01*
X260350000Y-217265000D02*
X262890000Y-219805000D01*
X209345000Y-150165000D02*
X210870000Y-148640000D01*
X212090000Y-157480000D02*
X209345000Y-154735000D01*
X212090000Y-194310000D02*
X212090000Y-157480000D01*
X243635000Y-218030000D02*
X250190000Y-224585000D01*
X209345000Y-154735000D02*
X209345000Y-150165000D01*
X262890000Y-219805000D02*
X262890000Y-224790000D01*
%TO.N,/PSG_CE*%
X43220000Y-196850000D02*
X43220000Y-208305000D01*
X260350000Y-214640000D02*
X260350000Y-214725000D01*
X44490000Y-213360000D02*
X44490000Y-215900000D01*
X45755000Y-217165000D02*
X47000000Y-217165000D01*
X43220000Y-208305000D02*
X47000000Y-212085000D01*
X47000000Y-212085000D02*
X45765000Y-212085000D01*
X265430000Y-193040000D02*
X265430000Y-209560000D01*
X265430000Y-209560000D02*
X260350000Y-214640000D01*
X44490000Y-215900000D02*
X45755000Y-217165000D01*
X45765000Y-212085000D02*
X44490000Y-213360000D01*
%TO.N,/VDP_CE*%
X264160000Y-208375000D02*
X260350000Y-212185000D01*
X115500000Y-195595000D02*
X115500000Y-207005000D01*
X264160000Y-191770000D02*
X264160000Y-208375000D01*
%TO.N,/VIDEO/{slash}CSR*%
X97790000Y-156315000D02*
X97790000Y-215900000D01*
X95250000Y-153775000D02*
X97790000Y-156315000D01*
X97790000Y-215900000D02*
X101595000Y-219705000D01*
X101595000Y-219705000D02*
X115515000Y-219705000D01*
%TO.N,/VIDEO/{slash}CSW*%
X96520000Y-220980000D02*
X121870000Y-220980000D01*
X92710000Y-217170000D02*
X96520000Y-220980000D01*
X121870000Y-220980000D02*
X123135000Y-222245000D01*
X92710000Y-152380000D02*
X92710000Y-217170000D01*
X93855000Y-151235000D02*
X92710000Y-152380000D01*
X95250000Y-151235000D02*
X93855000Y-151235000D01*
%TO.N,/VIDEO/{slash}RAS*%
X105410000Y-128375000D02*
X95250000Y-118215000D01*
X149870000Y-207005000D02*
X149870000Y-167650000D01*
X105410000Y-167640000D02*
X105410000Y-128375000D01*
%TO.N,Net-(U17-Pad3)*%
X149870000Y-212085000D02*
X153670000Y-215885000D01*
X153670000Y-218425000D02*
X157490000Y-222245000D01*
X153670000Y-215885000D02*
X153670000Y-218425000D01*
%TO.N,Net-(U17-Pad4)*%
X149870000Y-214625000D02*
X149870000Y-217165000D01*
%TO.N,Net-(U20-Pad1)*%
X47000000Y-153605000D02*
X47000000Y-207005000D01*
X54630000Y-145975000D02*
X47000000Y-153605000D01*
%TO.N,Net-(U20-Pad4)*%
X49570000Y-156115000D02*
X49570000Y-201569009D01*
X49570000Y-201569009D02*
X50840000Y-202839009D01*
X50840000Y-202839009D02*
X50840000Y-212090000D01*
X48305000Y-214625000D02*
X47000000Y-214625000D01*
X50840000Y-212090000D02*
X48305000Y-214625000D01*
X54630000Y-151055000D02*
X49570000Y-156115000D01*
%TO.N,/SOUND/ROW7*%
X31750000Y-176530000D02*
X31750000Y-166370000D01*
%TO.N,/SOUND/ROW6*%
X39390000Y-133275000D02*
X38175000Y-133275000D01*
X38175000Y-133275000D02*
X34290000Y-137160000D01*
X34290000Y-148590000D02*
X31750000Y-151130000D01*
X34290000Y-137160000D02*
X34290000Y-148590000D01*
%TO.N,/SOUND/ROW5*%
X39390000Y-135815000D02*
X38810000Y-135815000D01*
X38810000Y-135815000D02*
X35030000Y-139595000D01*
X35030000Y-139595000D02*
X35030000Y-150390000D01*
X35030000Y-150390000D02*
X31750000Y-153670000D01*
%TO.N,/SOUND/ROW4*%
X39390000Y-138355000D02*
X38175000Y-138355000D01*
X38175000Y-138355000D02*
X35480000Y-141050000D01*
X35480000Y-141050000D02*
X35480000Y-152480000D01*
X35480000Y-152480000D02*
X31750000Y-156210000D01*
%TO.N,/SOUND/ROW3*%
X35930000Y-143140000D02*
X35930000Y-154570000D01*
X38175000Y-140895000D02*
X35930000Y-143140000D01*
X35930000Y-154570000D02*
X31750000Y-158750000D01*
X39390000Y-140895000D02*
X38175000Y-140895000D01*
%TO.N,/SOUND/ROW2*%
X39390000Y-143435000D02*
X38175000Y-143435000D01*
X38175000Y-143435000D02*
X36380000Y-145230000D01*
X36380000Y-145230000D02*
X36380000Y-156660000D01*
X36380000Y-156660000D02*
X31750000Y-161290000D01*
%TO.N,/SOUND/ROW1*%
X39390000Y-145975000D02*
X38175000Y-145975000D01*
X36830000Y-158750000D02*
X31750000Y-163830000D01*
X36830000Y-147320000D02*
X36830000Y-158750000D01*
X38175000Y-145975000D02*
X36830000Y-147320000D01*
%TO.N,/SOUND/COL7*%
X25400000Y-175260000D02*
X25400000Y-144780000D01*
X25400000Y-144780000D02*
X31750000Y-138430000D01*
%TO.N,/SOUND/COL6*%
X21590000Y-140970000D02*
X31750000Y-130810000D01*
X21590000Y-173990000D02*
X21590000Y-140970000D01*
%TO.N,/SOUND/COL5*%
X22860000Y-172720000D02*
X22860000Y-142240000D01*
X22860000Y-142240000D02*
X31750000Y-133350000D01*
%TO.N,/SOUND/COL4*%
X24130000Y-171450000D02*
X24130000Y-143510000D01*
X24130000Y-143510000D02*
X31750000Y-135890000D01*
%TO.N,/SOUND/COL3*%
X20320000Y-139700000D02*
X31750000Y-128270000D01*
X20320000Y-170180000D02*
X20320000Y-139700000D01*
%TO.N,/SOUND/COL2*%
X26670000Y-146050000D02*
X31750000Y-140970000D01*
X26670000Y-168910000D02*
X26670000Y-146050000D01*
%TO.N,/SOUND/COL1*%
X27940000Y-167640000D02*
X27940000Y-147320000D01*
X27940000Y-147320000D02*
X31750000Y-143510000D01*
%TO.N,/SOUND/COL0*%
X29210000Y-177800000D02*
X29210000Y-148590000D01*
X29210000Y-148590000D02*
X31750000Y-146050000D01*
D49*
%TO.N,VCC*%
X342910000Y-92850000D02*
X340500000Y-92850000D01*
X135790000Y-130810000D02*
X135890000Y-130910000D01*
D50*
X123135000Y-203215000D02*
X123150000Y-203200000D01*
D49*
X132080000Y-130810000D02*
X135790000Y-130810000D01*
D50*
X245110000Y-82550000D02*
X241300000Y-86360000D01*
X383620000Y-162560000D02*
X384810000Y-163750000D01*
X191720000Y-200710000D02*
X191770000Y-200660000D01*
D49*
X132080000Y-146090000D02*
X135845000Y-146090000D01*
D50*
X191720000Y-204480000D02*
X191720000Y-200710000D01*
X229870000Y-95250000D02*
X236220000Y-95250000D01*
D49*
X383540000Y-152400000D02*
X386310000Y-155170000D01*
X360645000Y-116805000D02*
X360680000Y-116840000D01*
D50*
X292100000Y-204450000D02*
X292090000Y-204460000D01*
X236220000Y-95245000D02*
X237475000Y-93990000D01*
X26670000Y-96520000D02*
X25400000Y-96520000D01*
X17780000Y-102910000D02*
X22900000Y-102910000D01*
D49*
X132080000Y-115570000D02*
X129540000Y-118110000D01*
X339739436Y-84469436D02*
X340360000Y-85090000D01*
D50*
X27940000Y-97790000D02*
X26670000Y-96520000D01*
D49*
X128190000Y-76120000D02*
X128275000Y-76205000D01*
X184150000Y-114300000D02*
X184150000Y-118110000D01*
D50*
X241300000Y-92710000D02*
X240020000Y-93990000D01*
X260350000Y-200765000D02*
X260350000Y-204565000D01*
D49*
X340500000Y-92850000D02*
X340360000Y-92710000D01*
D50*
X54610000Y-114300000D02*
X54610000Y-118015000D01*
D49*
X340360000Y-92710000D02*
X340360000Y-97790000D01*
X114280000Y-140970000D02*
X114280000Y-139785000D01*
D50*
X245110000Y-81280000D02*
X245110000Y-82550000D01*
D49*
X132080000Y-115570000D02*
X135805000Y-115570000D01*
X386310000Y-162250000D02*
X384810000Y-163750000D01*
D50*
X340360000Y-86360000D02*
X349400000Y-86360000D01*
X349400000Y-86360000D02*
X350530000Y-85230000D01*
D49*
X199900001Y-71630001D02*
X201930000Y-73660000D01*
X314960000Y-107870000D02*
X308690000Y-107870000D01*
D50*
X157490000Y-203210000D02*
X157480000Y-203200000D01*
D49*
X129540000Y-128270000D02*
X115570000Y-128270000D01*
X340360000Y-86360000D02*
X340360000Y-92710000D01*
D50*
X378460000Y-162560000D02*
X383620000Y-162560000D01*
X375422500Y-163015000D02*
X378005000Y-163015000D01*
X405130000Y-92710000D02*
X402590000Y-95250000D01*
X22900000Y-102910000D02*
X24130000Y-104140000D01*
D49*
X341550000Y-107870000D02*
X314960000Y-107870000D01*
X128190000Y-72350000D02*
X128190000Y-76120000D01*
X175260000Y-72430000D02*
X176059999Y-71630001D01*
X129540000Y-128270000D02*
X132080000Y-130810000D01*
X345440000Y-144780000D02*
X345440000Y-147320000D01*
X340360000Y-106680000D02*
X341630000Y-107950000D01*
D50*
X276850000Y-200660000D02*
X276850000Y-204555000D01*
D49*
X129540000Y-118110000D02*
X129540000Y-128270000D01*
X341630000Y-107950000D02*
X359410000Y-107950000D01*
X391160000Y-97790000D02*
X383540000Y-97790000D01*
D50*
X241300000Y-86360000D02*
X241300000Y-92710000D01*
D49*
X175060000Y-72230000D02*
X175260000Y-72430000D01*
D50*
X393700000Y-95250000D02*
X391160000Y-97790000D01*
X402590000Y-95250000D02*
X393700000Y-95250000D01*
X271700000Y-113025000D02*
X271700000Y-118030000D01*
X123135000Y-207005000D02*
X123135000Y-203215000D01*
D49*
X383540000Y-130810000D02*
X383540000Y-152400000D01*
X386310000Y-155170000D02*
X386310000Y-162250000D01*
X370840000Y-81280000D02*
X383540000Y-81280000D01*
X115570000Y-128270000D02*
X114280000Y-129560000D01*
D50*
X54620000Y-207005000D02*
X54620000Y-203210000D01*
D49*
X171450000Y-72230000D02*
X175060000Y-72230000D01*
X341630000Y-107950000D02*
X341550000Y-107870000D01*
D50*
X27940000Y-100330000D02*
X27940000Y-97790000D01*
D49*
X383540000Y-81280000D02*
X383540000Y-78840000D01*
D50*
X292100000Y-200660000D02*
X292100000Y-204450000D01*
D49*
X370840000Y-90170000D02*
X370840000Y-81280000D01*
D50*
X229830000Y-204390000D02*
X229910000Y-204470000D01*
D49*
X114280000Y-139785000D02*
X110490000Y-135995000D01*
X308690000Y-107870000D02*
X308610000Y-107950000D01*
D50*
X236220000Y-95250000D02*
X236220000Y-95245000D01*
D49*
X360645000Y-111755000D02*
X360645000Y-116805000D01*
D50*
X271700000Y-118030000D02*
X271780000Y-118110000D01*
D49*
X135845000Y-146090000D02*
X135895000Y-146140000D01*
X337830000Y-84469436D02*
X339739436Y-84469436D01*
X114280000Y-129560000D02*
X114280000Y-140970000D01*
D50*
X228600000Y-93980000D02*
X227330000Y-93980000D01*
X205740000Y-77470000D02*
X201930000Y-77470000D01*
D49*
X360680000Y-116840000D02*
X360680000Y-119380000D01*
X340360000Y-97790000D02*
X340360000Y-106680000D01*
X360680000Y-90170000D02*
X370840000Y-90170000D01*
X135805000Y-115570000D02*
X135895000Y-115660000D01*
D50*
X405130000Y-90170000D02*
X405130000Y-92710000D01*
X54620000Y-203210000D02*
X54610000Y-203200000D01*
X320040000Y-149860000D02*
X330200000Y-149860000D01*
X227330000Y-93980000D02*
X226060000Y-95250000D01*
D49*
X383540000Y-97790000D02*
X383540000Y-81280000D01*
X340360000Y-85090000D02*
X340360000Y-86360000D01*
D50*
X299720000Y-78860000D02*
X304680000Y-78860000D01*
X378005000Y-163015000D02*
X378460000Y-162560000D01*
X226060000Y-95250000D02*
X226060000Y-97790000D01*
X157490000Y-207005000D02*
X157490000Y-203210000D01*
X229830000Y-200660000D02*
X229830000Y-204390000D01*
D49*
X345480000Y-97790000D02*
X340360000Y-97790000D01*
X372110000Y-130810000D02*
X383540000Y-130810000D01*
D50*
X54610000Y-118015000D02*
X54630000Y-118035000D01*
X24130000Y-104140000D02*
X27940000Y-100330000D01*
X276850000Y-204555000D02*
X276835000Y-204570000D01*
X240020000Y-93990000D02*
X237475000Y-93990000D01*
X228600000Y-93980000D02*
X229870000Y-95250000D01*
D49*
%TO.N,Net-(D3-Pad1)*%
X395430000Y-74640000D02*
X394970000Y-74180000D01*
X394970000Y-74180000D02*
X394970000Y-68680000D01*
D50*
%TO.N,Net-(D6-Pad2)*%
X398780000Y-97790000D02*
X402590000Y-97790000D01*
D49*
%TO.N,Net-(J9-Pad2)*%
X401320000Y-61060000D02*
X401320000Y-77470000D01*
X401320000Y-77470000D02*
X399350000Y-79440000D01*
X399350000Y-79440000D02*
X398230000Y-79440000D01*
D50*
%TO.N,/DEV_CS1*%
X45720000Y-118110000D02*
X45720000Y-71120000D01*
X260350000Y-222345000D02*
X260350000Y-231140000D01*
X40640000Y-229870000D02*
X40640000Y-168910000D01*
X41910000Y-121920000D02*
X45720000Y-118110000D01*
X41910000Y-167640000D02*
X41910000Y-121920000D01*
X40640000Y-168910000D02*
X41910000Y-167640000D01*
X45720000Y-71120000D02*
X40533000Y-65933000D01*
X40533000Y-65933000D02*
X40533000Y-39370000D01*
%TO.N,Net-(U12-Pad1)*%
X330210000Y-84469436D02*
X330210000Y-87009436D01*
%TO.N,Net-(J1-Pad1)*%
X394970000Y-164100000D02*
X394970000Y-186690000D01*
X397350000Y-161720000D02*
X394970000Y-164100000D01*
X393700000Y-187960000D02*
X389890000Y-187960000D01*
X394970000Y-186690000D02*
X393700000Y-187960000D01*
%TO.N,Net-(U26-Pad6)*%
X184100000Y-222260000D02*
X190440000Y-228600000D01*
X201930000Y-227330000D02*
X201930000Y-218440000D01*
X200660000Y-228600000D02*
X201930000Y-227330000D01*
X200680000Y-217190000D02*
X199470000Y-217190000D01*
X201930000Y-218440000D02*
X200680000Y-217190000D01*
X190440000Y-228600000D02*
X200660000Y-228600000D01*
%TO.N,Net-(U26-Pad9)*%
X180340000Y-231140000D02*
X205740000Y-231140000D01*
X205740000Y-231140000D02*
X207090000Y-229790000D01*
X176530000Y-212090000D02*
X176530000Y-227330000D01*
X207090000Y-229790000D02*
X207090000Y-222270000D01*
X176530000Y-227330000D02*
X180340000Y-231140000D01*
%TO.N,Net-(JP3-Pad2)*%
X175260000Y-204470000D02*
X175260000Y-229870000D01*
%TO.N,Net-(C34-Pad1)*%
X399360000Y-104140000D02*
X399360000Y-110640000D01*
%TO.N,Net-(C41-Pad1)*%
X387350000Y-180340000D02*
X387350000Y-187960000D01*
X382270000Y-180340000D02*
X387350000Y-180340000D01*
%TO.N,/INT_DEV4*%
X200755000Y-208285000D02*
X199470000Y-209570000D01*
X209645000Y-208285000D02*
X200755000Y-208285000D01*
X213455000Y-204475000D02*
X209645000Y-208285000D01*
%TO.N,/IO/Casette Interface/M2*%
X271780000Y-85170000D02*
X272970000Y-86360000D01*
X272970000Y-86360000D02*
X282220000Y-86360000D01*
X284480000Y-74930000D02*
X284480000Y-76200000D01*
X282220000Y-78460000D02*
X282220000Y-86360000D01*
X284480000Y-76200000D02*
X282220000Y-78460000D01*
%TO.N,/IO/Casette Interface/M1*%
X284480000Y-71120000D02*
X280670000Y-71120000D01*
X278720000Y-73070000D02*
X278720000Y-78860000D01*
X277410000Y-80170000D02*
X278720000Y-78860000D01*
X271780000Y-80170000D02*
X277410000Y-80170000D01*
X280670000Y-71120000D02*
X278720000Y-73070000D01*
%TO.N,Net-(C48-Pad1)*%
X182880000Y-80010000D02*
X182880000Y-77470000D01*
X185420000Y-74930000D02*
X204470000Y-74930000D01*
X182880000Y-80010000D02*
X182880000Y-90170000D01*
X210820000Y-74930000D02*
X213360000Y-77470000D01*
X213360000Y-92710000D02*
X213360000Y-77470000D01*
X204470000Y-74930000D02*
X210820000Y-74930000D01*
X182880000Y-77470000D02*
X185420000Y-74930000D01*
%TO.N,Net-(C51-Pad2)*%
X218440000Y-83820000D02*
X223440000Y-83820000D01*
X218440000Y-83820000D02*
X218440000Y-86360000D01*
X217170000Y-83820000D02*
X218440000Y-83820000D01*
X215900000Y-73660000D02*
X214180000Y-71940000D01*
X215900000Y-73660000D02*
X215900000Y-82550000D01*
X215900000Y-82550000D02*
X217170000Y-83820000D01*
X223440000Y-83820000D02*
X223520000Y-83740000D01*
%TO.N,Net-(D7-Pad1)*%
X299720000Y-86360000D02*
X304800000Y-86360000D01*
X290830000Y-90170000D02*
X298450000Y-90170000D01*
X298450000Y-90170000D02*
X299720000Y-88900000D01*
X299720000Y-88900000D02*
X299720000Y-86360000D01*
%TO.N,Net-(U25-Pad10)*%
X221170000Y-213510000D02*
X211030000Y-213510000D01*
X229910000Y-217170000D02*
X229910000Y-214630000D01*
X229910000Y-214630000D02*
X222290000Y-214630000D01*
X222290000Y-214630000D02*
X221170000Y-213510000D01*
X211030000Y-213510000D02*
X207090000Y-209570000D01*
%TO.N,Net-(R25-Pad2)*%
X190500000Y-80010000D02*
X194310000Y-80010000D01*
%TO.N,Net-(R26-Pad2)*%
X190500000Y-85090000D02*
X194310000Y-85090000D01*
%TO.N,Net-(R27-Pad2)*%
X190500000Y-90170000D02*
X194310000Y-90170000D01*
%TO.N,Net-(R28-Pad2)*%
X201930000Y-92710000D02*
X205740000Y-92710000D01*
%TO.N,Net-(R29-Pad2)*%
X201930000Y-87630000D02*
X205740000Y-87630000D01*
%TO.N,Net-(R30-Pad2)*%
X201930000Y-82550000D02*
X205740000Y-82550000D01*
%TO.N,Net-(R38-Pad1)*%
X223520000Y-86360000D02*
X228600000Y-86360000D01*
X233690000Y-91450000D02*
X237475000Y-91450000D01*
X228600000Y-86360000D02*
X233690000Y-91450000D01*
%TO.N,Net-(D10-Pad2)*%
X218440000Y-96520000D02*
X217170000Y-97790000D01*
X218440000Y-93980000D02*
X218440000Y-96520000D01*
X218440000Y-93980000D02*
X223520000Y-93980000D01*
X217170000Y-97790000D02*
X213360000Y-97790000D01*
%TO.N,/IO/Casette Interface/PC6*%
X189230000Y-99060000D02*
X189230000Y-83820000D01*
X190500000Y-82550000D02*
X194310000Y-82550000D01*
X189230000Y-83820000D02*
X190500000Y-82550000D01*
%TO.N,/IO/Casette Interface/PC5*%
X196850000Y-90170000D02*
X194310000Y-87630000D01*
X196850000Y-97790000D02*
X196850000Y-90170000D01*
%TO.N,/IO/Casette Interface/PC3*%
X196850000Y-85090000D02*
X201930000Y-85090000D01*
%TO.N,Net-(U25-Pad3)*%
X222290000Y-209550000D02*
X222290000Y-212090000D01*
%TO.N,Net-(JP3-Pad1)*%
X222290000Y-217170000D02*
X227330000Y-222210000D01*
X227330000Y-222210000D02*
X227330000Y-229870000D01*
%TO.N,Net-(U25-Pad12)*%
X231435000Y-211075000D02*
X231435000Y-218185000D01*
X231435000Y-218185000D02*
X229910000Y-219710000D01*
X229910000Y-207010000D02*
X229910000Y-209550000D01*
X229910000Y-209550000D02*
X231435000Y-211075000D01*
%TO.N,/RD*%
X191770000Y-134720000D02*
X191770000Y-193040000D01*
X195630000Y-130860000D02*
X191770000Y-134720000D01*
X283210000Y-144780000D02*
X271780000Y-133350000D01*
X80010000Y-100330000D02*
X80010000Y-193040000D01*
X74930000Y-95250000D02*
X80010000Y-100330000D01*
X120595000Y-193040000D02*
X120595000Y-212090000D01*
X283210000Y-189230000D02*
X283210000Y-144780000D01*
X360680000Y-189230000D02*
X360680000Y-165100000D01*
X74930000Y-93980000D02*
X74930000Y-95250000D01*
X120610000Y-212070000D02*
X115515000Y-217165000D01*
X311150000Y-189230000D02*
X311150000Y-165100000D01*
X76233000Y-49497000D02*
X76233000Y-39370000D01*
X74930000Y-93980000D02*
X74930000Y-50800000D01*
X74930000Y-50800000D02*
X76233000Y-49497000D01*
%TO.N,Net-(J8-Pad3)*%
X213360000Y-132080000D02*
X213365000Y-132080000D01*
X210870000Y-135940000D02*
X213360000Y-133450000D01*
X213360000Y-133450000D02*
X213360000Y-132080000D01*
X213365000Y-132080000D02*
X215900000Y-129545000D01*
%TO.N,Net-(J8-Pad5)*%
X213810000Y-130460000D02*
X213810000Y-126555000D01*
X210870000Y-133400000D02*
X213810000Y-130460000D01*
X213810000Y-126555000D02*
X215900000Y-124465000D01*
%TO.N,Net-(J8-Pad7)*%
X213360000Y-128370000D02*
X213360000Y-121925000D01*
X210870000Y-130860000D02*
X213360000Y-128370000D01*
X213360000Y-121925000D02*
X215900000Y-119385000D01*
%TO.N,Net-(D8-Pad1)*%
X292100000Y-71120000D02*
X292100000Y-74930000D01*
%TD*%
M02*
