%TF.GenerationSoftware,KiCad,Pcbnew,(6.0.6)*%
%TF.CreationDate,2022-08-03T12:05:02+02:00*%
%TF.ProjectId,Z80AllInOne,5a383041-6c6c-4496-9e4f-6e652e6b6963,rev?*%
%TF.SameCoordinates,Original*%
%TF.FileFunction,Soldermask,Top*%
%TF.FilePolarity,Negative*%
%FSLAX46Y46*%
G04 Gerber Fmt 4.6, Leading zero omitted, Abs format (unit mm)*
G04 Created by KiCad (PCBNEW (6.0.6)) date 2022-08-03 12:05:02*
%MOMM*%
%LPD*%
G01*
G04 APERTURE LIST*
G04 Aperture macros list*
%AMRoundRect*
0 Rectangle with rounded corners*
0 $1 Rounding radius*
0 $2 $3 $4 $5 $6 $7 $8 $9 X,Y pos of 4 corners*
0 Add a 4 corners polygon primitive as box body*
4,1,4,$2,$3,$4,$5,$6,$7,$8,$9,$2,$3,0*
0 Add four circle primitives for the rounded corners*
1,1,$1+$1,$2,$3*
1,1,$1+$1,$4,$5*
1,1,$1+$1,$6,$7*
1,1,$1+$1,$8,$9*
0 Add four rect primitives between the rounded corners*
20,1,$1+$1,$2,$3,$4,$5,0*
20,1,$1+$1,$4,$5,$6,$7,0*
20,1,$1+$1,$6,$7,$8,$9,0*
20,1,$1+$1,$8,$9,$2,$3,0*%
G04 Aperture macros list end*
%ADD10C,0.120000*%
%ADD11R,1.600000X1.600000*%
%ADD12O,1.600000X1.600000*%
%ADD13C,1.600000*%
%ADD14R,1.350000X1.350000*%
%ADD15O,1.350000X1.350000*%
%ADD16R,1.800000X1.800000*%
%ADD17C,1.800000*%
%ADD18R,2.000000X13.000000*%
%ADD19C,5.500000*%
%ADD20R,2.500000X2.500000*%
%ADD21O,2.500000X2.500000*%
%ADD22R,1.650000X13.000000*%
%ADD23C,4.000000*%
%ADD24C,2.400000*%
%ADD25R,2.400000X1.600000*%
%ADD26O,2.400000X1.600000*%
%ADD27O,3.200000X3.200000*%
%ADD28O,1.800000X1.800000*%
%ADD29R,1.700000X1.700000*%
%ADD30O,1.700000X1.700000*%
%ADD31R,3.000000X3.000000*%
%ADD32C,3.000000*%
%ADD33C,1.500000*%
%ADD34R,1.600000X2.400000*%
%ADD35O,1.600000X2.400000*%
%ADD36R,1.500000X1.050000*%
%ADD37O,1.500000X1.050000*%
%ADD38C,1.000000*%
%ADD39R,2.000000X0.500000*%
%ADD40R,1.700000X2.000000*%
%ADD41C,2.500000*%
%ADD42R,1.800000X4.400000*%
%ADD43O,1.800000X4.000000*%
%ADD44O,4.000000X1.800000*%
%ADD45R,1.750000X0.450000*%
%ADD46RoundRect,0.150000X0.150000X-0.587500X0.150000X0.587500X-0.150000X0.587500X-0.150000X-0.587500X0*%
%ADD47C,2.000000*%
%ADD48RoundRect,0.218750X0.218750X0.381250X-0.218750X0.381250X-0.218750X-0.381250X0.218750X-0.381250X0*%
%ADD49R,1.050000X1.500000*%
%ADD50O,1.050000X1.500000*%
G04 APERTURE END LIST*
D10*
%TO.C,J2*%
X154940000Y-31750000D02*
X131445000Y-31750000D01*
X154940000Y-45085000D02*
X154940000Y-31750000D01*
X131445000Y-31750000D02*
X131445000Y-45085000D01*
%TO.C,JE1*%
X32639000Y-32639000D02*
X32639000Y-46609000D01*
X85979000Y-32639000D02*
X32639000Y-32639000D01*
X85979000Y-46609000D02*
X85979000Y-32639000D01*
%TD*%
D11*
%TO.C,U27*%
X300355000Y-204470000D03*
D12*
X300355000Y-207010000D03*
X300355000Y-209550000D03*
X300355000Y-212090000D03*
X300355000Y-214630000D03*
X300355000Y-217170000D03*
X300355000Y-219710000D03*
X307975000Y-219710000D03*
X307975000Y-217170000D03*
X307975000Y-214630000D03*
X307975000Y-212090000D03*
X307975000Y-209550000D03*
X307975000Y-207010000D03*
X307975000Y-204470000D03*
%TD*%
D13*
%TO.C,R44*%
X393700000Y-232410000D03*
D12*
X393700000Y-222250000D03*
%TD*%
D13*
%TO.C,R43*%
X397510000Y-116840000D03*
D12*
X387350000Y-116840000D03*
%TD*%
D14*
%TO.C,J10*%
X386985000Y-196900000D03*
D15*
X388985000Y-196900000D03*
X386985000Y-198900000D03*
X388985000Y-198900000D03*
X386985000Y-200900000D03*
X388985000Y-200900000D03*
X386985000Y-202900000D03*
X388985000Y-202900000D03*
X386985000Y-204900000D03*
X388985000Y-204900000D03*
X386985000Y-206900000D03*
X388985000Y-206900000D03*
X386985000Y-208900000D03*
X388985000Y-208900000D03*
X386985000Y-210900000D03*
X388985000Y-210900000D03*
X386985000Y-212900000D03*
X388985000Y-212900000D03*
X386985000Y-214900000D03*
X388985000Y-214900000D03*
X386985000Y-216900000D03*
X388985000Y-216900000D03*
X386985000Y-218900000D03*
X388985000Y-218900000D03*
X386985000Y-220900000D03*
X388985000Y-220900000D03*
X386985000Y-222900000D03*
X388985000Y-222900000D03*
X386985000Y-224900000D03*
X388985000Y-224900000D03*
X386985000Y-226900000D03*
X388985000Y-226900000D03*
X386985000Y-228900000D03*
X388985000Y-228900000D03*
X386985000Y-230900000D03*
X388985000Y-230900000D03*
X386985000Y-232900000D03*
X388985000Y-232900000D03*
X386985000Y-234900000D03*
X388985000Y-234900000D03*
%TD*%
D16*
%TO.C,D11*%
X401950000Y-116840000D03*
D17*
X404490000Y-116840000D03*
%TD*%
D13*
%TO.C,C52*%
X302935000Y-200660000D03*
X307935000Y-200660000D03*
%TD*%
%TO.C,C6*%
X355645000Y-111755000D03*
X360645000Y-111755000D03*
%TD*%
%TO.C,R32*%
X194310000Y-44450000D03*
D12*
X186690000Y-44450000D03*
%TD*%
D18*
%TO.C,J2*%
X153035000Y-38735000D03*
X149225000Y-38735000D03*
X145415000Y-38735000D03*
X141605000Y-38735000D03*
X137795000Y-38735000D03*
X133985000Y-38735000D03*
%TD*%
D19*
%TO.C,*%
X195580000Y-54610000D03*
%TD*%
%TO.C,*%
X104140000Y-54610000D03*
%TD*%
D13*
%TO.C,R6*%
X95250000Y-63589062D03*
D12*
X95250000Y-71209062D03*
%TD*%
D19*
%TO.C,*%
X397510000Y-210820000D03*
%TD*%
%TO.C,*%
X22860000Y-54610000D03*
%TD*%
%TO.C,REF\u002A\u002A*%
X22860000Y-210820000D03*
%TD*%
D13*
%TO.C,C4*%
X314960000Y-102870000D03*
X314960000Y-107870000D03*
%TD*%
%TO.C,R21*%
X355600000Y-97790000D03*
D12*
X355600000Y-90170000D03*
%TD*%
D13*
%TO.C,C49*%
X198120000Y-50760000D03*
X198120000Y-45760000D03*
%TD*%
D20*
%TO.C,K1*%
X299720000Y-78860000D03*
D21*
X278720000Y-78860000D03*
X282220000Y-86360000D03*
X299720000Y-86360000D03*
%TD*%
D22*
%TO.C,JE1*%
X83883000Y-39370000D03*
X81333000Y-39370000D03*
X78783000Y-39370000D03*
X76233000Y-39370000D03*
X73683000Y-39370000D03*
X71133000Y-39370000D03*
X68583000Y-39370000D03*
X66033000Y-39370000D03*
X63483000Y-39370000D03*
X60933000Y-39370000D03*
X58383000Y-39370000D03*
X55833000Y-39370000D03*
X53283000Y-39370000D03*
X50733000Y-39370000D03*
X48183000Y-39370000D03*
X45633000Y-39370000D03*
X43083000Y-39370000D03*
X40533000Y-39370000D03*
X37983000Y-39370000D03*
X35433000Y-39370000D03*
%TD*%
D13*
%TO.C,R5*%
X91440000Y-63589062D03*
D12*
X91440000Y-71209062D03*
%TD*%
D13*
%TO.C,C32*%
X17780000Y-102910000D03*
X17780000Y-107910000D03*
%TD*%
%TO.C,R19*%
X165100000Y-67230000D03*
D12*
X154940000Y-67230000D03*
%TD*%
D23*
%TO.C,J3*%
X240650000Y-48940000D03*
X254650000Y-48940000D03*
D24*
X247650000Y-56210000D03*
%TD*%
D16*
%TO.C,D4*%
X402590000Y-90170000D03*
D17*
X405130000Y-90170000D03*
%TD*%
D13*
%TO.C,C38*%
X207065000Y-200665000D03*
X202065000Y-200665000D03*
%TD*%
D25*
%TO.C,U28*%
X184100000Y-204480000D03*
D26*
X184100000Y-207020000D03*
X184100000Y-209560000D03*
X184100000Y-212100000D03*
X184100000Y-214640000D03*
X184100000Y-217180000D03*
X184100000Y-219720000D03*
X184100000Y-222260000D03*
X184100000Y-224800000D03*
X184100000Y-227340000D03*
X191720000Y-227340000D03*
X191720000Y-224800000D03*
X191720000Y-222260000D03*
X191720000Y-219720000D03*
X191720000Y-217180000D03*
X191720000Y-214640000D03*
X191720000Y-212100000D03*
X191720000Y-209560000D03*
X191720000Y-207020000D03*
X191720000Y-204480000D03*
%TD*%
D13*
%TO.C,R38*%
X228600000Y-86360000D03*
D12*
X228600000Y-93980000D03*
%TD*%
D27*
%TO.C,U29*%
X381000000Y-49925000D03*
D16*
X378460000Y-61025000D03*
D28*
X381000000Y-61025000D03*
X383540000Y-61025000D03*
%TD*%
D11*
%TO.C,D10*%
X205740000Y-97790000D03*
D12*
X213360000Y-97790000D03*
%TD*%
D11*
%TO.C,D8*%
X292100000Y-71120000D03*
D12*
X284480000Y-71120000D03*
%TD*%
D11*
%TO.C,C19*%
X247650000Y-65957626D03*
D13*
X247650000Y-63457626D03*
%TD*%
D11*
%TO.C,U23*%
X342910000Y-85230000D03*
D12*
X342910000Y-87770000D03*
X342910000Y-90310000D03*
X342910000Y-92850000D03*
X350530000Y-92850000D03*
X350530000Y-90310000D03*
X350530000Y-87770000D03*
X350530000Y-85230000D03*
%TD*%
D13*
%TO.C,C37*%
X224830000Y-200660000D03*
X229830000Y-200660000D03*
%TD*%
%TO.C,R14*%
X39370000Y-91440000D03*
D12*
X29210000Y-91440000D03*
%TD*%
D11*
%TO.C,D5*%
X115570000Y-157480000D03*
D12*
X123190000Y-157480000D03*
%TD*%
D13*
%TO.C,R4*%
X87630000Y-63589062D03*
D12*
X87630000Y-71209062D03*
%TD*%
D25*
%TO.C,U26*%
X199470000Y-204490000D03*
D26*
X199470000Y-207030000D03*
X199470000Y-209570000D03*
X199470000Y-212110000D03*
X199470000Y-214650000D03*
X199470000Y-217190000D03*
X199470000Y-219730000D03*
X199470000Y-222270000D03*
X207090000Y-222270000D03*
X207090000Y-219730000D03*
X207090000Y-217190000D03*
X207090000Y-214650000D03*
X207090000Y-212110000D03*
X207090000Y-209570000D03*
X207090000Y-207030000D03*
X207090000Y-204490000D03*
%TD*%
D13*
%TO.C,R3*%
X325120000Y-149860000D03*
D12*
X325120000Y-157480000D03*
%TD*%
D25*
%TO.C,U2*%
X233680000Y-118110000D03*
D26*
X233680000Y-120650000D03*
X233680000Y-123190000D03*
X233680000Y-125730000D03*
X233680000Y-128270000D03*
X233680000Y-130810000D03*
X233680000Y-133350000D03*
X233680000Y-135890000D03*
X233680000Y-138430000D03*
X233680000Y-140970000D03*
X233680000Y-143510000D03*
X233680000Y-146050000D03*
X233680000Y-148590000D03*
X233680000Y-151130000D03*
X248920000Y-151130000D03*
X248920000Y-148590000D03*
X248920000Y-146050000D03*
X248920000Y-143510000D03*
X248920000Y-140970000D03*
X248920000Y-138430000D03*
X248920000Y-135890000D03*
X248920000Y-133350000D03*
X248920000Y-130810000D03*
X248920000Y-128270000D03*
X248920000Y-125730000D03*
X248920000Y-123190000D03*
X248920000Y-120650000D03*
X248920000Y-118110000D03*
%TD*%
D13*
%TO.C,C30*%
X29250000Y-86360000D03*
X34250000Y-86360000D03*
%TD*%
%TO.C,C31*%
X17860000Y-86360000D03*
X22860000Y-86360000D03*
%TD*%
D16*
%TO.C,D6*%
X405130000Y-97790000D03*
D17*
X402590000Y-97790000D03*
%TD*%
D13*
%TO.C,C34*%
X374650000Y-92750000D03*
X374650000Y-97750000D03*
%TD*%
D25*
%TO.C,U20*%
X47000000Y-207005000D03*
D26*
X47000000Y-209545000D03*
X47000000Y-212085000D03*
X47000000Y-214625000D03*
X47000000Y-217165000D03*
X47000000Y-219705000D03*
X47000000Y-222245000D03*
X54620000Y-222245000D03*
X54620000Y-219705000D03*
X54620000Y-217165000D03*
X54620000Y-214625000D03*
X54620000Y-212085000D03*
X54620000Y-209545000D03*
X54620000Y-207005000D03*
%TD*%
D13*
%TO.C,R29*%
X213360000Y-87630000D03*
D12*
X205740000Y-87630000D03*
%TD*%
D13*
%TO.C,C3*%
X266700000Y-113025000D03*
X271700000Y-113025000D03*
%TD*%
D25*
%TO.C,U3*%
X256540000Y-118110000D03*
D26*
X256540000Y-120650000D03*
X256540000Y-123190000D03*
X256540000Y-125730000D03*
X256540000Y-128270000D03*
X256540000Y-130810000D03*
X256540000Y-133350000D03*
X256540000Y-135890000D03*
X256540000Y-138430000D03*
X256540000Y-140970000D03*
X256540000Y-143510000D03*
X256540000Y-146050000D03*
X256540000Y-148590000D03*
X256540000Y-151130000D03*
X271780000Y-151130000D03*
X271780000Y-148590000D03*
X271780000Y-146050000D03*
X271780000Y-143510000D03*
X271780000Y-140970000D03*
X271780000Y-138430000D03*
X271780000Y-135890000D03*
X271780000Y-133350000D03*
X271780000Y-130810000D03*
X271780000Y-128270000D03*
X271780000Y-125730000D03*
X271780000Y-123190000D03*
X271780000Y-120650000D03*
X271780000Y-118110000D03*
%TD*%
D11*
%TO.C,U4*%
X92715000Y-91445000D03*
D12*
X95255000Y-91445000D03*
X97795000Y-91445000D03*
X100335000Y-91445000D03*
X102875000Y-91445000D03*
X105415000Y-91445000D03*
X107955000Y-91445000D03*
X110495000Y-91445000D03*
X113035000Y-91445000D03*
X115575000Y-91445000D03*
X118115000Y-91445000D03*
X120655000Y-91445000D03*
X123195000Y-91445000D03*
X125735000Y-91445000D03*
X128275000Y-91445000D03*
X130815000Y-91445000D03*
X133355000Y-91445000D03*
X135895000Y-91445000D03*
X138435000Y-91445000D03*
X140975000Y-91445000D03*
X140975000Y-76205000D03*
X138435000Y-76205000D03*
X135895000Y-76205000D03*
X133355000Y-76205000D03*
X130815000Y-76205000D03*
X128275000Y-76205000D03*
X125735000Y-76205000D03*
X123195000Y-76205000D03*
X120655000Y-76205000D03*
X118115000Y-76205000D03*
X115575000Y-76205000D03*
X113035000Y-76205000D03*
X110495000Y-76205000D03*
X107955000Y-76205000D03*
X105415000Y-76205000D03*
X102875000Y-76205000D03*
X100335000Y-76205000D03*
X97795000Y-76205000D03*
X95255000Y-76205000D03*
X92715000Y-76205000D03*
%TD*%
D16*
%TO.C,D3*%
X394970000Y-68680000D03*
D28*
X387350000Y-68680000D03*
%TD*%
D25*
%TO.C,U13*%
X269215000Y-204570000D03*
D26*
X269215000Y-207110000D03*
X269215000Y-209650000D03*
X269215000Y-212190000D03*
X269215000Y-214730000D03*
X269215000Y-217270000D03*
X269215000Y-219810000D03*
X276835000Y-219810000D03*
X276835000Y-217270000D03*
X276835000Y-214730000D03*
X276835000Y-212190000D03*
X276835000Y-209650000D03*
X276835000Y-207110000D03*
X276835000Y-204570000D03*
%TD*%
D13*
%TO.C,R24*%
X285750000Y-91440000D03*
D12*
X278130000Y-91440000D03*
%TD*%
D13*
%TO.C,C23*%
X127080000Y-130810000D03*
X132080000Y-130810000D03*
%TD*%
D25*
%TO.C,U19*%
X237475000Y-86370000D03*
D26*
X237475000Y-88910000D03*
X237475000Y-91450000D03*
X237475000Y-93990000D03*
X245095000Y-93990000D03*
X245095000Y-91450000D03*
X245095000Y-88910000D03*
X245095000Y-86370000D03*
%TD*%
D29*
%TO.C,JP2*%
X370855000Y-187960000D03*
D30*
X373395000Y-187960000D03*
X375935000Y-187960000D03*
%TD*%
D31*
%TO.C,J9*%
X401320000Y-55980000D03*
D32*
X401320000Y-61060000D03*
%TD*%
D13*
%TO.C,R36*%
X233680000Y-97790000D03*
D12*
X226060000Y-97790000D03*
%TD*%
D13*
%TO.C,R8*%
X180340000Y-38735000D03*
D12*
X180340000Y-46355000D03*
%TD*%
D13*
%TO.C,C29*%
X54610000Y-114300000D03*
X49610000Y-114300000D03*
%TD*%
D33*
%TO.C,Y2*%
X115510000Y-123010000D03*
X115510000Y-118110000D03*
%TD*%
D13*
%TO.C,C27*%
X292100000Y-200660000D03*
X287100000Y-200660000D03*
%TD*%
D34*
%TO.C,U9*%
X135890000Y-138530000D03*
D35*
X138430000Y-138530000D03*
X140970000Y-138530000D03*
X143510000Y-138530000D03*
X146050000Y-138530000D03*
X148590000Y-138530000D03*
X151130000Y-138530000D03*
X153670000Y-138530000D03*
X156210000Y-138530000D03*
X158750000Y-138530000D03*
X158750000Y-130910000D03*
X156210000Y-130910000D03*
X153670000Y-130910000D03*
X151130000Y-130910000D03*
X148590000Y-130910000D03*
X146050000Y-130910000D03*
X143510000Y-130910000D03*
X140970000Y-130910000D03*
X138430000Y-130910000D03*
X135890000Y-130910000D03*
%TD*%
D34*
%TO.C,U8*%
X135895000Y-123280000D03*
D35*
X138435000Y-123280000D03*
X140975000Y-123280000D03*
X143515000Y-123280000D03*
X146055000Y-123280000D03*
X148595000Y-123280000D03*
X151135000Y-123280000D03*
X153675000Y-123280000D03*
X156215000Y-123280000D03*
X158755000Y-123280000D03*
X158755000Y-115660000D03*
X156215000Y-115660000D03*
X153675000Y-115660000D03*
X151135000Y-115660000D03*
X148595000Y-115660000D03*
X146055000Y-115660000D03*
X143515000Y-115660000D03*
X140975000Y-115660000D03*
X138435000Y-115660000D03*
X135895000Y-115660000D03*
%TD*%
D13*
%TO.C,R28*%
X213360000Y-92710000D03*
D12*
X205740000Y-92710000D03*
%TD*%
D13*
%TO.C,R35*%
X233680000Y-93980000D03*
D12*
X233680000Y-86360000D03*
%TD*%
D29*
%TO.C,SPEAKER1*%
X31750000Y-67310000D03*
D30*
X29210000Y-67310000D03*
%TD*%
D11*
%TO.C,C42*%
X24130000Y-104140000D03*
D13*
X24130000Y-106140000D03*
%TD*%
%TO.C,R33*%
X186690000Y-48260000D03*
D12*
X194310000Y-48260000D03*
%TD*%
D13*
%TO.C,R10*%
X368012500Y-171550000D03*
D12*
X375632500Y-171550000D03*
%TD*%
D13*
%TO.C,C44*%
X375920000Y-78840000D03*
X378420000Y-78840000D03*
%TD*%
%TO.C,R37*%
X250190000Y-86360000D03*
D12*
X250190000Y-93980000D03*
%TD*%
D13*
%TO.C,R12*%
X29210000Y-99060000D03*
D12*
X39370000Y-99060000D03*
%TD*%
D25*
%TO.C,U12*%
X330210000Y-84469436D03*
D26*
X330210000Y-87009436D03*
X330210000Y-89549436D03*
X330210000Y-92089436D03*
X330210000Y-94629436D03*
X330210000Y-97169436D03*
X330210000Y-99709436D03*
X337830000Y-99709436D03*
X337830000Y-97169436D03*
X337830000Y-94629436D03*
X337830000Y-92089436D03*
X337830000Y-89549436D03*
X337830000Y-87009436D03*
X337830000Y-84469436D03*
%TD*%
D25*
%TO.C,U22*%
X17780000Y-91440000D03*
D26*
X17780000Y-93980000D03*
X17780000Y-96520000D03*
X17780000Y-99060000D03*
X25400000Y-99060000D03*
X25400000Y-96520000D03*
X25400000Y-93980000D03*
X25400000Y-91440000D03*
%TD*%
D13*
%TO.C,C26*%
X118150000Y-203200000D03*
X123150000Y-203200000D03*
%TD*%
%TO.C,R11*%
X391160000Y-97790000D03*
D12*
X398780000Y-97790000D03*
%TD*%
D13*
%TO.C,C35*%
X345480000Y-97790000D03*
X350480000Y-97790000D03*
%TD*%
%TO.C,C51*%
X223520000Y-78740000D03*
X223520000Y-83740000D03*
%TD*%
%TO.C,R7*%
X99060000Y-63589062D03*
D12*
X99060000Y-71209062D03*
%TD*%
D29*
%TO.C,J4*%
X372110000Y-130810000D03*
D30*
X372110000Y-133350000D03*
X372110000Y-135890000D03*
X372110000Y-138430000D03*
X372110000Y-140970000D03*
X372110000Y-143510000D03*
%TD*%
D13*
%TO.C,R2*%
X320040000Y-149860000D03*
D12*
X320040000Y-157480000D03*
%TD*%
D13*
%TO.C,R30*%
X213360000Y-82550000D03*
D12*
X205740000Y-82550000D03*
%TD*%
D34*
%TO.C,U10*%
X135895000Y-153760000D03*
D35*
X138435000Y-153760000D03*
X140975000Y-153760000D03*
X143515000Y-153760000D03*
X146055000Y-153760000D03*
X148595000Y-153760000D03*
X151135000Y-153760000D03*
X153675000Y-153760000D03*
X156215000Y-153760000D03*
X158755000Y-153760000D03*
X158755000Y-146140000D03*
X156215000Y-146140000D03*
X153675000Y-146140000D03*
X151135000Y-146140000D03*
X148595000Y-146140000D03*
X146055000Y-146140000D03*
X143515000Y-146140000D03*
X140975000Y-146140000D03*
X138435000Y-146140000D03*
X135895000Y-146140000D03*
%TD*%
D13*
%TO.C,C17*%
X125670000Y-118110000D03*
X120670000Y-118110000D03*
%TD*%
D29*
%TO.C,JP1*%
X389890000Y-187960000D03*
D30*
X387350000Y-187960000D03*
%TD*%
D25*
%TO.C,U18*%
X194310000Y-77470000D03*
D26*
X194310000Y-80010000D03*
X194310000Y-82550000D03*
X194310000Y-85090000D03*
X194310000Y-87630000D03*
X194310000Y-90170000D03*
X194310000Y-92710000D03*
X201930000Y-92710000D03*
X201930000Y-90170000D03*
X201930000Y-87630000D03*
X201930000Y-85090000D03*
X201930000Y-82550000D03*
X201930000Y-80010000D03*
X201930000Y-77470000D03*
%TD*%
D36*
%TO.C,Q3*%
X358140000Y-83820000D03*
D37*
X358140000Y-85090000D03*
X358140000Y-86360000D03*
%TD*%
D25*
%TO.C,U17*%
X149870000Y-207005000D03*
D26*
X149870000Y-209545000D03*
X149870000Y-212085000D03*
X149870000Y-214625000D03*
X149870000Y-217165000D03*
X149870000Y-219705000D03*
X149870000Y-222245000D03*
X157490000Y-222245000D03*
X157490000Y-219705000D03*
X157490000Y-217165000D03*
X157490000Y-214625000D03*
X157490000Y-212085000D03*
X157490000Y-209545000D03*
X157490000Y-207005000D03*
%TD*%
D11*
%TO.C,U5*%
X345440000Y-116840000D03*
D12*
X345440000Y-119380000D03*
X345440000Y-121920000D03*
X345440000Y-124460000D03*
X345440000Y-127000000D03*
X345440000Y-129540000D03*
X345440000Y-132080000D03*
X345440000Y-134620000D03*
X345440000Y-137160000D03*
X345440000Y-139700000D03*
X345440000Y-142240000D03*
X345440000Y-144780000D03*
X345440000Y-147320000D03*
X345440000Y-149860000D03*
X345440000Y-152400000D03*
X345440000Y-154940000D03*
X345440000Y-157480000D03*
X345440000Y-160020000D03*
X345440000Y-162560000D03*
X345440000Y-165100000D03*
X360680000Y-165100000D03*
X360680000Y-162560000D03*
X360680000Y-160020000D03*
X360680000Y-157480000D03*
X360680000Y-154940000D03*
X360680000Y-152400000D03*
X360680000Y-149860000D03*
X360680000Y-147320000D03*
X360680000Y-144780000D03*
X360680000Y-142240000D03*
X360680000Y-139700000D03*
X360680000Y-137160000D03*
X360680000Y-134620000D03*
X360680000Y-132080000D03*
X360680000Y-129540000D03*
X360680000Y-127000000D03*
X360680000Y-124460000D03*
X360680000Y-121920000D03*
X360680000Y-119380000D03*
X360680000Y-116840000D03*
%TD*%
D13*
%TO.C,R13*%
X29210000Y-95250000D03*
D12*
X39370000Y-95250000D03*
%TD*%
D25*
%TO.C,U24*%
X195630000Y-118160000D03*
D26*
X195630000Y-120700000D03*
X195630000Y-123240000D03*
X195630000Y-125780000D03*
X195630000Y-128320000D03*
X195630000Y-130860000D03*
X195630000Y-133400000D03*
X195630000Y-135940000D03*
X195630000Y-138480000D03*
X195630000Y-141020000D03*
X195630000Y-143560000D03*
X195630000Y-146100000D03*
X195630000Y-148640000D03*
X195630000Y-151180000D03*
X210870000Y-151180000D03*
X210870000Y-148640000D03*
X210870000Y-146100000D03*
X210870000Y-143560000D03*
X210870000Y-141020000D03*
X210870000Y-138480000D03*
X210870000Y-135940000D03*
X210870000Y-133400000D03*
X210870000Y-130860000D03*
X210870000Y-128320000D03*
X210870000Y-125780000D03*
X210870000Y-123240000D03*
X210870000Y-120700000D03*
X210870000Y-118160000D03*
%TD*%
D11*
%TO.C,C41*%
X387350000Y-180340000D03*
D13*
X389850000Y-180340000D03*
%TD*%
%TO.C,C46*%
X337820000Y-79394436D03*
X332820000Y-79394436D03*
%TD*%
D25*
%TO.C,U7*%
X95250000Y-118215000D03*
D26*
X95250000Y-120755000D03*
X95250000Y-123295000D03*
X95250000Y-125835000D03*
X95250000Y-128375000D03*
X95250000Y-130915000D03*
X95250000Y-133455000D03*
X95250000Y-135995000D03*
X95250000Y-138535000D03*
X95250000Y-141075000D03*
X95250000Y-143615000D03*
X95250000Y-146155000D03*
X95250000Y-148695000D03*
X95250000Y-151235000D03*
X95250000Y-153775000D03*
X95250000Y-156315000D03*
X95250000Y-158855000D03*
X95250000Y-161395000D03*
X95250000Y-163935000D03*
X95250000Y-166475000D03*
X110490000Y-166475000D03*
X110490000Y-163935000D03*
X110490000Y-161395000D03*
X110490000Y-158855000D03*
X110490000Y-156315000D03*
X110490000Y-153775000D03*
X110490000Y-151235000D03*
X110490000Y-148695000D03*
X110490000Y-146155000D03*
X110490000Y-143615000D03*
X110490000Y-141075000D03*
X110490000Y-138535000D03*
X110490000Y-135995000D03*
X110490000Y-133455000D03*
X110490000Y-130915000D03*
X110490000Y-128375000D03*
X110490000Y-125835000D03*
X110490000Y-123295000D03*
X110490000Y-120755000D03*
X110490000Y-118215000D03*
%TD*%
D13*
%TO.C,C24*%
X179150000Y-114300000D03*
X184150000Y-114300000D03*
%TD*%
D38*
%TO.C,J1*%
X400050000Y-157920000D03*
X400050000Y-162320000D03*
D39*
X397350000Y-161720000D03*
X397350000Y-160920000D03*
X397350000Y-160120000D03*
X397350000Y-159320000D03*
X397350000Y-158520000D03*
D40*
X402900000Y-164570000D03*
X397450000Y-155670000D03*
X397450000Y-164570000D03*
X402900000Y-155670000D03*
%TD*%
D13*
%TO.C,C20*%
X114280000Y-140970000D03*
X119280000Y-140970000D03*
%TD*%
%TO.C,C45*%
X383540000Y-78840000D03*
X386040000Y-78840000D03*
%TD*%
%TO.C,R40*%
X218440000Y-93980000D03*
D12*
X218440000Y-86360000D03*
%TD*%
D36*
%TO.C,Q4*%
X290830000Y-90170000D03*
D37*
X290830000Y-91440000D03*
X290830000Y-92710000D03*
%TD*%
D13*
%TO.C,C5*%
X123190000Y-72350000D03*
X128190000Y-72350000D03*
%TD*%
D41*
%TO.C,J6*%
X202050000Y-44910000D03*
X209550000Y-44910000D03*
X217050000Y-44910000D03*
X204550000Y-47410000D03*
X214550000Y-47410000D03*
X214550000Y-34910000D03*
X204550000Y-34910000D03*
%TD*%
D13*
%TO.C,R42*%
X195580000Y-154940000D03*
D12*
X195580000Y-162560000D03*
%TD*%
D13*
%TO.C,C2*%
X243920000Y-113025000D03*
X248920000Y-113025000D03*
%TD*%
%TO.C,C1*%
X288290000Y-142160000D03*
X288290000Y-137160000D03*
%TD*%
%TO.C,C39*%
X207010000Y-114300000D03*
X202010000Y-114300000D03*
%TD*%
D42*
%TO.C,JP5*%
X392430000Y-79440000D03*
D43*
X398230000Y-79440000D03*
D44*
X395430000Y-74640000D03*
%TD*%
D13*
%TO.C,C47*%
X271780000Y-85170000D03*
X271780000Y-80170000D03*
%TD*%
%TO.C,R39*%
X223520000Y-86360000D03*
D12*
X223520000Y-93980000D03*
%TD*%
D13*
%TO.C,C48*%
X191770000Y-52070000D03*
X186770000Y-52070000D03*
%TD*%
%TO.C,C22*%
X132080000Y-151090000D03*
X132080000Y-146090000D03*
%TD*%
D11*
%TO.C,C36*%
X346710000Y-79394436D03*
D13*
X344210000Y-79394436D03*
%TD*%
D29*
%TO.C,J5*%
X31750000Y-106680000D03*
D30*
X31750000Y-109220000D03*
X31750000Y-111760000D03*
%TD*%
D13*
%TO.C,C21*%
X132080000Y-115570000D03*
X132080000Y-120570000D03*
%TD*%
D25*
%TO.C,U21*%
X39390000Y-118035000D03*
D26*
X39390000Y-120575000D03*
X39390000Y-123115000D03*
X39390000Y-125655000D03*
X39390000Y-128195000D03*
X39390000Y-130735000D03*
X39390000Y-133275000D03*
X39390000Y-135815000D03*
X39390000Y-138355000D03*
X39390000Y-140895000D03*
X39390000Y-143435000D03*
X39390000Y-145975000D03*
X39390000Y-148515000D03*
X39390000Y-151055000D03*
X39390000Y-153595000D03*
X39390000Y-156135000D03*
X39390000Y-158675000D03*
X39390000Y-161215000D03*
X39390000Y-163755000D03*
X39390000Y-166295000D03*
X54630000Y-166295000D03*
X54630000Y-163755000D03*
X54630000Y-161215000D03*
X54630000Y-158675000D03*
X54630000Y-156135000D03*
X54630000Y-153595000D03*
X54630000Y-151055000D03*
X54630000Y-148515000D03*
X54630000Y-145975000D03*
X54630000Y-143435000D03*
X54630000Y-140895000D03*
X54630000Y-138355000D03*
X54630000Y-135815000D03*
X54630000Y-133275000D03*
X54630000Y-130735000D03*
X54630000Y-128195000D03*
X54630000Y-125655000D03*
X54630000Y-123115000D03*
X54630000Y-120575000D03*
X54630000Y-118035000D03*
%TD*%
D13*
%TO.C,R25*%
X182880000Y-80010000D03*
D12*
X190500000Y-80010000D03*
%TD*%
D13*
%TO.C,R18*%
X165100000Y-72310000D03*
D12*
X154940000Y-72310000D03*
%TD*%
D45*
%TO.C,U6*%
X368222500Y-157165000D03*
X368222500Y-157815000D03*
X368222500Y-158465000D03*
X368222500Y-159115000D03*
X368222500Y-159765000D03*
X368222500Y-160415000D03*
X368222500Y-161065000D03*
X368222500Y-161715000D03*
X368222500Y-162365000D03*
X368222500Y-163015000D03*
X368222500Y-163665000D03*
X368222500Y-164315000D03*
X368222500Y-164965000D03*
X368222500Y-165615000D03*
X375422500Y-165615000D03*
X375422500Y-164965000D03*
X375422500Y-164315000D03*
X375422500Y-163665000D03*
X375422500Y-163015000D03*
X375422500Y-162365000D03*
X375422500Y-161715000D03*
X375422500Y-161065000D03*
X375422500Y-160415000D03*
X375422500Y-159765000D03*
X375422500Y-159115000D03*
X375422500Y-158465000D03*
X375422500Y-157815000D03*
X375422500Y-157165000D03*
%TD*%
D46*
%TO.C,Q1*%
X373700000Y-180007500D03*
X375600000Y-180007500D03*
X374650000Y-178132500D03*
%TD*%
D13*
%TO.C,C28*%
X49610000Y-203200000D03*
X54610000Y-203200000D03*
%TD*%
%TO.C,C12*%
X392430000Y-162660000D03*
X389930000Y-162660000D03*
%TD*%
%TO.C,C9*%
X381000000Y-163830000D03*
X381000000Y-158830000D03*
%TD*%
%TO.C,R27*%
X182880000Y-90170000D03*
D12*
X190500000Y-90170000D03*
%TD*%
D13*
%TO.C,C15*%
X260350000Y-200765000D03*
X255350000Y-200765000D03*
%TD*%
%TO.C,R41*%
X218440000Y-76200000D03*
D12*
X218440000Y-83820000D03*
%TD*%
D29*
%TO.C,JP3*%
X227330000Y-229870000D03*
D30*
X224790000Y-229870000D03*
%TD*%
D17*
%TO.C,D1*%
X180340000Y-36195000D03*
D16*
X180340000Y-33655000D03*
%TD*%
D13*
%TO.C,C40*%
X191770000Y-200660000D03*
X186770000Y-200660000D03*
%TD*%
%TO.C,C11*%
X392390000Y-156210000D03*
X389890000Y-156210000D03*
%TD*%
%TO.C,R34*%
X237490000Y-81280000D03*
D12*
X245110000Y-81280000D03*
%TD*%
D13*
%TO.C,R1*%
X330200000Y-149860000D03*
D12*
X330200000Y-157480000D03*
%TD*%
D13*
%TO.C,R22*%
X360680000Y-90170000D03*
D12*
X360680000Y-97790000D03*
%TD*%
D29*
%TO.C,JP4*%
X43165000Y-109215000D03*
D30*
X43165000Y-111755000D03*
X40625000Y-109215000D03*
X40625000Y-111755000D03*
X38085000Y-109215000D03*
X38085000Y-111755000D03*
%TD*%
D11*
%TO.C,U15*%
X284470000Y-204460000D03*
D12*
X284470000Y-207000000D03*
X284470000Y-209540000D03*
X284470000Y-212080000D03*
X284470000Y-214620000D03*
X284470000Y-217160000D03*
X284470000Y-219700000D03*
X284470000Y-222240000D03*
X292090000Y-222240000D03*
X292090000Y-219700000D03*
X292090000Y-217160000D03*
X292090000Y-214620000D03*
X292090000Y-212080000D03*
X292090000Y-209540000D03*
X292090000Y-207000000D03*
X292090000Y-204460000D03*
%TD*%
D13*
%TO.C,C33*%
X21590000Y-76200000D03*
X16590000Y-76200000D03*
%TD*%
%TO.C,R20*%
X365760000Y-90170000D03*
D12*
X365760000Y-97790000D03*
%TD*%
D13*
%TO.C,R23*%
X391160000Y-90170000D03*
D12*
X398780000Y-90170000D03*
%TD*%
D11*
%TO.C,D7*%
X304800000Y-86360000D03*
D12*
X304800000Y-78740000D03*
%TD*%
D25*
%TO.C,U1*%
X295910000Y-116840000D03*
D26*
X295910000Y-119380000D03*
X295910000Y-121920000D03*
X295910000Y-124460000D03*
X295910000Y-127000000D03*
X295910000Y-129540000D03*
X295910000Y-132080000D03*
X295910000Y-134620000D03*
X295910000Y-137160000D03*
X295910000Y-139700000D03*
X295910000Y-142240000D03*
X295910000Y-144780000D03*
X295910000Y-147320000D03*
X295910000Y-149860000D03*
X295910000Y-152400000D03*
X295910000Y-154940000D03*
X295910000Y-157480000D03*
X295910000Y-160020000D03*
X295910000Y-162560000D03*
X295910000Y-165100000D03*
X311150000Y-165100000D03*
X311150000Y-162560000D03*
X311150000Y-160020000D03*
X311150000Y-157480000D03*
X311150000Y-154940000D03*
X311150000Y-152400000D03*
X311150000Y-149860000D03*
X311150000Y-147320000D03*
X311150000Y-144780000D03*
X311150000Y-142240000D03*
X311150000Y-139700000D03*
X311150000Y-137160000D03*
X311150000Y-134620000D03*
X311150000Y-132080000D03*
X311150000Y-129540000D03*
X311150000Y-127000000D03*
X311150000Y-124460000D03*
X311150000Y-121920000D03*
X311150000Y-119380000D03*
X311150000Y-116840000D03*
%TD*%
D29*
%TO.C,J7*%
X31750000Y-118110000D03*
D30*
X31750000Y-120650000D03*
X31750000Y-123190000D03*
X31750000Y-125730000D03*
X31750000Y-128270000D03*
X31750000Y-130810000D03*
X31750000Y-133350000D03*
X31750000Y-135890000D03*
X31750000Y-138430000D03*
X31750000Y-140970000D03*
X31750000Y-143510000D03*
X31750000Y-146050000D03*
X31750000Y-148590000D03*
X31750000Y-151130000D03*
X31750000Y-153670000D03*
X31750000Y-156210000D03*
X31750000Y-158750000D03*
X31750000Y-161290000D03*
X31750000Y-163830000D03*
X31750000Y-166370000D03*
%TD*%
D11*
%TO.C,RN1*%
X213455000Y-222255000D03*
D12*
X213455000Y-219715000D03*
X213455000Y-217175000D03*
X213455000Y-214635000D03*
X213455000Y-212095000D03*
X213455000Y-209555000D03*
X213455000Y-207015000D03*
X213455000Y-204475000D03*
X213455000Y-201935000D03*
%TD*%
D13*
%TO.C,R15*%
X26670000Y-81280000D03*
D12*
X16510000Y-81280000D03*
%TD*%
D13*
%TO.C,C7*%
X373380000Y-182880000D03*
X370880000Y-182880000D03*
%TD*%
%TO.C,R26*%
X182880000Y-85090000D03*
D12*
X190500000Y-85090000D03*
%TD*%
D25*
%TO.C,U16*%
X115515000Y-207005000D03*
D26*
X115515000Y-209545000D03*
X115515000Y-212085000D03*
X115515000Y-214625000D03*
X115515000Y-217165000D03*
X115515000Y-219705000D03*
X115515000Y-222245000D03*
X123135000Y-222245000D03*
X123135000Y-219705000D03*
X123135000Y-217165000D03*
X123135000Y-214625000D03*
X123135000Y-212085000D03*
X123135000Y-209545000D03*
X123135000Y-207005000D03*
%TD*%
D13*
%TO.C,R16*%
X370840000Y-90170000D03*
D12*
X370840000Y-97790000D03*
%TD*%
D25*
%TO.C,U14*%
X252730000Y-204565000D03*
D26*
X252730000Y-207105000D03*
X252730000Y-209645000D03*
X252730000Y-212185000D03*
X252730000Y-214725000D03*
X252730000Y-217265000D03*
X252730000Y-219805000D03*
X252730000Y-222345000D03*
X260350000Y-222345000D03*
X260350000Y-219805000D03*
X260350000Y-217265000D03*
X260350000Y-214725000D03*
X260350000Y-212185000D03*
X260350000Y-209645000D03*
X260350000Y-207105000D03*
X260350000Y-204565000D03*
%TD*%
D11*
%TO.C,D9*%
X292100000Y-74930000D03*
D12*
X284480000Y-74930000D03*
%TD*%
D47*
%TO.C,SW2*%
X403860000Y-110640000D03*
X403860000Y-104140000D03*
X399360000Y-110640000D03*
X399360000Y-104140000D03*
%TD*%
D13*
%TO.C,C14*%
X276850000Y-200660000D03*
X271850000Y-200660000D03*
%TD*%
%TO.C,C16*%
X125630000Y-123190000D03*
X120630000Y-123190000D03*
%TD*%
D11*
%TO.C,C43*%
X21590000Y-69850000D03*
D13*
X21590000Y-67350000D03*
%TD*%
D48*
%TO.C,FB1*%
X382270000Y-180340000D03*
X380145000Y-180340000D03*
%TD*%
D29*
%TO.C,J8*%
X215900000Y-134625000D03*
D30*
X215900000Y-132085000D03*
X215900000Y-129545000D03*
X215900000Y-127005000D03*
X215900000Y-124465000D03*
X215900000Y-121925000D03*
X215900000Y-119385000D03*
%TD*%
D13*
%TO.C,C18*%
X175260000Y-77430000D03*
X175260000Y-72430000D03*
%TD*%
%TO.C,C13*%
X402590000Y-170180000D03*
X400090000Y-170180000D03*
%TD*%
D11*
%TO.C,X1*%
X308610000Y-100330000D03*
D13*
X300990000Y-100330000D03*
X300990000Y-107950000D03*
X308610000Y-107950000D03*
%TD*%
%TO.C,R17*%
X165100000Y-77390000D03*
D12*
X154940000Y-77390000D03*
%TD*%
D25*
%TO.C,U25*%
X222290000Y-204470000D03*
D26*
X222290000Y-207010000D03*
X222290000Y-209550000D03*
X222290000Y-212090000D03*
X222290000Y-214630000D03*
X222290000Y-217170000D03*
X222290000Y-219710000D03*
X229910000Y-219710000D03*
X229910000Y-217170000D03*
X229910000Y-214630000D03*
X229910000Y-212090000D03*
X229910000Y-209550000D03*
X229910000Y-207010000D03*
X229910000Y-204470000D03*
%TD*%
D13*
%TO.C,C50*%
X201930000Y-73660000D03*
X196930000Y-73660000D03*
%TD*%
%TO.C,C25*%
X152480000Y-203200000D03*
X157480000Y-203200000D03*
%TD*%
%TO.C,C8*%
X368300000Y-180340000D03*
X368300000Y-177840000D03*
%TD*%
%TO.C,R31*%
X205740000Y-77470000D03*
D12*
X213360000Y-77470000D03*
%TD*%
D25*
%TO.C,U11*%
X168910000Y-118110000D03*
D26*
X168910000Y-120650000D03*
X168910000Y-123190000D03*
X168910000Y-125730000D03*
X168910000Y-128270000D03*
X168910000Y-130810000D03*
X168910000Y-133350000D03*
X168910000Y-135890000D03*
X168910000Y-138430000D03*
X168910000Y-140970000D03*
X168910000Y-143510000D03*
X168910000Y-146050000D03*
X168910000Y-148590000D03*
X168910000Y-151130000D03*
X184150000Y-151130000D03*
X184150000Y-148590000D03*
X184150000Y-146050000D03*
X184150000Y-143510000D03*
X184150000Y-140970000D03*
X184150000Y-138430000D03*
X184150000Y-135890000D03*
X184150000Y-133350000D03*
X184150000Y-130810000D03*
X184150000Y-128270000D03*
X184150000Y-125730000D03*
X184150000Y-123190000D03*
X184150000Y-120650000D03*
X184150000Y-118110000D03*
%TD*%
D49*
%TO.C,Q2*%
X168910000Y-72230000D03*
D50*
X170180000Y-72230000D03*
X171450000Y-72230000D03*
%TD*%
D16*
%TO.C,D2*%
X173355000Y-33655000D03*
D17*
X173355000Y-36195000D03*
%TD*%
D13*
%TO.C,C10*%
X384810000Y-158750000D03*
X384810000Y-163750000D03*
%TD*%
D34*
%TO.C,SW1*%
X87640000Y-58420000D03*
D35*
X90180000Y-58420000D03*
X92720000Y-58420000D03*
X95260000Y-58420000D03*
X95260000Y-50800000D03*
X92720000Y-50800000D03*
X90180000Y-50800000D03*
X87640000Y-50800000D03*
%TD*%
D13*
%TO.C,R9*%
X173355000Y-38735000D03*
D12*
X173355000Y-46355000D03*
%TD*%
M02*
