%TF.GenerationSoftware,KiCad,Pcbnew,(6.0.6)*%
%TF.CreationDate,2022-08-03T12:05:02+02:00*%
%TF.ProjectId,Z80AllInOne,5a383041-6c6c-4496-9e4f-6e652e6b6963,rev?*%
%TF.SameCoordinates,Original*%
%TF.FileFunction,Copper,L3,Inr*%
%TF.FilePolarity,Positive*%
%FSLAX46Y46*%
G04 Gerber Fmt 4.6, Leading zero omitted, Abs format (unit mm)*
G04 Created by KiCad (PCBNEW (6.0.6)) date 2022-08-03 12:05:02*
%MOMM*%
%LPD*%
G01*
G04 APERTURE LIST*
%TA.AperFunction,ComponentPad*%
%ADD10R,1.600000X1.600000*%
%TD*%
%TA.AperFunction,ComponentPad*%
%ADD11O,1.600000X1.600000*%
%TD*%
%TA.AperFunction,ComponentPad*%
%ADD12C,1.600000*%
%TD*%
%TA.AperFunction,ComponentPad*%
%ADD13R,1.350000X1.350000*%
%TD*%
%TA.AperFunction,ComponentPad*%
%ADD14O,1.350000X1.350000*%
%TD*%
%TA.AperFunction,ComponentPad*%
%ADD15R,1.800000X1.800000*%
%TD*%
%TA.AperFunction,ComponentPad*%
%ADD16C,1.800000*%
%TD*%
%TA.AperFunction,ComponentPad*%
%ADD17C,5.500000*%
%TD*%
%TA.AperFunction,ComponentPad*%
%ADD18R,2.500000X2.500000*%
%TD*%
%TA.AperFunction,ComponentPad*%
%ADD19O,2.500000X2.500000*%
%TD*%
%TA.AperFunction,ComponentPad*%
%ADD20C,4.000000*%
%TD*%
%TA.AperFunction,ComponentPad*%
%ADD21C,2.400000*%
%TD*%
%TA.AperFunction,ComponentPad*%
%ADD22R,2.400000X1.600000*%
%TD*%
%TA.AperFunction,ComponentPad*%
%ADD23O,2.400000X1.600000*%
%TD*%
%TA.AperFunction,ComponentPad*%
%ADD24O,1.800000X1.800000*%
%TD*%
%TA.AperFunction,ComponentPad*%
%ADD25R,1.700000X1.700000*%
%TD*%
%TA.AperFunction,ComponentPad*%
%ADD26O,1.700000X1.700000*%
%TD*%
%TA.AperFunction,ComponentPad*%
%ADD27R,3.000000X3.000000*%
%TD*%
%TA.AperFunction,ComponentPad*%
%ADD28C,3.000000*%
%TD*%
%TA.AperFunction,ComponentPad*%
%ADD29C,1.500000*%
%TD*%
%TA.AperFunction,ComponentPad*%
%ADD30R,1.600000X2.400000*%
%TD*%
%TA.AperFunction,ComponentPad*%
%ADD31O,1.600000X2.400000*%
%TD*%
%TA.AperFunction,ComponentPad*%
%ADD32R,1.500000X1.050000*%
%TD*%
%TA.AperFunction,ComponentPad*%
%ADD33O,1.500000X1.050000*%
%TD*%
%TA.AperFunction,ComponentPad*%
%ADD34C,2.500000*%
%TD*%
%TA.AperFunction,ComponentPad*%
%ADD35R,1.800000X4.400000*%
%TD*%
%TA.AperFunction,ComponentPad*%
%ADD36O,1.800000X4.000000*%
%TD*%
%TA.AperFunction,ComponentPad*%
%ADD37O,4.000000X1.800000*%
%TD*%
%TA.AperFunction,ComponentPad*%
%ADD38C,2.000000*%
%TD*%
%TA.AperFunction,ComponentPad*%
%ADD39R,1.050000X1.500000*%
%TD*%
%TA.AperFunction,ComponentPad*%
%ADD40O,1.050000X1.500000*%
%TD*%
%TA.AperFunction,ViaPad*%
%ADD41C,0.800000*%
%TD*%
G04 APERTURE END LIST*
D10*
%TO.N,/WR*%
%TO.C,U27*%
X300355000Y-204470000D03*
D11*
X300355000Y-207010000D03*
%TO.N,Net-(U27-Pad13)*%
X300355000Y-209550000D03*
%TO.N,/IORQ*%
X300355000Y-212090000D03*
X300355000Y-214630000D03*
%TO.N,Net-(U27-Pad10)*%
X300355000Y-217170000D03*
%TO.N,GND*%
X300355000Y-219710000D03*
%TO.N,/IORD*%
X307975000Y-219710000D03*
%TO.N,Net-(U13-Pad8)*%
X307975000Y-217170000D03*
%TO.N,Net-(U27-Pad10)*%
X307975000Y-214630000D03*
%TO.N,/IOWR*%
X307975000Y-212090000D03*
%TO.N,Net-(U27-Pad10)*%
X307975000Y-209550000D03*
%TO.N,Net-(U27-Pad13)*%
X307975000Y-207010000D03*
%TO.N,VCC*%
X307975000Y-204470000D03*
%TD*%
D12*
%TO.N,Net-(J10-Pad38)*%
%TO.C,R44*%
X393700000Y-232410000D03*
D11*
%TO.N,VCC*%
X393700000Y-222250000D03*
%TD*%
D12*
%TO.N,Net-(D11-Pad1)*%
%TO.C,R43*%
X397510000Y-116840000D03*
D11*
%TO.N,Net-(J10-Pad39)*%
X387350000Y-116840000D03*
%TD*%
D13*
%TO.N,/MR*%
%TO.C,J10*%
X386985000Y-196900000D03*
D14*
%TO.N,GND*%
X388985000Y-196900000D03*
%TO.N,/BUS Expansion/D7*%
X386985000Y-198900000D03*
%TO.N,unconnected-(J10-Pad4)*%
X388985000Y-198900000D03*
%TO.N,/BUS Expansion/D6*%
X386985000Y-200900000D03*
%TO.N,unconnected-(J10-Pad6)*%
X388985000Y-200900000D03*
%TO.N,/BUS Expansion/D5*%
X386985000Y-202900000D03*
%TO.N,unconnected-(J10-Pad8)*%
X388985000Y-202900000D03*
%TO.N,/BUS Expansion/D4*%
X386985000Y-204900000D03*
%TO.N,unconnected-(J10-Pad10)*%
X388985000Y-204900000D03*
%TO.N,/BUS Expansion/D3*%
X386985000Y-206900000D03*
%TO.N,unconnected-(J10-Pad12)*%
X388985000Y-206900000D03*
%TO.N,/BUS Expansion/D2*%
X386985000Y-208900000D03*
%TO.N,unconnected-(J10-Pad14)*%
X388985000Y-208900000D03*
%TO.N,/BUS Expansion/D1*%
X386985000Y-210900000D03*
%TO.N,unconnected-(J10-Pad16)*%
X388985000Y-210900000D03*
%TO.N,/BUS Expansion/D0*%
X386985000Y-212900000D03*
%TO.N,unconnected-(J10-Pad18)*%
X388985000Y-212900000D03*
%TO.N,GND*%
X386985000Y-214900000D03*
%TO.N,VCC*%
X388985000Y-214900000D03*
%TO.N,unconnected-(J10-Pad21)*%
X386985000Y-216900000D03*
%TO.N,GND*%
X388985000Y-216900000D03*
%TO.N,/IOWR*%
X386985000Y-218900000D03*
%TO.N,GND*%
X388985000Y-218900000D03*
%TO.N,/IORD*%
X386985000Y-220900000D03*
%TO.N,GND*%
X388985000Y-220900000D03*
%TO.N,unconnected-(J10-Pad27)*%
X386985000Y-222900000D03*
%TO.N,unconnected-(J10-Pad28)*%
X388985000Y-222900000D03*
%TO.N,unconnected-(J10-Pad29)*%
X386985000Y-224900000D03*
%TO.N,GND*%
X388985000Y-224900000D03*
%TO.N,unconnected-(J10-Pad31)*%
X386985000Y-226900000D03*
%TO.N,unconnected-(J10-Pad32)*%
X388985000Y-226900000D03*
%TO.N,/IO/A1*%
X386985000Y-228900000D03*
%TO.N,unconnected-(J10-Pad34)*%
X388985000Y-228900000D03*
%TO.N,/IO/A0*%
X386985000Y-230900000D03*
%TO.N,/IO/A2*%
X388985000Y-230900000D03*
%TO.N,/CF_CE*%
X386985000Y-232900000D03*
%TO.N,Net-(J10-Pad38)*%
X388985000Y-232900000D03*
%TO.N,Net-(J10-Pad39)*%
X386985000Y-234900000D03*
%TO.N,GND*%
X388985000Y-234900000D03*
%TD*%
D15*
%TO.N,Net-(D11-Pad1)*%
%TO.C,D11*%
X401950000Y-116840000D03*
D16*
%TO.N,VCC*%
X404490000Y-116840000D03*
%TD*%
D12*
%TO.N,GND*%
%TO.C,C52*%
X302935000Y-200660000D03*
%TO.N,VCC*%
X307935000Y-200660000D03*
%TD*%
%TO.N,GND*%
%TO.C,C6*%
X355645000Y-111755000D03*
%TO.N,VCC*%
X360645000Y-111755000D03*
%TD*%
%TO.N,Net-(C49-Pad1)*%
%TO.C,R32*%
X194310000Y-44450000D03*
D11*
%TO.N,Net-(C48-Pad1)*%
X186690000Y-44450000D03*
%TD*%
D17*
%TO.N,GND*%
%TO.C,*%
X195580000Y-54610000D03*
%TD*%
%TO.N,GND*%
%TO.C,*%
X104140000Y-54610000D03*
%TD*%
D12*
%TO.N,Net-(R6-Pad1)*%
%TO.C,R6*%
X95250000Y-63589062D03*
D11*
%TO.N,GND*%
X95250000Y-71209062D03*
%TD*%
D17*
%TO.N,GND*%
%TO.C,*%
X397510000Y-210820000D03*
%TD*%
%TO.N,GND*%
%TO.C,*%
X22860000Y-54610000D03*
%TD*%
%TO.N,GND*%
%TO.C,REF\u002A\u002A*%
X22860000Y-210820000D03*
%TD*%
D12*
%TO.N,GND*%
%TO.C,C4*%
X314960000Y-102870000D03*
%TO.N,VCC*%
X314960000Y-107870000D03*
%TD*%
%TO.N,/{slash}RESET*%
%TO.C,R21*%
X355600000Y-97790000D03*
D11*
%TO.N,Net-(Q3-Pad2)*%
X355600000Y-90170000D03*
%TD*%
D12*
%TO.N,Net-(C49-Pad1)*%
%TO.C,C49*%
X198120000Y-50760000D03*
%TO.N,GND*%
X198120000Y-45760000D03*
%TD*%
D18*
%TO.N,VCC*%
%TO.C,K1*%
X299720000Y-78860000D03*
D19*
%TO.N,/IO/Casette Interface/M1*%
X278720000Y-78860000D03*
%TO.N,/IO/Casette Interface/M2*%
X282220000Y-86360000D03*
%TO.N,Net-(D7-Pad1)*%
X299720000Y-86360000D03*
%TD*%
D12*
%TO.N,Net-(R5-Pad1)*%
%TO.C,R5*%
X91440000Y-63589062D03*
D11*
%TO.N,GND*%
X91440000Y-71209062D03*
%TD*%
D12*
%TO.N,VCC*%
%TO.C,C32*%
X17780000Y-102910000D03*
%TO.N,GND*%
X17780000Y-107910000D03*
%TD*%
%TO.N,Net-(C19-Pad1)*%
%TO.C,R19*%
X165100000Y-67230000D03*
D11*
%TO.N,Net-(Q2-Pad1)*%
X154940000Y-67230000D03*
%TD*%
D20*
%TO.N,N/C*%
%TO.C,J3*%
X240650000Y-48940000D03*
%TO.N,GND*%
X254650000Y-48940000D03*
D21*
%TO.N,Net-(C19-Pad2)*%
X247650000Y-56210000D03*
%TD*%
D15*
%TO.N,Net-(D4-Pad1)*%
%TO.C,D4*%
X402590000Y-90170000D03*
D16*
%TO.N,VCC*%
X405130000Y-90170000D03*
%TD*%
D12*
%TO.N,VCC*%
%TO.C,C38*%
X207065000Y-200665000D03*
%TO.N,GND*%
X202065000Y-200665000D03*
%TD*%
D22*
%TO.N,Net-(JP3-Pad2)*%
%TO.C,U28*%
X184100000Y-204480000D03*
D23*
%TO.N,/BUS Expansion/D0*%
X184100000Y-207020000D03*
%TO.N,GND*%
X184100000Y-209560000D03*
%TO.N,Net-(U26-Pad9)*%
X184100000Y-212100000D03*
%TO.N,/BUS Expansion/D1*%
X184100000Y-214640000D03*
%TO.N,/BUS Expansion/D2*%
X184100000Y-217180000D03*
%TO.N,Net-(U26-Pad7)*%
X184100000Y-219720000D03*
%TO.N,Net-(U26-Pad6)*%
X184100000Y-222260000D03*
%TO.N,/BUS Expansion/D3*%
X184100000Y-224800000D03*
%TO.N,GND*%
X184100000Y-227340000D03*
%TO.N,/M1*%
X191720000Y-227340000D03*
%TO.N,/BUS Expansion/D4*%
X191720000Y-224800000D03*
%TO.N,GND*%
X191720000Y-222260000D03*
X191720000Y-219720000D03*
%TO.N,/BUS Expansion/D5*%
X191720000Y-217180000D03*
%TO.N,/BUS Expansion/D6*%
X191720000Y-214640000D03*
%TO.N,GND*%
X191720000Y-212100000D03*
X191720000Y-209560000D03*
%TO.N,/BUS Expansion/D7*%
X191720000Y-207020000D03*
%TO.N,VCC*%
X191720000Y-204480000D03*
%TD*%
D12*
%TO.N,Net-(R38-Pad1)*%
%TO.C,R38*%
X228600000Y-86360000D03*
D11*
%TO.N,VCC*%
X228600000Y-93980000D03*
%TD*%
D15*
%TO.N,Net-(C44-Pad1)*%
%TO.C,U29*%
X378460000Y-61025000D03*
D24*
%TO.N,GND*%
X381000000Y-61025000D03*
%TO.N,VCC*%
X383540000Y-61025000D03*
%TD*%
D10*
%TO.N,GND*%
%TO.C,D10*%
X205740000Y-97790000D03*
D11*
%TO.N,Net-(D10-Pad2)*%
X213360000Y-97790000D03*
%TD*%
D10*
%TO.N,Net-(D8-Pad1)*%
%TO.C,D8*%
X292100000Y-71120000D03*
D11*
%TO.N,/IO/Casette Interface/M1*%
X284480000Y-71120000D03*
%TD*%
D10*
%TO.N,Net-(C19-Pad1)*%
%TO.C,C19*%
X247650000Y-65957626D03*
D12*
%TO.N,Net-(C19-Pad2)*%
X247650000Y-63457626D03*
%TD*%
D10*
%TO.N,GND*%
%TO.C,U23*%
X342910000Y-85230000D03*
D11*
%TO.N,Net-(C34-Pad1)*%
X342910000Y-87770000D03*
%TO.N,Net-(U12-Pad1)*%
X342910000Y-90310000D03*
%TO.N,VCC*%
X342910000Y-92850000D03*
%TO.N,unconnected-(U23-Pad5)*%
X350530000Y-92850000D03*
%TO.N,Net-(C36-Pad1)*%
X350530000Y-90310000D03*
X350530000Y-87770000D03*
%TO.N,VCC*%
X350530000Y-85230000D03*
%TD*%
D12*
%TO.N,GND*%
%TO.C,C37*%
X224830000Y-200660000D03*
%TO.N,VCC*%
X229830000Y-200660000D03*
%TD*%
%TO.N,GND*%
%TO.C,R14*%
X39370000Y-91440000D03*
D11*
%TO.N,Net-(C30-Pad1)*%
X29210000Y-91440000D03*
%TD*%
D10*
%TO.N,Net-(D5-Pad1)*%
%TO.C,D5*%
X115570000Y-157480000D03*
D11*
%TO.N,/VDP_INT*%
X123190000Y-157480000D03*
%TD*%
D12*
%TO.N,Net-(R4-Pad1)*%
%TO.C,R4*%
X87630000Y-63589062D03*
D11*
%TO.N,GND*%
X87630000Y-71209062D03*
%TD*%
D22*
%TO.N,/INT_DEV2*%
%TO.C,U26*%
X199470000Y-204490000D03*
D23*
%TO.N,/INT_DEV3*%
X199470000Y-207030000D03*
%TO.N,/INT_DEV4*%
X199470000Y-209570000D03*
%TO.N,/INT_DEV5*%
X199470000Y-212110000D03*
%TO.N,GND*%
X199470000Y-214650000D03*
%TO.N,Net-(U26-Pad6)*%
X199470000Y-217190000D03*
%TO.N,Net-(U26-Pad7)*%
X199470000Y-219730000D03*
%TO.N,GND*%
X199470000Y-222270000D03*
%TO.N,Net-(U26-Pad9)*%
X207090000Y-222270000D03*
%TO.N,/CTC_INT*%
X207090000Y-219730000D03*
%TO.N,/UART_INT*%
X207090000Y-217190000D03*
%TO.N,/VDP_INT*%
X207090000Y-214650000D03*
%TO.N,/INT_DEV1*%
X207090000Y-212110000D03*
%TO.N,Net-(U25-Pad10)*%
X207090000Y-209570000D03*
%TO.N,unconnected-(U26-Pad15)*%
X207090000Y-207030000D03*
%TO.N,VCC*%
X207090000Y-204490000D03*
%TD*%
D12*
%TO.N,VCC*%
%TO.C,R3*%
X325120000Y-149860000D03*
D11*
%TO.N,/BUSRQ*%
X325120000Y-157480000D03*
%TD*%
D22*
%TO.N,/IO/A14*%
%TO.C,U2*%
X233680000Y-118110000D03*
D23*
%TO.N,/IO/A12*%
X233680000Y-120650000D03*
%TO.N,/IO/A7*%
X233680000Y-123190000D03*
%TO.N,/IO/A6*%
X233680000Y-125730000D03*
%TO.N,/IO/A5*%
X233680000Y-128270000D03*
%TO.N,/IO/A4*%
X233680000Y-130810000D03*
%TO.N,/IO/A3*%
X233680000Y-133350000D03*
%TO.N,/IO/A2*%
X233680000Y-135890000D03*
%TO.N,/IO/A1*%
X233680000Y-138430000D03*
%TO.N,/IO/A0*%
X233680000Y-140970000D03*
%TO.N,/BUS Expansion/D0*%
X233680000Y-143510000D03*
%TO.N,/BUS Expansion/D1*%
X233680000Y-146050000D03*
%TO.N,/BUS Expansion/D2*%
X233680000Y-148590000D03*
%TO.N,GND*%
X233680000Y-151130000D03*
%TO.N,/BUS Expansion/D3*%
X248920000Y-151130000D03*
%TO.N,/BUS Expansion/D4*%
X248920000Y-148590000D03*
%TO.N,/BUS Expansion/D5*%
X248920000Y-146050000D03*
%TO.N,/BUS Expansion/D6*%
X248920000Y-143510000D03*
%TO.N,/BUS Expansion/D7*%
X248920000Y-140970000D03*
%TO.N,/ROM_CE*%
X248920000Y-138430000D03*
%TO.N,/IO/A10*%
X248920000Y-135890000D03*
%TO.N,/RD*%
X248920000Y-133350000D03*
%TO.N,/IO/A11*%
X248920000Y-130810000D03*
%TO.N,/IO/A9*%
X248920000Y-128270000D03*
%TO.N,/IO/A8*%
X248920000Y-125730000D03*
%TO.N,/IO/A13*%
X248920000Y-123190000D03*
%TO.N,/WR*%
X248920000Y-120650000D03*
%TO.N,VCC*%
X248920000Y-118110000D03*
%TD*%
D12*
%TO.N,Net-(C30-Pad1)*%
%TO.C,C30*%
X29250000Y-86360000D03*
%TO.N,GND*%
X34250000Y-86360000D03*
%TD*%
%TO.N,Net-(C31-Pad1)*%
%TO.C,C31*%
X17860000Y-86360000D03*
%TO.N,Net-(C30-Pad1)*%
X22860000Y-86360000D03*
%TD*%
D15*
%TO.N,GND*%
%TO.C,D6*%
X405130000Y-97790000D03*
D16*
%TO.N,Net-(D6-Pad2)*%
X402590000Y-97790000D03*
%TD*%
D12*
%TO.N,GND*%
%TO.C,C34*%
X374650000Y-92750000D03*
%TO.N,Net-(C34-Pad1)*%
X374650000Y-97750000D03*
%TD*%
D22*
%TO.N,Net-(U20-Pad1)*%
%TO.C,U20*%
X47000000Y-207005000D03*
D23*
%TO.N,/IO/A0*%
X47000000Y-209545000D03*
%TO.N,/PSG_CE*%
X47000000Y-212085000D03*
%TO.N,Net-(U20-Pad4)*%
X47000000Y-214625000D03*
%TO.N,/PSG_CE*%
X47000000Y-217165000D03*
%TO.N,/WR*%
X47000000Y-219705000D03*
%TO.N,GND*%
X47000000Y-222245000D03*
%TO.N,N/C*%
X54620000Y-222245000D03*
X54620000Y-219705000D03*
X54620000Y-217165000D03*
X54620000Y-214625000D03*
X54620000Y-212085000D03*
X54620000Y-209545000D03*
%TO.N,VCC*%
X54620000Y-207005000D03*
%TD*%
D12*
%TO.N,Net-(C48-Pad1)*%
%TO.C,R29*%
X213360000Y-87630000D03*
D11*
%TO.N,Net-(R29-Pad2)*%
X205740000Y-87630000D03*
%TD*%
D12*
%TO.N,GND*%
%TO.C,C3*%
X266700000Y-113025000D03*
%TO.N,VCC*%
X271700000Y-113025000D03*
%TD*%
D22*
%TO.N,/IO/A14*%
%TO.C,U3*%
X256540000Y-118110000D03*
D23*
%TO.N,/IO/A12*%
X256540000Y-120650000D03*
%TO.N,/IO/A7*%
X256540000Y-123190000D03*
%TO.N,/IO/A6*%
X256540000Y-125730000D03*
%TO.N,/IO/A5*%
X256540000Y-128270000D03*
%TO.N,/IO/A4*%
X256540000Y-130810000D03*
%TO.N,/IO/A3*%
X256540000Y-133350000D03*
%TO.N,/IO/A2*%
X256540000Y-135890000D03*
%TO.N,/IO/A1*%
X256540000Y-138430000D03*
%TO.N,/IO/A0*%
X256540000Y-140970000D03*
%TO.N,/BUS Expansion/D0*%
X256540000Y-143510000D03*
%TO.N,/BUS Expansion/D1*%
X256540000Y-146050000D03*
%TO.N,/BUS Expansion/D2*%
X256540000Y-148590000D03*
%TO.N,GND*%
X256540000Y-151130000D03*
%TO.N,/BUS Expansion/D3*%
X271780000Y-151130000D03*
%TO.N,/BUS Expansion/D4*%
X271780000Y-148590000D03*
%TO.N,/BUS Expansion/D5*%
X271780000Y-146050000D03*
%TO.N,/BUS Expansion/D6*%
X271780000Y-143510000D03*
%TO.N,/BUS Expansion/D7*%
X271780000Y-140970000D03*
%TO.N,/RAM_CE*%
X271780000Y-138430000D03*
%TO.N,/IO/A10*%
X271780000Y-135890000D03*
%TO.N,/RD*%
X271780000Y-133350000D03*
%TO.N,/IO/A11*%
X271780000Y-130810000D03*
%TO.N,/IO/A9*%
X271780000Y-128270000D03*
%TO.N,/IO/A8*%
X271780000Y-125730000D03*
%TO.N,/IO/A13*%
X271780000Y-123190000D03*
%TO.N,VCC*%
X271780000Y-120650000D03*
X271780000Y-118110000D03*
%TD*%
D10*
%TO.N,Net-(R7-Pad1)*%
%TO.C,U4*%
X92715000Y-91445000D03*
D11*
%TO.N,Net-(R6-Pad1)*%
X95255000Y-91445000D03*
%TO.N,Net-(R5-Pad1)*%
X97795000Y-91445000D03*
%TO.N,Net-(R4-Pad1)*%
X100335000Y-91445000D03*
%TO.N,/RD*%
X102875000Y-91445000D03*
%TO.N,/PPI_CE*%
X105415000Y-91445000D03*
%TO.N,GND*%
X107955000Y-91445000D03*
%TO.N,/IO/A1*%
X110495000Y-91445000D03*
%TO.N,/IO/A0*%
X113035000Y-91445000D03*
%TO.N,/IO/Casette Interface/PC7*%
X115575000Y-91445000D03*
%TO.N,/IO/Casette Interface/PC6*%
X118115000Y-91445000D03*
%TO.N,/IO/Casette Interface/PC5*%
X120655000Y-91445000D03*
%TO.N,/IO/Casette Interface/PC4*%
X123195000Y-91445000D03*
%TO.N,/IO/PC0*%
X125735000Y-91445000D03*
%TO.N,/IO/PC1*%
X128275000Y-91445000D03*
%TO.N,/IO/Casette Interface/PC2*%
X130815000Y-91445000D03*
%TO.N,/IO/Casette Interface/PC3*%
X133355000Y-91445000D03*
%TO.N,/IO/PB0*%
X135895000Y-91445000D03*
%TO.N,/IO/PB1*%
X138435000Y-91445000D03*
%TO.N,/IO/PB2*%
X140975000Y-91445000D03*
%TO.N,/IO/PB3*%
X140975000Y-76205000D03*
%TO.N,/IO/PB4*%
X138435000Y-76205000D03*
%TO.N,/IO/PB5*%
X135895000Y-76205000D03*
%TO.N,/IO/PB6*%
X133355000Y-76205000D03*
%TO.N,/IO/PB7*%
X130815000Y-76205000D03*
%TO.N,VCC*%
X128275000Y-76205000D03*
%TO.N,/BUS Expansion/D7*%
X125735000Y-76205000D03*
%TO.N,/BUS Expansion/D6*%
X123195000Y-76205000D03*
%TO.N,/BUS Expansion/D5*%
X120655000Y-76205000D03*
%TO.N,/BUS Expansion/D4*%
X118115000Y-76205000D03*
%TO.N,/BUS Expansion/D3*%
X115575000Y-76205000D03*
%TO.N,/BUS Expansion/D2*%
X113035000Y-76205000D03*
%TO.N,/BUS Expansion/D1*%
X110495000Y-76205000D03*
%TO.N,/BUS Expansion/D0*%
X107955000Y-76205000D03*
%TO.N,/RESET_IO*%
X105415000Y-76205000D03*
%TO.N,/WR*%
X102875000Y-76205000D03*
%TO.N,/IO/PA7*%
X100335000Y-76205000D03*
%TO.N,/IO/PA6*%
X97795000Y-76205000D03*
%TO.N,/IO/PA5*%
X95255000Y-76205000D03*
%TO.N,/IO/PA4*%
X92715000Y-76205000D03*
%TD*%
D15*
%TO.N,Net-(D3-Pad1)*%
%TO.C,D3*%
X394970000Y-68680000D03*
D24*
%TO.N,Net-(C44-Pad1)*%
X387350000Y-68680000D03*
%TD*%
D22*
%TO.N,/IO/A8*%
%TO.C,U13*%
X269215000Y-204570000D03*
D23*
X269215000Y-207110000D03*
%TO.N,Net-(U13-Pad3)*%
X269215000Y-209650000D03*
%TO.N,/{slash}RESET*%
X269215000Y-212190000D03*
X269215000Y-214730000D03*
%TO.N,/MR*%
X269215000Y-217270000D03*
%TO.N,GND*%
X269215000Y-219810000D03*
%TO.N,Net-(U13-Pad8)*%
X276835000Y-219810000D03*
%TO.N,/RD*%
X276835000Y-217270000D03*
X276835000Y-214730000D03*
%TO.N,/UART_INT*%
X276835000Y-212190000D03*
%TO.N,Net-(U13-Pad12)*%
X276835000Y-209650000D03*
X276835000Y-207110000D03*
%TO.N,VCC*%
X276835000Y-204570000D03*
%TD*%
D12*
%TO.N,Net-(Q4-Pad2)*%
%TO.C,R24*%
X285750000Y-91440000D03*
D11*
%TO.N,/IO/PA7*%
X278130000Y-91440000D03*
%TD*%
D12*
%TO.N,GND*%
%TO.C,C23*%
X127080000Y-130810000D03*
%TO.N,VCC*%
X132080000Y-130810000D03*
%TD*%
D22*
%TO.N,/IO/PA6*%
%TO.C,U19*%
X237475000Y-86370000D03*
D23*
%TO.N,Net-(R35-Pad1)*%
X237475000Y-88910000D03*
%TO.N,Net-(R38-Pad1)*%
X237475000Y-91450000D03*
%TO.N,VCC*%
X237475000Y-93990000D03*
%TO.N,N/C*%
X245095000Y-93990000D03*
X245095000Y-91450000D03*
X245095000Y-88910000D03*
%TO.N,GND*%
X245095000Y-86370000D03*
%TD*%
D25*
%TO.N,Net-(C7-Pad2)*%
%TO.C,JP2*%
X370855000Y-187960000D03*
D26*
%TO.N,VCC*%
X373395000Y-187960000D03*
%TO.N,Net-(FB1-Pad2)*%
X375935000Y-187960000D03*
%TD*%
D27*
%TO.N,GND*%
%TO.C,J9*%
X401320000Y-55980000D03*
D28*
%TO.N,Net-(J9-Pad2)*%
X401320000Y-61060000D03*
%TD*%
D12*
%TO.N,Net-(R35-Pad1)*%
%TO.C,R36*%
X233680000Y-97790000D03*
D11*
%TO.N,VCC*%
X226060000Y-97790000D03*
%TD*%
D12*
%TO.N,Net-(D1-Pad2)*%
%TO.C,R8*%
X180340000Y-38735000D03*
D11*
%TO.N,/IO/PC1*%
X180340000Y-46355000D03*
%TD*%
D12*
%TO.N,VCC*%
%TO.C,C29*%
X54610000Y-114300000D03*
%TO.N,GND*%
X49610000Y-114300000D03*
%TD*%
D29*
%TO.N,Net-(C16-Pad2)*%
%TO.C,Y2*%
X115510000Y-123010000D03*
%TO.N,Net-(C17-Pad2)*%
X115510000Y-118110000D03*
%TD*%
D12*
%TO.N,VCC*%
%TO.C,C27*%
X292100000Y-200660000D03*
%TO.N,GND*%
X287100000Y-200660000D03*
%TD*%
D30*
%TO.N,GND*%
%TO.C,U9*%
X135890000Y-138530000D03*
D31*
%TO.N,/VIDEO/AD0*%
X138430000Y-138530000D03*
%TO.N,/VIDEO/AD1*%
X140970000Y-138530000D03*
%TO.N,/VIDEO/AD2*%
X143510000Y-138530000D03*
%TO.N,/VIDEO/AD3*%
X146050000Y-138530000D03*
%TO.N,/VIDEO/AD4*%
X148590000Y-138530000D03*
%TO.N,/VIDEO/AD5*%
X151130000Y-138530000D03*
%TO.N,/VIDEO/AD6*%
X153670000Y-138530000D03*
%TO.N,/VIDEO/AD7*%
X156210000Y-138530000D03*
%TO.N,GND*%
X158750000Y-138530000D03*
%TO.N,Net-(U17-Pad6)*%
X158750000Y-130910000D03*
%TO.N,/VIDEO/VA13*%
X156210000Y-130910000D03*
%TO.N,/VIDEO/VA12*%
X153670000Y-130910000D03*
%TO.N,/VIDEO/VA11*%
X151130000Y-130910000D03*
%TO.N,/VIDEO/VA10*%
X148590000Y-130910000D03*
%TO.N,/VIDEO/VA9*%
X146050000Y-130910000D03*
%TO.N,/VIDEO/VA8*%
X143510000Y-130910000D03*
%TO.N,/VIDEO/VA7*%
X140970000Y-130910000D03*
%TO.N,unconnected-(U9-Pad19)*%
X138430000Y-130910000D03*
%TO.N,VCC*%
X135890000Y-130910000D03*
%TD*%
D30*
%TO.N,GND*%
%TO.C,U8*%
X135895000Y-123280000D03*
D31*
%TO.N,/VIDEO/AD0*%
X138435000Y-123280000D03*
%TO.N,/VIDEO/AD1*%
X140975000Y-123280000D03*
%TO.N,/VIDEO/AD2*%
X143515000Y-123280000D03*
%TO.N,/VIDEO/AD3*%
X146055000Y-123280000D03*
%TO.N,/VIDEO/AD4*%
X148595000Y-123280000D03*
%TO.N,/VIDEO/AD5*%
X151135000Y-123280000D03*
%TO.N,/VIDEO/AD6*%
X153675000Y-123280000D03*
%TO.N,/VIDEO/AD7*%
X156215000Y-123280000D03*
%TO.N,GND*%
X158755000Y-123280000D03*
%TO.N,Net-(U17-Pad2)*%
X158755000Y-115660000D03*
%TO.N,/VIDEO/VA6*%
X156215000Y-115660000D03*
%TO.N,/VIDEO/VA5*%
X153675000Y-115660000D03*
%TO.N,/VIDEO/VA4*%
X151135000Y-115660000D03*
%TO.N,/VIDEO/VA3*%
X148595000Y-115660000D03*
%TO.N,/VIDEO/VA2*%
X146055000Y-115660000D03*
%TO.N,/VIDEO/VA1*%
X143515000Y-115660000D03*
%TO.N,/VIDEO/VA0*%
X140975000Y-115660000D03*
%TO.N,unconnected-(U8-Pad19)*%
X138435000Y-115660000D03*
%TO.N,VCC*%
X135895000Y-115660000D03*
%TD*%
D12*
%TO.N,Net-(C48-Pad1)*%
%TO.C,R28*%
X213360000Y-92710000D03*
D11*
%TO.N,Net-(R28-Pad2)*%
X205740000Y-92710000D03*
%TD*%
D12*
%TO.N,Net-(R35-Pad1)*%
%TO.C,R35*%
X233680000Y-93980000D03*
D11*
%TO.N,/IO/PA6*%
X233680000Y-86360000D03*
%TD*%
D25*
%TO.N,GND*%
%TO.C,SPEAKER1*%
X31750000Y-67310000D03*
D26*
%TO.N,Net-(C43-Pad2)*%
X29210000Y-67310000D03*
%TD*%
D10*
%TO.N,VCC*%
%TO.C,C42*%
X24130000Y-104140000D03*
D12*
%TO.N,GND*%
X24130000Y-106140000D03*
%TD*%
%TO.N,GND*%
%TO.C,R33*%
X186690000Y-48260000D03*
D11*
%TO.N,Net-(C49-Pad1)*%
X194310000Y-48260000D03*
%TD*%
D12*
%TO.N,Net-(R10-Pad1)*%
%TO.C,R10*%
X368012500Y-171550000D03*
D11*
%TO.N,Net-(C8-Pad1)*%
X375632500Y-171550000D03*
%TD*%
D12*
%TO.N,Net-(C44-Pad1)*%
%TO.C,C44*%
X375920000Y-78840000D03*
%TO.N,GND*%
X378420000Y-78840000D03*
%TD*%
%TO.N,GND*%
%TO.C,R37*%
X250190000Y-86360000D03*
D11*
%TO.N,Net-(R35-Pad1)*%
X250190000Y-93980000D03*
%TD*%
D12*
%TO.N,GND*%
%TO.C,R12*%
X29210000Y-99060000D03*
D11*
%TO.N,Net-(JP4-Pad1)*%
X39370000Y-99060000D03*
%TD*%
D22*
%TO.N,Net-(U12-Pad1)*%
%TO.C,U12*%
X330210000Y-84469436D03*
D23*
X330210000Y-87009436D03*
%TO.N,/{slash}RESET*%
X330210000Y-89549436D03*
X330210000Y-92089436D03*
X330210000Y-94629436D03*
%TO.N,/RESET_IO*%
X330210000Y-97169436D03*
%TO.N,GND*%
X330210000Y-99709436D03*
%TO.N,N/C*%
X337830000Y-99709436D03*
X337830000Y-97169436D03*
X337830000Y-94629436D03*
X337830000Y-92089436D03*
X337830000Y-89549436D03*
X337830000Y-87009436D03*
%TO.N,VCC*%
X337830000Y-84469436D03*
%TD*%
D22*
%TO.N,unconnected-(U22-Pad1)*%
%TO.C,U22*%
X17780000Y-91440000D03*
D23*
%TO.N,GND*%
X17780000Y-93980000D03*
%TO.N,Net-(C31-Pad1)*%
X17780000Y-96520000D03*
%TO.N,GND*%
X17780000Y-99060000D03*
%TO.N,Net-(C33-Pad1)*%
X25400000Y-99060000D03*
%TO.N,VCC*%
X25400000Y-96520000D03*
%TO.N,unconnected-(U22-Pad7)*%
X25400000Y-93980000D03*
%TO.N,unconnected-(U22-Pad8)*%
X25400000Y-91440000D03*
%TD*%
D12*
%TO.N,GND*%
%TO.C,C26*%
X118150000Y-203200000D03*
%TO.N,VCC*%
X123150000Y-203200000D03*
%TD*%
%TO.N,VCC*%
%TO.C,R11*%
X391160000Y-97790000D03*
D11*
%TO.N,Net-(D6-Pad2)*%
X398780000Y-97790000D03*
%TD*%
D12*
%TO.N,VCC*%
%TO.C,C35*%
X345480000Y-97790000D03*
%TO.N,GND*%
X350480000Y-97790000D03*
%TD*%
%TO.N,GND*%
%TO.C,C51*%
X223520000Y-78740000D03*
%TO.N,Net-(C51-Pad2)*%
X223520000Y-83740000D03*
%TD*%
%TO.N,Net-(R7-Pad1)*%
%TO.C,R7*%
X99060000Y-63589062D03*
D11*
%TO.N,GND*%
X99060000Y-71209062D03*
%TD*%
D25*
%TO.N,VCC*%
%TO.C,J4*%
X372110000Y-130810000D03*
D26*
%TO.N,GND*%
X372110000Y-133350000D03*
%TO.N,/DTR*%
X372110000Y-135890000D03*
%TO.N,/TX*%
X372110000Y-138430000D03*
%TO.N,/DSR*%
X372110000Y-140970000D03*
%TO.N,/RX*%
X372110000Y-143510000D03*
%TD*%
D12*
%TO.N,VCC*%
%TO.C,R2*%
X320040000Y-149860000D03*
D11*
%TO.N,/WAIT*%
X320040000Y-157480000D03*
%TD*%
D12*
%TO.N,Net-(C48-Pad1)*%
%TO.C,R30*%
X213360000Y-82550000D03*
D11*
%TO.N,Net-(R30-Pad2)*%
X205740000Y-82550000D03*
%TD*%
D30*
%TO.N,Net-(U10-Pad1)*%
%TO.C,U10*%
X135895000Y-153760000D03*
D31*
%TO.N,/VIDEO/AD0*%
X138435000Y-153760000D03*
%TO.N,/VIDEO/AD1*%
X140975000Y-153760000D03*
%TO.N,/VIDEO/AD2*%
X143515000Y-153760000D03*
%TO.N,/VIDEO/AD3*%
X146055000Y-153760000D03*
%TO.N,/VIDEO/AD4*%
X148595000Y-153760000D03*
%TO.N,/VIDEO/AD5*%
X151135000Y-153760000D03*
%TO.N,/VIDEO/AD6*%
X153675000Y-153760000D03*
%TO.N,/VIDEO/AD7*%
X156215000Y-153760000D03*
%TO.N,GND*%
X158755000Y-153760000D03*
%TO.N,Net-(U10-Pad11)*%
X158755000Y-146140000D03*
%TO.N,/VIDEO/VD7*%
X156215000Y-146140000D03*
%TO.N,/VIDEO/VD6*%
X153675000Y-146140000D03*
%TO.N,/VIDEO/VD5*%
X151135000Y-146140000D03*
%TO.N,/VIDEO/VD4*%
X148595000Y-146140000D03*
%TO.N,/VIDEO/VD3*%
X146055000Y-146140000D03*
%TO.N,/VIDEO/VD2*%
X143515000Y-146140000D03*
%TO.N,/VIDEO/VD1*%
X140975000Y-146140000D03*
%TO.N,/VIDEO/VD0*%
X138435000Y-146140000D03*
%TO.N,VCC*%
X135895000Y-146140000D03*
%TD*%
D12*
%TO.N,GND*%
%TO.C,C17*%
X125670000Y-118110000D03*
%TO.N,Net-(C17-Pad2)*%
X120670000Y-118110000D03*
%TD*%
D25*
%TO.N,Net-(J1-Pad1)*%
%TO.C,JP1*%
X389890000Y-187960000D03*
D26*
%TO.N,Net-(C41-Pad1)*%
X387350000Y-187960000D03*
%TD*%
D22*
%TO.N,/IO/Casette Interface/PC7*%
%TO.C,U18*%
X194310000Y-77470000D03*
D23*
%TO.N,Net-(R25-Pad2)*%
X194310000Y-80010000D03*
%TO.N,/IO/Casette Interface/PC6*%
X194310000Y-82550000D03*
%TO.N,Net-(R26-Pad2)*%
X194310000Y-85090000D03*
%TO.N,/IO/Casette Interface/PC5*%
X194310000Y-87630000D03*
%TO.N,Net-(R27-Pad2)*%
X194310000Y-90170000D03*
%TO.N,GND*%
X194310000Y-92710000D03*
%TO.N,Net-(R28-Pad2)*%
X201930000Y-92710000D03*
%TO.N,/IO/Casette Interface/PC4*%
X201930000Y-90170000D03*
%TO.N,Net-(R29-Pad2)*%
X201930000Y-87630000D03*
%TO.N,/IO/Casette Interface/PC3*%
X201930000Y-85090000D03*
%TO.N,Net-(R30-Pad2)*%
X201930000Y-82550000D03*
%TO.N,/IO/Casette Interface/PC2*%
X201930000Y-80010000D03*
%TO.N,VCC*%
X201930000Y-77470000D03*
%TD*%
D32*
%TO.N,Net-(Q3-Pad1)*%
%TO.C,Q3*%
X358140000Y-83820000D03*
D33*
%TO.N,Net-(Q3-Pad2)*%
X358140000Y-85090000D03*
%TO.N,GND*%
X358140000Y-86360000D03*
%TD*%
D22*
%TO.N,/VIDEO/{slash}RAS*%
%TO.C,U17*%
X149870000Y-207005000D03*
D23*
%TO.N,Net-(U17-Pad2)*%
X149870000Y-209545000D03*
%TO.N,Net-(U17-Pad3)*%
X149870000Y-212085000D03*
%TO.N,Net-(U17-Pad4)*%
X149870000Y-214625000D03*
X149870000Y-217165000D03*
%TO.N,Net-(U17-Pad6)*%
X149870000Y-219705000D03*
%TO.N,GND*%
X149870000Y-222245000D03*
%TO.N,Net-(U17-Pad3)*%
X157490000Y-222245000D03*
%TO.N,/VIDEO/{slash}CAS*%
X157490000Y-219705000D03*
%TO.N,Net-(U10-Pad11)*%
X157490000Y-217165000D03*
%TO.N,Net-(U10-Pad1)*%
X157490000Y-214625000D03*
%TO.N,N/C*%
X157490000Y-212085000D03*
X157490000Y-209545000D03*
%TO.N,VCC*%
X157490000Y-207005000D03*
%TD*%
D10*
%TO.N,/BUS Expansion/D0*%
%TO.C,U5*%
X345440000Y-116840000D03*
D11*
%TO.N,/BUS Expansion/D1*%
X345440000Y-119380000D03*
%TO.N,/BUS Expansion/D2*%
X345440000Y-121920000D03*
%TO.N,/BUS Expansion/D3*%
X345440000Y-124460000D03*
%TO.N,/BUS Expansion/D4*%
X345440000Y-127000000D03*
%TO.N,/BUS Expansion/D5*%
X345440000Y-129540000D03*
%TO.N,/BUS Expansion/D6*%
X345440000Y-132080000D03*
%TO.N,/BUS Expansion/D7*%
X345440000Y-134620000D03*
%TO.N,Net-(U5-Pad15)*%
X345440000Y-137160000D03*
%TO.N,/RX*%
X345440000Y-139700000D03*
%TO.N,/TX*%
X345440000Y-142240000D03*
%TO.N,VCC*%
X345440000Y-144780000D03*
X345440000Y-147320000D03*
%TO.N,/UART_CE*%
X345440000Y-149860000D03*
%TO.N,Net-(U5-Pad15)*%
X345440000Y-152400000D03*
%TO.N,/XTAL*%
X345440000Y-154940000D03*
%TO.N,unconnected-(U5-Pad17)*%
X345440000Y-157480000D03*
%TO.N,/WR*%
X345440000Y-160020000D03*
%TO.N,GND*%
X345440000Y-162560000D03*
X345440000Y-165100000D03*
%TO.N,/RD*%
X360680000Y-165100000D03*
%TO.N,GND*%
X360680000Y-162560000D03*
%TO.N,unconnected-(U5-Pad23)*%
X360680000Y-160020000D03*
%TO.N,unconnected-(U5-Pad24)*%
X360680000Y-157480000D03*
%TO.N,GND*%
X360680000Y-154940000D03*
%TO.N,/IO/A2*%
X360680000Y-152400000D03*
%TO.N,/IO/A1*%
X360680000Y-149860000D03*
%TO.N,/IO/A0*%
X360680000Y-147320000D03*
%TO.N,unconnected-(U5-Pad29)*%
X360680000Y-144780000D03*
%TO.N,Net-(U13-Pad12)*%
X360680000Y-142240000D03*
%TO.N,unconnected-(U5-Pad31)*%
X360680000Y-139700000D03*
%TO.N,Net-(U5-Pad32)*%
X360680000Y-137160000D03*
%TO.N,/DTR*%
X360680000Y-134620000D03*
%TO.N,unconnected-(U5-Pad34)*%
X360680000Y-132080000D03*
%TO.N,/RESET_IO*%
X360680000Y-129540000D03*
%TO.N,Net-(U5-Pad36)*%
X360680000Y-127000000D03*
%TO.N,/DSR*%
X360680000Y-124460000D03*
X360680000Y-121920000D03*
%TO.N,VCC*%
X360680000Y-119380000D03*
X360680000Y-116840000D03*
%TD*%
D12*
%TO.N,Net-(C30-Pad1)*%
%TO.C,R13*%
X29210000Y-95250000D03*
D11*
%TO.N,Net-(JP4-Pad1)*%
X39370000Y-95250000D03*
%TD*%
D22*
%TO.N,/BUS Expansion/D4*%
%TO.C,U24*%
X195630000Y-118160000D03*
D23*
%TO.N,/BUS Expansion/D5*%
X195630000Y-120700000D03*
%TO.N,/BUS Expansion/D6*%
X195630000Y-123240000D03*
%TO.N,/BUS Expansion/D7*%
X195630000Y-125780000D03*
%TO.N,GND*%
X195630000Y-128320000D03*
%TO.N,/RD*%
X195630000Y-130860000D03*
%TO.N,Net-(J8-Pad6)*%
X195630000Y-133400000D03*
%TO.N,Net-(J8-Pad4)*%
X195630000Y-135940000D03*
%TO.N,Net-(J8-Pad2)*%
X195630000Y-138480000D03*
%TO.N,/IORQ*%
X195630000Y-141020000D03*
%TO.N,unconnected-(U24-Pad11)*%
X195630000Y-143560000D03*
%TO.N,/CTC_INT*%
X195630000Y-146100000D03*
%TO.N,Net-(R42-Pad1)*%
X195630000Y-148640000D03*
%TO.N,/M1*%
X195630000Y-151180000D03*
%TO.N,/XTAL*%
X210870000Y-151180000D03*
%TO.N,/CTC_CE*%
X210870000Y-148640000D03*
%TO.N,/{slash}RESET*%
X210870000Y-146100000D03*
%TO.N,/IO/A0*%
X210870000Y-143560000D03*
%TO.N,/IO/A1*%
X210870000Y-141020000D03*
%TO.N,Net-(J8-Pad1)*%
X210870000Y-138480000D03*
%TO.N,Net-(J8-Pad3)*%
X210870000Y-135940000D03*
%TO.N,Net-(J8-Pad5)*%
X210870000Y-133400000D03*
%TO.N,Net-(J8-Pad7)*%
X210870000Y-130860000D03*
%TO.N,VCC*%
X210870000Y-128320000D03*
%TO.N,/BUS Expansion/D0*%
X210870000Y-125780000D03*
%TO.N,/BUS Expansion/D1*%
X210870000Y-123240000D03*
%TO.N,/BUS Expansion/D2*%
X210870000Y-120700000D03*
%TO.N,/BUS Expansion/D3*%
X210870000Y-118160000D03*
%TD*%
D10*
%TO.N,Net-(C41-Pad1)*%
%TO.C,C41*%
X387350000Y-180340000D03*
D12*
%TO.N,GND*%
X389850000Y-180340000D03*
%TD*%
%TO.N,VCC*%
%TO.C,C46*%
X337820000Y-79394436D03*
%TO.N,GND*%
X332820000Y-79394436D03*
%TD*%
D22*
%TO.N,/VIDEO/{slash}RAS*%
%TO.C,U7*%
X95250000Y-118215000D03*
D23*
%TO.N,/VIDEO/{slash}CAS*%
X95250000Y-120755000D03*
%TO.N,/VIDEO/AD7*%
X95250000Y-123295000D03*
%TO.N,/VIDEO/AD6*%
X95250000Y-125835000D03*
%TO.N,/VIDEO/AD5*%
X95250000Y-128375000D03*
%TO.N,/VIDEO/AD4*%
X95250000Y-130915000D03*
%TO.N,/VIDEO/AD3*%
X95250000Y-133455000D03*
%TO.N,/VIDEO/AD2*%
X95250000Y-135995000D03*
%TO.N,/VIDEO/AD1*%
X95250000Y-138535000D03*
%TO.N,/VIDEO/AD0*%
X95250000Y-141075000D03*
%TO.N,Net-(U10-Pad1)*%
X95250000Y-143615000D03*
%TO.N,GND*%
X95250000Y-146155000D03*
%TO.N,/IO/A0*%
X95250000Y-148695000D03*
%TO.N,/VIDEO/{slash}CSW*%
X95250000Y-151235000D03*
%TO.N,/VIDEO/{slash}CSR*%
X95250000Y-153775000D03*
%TO.N,Net-(D5-Pad1)*%
X95250000Y-156315000D03*
%TO.N,/BUS Expansion/D7*%
X95250000Y-158855000D03*
%TO.N,/BUS Expansion/D6*%
X95250000Y-161395000D03*
%TO.N,/BUS Expansion/D5*%
X95250000Y-163935000D03*
%TO.N,/BUS Expansion/D4*%
X95250000Y-166475000D03*
%TO.N,/BUS Expansion/D3*%
X110490000Y-166475000D03*
%TO.N,/BUS Expansion/D2*%
X110490000Y-163935000D03*
%TO.N,/BUS Expansion/D1*%
X110490000Y-161395000D03*
%TO.N,/BUS Expansion/D0*%
X110490000Y-158855000D03*
%TO.N,/VIDEO/VD7*%
X110490000Y-156315000D03*
%TO.N,/VIDEO/VD6*%
X110490000Y-153775000D03*
%TO.N,/VIDEO/VD5*%
X110490000Y-151235000D03*
%TO.N,/VIDEO/VD4*%
X110490000Y-148695000D03*
%TO.N,/VIDEO/VD3*%
X110490000Y-146155000D03*
%TO.N,/VIDEO/VD2*%
X110490000Y-143615000D03*
%TO.N,/VIDEO/VD1*%
X110490000Y-141075000D03*
%TO.N,/VIDEO/VD0*%
X110490000Y-138535000D03*
%TO.N,VCC*%
X110490000Y-135995000D03*
%TO.N,/{slash}RESET*%
X110490000Y-133455000D03*
%TO.N,unconnected-(U7-Pad35)*%
X110490000Y-130915000D03*
%TO.N,Net-(Q2-Pad2)*%
X110490000Y-128375000D03*
%TO.N,unconnected-(U7-Pad37)*%
X110490000Y-125835000D03*
%TO.N,unconnected-(U7-Pad38)*%
X110490000Y-123295000D03*
%TO.N,Net-(C16-Pad2)*%
X110490000Y-120755000D03*
%TO.N,Net-(C17-Pad2)*%
X110490000Y-118215000D03*
%TD*%
D12*
%TO.N,GND*%
%TO.C,C24*%
X179150000Y-114300000D03*
%TO.N,VCC*%
X184150000Y-114300000D03*
%TD*%
%TO.N,VCC*%
%TO.C,C20*%
X114280000Y-140970000D03*
%TO.N,GND*%
X119280000Y-140970000D03*
%TD*%
%TO.N,VCC*%
%TO.C,C45*%
X383540000Y-78840000D03*
%TO.N,GND*%
X386040000Y-78840000D03*
%TD*%
%TO.N,Net-(D10-Pad2)*%
%TO.C,R40*%
X218440000Y-93980000D03*
D11*
%TO.N,Net-(C51-Pad2)*%
X218440000Y-86360000D03*
%TD*%
D32*
%TO.N,Net-(D7-Pad1)*%
%TO.C,Q4*%
X290830000Y-90170000D03*
D33*
%TO.N,Net-(Q4-Pad2)*%
X290830000Y-91440000D03*
%TO.N,GND*%
X290830000Y-92710000D03*
%TD*%
D12*
%TO.N,GND*%
%TO.C,C5*%
X123190000Y-72350000D03*
%TO.N,VCC*%
X128190000Y-72350000D03*
%TD*%
D34*
%TO.N,/IO/Casette Interface/M1*%
%TO.C,J6*%
X202050000Y-44910000D03*
%TO.N,GND*%
X209550000Y-44910000D03*
%TO.N,/IO/Casette Interface/M2*%
X217050000Y-44910000D03*
%TO.N,Net-(C51-Pad2)*%
X204550000Y-47410000D03*
%TO.N,Net-(C49-Pad1)*%
X214550000Y-47410000D03*
%TO.N,N/C*%
X214550000Y-34910000D03*
X204550000Y-34910000D03*
%TD*%
D12*
%TO.N,Net-(R42-Pad1)*%
%TO.C,R42*%
X195580000Y-154940000D03*
D11*
%TO.N,VCC*%
X195580000Y-162560000D03*
%TD*%
D12*
%TO.N,GND*%
%TO.C,C2*%
X243920000Y-113025000D03*
%TO.N,VCC*%
X248920000Y-113025000D03*
%TD*%
%TO.N,VCC*%
%TO.C,C1*%
X288290000Y-142160000D03*
%TO.N,GND*%
X288290000Y-137160000D03*
%TD*%
%TO.N,VCC*%
%TO.C,C39*%
X207010000Y-114300000D03*
%TO.N,GND*%
X202010000Y-114300000D03*
%TD*%
D35*
%TO.N,GND*%
%TO.C,JP5*%
X392430000Y-79440000D03*
D36*
%TO.N,Net-(J9-Pad2)*%
X398230000Y-79440000D03*
D37*
%TO.N,Net-(D3-Pad1)*%
X395430000Y-74640000D03*
%TD*%
D12*
%TO.N,/IO/Casette Interface/M2*%
%TO.C,C47*%
X271780000Y-85170000D03*
%TO.N,/IO/Casette Interface/M1*%
X271780000Y-80170000D03*
%TD*%
%TO.N,Net-(R38-Pad1)*%
%TO.C,R39*%
X223520000Y-86360000D03*
D11*
%TO.N,Net-(D10-Pad2)*%
X223520000Y-93980000D03*
%TD*%
D12*
%TO.N,Net-(C48-Pad1)*%
%TO.C,C48*%
X191770000Y-52070000D03*
%TO.N,GND*%
X186770000Y-52070000D03*
%TD*%
%TO.N,GND*%
%TO.C,C22*%
X132080000Y-151090000D03*
%TO.N,VCC*%
X132080000Y-146090000D03*
%TD*%
D10*
%TO.N,Net-(C36-Pad1)*%
%TO.C,C36*%
X346710000Y-79394436D03*
D12*
%TO.N,GND*%
X344210000Y-79394436D03*
%TD*%
D25*
%TO.N,Net-(J5-Pad1)*%
%TO.C,J5*%
X31750000Y-106680000D03*
D26*
%TO.N,Net-(J5-Pad2)*%
X31750000Y-109220000D03*
%TO.N,Net-(J5-Pad3)*%
X31750000Y-111760000D03*
%TD*%
D12*
%TO.N,VCC*%
%TO.C,C21*%
X132080000Y-115570000D03*
%TO.N,GND*%
X132080000Y-120570000D03*
%TD*%
D22*
%TO.N,GND*%
%TO.C,U21*%
X39390000Y-118035000D03*
D23*
%TO.N,N/C*%
X39390000Y-120575000D03*
%TO.N,Net-(J5-Pad2)*%
X39390000Y-123115000D03*
%TO.N,Net-(J5-Pad3)*%
X39390000Y-125655000D03*
%TO.N,N/C*%
X39390000Y-128195000D03*
%TO.N,/SOUND/ROW7*%
X39390000Y-130735000D03*
%TO.N,/SOUND/ROW6*%
X39390000Y-133275000D03*
%TO.N,/SOUND/ROW5*%
X39390000Y-135815000D03*
%TO.N,/SOUND/ROW4*%
X39390000Y-138355000D03*
%TO.N,/SOUND/ROW3*%
X39390000Y-140895000D03*
%TO.N,/SOUND/ROW2*%
X39390000Y-143435000D03*
%TO.N,/SOUND/ROW1*%
X39390000Y-145975000D03*
%TO.N,/SOUND/ROW0*%
X39390000Y-148515000D03*
%TO.N,/SOUND/COL7*%
X39390000Y-151055000D03*
%TO.N,/SOUND/COL6*%
X39390000Y-153595000D03*
%TO.N,/SOUND/COL5*%
X39390000Y-156135000D03*
%TO.N,/SOUND/COL4*%
X39390000Y-158675000D03*
%TO.N,/SOUND/COL3*%
X39390000Y-161215000D03*
%TO.N,/SOUND/COL2*%
X39390000Y-163755000D03*
%TO.N,/SOUND/COL1*%
X39390000Y-166295000D03*
%TO.N,/SOUND/COL0*%
X54630000Y-166295000D03*
%TO.N,/XTAL*%
X54630000Y-163755000D03*
%TO.N,/{slash}RESET*%
X54630000Y-161215000D03*
%TO.N,GND*%
X54630000Y-158675000D03*
%TO.N,VCC*%
X54630000Y-156135000D03*
%TO.N,unconnected-(U21-Pad26)*%
X54630000Y-153595000D03*
%TO.N,Net-(U20-Pad4)*%
X54630000Y-151055000D03*
%TO.N,VCC*%
X54630000Y-148515000D03*
%TO.N,Net-(U20-Pad1)*%
X54630000Y-145975000D03*
%TO.N,/BUS Expansion/D7*%
X54630000Y-143435000D03*
%TO.N,/BUS Expansion/D6*%
X54630000Y-140895000D03*
%TO.N,/BUS Expansion/D5*%
X54630000Y-138355000D03*
%TO.N,/BUS Expansion/D4*%
X54630000Y-135815000D03*
%TO.N,/BUS Expansion/D3*%
X54630000Y-133275000D03*
%TO.N,/BUS Expansion/D2*%
X54630000Y-130735000D03*
%TO.N,/BUS Expansion/D1*%
X54630000Y-128195000D03*
%TO.N,/BUS Expansion/D0*%
X54630000Y-125655000D03*
%TO.N,Net-(J5-Pad1)*%
X54630000Y-123115000D03*
%TO.N,unconnected-(U21-Pad39)*%
X54630000Y-120575000D03*
%TO.N,VCC*%
X54630000Y-118035000D03*
%TD*%
D12*
%TO.N,Net-(C48-Pad1)*%
%TO.C,R25*%
X182880000Y-80010000D03*
D11*
%TO.N,Net-(R25-Pad2)*%
X190500000Y-80010000D03*
%TD*%
D12*
%TO.N,Net-(Q2-Pad1)*%
%TO.C,R18*%
X165100000Y-72310000D03*
D11*
%TO.N,GND*%
X154940000Y-72310000D03*
%TD*%
D12*
%TO.N,GND*%
%TO.C,C28*%
X49610000Y-203200000D03*
%TO.N,VCC*%
X54610000Y-203200000D03*
%TD*%
%TO.N,GND*%
%TO.C,C12*%
X392430000Y-162660000D03*
%TO.N,Net-(C12-Pad2)*%
X389930000Y-162660000D03*
%TD*%
%TO.N,Net-(C9-Pad1)*%
%TO.C,C9*%
X381000000Y-163830000D03*
%TO.N,GND*%
X381000000Y-158830000D03*
%TD*%
%TO.N,Net-(C48-Pad1)*%
%TO.C,R27*%
X182880000Y-90170000D03*
D11*
%TO.N,Net-(R27-Pad2)*%
X190500000Y-90170000D03*
%TD*%
D12*
%TO.N,VCC*%
%TO.C,C15*%
X260350000Y-200765000D03*
%TO.N,GND*%
X255350000Y-200765000D03*
%TD*%
%TO.N,GND*%
%TO.C,R41*%
X218440000Y-76200000D03*
D11*
%TO.N,Net-(C51-Pad2)*%
X218440000Y-83820000D03*
%TD*%
D25*
%TO.N,Net-(JP3-Pad1)*%
%TO.C,JP3*%
X227330000Y-229870000D03*
D26*
%TO.N,Net-(JP3-Pad2)*%
X224790000Y-229870000D03*
%TD*%
D16*
%TO.N,Net-(D1-Pad2)*%
%TO.C,D1*%
X180340000Y-36195000D03*
D15*
%TO.N,GND*%
X180340000Y-33655000D03*
%TD*%
D12*
%TO.N,VCC*%
%TO.C,C40*%
X191770000Y-200660000D03*
%TO.N,GND*%
X186770000Y-200660000D03*
%TD*%
%TO.N,GND*%
%TO.C,C11*%
X392390000Y-156210000D03*
%TO.N,Net-(C11-Pad2)*%
X389890000Y-156210000D03*
%TD*%
%TO.N,/IO/PA6*%
%TO.C,R34*%
X237490000Y-81280000D03*
D11*
%TO.N,VCC*%
X245110000Y-81280000D03*
%TD*%
D12*
%TO.N,VCC*%
%TO.C,R1*%
X330200000Y-149860000D03*
D11*
%TO.N,/NMI*%
X330200000Y-157480000D03*
%TD*%
D12*
%TO.N,VCC*%
%TO.C,R22*%
X360680000Y-90170000D03*
D11*
%TO.N,/{slash}RESET*%
X360680000Y-97790000D03*
%TD*%
D25*
%TO.N,Net-(JP4-Pad1)*%
%TO.C,JP4*%
X43165000Y-109215000D03*
D26*
%TO.N,Net-(J5-Pad1)*%
X43165000Y-111755000D03*
%TO.N,Net-(JP4-Pad1)*%
X40625000Y-109215000D03*
%TO.N,Net-(J5-Pad2)*%
X40625000Y-111755000D03*
%TO.N,Net-(JP4-Pad1)*%
X38085000Y-109215000D03*
%TO.N,Net-(J5-Pad3)*%
X38085000Y-111755000D03*
%TD*%
D10*
%TO.N,/MREQ*%
%TO.C,U15*%
X284470000Y-204460000D03*
D11*
%TO.N,GND*%
X284470000Y-207000000D03*
%TO.N,/IO/A15*%
X284470000Y-209540000D03*
%TO.N,/ROM_CE*%
X284470000Y-212080000D03*
%TO.N,/RAM_CE*%
X284470000Y-214620000D03*
%TO.N,unconnected-(U15-Pad6)*%
X284470000Y-217160000D03*
%TO.N,unconnected-(U15-Pad7)*%
X284470000Y-219700000D03*
%TO.N,GND*%
X284470000Y-222240000D03*
%TO.N,N/C*%
X292090000Y-222240000D03*
X292090000Y-219700000D03*
X292090000Y-217160000D03*
X292090000Y-214620000D03*
X292090000Y-212080000D03*
X292090000Y-209540000D03*
X292090000Y-207000000D03*
%TO.N,VCC*%
X292090000Y-204460000D03*
%TD*%
D12*
%TO.N,Net-(C33-Pad1)*%
%TO.C,C33*%
X21590000Y-76200000D03*
%TO.N,Net-(C33-Pad2)*%
X16590000Y-76200000D03*
%TD*%
%TO.N,VCC*%
%TO.C,R20*%
X365760000Y-90170000D03*
D11*
%TO.N,Net-(C36-Pad1)*%
X365760000Y-97790000D03*
%TD*%
D12*
%TO.N,Net-(Q3-Pad1)*%
%TO.C,R23*%
X391160000Y-90170000D03*
D11*
%TO.N,Net-(D4-Pad1)*%
X398780000Y-90170000D03*
%TD*%
D10*
%TO.N,Net-(D7-Pad1)*%
%TO.C,D7*%
X304800000Y-86360000D03*
D11*
%TO.N,VCC*%
X304800000Y-78740000D03*
%TD*%
D22*
%TO.N,/IO/A11*%
%TO.C,U1*%
X295910000Y-116840000D03*
D23*
%TO.N,/IO/A12*%
X295910000Y-119380000D03*
%TO.N,/IO/A13*%
X295910000Y-121920000D03*
%TO.N,/IO/A14*%
X295910000Y-124460000D03*
%TO.N,/IO/A15*%
X295910000Y-127000000D03*
%TO.N,/XTAL*%
X295910000Y-129540000D03*
%TO.N,/BUS Expansion/D4*%
X295910000Y-132080000D03*
%TO.N,/BUS Expansion/D3*%
X295910000Y-134620000D03*
%TO.N,/BUS Expansion/D5*%
X295910000Y-137160000D03*
%TO.N,/BUS Expansion/D6*%
X295910000Y-139700000D03*
%TO.N,VCC*%
X295910000Y-142240000D03*
%TO.N,/BUS Expansion/D2*%
X295910000Y-144780000D03*
%TO.N,/BUS Expansion/D7*%
X295910000Y-147320000D03*
%TO.N,/BUS Expansion/D0*%
X295910000Y-149860000D03*
%TO.N,/BUS Expansion/D1*%
X295910000Y-152400000D03*
%TO.N,/{slash}INT*%
X295910000Y-154940000D03*
%TO.N,/NMI*%
X295910000Y-157480000D03*
%TO.N,/HALT*%
X295910000Y-160020000D03*
%TO.N,/MREQ*%
X295910000Y-162560000D03*
%TO.N,/IORQ*%
X295910000Y-165100000D03*
%TO.N,/RD*%
X311150000Y-165100000D03*
%TO.N,/WR*%
X311150000Y-162560000D03*
%TO.N,/BUSACK*%
X311150000Y-160020000D03*
%TO.N,/WAIT*%
X311150000Y-157480000D03*
%TO.N,/BUSRQ*%
X311150000Y-154940000D03*
%TO.N,/{slash}RESET*%
X311150000Y-152400000D03*
%TO.N,/M1*%
X311150000Y-149860000D03*
%TO.N,/CPU_MEM/RFSH*%
X311150000Y-147320000D03*
%TO.N,GND*%
X311150000Y-144780000D03*
%TO.N,/IO/A0*%
X311150000Y-142240000D03*
%TO.N,/IO/A1*%
X311150000Y-139700000D03*
%TO.N,/IO/A2*%
X311150000Y-137160000D03*
%TO.N,/IO/A3*%
X311150000Y-134620000D03*
%TO.N,/IO/A4*%
X311150000Y-132080000D03*
%TO.N,/IO/A5*%
X311150000Y-129540000D03*
%TO.N,/IO/A6*%
X311150000Y-127000000D03*
%TO.N,/IO/A7*%
X311150000Y-124460000D03*
%TO.N,/IO/A8*%
X311150000Y-121920000D03*
%TO.N,/IO/A9*%
X311150000Y-119380000D03*
%TO.N,/IO/A10*%
X311150000Y-116840000D03*
%TD*%
D25*
%TO.N,GND*%
%TO.C,J7*%
X31750000Y-118110000D03*
D26*
%TO.N,unconnected-(J7-Pad2)*%
X31750000Y-120650000D03*
%TO.N,unconnected-(J7-Pad3)*%
X31750000Y-123190000D03*
%TO.N,unconnected-(J7-Pad4)*%
X31750000Y-125730000D03*
%TO.N,/SOUND/COL3*%
X31750000Y-128270000D03*
%TO.N,/SOUND/COL6*%
X31750000Y-130810000D03*
%TO.N,/SOUND/COL5*%
X31750000Y-133350000D03*
%TO.N,/SOUND/COL4*%
X31750000Y-135890000D03*
%TO.N,/SOUND/COL7*%
X31750000Y-138430000D03*
%TO.N,/SOUND/COL2*%
X31750000Y-140970000D03*
%TO.N,/SOUND/COL1*%
X31750000Y-143510000D03*
%TO.N,/SOUND/COL0*%
X31750000Y-146050000D03*
%TO.N,/SOUND/ROW0*%
X31750000Y-148590000D03*
%TO.N,/SOUND/ROW6*%
X31750000Y-151130000D03*
%TO.N,/SOUND/ROW5*%
X31750000Y-153670000D03*
%TO.N,/SOUND/ROW4*%
X31750000Y-156210000D03*
%TO.N,/SOUND/ROW3*%
X31750000Y-158750000D03*
%TO.N,/SOUND/ROW2*%
X31750000Y-161290000D03*
%TO.N,/SOUND/ROW1*%
X31750000Y-163830000D03*
%TO.N,/SOUND/ROW7*%
X31750000Y-166370000D03*
%TD*%
D10*
%TO.N,VCC*%
%TO.C,RN1*%
X213455000Y-222255000D03*
D11*
%TO.N,/CTC_INT*%
X213455000Y-219715000D03*
%TO.N,/UART_INT*%
X213455000Y-217175000D03*
%TO.N,/VDP_INT*%
X213455000Y-214635000D03*
%TO.N,/INT_DEV1*%
X213455000Y-212095000D03*
%TO.N,/INT_DEV2*%
X213455000Y-209555000D03*
%TO.N,/INT_DEV3*%
X213455000Y-207015000D03*
%TO.N,/INT_DEV4*%
X213455000Y-204475000D03*
%TO.N,/INT_DEV5*%
X213455000Y-201935000D03*
%TD*%
D12*
%TO.N,GND*%
%TO.C,R15*%
X26670000Y-81280000D03*
D11*
%TO.N,Net-(C33-Pad2)*%
X16510000Y-81280000D03*
%TD*%
D12*
%TO.N,GND*%
%TO.C,C7*%
X373380000Y-182880000D03*
%TO.N,Net-(C7-Pad2)*%
X370880000Y-182880000D03*
%TD*%
%TO.N,Net-(C48-Pad1)*%
%TO.C,R26*%
X182880000Y-85090000D03*
D11*
%TO.N,Net-(R26-Pad2)*%
X190500000Y-85090000D03*
%TD*%
D22*
%TO.N,/VDP_CE*%
%TO.C,U16*%
X115515000Y-207005000D03*
D23*
%TO.N,/IORQ*%
X115515000Y-209545000D03*
%TO.N,Net-(U16-Pad3)*%
X115515000Y-212085000D03*
X115515000Y-214625000D03*
%TO.N,/RD*%
X115515000Y-217165000D03*
%TO.N,/VIDEO/{slash}CSR*%
X115515000Y-219705000D03*
%TO.N,GND*%
X115515000Y-222245000D03*
%TO.N,/VIDEO/{slash}CSW*%
X123135000Y-222245000D03*
%TO.N,Net-(U16-Pad3)*%
X123135000Y-219705000D03*
%TO.N,/WR*%
X123135000Y-217165000D03*
%TO.N,N/C*%
X123135000Y-214625000D03*
X123135000Y-212085000D03*
X123135000Y-209545000D03*
%TO.N,VCC*%
X123135000Y-207005000D03*
%TD*%
D12*
%TO.N,VCC*%
%TO.C,R16*%
X370840000Y-90170000D03*
D11*
%TO.N,Net-(C34-Pad1)*%
X370840000Y-97790000D03*
%TD*%
D22*
%TO.N,/IO/A5*%
%TO.C,U14*%
X252730000Y-204565000D03*
D23*
%TO.N,/IO/A6*%
X252730000Y-207105000D03*
%TO.N,/IO/A7*%
X252730000Y-209645000D03*
%TO.N,/IORQ*%
X252730000Y-212185000D03*
X252730000Y-214725000D03*
%TO.N,Net-(U13-Pad3)*%
X252730000Y-217265000D03*
%TO.N,unconnected-(U14-Pad7)*%
X252730000Y-219805000D03*
%TO.N,GND*%
X252730000Y-222345000D03*
%TO.N,/DEV_CS1*%
X260350000Y-222345000D03*
%TO.N,/CF_CE*%
X260350000Y-219805000D03*
%TO.N,/CTC_CE*%
X260350000Y-217265000D03*
%TO.N,/PSG_CE*%
X260350000Y-214725000D03*
%TO.N,/VDP_CE*%
X260350000Y-212185000D03*
%TO.N,/UART_CE*%
X260350000Y-209645000D03*
%TO.N,/PPI_CE*%
X260350000Y-207105000D03*
%TO.N,VCC*%
X260350000Y-204565000D03*
%TD*%
D10*
%TO.N,Net-(D8-Pad1)*%
%TO.C,D9*%
X292100000Y-74930000D03*
D11*
%TO.N,/IO/Casette Interface/M2*%
X284480000Y-74930000D03*
%TD*%
D38*
%TO.N,GND*%
%TO.C,SW2*%
X403860000Y-110640000D03*
X403860000Y-104140000D03*
%TO.N,Net-(C34-Pad1)*%
X399360000Y-110640000D03*
X399360000Y-104140000D03*
%TD*%
D12*
%TO.N,VCC*%
%TO.C,C14*%
X276850000Y-200660000D03*
%TO.N,GND*%
X271850000Y-200660000D03*
%TD*%
%TO.N,GND*%
%TO.C,C16*%
X125630000Y-123190000D03*
%TO.N,Net-(C16-Pad2)*%
X120630000Y-123190000D03*
%TD*%
D10*
%TO.N,Net-(C33-Pad1)*%
%TO.C,C43*%
X21590000Y-69850000D03*
D12*
%TO.N,Net-(C43-Pad2)*%
X21590000Y-67350000D03*
%TD*%
D25*
%TO.N,Net-(J8-Pad1)*%
%TO.C,J8*%
X215900000Y-134625000D03*
D26*
%TO.N,Net-(J8-Pad2)*%
X215900000Y-132085000D03*
%TO.N,Net-(J8-Pad3)*%
X215900000Y-129545000D03*
%TO.N,Net-(J8-Pad4)*%
X215900000Y-127005000D03*
%TO.N,Net-(J8-Pad5)*%
X215900000Y-124465000D03*
%TO.N,Net-(J8-Pad6)*%
X215900000Y-121925000D03*
%TO.N,Net-(J8-Pad7)*%
X215900000Y-119385000D03*
%TD*%
D12*
%TO.N,GND*%
%TO.C,C18*%
X175260000Y-77430000D03*
%TO.N,VCC*%
X175260000Y-72430000D03*
%TD*%
%TO.N,Net-(C13-Pad1)*%
%TO.C,C13*%
X402590000Y-170180000D03*
%TO.N,GND*%
X400090000Y-170180000D03*
%TD*%
D10*
%TO.N,unconnected-(X1-Pad1)*%
%TO.C,X1*%
X308610000Y-100330000D03*
D12*
%TO.N,GND*%
X300990000Y-100330000D03*
%TO.N,/XTAL*%
X300990000Y-107950000D03*
%TO.N,VCC*%
X308610000Y-107950000D03*
%TD*%
%TO.N,Net-(Q2-Pad2)*%
%TO.C,R17*%
X165100000Y-77390000D03*
D11*
%TO.N,GND*%
X154940000Y-77390000D03*
%TD*%
D22*
%TO.N,/M1*%
%TO.C,U25*%
X222290000Y-204470000D03*
D23*
%TO.N,/IORQ*%
X222290000Y-207010000D03*
%TO.N,Net-(U25-Pad3)*%
X222290000Y-209550000D03*
X222290000Y-212090000D03*
%TO.N,Net-(U25-Pad10)*%
X222290000Y-214630000D03*
%TO.N,Net-(JP3-Pad1)*%
X222290000Y-217170000D03*
%TO.N,GND*%
X222290000Y-219710000D03*
%TO.N,Net-(U25-Pad12)*%
X229910000Y-219710000D03*
%TO.N,Net-(U25-Pad10)*%
X229910000Y-217170000D03*
X229910000Y-214630000D03*
%TO.N,/{slash}INT*%
X229910000Y-212090000D03*
%TO.N,Net-(U25-Pad12)*%
X229910000Y-209550000D03*
X229910000Y-207010000D03*
%TO.N,VCC*%
X229910000Y-204470000D03*
%TD*%
D12*
%TO.N,VCC*%
%TO.C,C50*%
X201930000Y-73660000D03*
%TO.N,GND*%
X196930000Y-73660000D03*
%TD*%
%TO.N,GND*%
%TO.C,C25*%
X152480000Y-203200000D03*
%TO.N,VCC*%
X157480000Y-203200000D03*
%TD*%
%TO.N,Net-(C8-Pad1)*%
%TO.C,C8*%
X368300000Y-180340000D03*
%TO.N,Net-(C7-Pad2)*%
X368300000Y-177840000D03*
%TD*%
%TO.N,VCC*%
%TO.C,R31*%
X205740000Y-77470000D03*
D11*
%TO.N,Net-(C48-Pad1)*%
X213360000Y-77470000D03*
%TD*%
D22*
%TO.N,GND*%
%TO.C,U11*%
X168910000Y-118110000D03*
D23*
%TO.N,/VIDEO/VA11*%
X168910000Y-120650000D03*
%TO.N,/VIDEO/VA9*%
X168910000Y-123190000D03*
%TO.N,/VIDEO/VA8*%
X168910000Y-125730000D03*
%TO.N,/VIDEO/VA6*%
X168910000Y-128270000D03*
%TO.N,/VIDEO/VA5*%
X168910000Y-130810000D03*
%TO.N,/VIDEO/VA3*%
X168910000Y-133350000D03*
%TO.N,/VIDEO/VA2*%
X168910000Y-135890000D03*
%TO.N,/VIDEO/VA1*%
X168910000Y-138430000D03*
%TO.N,/VIDEO/VA0*%
X168910000Y-140970000D03*
%TO.N,/VIDEO/VD0*%
X168910000Y-143510000D03*
%TO.N,/VIDEO/VD1*%
X168910000Y-146050000D03*
%TO.N,/VIDEO/VD2*%
X168910000Y-148590000D03*
%TO.N,GND*%
X168910000Y-151130000D03*
%TO.N,/VIDEO/VD3*%
X184150000Y-151130000D03*
%TO.N,/VIDEO/VD4*%
X184150000Y-148590000D03*
%TO.N,/VIDEO/VD5*%
X184150000Y-146050000D03*
%TO.N,/VIDEO/VD6*%
X184150000Y-143510000D03*
%TO.N,/VIDEO/VD7*%
X184150000Y-140970000D03*
%TO.N,/VIDEO/{slash}CAS*%
X184150000Y-138430000D03*
%TO.N,/VIDEO/VA4*%
X184150000Y-135890000D03*
%TO.N,Net-(U10-Pad11)*%
X184150000Y-133350000D03*
%TO.N,/VIDEO/VA7*%
X184150000Y-130810000D03*
%TO.N,/VIDEO/VA10*%
X184150000Y-128270000D03*
%TO.N,/VIDEO/VA12*%
X184150000Y-125730000D03*
%TO.N,/VIDEO/VA13*%
X184150000Y-123190000D03*
%TO.N,Net-(U10-Pad1)*%
X184150000Y-120650000D03*
%TO.N,VCC*%
X184150000Y-118110000D03*
%TD*%
D39*
%TO.N,Net-(Q2-Pad1)*%
%TO.C,Q2*%
X168910000Y-72230000D03*
D40*
%TO.N,Net-(Q2-Pad2)*%
X170180000Y-72230000D03*
%TO.N,VCC*%
X171450000Y-72230000D03*
%TD*%
D15*
%TO.N,GND*%
%TO.C,D2*%
X173355000Y-33655000D03*
D16*
%TO.N,Net-(D2-Pad2)*%
X173355000Y-36195000D03*
%TD*%
D12*
%TO.N,GND*%
%TO.C,C10*%
X384810000Y-158750000D03*
%TO.N,VCC*%
X384810000Y-163750000D03*
%TD*%
D30*
%TO.N,Net-(R4-Pad1)*%
%TO.C,SW1*%
X87640000Y-58420000D03*
D31*
%TO.N,Net-(R5-Pad1)*%
X90180000Y-58420000D03*
%TO.N,Net-(R6-Pad1)*%
X92720000Y-58420000D03*
%TO.N,Net-(R7-Pad1)*%
X95260000Y-58420000D03*
%TO.N,VCC*%
X95260000Y-50800000D03*
X92720000Y-50800000D03*
X90180000Y-50800000D03*
X87640000Y-50800000D03*
%TD*%
D12*
%TO.N,Net-(D2-Pad2)*%
%TO.C,R9*%
X173355000Y-38735000D03*
D11*
%TO.N,/IO/PC0*%
X173355000Y-46355000D03*
%TD*%
D41*
%TO.N,/RD*%
X274320000Y-189230000D03*
%TO.N,/{slash}RESET*%
X276860000Y-151130000D03*
%TO.N,/MR*%
X384175000Y-226060000D03*
X384175000Y-213995000D03*
X271780000Y-226060000D03*
%TO.N,Net-(U13-Pad8)*%
X276860000Y-231140000D03*
X306705000Y-231140000D03*
%TO.N,/WR*%
X300355000Y-190500000D03*
%TO.N,VCC*%
X393700000Y-191770000D03*
X393700000Y-214630000D03*
%TO.N,/CF_CE*%
X257810000Y-232410000D03*
%TO.N,/IO/A0*%
X316230000Y-230505000D03*
%TO.N,/IO/A1*%
X317500000Y-228600000D03*
%TO.N,/IO/PA4*%
X124460000Y-62865000D03*
%TO.N,/IO/PA5*%
X125730000Y-61595000D03*
%TO.N,/IO/PB4*%
X138430000Y-59055000D03*
%TO.N,/IO/PB6*%
X133350000Y-59055000D03*
%TO.N,/IO/PC1*%
X153035000Y-76835000D03*
%TO.N,/IO/PC0*%
X151765000Y-75565000D03*
%TO.N,VCC*%
X183515000Y-50800000D03*
%TO.N,/IO/PB0*%
X132080000Y-58420000D03*
%TO.N,VCC*%
X133985000Y-50800000D03*
%TO.N,GND*%
X224790000Y-113030000D03*
X233680000Y-157480000D03*
X256540000Y-157480000D03*
X372110000Y-160020000D03*
X41910000Y-55880000D03*
X222250000Y-99060000D03*
%TO.N,Net-(C11-Pad2)*%
X393700000Y-160020000D03*
X393700000Y-165100000D03*
%TO.N,/VDP_INT*%
X127000000Y-199390000D03*
X199390000Y-199390000D03*
%TO.N,Net-(FB1-Pad2)*%
X379730000Y-161290000D03*
%TO.N,/IO/PA7*%
X133350000Y-81280000D03*
%TO.N,/IO/PA6*%
X132080000Y-82550000D03*
%TO.N,/NMI*%
X88900000Y-234950000D03*
X330200000Y-236220000D03*
%TO.N,/WAIT*%
X85090000Y-232410000D03*
X320040000Y-233680000D03*
%TO.N,/BUSRQ*%
X325120000Y-234950000D03*
X58420000Y-233680000D03*
X45720000Y-50800000D03*
%TO.N,/{slash}RESET*%
X106660000Y-100330000D03*
X218440000Y-100330000D03*
X106680000Y-114300000D03*
X80010000Y-48260000D03*
X57150000Y-114300000D03*
X83820000Y-99060000D03*
%TO.N,/INT_DEV1*%
X40640000Y-93980000D03*
X91440000Y-113030000D03*
X91440000Y-228600000D03*
%TO.N,/XTAL*%
X219710000Y-101600000D03*
X294640000Y-101600000D03*
X48260000Y-149860000D03*
X44450000Y-49530000D03*
X52070000Y-93980000D03*
%TO.N,/IO/A11*%
X274320000Y-118110000D03*
X49530000Y-48260000D03*
%TO.N,/IO/A13*%
X50800000Y-92710000D03*
X44450000Y-58420000D03*
%TO.N,/IO/A14*%
X44450000Y-93980000D03*
X260350000Y-123190000D03*
%TO.N,/IO/A15*%
X34290000Y-63500000D03*
X34290000Y-49530000D03*
X285750000Y-156210000D03*
%TO.N,/BUS Expansion/D4*%
X73660000Y-166370000D03*
X337820000Y-172720000D03*
X73660000Y-135890000D03*
X185420000Y-176530000D03*
X190500000Y-176530000D03*
X300990000Y-172720000D03*
X269240000Y-172720000D03*
X68580000Y-85090000D03*
X73660000Y-176530000D03*
%TO.N,/BUS Expansion/D3*%
X69850000Y-83820000D03*
X299720000Y-171450000D03*
X74930000Y-175260000D03*
X336550000Y-171450000D03*
X69850000Y-48260000D03*
X201930000Y-172720000D03*
X271780000Y-171450000D03*
X110490000Y-175260000D03*
X74930000Y-133350000D03*
X177800000Y-175260000D03*
%TO.N,/BUS Expansion/D5*%
X67310000Y-74930000D03*
X72390000Y-138430000D03*
X288290000Y-173990000D03*
X187960000Y-177800000D03*
X267970000Y-173990000D03*
X72390000Y-177800000D03*
X67310000Y-48260000D03*
X201930000Y-175260000D03*
X72390000Y-163830000D03*
X339090000Y-173990000D03*
%TO.N,/BUS Expansion/D6*%
X266700000Y-175260000D03*
X66040000Y-73660000D03*
X71120000Y-179070000D03*
X289560000Y-175260000D03*
X71120000Y-161290000D03*
X340360000Y-175260000D03*
X200660000Y-177800000D03*
X71120000Y-140970000D03*
X189230000Y-179070000D03*
%TO.N,/BUS Expansion/D2*%
X290830000Y-170180000D03*
X179070000Y-173990000D03*
X76200000Y-162560000D03*
X76200000Y-130810000D03*
X203200000Y-170180000D03*
X76200000Y-173990000D03*
X335280000Y-170180000D03*
X71120000Y-82550000D03*
X259080000Y-170180000D03*
%TO.N,/BUS Expansion/D7*%
X341630000Y-176530000D03*
X265430000Y-176530000D03*
X194310000Y-180340000D03*
X69850000Y-143510000D03*
X63500000Y-49530000D03*
X292100000Y-176530000D03*
X64770000Y-86360000D03*
X69850000Y-158750000D03*
X199390000Y-180340000D03*
X69850000Y-180340000D03*
%TO.N,/BUS Expansion/D0*%
X78740000Y-171450000D03*
X332740000Y-167640000D03*
X78740000Y-157480000D03*
X73660000Y-80010000D03*
X293370000Y-167640000D03*
X261620000Y-167640000D03*
X78740000Y-125730000D03*
X181610000Y-171450000D03*
X205740000Y-167640000D03*
%TO.N,/BUS Expansion/D1*%
X72390000Y-48260000D03*
X260350000Y-168910000D03*
X180340000Y-172720000D03*
X334010000Y-168910000D03*
X77470000Y-172720000D03*
X77470000Y-128270000D03*
X204470000Y-168910000D03*
X72390000Y-81280000D03*
X77470000Y-160020000D03*
X298450000Y-168910000D03*
%TO.N,/{slash}INT*%
X243840000Y-154940000D03*
%TO.N,/HALT*%
X318770000Y-161290000D03*
X82550000Y-49530000D03*
X86360000Y-236220000D03*
X318770000Y-237490000D03*
%TO.N,/MREQ*%
X83820000Y-48260000D03*
X87630000Y-170180000D03*
X284480000Y-162560000D03*
%TO.N,/IORQ*%
X247650000Y-177800000D03*
X114300000Y-181610000D03*
X295910000Y-177800000D03*
X82550000Y-181610000D03*
X193040000Y-181610000D03*
X220980000Y-177800000D03*
%TO.N,/WR*%
X125730000Y-194310000D03*
X81280000Y-194310000D03*
X313690000Y-190500000D03*
X76200000Y-50800000D03*
X76200000Y-78740000D03*
X347980000Y-190500000D03*
X52070000Y-194310000D03*
X219710000Y-190500000D03*
X64770000Y-50800000D03*
%TO.N,/BUSACK*%
X321310000Y-238760000D03*
X321310000Y-160020000D03*
X41910000Y-237490000D03*
%TO.N,/M1*%
X314960000Y-194310000D03*
X222250000Y-195580000D03*
X78740000Y-49530000D03*
X213360000Y-195580000D03*
X213360000Y-153670000D03*
X195580000Y-198120000D03*
X83820000Y-198120000D03*
%TO.N,/IO/A0*%
X316230000Y-179070000D03*
X63500000Y-87630000D03*
X68580000Y-182880000D03*
X44450000Y-182880000D03*
X68580000Y-148590000D03*
X231140000Y-179070000D03*
X356870000Y-179070000D03*
X62230000Y-48260000D03*
X210820000Y-179070000D03*
%TO.N,/IO/A1*%
X358140000Y-180340000D03*
X63500000Y-96520000D03*
X209550000Y-180340000D03*
X67310000Y-184150000D03*
X229870000Y-180340000D03*
X317500000Y-180340000D03*
%TO.N,/IO/A2*%
X308610000Y-181610000D03*
X66040000Y-185420000D03*
X59690000Y-48260000D03*
X359410000Y-181610000D03*
X228600000Y-181610000D03*
%TO.N,/IO/A3*%
X307340000Y-182880000D03*
X227330000Y-182880000D03*
X64770000Y-186690000D03*
%TO.N,/IO/A4*%
X57150000Y-48260000D03*
X63500000Y-187960000D03*
X306070000Y-184150000D03*
X226060000Y-184150000D03*
%TO.N,/IO/A5*%
X252730000Y-185420000D03*
X62230000Y-189230000D03*
X224790000Y-185420000D03*
X304800000Y-185420000D03*
%TO.N,/IO/A6*%
X303530000Y-186690000D03*
X223520000Y-186690000D03*
X60960000Y-190500000D03*
X250190000Y-186690000D03*
X54610000Y-48260000D03*
%TO.N,/IO/A7*%
X59690000Y-191770000D03*
X248920000Y-187960000D03*
X222250000Y-187960000D03*
X302260000Y-187960000D03*
%TO.N,/IO/A8*%
X241300000Y-111760000D03*
%TO.N,/IO/A9*%
X50800000Y-49530000D03*
%TO.N,/IO/A10*%
X275590000Y-114300000D03*
%TO.N,/ROM_CE*%
X246380000Y-153670000D03*
X281940000Y-193040000D03*
X246380000Y-194310000D03*
%TO.N,/PPI_CE*%
X255270000Y-232410000D03*
X90170000Y-231140000D03*
%TO.N,/RESET_IO*%
X325120000Y-68580000D03*
X134620000Y-80010000D03*
%TO.N,/RX*%
X368300000Y-151130000D03*
%TO.N,/TX*%
X363220000Y-158750000D03*
X374650000Y-153670000D03*
%TO.N,/UART_CE*%
X262890000Y-196850000D03*
X342900000Y-196850000D03*
%TO.N,Net-(U5-Pad32)*%
X354330000Y-171450000D03*
X361950000Y-171450000D03*
%TO.N,Net-(U17-Pad2)*%
X187960000Y-161290000D03*
X147320000Y-161290000D03*
%TO.N,/VIDEO/VA4*%
X186690000Y-115570000D03*
%TO.N,Net-(U17-Pad6)*%
X161290000Y-162560000D03*
X146050000Y-162560000D03*
%TO.N,Net-(U10-Pad1)*%
X189230000Y-163830000D03*
X189230000Y-120650000D03*
X135890000Y-224790000D03*
X135895000Y-163825000D03*
%TO.N,Net-(U10-Pad11)*%
X175260000Y-153670000D03*
%TO.N,/VIDEO/VD7*%
X177800000Y-156210000D03*
X157480000Y-156210000D03*
%TO.N,/VIDEO/VD6*%
X154940000Y-157480000D03*
X179070000Y-157480000D03*
X128270000Y-157480000D03*
%TO.N,/VIDEO/VD5*%
X180340000Y-158750000D03*
X130810000Y-158750000D03*
X152400000Y-158750000D03*
%TO.N,/VIDEO/VD4*%
X133350000Y-160020000D03*
X149860000Y-160020000D03*
X181610000Y-160020000D03*
%TO.N,/VIDEO/{slash}CAS*%
X176530000Y-168910000D03*
X154940000Y-168910000D03*
X104140000Y-168910000D03*
%TO.N,Net-(U13-Pad12)*%
X279400000Y-195580000D03*
X355600000Y-195580000D03*
%TO.N,/CTC_CE*%
X243635000Y-194105000D03*
X262890000Y-224790000D03*
X250190000Y-224585000D03*
X212090000Y-194310000D03*
%TO.N,/PSG_CE*%
X265430000Y-193040000D03*
X43180000Y-196850000D03*
%TO.N,/VDP_CE*%
X115570000Y-195580000D03*
X264160000Y-191770000D03*
%TO.N,/VIDEO/{slash}RAS*%
X149860000Y-167640000D03*
X105410000Y-167640000D03*
%TO.N,/SOUND/ROW7*%
X31750000Y-176530000D03*
%TO.N,/SOUND/COL7*%
X25400000Y-175260000D03*
%TO.N,/SOUND/COL6*%
X21590000Y-173990000D03*
%TO.N,/SOUND/COL5*%
X22860000Y-172720000D03*
%TO.N,/SOUND/COL4*%
X24130000Y-171450000D03*
%TO.N,/SOUND/COL3*%
X20320000Y-170180000D03*
%TO.N,/SOUND/COL2*%
X26670000Y-168910000D03*
%TO.N,/SOUND/COL1*%
X27940000Y-167640000D03*
%TO.N,/SOUND/COL0*%
X29210000Y-177800000D03*
%TO.N,VCC*%
X218440000Y-198120000D03*
X330200000Y-107950000D03*
X129540000Y-200660000D03*
%TO.N,/DEV_CS1*%
X260350000Y-231140000D03*
X40640000Y-229870000D03*
%TO.N,Net-(U26-Pad9)*%
X176530000Y-212090000D03*
%TO.N,Net-(JP3-Pad2)*%
X175260000Y-229870000D03*
X175260000Y-204470000D03*
%TO.N,/IO/Casette Interface/PC7*%
X130810000Y-83820000D03*
%TO.N,/IO/Casette Interface/PC6*%
X189230000Y-99060000D03*
%TO.N,/IO/Casette Interface/PC5*%
X196850000Y-97790000D03*
%TO.N,/IO/Casette Interface/PC3*%
X196850000Y-85090000D03*
%TO.N,/RD*%
X80010000Y-193040000D03*
X283210000Y-189230000D03*
X191770000Y-193040000D03*
X74930000Y-93980000D03*
X311150000Y-189230000D03*
X120650000Y-193040000D03*
X360680000Y-189230000D03*
%TD*%
M02*
