M48
; DRILL file {KiCad (6.0.6)} date Fri Aug  5 00:57:18 2022
; FORMAT={-:-/ absolute / metric / decimal}
; #@! TF.CreationDate,2022-08-05T00:57:18+02:00
; #@! TF.GenerationSoftware,Kicad,Pcbnew,(6.0.6)
; #@! TF.FileFunction,Plated,1,4,PTH
FMAT,2
METRIC
; #@! TA.AperFunction,Plated,PTH,ViaDrill
T1C0.400
; #@! TA.AperFunction,Plated,PTH,ComponentDrill
T2C0.750
; #@! TA.AperFunction,Plated,PTH,ComponentDrill
T3C0.800
; #@! TA.AperFunction,Plated,PTH,ComponentDrill
T4C0.900
; #@! TA.AperFunction,Plated,PTH,ComponentDrill
T5C1.000
; #@! TA.AperFunction,Plated,PTH,ComponentDrill
T6C1.100
; #@! TA.AperFunction,Plated,PTH,ComponentDrill
T7C1.200
; #@! TA.AperFunction,Plated,PTH,ComponentDrill
T8C1.400
; #@! TA.AperFunction,Plated,PTH,ComponentDrill
T9C1.550
; #@! TA.AperFunction,Plated,PTH,ComponentDrill
T10C2.850
; #@! TA.AperFunction,Plated,PTH,ComponentDrill
T11C3.200
%
G90
G05
T1
X20.32Y-170.18
X21.59Y-173.99
X22.86Y-172.72
X24.13Y-171.45
X25.4Y-175.26
X26.67Y-168.91
X27.94Y-167.64
X29.21Y-177.8
X31.75Y-176.53
X34.29Y-49.53
X34.29Y-63.5
X40.64Y-93.98
X40.64Y-229.87
X41.91Y-55.88
X41.91Y-237.49
X44.45Y-49.53
X44.45Y-58.42
X44.45Y-93.98
X45.085Y-195.58
X45.72Y-50.8
X48.26Y-149.86
X48.26Y-182.88
X49.53Y-48.26
X50.8Y-49.53
X50.8Y-92.71
X52.07Y-93.98
X52.07Y-194.31
X54.61Y-48.26
X57.15Y-48.26
X57.15Y-114.3
X58.42Y-233.68
X59.69Y-48.26
X59.69Y-191.77
X60.96Y-190.5
X62.23Y-48.26
X62.23Y-93.98
X62.23Y-189.23
X63.5Y-49.53
X63.5Y-87.63
X63.5Y-187.96
X64.77Y-50.8
X64.77Y-86.36
X64.77Y-186.69
X66.04Y-73.66
X66.04Y-185.42
X67.31Y-48.26
X67.31Y-74.93
X67.31Y-184.15
X68.58Y-85.09
X68.58Y-148.59
X68.58Y-182.88
X69.85Y-48.26
X69.85Y-83.82
X69.85Y-143.51
X69.85Y-158.75
X69.85Y-180.34
X71.12Y-82.55
X71.12Y-140.97
X71.12Y-161.29
X71.12Y-179.07
X72.39Y-48.26
X72.39Y-81.28
X72.39Y-138.43
X72.39Y-163.83
X72.39Y-177.8
X73.66Y-80.01
X73.66Y-135.89
X73.66Y-166.37
X73.66Y-176.53
X74.93Y-92.71
X74.93Y-133.35
X74.93Y-175.26
X76.2Y-50.8
X76.2Y-78.74
X76.2Y-130.81
X76.2Y-162.56
X76.2Y-173.99
X77.47Y-128.27
X77.47Y-160.02
X77.47Y-172.72
X78.74Y-49.53
X78.74Y-125.73
X78.74Y-157.48
X78.74Y-171.45
X80.01Y-48.26
X80.01Y-193.04
X80.645Y-95.885
X81.28Y-194.31
X82.55Y-49.53
X82.55Y-181.61
X83.82Y-48.26
X83.82Y-196.85
X85.09Y-232.41
X86.36Y-236.22
X87.63Y-170.18
X88.9Y-234.95
X90.17Y-231.14
X91.44Y-108.585
X91.44Y-228.6
X104.14Y-168.91
X105.41Y-167.64
X106.68Y-95.885
X106.68Y-114.3
X110.49Y-175.26
X114.3Y-179.07
X115.57Y-193.04
X117.475Y-85.725
X118.745Y-84.455
X120.015Y-83.185
X120.65Y-190.5
X124.46Y-62.865
X125.73Y-61.595
X125.73Y-112.395
X125.73Y-191.77
X127.0Y-196.85
X128.27Y-157.48
X130.81Y-158.75
X132.08Y-58.42
X133.35Y-59.055
X133.35Y-160.02
X133.985Y-50.8
X135.895Y-163.825
X138.43Y-59.055
X145.415Y-92.075
X146.05Y-162.56
X146.685Y-88.265
X147.32Y-161.29
X149.86Y-160.02
X149.86Y-165.1
X152.4Y-158.75
X154.94Y-157.48
X154.94Y-165.1
X156.21Y-163.83
X157.48Y-156.21
X161.29Y-162.56
X175.26Y-153.67
X175.26Y-204.47
X175.26Y-229.87
X175.895Y-52.705
X176.53Y-165.1
X176.53Y-212.09
X177.8Y-156.21
X177.8Y-171.45
X179.07Y-157.48
X179.07Y-170.18
X180.34Y-158.75
X180.34Y-168.91
X181.61Y-160.02
X181.61Y-167.64
X185.42Y-172.72
X186.69Y-115.57
X187.96Y-161.29
X187.96Y-173.99
X189.23Y-120.65
X189.23Y-163.83
X189.23Y-175.26
X190.5Y-172.72
X191.77Y-189.23
X193.04Y-177.8
X194.31Y-176.53
X196.215Y-86.995
X196.76Y-194.31
X198.209Y-176.53
X199.39Y-195.58
X199.48Y-175.26
X200.749Y-173.99
X202.204Y-171.45
X203.2Y-170.18
X204.47Y-168.91
X205.105Y-93.345
X205.74Y-167.64
X206.375Y-94.615
X207.645Y-90.805
X208.28Y-180.34
X208.915Y-89.535
X209.55Y-179.07
X210.185Y-92.075
X210.82Y-194.31
X218.44Y-95.885
X219.71Y-97.155
X219.71Y-190.5
X220.98Y-177.8
X222.25Y-187.96
X222.25Y-195.58
X223.52Y-186.69
X224.79Y-109.22
X224.79Y-185.42
X226.06Y-184.15
X227.33Y-182.88
X228.6Y-181.61
X229.87Y-180.34
X231.14Y-179.07
X233.68Y-157.48
X241.3Y-111.76
X243.84Y-154.94
X243.84Y-194.31
X243.84Y-218.44
X246.38Y-153.67
X246.38Y-194.31
X247.65Y-177.8
X248.92Y-187.96
X250.19Y-186.69
X252.73Y-185.42
X255.27Y-232.41
X256.54Y-157.48
X257.81Y-232.41
X259.08Y-170.18
X260.35Y-123.19
X260.35Y-168.91
X260.35Y-231.14
X261.62Y-86.995
X261.62Y-167.64
X262.89Y-196.85
X264.16Y-191.77
X265.43Y-176.53
X265.43Y-193.04
X266.7Y-175.26
X267.97Y-173.99
X269.24Y-172.72
X271.78Y-171.45
X271.78Y-226.06
X274.32Y-118.11
X274.32Y-189.23
X275.59Y-114.3
X276.86Y-95.885
X276.86Y-108.585
X276.86Y-151.13
X276.86Y-231.14
X279.4Y-195.58
X281.94Y-193.04
X283.21Y-189.23
X284.48Y-162.56
X285.75Y-156.21
X288.29Y-173.99
X289.56Y-175.26
X290.195Y-97.155
X290.83Y-170.18
X292.1Y-176.53
X293.37Y-167.64
X295.91Y-177.8
X298.45Y-168.91
X299.72Y-95.885
X299.72Y-171.45
X300.355Y-190.5
X300.99Y-172.72
X302.26Y-187.96
X303.53Y-186.69
X304.8Y-185.42
X306.07Y-184.15
X306.705Y-231.14
X307.34Y-182.88
X308.61Y-181.61
X311.15Y-189.23
X313.69Y-190.5
X314.96Y-194.31
X316.23Y-179.07
X316.23Y-230.505
X317.5Y-180.34
X317.5Y-228.6
X318.77Y-161.29
X318.77Y-237.49
X320.04Y-233.68
X321.31Y-160.02
X321.31Y-238.76
X325.12Y-234.95
X330.2Y-107.95
X330.2Y-236.22
X332.74Y-167.64
X334.01Y-168.91
X335.28Y-170.18
X336.55Y-171.45
X337.82Y-172.72
X339.09Y-173.99
X340.36Y-175.26
X341.63Y-176.53
X342.9Y-196.85
X347.98Y-190.5
X354.33Y-171.45
X355.6Y-195.58
X356.87Y-179.07
X358.14Y-180.34
X359.41Y-181.61
X360.68Y-189.23
X361.95Y-171.45
X363.22Y-158.75
X368.3Y-151.13
X372.11Y-160.02
X374.65Y-153.67
X379.73Y-161.29
X384.175Y-213.995
X384.175Y-226.06
X393.7Y-160.02
X393.7Y-165.1
X393.7Y-191.77
X393.7Y-214.63
T2
X173.355Y-73.025
X174.625Y-73.025
X175.895Y-73.025
X293.37Y-86.995
X293.37Y-88.265
X293.37Y-89.535
X330.2Y-65.386
X330.2Y-66.656
X330.2Y-67.926
T3
X17.78Y-91.44
X17.78Y-93.98
X17.78Y-96.52
X17.78Y-99.06
X17.86Y-86.36
X20.32Y-110.49
X20.32Y-115.49
X21.59Y-76.24
X21.59Y-78.74
X22.86Y-86.36
X25.4Y-91.44
X25.4Y-93.98
X25.4Y-96.52
X25.4Y-99.06
X27.94Y-110.349
X27.94Y-112.349
X29.845Y-77.51
X29.845Y-82.51
X31.115Y-99.06
X31.115Y-102.87
X31.115Y-106.68
X31.195Y-86.36
X33.655Y-72.39
X33.655Y-82.55
X36.195Y-86.36
X39.39Y-118.035
X39.39Y-120.575
X39.39Y-123.115
X39.39Y-125.655
X39.39Y-128.195
X39.39Y-130.735
X39.39Y-133.275
X39.39Y-135.815
X39.39Y-138.355
X39.39Y-140.895
X39.39Y-143.435
X39.39Y-145.975
X39.39Y-148.515
X39.39Y-151.055
X39.39Y-153.595
X39.39Y-156.135
X39.39Y-158.675
X39.39Y-161.215
X39.39Y-163.755
X39.39Y-166.295
X41.275Y-99.06
X41.275Y-102.87
X41.275Y-106.68
X47.0Y-204.465
X47.0Y-207.005
X47.0Y-209.545
X47.0Y-212.085
X47.0Y-214.625
X47.0Y-217.165
X47.0Y-219.705
X49.61Y-114.3
X49.61Y-200.66
X54.61Y-114.3
X54.61Y-200.66
X54.62Y-204.465
X54.62Y-207.005
X54.62Y-209.545
X54.62Y-212.085
X54.62Y-214.625
X54.62Y-217.165
X54.62Y-219.705
X54.63Y-118.035
X54.63Y-120.575
X54.63Y-123.115
X54.63Y-125.655
X54.63Y-128.195
X54.63Y-130.735
X54.63Y-133.275
X54.63Y-135.815
X54.63Y-138.355
X54.63Y-140.895
X54.63Y-143.435
X54.63Y-145.975
X54.63Y-148.515
X54.63Y-151.055
X54.63Y-153.595
X54.63Y-156.135
X54.63Y-158.675
X54.63Y-161.215
X54.63Y-163.755
X54.63Y-166.295
X87.63Y-63.589
X87.63Y-71.209
X87.64Y-50.8
X87.64Y-58.42
X90.18Y-50.8
X90.18Y-58.42
X91.44Y-63.5
X91.44Y-71.12
X92.715Y-76.205
X92.715Y-91.445
X92.72Y-50.8
X92.72Y-58.42
X95.25Y-63.589
X95.25Y-71.209
X95.25Y-118.215
X95.25Y-120.755
X95.25Y-123.295
X95.25Y-125.835
X95.25Y-128.375
X95.25Y-130.915
X95.25Y-133.455
X95.25Y-135.995
X95.25Y-138.535
X95.25Y-141.075
X95.25Y-143.615
X95.25Y-146.155
X95.25Y-148.695
X95.25Y-151.235
X95.25Y-153.775
X95.25Y-156.315
X95.25Y-158.855
X95.25Y-161.395
X95.25Y-163.935
X95.25Y-166.475
X95.255Y-76.205
X95.255Y-91.445
X95.26Y-50.8
X95.26Y-58.42
X97.795Y-76.205
X97.795Y-91.445
X99.06Y-63.589
X99.06Y-71.209
X100.335Y-76.205
X100.335Y-91.445
X102.875Y-76.205
X102.875Y-91.445
X105.415Y-76.205
X105.415Y-91.445
X107.955Y-76.205
X107.955Y-91.445
X110.49Y-118.215
X110.49Y-120.755
X110.49Y-123.295
X110.49Y-125.835
X110.49Y-128.375
X110.49Y-130.915
X110.49Y-133.455
X110.49Y-135.995
X110.49Y-138.535
X110.49Y-141.075
X110.49Y-143.615
X110.49Y-146.155
X110.49Y-148.695
X110.49Y-151.235
X110.49Y-153.775
X110.49Y-156.315
X110.49Y-158.855
X110.49Y-161.395
X110.49Y-163.935
X110.49Y-166.475
X110.495Y-76.205
X110.495Y-91.445
X113.035Y-76.205
X113.035Y-91.445
X114.28Y-140.97
X115.51Y-118.11
X115.51Y-123.01
X115.555Y-204.465
X115.555Y-207.005
X115.555Y-209.545
X115.555Y-212.085
X115.555Y-214.625
X115.555Y-217.165
X115.555Y-219.705
X115.57Y-157.48
X115.575Y-76.205
X115.575Y-91.445
X118.115Y-76.205
X118.115Y-91.445
X118.19Y-200.66
X119.28Y-140.97
X120.63Y-123.19
X120.655Y-76.205
X120.655Y-91.445
X120.67Y-118.11
X123.175Y-204.465
X123.175Y-207.005
X123.175Y-209.545
X123.175Y-212.085
X123.175Y-214.625
X123.175Y-217.165
X123.175Y-219.705
X123.19Y-72.35
X123.19Y-157.48
X123.19Y-200.66
X123.195Y-76.205
X123.195Y-91.445
X125.63Y-123.19
X125.67Y-118.11
X125.735Y-76.205
X125.735Y-91.445
X127.08Y-130.81
X128.19Y-72.35
X128.275Y-76.205
X128.275Y-91.445
X130.815Y-76.205
X130.815Y-91.445
X132.08Y-115.57
X132.08Y-120.57
X132.08Y-130.81
X132.08Y-146.09
X132.08Y-151.09
X133.355Y-76.205
X133.355Y-91.445
X135.89Y-130.91
X135.89Y-138.53
X135.895Y-76.205
X135.895Y-91.445
X135.895Y-115.66
X135.895Y-123.28
X135.895Y-146.14
X135.895Y-153.76
X138.43Y-130.91
X138.43Y-138.53
X138.435Y-76.205
X138.435Y-91.445
X138.435Y-115.66
X138.435Y-123.28
X138.435Y-146.14
X138.435Y-153.76
X140.97Y-130.91
X140.97Y-138.53
X140.975Y-76.205
X140.975Y-91.445
X140.975Y-115.66
X140.975Y-123.28
X140.975Y-146.14
X140.975Y-153.76
X143.51Y-130.91
X143.51Y-138.53
X143.515Y-115.66
X143.515Y-123.28
X143.515Y-146.14
X143.515Y-153.76
X146.05Y-130.91
X146.05Y-138.53
X146.055Y-115.66
X146.055Y-123.28
X146.055Y-146.14
X146.055Y-153.76
X148.59Y-130.91
X148.59Y-138.53
X148.595Y-115.66
X148.595Y-123.28
X148.595Y-146.14
X148.595Y-153.76
X149.86Y-204.465
X149.86Y-207.005
X149.86Y-209.545
X149.86Y-212.085
X149.86Y-214.625
X149.86Y-217.165
X149.86Y-219.705
X151.13Y-130.91
X151.13Y-138.53
X151.135Y-115.66
X151.135Y-123.28
X151.135Y-146.14
X151.135Y-153.76
X152.47Y-200.66
X153.67Y-130.91
X153.67Y-138.53
X153.675Y-115.66
X153.675Y-123.28
X153.675Y-146.14
X153.675Y-153.76
X156.21Y-130.91
X156.21Y-138.53
X156.215Y-115.66
X156.215Y-123.28
X156.215Y-146.14
X156.215Y-153.76
X157.47Y-200.66
X157.48Y-204.465
X157.48Y-207.005
X157.48Y-209.545
X157.48Y-212.085
X157.48Y-214.625
X157.48Y-217.165
X157.48Y-219.705
X158.75Y-130.91
X158.75Y-138.53
X158.755Y-115.66
X158.755Y-123.28
X158.755Y-146.14
X158.755Y-153.76
X159.385Y-68.025
X159.385Y-73.105
X159.385Y-78.185
X168.91Y-118.11
X168.91Y-120.65
X168.91Y-123.19
X168.91Y-125.73
X168.91Y-128.27
X168.91Y-130.81
X168.91Y-133.35
X168.91Y-135.89
X168.91Y-138.43
X168.91Y-140.97
X168.91Y-143.51
X168.91Y-146.05
X168.91Y-148.59
X168.91Y-151.13
X169.545Y-68.025
X169.545Y-73.105
X169.545Y-78.185
X173.355Y-38.735
X173.355Y-46.355
X179.15Y-114.3
X179.705Y-73.225
X179.705Y-78.225
X180.34Y-38.735
X180.34Y-46.355
X184.1Y-204.48
X184.1Y-207.02
X184.1Y-209.56
X184.1Y-212.1
X184.1Y-214.64
X184.1Y-217.18
X184.1Y-219.72
X184.1Y-222.26
X184.1Y-224.8
X184.1Y-227.34
X184.15Y-114.3
X184.15Y-118.11
X184.15Y-120.65
X184.15Y-123.19
X184.15Y-125.73
X184.15Y-128.27
X184.15Y-130.81
X184.15Y-133.35
X184.15Y-135.89
X184.15Y-138.43
X184.15Y-140.97
X184.15Y-143.51
X184.15Y-146.05
X184.15Y-148.59
X184.15Y-151.13
X186.69Y-43.14
X186.69Y-46.95
X186.77Y-50.76
X186.77Y-200.66
X191.72Y-204.48
X191.72Y-207.02
X191.72Y-209.56
X191.72Y-212.1
X191.72Y-214.64
X191.72Y-217.18
X191.72Y-219.72
X191.72Y-222.26
X191.72Y-224.8
X191.72Y-227.34
X191.77Y-50.76
X191.77Y-67.31
X191.77Y-72.39
X191.77Y-77.47
X191.77Y-200.66
X194.31Y-43.14
X194.31Y-46.95
X195.58Y-154.94
X195.58Y-162.56
X195.63Y-118.16
X195.63Y-120.7
X195.63Y-123.24
X195.63Y-125.78
X195.63Y-128.32
X195.63Y-130.86
X195.63Y-133.4
X195.63Y-135.94
X195.63Y-138.48
X195.63Y-141.02
X195.63Y-143.56
X195.63Y-146.1
X195.63Y-148.64
X195.63Y-151.18
X198.12Y-44.45
X198.12Y-49.45
X199.39Y-67.31
X199.39Y-72.39
X199.39Y-77.47
X199.47Y-204.49
X199.47Y-207.03
X199.47Y-209.57
X199.47Y-212.11
X199.47Y-214.65
X199.47Y-217.19
X199.47Y-219.73
X199.47Y-222.27
X202.01Y-114.3
X202.065Y-200.665
X203.2Y-64.77
X203.2Y-67.31
X203.2Y-69.85
X203.2Y-72.39
X203.2Y-74.93
X203.2Y-77.47
X203.2Y-80.01
X205.82Y-60.96
X207.01Y-114.3
X207.065Y-200.665
X207.09Y-204.49
X207.09Y-207.03
X207.09Y-209.57
X207.09Y-212.11
X207.09Y-214.65
X207.09Y-217.19
X207.09Y-219.73
X207.09Y-222.27
X210.82Y-60.96
X210.82Y-64.77
X210.82Y-67.31
X210.82Y-69.85
X210.82Y-72.39
X210.82Y-74.93
X210.82Y-77.47
X210.82Y-80.01
X210.87Y-118.16
X210.87Y-120.7
X210.87Y-123.24
X210.87Y-125.78
X210.87Y-128.32
X210.87Y-130.86
X210.87Y-133.4
X210.87Y-135.94
X210.87Y-138.48
X210.87Y-141.02
X210.87Y-143.56
X210.87Y-146.1
X210.87Y-148.64
X210.87Y-151.18
X213.455Y-201.935
X213.455Y-204.475
X213.455Y-207.015
X213.455Y-209.555
X213.455Y-212.095
X213.455Y-214.635
X213.455Y-217.175
X213.455Y-219.715
X213.455Y-222.255
X214.63Y-64.77
X214.63Y-69.85
X214.63Y-74.93
X214.63Y-80.01
X222.25Y-64.77
X222.25Y-69.85
X222.25Y-74.93
X222.25Y-80.01
X222.29Y-204.47
X222.29Y-207.01
X222.29Y-209.55
X222.29Y-212.09
X222.29Y-214.63
X222.29Y-217.17
X222.29Y-219.71
X224.83Y-200.66
X229.235Y-73.025
X229.235Y-80.645
X229.83Y-200.66
X229.91Y-204.47
X229.91Y-207.01
X229.91Y-209.55
X229.91Y-212.09
X229.91Y-214.63
X229.91Y-217.17
X229.91Y-219.71
X233.045Y-73.025
X233.045Y-80.645
X233.68Y-118.11
X233.68Y-120.65
X233.68Y-123.19
X233.68Y-125.73
X233.68Y-128.27
X233.68Y-130.81
X233.68Y-133.35
X233.68Y-135.89
X233.68Y-138.43
X233.68Y-140.97
X233.68Y-143.51
X233.68Y-146.05
X233.68Y-148.59
X233.68Y-151.13
X236.302Y-59.055
X236.855Y-65.405
X236.855Y-70.405
X236.855Y-73.025
X236.855Y-80.645
X238.802Y-59.055
X240.665Y-73.025
X240.665Y-80.645
X243.92Y-113.025
X244.475Y-73.025
X244.475Y-80.645
X248.285Y-73.025
X248.285Y-80.645
X248.92Y-113.025
X248.92Y-118.11
X248.92Y-120.65
X248.92Y-123.19
X248.92Y-125.73
X248.92Y-128.27
X248.92Y-130.81
X248.92Y-133.35
X248.92Y-135.89
X248.92Y-138.43
X248.92Y-140.97
X248.92Y-143.51
X248.92Y-146.05
X248.92Y-148.59
X248.92Y-151.13
X252.095Y-73.025
X252.095Y-80.645
X252.73Y-204.565
X252.73Y-207.105
X252.73Y-209.645
X252.73Y-212.185
X252.73Y-214.725
X252.73Y-217.265
X252.73Y-219.805
X252.73Y-222.345
X255.35Y-200.765
X255.905Y-73.025
X255.905Y-80.645
X256.54Y-118.11
X256.54Y-120.65
X256.54Y-123.19
X256.54Y-125.73
X256.54Y-128.27
X256.54Y-130.81
X256.54Y-133.35
X256.54Y-135.89
X256.54Y-138.43
X256.54Y-140.97
X256.54Y-143.51
X256.54Y-146.05
X256.54Y-148.59
X256.54Y-151.13
X259.715Y-68.58
X259.715Y-73.035
X259.715Y-75.575
X259.715Y-78.115
X259.715Y-80.655
X260.35Y-200.765
X260.35Y-204.565
X260.35Y-207.105
X260.35Y-209.645
X260.35Y-212.185
X260.35Y-214.725
X260.35Y-217.265
X260.35Y-219.805
X260.35Y-222.345
X266.7Y-113.025
X267.335Y-68.58
X267.335Y-73.035
X267.335Y-75.575
X267.335Y-78.115
X267.335Y-80.655
X268.358Y-43.265
X268.358Y-48.265
X269.215Y-204.57
X269.215Y-207.11
X269.215Y-209.65
X269.215Y-212.19
X269.215Y-214.73
X269.215Y-217.27
X269.215Y-219.81
X271.7Y-113.025
X271.78Y-118.11
X271.78Y-120.65
X271.78Y-123.19
X271.78Y-125.73
X271.78Y-128.27
X271.78Y-130.81
X271.78Y-133.35
X271.78Y-135.89
X271.78Y-138.43
X271.78Y-140.97
X271.78Y-143.51
X271.78Y-146.05
X271.78Y-148.59
X271.78Y-151.13
X271.85Y-200.66
X272.415Y-34.925
X272.415Y-38.1
X276.835Y-204.57
X276.835Y-207.11
X276.835Y-209.65
X276.835Y-212.19
X276.835Y-214.73
X276.835Y-217.27
X276.835Y-219.81
X276.85Y-200.66
X280.035Y-34.925
X280.035Y-38.1
X280.67Y-88.265
X284.47Y-204.46
X284.47Y-207.0
X284.47Y-209.54
X284.47Y-212.08
X284.47Y-214.62
X284.47Y-217.16
X284.47Y-219.7
X284.47Y-222.24
X287.1Y-200.66
X288.29Y-88.265
X288.29Y-137.16
X288.29Y-142.16
X292.09Y-204.46
X292.09Y-207.0
X292.09Y-209.54
X292.09Y-212.08
X292.09Y-214.62
X292.09Y-217.16
X292.09Y-219.7
X292.09Y-222.24
X292.1Y-200.66
X295.91Y-116.84
X295.91Y-119.38
X295.91Y-121.92
X295.91Y-124.46
X295.91Y-127.0
X295.91Y-129.54
X295.91Y-132.08
X295.91Y-134.62
X295.91Y-137.16
X295.91Y-139.7
X295.91Y-142.24
X295.91Y-144.78
X295.91Y-147.32
X295.91Y-149.86
X295.91Y-152.4
X295.91Y-154.94
X295.91Y-157.48
X295.91Y-160.02
X295.91Y-162.56
X295.91Y-165.1
X298.45Y-43.18
X298.45Y-50.8
X300.355Y-204.47
X300.355Y-207.01
X300.355Y-209.55
X300.355Y-212.09
X300.355Y-214.63
X300.355Y-217.17
X300.355Y-219.71
X300.99Y-100.33
X300.99Y-107.95
X302.27Y-66.035
X302.27Y-68.575
X302.27Y-71.115
X302.27Y-73.655
X302.27Y-76.195
X302.27Y-78.735
X302.27Y-81.275
X302.935Y-200.66
X304.88Y-60.96
X307.935Y-200.66
X307.975Y-204.47
X307.975Y-207.01
X307.975Y-209.55
X307.975Y-212.09
X307.975Y-214.63
X307.975Y-217.17
X307.975Y-219.71
X308.61Y-100.33
X308.61Y-107.95
X309.88Y-60.96
X309.89Y-66.035
X309.89Y-68.575
X309.89Y-71.115
X309.89Y-73.655
X309.89Y-76.195
X309.89Y-78.735
X309.89Y-81.275
X311.15Y-116.84
X311.15Y-119.38
X311.15Y-121.92
X311.15Y-124.46
X311.15Y-127.0
X311.15Y-129.54
X311.15Y-132.08
X311.15Y-134.62
X311.15Y-137.16
X311.15Y-139.7
X311.15Y-142.24
X311.15Y-144.78
X311.15Y-147.32
X311.15Y-149.86
X311.15Y-152.4
X311.15Y-154.94
X311.15Y-157.48
X311.15Y-160.02
X311.15Y-162.56
X311.15Y-165.1
X314.96Y-102.87
X314.96Y-107.87
X314.97Y-66.796
X314.97Y-69.336
X314.97Y-71.876
X314.97Y-74.416
X316.27Y-60.96
X317.54Y-79.356
X318.77Y-60.96
X320.04Y-149.86
X320.04Y-157.48
X322.54Y-79.356
X322.59Y-66.796
X322.59Y-69.336
X322.59Y-71.876
X322.59Y-74.416
X325.12Y-149.86
X325.12Y-157.48
X327.66Y-71.736
X327.66Y-79.356
X330.2Y-149.86
X330.2Y-157.48
X332.74Y-71.736
X332.74Y-79.356
X337.82Y-71.736
X337.82Y-79.356
X342.9Y-71.736
X342.9Y-79.356
X345.44Y-116.84
X345.44Y-119.38
X345.44Y-121.92
X345.44Y-124.46
X345.44Y-127.0
X345.44Y-129.54
X345.44Y-132.08
X345.44Y-134.62
X345.44Y-137.16
X345.44Y-139.7
X345.44Y-142.24
X345.44Y-144.78
X345.44Y-147.32
X345.44Y-149.86
X345.44Y-152.4
X345.44Y-154.94
X345.44Y-157.48
X345.44Y-160.02
X345.44Y-162.56
X345.44Y-165.1
X346.71Y-74.316
X346.71Y-79.316
X355.645Y-111.755
X360.645Y-111.755
X360.68Y-116.84
X360.68Y-119.38
X360.68Y-121.92
X360.68Y-124.46
X360.68Y-127.0
X360.68Y-129.54
X360.68Y-132.08
X360.68Y-134.62
X360.68Y-137.16
X360.68Y-139.7
X360.68Y-142.24
X360.68Y-144.78
X360.68Y-147.32
X360.68Y-149.86
X360.68Y-152.4
X360.68Y-154.94
X360.68Y-157.48
X360.68Y-160.02
X360.68Y-162.56
X360.68Y-165.1
X368.012Y-171.55
X368.3Y-177.84
X368.3Y-180.34
X370.88Y-182.88
X372.765Y-86.36
X372.847Y-75.565
X373.38Y-182.88
X375.265Y-86.36
X375.632Y-171.55
X376.647Y-75.565
X381.0Y-158.83
X381.0Y-163.83
X383.007Y-75.565
X384.81Y-158.75
X384.81Y-163.75
X384.83Y-60.96
X386.807Y-75.565
X386.985Y-196.9
X386.985Y-198.9
X386.985Y-200.9
X386.985Y-202.9
X386.985Y-204.9
X386.985Y-206.9
X386.985Y-208.9
X386.985Y-210.9
X386.985Y-212.9
X386.985Y-214.9
X386.985Y-216.9
X386.985Y-218.9
X386.985Y-220.9
X386.985Y-222.9
X386.985Y-224.9
X386.985Y-226.9
X386.985Y-228.9
X386.985Y-230.9
X386.985Y-232.9
X386.985Y-234.9
X387.33Y-60.96
X387.35Y-116.84
X387.35Y-180.34
X388.985Y-196.9
X388.985Y-198.9
X388.985Y-200.9
X388.985Y-202.9
X388.985Y-204.9
X388.985Y-206.9
X388.985Y-208.9
X388.985Y-210.9
X388.985Y-212.9
X388.985Y-214.9
X388.985Y-216.9
X388.985Y-218.9
X388.985Y-220.9
X388.985Y-222.9
X388.985Y-224.9
X388.985Y-226.9
X388.985Y-228.9
X388.985Y-230.9
X388.985Y-232.9
X388.985Y-234.9
X389.85Y-180.34
X389.89Y-156.21
X389.93Y-162.66
X391.16Y-90.17
X391.16Y-97.79
X392.39Y-156.21
X392.43Y-162.66
X393.7Y-222.25
X393.7Y-232.41
X397.51Y-116.84
X398.78Y-90.17
X398.78Y-97.79
X400.09Y-170.18
X402.59Y-170.18
T4
X173.355Y-33.655
X173.355Y-36.195
X180.34Y-33.655
X180.34Y-36.195
X371.475Y-38.735
X372.745Y-67.945
X379.095Y-38.735
X380.365Y-67.945
X401.95Y-116.84
X402.59Y-90.17
X402.59Y-97.79
X404.49Y-116.84
X405.13Y-90.17
X405.13Y-97.79
T5
X21.59Y-67.31
X24.13Y-67.31
X31.75Y-118.11
X31.75Y-120.65
X31.75Y-123.19
X31.75Y-125.73
X31.75Y-128.27
X31.75Y-130.81
X31.75Y-133.35
X31.75Y-135.89
X31.75Y-138.43
X31.75Y-140.97
X31.75Y-143.51
X31.75Y-146.05
X31.75Y-148.59
X31.75Y-151.13
X31.75Y-153.67
X31.75Y-156.21
X31.75Y-158.75
X31.75Y-161.29
X31.75Y-163.83
X31.75Y-166.37
X215.9Y-119.385
X215.9Y-121.925
X215.9Y-124.465
X215.9Y-127.005
X215.9Y-129.545
X215.9Y-132.085
X215.9Y-134.625
X224.79Y-229.87
X227.33Y-229.87
X370.855Y-187.96
X372.11Y-130.81
X372.11Y-133.35
X372.11Y-135.89
X372.11Y-138.43
X372.11Y-140.97
X372.11Y-143.51
X372.745Y-57.85
X373.395Y-187.96
X375.285Y-57.85
X375.935Y-187.96
X377.825Y-57.85
X387.35Y-187.96
X389.89Y-187.96
T6
X399.36Y-104.14
X399.36Y-110.64
X403.86Y-104.14
X403.86Y-110.64
T7
X272.37Y-43.3
X275.87Y-50.8
X293.37Y-43.3
X293.37Y-50.8
T8
X202.05Y-44.91
X204.55Y-34.91
X204.55Y-47.41
X209.55Y-44.91
X214.55Y-34.91
X214.55Y-47.41
X217.05Y-44.91
T9
X247.65Y-56.21
T10
X240.65Y-48.94
X254.65Y-48.94
T11
X22.86Y-54.61
X22.86Y-210.82
X104.14Y-54.61
X195.58Y-54.61
X397.51Y-210.82
T3
G00X392.43Y-56.51
M15
G01X392.43Y-53.91
M16
G05
G00X396.53Y-50.41
M15
G01X394.33Y-50.41
M16
G05
G00X398.23Y-56.31
M15
G01X398.23Y-54.11
M16
G05
T0
M30
