G04 #@! TF.GenerationSoftware,KiCad,Pcbnew,(5.1.4)-1*
G04 #@! TF.CreationDate,2019-12-23T21:40:39+01:00*
G04 #@! TF.ProjectId,Z80Mini,5a38304d-696e-4692-9e6b-696361645f70,rev?*
G04 #@! TF.SameCoordinates,Original*
G04 #@! TF.FileFunction,Paste,Top*
G04 #@! TF.FilePolarity,Positive*
%FSLAX46Y46*%
G04 Gerber Fmt 4.6, Leading zero omitted, Abs format (unit mm)*
G04 Created by KiCad (PCBNEW (5.1.4)-1) date 2019-12-23 21:40:39*
%MOMM*%
%LPD*%
G04 APERTURE LIST*
%ADD10R,1.750000X0.450000*%
%ADD11R,0.800000X0.900000*%
%ADD12C,0.100000*%
%ADD13C,0.975000*%
%ADD14R,1.700000X2.000000*%
%ADD15R,2.000000X0.500000*%
G04 APERTURE END LIST*
D10*
X209340000Y-131665000D03*
X209340000Y-132315000D03*
X209340000Y-132965000D03*
X209340000Y-133615000D03*
X209340000Y-134265000D03*
X209340000Y-134915000D03*
X209340000Y-135565000D03*
X209340000Y-136215000D03*
X209340000Y-136865000D03*
X209340000Y-137515000D03*
X209340000Y-138165000D03*
X209340000Y-138815000D03*
X209340000Y-139465000D03*
X209340000Y-140115000D03*
X202140000Y-140115000D03*
X202140000Y-139465000D03*
X202140000Y-138815000D03*
X202140000Y-138165000D03*
X202140000Y-137515000D03*
X202140000Y-136865000D03*
X202140000Y-136215000D03*
X202140000Y-135565000D03*
X202140000Y-134915000D03*
X202140000Y-134265000D03*
X202140000Y-133615000D03*
X202140000Y-132965000D03*
X202140000Y-132315000D03*
X202140000Y-131665000D03*
D11*
X181610000Y-132350000D03*
X182560000Y-134350000D03*
X180660000Y-134350000D03*
D12*
G36*
X218707642Y-131381174D02*
G01*
X218731303Y-131384684D01*
X218754507Y-131390496D01*
X218777029Y-131398554D01*
X218798653Y-131408782D01*
X218819170Y-131421079D01*
X218838383Y-131435329D01*
X218856107Y-131451393D01*
X218872171Y-131469117D01*
X218886421Y-131488330D01*
X218898718Y-131508847D01*
X218908946Y-131530471D01*
X218917004Y-131552993D01*
X218922816Y-131576197D01*
X218926326Y-131599858D01*
X218927500Y-131623750D01*
X218927500Y-132536250D01*
X218926326Y-132560142D01*
X218922816Y-132583803D01*
X218917004Y-132607007D01*
X218908946Y-132629529D01*
X218898718Y-132651153D01*
X218886421Y-132671670D01*
X218872171Y-132690883D01*
X218856107Y-132708607D01*
X218838383Y-132724671D01*
X218819170Y-132738921D01*
X218798653Y-132751218D01*
X218777029Y-132761446D01*
X218754507Y-132769504D01*
X218731303Y-132775316D01*
X218707642Y-132778826D01*
X218683750Y-132780000D01*
X218196250Y-132780000D01*
X218172358Y-132778826D01*
X218148697Y-132775316D01*
X218125493Y-132769504D01*
X218102971Y-132761446D01*
X218081347Y-132751218D01*
X218060830Y-132738921D01*
X218041617Y-132724671D01*
X218023893Y-132708607D01*
X218007829Y-132690883D01*
X217993579Y-132671670D01*
X217981282Y-132651153D01*
X217971054Y-132629529D01*
X217962996Y-132607007D01*
X217957184Y-132583803D01*
X217953674Y-132560142D01*
X217952500Y-132536250D01*
X217952500Y-131623750D01*
X217953674Y-131599858D01*
X217957184Y-131576197D01*
X217962996Y-131552993D01*
X217971054Y-131530471D01*
X217981282Y-131508847D01*
X217993579Y-131488330D01*
X218007829Y-131469117D01*
X218023893Y-131451393D01*
X218041617Y-131435329D01*
X218060830Y-131421079D01*
X218081347Y-131408782D01*
X218102971Y-131398554D01*
X218125493Y-131390496D01*
X218148697Y-131384684D01*
X218172358Y-131381174D01*
X218196250Y-131380000D01*
X218683750Y-131380000D01*
X218707642Y-131381174D01*
X218707642Y-131381174D01*
G37*
D13*
X218440000Y-132080000D03*
D12*
G36*
X216832642Y-131381174D02*
G01*
X216856303Y-131384684D01*
X216879507Y-131390496D01*
X216902029Y-131398554D01*
X216923653Y-131408782D01*
X216944170Y-131421079D01*
X216963383Y-131435329D01*
X216981107Y-131451393D01*
X216997171Y-131469117D01*
X217011421Y-131488330D01*
X217023718Y-131508847D01*
X217033946Y-131530471D01*
X217042004Y-131552993D01*
X217047816Y-131576197D01*
X217051326Y-131599858D01*
X217052500Y-131623750D01*
X217052500Y-132536250D01*
X217051326Y-132560142D01*
X217047816Y-132583803D01*
X217042004Y-132607007D01*
X217033946Y-132629529D01*
X217023718Y-132651153D01*
X217011421Y-132671670D01*
X216997171Y-132690883D01*
X216981107Y-132708607D01*
X216963383Y-132724671D01*
X216944170Y-132738921D01*
X216923653Y-132751218D01*
X216902029Y-132761446D01*
X216879507Y-132769504D01*
X216856303Y-132775316D01*
X216832642Y-132778826D01*
X216808750Y-132780000D01*
X216321250Y-132780000D01*
X216297358Y-132778826D01*
X216273697Y-132775316D01*
X216250493Y-132769504D01*
X216227971Y-132761446D01*
X216206347Y-132751218D01*
X216185830Y-132738921D01*
X216166617Y-132724671D01*
X216148893Y-132708607D01*
X216132829Y-132690883D01*
X216118579Y-132671670D01*
X216106282Y-132651153D01*
X216096054Y-132629529D01*
X216087996Y-132607007D01*
X216082184Y-132583803D01*
X216078674Y-132560142D01*
X216077500Y-132536250D01*
X216077500Y-131623750D01*
X216078674Y-131599858D01*
X216082184Y-131576197D01*
X216087996Y-131552993D01*
X216096054Y-131530471D01*
X216106282Y-131508847D01*
X216118579Y-131488330D01*
X216132829Y-131469117D01*
X216148893Y-131451393D01*
X216166617Y-131435329D01*
X216185830Y-131421079D01*
X216206347Y-131408782D01*
X216227971Y-131398554D01*
X216250493Y-131390496D01*
X216273697Y-131384684D01*
X216297358Y-131381174D01*
X216321250Y-131380000D01*
X216808750Y-131380000D01*
X216832642Y-131381174D01*
X216832642Y-131381174D01*
G37*
D13*
X216565000Y-132080000D03*
D14*
X255580000Y-132710000D03*
X250130000Y-132710000D03*
X255580000Y-141610000D03*
X250130000Y-141610000D03*
D15*
X250030000Y-135560000D03*
X250030000Y-136360000D03*
X250030000Y-137160000D03*
X250030000Y-137960000D03*
X250030000Y-138760000D03*
M02*
