M48
INCH,TZ
T1C0.0157
T2C0.0315
T3C0.0354
T4C0.0400
T5C0.0433
%
G90
G05
T1
X30792Y-47165
X30831Y-37006
X30876Y-35045
X30893Y-42781
X31000Y-45485
X31053Y-38002
X31088Y-44000
X31111Y-49137
X31238Y-46910
X31335Y-36584
X31419Y-37198
X31595Y-33507
X31894Y-35789
X32107Y-34768
X32166Y-38782
X33076Y-41068
X33777Y-33679
X33818Y-46938
X34388Y-42326
X34938Y-42024
X35020Y-33057
X35199Y-51046
X35479Y-33502
X37413Y-45413
X37444Y-34291
X37737Y-41354
X37997Y-33475
X38312Y-30042
X38500Y-24500
X38521Y-31461
X38852Y-41386
X39240Y-41826
X39488Y-41498
X40265Y-43176
X40586Y-34949
X40860Y-38132
X40979Y-34290
X42000Y-49500
X42000Y-52500
X42071Y-37929
X42483Y-39955
X44988Y-37156
X45113Y-32350
X45500Y-19500
X45683Y-39176
X46510Y-41941
X46992Y-29115
X48128Y-41417
X48452Y-38947
X48550Y-39965
X50308Y-37265
X55000Y-21000
X55000Y-25500
X55000Y-45500
X56010Y-29138
X56500Y-27500
X63000Y-22000
X63549Y-28876
X65000Y-44000
X65783Y-42294
X69695Y-41724
X72000Y-43000
X73500Y-20500
X74000Y-47000
X74294Y-44025
X74560Y-41443
X75000Y-49000
X75000Y-51500
X76168Y-54246
X76500Y-55334
X76621Y-35028
X76712Y-53352
X77029Y-39530
X77249Y-38447
X77510Y-53483
X77958Y-54657
X78225Y-54364
X78476Y-46299
X79332Y-56281
X80500Y-49500
X80511Y-54604
X82718Y-44410
X83000Y-27500
X86600Y-42649
X88500Y-33500
X89021Y-35057
X93000Y-39500
X93500Y-37302
X93500Y-40000
X94000Y-38500
X94000Y-40500
X94500Y-35500
X94500Y-41000
X95500Y-39500
X95500Y-43500
X97795Y-53250
T2
X67500Y-20500
X70500Y-20500
X98516Y-50500
X99500Y-50500
X55000Y-29000
X55000Y-30000
X55000Y-31000
X55000Y-32000
X55000Y-33000
X55000Y-34000
X55000Y-35000
X55000Y-36000
X55000Y-37000
X55000Y-38000
X55000Y-39000
X55000Y-40000
X55000Y-41000
X55000Y-42000
X61000Y-29000
X61000Y-30000
X61000Y-31000
X61000Y-32000
X61000Y-33000
X61000Y-34000
X61000Y-35000
X61000Y-36000
X61000Y-37000
X61000Y-38000
X61000Y-39000
X61000Y-40000
X61000Y-41000
X61000Y-42000
X82000Y-22000
X85000Y-22000
X56000Y-21000
X56000Y-24000
X57000Y-21000
X57000Y-24000
X58000Y-21000
X58000Y-24000
X59000Y-21000
X59000Y-24000
X60000Y-21000
X60000Y-24000
X61000Y-21000
X61000Y-24000
X62000Y-21000
X62000Y-24000
X79000Y-51000
X79787Y-51000
X79500Y-27500
X81469Y-27500
X65000Y-29000
X65000Y-30000
X65000Y-31000
X65000Y-32000
X65000Y-33000
X65000Y-34000
X65000Y-35000
X65000Y-36000
X65000Y-37000
X65000Y-38000
X65000Y-39000
X65000Y-40000
X65000Y-41000
X65000Y-42000
X71000Y-29000
X71000Y-30000
X71000Y-31000
X71000Y-32000
X71000Y-33000
X71000Y-34000
X71000Y-35000
X71000Y-36000
X71000Y-37000
X71000Y-38000
X71000Y-39000
X71000Y-40000
X71000Y-41000
X71000Y-42000
X82000Y-20500
X85000Y-20500
X94500Y-45500
X97500Y-45500
X54000Y-21031
X54000Y-23000
X85177Y-29047
X85177Y-30047
X85177Y-31047
X85177Y-32047
X85177Y-33047
X85177Y-34047
X85177Y-35047
X85177Y-36047
X85177Y-37047
X85177Y-38047
X85177Y-39047
X85177Y-40047
X85177Y-41047
X85177Y-42047
X85177Y-43047
X85177Y-44047
X85177Y-45047
X85177Y-46047
X85177Y-47047
X85177Y-48047
X91177Y-29047
X91177Y-30047
X91177Y-31047
X91177Y-32047
X91177Y-33047
X91177Y-34047
X91177Y-35047
X91177Y-36047
X91177Y-37047
X91177Y-38047
X91177Y-39047
X91177Y-40047
X91177Y-41047
X91177Y-42047
X91177Y-43047
X91177Y-44047
X91177Y-45047
X91177Y-46047
X91177Y-47047
X91177Y-48047
X75500Y-29000
X75500Y-30000
X75500Y-31000
X75500Y-32000
X75500Y-33000
X75500Y-34000
X75500Y-35000
X75500Y-36000
X75500Y-37000
X75500Y-38000
X75500Y-39000
X75500Y-40000
X75500Y-41000
X75500Y-42000
X75500Y-43000
X75500Y-44000
X75500Y-45000
X75500Y-46000
X75500Y-47000
X75500Y-48000
X81500Y-29000
X81500Y-30000
X81500Y-31000
X81500Y-32000
X81500Y-33000
X81500Y-34000
X81500Y-35000
X81500Y-36000
X81500Y-37000
X81500Y-38000
X81500Y-39000
X81500Y-40000
X81500Y-41000
X81500Y-42000
X81500Y-43000
X81500Y-44000
X81500Y-45000
X81500Y-46000
X81500Y-47000
X81500Y-48000
X81500Y-56000
X81500Y-56984
X67500Y-22500
X70500Y-22500
X59000Y-27500
X60969Y-27500
X69031Y-27500
X71000Y-27500
X37000Y-23000
X37000Y-26000
X40000Y-23000
X40000Y-26000
X75500Y-54516
X75500Y-55500
X82000Y-23500
X85000Y-23500
X43500Y-21031
X43500Y-23000
X88500Y-20500
X88500Y-21500
X88500Y-22500
X88500Y-23500
X91500Y-20500
X91500Y-21500
X91500Y-22500
X91500Y-23500
X75500Y-56516
X75500Y-57500
X94500Y-26500
X97500Y-26500
X69031Y-24500
X71000Y-24500
X43500Y-27500
X45469Y-27500
X82000Y-25000
X85000Y-25000
X43500Y-29000
X43500Y-30000
X43500Y-31000
X43500Y-32000
X43500Y-33000
X43500Y-34000
X43500Y-35000
X43500Y-36000
X43500Y-37000
X43500Y-38000
X43500Y-39000
X43500Y-40000
X43500Y-41000
X43500Y-42000
X43500Y-43000
X43500Y-44000
X43500Y-45000
X43500Y-46000
X43500Y-47000
X43500Y-48000
X49500Y-29000
X49500Y-30000
X49500Y-31000
X49500Y-32000
X49500Y-33000
X49500Y-34000
X49500Y-35000
X49500Y-36000
X49500Y-37000
X49500Y-38000
X49500Y-39000
X49500Y-40000
X49500Y-41000
X49500Y-42000
X49500Y-43000
X49500Y-44000
X49500Y-45000
X49500Y-46000
X49500Y-47000
X49500Y-48000
X38500Y-21000
X40469Y-21000
X94500Y-48000
X97500Y-48000
X38000Y-50882
X38000Y-53882
X75500Y-52500
X75500Y-53484
X34000Y-50882
X34000Y-53882
X85531Y-27500
X87500Y-27500
X81500Y-54000
X81500Y-54984
X36000Y-50882
X36000Y-53882
X45500Y-21000
X45500Y-24000
X46500Y-21000
X46500Y-24000
X47500Y-21000
X47500Y-24000
X48500Y-21000
X48500Y-24000
X49500Y-21000
X49500Y-24000
X50500Y-21000
X50500Y-24000
X51500Y-21000
X51500Y-24000
T3
X98500Y-26500
X99500Y-26500
X98500Y-48000
X99500Y-48000
X98500Y-45500
X99500Y-45500
T4
X96500Y-31500
X96500Y-32500
X96500Y-33500
X96500Y-34500
X96500Y-35500
X96500Y-36500
X96500Y-37500
X96500Y-38500
X96500Y-39500
X96500Y-40500
X97500Y-31500
X97500Y-32500
X97500Y-33500
X97500Y-34500
X97500Y-35500
X97500Y-36500
X97500Y-37500
X97500Y-38500
X97500Y-39500
X97500Y-40500
T5
X97000Y-21500
X97000Y-23272
X99559Y-21500
X99559Y-23272
T0
M30
