%FSLAX45Y45*%
G04 Gerber Fmt 4.5, Leading zero omitted, Abs format (unit mm)*
G04 Created by KiCad (PCBNEW (5.1.4)-1) date 2019-12-01 00:46:21*
%MOMM*%
%LPD*%
G04 APERTURE LIST*
%ADD10C,0.050000*%
%ADD11C,0.200000*%
%ADD12C,0.300000*%
G04 APERTURE END LIST*
D10*
X25908000Y-14986000D02*
X7747000Y-14986000D01*
X25908000Y-4445000D02*
X25908000Y-14986000D01*
X25654000Y-4445000D02*
X25908000Y-4445000D01*
X7747000Y-4445000D02*
X25654000Y-4445000D01*
X7747000Y-7239000D02*
X7747000Y-4445000D01*
X6477000Y-7239000D02*
X7747000Y-7239000D01*
X6477000Y-12573000D02*
X6477000Y-7239000D01*
X7747000Y-12573000D02*
X6477000Y-12573000D01*
X7747000Y-14986000D02*
X7747000Y-12573000D01*
D11*
X25223000Y-13446000D02*
X25323000Y-13546000D01*
X25323000Y-13446000D02*
X25223000Y-13546000D01*
X25223000Y-13886000D02*
X25323000Y-13986000D01*
X25323000Y-13886000D02*
X25223000Y-13986000D01*
D12*
X6760928Y-15454214D02*
X6760928Y-15154214D01*
X6832357Y-15154214D01*
X6875214Y-15168500D01*
X6903786Y-15197071D01*
X6918071Y-15225643D01*
X6932357Y-15282786D01*
X6932357Y-15325643D01*
X6918071Y-15382786D01*
X6903786Y-15411357D01*
X6875214Y-15439929D01*
X6832357Y-15454214D01*
X6760928Y-15454214D01*
X7060928Y-15454214D02*
X7060928Y-15254214D01*
X7060928Y-15311357D02*
X7075214Y-15282786D01*
X7089500Y-15268500D01*
X7118071Y-15254214D01*
X7146643Y-15254214D01*
X7246643Y-15454214D02*
X7246643Y-15254214D01*
X7246643Y-15154214D02*
X7232357Y-15168500D01*
X7246643Y-15182786D01*
X7260928Y-15168500D01*
X7246643Y-15154214D01*
X7246643Y-15182786D01*
X7432357Y-15454214D02*
X7403786Y-15439929D01*
X7389500Y-15411357D01*
X7389500Y-15154214D01*
X7589500Y-15454214D02*
X7560928Y-15439929D01*
X7546643Y-15411357D01*
X7546643Y-15154214D01*
X7932357Y-15454214D02*
X7932357Y-15154214D01*
X8032357Y-15368500D01*
X8132357Y-15154214D01*
X8132357Y-15454214D01*
X8403786Y-15454214D02*
X8403786Y-15297071D01*
X8389500Y-15268500D01*
X8360928Y-15254214D01*
X8303786Y-15254214D01*
X8275214Y-15268500D01*
X8403786Y-15439929D02*
X8375214Y-15454214D01*
X8303786Y-15454214D01*
X8275214Y-15439929D01*
X8260928Y-15411357D01*
X8260928Y-15382786D01*
X8275214Y-15354214D01*
X8303786Y-15339929D01*
X8375214Y-15339929D01*
X8403786Y-15325643D01*
X8546643Y-15254214D02*
X8546643Y-15554214D01*
X8546643Y-15268500D02*
X8575214Y-15254214D01*
X8632357Y-15254214D01*
X8660928Y-15268500D01*
X8675214Y-15282786D01*
X8689500Y-15311357D01*
X8689500Y-15397071D01*
X8675214Y-15425643D01*
X8660928Y-15439929D01*
X8632357Y-15454214D01*
X8575214Y-15454214D01*
X8546643Y-15439929D01*
X8818071Y-15425643D02*
X8832357Y-15439929D01*
X8818071Y-15454214D01*
X8803786Y-15439929D01*
X8818071Y-15425643D01*
X8818071Y-15454214D01*
X8818071Y-15268500D02*
X8832357Y-15282786D01*
X8818071Y-15297071D01*
X8803786Y-15282786D01*
X8818071Y-15268500D01*
X8818071Y-15297071D01*
X6374500Y-15898500D02*
X6474500Y-15998500D01*
X6474500Y-15898500D02*
X6374500Y-15998500D01*
X6918071Y-16084214D02*
X6746643Y-16084214D01*
X6832357Y-16084214D02*
X6832357Y-15784214D01*
X6803786Y-15827071D01*
X6775214Y-15855643D01*
X6746643Y-15869929D01*
X7046643Y-16055643D02*
X7060928Y-16069929D01*
X7046643Y-16084214D01*
X7032357Y-16069929D01*
X7046643Y-16055643D01*
X7046643Y-16084214D01*
X7246643Y-15784214D02*
X7275214Y-15784214D01*
X7303786Y-15798500D01*
X7318071Y-15812786D01*
X7332357Y-15841357D01*
X7346643Y-15898500D01*
X7346643Y-15969929D01*
X7332357Y-16027071D01*
X7318071Y-16055643D01*
X7303786Y-16069929D01*
X7275214Y-16084214D01*
X7246643Y-16084214D01*
X7218071Y-16069929D01*
X7203786Y-16055643D01*
X7189500Y-16027071D01*
X7175214Y-15969929D01*
X7175214Y-15898500D01*
X7189500Y-15841357D01*
X7203786Y-15812786D01*
X7218071Y-15798500D01*
X7246643Y-15784214D01*
X7532357Y-15784214D02*
X7560928Y-15784214D01*
X7589500Y-15798500D01*
X7603786Y-15812786D01*
X7618071Y-15841357D01*
X7632357Y-15898500D01*
X7632357Y-15969929D01*
X7618071Y-16027071D01*
X7603786Y-16055643D01*
X7589500Y-16069929D01*
X7560928Y-16084214D01*
X7532357Y-16084214D01*
X7503786Y-16069929D01*
X7489500Y-16055643D01*
X7475214Y-16027071D01*
X7460928Y-15969929D01*
X7460928Y-15898500D01*
X7475214Y-15841357D01*
X7489500Y-15812786D01*
X7503786Y-15798500D01*
X7532357Y-15784214D01*
X7760928Y-16084214D02*
X7760928Y-15884214D01*
X7760928Y-15912786D02*
X7775214Y-15898500D01*
X7803786Y-15884214D01*
X7846643Y-15884214D01*
X7875214Y-15898500D01*
X7889500Y-15927071D01*
X7889500Y-16084214D01*
X7889500Y-15927071D02*
X7903786Y-15898500D01*
X7932357Y-15884214D01*
X7975214Y-15884214D01*
X8003786Y-15898500D01*
X8018071Y-15927071D01*
X8018071Y-16084214D01*
X8160928Y-16084214D02*
X8160928Y-15884214D01*
X8160928Y-15912786D02*
X8175214Y-15898500D01*
X8203786Y-15884214D01*
X8246643Y-15884214D01*
X8275214Y-15898500D01*
X8289500Y-15927071D01*
X8289500Y-16084214D01*
X8289500Y-15927071D02*
X8303786Y-15898500D01*
X8332357Y-15884214D01*
X8375214Y-15884214D01*
X8403786Y-15898500D01*
X8418071Y-15927071D01*
X8418071Y-16084214D01*
X9003786Y-15769929D02*
X8746643Y-16155643D01*
X9389500Y-15784214D02*
X9418071Y-15784214D01*
X9446643Y-15798500D01*
X9460928Y-15812786D01*
X9475214Y-15841357D01*
X9489500Y-15898500D01*
X9489500Y-15969929D01*
X9475214Y-16027071D01*
X9460928Y-16055643D01*
X9446643Y-16069929D01*
X9418071Y-16084214D01*
X9389500Y-16084214D01*
X9360928Y-16069929D01*
X9346643Y-16055643D01*
X9332357Y-16027071D01*
X9318071Y-15969929D01*
X9318071Y-15898500D01*
X9332357Y-15841357D01*
X9346643Y-15812786D01*
X9360928Y-15798500D01*
X9389500Y-15784214D01*
X9618071Y-16055643D02*
X9632357Y-16069929D01*
X9618071Y-16084214D01*
X9603786Y-16069929D01*
X9618071Y-16055643D01*
X9618071Y-16084214D01*
X9818071Y-15784214D02*
X9846643Y-15784214D01*
X9875214Y-15798500D01*
X9889500Y-15812786D01*
X9903786Y-15841357D01*
X9918071Y-15898500D01*
X9918071Y-15969929D01*
X9903786Y-16027071D01*
X9889500Y-16055643D01*
X9875214Y-16069929D01*
X9846643Y-16084214D01*
X9818071Y-16084214D01*
X9789500Y-16069929D01*
X9775214Y-16055643D01*
X9760928Y-16027071D01*
X9746643Y-15969929D01*
X9746643Y-15898500D01*
X9760928Y-15841357D01*
X9775214Y-15812786D01*
X9789500Y-15798500D01*
X9818071Y-15784214D01*
X10018071Y-15784214D02*
X10203786Y-15784214D01*
X10103786Y-15898500D01*
X10146643Y-15898500D01*
X10175214Y-15912786D01*
X10189500Y-15927071D01*
X10203786Y-15955643D01*
X10203786Y-16027071D01*
X10189500Y-16055643D01*
X10175214Y-16069929D01*
X10146643Y-16084214D01*
X10060928Y-16084214D01*
X10032357Y-16069929D01*
X10018071Y-16055643D01*
X10346643Y-16084214D02*
X10403786Y-16084214D01*
X10432357Y-16069929D01*
X10446643Y-16055643D01*
X10475214Y-16012786D01*
X10489500Y-15955643D01*
X10489500Y-15841357D01*
X10475214Y-15812786D01*
X10460928Y-15798500D01*
X10432357Y-15784214D01*
X10375214Y-15784214D01*
X10346643Y-15798500D01*
X10332357Y-15812786D01*
X10318071Y-15841357D01*
X10318071Y-15912786D01*
X10332357Y-15941357D01*
X10346643Y-15955643D01*
X10375214Y-15969929D01*
X10432357Y-15969929D01*
X10460928Y-15955643D01*
X10475214Y-15941357D01*
X10489500Y-15912786D01*
X10603786Y-15784214D02*
X10603786Y-15841357D01*
X10718071Y-15784214D02*
X10718071Y-15841357D01*
X11160928Y-16198500D02*
X11146643Y-16184214D01*
X11118071Y-16141357D01*
X11103786Y-16112786D01*
X11089500Y-16069929D01*
X11075214Y-15998500D01*
X11075214Y-15941357D01*
X11089500Y-15869929D01*
X11103786Y-15827071D01*
X11118071Y-15798500D01*
X11146643Y-15755643D01*
X11160928Y-15741357D01*
X11260928Y-15812786D02*
X11275214Y-15798500D01*
X11303786Y-15784214D01*
X11375214Y-15784214D01*
X11403786Y-15798500D01*
X11418071Y-15812786D01*
X11432357Y-15841357D01*
X11432357Y-15869929D01*
X11418071Y-15912786D01*
X11246643Y-16084214D01*
X11432357Y-16084214D01*
X11789500Y-16084214D02*
X11789500Y-15784214D01*
X11918071Y-16084214D02*
X11918071Y-15927071D01*
X11903786Y-15898500D01*
X11875214Y-15884214D01*
X11832357Y-15884214D01*
X11803786Y-15898500D01*
X11789500Y-15912786D01*
X12103786Y-16084214D02*
X12075214Y-16069929D01*
X12060928Y-16055643D01*
X12046643Y-16027071D01*
X12046643Y-15941357D01*
X12060928Y-15912786D01*
X12075214Y-15898500D01*
X12103786Y-15884214D01*
X12146643Y-15884214D01*
X12175214Y-15898500D01*
X12189500Y-15912786D01*
X12203786Y-15941357D01*
X12203786Y-16027071D01*
X12189500Y-16055643D01*
X12175214Y-16069929D01*
X12146643Y-16084214D01*
X12103786Y-16084214D01*
X12375214Y-16084214D02*
X12346643Y-16069929D01*
X12332357Y-16041357D01*
X12332357Y-15784214D01*
X12603786Y-16069929D02*
X12575214Y-16084214D01*
X12518071Y-16084214D01*
X12489500Y-16069929D01*
X12475214Y-16041357D01*
X12475214Y-15927071D01*
X12489500Y-15898500D01*
X12518071Y-15884214D01*
X12575214Y-15884214D01*
X12603786Y-15898500D01*
X12618071Y-15927071D01*
X12618071Y-15955643D01*
X12475214Y-15984214D01*
X12732357Y-16069929D02*
X12760928Y-16084214D01*
X12818071Y-16084214D01*
X12846643Y-16069929D01*
X12860928Y-16041357D01*
X12860928Y-16027071D01*
X12846643Y-15998500D01*
X12818071Y-15984214D01*
X12775214Y-15984214D01*
X12746643Y-15969929D01*
X12732357Y-15941357D01*
X12732357Y-15927071D01*
X12746643Y-15898500D01*
X12775214Y-15884214D01*
X12818071Y-15884214D01*
X12846643Y-15898500D01*
X12960928Y-16198500D02*
X12975214Y-16184214D01*
X13003786Y-16141357D01*
X13018071Y-16112786D01*
X13032357Y-16069929D01*
X13046643Y-15998500D01*
X13046643Y-15941357D01*
X13032357Y-15869929D01*
X13018071Y-15827071D01*
X13003786Y-15798500D01*
X12975214Y-15755643D01*
X12960928Y-15741357D01*
X13503786Y-16198500D02*
X13489500Y-16184214D01*
X13460928Y-16141357D01*
X13446643Y-16112786D01*
X13432357Y-16069929D01*
X13418071Y-15998500D01*
X13418071Y-15941357D01*
X13432357Y-15869929D01*
X13446643Y-15827071D01*
X13460928Y-15798500D01*
X13489500Y-15755643D01*
X13503786Y-15741357D01*
X13618071Y-15884214D02*
X13618071Y-16084214D01*
X13618071Y-15912786D02*
X13632357Y-15898500D01*
X13660928Y-15884214D01*
X13703786Y-15884214D01*
X13732357Y-15898500D01*
X13746643Y-15927071D01*
X13746643Y-16084214D01*
X13932357Y-16084214D02*
X13903786Y-16069929D01*
X13889500Y-16055643D01*
X13875214Y-16027071D01*
X13875214Y-15941357D01*
X13889500Y-15912786D01*
X13903786Y-15898500D01*
X13932357Y-15884214D01*
X13975214Y-15884214D01*
X14003786Y-15898500D01*
X14018071Y-15912786D01*
X14032357Y-15941357D01*
X14032357Y-16027071D01*
X14018071Y-16055643D01*
X14003786Y-16069929D01*
X13975214Y-16084214D01*
X13932357Y-16084214D01*
X14118071Y-15884214D02*
X14232357Y-15884214D01*
X14160928Y-15784214D02*
X14160928Y-16041357D01*
X14175214Y-16069929D01*
X14203786Y-16084214D01*
X14232357Y-16084214D01*
X14560928Y-15884214D02*
X14560928Y-16184214D01*
X14560928Y-15898500D02*
X14589500Y-15884214D01*
X14646643Y-15884214D01*
X14675214Y-15898500D01*
X14689500Y-15912786D01*
X14703786Y-15941357D01*
X14703786Y-16027071D01*
X14689500Y-16055643D01*
X14675214Y-16069929D01*
X14646643Y-16084214D01*
X14589500Y-16084214D01*
X14560928Y-16069929D01*
X14875214Y-16084214D02*
X14846643Y-16069929D01*
X14832357Y-16041357D01*
X14832357Y-15784214D01*
X15118071Y-16084214D02*
X15118071Y-15927071D01*
X15103786Y-15898500D01*
X15075214Y-15884214D01*
X15018071Y-15884214D01*
X14989500Y-15898500D01*
X15118071Y-16069929D02*
X15089500Y-16084214D01*
X15018071Y-16084214D01*
X14989500Y-16069929D01*
X14975214Y-16041357D01*
X14975214Y-16012786D01*
X14989500Y-15984214D01*
X15018071Y-15969929D01*
X15089500Y-15969929D01*
X15118071Y-15955643D01*
X15218071Y-15884214D02*
X15332357Y-15884214D01*
X15260928Y-15784214D02*
X15260928Y-16041357D01*
X15275214Y-16069929D01*
X15303786Y-16084214D01*
X15332357Y-16084214D01*
X15546643Y-16069929D02*
X15518071Y-16084214D01*
X15460928Y-16084214D01*
X15432357Y-16069929D01*
X15418071Y-16041357D01*
X15418071Y-15927071D01*
X15432357Y-15898500D01*
X15460928Y-15884214D01*
X15518071Y-15884214D01*
X15546643Y-15898500D01*
X15560928Y-15927071D01*
X15560928Y-15955643D01*
X15418071Y-15984214D01*
X15818071Y-16084214D02*
X15818071Y-15784214D01*
X15818071Y-16069929D02*
X15789500Y-16084214D01*
X15732357Y-16084214D01*
X15703786Y-16069929D01*
X15689500Y-16055643D01*
X15675214Y-16027071D01*
X15675214Y-15941357D01*
X15689500Y-15912786D01*
X15703786Y-15898500D01*
X15732357Y-15884214D01*
X15789500Y-15884214D01*
X15818071Y-15898500D01*
X15932357Y-16198500D02*
X15946643Y-16184214D01*
X15975214Y-16141357D01*
X15989500Y-16112786D01*
X16003786Y-16069929D01*
X16018071Y-15998500D01*
X16018071Y-15941357D01*
X16003786Y-15869929D01*
X15989500Y-15827071D01*
X15975214Y-15798500D01*
X15946643Y-15755643D01*
X15932357Y-15741357D01*
M02*
