G04 #@! TF.GenerationSoftware,KiCad,Pcbnew,(5.1.4)-1*
G04 #@! TF.CreationDate,2019-12-01T00:46:25+01:00*
G04 #@! TF.ProjectId,Z80Mini,5a38304d-696e-4692-9e6b-696361645f70,rev?*
G04 #@! TF.SameCoordinates,Original*
G04 #@! TF.FileFunction,Legend,Top*
G04 #@! TF.FilePolarity,Positive*
%FSLAX46Y46*%
G04 Gerber Fmt 4.6, Leading zero omitted, Abs format (unit mm)*
G04 Created by KiCad (PCBNEW (5.1.4)-1) date 2019-12-01 00:46:25*
%MOMM*%
%LPD*%
G04 APERTURE LIST*
%ADD10C,0.150000*%
%ADD11C,0.300000*%
%ADD12C,0.120000*%
G04 APERTURE END LIST*
D10*
X170862857Y-109227380D02*
X170862857Y-108227380D01*
X171243809Y-108227380D01*
X171339047Y-108275000D01*
X171386666Y-108322619D01*
X171434285Y-108417857D01*
X171434285Y-108560714D01*
X171386666Y-108655952D01*
X171339047Y-108703571D01*
X171243809Y-108751190D01*
X170862857Y-108751190D01*
X172434285Y-109227380D02*
X172100952Y-108751190D01*
X171862857Y-109227380D02*
X171862857Y-108227380D01*
X172243809Y-108227380D01*
X172339047Y-108275000D01*
X172386666Y-108322619D01*
X172434285Y-108417857D01*
X172434285Y-108560714D01*
X172386666Y-108655952D01*
X172339047Y-108703571D01*
X172243809Y-108751190D01*
X171862857Y-108751190D01*
X173053333Y-108227380D02*
X173243809Y-108227380D01*
X173339047Y-108275000D01*
X173434285Y-108370238D01*
X173481904Y-108560714D01*
X173481904Y-108894047D01*
X173434285Y-109084523D01*
X173339047Y-109179761D01*
X173243809Y-109227380D01*
X173053333Y-109227380D01*
X172958095Y-109179761D01*
X172862857Y-109084523D01*
X172815238Y-108894047D01*
X172815238Y-108560714D01*
X172862857Y-108370238D01*
X172958095Y-108275000D01*
X173053333Y-108227380D01*
X173910476Y-109227380D02*
X173910476Y-108227380D01*
X174243809Y-108941666D01*
X174577142Y-108227380D01*
X174577142Y-109227380D01*
D11*
X108262857Y-141418571D02*
X109262857Y-141418571D01*
X108262857Y-142918571D01*
X109262857Y-142918571D01*
X110048571Y-142061428D02*
X109905714Y-141990000D01*
X109834285Y-141918571D01*
X109762857Y-141775714D01*
X109762857Y-141704285D01*
X109834285Y-141561428D01*
X109905714Y-141490000D01*
X110048571Y-141418571D01*
X110334285Y-141418571D01*
X110477142Y-141490000D01*
X110548571Y-141561428D01*
X110620000Y-141704285D01*
X110620000Y-141775714D01*
X110548571Y-141918571D01*
X110477142Y-141990000D01*
X110334285Y-142061428D01*
X110048571Y-142061428D01*
X109905714Y-142132857D01*
X109834285Y-142204285D01*
X109762857Y-142347142D01*
X109762857Y-142632857D01*
X109834285Y-142775714D01*
X109905714Y-142847142D01*
X110048571Y-142918571D01*
X110334285Y-142918571D01*
X110477142Y-142847142D01*
X110548571Y-142775714D01*
X110620000Y-142632857D01*
X110620000Y-142347142D01*
X110548571Y-142204285D01*
X110477142Y-142132857D01*
X110334285Y-142061428D01*
X111548571Y-141418571D02*
X111691428Y-141418571D01*
X111834285Y-141490000D01*
X111905714Y-141561428D01*
X111977142Y-141704285D01*
X112048571Y-141990000D01*
X112048571Y-142347142D01*
X111977142Y-142632857D01*
X111905714Y-142775714D01*
X111834285Y-142847142D01*
X111691428Y-142918571D01*
X111548571Y-142918571D01*
X111405714Y-142847142D01*
X111334285Y-142775714D01*
X111262857Y-142632857D01*
X111191428Y-142347142D01*
X111191428Y-141990000D01*
X111262857Y-141704285D01*
X111334285Y-141561428D01*
X111405714Y-141490000D01*
X111548571Y-141418571D01*
X112691428Y-142918571D02*
X112691428Y-141418571D01*
X113191428Y-142490000D01*
X113691428Y-141418571D01*
X113691428Y-142918571D01*
X114405714Y-142918571D02*
X114405714Y-141918571D01*
X114405714Y-141418571D02*
X114334285Y-141490000D01*
X114405714Y-141561428D01*
X114477142Y-141490000D01*
X114405714Y-141418571D01*
X114405714Y-141561428D01*
X115120000Y-141918571D02*
X115120000Y-142918571D01*
X115120000Y-142061428D02*
X115191428Y-141990000D01*
X115334285Y-141918571D01*
X115548571Y-141918571D01*
X115691428Y-141990000D01*
X115762857Y-142132857D01*
X115762857Y-142918571D01*
X116477142Y-142918571D02*
X116477142Y-141918571D01*
X116477142Y-141418571D02*
X116405714Y-141490000D01*
X116477142Y-141561428D01*
X116548571Y-141490000D01*
X116477142Y-141418571D01*
X116477142Y-141561428D01*
X117691428Y-142132857D02*
X117191428Y-142132857D01*
X117191428Y-142918571D02*
X117191428Y-141418571D01*
X117905714Y-141418571D01*
X118477142Y-142918571D02*
X118477142Y-141918571D01*
X118477142Y-142204285D02*
X118548571Y-142061428D01*
X118620000Y-141990000D01*
X118762857Y-141918571D01*
X118905714Y-141918571D01*
X120048571Y-142918571D02*
X120048571Y-142132857D01*
X119977142Y-141990000D01*
X119834285Y-141918571D01*
X119548571Y-141918571D01*
X119405714Y-141990000D01*
X120048571Y-142847142D02*
X119905714Y-142918571D01*
X119548571Y-142918571D01*
X119405714Y-142847142D01*
X119334285Y-142704285D01*
X119334285Y-142561428D01*
X119405714Y-142418571D01*
X119548571Y-142347142D01*
X119905714Y-142347142D01*
X120048571Y-142275714D01*
X120762857Y-142918571D02*
X120762857Y-141918571D01*
X120762857Y-142061428D02*
X120834285Y-141990000D01*
X120977142Y-141918571D01*
X121191428Y-141918571D01*
X121334285Y-141990000D01*
X121405714Y-142132857D01*
X121405714Y-142918571D01*
X121405714Y-142132857D02*
X121477142Y-141990000D01*
X121620000Y-141918571D01*
X121834285Y-141918571D01*
X121977142Y-141990000D01*
X122048571Y-142132857D01*
X122048571Y-142918571D01*
X123334285Y-142847142D02*
X123191428Y-142918571D01*
X122905714Y-142918571D01*
X122762857Y-142847142D01*
X122691428Y-142704285D01*
X122691428Y-142132857D01*
X122762857Y-141990000D01*
X122905714Y-141918571D01*
X123191428Y-141918571D01*
X123334285Y-141990000D01*
X123405714Y-142132857D01*
X123405714Y-142275714D01*
X122691428Y-142418571D01*
X126048571Y-142775714D02*
X125977142Y-142847142D01*
X125762857Y-142918571D01*
X125620000Y-142918571D01*
X125405714Y-142847142D01*
X125262857Y-142704285D01*
X125191428Y-142561428D01*
X125120000Y-142275714D01*
X125120000Y-142061428D01*
X125191428Y-141775714D01*
X125262857Y-141632857D01*
X125405714Y-141490000D01*
X125620000Y-141418571D01*
X125762857Y-141418571D01*
X125977142Y-141490000D01*
X126048571Y-141561428D01*
X126691428Y-142918571D02*
X126691428Y-141418571D01*
X127262857Y-141418571D01*
X127405714Y-141490000D01*
X127477142Y-141561428D01*
X127548571Y-141704285D01*
X127548571Y-141918571D01*
X127477142Y-142061428D01*
X127405714Y-142132857D01*
X127262857Y-142204285D01*
X126691428Y-142204285D01*
X128191428Y-141418571D02*
X128191428Y-142632857D01*
X128262857Y-142775714D01*
X128334285Y-142847142D01*
X128477142Y-142918571D01*
X128762857Y-142918571D01*
X128905714Y-142847142D01*
X128977142Y-142775714D01*
X129048571Y-142632857D01*
X129048571Y-141418571D01*
X129762857Y-142347142D02*
X130905714Y-142347142D01*
X131620000Y-142918571D02*
X131620000Y-141418571D01*
X132620000Y-141418571D02*
X132905714Y-141418571D01*
X133048571Y-141490000D01*
X133191428Y-141632857D01*
X133262857Y-141918571D01*
X133262857Y-142418571D01*
X133191428Y-142704285D01*
X133048571Y-142847142D01*
X132905714Y-142918571D01*
X132620000Y-142918571D01*
X132477142Y-142847142D01*
X132334285Y-142704285D01*
X132262857Y-142418571D01*
X132262857Y-141918571D01*
X132334285Y-141632857D01*
X132477142Y-141490000D01*
X132620000Y-141418571D01*
X135548571Y-142132857D02*
X135762857Y-142204285D01*
X135834285Y-142275714D01*
X135905714Y-142418571D01*
X135905714Y-142632857D01*
X135834285Y-142775714D01*
X135762857Y-142847142D01*
X135620000Y-142918571D01*
X135048571Y-142918571D01*
X135048571Y-141418571D01*
X135548571Y-141418571D01*
X135691428Y-141490000D01*
X135762857Y-141561428D01*
X135834285Y-141704285D01*
X135834285Y-141847142D01*
X135762857Y-141990000D01*
X135691428Y-142061428D01*
X135548571Y-142132857D01*
X135048571Y-142132857D01*
X136762857Y-142918571D02*
X136620000Y-142847142D01*
X136548571Y-142775714D01*
X136477142Y-142632857D01*
X136477142Y-142204285D01*
X136548571Y-142061428D01*
X136620000Y-141990000D01*
X136762857Y-141918571D01*
X136977142Y-141918571D01*
X137120000Y-141990000D01*
X137191428Y-142061428D01*
X137262857Y-142204285D01*
X137262857Y-142632857D01*
X137191428Y-142775714D01*
X137120000Y-142847142D01*
X136977142Y-142918571D01*
X136762857Y-142918571D01*
X138548571Y-142918571D02*
X138548571Y-142132857D01*
X138477142Y-141990000D01*
X138334285Y-141918571D01*
X138048571Y-141918571D01*
X137905714Y-141990000D01*
X138548571Y-142847142D02*
X138405714Y-142918571D01*
X138048571Y-142918571D01*
X137905714Y-142847142D01*
X137834285Y-142704285D01*
X137834285Y-142561428D01*
X137905714Y-142418571D01*
X138048571Y-142347142D01*
X138405714Y-142347142D01*
X138548571Y-142275714D01*
X139262857Y-142918571D02*
X139262857Y-141918571D01*
X139262857Y-142204285D02*
X139334285Y-142061428D01*
X139405714Y-141990000D01*
X139548571Y-141918571D01*
X139691428Y-141918571D01*
X140834285Y-142918571D02*
X140834285Y-141418571D01*
X140834285Y-142847142D02*
X140691428Y-142918571D01*
X140405714Y-142918571D01*
X140262857Y-142847142D01*
X140191428Y-142775714D01*
X140120000Y-142632857D01*
X140120000Y-142204285D01*
X140191428Y-142061428D01*
X140262857Y-141990000D01*
X140405714Y-141918571D01*
X140691428Y-141918571D01*
X140834285Y-141990000D01*
X142548571Y-141918571D02*
X142905714Y-142918571D01*
X143262857Y-141918571D01*
X144620000Y-142918571D02*
X143762857Y-142918571D01*
X144191428Y-142918571D02*
X144191428Y-141418571D01*
X144048571Y-141632857D01*
X143905714Y-141775714D01*
X143762857Y-141847142D01*
X145262857Y-142775714D02*
X145334285Y-142847142D01*
X145262857Y-142918571D01*
X145191428Y-142847142D01*
X145262857Y-142775714D01*
X145262857Y-142918571D01*
X146762857Y-142918571D02*
X145905714Y-142918571D01*
X146334285Y-142918571D02*
X146334285Y-141418571D01*
X146191428Y-141632857D01*
X146048571Y-141775714D01*
X145905714Y-141847142D01*
X148977142Y-143490000D02*
X148905714Y-143418571D01*
X148762857Y-143204285D01*
X148691428Y-143061428D01*
X148620000Y-142847142D01*
X148548571Y-142490000D01*
X148548571Y-142204285D01*
X148620000Y-141847142D01*
X148691428Y-141632857D01*
X148762857Y-141490000D01*
X148905714Y-141275714D01*
X148977142Y-141204285D01*
X149334285Y-141418571D02*
X150191428Y-141418571D01*
X149762857Y-142918571D02*
X149762857Y-141418571D01*
X151548571Y-142775714D02*
X151477142Y-142847142D01*
X151262857Y-142918571D01*
X151120000Y-142918571D01*
X150905714Y-142847142D01*
X150762857Y-142704285D01*
X150691428Y-142561428D01*
X150620000Y-142275714D01*
X150620000Y-142061428D01*
X150691428Y-141775714D01*
X150762857Y-141632857D01*
X150905714Y-141490000D01*
X151120000Y-141418571D01*
X151262857Y-141418571D01*
X151477142Y-141490000D01*
X151548571Y-141561428D01*
X153048571Y-142775714D02*
X152977142Y-142847142D01*
X152762857Y-142918571D01*
X152620000Y-142918571D01*
X152405714Y-142847142D01*
X152262857Y-142704285D01*
X152191428Y-142561428D01*
X152120000Y-142275714D01*
X152120000Y-142061428D01*
X152191428Y-141775714D01*
X152262857Y-141632857D01*
X152405714Y-141490000D01*
X152620000Y-141418571D01*
X152762857Y-141418571D01*
X152977142Y-141490000D01*
X153048571Y-141561428D01*
X154762857Y-141561428D02*
X154834285Y-141490000D01*
X154977142Y-141418571D01*
X155334285Y-141418571D01*
X155477142Y-141490000D01*
X155548571Y-141561428D01*
X155620000Y-141704285D01*
X155620000Y-141847142D01*
X155548571Y-142061428D01*
X154691428Y-142918571D01*
X155620000Y-142918571D01*
X156548571Y-141418571D02*
X156691428Y-141418571D01*
X156834285Y-141490000D01*
X156905714Y-141561428D01*
X156977142Y-141704285D01*
X157048571Y-141990000D01*
X157048571Y-142347142D01*
X156977142Y-142632857D01*
X156905714Y-142775714D01*
X156834285Y-142847142D01*
X156691428Y-142918571D01*
X156548571Y-142918571D01*
X156405714Y-142847142D01*
X156334285Y-142775714D01*
X156262857Y-142632857D01*
X156191428Y-142347142D01*
X156191428Y-141990000D01*
X156262857Y-141704285D01*
X156334285Y-141561428D01*
X156405714Y-141490000D01*
X156548571Y-141418571D01*
X158477142Y-142918571D02*
X157620000Y-142918571D01*
X158048571Y-142918571D02*
X158048571Y-141418571D01*
X157905714Y-141632857D01*
X157762857Y-141775714D01*
X157620000Y-141847142D01*
X159191428Y-142918571D02*
X159477142Y-142918571D01*
X159620000Y-142847142D01*
X159691428Y-142775714D01*
X159834285Y-142561428D01*
X159905714Y-142275714D01*
X159905714Y-141704285D01*
X159834285Y-141561428D01*
X159762857Y-141490000D01*
X159620000Y-141418571D01*
X159334285Y-141418571D01*
X159191428Y-141490000D01*
X159120000Y-141561428D01*
X159048571Y-141704285D01*
X159048571Y-142061428D01*
X159120000Y-142204285D01*
X159191428Y-142275714D01*
X159334285Y-142347142D01*
X159620000Y-142347142D01*
X159762857Y-142275714D01*
X159834285Y-142204285D01*
X159905714Y-142061428D01*
X160405714Y-143490000D02*
X160477142Y-143418571D01*
X160619999Y-143204285D01*
X160691428Y-143061428D01*
X160762857Y-142847142D01*
X160834285Y-142490000D01*
X160834285Y-142204285D01*
X160762857Y-141847142D01*
X160691428Y-141632857D01*
X160619999Y-141490000D01*
X160477142Y-141275714D01*
X160405714Y-141204285D01*
D12*
X165040000Y-54900000D02*
X165040000Y-56150000D01*
X175320000Y-54900000D02*
X165040000Y-54900000D01*
X175320000Y-59400000D02*
X175320000Y-54900000D01*
X165040000Y-59400000D02*
X175320000Y-59400000D01*
X165040000Y-58150000D02*
X165040000Y-59400000D01*
X165040000Y-56150000D02*
G75*
G02X165040000Y-58150000I0J-1000000D01*
G01*
X123920000Y-62330000D02*
X123920000Y-62000000D01*
X117380000Y-62330000D02*
X123920000Y-62330000D01*
X117380000Y-62000000D02*
X117380000Y-62330000D01*
X123920000Y-59590000D02*
X123920000Y-59920000D01*
X117380000Y-59590000D02*
X123920000Y-59590000D01*
X117380000Y-59920000D02*
X117380000Y-59590000D01*
X123920000Y-50900000D02*
X123920000Y-50570000D01*
X117380000Y-50900000D02*
X123920000Y-50900000D01*
X117380000Y-50570000D02*
X117380000Y-50900000D01*
X123920000Y-48160000D02*
X123920000Y-48490000D01*
X117380000Y-48160000D02*
X123920000Y-48160000D01*
X117380000Y-48490000D02*
X117380000Y-48160000D01*
X123920000Y-67410000D02*
X123920000Y-67080000D01*
X117380000Y-67410000D02*
X123920000Y-67410000D01*
X117380000Y-67080000D02*
X117380000Y-67410000D01*
X123920000Y-64670000D02*
X123920000Y-65000000D01*
X117380000Y-64670000D02*
X123920000Y-64670000D01*
X117380000Y-65000000D02*
X117380000Y-64670000D01*
X131378478Y-60258478D02*
G75*
G03X129540000Y-55820000I-1838478J1838478D01*
G01*
X127701522Y-60258478D02*
G75*
G02X129540000Y-55820000I1838478J1838478D01*
G01*
X127740000Y-60270000D02*
X131340000Y-60270000D01*
X127980000Y-50610000D02*
X127980000Y-50766000D01*
X127980000Y-48294000D02*
X127980000Y-48450000D01*
X130581130Y-50609837D02*
G75*
G02X128499039Y-50610000I-1041130J1079837D01*
G01*
X130581130Y-48450163D02*
G75*
G03X128499039Y-48450000I-1041130J-1079837D01*
G01*
X131212335Y-50608608D02*
G75*
G02X127980000Y-50765516I-1672335J1078608D01*
G01*
X131212335Y-48451392D02*
G75*
G03X127980000Y-48294484I-1672335J-1078608D01*
G01*
X194160000Y-50700000D02*
X194160000Y-53440000D01*
X186920000Y-50700000D02*
X186920000Y-53440000D01*
X186920000Y-53440000D02*
X194160000Y-53440000D01*
X186920000Y-50700000D02*
X194160000Y-50700000D01*
X159895000Y-58469801D02*
X160295000Y-58469801D01*
X160095000Y-58669801D02*
X160095000Y-58269801D01*
X160920000Y-54319000D02*
X161660000Y-54319000D01*
X160753000Y-54359000D02*
X161827000Y-54359000D01*
X160626000Y-54399000D02*
X161954000Y-54399000D01*
X160522000Y-54439000D02*
X162058000Y-54439000D01*
X160431000Y-54479000D02*
X162149000Y-54479000D01*
X160350000Y-54519000D02*
X162230000Y-54519000D01*
X160277000Y-54559000D02*
X162303000Y-54559000D01*
X160210000Y-54599000D02*
X162370000Y-54599000D01*
X160148000Y-54639000D02*
X162432000Y-54639000D01*
X160090000Y-54679000D02*
X162490000Y-54679000D01*
X160036000Y-54719000D02*
X162544000Y-54719000D01*
X159986000Y-54759000D02*
X162594000Y-54759000D01*
X159939000Y-54799000D02*
X162641000Y-54799000D01*
X162130000Y-54839000D02*
X162686000Y-54839000D01*
X159894000Y-54839000D02*
X160450000Y-54839000D01*
X162130000Y-54879000D02*
X162728000Y-54879000D01*
X159852000Y-54879000D02*
X160450000Y-54879000D01*
X162130000Y-54919000D02*
X162768000Y-54919000D01*
X159812000Y-54919000D02*
X160450000Y-54919000D01*
X162130000Y-54959000D02*
X162806000Y-54959000D01*
X159774000Y-54959000D02*
X160450000Y-54959000D01*
X162130000Y-54999000D02*
X162842000Y-54999000D01*
X159738000Y-54999000D02*
X160450000Y-54999000D01*
X162130000Y-55039000D02*
X162877000Y-55039000D01*
X159703000Y-55039000D02*
X160450000Y-55039000D01*
X162130000Y-55079000D02*
X162909000Y-55079000D01*
X159671000Y-55079000D02*
X160450000Y-55079000D01*
X162130000Y-55119000D02*
X162940000Y-55119000D01*
X159640000Y-55119000D02*
X160450000Y-55119000D01*
X162130000Y-55159000D02*
X162970000Y-55159000D01*
X159610000Y-55159000D02*
X160450000Y-55159000D01*
X162130000Y-55199000D02*
X162998000Y-55199000D01*
X159582000Y-55199000D02*
X160450000Y-55199000D01*
X162130000Y-55239000D02*
X163025000Y-55239000D01*
X159555000Y-55239000D02*
X160450000Y-55239000D01*
X162130000Y-55279000D02*
X163050000Y-55279000D01*
X159530000Y-55279000D02*
X160450000Y-55279000D01*
X162130000Y-55319000D02*
X163075000Y-55319000D01*
X159505000Y-55319000D02*
X160450000Y-55319000D01*
X162130000Y-55359000D02*
X163098000Y-55359000D01*
X159482000Y-55359000D02*
X160450000Y-55359000D01*
X162130000Y-55399000D02*
X163120000Y-55399000D01*
X159460000Y-55399000D02*
X160450000Y-55399000D01*
X162130000Y-55439000D02*
X163141000Y-55439000D01*
X159439000Y-55439000D02*
X160450000Y-55439000D01*
X162130000Y-55479000D02*
X163160000Y-55479000D01*
X159420000Y-55479000D02*
X160450000Y-55479000D01*
X162130000Y-55519000D02*
X163179000Y-55519000D01*
X159401000Y-55519000D02*
X160450000Y-55519000D01*
X162130000Y-55559000D02*
X163197000Y-55559000D01*
X159383000Y-55559000D02*
X160450000Y-55559000D01*
X162130000Y-55599000D02*
X163214000Y-55599000D01*
X159366000Y-55599000D02*
X160450000Y-55599000D01*
X162130000Y-55639000D02*
X163230000Y-55639000D01*
X159350000Y-55639000D02*
X160450000Y-55639000D01*
X162130000Y-55679000D02*
X163244000Y-55679000D01*
X159336000Y-55679000D02*
X160450000Y-55679000D01*
X162130000Y-55720000D02*
X163258000Y-55720000D01*
X159322000Y-55720000D02*
X160450000Y-55720000D01*
X162130000Y-55760000D02*
X163272000Y-55760000D01*
X159308000Y-55760000D02*
X160450000Y-55760000D01*
X162130000Y-55800000D02*
X163284000Y-55800000D01*
X159296000Y-55800000D02*
X160450000Y-55800000D01*
X162130000Y-55840000D02*
X163295000Y-55840000D01*
X159285000Y-55840000D02*
X160450000Y-55840000D01*
X162130000Y-55880000D02*
X163306000Y-55880000D01*
X159274000Y-55880000D02*
X160450000Y-55880000D01*
X162130000Y-55920000D02*
X163315000Y-55920000D01*
X159265000Y-55920000D02*
X160450000Y-55920000D01*
X162130000Y-55960000D02*
X163324000Y-55960000D01*
X159256000Y-55960000D02*
X160450000Y-55960000D01*
X162130000Y-56000000D02*
X163332000Y-56000000D01*
X159248000Y-56000000D02*
X160450000Y-56000000D01*
X162130000Y-56040000D02*
X163340000Y-56040000D01*
X159240000Y-56040000D02*
X160450000Y-56040000D01*
X162130000Y-56080000D02*
X163346000Y-56080000D01*
X159234000Y-56080000D02*
X160450000Y-56080000D01*
X162130000Y-56120000D02*
X163352000Y-56120000D01*
X159228000Y-56120000D02*
X160450000Y-56120000D01*
X162130000Y-56160000D02*
X163357000Y-56160000D01*
X159223000Y-56160000D02*
X160450000Y-56160000D01*
X162130000Y-56200000D02*
X163361000Y-56200000D01*
X159219000Y-56200000D02*
X160450000Y-56200000D01*
X162130000Y-56240000D02*
X163364000Y-56240000D01*
X159216000Y-56240000D02*
X160450000Y-56240000D01*
X162130000Y-56280000D02*
X163367000Y-56280000D01*
X159213000Y-56280000D02*
X160450000Y-56280000D01*
X159211000Y-56320000D02*
X160450000Y-56320000D01*
X162130000Y-56320000D02*
X163369000Y-56320000D01*
X159210000Y-56360000D02*
X160450000Y-56360000D01*
X162130000Y-56360000D02*
X163370000Y-56360000D01*
X159210000Y-56400000D02*
X160450000Y-56400000D01*
X162130000Y-56400000D02*
X163370000Y-56400000D01*
X163410000Y-56400000D02*
G75*
G03X163410000Y-56400000I-2120000J0D01*
G01*
X124170000Y-72330000D02*
X119110000Y-72330000D01*
X124170000Y-123250000D02*
X124170000Y-72330000D01*
X112050000Y-123250000D02*
X124170000Y-123250000D01*
X112050000Y-72330000D02*
X112050000Y-123250000D01*
X117110000Y-72330000D02*
X112050000Y-72330000D01*
X119110000Y-72330000D02*
G75*
G02X117110000Y-72330000I-1000000J0D01*
G01*
X184880000Y-57250000D02*
X184880000Y-56920000D01*
X178340000Y-57250000D02*
X184880000Y-57250000D01*
X178340000Y-56920000D02*
X178340000Y-57250000D01*
X184880000Y-54510000D02*
X184880000Y-54840000D01*
X178340000Y-54510000D02*
X184880000Y-54510000D01*
X178340000Y-54840000D02*
X178340000Y-54510000D01*
X153380000Y-72330000D02*
X148320000Y-72330000D01*
X153380000Y-108010000D02*
X153380000Y-72330000D01*
X141260000Y-108010000D02*
X153380000Y-108010000D01*
X141260000Y-72330000D02*
X141260000Y-108010000D01*
X146320000Y-72330000D02*
X141260000Y-72330000D01*
X148320000Y-72330000D02*
G75*
G02X146320000Y-72330000I-1000000J0D01*
G01*
X138370000Y-54900000D02*
X138370000Y-56150000D01*
X156270000Y-54900000D02*
X138370000Y-54900000D01*
X156270000Y-59400000D02*
X156270000Y-54900000D01*
X138370000Y-59400000D02*
X156270000Y-59400000D01*
X138370000Y-58150000D02*
X138370000Y-59400000D01*
X138370000Y-56150000D02*
G75*
G02X138370000Y-58150000I0J-1000000D01*
G01*
X181460000Y-68480000D02*
X181460000Y-71220000D01*
X174220000Y-68480000D02*
X174220000Y-71220000D01*
X174220000Y-71220000D02*
X181460000Y-71220000D01*
X174220000Y-68480000D02*
X181460000Y-68480000D01*
X178780000Y-72330000D02*
X173720000Y-72330000D01*
X178780000Y-108010000D02*
X178780000Y-72330000D01*
X166660000Y-108010000D02*
X178780000Y-108010000D01*
X166660000Y-72330000D02*
X166660000Y-108010000D01*
X171720000Y-72330000D02*
X166660000Y-72330000D01*
X173720000Y-72330000D02*
G75*
G02X171720000Y-72330000I-1000000J0D01*
G01*
X145820000Y-119280000D02*
X145820000Y-122020000D01*
X138580000Y-119280000D02*
X138580000Y-122020000D01*
X138580000Y-122020000D02*
X145820000Y-122020000D01*
X138580000Y-119280000D02*
X145820000Y-119280000D01*
X138370000Y-126020000D02*
X138370000Y-127270000D01*
X158810000Y-126020000D02*
X138370000Y-126020000D01*
X158810000Y-130520000D02*
X158810000Y-126020000D01*
X138370000Y-130520000D02*
X158810000Y-130520000D01*
X138370000Y-129270000D02*
X138370000Y-130520000D01*
X138370000Y-127270000D02*
G75*
G02X138370000Y-129270000I0J-1000000D01*
G01*
X186590000Y-138660000D02*
X189330000Y-138660000D01*
X186590000Y-145900000D02*
X189330000Y-145900000D01*
X189330000Y-145900000D02*
X189330000Y-138660000D01*
X186590000Y-145900000D02*
X186590000Y-138660000D01*
X206910000Y-137390000D02*
X209650000Y-137390000D01*
X206910000Y-144630000D02*
X209650000Y-144630000D01*
X209650000Y-144630000D02*
X209650000Y-137390000D01*
X206910000Y-144630000D02*
X206910000Y-137390000D01*
X213460000Y-144550000D02*
X210720000Y-144550000D01*
X213460000Y-137310000D02*
X210720000Y-137310000D01*
X210720000Y-137310000D02*
X210720000Y-144550000D01*
X213460000Y-137310000D02*
X213460000Y-144550000D01*
X249240000Y-89190000D02*
X258590000Y-89190000D01*
X249240000Y-108220000D02*
X249240000Y-74660000D01*
X249240000Y-108220000D02*
X258590000Y-108220000D01*
X249240000Y-93690000D02*
X258590000Y-93690000D01*
X249240000Y-74660000D02*
X258590000Y-74660000D01*
X258590000Y-74660000D02*
X258590000Y-108220000D01*
X245110000Y-78740000D02*
X243840000Y-78740000D01*
X243840000Y-78740000D02*
X243840000Y-80010000D01*
X205450000Y-72330000D02*
X200390000Y-72330000D01*
X205450000Y-123250000D02*
X205450000Y-72330000D01*
X193330000Y-123250000D02*
X205450000Y-123250000D01*
X193330000Y-72330000D02*
X193330000Y-123250000D01*
X198390000Y-72330000D02*
X193330000Y-72330000D01*
X200390000Y-72330000D02*
G75*
G02X198390000Y-72330000I-1000000J0D01*
G01*
X230030000Y-72450000D02*
X224970000Y-72450000D01*
X230030000Y-123370000D02*
X230030000Y-72450000D01*
X217910000Y-123370000D02*
X230030000Y-123370000D01*
X217910000Y-72450000D02*
X217910000Y-123370000D01*
X222970000Y-72450000D02*
X217910000Y-72450000D01*
X224970000Y-72450000D02*
G75*
G02X222970000Y-72450000I-1000000J0D01*
G01*
X227040000Y-50740000D02*
X225790000Y-50740000D01*
X227040000Y-61020000D02*
X227040000Y-50740000D01*
X222540000Y-61020000D02*
X227040000Y-61020000D01*
X222540000Y-50740000D02*
X222540000Y-61020000D01*
X223790000Y-50740000D02*
X222540000Y-50740000D01*
X225790000Y-50740000D02*
G75*
G02X223790000Y-50740000I-1000000J0D01*
G01*
X208820000Y-62130000D02*
X208820000Y-62460000D01*
X215360000Y-62130000D02*
X208820000Y-62130000D01*
X215360000Y-62460000D02*
X215360000Y-62130000D01*
X208820000Y-64870000D02*
X208820000Y-64540000D01*
X215360000Y-64870000D02*
X208820000Y-64870000D01*
X215360000Y-64540000D02*
X215360000Y-64870000D01*
X208820000Y-58320000D02*
X208820000Y-58650000D01*
X215360000Y-58320000D02*
X208820000Y-58320000D01*
X215360000Y-58650000D02*
X215360000Y-58320000D01*
X208820000Y-61060000D02*
X208820000Y-60730000D01*
X215360000Y-61060000D02*
X208820000Y-61060000D01*
X215360000Y-60730000D02*
X215360000Y-61060000D01*
X208820000Y-54510000D02*
X208820000Y-54840000D01*
X215360000Y-54510000D02*
X208820000Y-54510000D01*
X215360000Y-54840000D02*
X215360000Y-54510000D01*
X208820000Y-57250000D02*
X208820000Y-56920000D01*
X215360000Y-57250000D02*
X208820000Y-57250000D01*
X215360000Y-56920000D02*
X215360000Y-57250000D01*
X208820000Y-50700000D02*
X208820000Y-51030000D01*
X215360000Y-50700000D02*
X208820000Y-50700000D01*
X215360000Y-51030000D02*
X215360000Y-50700000D01*
X208820000Y-53440000D02*
X208820000Y-53110000D01*
X215360000Y-53440000D02*
X208820000Y-53440000D01*
X215360000Y-53110000D02*
X215360000Y-53440000D01*
X240570000Y-65940000D02*
X240570000Y-66270000D01*
X247110000Y-65940000D02*
X240570000Y-65940000D01*
X247110000Y-66270000D02*
X247110000Y-65940000D01*
X240570000Y-68680000D02*
X240570000Y-68350000D01*
X247110000Y-68680000D02*
X240570000Y-68680000D01*
X247110000Y-68350000D02*
X247110000Y-68680000D01*
X253020000Y-66230000D02*
X253020000Y-66074000D01*
X253020000Y-68546000D02*
X253020000Y-68390000D01*
X250418870Y-66230163D02*
G75*
G02X252500961Y-66230000I1041130J-1079837D01*
G01*
X250418870Y-68389837D02*
G75*
G03X252500961Y-68390000I1041130J1079837D01*
G01*
X249787665Y-66231392D02*
G75*
G02X253020000Y-66074484I1672335J-1078608D01*
G01*
X249787665Y-68388608D02*
G75*
G03X253020000Y-68545516I1672335J1078608D01*
G01*
X240570000Y-120550000D02*
X240570000Y-120880000D01*
X247110000Y-120550000D02*
X240570000Y-120550000D01*
X247110000Y-120880000D02*
X247110000Y-120550000D01*
X240570000Y-123290000D02*
X240570000Y-122960000D01*
X247110000Y-123290000D02*
X240570000Y-123290000D01*
X247110000Y-122960000D02*
X247110000Y-123290000D01*
X240570000Y-114200000D02*
X240570000Y-114530000D01*
X247110000Y-114200000D02*
X240570000Y-114200000D01*
X247110000Y-114530000D02*
X247110000Y-114200000D01*
X240570000Y-116940000D02*
X240570000Y-116610000D01*
X247110000Y-116940000D02*
X240570000Y-116940000D01*
X247110000Y-116610000D02*
X247110000Y-116940000D01*
X253020000Y-120840000D02*
X253020000Y-120684000D01*
X253020000Y-123156000D02*
X253020000Y-123000000D01*
X250418870Y-120840163D02*
G75*
G02X252500961Y-120840000I1041130J-1079837D01*
G01*
X250418870Y-122999837D02*
G75*
G03X252500961Y-123000000I1041130J1079837D01*
G01*
X249787665Y-120841392D02*
G75*
G02X253020000Y-120684484I1672335J-1078608D01*
G01*
X249787665Y-122998608D02*
G75*
G03X253020000Y-123155516I1672335J1078608D01*
G01*
X253020000Y-114490000D02*
X253020000Y-114334000D01*
X253020000Y-116806000D02*
X253020000Y-116650000D01*
X250418870Y-114490163D02*
G75*
G02X252500961Y-114490000I1041130J-1079837D01*
G01*
X250418870Y-116649837D02*
G75*
G03X252500961Y-116650000I1041130J1079837D01*
G01*
X249787665Y-114491392D02*
G75*
G02X253020000Y-114334484I1672335J-1078608D01*
G01*
X249787665Y-116648608D02*
G75*
G03X253020000Y-116805516I1672335J1078608D01*
G01*
X210893922Y-135330000D02*
X211411078Y-135330000D01*
X210893922Y-133910000D02*
X211411078Y-133910000D01*
X258640000Y-141070000D02*
X256690000Y-141070000D01*
X254470000Y-141070000D02*
X251240000Y-141070000D01*
X249320000Y-140350000D02*
X249320000Y-139270000D01*
X249320000Y-135050000D02*
X249320000Y-133970000D01*
X254470000Y-133250000D02*
X251240000Y-133250000D01*
X258640000Y-133250000D02*
X256690000Y-133250000D01*
X249320000Y-139270000D02*
X248890000Y-139270000D01*
X258640000Y-133250000D02*
X258640000Y-141070000D01*
X250851000Y-130460000D02*
X252109000Y-130460000D01*
X250851000Y-128620000D02*
X252109000Y-128620000D01*
X192690000Y-139079000D02*
X192690000Y-137821000D01*
X190850000Y-139079000D02*
X190850000Y-137821000D01*
X192690000Y-144159000D02*
X192690000Y-142901000D01*
X190850000Y-144159000D02*
X190850000Y-142901000D01*
X253130000Y-60150000D02*
X253130000Y-58650000D01*
X251880000Y-56150000D02*
X247380000Y-56150000D01*
X246130000Y-58650000D02*
X246130000Y-60150000D01*
X247380000Y-62650000D02*
X251880000Y-62650000D01*
X104240000Y-56530000D02*
G75*
G03X103490000Y-55780000I-750000J0D01*
G01*
X103490000Y-68680000D02*
G75*
G03X104240000Y-67930000I0J750000D01*
G01*
X91340000Y-67930000D02*
G75*
G03X92090000Y-68680000I750000J0D01*
G01*
X91340000Y-55780000D02*
X91340000Y-67930000D01*
X92090000Y-68680000D02*
X103490000Y-68680000D01*
X104240000Y-67930000D02*
X104240000Y-56530000D01*
X103490000Y-55780000D02*
X91340000Y-55780000D01*
D10*
X196515000Y-136220000D02*
X194915000Y-136220000D01*
X196515000Y-146295000D02*
X202265000Y-146295000D01*
X196515000Y-135645000D02*
X202265000Y-135645000D01*
X196515000Y-146295000D02*
X196515000Y-145645000D01*
X202265000Y-146295000D02*
X202265000Y-145645000D01*
X202265000Y-135645000D02*
X202265000Y-136295000D01*
X196515000Y-135645000D02*
X196515000Y-136220000D01*
D12*
X87730000Y-129780000D02*
X87400000Y-129780000D01*
X87730000Y-136320000D02*
X87730000Y-129780000D01*
X87400000Y-136320000D02*
X87730000Y-136320000D01*
X84990000Y-129780000D02*
X85320000Y-129780000D01*
X84990000Y-136320000D02*
X84990000Y-129780000D01*
X85320000Y-136320000D02*
X84990000Y-136320000D01*
X92810000Y-129780000D02*
X92480000Y-129780000D01*
X92810000Y-136320000D02*
X92810000Y-129780000D01*
X92480000Y-136320000D02*
X92810000Y-136320000D01*
X90070000Y-129780000D02*
X90400000Y-129780000D01*
X90070000Y-136320000D02*
X90070000Y-129780000D01*
X90400000Y-136320000D02*
X90070000Y-136320000D01*
X97890000Y-129780000D02*
X97560000Y-129780000D01*
X97890000Y-136320000D02*
X97890000Y-129780000D01*
X97560000Y-136320000D02*
X97890000Y-136320000D01*
X95150000Y-129780000D02*
X95480000Y-129780000D01*
X95150000Y-136320000D02*
X95150000Y-129780000D01*
X95480000Y-136320000D02*
X95150000Y-136320000D01*
X184880000Y-53440000D02*
X184880000Y-53110000D01*
X178340000Y-53440000D02*
X184880000Y-53440000D01*
X178340000Y-53110000D02*
X178340000Y-53440000D01*
X184880000Y-50700000D02*
X184880000Y-51030000D01*
X178340000Y-50700000D02*
X184880000Y-50700000D01*
X178340000Y-51030000D02*
X178340000Y-50700000D01*
X208050000Y-68480000D02*
X208050000Y-71220000D01*
X200810000Y-68480000D02*
X200810000Y-71220000D01*
X200810000Y-71220000D02*
X208050000Y-71220000D01*
X200810000Y-68480000D02*
X208050000Y-68480000D01*
X242800000Y-111860000D02*
X242800000Y-109120000D01*
X250040000Y-111860000D02*
X250040000Y-109120000D01*
X250040000Y-109120000D02*
X242800000Y-109120000D01*
X250040000Y-111860000D02*
X242800000Y-111860000D01*
X102640000Y-51970000D02*
X102640000Y-54710000D01*
X95400000Y-51970000D02*
X95400000Y-54710000D01*
X95400000Y-54710000D02*
X102640000Y-54710000D01*
X95400000Y-51970000D02*
X102640000Y-51970000D01*
X183920000Y-59590000D02*
X183920000Y-62330000D01*
X176680000Y-59590000D02*
X176680000Y-62330000D01*
X176680000Y-62330000D02*
X183920000Y-62330000D01*
X176680000Y-59590000D02*
X183920000Y-59590000D01*
X134520000Y-52300000D02*
X137260000Y-52300000D01*
X134520000Y-59540000D02*
X137260000Y-59540000D01*
X137260000Y-59540000D02*
X137260000Y-52300000D01*
X134520000Y-59540000D02*
X134520000Y-52300000D01*
X155980000Y-68480000D02*
X155980000Y-71220000D01*
X148740000Y-68480000D02*
X148740000Y-71220000D01*
X148740000Y-71220000D02*
X155980000Y-71220000D01*
X148740000Y-68480000D02*
X155980000Y-68480000D01*
X93880000Y-77700000D02*
X96620000Y-77700000D01*
X93880000Y-84940000D02*
X96620000Y-84940000D01*
X96620000Y-84940000D02*
X96620000Y-77700000D01*
X93880000Y-84940000D02*
X93880000Y-77700000D01*
D10*
X163492380Y-57911904D02*
X164301904Y-57911904D01*
X164397142Y-57864285D01*
X164444761Y-57816666D01*
X164492380Y-57721428D01*
X164492380Y-57530952D01*
X164444761Y-57435714D01*
X164397142Y-57388095D01*
X164301904Y-57340476D01*
X163492380Y-57340476D01*
X163825714Y-56435714D02*
X164492380Y-56435714D01*
X163444761Y-56673809D02*
X164159047Y-56911904D01*
X164159047Y-56292857D01*
X120007142Y-59042380D02*
X119673809Y-58566190D01*
X119435714Y-59042380D02*
X119435714Y-58042380D01*
X119816666Y-58042380D01*
X119911904Y-58090000D01*
X119959523Y-58137619D01*
X120007142Y-58232857D01*
X120007142Y-58375714D01*
X119959523Y-58470952D01*
X119911904Y-58518571D01*
X119816666Y-58566190D01*
X119435714Y-58566190D01*
X120959523Y-59042380D02*
X120388095Y-59042380D01*
X120673809Y-59042380D02*
X120673809Y-58042380D01*
X120578571Y-58185238D01*
X120483333Y-58280476D01*
X120388095Y-58328095D01*
X121292857Y-58042380D02*
X121959523Y-58042380D01*
X121530952Y-59042380D01*
X120007142Y-47612380D02*
X119673809Y-47136190D01*
X119435714Y-47612380D02*
X119435714Y-46612380D01*
X119816666Y-46612380D01*
X119911904Y-46660000D01*
X119959523Y-46707619D01*
X120007142Y-46802857D01*
X120007142Y-46945714D01*
X119959523Y-47040952D01*
X119911904Y-47088571D01*
X119816666Y-47136190D01*
X119435714Y-47136190D01*
X120959523Y-47612380D02*
X120388095Y-47612380D01*
X120673809Y-47612380D02*
X120673809Y-46612380D01*
X120578571Y-46755238D01*
X120483333Y-46850476D01*
X120388095Y-46898095D01*
X121816666Y-46612380D02*
X121626190Y-46612380D01*
X121530952Y-46660000D01*
X121483333Y-46707619D01*
X121388095Y-46850476D01*
X121340476Y-47040952D01*
X121340476Y-47421904D01*
X121388095Y-47517142D01*
X121435714Y-47564761D01*
X121530952Y-47612380D01*
X121721428Y-47612380D01*
X121816666Y-47564761D01*
X121864285Y-47517142D01*
X121911904Y-47421904D01*
X121911904Y-47183809D01*
X121864285Y-47088571D01*
X121816666Y-47040952D01*
X121721428Y-46993333D01*
X121530952Y-46993333D01*
X121435714Y-47040952D01*
X121388095Y-47088571D01*
X121340476Y-47183809D01*
X120007142Y-64122380D02*
X119673809Y-63646190D01*
X119435714Y-64122380D02*
X119435714Y-63122380D01*
X119816666Y-63122380D01*
X119911904Y-63170000D01*
X119959523Y-63217619D01*
X120007142Y-63312857D01*
X120007142Y-63455714D01*
X119959523Y-63550952D01*
X119911904Y-63598571D01*
X119816666Y-63646190D01*
X119435714Y-63646190D01*
X120959523Y-64122380D02*
X120388095Y-64122380D01*
X120673809Y-64122380D02*
X120673809Y-63122380D01*
X120578571Y-63265238D01*
X120483333Y-63360476D01*
X120388095Y-63408095D01*
X121864285Y-63122380D02*
X121388095Y-63122380D01*
X121340476Y-63598571D01*
X121388095Y-63550952D01*
X121483333Y-63503333D01*
X121721428Y-63503333D01*
X121816666Y-63550952D01*
X121864285Y-63598571D01*
X121911904Y-63693809D01*
X121911904Y-63931904D01*
X121864285Y-64027142D01*
X121816666Y-64074761D01*
X121721428Y-64122380D01*
X121483333Y-64122380D01*
X121388095Y-64074761D01*
X121340476Y-64027142D01*
X129444761Y-55407619D02*
X129349523Y-55360000D01*
X129254285Y-55264761D01*
X129111428Y-55121904D01*
X129016190Y-55074285D01*
X128920952Y-55074285D01*
X128968571Y-55312380D02*
X128873333Y-55264761D01*
X128778095Y-55169523D01*
X128730476Y-54979047D01*
X128730476Y-54645714D01*
X128778095Y-54455238D01*
X128873333Y-54360000D01*
X128968571Y-54312380D01*
X129159047Y-54312380D01*
X129254285Y-54360000D01*
X129349523Y-54455238D01*
X129397142Y-54645714D01*
X129397142Y-54979047D01*
X129349523Y-55169523D01*
X129254285Y-55264761D01*
X129159047Y-55312380D01*
X128968571Y-55312380D01*
X130349523Y-55312380D02*
X129778095Y-55312380D01*
X130063809Y-55312380D02*
X130063809Y-54312380D01*
X129968571Y-54455238D01*
X129873333Y-54550476D01*
X129778095Y-54598095D01*
X128801904Y-47022380D02*
X128801904Y-46022380D01*
X129040000Y-46022380D01*
X129182857Y-46070000D01*
X129278095Y-46165238D01*
X129325714Y-46260476D01*
X129373333Y-46450952D01*
X129373333Y-46593809D01*
X129325714Y-46784285D01*
X129278095Y-46879523D01*
X129182857Y-46974761D01*
X129040000Y-47022380D01*
X128801904Y-47022380D01*
X130230476Y-46355714D02*
X130230476Y-47022380D01*
X129992380Y-45974761D02*
X129754285Y-46689047D01*
X130373333Y-46689047D01*
X189897142Y-49927142D02*
X189849523Y-49974761D01*
X189706666Y-50022380D01*
X189611428Y-50022380D01*
X189468571Y-49974761D01*
X189373333Y-49879523D01*
X189325714Y-49784285D01*
X189278095Y-49593809D01*
X189278095Y-49450952D01*
X189325714Y-49260476D01*
X189373333Y-49165238D01*
X189468571Y-49070000D01*
X189611428Y-49022380D01*
X189706666Y-49022380D01*
X189849523Y-49070000D01*
X189897142Y-49117619D01*
X190849523Y-50022380D02*
X190278095Y-50022380D01*
X190563809Y-50022380D02*
X190563809Y-49022380D01*
X190468571Y-49165238D01*
X190373333Y-49260476D01*
X190278095Y-49308095D01*
X191325714Y-50022380D02*
X191516190Y-50022380D01*
X191611428Y-49974761D01*
X191659047Y-49927142D01*
X191754285Y-49784285D01*
X191801904Y-49593809D01*
X191801904Y-49212857D01*
X191754285Y-49117619D01*
X191706666Y-49070000D01*
X191611428Y-49022380D01*
X191420952Y-49022380D01*
X191325714Y-49070000D01*
X191278095Y-49117619D01*
X191230476Y-49212857D01*
X191230476Y-49450952D01*
X191278095Y-49546190D01*
X191325714Y-49593809D01*
X191420952Y-49641428D01*
X191611428Y-49641428D01*
X191706666Y-49593809D01*
X191754285Y-49546190D01*
X191801904Y-49450952D01*
X158397142Y-57042857D02*
X158444761Y-57090476D01*
X158492380Y-57233333D01*
X158492380Y-57328571D01*
X158444761Y-57471428D01*
X158349523Y-57566666D01*
X158254285Y-57614285D01*
X158063809Y-57661904D01*
X157920952Y-57661904D01*
X157730476Y-57614285D01*
X157635238Y-57566666D01*
X157540000Y-57471428D01*
X157492380Y-57328571D01*
X157492380Y-57233333D01*
X157540000Y-57090476D01*
X157587619Y-57042857D01*
X158492380Y-56090476D02*
X158492380Y-56661904D01*
X158492380Y-56376190D02*
X157492380Y-56376190D01*
X157635238Y-56471428D01*
X157730476Y-56566666D01*
X157778095Y-56661904D01*
X157492380Y-55233333D02*
X157492380Y-55423809D01*
X157540000Y-55519047D01*
X157587619Y-55566666D01*
X157730476Y-55661904D01*
X157920952Y-55709523D01*
X158301904Y-55709523D01*
X158397142Y-55661904D01*
X158444761Y-55614285D01*
X158492380Y-55519047D01*
X158492380Y-55328571D01*
X158444761Y-55233333D01*
X158397142Y-55185714D01*
X158301904Y-55138095D01*
X158063809Y-55138095D01*
X157968571Y-55185714D01*
X157920952Y-55233333D01*
X157873333Y-55328571D01*
X157873333Y-55519047D01*
X157920952Y-55614285D01*
X157968571Y-55661904D01*
X158063809Y-55709523D01*
X117348095Y-70782380D02*
X117348095Y-71591904D01*
X117395714Y-71687142D01*
X117443333Y-71734761D01*
X117538571Y-71782380D01*
X117729047Y-71782380D01*
X117824285Y-71734761D01*
X117871904Y-71687142D01*
X117919523Y-71591904D01*
X117919523Y-70782380D01*
X118919523Y-71782380D02*
X118348095Y-71782380D01*
X118633809Y-71782380D02*
X118633809Y-70782380D01*
X118538571Y-70925238D01*
X118443333Y-71020476D01*
X118348095Y-71068095D01*
X115300476Y-123702380D02*
X115967142Y-123702380D01*
X115300476Y-124702380D01*
X115967142Y-124702380D01*
X116490952Y-124130952D02*
X116395714Y-124083333D01*
X116348095Y-124035714D01*
X116300476Y-123940476D01*
X116300476Y-123892857D01*
X116348095Y-123797619D01*
X116395714Y-123750000D01*
X116490952Y-123702380D01*
X116681428Y-123702380D01*
X116776666Y-123750000D01*
X116824285Y-123797619D01*
X116871904Y-123892857D01*
X116871904Y-123940476D01*
X116824285Y-124035714D01*
X116776666Y-124083333D01*
X116681428Y-124130952D01*
X116490952Y-124130952D01*
X116395714Y-124178571D01*
X116348095Y-124226190D01*
X116300476Y-124321428D01*
X116300476Y-124511904D01*
X116348095Y-124607142D01*
X116395714Y-124654761D01*
X116490952Y-124702380D01*
X116681428Y-124702380D01*
X116776666Y-124654761D01*
X116824285Y-124607142D01*
X116871904Y-124511904D01*
X116871904Y-124321428D01*
X116824285Y-124226190D01*
X116776666Y-124178571D01*
X116681428Y-124130952D01*
X117490952Y-123702380D02*
X117586190Y-123702380D01*
X117681428Y-123750000D01*
X117729047Y-123797619D01*
X117776666Y-123892857D01*
X117824285Y-124083333D01*
X117824285Y-124321428D01*
X117776666Y-124511904D01*
X117729047Y-124607142D01*
X117681428Y-124654761D01*
X117586190Y-124702380D01*
X117490952Y-124702380D01*
X117395714Y-124654761D01*
X117348095Y-124607142D01*
X117300476Y-124511904D01*
X117252857Y-124321428D01*
X117252857Y-124083333D01*
X117300476Y-123892857D01*
X117348095Y-123797619D01*
X117395714Y-123750000D01*
X117490952Y-123702380D01*
X118824285Y-124607142D02*
X118776666Y-124654761D01*
X118633809Y-124702380D01*
X118538571Y-124702380D01*
X118395714Y-124654761D01*
X118300476Y-124559523D01*
X118252857Y-124464285D01*
X118205238Y-124273809D01*
X118205238Y-124130952D01*
X118252857Y-123940476D01*
X118300476Y-123845238D01*
X118395714Y-123750000D01*
X118538571Y-123702380D01*
X118633809Y-123702380D01*
X118776666Y-123750000D01*
X118824285Y-123797619D01*
X119252857Y-124702380D02*
X119252857Y-123702380D01*
X119633809Y-123702380D01*
X119729047Y-123750000D01*
X119776666Y-123797619D01*
X119824285Y-123892857D01*
X119824285Y-124035714D01*
X119776666Y-124130952D01*
X119729047Y-124178571D01*
X119633809Y-124226190D01*
X119252857Y-124226190D01*
X120252857Y-123702380D02*
X120252857Y-124511904D01*
X120300476Y-124607142D01*
X120348095Y-124654761D01*
X120443333Y-124702380D01*
X120633809Y-124702380D01*
X120729047Y-124654761D01*
X120776666Y-124607142D01*
X120824285Y-124511904D01*
X120824285Y-123702380D01*
X181443333Y-53962380D02*
X181110000Y-53486190D01*
X180871904Y-53962380D02*
X180871904Y-52962380D01*
X181252857Y-52962380D01*
X181348095Y-53010000D01*
X181395714Y-53057619D01*
X181443333Y-53152857D01*
X181443333Y-53295714D01*
X181395714Y-53390952D01*
X181348095Y-53438571D01*
X181252857Y-53486190D01*
X180871904Y-53486190D01*
X181776666Y-52962380D02*
X182395714Y-52962380D01*
X182062380Y-53343333D01*
X182205238Y-53343333D01*
X182300476Y-53390952D01*
X182348095Y-53438571D01*
X182395714Y-53533809D01*
X182395714Y-53771904D01*
X182348095Y-53867142D01*
X182300476Y-53914761D01*
X182205238Y-53962380D01*
X181919523Y-53962380D01*
X181824285Y-53914761D01*
X181776666Y-53867142D01*
X146558095Y-70782380D02*
X146558095Y-71591904D01*
X146605714Y-71687142D01*
X146653333Y-71734761D01*
X146748571Y-71782380D01*
X146939047Y-71782380D01*
X147034285Y-71734761D01*
X147081904Y-71687142D01*
X147129523Y-71591904D01*
X147129523Y-70782380D01*
X147558095Y-70877619D02*
X147605714Y-70830000D01*
X147700952Y-70782380D01*
X147939047Y-70782380D01*
X148034285Y-70830000D01*
X148081904Y-70877619D01*
X148129523Y-70972857D01*
X148129523Y-71068095D01*
X148081904Y-71210952D01*
X147510476Y-71782380D01*
X148129523Y-71782380D01*
X142915238Y-108462380D02*
X143486666Y-108462380D01*
X143200952Y-109462380D02*
X143200952Y-108462380D01*
X144391428Y-109367142D02*
X144343809Y-109414761D01*
X144200952Y-109462380D01*
X144105714Y-109462380D01*
X143962857Y-109414761D01*
X143867619Y-109319523D01*
X143820000Y-109224285D01*
X143772380Y-109033809D01*
X143772380Y-108890952D01*
X143820000Y-108700476D01*
X143867619Y-108605238D01*
X143962857Y-108510000D01*
X144105714Y-108462380D01*
X144200952Y-108462380D01*
X144343809Y-108510000D01*
X144391428Y-108557619D01*
X145296190Y-108462380D02*
X144820000Y-108462380D01*
X144772380Y-108938571D01*
X144820000Y-108890952D01*
X144915238Y-108843333D01*
X145153333Y-108843333D01*
X145248571Y-108890952D01*
X145296190Y-108938571D01*
X145343809Y-109033809D01*
X145343809Y-109271904D01*
X145296190Y-109367142D01*
X145248571Y-109414761D01*
X145153333Y-109462380D01*
X144915238Y-109462380D01*
X144820000Y-109414761D01*
X144772380Y-109367142D01*
X146248571Y-108462380D02*
X145772380Y-108462380D01*
X145724761Y-108938571D01*
X145772380Y-108890952D01*
X145867619Y-108843333D01*
X146105714Y-108843333D01*
X146200952Y-108890952D01*
X146248571Y-108938571D01*
X146296190Y-109033809D01*
X146296190Y-109271904D01*
X146248571Y-109367142D01*
X146200952Y-109414761D01*
X146105714Y-109462380D01*
X145867619Y-109462380D01*
X145772380Y-109414761D01*
X145724761Y-109367142D01*
X146677142Y-108557619D02*
X146724761Y-108510000D01*
X146820000Y-108462380D01*
X147058095Y-108462380D01*
X147153333Y-108510000D01*
X147200952Y-108557619D01*
X147248571Y-108652857D01*
X147248571Y-108748095D01*
X147200952Y-108890952D01*
X146629523Y-109462380D01*
X147248571Y-109462380D01*
X148153333Y-108462380D02*
X147677142Y-108462380D01*
X147629523Y-108938571D01*
X147677142Y-108890952D01*
X147772380Y-108843333D01*
X148010476Y-108843333D01*
X148105714Y-108890952D01*
X148153333Y-108938571D01*
X148200952Y-109033809D01*
X148200952Y-109271904D01*
X148153333Y-109367142D01*
X148105714Y-109414761D01*
X148010476Y-109462380D01*
X147772380Y-109462380D01*
X147677142Y-109414761D01*
X147629523Y-109367142D01*
X148534285Y-108462380D02*
X149200952Y-108462380D01*
X148772380Y-109462380D01*
X150153333Y-109367142D02*
X150105714Y-109414761D01*
X149962857Y-109462380D01*
X149867619Y-109462380D01*
X149724761Y-109414761D01*
X149629523Y-109319523D01*
X149581904Y-109224285D01*
X149534285Y-109033809D01*
X149534285Y-108890952D01*
X149581904Y-108700476D01*
X149629523Y-108605238D01*
X149724761Y-108510000D01*
X149867619Y-108462380D01*
X149962857Y-108462380D01*
X150105714Y-108510000D01*
X150153333Y-108557619D01*
X150581904Y-109462380D02*
X150581904Y-108462380D01*
X150962857Y-108462380D01*
X151058095Y-108510000D01*
X151105714Y-108557619D01*
X151153333Y-108652857D01*
X151153333Y-108795714D01*
X151105714Y-108890952D01*
X151058095Y-108938571D01*
X150962857Y-108986190D01*
X150581904Y-108986190D01*
X151581904Y-109462380D02*
X151581904Y-108462380D01*
X136822380Y-57911904D02*
X137631904Y-57911904D01*
X137727142Y-57864285D01*
X137774761Y-57816666D01*
X137822380Y-57721428D01*
X137822380Y-57530952D01*
X137774761Y-57435714D01*
X137727142Y-57388095D01*
X137631904Y-57340476D01*
X136822380Y-57340476D01*
X136822380Y-56388095D02*
X136822380Y-56864285D01*
X137298571Y-56911904D01*
X137250952Y-56864285D01*
X137203333Y-56769047D01*
X137203333Y-56530952D01*
X137250952Y-56435714D01*
X137298571Y-56388095D01*
X137393809Y-56340476D01*
X137631904Y-56340476D01*
X137727142Y-56388095D01*
X137774761Y-56435714D01*
X137822380Y-56530952D01*
X137822380Y-56769047D01*
X137774761Y-56864285D01*
X137727142Y-56911904D01*
X242506666Y-141232380D02*
X242173333Y-140756190D01*
X241935238Y-141232380D02*
X241935238Y-140232380D01*
X242316190Y-140232380D01*
X242411428Y-140280000D01*
X242459047Y-140327619D01*
X242506666Y-140422857D01*
X242506666Y-140565714D01*
X242459047Y-140660952D01*
X242411428Y-140708571D01*
X242316190Y-140756190D01*
X241935238Y-140756190D01*
X242935238Y-140708571D02*
X243268571Y-140708571D01*
X243411428Y-141232380D02*
X242935238Y-141232380D01*
X242935238Y-140232380D01*
X243411428Y-140232380D01*
X244173333Y-140708571D02*
X243840000Y-140708571D01*
X243840000Y-141232380D02*
X243840000Y-140232380D01*
X244316190Y-140232380D01*
X244840000Y-140232380D02*
X244840000Y-140470476D01*
X244601904Y-140375238D02*
X244840000Y-140470476D01*
X245078095Y-140375238D01*
X244697142Y-140660952D02*
X244840000Y-140470476D01*
X244982857Y-140660952D01*
X245601904Y-140232380D02*
X245601904Y-140470476D01*
X245363809Y-140375238D02*
X245601904Y-140470476D01*
X245840000Y-140375238D01*
X245459047Y-140660952D02*
X245601904Y-140470476D01*
X245744761Y-140660952D01*
X251396666Y-47252380D02*
X251063333Y-46776190D01*
X250825238Y-47252380D02*
X250825238Y-46252380D01*
X251206190Y-46252380D01*
X251301428Y-46300000D01*
X251349047Y-46347619D01*
X251396666Y-46442857D01*
X251396666Y-46585714D01*
X251349047Y-46680952D01*
X251301428Y-46728571D01*
X251206190Y-46776190D01*
X250825238Y-46776190D01*
X251825238Y-46728571D02*
X252158571Y-46728571D01*
X252301428Y-47252380D02*
X251825238Y-47252380D01*
X251825238Y-46252380D01*
X252301428Y-46252380D01*
X253063333Y-46728571D02*
X252730000Y-46728571D01*
X252730000Y-47252380D02*
X252730000Y-46252380D01*
X253206190Y-46252380D01*
X253730000Y-46252380D02*
X253730000Y-46490476D01*
X253491904Y-46395238D02*
X253730000Y-46490476D01*
X253968095Y-46395238D01*
X253587142Y-46680952D02*
X253730000Y-46490476D01*
X253872857Y-46680952D01*
X254491904Y-46252380D02*
X254491904Y-46490476D01*
X254253809Y-46395238D02*
X254491904Y-46490476D01*
X254730000Y-46395238D01*
X254349047Y-46680952D02*
X254491904Y-46490476D01*
X254634761Y-46680952D01*
X82486666Y-141232380D02*
X82153333Y-140756190D01*
X81915238Y-141232380D02*
X81915238Y-140232380D01*
X82296190Y-140232380D01*
X82391428Y-140280000D01*
X82439047Y-140327619D01*
X82486666Y-140422857D01*
X82486666Y-140565714D01*
X82439047Y-140660952D01*
X82391428Y-140708571D01*
X82296190Y-140756190D01*
X81915238Y-140756190D01*
X82915238Y-140708571D02*
X83248571Y-140708571D01*
X83391428Y-141232380D02*
X82915238Y-141232380D01*
X82915238Y-140232380D01*
X83391428Y-140232380D01*
X84153333Y-140708571D02*
X83820000Y-140708571D01*
X83820000Y-141232380D02*
X83820000Y-140232380D01*
X84296190Y-140232380D01*
X84820000Y-140232380D02*
X84820000Y-140470476D01*
X84581904Y-140375238D02*
X84820000Y-140470476D01*
X85058095Y-140375238D01*
X84677142Y-140660952D02*
X84820000Y-140470476D01*
X84962857Y-140660952D01*
X85581904Y-140232380D02*
X85581904Y-140470476D01*
X85343809Y-140375238D02*
X85581904Y-140470476D01*
X85820000Y-140375238D01*
X85439047Y-140660952D02*
X85581904Y-140470476D01*
X85724761Y-140660952D01*
X82486666Y-47252380D02*
X82153333Y-46776190D01*
X81915238Y-47252380D02*
X81915238Y-46252380D01*
X82296190Y-46252380D01*
X82391428Y-46300000D01*
X82439047Y-46347619D01*
X82486666Y-46442857D01*
X82486666Y-46585714D01*
X82439047Y-46680952D01*
X82391428Y-46728571D01*
X82296190Y-46776190D01*
X81915238Y-46776190D01*
X82915238Y-46728571D02*
X83248571Y-46728571D01*
X83391428Y-47252380D02*
X82915238Y-47252380D01*
X82915238Y-46252380D01*
X83391428Y-46252380D01*
X84153333Y-46728571D02*
X83820000Y-46728571D01*
X83820000Y-47252380D02*
X83820000Y-46252380D01*
X84296190Y-46252380D01*
X84820000Y-46252380D02*
X84820000Y-46490476D01*
X84581904Y-46395238D02*
X84820000Y-46490476D01*
X85058095Y-46395238D01*
X84677142Y-46680952D02*
X84820000Y-46490476D01*
X84962857Y-46680952D01*
X85581904Y-46252380D02*
X85581904Y-46490476D01*
X85343809Y-46395238D02*
X85581904Y-46490476D01*
X85820000Y-46395238D01*
X85439047Y-46680952D02*
X85581904Y-46490476D01*
X85724761Y-46680952D01*
X177673333Y-67707142D02*
X177625714Y-67754761D01*
X177482857Y-67802380D01*
X177387619Y-67802380D01*
X177244761Y-67754761D01*
X177149523Y-67659523D01*
X177101904Y-67564285D01*
X177054285Y-67373809D01*
X177054285Y-67230952D01*
X177101904Y-67040476D01*
X177149523Y-66945238D01*
X177244761Y-66850000D01*
X177387619Y-66802380D01*
X177482857Y-66802380D01*
X177625714Y-66850000D01*
X177673333Y-66897619D01*
X178006666Y-66802380D02*
X178625714Y-66802380D01*
X178292380Y-67183333D01*
X178435238Y-67183333D01*
X178530476Y-67230952D01*
X178578095Y-67278571D01*
X178625714Y-67373809D01*
X178625714Y-67611904D01*
X178578095Y-67707142D01*
X178530476Y-67754761D01*
X178435238Y-67802380D01*
X178149523Y-67802380D01*
X178054285Y-67754761D01*
X178006666Y-67707142D01*
X171958095Y-70782380D02*
X171958095Y-71591904D01*
X172005714Y-71687142D01*
X172053333Y-71734761D01*
X172148571Y-71782380D01*
X172339047Y-71782380D01*
X172434285Y-71734761D01*
X172481904Y-71687142D01*
X172529523Y-71591904D01*
X172529523Y-70782380D01*
X172910476Y-70782380D02*
X173529523Y-70782380D01*
X173196190Y-71163333D01*
X173339047Y-71163333D01*
X173434285Y-71210952D01*
X173481904Y-71258571D01*
X173529523Y-71353809D01*
X173529523Y-71591904D01*
X173481904Y-71687142D01*
X173434285Y-71734761D01*
X173339047Y-71782380D01*
X173053333Y-71782380D01*
X172958095Y-71734761D01*
X172910476Y-71687142D01*
X141557142Y-118507142D02*
X141509523Y-118554761D01*
X141366666Y-118602380D01*
X141271428Y-118602380D01*
X141128571Y-118554761D01*
X141033333Y-118459523D01*
X140985714Y-118364285D01*
X140938095Y-118173809D01*
X140938095Y-118030952D01*
X140985714Y-117840476D01*
X141033333Y-117745238D01*
X141128571Y-117650000D01*
X141271428Y-117602380D01*
X141366666Y-117602380D01*
X141509523Y-117650000D01*
X141557142Y-117697619D01*
X142509523Y-118602380D02*
X141938095Y-118602380D01*
X142223809Y-118602380D02*
X142223809Y-117602380D01*
X142128571Y-117745238D01*
X142033333Y-117840476D01*
X141938095Y-117888095D01*
X142842857Y-117602380D02*
X143461904Y-117602380D01*
X143128571Y-117983333D01*
X143271428Y-117983333D01*
X143366666Y-118030952D01*
X143414285Y-118078571D01*
X143461904Y-118173809D01*
X143461904Y-118411904D01*
X143414285Y-118507142D01*
X143366666Y-118554761D01*
X143271428Y-118602380D01*
X142985714Y-118602380D01*
X142890476Y-118554761D01*
X142842857Y-118507142D01*
X136822380Y-129508095D02*
X137631904Y-129508095D01*
X137727142Y-129460476D01*
X137774761Y-129412857D01*
X137822380Y-129317619D01*
X137822380Y-129127142D01*
X137774761Y-129031904D01*
X137727142Y-128984285D01*
X137631904Y-128936666D01*
X136822380Y-128936666D01*
X137822380Y-127936666D02*
X137822380Y-128508095D01*
X137822380Y-128222380D02*
X136822380Y-128222380D01*
X136965238Y-128317619D01*
X137060476Y-128412857D01*
X137108095Y-128508095D01*
X136822380Y-127317619D02*
X136822380Y-127222380D01*
X136870000Y-127127142D01*
X136917619Y-127079523D01*
X137012857Y-127031904D01*
X137203333Y-126984285D01*
X137441428Y-126984285D01*
X137631904Y-127031904D01*
X137727142Y-127079523D01*
X137774761Y-127127142D01*
X137822380Y-127222380D01*
X137822380Y-127317619D01*
X137774761Y-127412857D01*
X137727142Y-127460476D01*
X137631904Y-127508095D01*
X137441428Y-127555714D01*
X137203333Y-127555714D01*
X137012857Y-127508095D01*
X136917619Y-127460476D01*
X136870000Y-127412857D01*
X136822380Y-127317619D01*
X185817142Y-142922857D02*
X185864761Y-142970476D01*
X185912380Y-143113333D01*
X185912380Y-143208571D01*
X185864761Y-143351428D01*
X185769523Y-143446666D01*
X185674285Y-143494285D01*
X185483809Y-143541904D01*
X185340952Y-143541904D01*
X185150476Y-143494285D01*
X185055238Y-143446666D01*
X184960000Y-143351428D01*
X184912380Y-143208571D01*
X184912380Y-143113333D01*
X184960000Y-142970476D01*
X185007619Y-142922857D01*
X185912380Y-141970476D02*
X185912380Y-142541904D01*
X185912380Y-142256190D02*
X184912380Y-142256190D01*
X185055238Y-142351428D01*
X185150476Y-142446666D01*
X185198095Y-142541904D01*
X184912380Y-141065714D02*
X184912380Y-141541904D01*
X185388571Y-141589523D01*
X185340952Y-141541904D01*
X185293333Y-141446666D01*
X185293333Y-141208571D01*
X185340952Y-141113333D01*
X185388571Y-141065714D01*
X185483809Y-141018095D01*
X185721904Y-141018095D01*
X185817142Y-141065714D01*
X185864761Y-141113333D01*
X185912380Y-141208571D01*
X185912380Y-141446666D01*
X185864761Y-141541904D01*
X185817142Y-141589523D01*
X206137142Y-141652857D02*
X206184761Y-141700476D01*
X206232380Y-141843333D01*
X206232380Y-141938571D01*
X206184761Y-142081428D01*
X206089523Y-142176666D01*
X205994285Y-142224285D01*
X205803809Y-142271904D01*
X205660952Y-142271904D01*
X205470476Y-142224285D01*
X205375238Y-142176666D01*
X205280000Y-142081428D01*
X205232380Y-141938571D01*
X205232380Y-141843333D01*
X205280000Y-141700476D01*
X205327619Y-141652857D01*
X206232380Y-140700476D02*
X206232380Y-141271904D01*
X206232380Y-140986190D02*
X205232380Y-140986190D01*
X205375238Y-141081428D01*
X205470476Y-141176666D01*
X205518095Y-141271904D01*
X205232380Y-140367142D02*
X205232380Y-139700476D01*
X206232380Y-140129047D01*
X214947142Y-141572857D02*
X214994761Y-141620476D01*
X215042380Y-141763333D01*
X215042380Y-141858571D01*
X214994761Y-142001428D01*
X214899523Y-142096666D01*
X214804285Y-142144285D01*
X214613809Y-142191904D01*
X214470952Y-142191904D01*
X214280476Y-142144285D01*
X214185238Y-142096666D01*
X214090000Y-142001428D01*
X214042380Y-141858571D01*
X214042380Y-141763333D01*
X214090000Y-141620476D01*
X214137619Y-141572857D01*
X215042380Y-140620476D02*
X215042380Y-141191904D01*
X215042380Y-140906190D02*
X214042380Y-140906190D01*
X214185238Y-141001428D01*
X214280476Y-141096666D01*
X214328095Y-141191904D01*
X214375714Y-139763333D02*
X215042380Y-139763333D01*
X213994761Y-140001428D02*
X214709047Y-140239523D01*
X214709047Y-139620476D01*
X250881666Y-73112380D02*
X250881666Y-73826666D01*
X250834047Y-73969523D01*
X250738809Y-74064761D01*
X250595952Y-74112380D01*
X250500714Y-74112380D01*
X251786428Y-73445714D02*
X251786428Y-74112380D01*
X251548333Y-73064761D02*
X251310238Y-73779047D01*
X251929285Y-73779047D01*
X198628095Y-70782380D02*
X198628095Y-71591904D01*
X198675714Y-71687142D01*
X198723333Y-71734761D01*
X198818571Y-71782380D01*
X199009047Y-71782380D01*
X199104285Y-71734761D01*
X199151904Y-71687142D01*
X199199523Y-71591904D01*
X199199523Y-70782380D01*
X199818571Y-71210952D02*
X199723333Y-71163333D01*
X199675714Y-71115714D01*
X199628095Y-71020476D01*
X199628095Y-70972857D01*
X199675714Y-70877619D01*
X199723333Y-70830000D01*
X199818571Y-70782380D01*
X200009047Y-70782380D01*
X200104285Y-70830000D01*
X200151904Y-70877619D01*
X200199523Y-70972857D01*
X200199523Y-71020476D01*
X200151904Y-71115714D01*
X200104285Y-71163333D01*
X200009047Y-71210952D01*
X199818571Y-71210952D01*
X199723333Y-71258571D01*
X199675714Y-71306190D01*
X199628095Y-71401428D01*
X199628095Y-71591904D01*
X199675714Y-71687142D01*
X199723333Y-71734761D01*
X199818571Y-71782380D01*
X200009047Y-71782380D01*
X200104285Y-71734761D01*
X200151904Y-71687142D01*
X200199523Y-71591904D01*
X200199523Y-71401428D01*
X200151904Y-71306190D01*
X200104285Y-71258571D01*
X200009047Y-71210952D01*
X197770952Y-124702380D02*
X197199523Y-124702380D01*
X197485238Y-124702380D02*
X197485238Y-123702380D01*
X197390000Y-123845238D01*
X197294761Y-123940476D01*
X197199523Y-123988095D01*
X198628095Y-123702380D02*
X198437619Y-123702380D01*
X198342380Y-123750000D01*
X198294761Y-123797619D01*
X198199523Y-123940476D01*
X198151904Y-124130952D01*
X198151904Y-124511904D01*
X198199523Y-124607142D01*
X198247142Y-124654761D01*
X198342380Y-124702380D01*
X198532857Y-124702380D01*
X198628095Y-124654761D01*
X198675714Y-124607142D01*
X198723333Y-124511904D01*
X198723333Y-124273809D01*
X198675714Y-124178571D01*
X198628095Y-124130952D01*
X198532857Y-124083333D01*
X198342380Y-124083333D01*
X198247142Y-124130952D01*
X198199523Y-124178571D01*
X198151904Y-124273809D01*
X199628095Y-123702380D02*
X199151904Y-123702380D01*
X199104285Y-124178571D01*
X199151904Y-124130952D01*
X199247142Y-124083333D01*
X199485238Y-124083333D01*
X199580476Y-124130952D01*
X199628095Y-124178571D01*
X199675714Y-124273809D01*
X199675714Y-124511904D01*
X199628095Y-124607142D01*
X199580476Y-124654761D01*
X199485238Y-124702380D01*
X199247142Y-124702380D01*
X199151904Y-124654761D01*
X199104285Y-124607142D01*
X200580476Y-123702380D02*
X200104285Y-123702380D01*
X200056666Y-124178571D01*
X200104285Y-124130952D01*
X200199523Y-124083333D01*
X200437619Y-124083333D01*
X200532857Y-124130952D01*
X200580476Y-124178571D01*
X200628095Y-124273809D01*
X200628095Y-124511904D01*
X200580476Y-124607142D01*
X200532857Y-124654761D01*
X200437619Y-124702380D01*
X200199523Y-124702380D01*
X200104285Y-124654761D01*
X200056666Y-124607142D01*
X201247142Y-123702380D02*
X201342380Y-123702380D01*
X201437619Y-123750000D01*
X201485238Y-123797619D01*
X201532857Y-123892857D01*
X201580476Y-124083333D01*
X201580476Y-124321428D01*
X201532857Y-124511904D01*
X201485238Y-124607142D01*
X201437619Y-124654761D01*
X201342380Y-124702380D01*
X201247142Y-124702380D01*
X201151904Y-124654761D01*
X201104285Y-124607142D01*
X201056666Y-124511904D01*
X201009047Y-124321428D01*
X201009047Y-124083333D01*
X201056666Y-123892857D01*
X201104285Y-123797619D01*
X201151904Y-123750000D01*
X201247142Y-123702380D01*
X223208095Y-70902380D02*
X223208095Y-71711904D01*
X223255714Y-71807142D01*
X223303333Y-71854761D01*
X223398571Y-71902380D01*
X223589047Y-71902380D01*
X223684285Y-71854761D01*
X223731904Y-71807142D01*
X223779523Y-71711904D01*
X223779523Y-70902380D01*
X224160476Y-70902380D02*
X224827142Y-70902380D01*
X224398571Y-71902380D01*
X221517619Y-124250952D02*
X221422380Y-124203333D01*
X221374761Y-124155714D01*
X221327142Y-124060476D01*
X221327142Y-124012857D01*
X221374761Y-123917619D01*
X221422380Y-123870000D01*
X221517619Y-123822380D01*
X221708095Y-123822380D01*
X221803333Y-123870000D01*
X221850952Y-123917619D01*
X221898571Y-124012857D01*
X221898571Y-124060476D01*
X221850952Y-124155714D01*
X221803333Y-124203333D01*
X221708095Y-124250952D01*
X221517619Y-124250952D01*
X221422380Y-124298571D01*
X221374761Y-124346190D01*
X221327142Y-124441428D01*
X221327142Y-124631904D01*
X221374761Y-124727142D01*
X221422380Y-124774761D01*
X221517619Y-124822380D01*
X221708095Y-124822380D01*
X221803333Y-124774761D01*
X221850952Y-124727142D01*
X221898571Y-124631904D01*
X221898571Y-124441428D01*
X221850952Y-124346190D01*
X221803333Y-124298571D01*
X221708095Y-124250952D01*
X222279523Y-123917619D02*
X222327142Y-123870000D01*
X222422380Y-123822380D01*
X222660476Y-123822380D01*
X222755714Y-123870000D01*
X222803333Y-123917619D01*
X222850952Y-124012857D01*
X222850952Y-124108095D01*
X222803333Y-124250952D01*
X222231904Y-124822380D01*
X222850952Y-124822380D01*
X223850952Y-124727142D02*
X223803333Y-124774761D01*
X223660476Y-124822380D01*
X223565238Y-124822380D01*
X223422380Y-124774761D01*
X223327142Y-124679523D01*
X223279523Y-124584285D01*
X223231904Y-124393809D01*
X223231904Y-124250952D01*
X223279523Y-124060476D01*
X223327142Y-123965238D01*
X223422380Y-123870000D01*
X223565238Y-123822380D01*
X223660476Y-123822380D01*
X223803333Y-123870000D01*
X223850952Y-123917619D01*
X224755714Y-123822380D02*
X224279523Y-123822380D01*
X224231904Y-124298571D01*
X224279523Y-124250952D01*
X224374761Y-124203333D01*
X224612857Y-124203333D01*
X224708095Y-124250952D01*
X224755714Y-124298571D01*
X224803333Y-124393809D01*
X224803333Y-124631904D01*
X224755714Y-124727142D01*
X224708095Y-124774761D01*
X224612857Y-124822380D01*
X224374761Y-124822380D01*
X224279523Y-124774761D01*
X224231904Y-124727142D01*
X225708095Y-123822380D02*
X225231904Y-123822380D01*
X225184285Y-124298571D01*
X225231904Y-124250952D01*
X225327142Y-124203333D01*
X225565238Y-124203333D01*
X225660476Y-124250952D01*
X225708095Y-124298571D01*
X225755714Y-124393809D01*
X225755714Y-124631904D01*
X225708095Y-124727142D01*
X225660476Y-124774761D01*
X225565238Y-124822380D01*
X225327142Y-124822380D01*
X225231904Y-124774761D01*
X225184285Y-124727142D01*
X226136666Y-124536666D02*
X226612857Y-124536666D01*
X226041428Y-124822380D02*
X226374761Y-123822380D01*
X226708095Y-124822380D01*
X223456666Y-50144761D02*
X223599523Y-50192380D01*
X223837619Y-50192380D01*
X223932857Y-50144761D01*
X223980476Y-50097142D01*
X224028095Y-50001904D01*
X224028095Y-49906666D01*
X223980476Y-49811428D01*
X223932857Y-49763809D01*
X223837619Y-49716190D01*
X223647142Y-49668571D01*
X223551904Y-49620952D01*
X223504285Y-49573333D01*
X223456666Y-49478095D01*
X223456666Y-49382857D01*
X223504285Y-49287619D01*
X223551904Y-49240000D01*
X223647142Y-49192380D01*
X223885238Y-49192380D01*
X224028095Y-49240000D01*
X224361428Y-49192380D02*
X224599523Y-50192380D01*
X224790000Y-49478095D01*
X224980476Y-50192380D01*
X225218571Y-49192380D01*
X225551904Y-49287619D02*
X225599523Y-49240000D01*
X225694761Y-49192380D01*
X225932857Y-49192380D01*
X226028095Y-49240000D01*
X226075714Y-49287619D01*
X226123333Y-49382857D01*
X226123333Y-49478095D01*
X226075714Y-49620952D01*
X225504285Y-50192380D01*
X226123333Y-50192380D01*
X211447142Y-66322380D02*
X211113809Y-65846190D01*
X210875714Y-66322380D02*
X210875714Y-65322380D01*
X211256666Y-65322380D01*
X211351904Y-65370000D01*
X211399523Y-65417619D01*
X211447142Y-65512857D01*
X211447142Y-65655714D01*
X211399523Y-65750952D01*
X211351904Y-65798571D01*
X211256666Y-65846190D01*
X210875714Y-65846190D01*
X212399523Y-66322380D02*
X211828095Y-66322380D01*
X212113809Y-66322380D02*
X212113809Y-65322380D01*
X212018571Y-65465238D01*
X211923333Y-65560476D01*
X211828095Y-65608095D01*
X213256666Y-65655714D02*
X213256666Y-66322380D01*
X213018571Y-65274761D02*
X212780476Y-65989047D01*
X213399523Y-65989047D01*
X211447142Y-62512380D02*
X211113809Y-62036190D01*
X210875714Y-62512380D02*
X210875714Y-61512380D01*
X211256666Y-61512380D01*
X211351904Y-61560000D01*
X211399523Y-61607619D01*
X211447142Y-61702857D01*
X211447142Y-61845714D01*
X211399523Y-61940952D01*
X211351904Y-61988571D01*
X211256666Y-62036190D01*
X210875714Y-62036190D01*
X212399523Y-62512380D02*
X211828095Y-62512380D01*
X212113809Y-62512380D02*
X212113809Y-61512380D01*
X212018571Y-61655238D01*
X211923333Y-61750476D01*
X211828095Y-61798095D01*
X212732857Y-61512380D02*
X213351904Y-61512380D01*
X213018571Y-61893333D01*
X213161428Y-61893333D01*
X213256666Y-61940952D01*
X213304285Y-61988571D01*
X213351904Y-62083809D01*
X213351904Y-62321904D01*
X213304285Y-62417142D01*
X213256666Y-62464761D01*
X213161428Y-62512380D01*
X212875714Y-62512380D01*
X212780476Y-62464761D01*
X212732857Y-62417142D01*
X211447142Y-58702380D02*
X211113809Y-58226190D01*
X210875714Y-58702380D02*
X210875714Y-57702380D01*
X211256666Y-57702380D01*
X211351904Y-57750000D01*
X211399523Y-57797619D01*
X211447142Y-57892857D01*
X211447142Y-58035714D01*
X211399523Y-58130952D01*
X211351904Y-58178571D01*
X211256666Y-58226190D01*
X210875714Y-58226190D01*
X212399523Y-58702380D02*
X211828095Y-58702380D01*
X212113809Y-58702380D02*
X212113809Y-57702380D01*
X212018571Y-57845238D01*
X211923333Y-57940476D01*
X211828095Y-57988095D01*
X212780476Y-57797619D02*
X212828095Y-57750000D01*
X212923333Y-57702380D01*
X213161428Y-57702380D01*
X213256666Y-57750000D01*
X213304285Y-57797619D01*
X213351904Y-57892857D01*
X213351904Y-57988095D01*
X213304285Y-58130952D01*
X212732857Y-58702380D01*
X213351904Y-58702380D01*
X211447142Y-54892380D02*
X211113809Y-54416190D01*
X210875714Y-54892380D02*
X210875714Y-53892380D01*
X211256666Y-53892380D01*
X211351904Y-53940000D01*
X211399523Y-53987619D01*
X211447142Y-54082857D01*
X211447142Y-54225714D01*
X211399523Y-54320952D01*
X211351904Y-54368571D01*
X211256666Y-54416190D01*
X210875714Y-54416190D01*
X212399523Y-54892380D02*
X211828095Y-54892380D01*
X212113809Y-54892380D02*
X212113809Y-53892380D01*
X212018571Y-54035238D01*
X211923333Y-54130476D01*
X211828095Y-54178095D01*
X213351904Y-54892380D02*
X212780476Y-54892380D01*
X213066190Y-54892380D02*
X213066190Y-53892380D01*
X212970952Y-54035238D01*
X212875714Y-54130476D01*
X212780476Y-54178095D01*
X243197142Y-70132380D02*
X242863809Y-69656190D01*
X242625714Y-70132380D02*
X242625714Y-69132380D01*
X243006666Y-69132380D01*
X243101904Y-69180000D01*
X243149523Y-69227619D01*
X243197142Y-69322857D01*
X243197142Y-69465714D01*
X243149523Y-69560952D01*
X243101904Y-69608571D01*
X243006666Y-69656190D01*
X242625714Y-69656190D01*
X244149523Y-70132380D02*
X243578095Y-70132380D01*
X243863809Y-70132380D02*
X243863809Y-69132380D01*
X243768571Y-69275238D01*
X243673333Y-69370476D01*
X243578095Y-69418095D01*
X244768571Y-69132380D02*
X244863809Y-69132380D01*
X244959047Y-69180000D01*
X245006666Y-69227619D01*
X245054285Y-69322857D01*
X245101904Y-69513333D01*
X245101904Y-69751428D01*
X245054285Y-69941904D01*
X245006666Y-70037142D01*
X244959047Y-70084761D01*
X244863809Y-70132380D01*
X244768571Y-70132380D01*
X244673333Y-70084761D01*
X244625714Y-70037142D01*
X244578095Y-69941904D01*
X244530476Y-69751428D01*
X244530476Y-69513333D01*
X244578095Y-69322857D01*
X244625714Y-69227619D01*
X244673333Y-69180000D01*
X244768571Y-69132380D01*
X250721904Y-70722380D02*
X250721904Y-69722380D01*
X250960000Y-69722380D01*
X251102857Y-69770000D01*
X251198095Y-69865238D01*
X251245714Y-69960476D01*
X251293333Y-70150952D01*
X251293333Y-70293809D01*
X251245714Y-70484285D01*
X251198095Y-70579523D01*
X251102857Y-70674761D01*
X250960000Y-70722380D01*
X250721904Y-70722380D01*
X251626666Y-69722380D02*
X252245714Y-69722380D01*
X251912380Y-70103333D01*
X252055238Y-70103333D01*
X252150476Y-70150952D01*
X252198095Y-70198571D01*
X252245714Y-70293809D01*
X252245714Y-70531904D01*
X252198095Y-70627142D01*
X252150476Y-70674761D01*
X252055238Y-70722380D01*
X251769523Y-70722380D01*
X251674285Y-70674761D01*
X251626666Y-70627142D01*
X243673333Y-124742380D02*
X243340000Y-124266190D01*
X243101904Y-124742380D02*
X243101904Y-123742380D01*
X243482857Y-123742380D01*
X243578095Y-123790000D01*
X243625714Y-123837619D01*
X243673333Y-123932857D01*
X243673333Y-124075714D01*
X243625714Y-124170952D01*
X243578095Y-124218571D01*
X243482857Y-124266190D01*
X243101904Y-124266190D01*
X244149523Y-124742380D02*
X244340000Y-124742380D01*
X244435238Y-124694761D01*
X244482857Y-124647142D01*
X244578095Y-124504285D01*
X244625714Y-124313809D01*
X244625714Y-123932857D01*
X244578095Y-123837619D01*
X244530476Y-123790000D01*
X244435238Y-123742380D01*
X244244761Y-123742380D01*
X244149523Y-123790000D01*
X244101904Y-123837619D01*
X244054285Y-123932857D01*
X244054285Y-124170952D01*
X244101904Y-124266190D01*
X244149523Y-124313809D01*
X244244761Y-124361428D01*
X244435238Y-124361428D01*
X244530476Y-124313809D01*
X244578095Y-124266190D01*
X244625714Y-124170952D01*
X243673333Y-118392380D02*
X243340000Y-117916190D01*
X243101904Y-118392380D02*
X243101904Y-117392380D01*
X243482857Y-117392380D01*
X243578095Y-117440000D01*
X243625714Y-117487619D01*
X243673333Y-117582857D01*
X243673333Y-117725714D01*
X243625714Y-117820952D01*
X243578095Y-117868571D01*
X243482857Y-117916190D01*
X243101904Y-117916190D01*
X244244761Y-117820952D02*
X244149523Y-117773333D01*
X244101904Y-117725714D01*
X244054285Y-117630476D01*
X244054285Y-117582857D01*
X244101904Y-117487619D01*
X244149523Y-117440000D01*
X244244761Y-117392380D01*
X244435238Y-117392380D01*
X244530476Y-117440000D01*
X244578095Y-117487619D01*
X244625714Y-117582857D01*
X244625714Y-117630476D01*
X244578095Y-117725714D01*
X244530476Y-117773333D01*
X244435238Y-117820952D01*
X244244761Y-117820952D01*
X244149523Y-117868571D01*
X244101904Y-117916190D01*
X244054285Y-118011428D01*
X244054285Y-118201904D01*
X244101904Y-118297142D01*
X244149523Y-118344761D01*
X244244761Y-118392380D01*
X244435238Y-118392380D01*
X244530476Y-118344761D01*
X244578095Y-118297142D01*
X244625714Y-118201904D01*
X244625714Y-118011428D01*
X244578095Y-117916190D01*
X244530476Y-117868571D01*
X244435238Y-117820952D01*
X250721904Y-125332380D02*
X250721904Y-124332380D01*
X250960000Y-124332380D01*
X251102857Y-124380000D01*
X251198095Y-124475238D01*
X251245714Y-124570476D01*
X251293333Y-124760952D01*
X251293333Y-124903809D01*
X251245714Y-125094285D01*
X251198095Y-125189523D01*
X251102857Y-125284761D01*
X250960000Y-125332380D01*
X250721904Y-125332380D01*
X251674285Y-124427619D02*
X251721904Y-124380000D01*
X251817142Y-124332380D01*
X252055238Y-124332380D01*
X252150476Y-124380000D01*
X252198095Y-124427619D01*
X252245714Y-124522857D01*
X252245714Y-124618095D01*
X252198095Y-124760952D01*
X251626666Y-125332380D01*
X252245714Y-125332380D01*
X250721904Y-118982380D02*
X250721904Y-117982380D01*
X250960000Y-117982380D01*
X251102857Y-118030000D01*
X251198095Y-118125238D01*
X251245714Y-118220476D01*
X251293333Y-118410952D01*
X251293333Y-118553809D01*
X251245714Y-118744285D01*
X251198095Y-118839523D01*
X251102857Y-118934761D01*
X250960000Y-118982380D01*
X250721904Y-118982380D01*
X252245714Y-118982380D02*
X251674285Y-118982380D01*
X251960000Y-118982380D02*
X251960000Y-117982380D01*
X251864761Y-118125238D01*
X251769523Y-118220476D01*
X251674285Y-118268095D01*
X210319166Y-132898571D02*
X209985833Y-132898571D01*
X209985833Y-133422380D02*
X209985833Y-132422380D01*
X210462023Y-132422380D01*
X211176309Y-132898571D02*
X211319166Y-132946190D01*
X211366785Y-132993809D01*
X211414404Y-133089047D01*
X211414404Y-133231904D01*
X211366785Y-133327142D01*
X211319166Y-133374761D01*
X211223928Y-133422380D01*
X210842976Y-133422380D01*
X210842976Y-132422380D01*
X211176309Y-132422380D01*
X211271547Y-132470000D01*
X211319166Y-132517619D01*
X211366785Y-132612857D01*
X211366785Y-132708095D01*
X211319166Y-132803333D01*
X211271547Y-132850952D01*
X211176309Y-132898571D01*
X210842976Y-132898571D01*
X212366785Y-133422380D02*
X211795357Y-133422380D01*
X212081071Y-133422380D02*
X212081071Y-132422380D01*
X211985833Y-132565238D01*
X211890595Y-132660476D01*
X211795357Y-132708095D01*
X247182380Y-137493333D02*
X247896666Y-137493333D01*
X248039523Y-137540952D01*
X248134761Y-137636190D01*
X248182380Y-137779047D01*
X248182380Y-137874285D01*
X247182380Y-137112380D02*
X247182380Y-136493333D01*
X247563333Y-136826666D01*
X247563333Y-136683809D01*
X247610952Y-136588571D01*
X247658571Y-136540952D01*
X247753809Y-136493333D01*
X247991904Y-136493333D01*
X248087142Y-136540952D01*
X248134761Y-136588571D01*
X248182380Y-136683809D01*
X248182380Y-136969523D01*
X248134761Y-137064761D01*
X248087142Y-137112380D01*
X250837142Y-127847142D02*
X250789523Y-127894761D01*
X250646666Y-127942380D01*
X250551428Y-127942380D01*
X250408571Y-127894761D01*
X250313333Y-127799523D01*
X250265714Y-127704285D01*
X250218095Y-127513809D01*
X250218095Y-127370952D01*
X250265714Y-127180476D01*
X250313333Y-127085238D01*
X250408571Y-126990000D01*
X250551428Y-126942380D01*
X250646666Y-126942380D01*
X250789523Y-126990000D01*
X250837142Y-127037619D01*
X251789523Y-127942380D02*
X251218095Y-127942380D01*
X251503809Y-127942380D02*
X251503809Y-126942380D01*
X251408571Y-127085238D01*
X251313333Y-127180476D01*
X251218095Y-127228095D01*
X252408571Y-126942380D02*
X252503809Y-126942380D01*
X252599047Y-126990000D01*
X252646666Y-127037619D01*
X252694285Y-127132857D01*
X252741904Y-127323333D01*
X252741904Y-127561428D01*
X252694285Y-127751904D01*
X252646666Y-127847142D01*
X252599047Y-127894761D01*
X252503809Y-127942380D01*
X252408571Y-127942380D01*
X252313333Y-127894761D01*
X252265714Y-127847142D01*
X252218095Y-127751904D01*
X252170476Y-127561428D01*
X252170476Y-127323333D01*
X252218095Y-127132857D01*
X252265714Y-127037619D01*
X252313333Y-126990000D01*
X252408571Y-126942380D01*
X190077142Y-139092857D02*
X190124761Y-139140476D01*
X190172380Y-139283333D01*
X190172380Y-139378571D01*
X190124761Y-139521428D01*
X190029523Y-139616666D01*
X189934285Y-139664285D01*
X189743809Y-139711904D01*
X189600952Y-139711904D01*
X189410476Y-139664285D01*
X189315238Y-139616666D01*
X189220000Y-139521428D01*
X189172380Y-139378571D01*
X189172380Y-139283333D01*
X189220000Y-139140476D01*
X189267619Y-139092857D01*
X190172380Y-138140476D02*
X190172380Y-138711904D01*
X190172380Y-138426190D02*
X189172380Y-138426190D01*
X189315238Y-138521428D01*
X189410476Y-138616666D01*
X189458095Y-138711904D01*
X189267619Y-137759523D02*
X189220000Y-137711904D01*
X189172380Y-137616666D01*
X189172380Y-137378571D01*
X189220000Y-137283333D01*
X189267619Y-137235714D01*
X189362857Y-137188095D01*
X189458095Y-137188095D01*
X189600952Y-137235714D01*
X190172380Y-137807142D01*
X190172380Y-137188095D01*
X190077142Y-144172857D02*
X190124761Y-144220476D01*
X190172380Y-144363333D01*
X190172380Y-144458571D01*
X190124761Y-144601428D01*
X190029523Y-144696666D01*
X189934285Y-144744285D01*
X189743809Y-144791904D01*
X189600952Y-144791904D01*
X189410476Y-144744285D01*
X189315238Y-144696666D01*
X189220000Y-144601428D01*
X189172380Y-144458571D01*
X189172380Y-144363333D01*
X189220000Y-144220476D01*
X189267619Y-144172857D01*
X190172380Y-143220476D02*
X190172380Y-143791904D01*
X190172380Y-143506190D02*
X189172380Y-143506190D01*
X189315238Y-143601428D01*
X189410476Y-143696666D01*
X189458095Y-143791904D01*
X190172380Y-142268095D02*
X190172380Y-142839523D01*
X190172380Y-142553809D02*
X189172380Y-142553809D01*
X189315238Y-142649047D01*
X189410476Y-142744285D01*
X189458095Y-142839523D01*
X248296666Y-55554761D02*
X248439523Y-55602380D01*
X248677619Y-55602380D01*
X248772857Y-55554761D01*
X248820476Y-55507142D01*
X248868095Y-55411904D01*
X248868095Y-55316666D01*
X248820476Y-55221428D01*
X248772857Y-55173809D01*
X248677619Y-55126190D01*
X248487142Y-55078571D01*
X248391904Y-55030952D01*
X248344285Y-54983333D01*
X248296666Y-54888095D01*
X248296666Y-54792857D01*
X248344285Y-54697619D01*
X248391904Y-54650000D01*
X248487142Y-54602380D01*
X248725238Y-54602380D01*
X248868095Y-54650000D01*
X249201428Y-54602380D02*
X249439523Y-55602380D01*
X249630000Y-54888095D01*
X249820476Y-55602380D01*
X250058571Y-54602380D01*
X250963333Y-55602380D02*
X250391904Y-55602380D01*
X250677619Y-55602380D02*
X250677619Y-54602380D01*
X250582380Y-54745238D01*
X250487142Y-54840476D01*
X250391904Y-54888095D01*
X248677619Y-64302380D02*
X248344285Y-63826190D01*
X248106190Y-64302380D02*
X248106190Y-63302380D01*
X248487142Y-63302380D01*
X248582380Y-63350000D01*
X248630000Y-63397619D01*
X248677619Y-63492857D01*
X248677619Y-63635714D01*
X248630000Y-63730952D01*
X248582380Y-63778571D01*
X248487142Y-63826190D01*
X248106190Y-63826190D01*
X249106190Y-63778571D02*
X249439523Y-63778571D01*
X249582380Y-64302380D02*
X249106190Y-64302380D01*
X249106190Y-63302380D01*
X249582380Y-63302380D01*
X249963333Y-64254761D02*
X250106190Y-64302380D01*
X250344285Y-64302380D01*
X250439523Y-64254761D01*
X250487142Y-64207142D01*
X250534761Y-64111904D01*
X250534761Y-64016666D01*
X250487142Y-63921428D01*
X250439523Y-63873809D01*
X250344285Y-63826190D01*
X250153809Y-63778571D01*
X250058571Y-63730952D01*
X250010952Y-63683333D01*
X249963333Y-63588095D01*
X249963333Y-63492857D01*
X250010952Y-63397619D01*
X250058571Y-63350000D01*
X250153809Y-63302380D01*
X250391904Y-63302380D01*
X250534761Y-63350000D01*
X250963333Y-63778571D02*
X251296666Y-63778571D01*
X251439523Y-64302380D02*
X250963333Y-64302380D01*
X250963333Y-63302380D01*
X251439523Y-63302380D01*
X251725238Y-63302380D02*
X252296666Y-63302380D01*
X252010952Y-64302380D02*
X252010952Y-63302380D01*
X104692380Y-63039523D02*
X105692380Y-62372857D01*
X104692380Y-62372857D02*
X105692380Y-63039523D01*
X105692380Y-61468095D02*
X105692380Y-62039523D01*
X105692380Y-61753809D02*
X104692380Y-61753809D01*
X104835238Y-61849047D01*
X104930476Y-61944285D01*
X104978095Y-62039523D01*
X198628095Y-134172380D02*
X198628095Y-134981904D01*
X198675714Y-135077142D01*
X198723333Y-135124761D01*
X198818571Y-135172380D01*
X199009047Y-135172380D01*
X199104285Y-135124761D01*
X199151904Y-135077142D01*
X199199523Y-134981904D01*
X199199523Y-134172380D01*
X199723333Y-135172380D02*
X199913809Y-135172380D01*
X200009047Y-135124761D01*
X200056666Y-135077142D01*
X200151904Y-134934285D01*
X200199523Y-134743809D01*
X200199523Y-134362857D01*
X200151904Y-134267619D01*
X200104285Y-134220000D01*
X200009047Y-134172380D01*
X199818571Y-134172380D01*
X199723333Y-134220000D01*
X199675714Y-134267619D01*
X199628095Y-134362857D01*
X199628095Y-134600952D01*
X199675714Y-134696190D01*
X199723333Y-134743809D01*
X199818571Y-134791428D01*
X200009047Y-134791428D01*
X200104285Y-134743809D01*
X200151904Y-134696190D01*
X200199523Y-134600952D01*
X84442380Y-133216666D02*
X83966190Y-133550000D01*
X84442380Y-133788095D02*
X83442380Y-133788095D01*
X83442380Y-133407142D01*
X83490000Y-133311904D01*
X83537619Y-133264285D01*
X83632857Y-133216666D01*
X83775714Y-133216666D01*
X83870952Y-133264285D01*
X83918571Y-133311904D01*
X83966190Y-133407142D01*
X83966190Y-133788095D01*
X83442380Y-132359523D02*
X83442380Y-132550000D01*
X83490000Y-132645238D01*
X83537619Y-132692857D01*
X83680476Y-132788095D01*
X83870952Y-132835714D01*
X84251904Y-132835714D01*
X84347142Y-132788095D01*
X84394761Y-132740476D01*
X84442380Y-132645238D01*
X84442380Y-132454761D01*
X84394761Y-132359523D01*
X84347142Y-132311904D01*
X84251904Y-132264285D01*
X84013809Y-132264285D01*
X83918571Y-132311904D01*
X83870952Y-132359523D01*
X83823333Y-132454761D01*
X83823333Y-132645238D01*
X83870952Y-132740476D01*
X83918571Y-132788095D01*
X84013809Y-132835714D01*
X89522380Y-133216666D02*
X89046190Y-133550000D01*
X89522380Y-133788095D02*
X88522380Y-133788095D01*
X88522380Y-133407142D01*
X88570000Y-133311904D01*
X88617619Y-133264285D01*
X88712857Y-133216666D01*
X88855714Y-133216666D01*
X88950952Y-133264285D01*
X88998571Y-133311904D01*
X89046190Y-133407142D01*
X89046190Y-133788095D01*
X88522380Y-132311904D02*
X88522380Y-132788095D01*
X88998571Y-132835714D01*
X88950952Y-132788095D01*
X88903333Y-132692857D01*
X88903333Y-132454761D01*
X88950952Y-132359523D01*
X88998571Y-132311904D01*
X89093809Y-132264285D01*
X89331904Y-132264285D01*
X89427142Y-132311904D01*
X89474761Y-132359523D01*
X89522380Y-132454761D01*
X89522380Y-132692857D01*
X89474761Y-132788095D01*
X89427142Y-132835714D01*
X94602380Y-133216666D02*
X94126190Y-133550000D01*
X94602380Y-133788095D02*
X93602380Y-133788095D01*
X93602380Y-133407142D01*
X93650000Y-133311904D01*
X93697619Y-133264285D01*
X93792857Y-133216666D01*
X93935714Y-133216666D01*
X94030952Y-133264285D01*
X94078571Y-133311904D01*
X94126190Y-133407142D01*
X94126190Y-133788095D01*
X93935714Y-132359523D02*
X94602380Y-132359523D01*
X93554761Y-132597619D02*
X94269047Y-132835714D01*
X94269047Y-132216666D01*
X181443333Y-50152380D02*
X181110000Y-49676190D01*
X180871904Y-50152380D02*
X180871904Y-49152380D01*
X181252857Y-49152380D01*
X181348095Y-49200000D01*
X181395714Y-49247619D01*
X181443333Y-49342857D01*
X181443333Y-49485714D01*
X181395714Y-49580952D01*
X181348095Y-49628571D01*
X181252857Y-49676190D01*
X180871904Y-49676190D01*
X181824285Y-49247619D02*
X181871904Y-49200000D01*
X181967142Y-49152380D01*
X182205238Y-49152380D01*
X182300476Y-49200000D01*
X182348095Y-49247619D01*
X182395714Y-49342857D01*
X182395714Y-49438095D01*
X182348095Y-49580952D01*
X181776666Y-50152380D01*
X182395714Y-50152380D01*
X79676666Y-70572380D02*
X79676666Y-71286666D01*
X79629047Y-71429523D01*
X79533809Y-71524761D01*
X79390952Y-71572380D01*
X79295714Y-71572380D01*
X80676666Y-71572380D02*
X80105238Y-71572380D01*
X80390952Y-71572380D02*
X80390952Y-70572380D01*
X80295714Y-70715238D01*
X80200476Y-70810476D01*
X80105238Y-70858095D01*
X204263333Y-67707142D02*
X204215714Y-67754761D01*
X204072857Y-67802380D01*
X203977619Y-67802380D01*
X203834761Y-67754761D01*
X203739523Y-67659523D01*
X203691904Y-67564285D01*
X203644285Y-67373809D01*
X203644285Y-67230952D01*
X203691904Y-67040476D01*
X203739523Y-66945238D01*
X203834761Y-66850000D01*
X203977619Y-66802380D01*
X204072857Y-66802380D01*
X204215714Y-66850000D01*
X204263333Y-66897619D01*
X204739523Y-67802380D02*
X204930000Y-67802380D01*
X205025238Y-67754761D01*
X205072857Y-67707142D01*
X205168095Y-67564285D01*
X205215714Y-67373809D01*
X205215714Y-66992857D01*
X205168095Y-66897619D01*
X205120476Y-66850000D01*
X205025238Y-66802380D01*
X204834761Y-66802380D01*
X204739523Y-66850000D01*
X204691904Y-66897619D01*
X204644285Y-66992857D01*
X204644285Y-67230952D01*
X204691904Y-67326190D01*
X204739523Y-67373809D01*
X204834761Y-67421428D01*
X205025238Y-67421428D01*
X205120476Y-67373809D01*
X205168095Y-67326190D01*
X205215714Y-67230952D01*
X246253333Y-113347142D02*
X246205714Y-113394761D01*
X246062857Y-113442380D01*
X245967619Y-113442380D01*
X245824761Y-113394761D01*
X245729523Y-113299523D01*
X245681904Y-113204285D01*
X245634285Y-113013809D01*
X245634285Y-112870952D01*
X245681904Y-112680476D01*
X245729523Y-112585238D01*
X245824761Y-112490000D01*
X245967619Y-112442380D01*
X246062857Y-112442380D01*
X246205714Y-112490000D01*
X246253333Y-112537619D01*
X246824761Y-112870952D02*
X246729523Y-112823333D01*
X246681904Y-112775714D01*
X246634285Y-112680476D01*
X246634285Y-112632857D01*
X246681904Y-112537619D01*
X246729523Y-112490000D01*
X246824761Y-112442380D01*
X247015238Y-112442380D01*
X247110476Y-112490000D01*
X247158095Y-112537619D01*
X247205714Y-112632857D01*
X247205714Y-112680476D01*
X247158095Y-112775714D01*
X247110476Y-112823333D01*
X247015238Y-112870952D01*
X246824761Y-112870952D01*
X246729523Y-112918571D01*
X246681904Y-112966190D01*
X246634285Y-113061428D01*
X246634285Y-113251904D01*
X246681904Y-113347142D01*
X246729523Y-113394761D01*
X246824761Y-113442380D01*
X247015238Y-113442380D01*
X247110476Y-113394761D01*
X247158095Y-113347142D01*
X247205714Y-113251904D01*
X247205714Y-113061428D01*
X247158095Y-112966190D01*
X247110476Y-112918571D01*
X247015238Y-112870952D01*
X98853333Y-51197142D02*
X98805714Y-51244761D01*
X98662857Y-51292380D01*
X98567619Y-51292380D01*
X98424761Y-51244761D01*
X98329523Y-51149523D01*
X98281904Y-51054285D01*
X98234285Y-50863809D01*
X98234285Y-50720952D01*
X98281904Y-50530476D01*
X98329523Y-50435238D01*
X98424761Y-50340000D01*
X98567619Y-50292380D01*
X98662857Y-50292380D01*
X98805714Y-50340000D01*
X98853333Y-50387619D01*
X99186666Y-50292380D02*
X99853333Y-50292380D01*
X99424761Y-51292380D01*
X180133333Y-58817142D02*
X180085714Y-58864761D01*
X179942857Y-58912380D01*
X179847619Y-58912380D01*
X179704761Y-58864761D01*
X179609523Y-58769523D01*
X179561904Y-58674285D01*
X179514285Y-58483809D01*
X179514285Y-58340952D01*
X179561904Y-58150476D01*
X179609523Y-58055238D01*
X179704761Y-57960000D01*
X179847619Y-57912380D01*
X179942857Y-57912380D01*
X180085714Y-57960000D01*
X180133333Y-58007619D01*
X180990476Y-57912380D02*
X180800000Y-57912380D01*
X180704761Y-57960000D01*
X180657142Y-58007619D01*
X180561904Y-58150476D01*
X180514285Y-58340952D01*
X180514285Y-58721904D01*
X180561904Y-58817142D01*
X180609523Y-58864761D01*
X180704761Y-58912380D01*
X180895238Y-58912380D01*
X180990476Y-58864761D01*
X181038095Y-58817142D01*
X181085714Y-58721904D01*
X181085714Y-58483809D01*
X181038095Y-58388571D01*
X180990476Y-58340952D01*
X180895238Y-58293333D01*
X180704761Y-58293333D01*
X180609523Y-58340952D01*
X180561904Y-58388571D01*
X180514285Y-58483809D01*
X133747142Y-56086666D02*
X133794761Y-56134285D01*
X133842380Y-56277142D01*
X133842380Y-56372380D01*
X133794761Y-56515238D01*
X133699523Y-56610476D01*
X133604285Y-56658095D01*
X133413809Y-56705714D01*
X133270952Y-56705714D01*
X133080476Y-56658095D01*
X132985238Y-56610476D01*
X132890000Y-56515238D01*
X132842380Y-56372380D01*
X132842380Y-56277142D01*
X132890000Y-56134285D01*
X132937619Y-56086666D01*
X132842380Y-55181904D02*
X132842380Y-55658095D01*
X133318571Y-55705714D01*
X133270952Y-55658095D01*
X133223333Y-55562857D01*
X133223333Y-55324761D01*
X133270952Y-55229523D01*
X133318571Y-55181904D01*
X133413809Y-55134285D01*
X133651904Y-55134285D01*
X133747142Y-55181904D01*
X133794761Y-55229523D01*
X133842380Y-55324761D01*
X133842380Y-55562857D01*
X133794761Y-55658095D01*
X133747142Y-55705714D01*
X152193333Y-67707142D02*
X152145714Y-67754761D01*
X152002857Y-67802380D01*
X151907619Y-67802380D01*
X151764761Y-67754761D01*
X151669523Y-67659523D01*
X151621904Y-67564285D01*
X151574285Y-67373809D01*
X151574285Y-67230952D01*
X151621904Y-67040476D01*
X151669523Y-66945238D01*
X151764761Y-66850000D01*
X151907619Y-66802380D01*
X152002857Y-66802380D01*
X152145714Y-66850000D01*
X152193333Y-66897619D01*
X152574285Y-66897619D02*
X152621904Y-66850000D01*
X152717142Y-66802380D01*
X152955238Y-66802380D01*
X153050476Y-66850000D01*
X153098095Y-66897619D01*
X153145714Y-66992857D01*
X153145714Y-67088095D01*
X153098095Y-67230952D01*
X152526666Y-67802380D01*
X153145714Y-67802380D01*
X93107142Y-81486666D02*
X93154761Y-81534285D01*
X93202380Y-81677142D01*
X93202380Y-81772380D01*
X93154761Y-81915238D01*
X93059523Y-82010476D01*
X92964285Y-82058095D01*
X92773809Y-82105714D01*
X92630952Y-82105714D01*
X92440476Y-82058095D01*
X92345238Y-82010476D01*
X92250000Y-81915238D01*
X92202380Y-81772380D01*
X92202380Y-81677142D01*
X92250000Y-81534285D01*
X92297619Y-81486666D01*
X93202380Y-80534285D02*
X93202380Y-81105714D01*
X93202380Y-80820000D02*
X92202380Y-80820000D01*
X92345238Y-80915238D01*
X92440476Y-81010476D01*
X92488095Y-81105714D01*
M02*
