%FSLAX45Y45*%
G04 Gerber Fmt 4.5, Leading zero omitted, Abs format (unit mm)*
G04 Created by KiCad (PCBNEW (5.1.4)-1) date 2019-12-01 00:46:21*
%MOMM*%
%LPD*%
G04 APERTURE LIST*
%ADD10C,0.050000*%
%ADD11C,0.200000*%
%ADD12C,0.300000*%
G04 APERTURE END LIST*
D10*
X25908000Y-14986000D02*
X7747000Y-14986000D01*
X25908000Y-4445000D02*
X25908000Y-14986000D01*
X25654000Y-4445000D02*
X25908000Y-4445000D01*
X7747000Y-4445000D02*
X25654000Y-4445000D01*
X7747000Y-7239000D02*
X7747000Y-4445000D01*
X6477000Y-7239000D02*
X7747000Y-7239000D01*
X6477000Y-12573000D02*
X6477000Y-7239000D01*
X7747000Y-12573000D02*
X6477000Y-12573000D01*
X7747000Y-14986000D02*
X7747000Y-12573000D01*
D11*
X7801070Y-11959990D02*
X7841070Y-11999990D01*
X7841070Y-11959990D02*
X7801070Y-11999990D01*
X7811010Y-9379640D02*
X7851010Y-9419640D01*
X7851010Y-9379640D02*
X7811010Y-9419640D01*
X7822630Y-8881420D02*
X7862630Y-8921420D01*
X7862630Y-8881420D02*
X7822630Y-8921420D01*
X7826860Y-10846290D02*
X7866860Y-10886290D01*
X7866860Y-10846290D02*
X7826860Y-10886290D01*
X7850660Y-12429340D02*
X7890660Y-12469340D01*
X7890660Y-12429340D02*
X7850660Y-12469340D01*
X7867520Y-9632510D02*
X7907520Y-9672510D01*
X7907520Y-9632510D02*
X7867520Y-9672510D01*
X7870811Y-11647001D02*
X7910811Y-11687001D01*
X7910811Y-11647001D02*
X7870811Y-11687001D01*
X7876420Y-11283000D02*
X7916420Y-11323000D01*
X7916420Y-11283000D02*
X7876420Y-11323000D01*
X7938990Y-9272320D02*
X7978990Y-9312320D01*
X7978990Y-9272320D02*
X7938990Y-9312320D01*
X7960440Y-9428220D02*
X8000440Y-9468220D01*
X8000440Y-9428220D02*
X7960440Y-9468220D01*
X7981000Y-7938600D02*
X8021000Y-7978600D01*
X8021000Y-7938600D02*
X7981000Y-7978600D01*
X7981000Y-12172000D02*
X8021000Y-12212000D01*
X8021000Y-12172000D02*
X7981000Y-12212000D01*
X8005170Y-8490770D02*
X8045170Y-8530770D01*
X8045170Y-8490770D02*
X8005170Y-8530770D01*
X8081100Y-9070350D02*
X8121100Y-9110350D01*
X8121100Y-9070350D02*
X8081100Y-9110350D01*
X8108000Y-11895090D02*
X8148000Y-11935090D01*
X8148000Y-11895090D02*
X8108000Y-11935090D01*
X8135170Y-8811020D02*
X8175170Y-8851020D01*
X8175170Y-8811020D02*
X8135170Y-8851020D01*
X8150220Y-9830590D02*
X8190220Y-9870590D01*
X8190220Y-9830590D02*
X8150220Y-9870590D01*
X8235000Y-11537000D02*
X8275000Y-11577000D01*
X8275000Y-11537000D02*
X8235000Y-11577000D01*
X8362000Y-12172000D02*
X8402000Y-12212000D01*
X8402000Y-12172000D02*
X8362000Y-12212000D01*
X8381260Y-10411270D02*
X8421260Y-10451270D01*
X8421260Y-10411270D02*
X8381260Y-10451270D01*
X8569800Y-11902270D02*
X8609800Y-11942270D01*
X8609800Y-11902270D02*
X8569800Y-11942270D01*
X8572751Y-8534538D02*
X8612751Y-8574538D01*
X8612751Y-8534538D02*
X8572751Y-8574538D01*
X8714460Y-10902000D02*
X8754460Y-10942000D01*
X8754460Y-10902000D02*
X8714460Y-10942000D01*
X8854310Y-10654170D02*
X8894310Y-10694170D01*
X8894310Y-10654170D02*
X8854310Y-10694170D01*
X8870000Y-8489000D02*
X8910000Y-8529000D01*
X8910000Y-8489000D02*
X8870000Y-8529000D01*
X8870000Y-11537000D02*
X8910000Y-11577000D01*
X8910000Y-11537000D02*
X8870000Y-11577000D01*
X8875040Y-8376470D02*
X8915040Y-8416470D01*
X8915040Y-8376470D02*
X8875040Y-8416470D01*
X8919218Y-7931782D02*
X8959218Y-7971782D01*
X8959218Y-7931782D02*
X8919218Y-7971782D01*
X9378000Y-13061000D02*
X9418000Y-13101000D01*
X9418000Y-13061000D02*
X9378000Y-13101000D01*
X9505000Y-8689540D02*
X9545000Y-8729540D01*
X9545000Y-8689540D02*
X9505000Y-8729540D01*
X9565210Y-10483920D02*
X9605210Y-10523920D01*
X9605210Y-10483920D02*
X9565210Y-10523920D01*
X9631340Y-8482610D02*
X9671340Y-8522610D01*
X9671340Y-8482610D02*
X9631340Y-8522610D01*
X9632000Y-7473000D02*
X9672000Y-7513000D01*
X9672000Y-7473000D02*
X9632000Y-7513000D01*
X9776371Y-7727000D02*
X9816371Y-7767000D01*
X9816371Y-7727000D02*
X9776371Y-7767000D01*
X9813499Y-10491950D02*
X9853499Y-10531950D01*
X9853499Y-10491950D02*
X9813499Y-10531950D01*
X10267000Y-10902000D02*
X10307000Y-10942000D01*
X10307000Y-10902000D02*
X10267000Y-10942000D01*
X10288780Y-8857060D02*
X10328780Y-8897060D01*
X10328780Y-8857060D02*
X10288780Y-8897060D01*
X10358470Y-9665510D02*
X10398470Y-9705510D01*
X10398470Y-9665510D02*
X10358470Y-9705510D01*
X10388540Y-8689540D02*
X10428540Y-8729540D01*
X10428540Y-8689540D02*
X10388540Y-8729540D01*
X10394000Y-10902000D02*
X10434000Y-10942000D01*
X10434000Y-10902000D02*
X10394000Y-10942000D01*
X10648000Y-11029000D02*
X10688000Y-11069000D01*
X10688000Y-11029000D02*
X10648000Y-11069000D01*
X10665950Y-9614050D02*
X10705950Y-9654050D01*
X10705950Y-9614050D02*
X10665950Y-9654050D01*
X10770770Y-10128680D02*
X10810770Y-10168680D01*
X10810770Y-10128680D02*
X10770770Y-10168680D01*
X11406990Y-9417530D02*
X11446990Y-9457530D01*
X11446990Y-9417530D02*
X11406990Y-9457530D01*
X11410000Y-7375180D02*
X11450000Y-7415180D01*
X11450000Y-7375180D02*
X11410000Y-7415180D01*
X11546498Y-9929009D02*
X11586498Y-9969009D01*
X11586498Y-9929009D02*
X11546498Y-9969009D01*
X11664000Y-7092000D02*
X11704000Y-7132000D01*
X11704000Y-7092000D02*
X11664000Y-7132000D01*
X11791000Y-10775000D02*
X11831000Y-10815000D01*
X11831000Y-10775000D02*
X11791000Y-10815000D01*
X11918000Y-8235000D02*
X11958000Y-8275000D01*
X11958000Y-8235000D02*
X11918000Y-8275000D01*
X12286930Y-9872430D02*
X12326930Y-9912430D01*
X12326930Y-9872430D02*
X12286930Y-9912430D01*
X12311650Y-10131210D02*
X12351650Y-10171210D01*
X12351650Y-10131210D02*
X12311650Y-10171210D01*
X12934000Y-10648000D02*
X12974000Y-10688000D01*
X12974000Y-10648000D02*
X12934000Y-10688000D01*
X13061000Y-10902000D02*
X13101000Y-10942000D01*
X13101000Y-10902000D02*
X13061000Y-10942000D01*
X13599000Y-13666000D02*
X13639000Y-13706000D01*
X13639000Y-13666000D02*
X13599000Y-13706000D01*
X13950000Y-11537000D02*
X13990000Y-11577000D01*
X13990000Y-11537000D02*
X13950000Y-11577000D01*
X14206460Y-7381030D02*
X14246460Y-7421030D01*
X14246460Y-7381030D02*
X14206460Y-7421030D01*
X15093000Y-12045000D02*
X15133000Y-12085000D01*
X15133000Y-12045000D02*
X15093000Y-12085000D01*
X15220000Y-9251000D02*
X15260000Y-9291000D01*
X15260000Y-9251000D02*
X15220000Y-9291000D01*
X16490000Y-11537000D02*
X16530000Y-11577000D01*
X16530000Y-11537000D02*
X16490000Y-11577000D01*
X16688980Y-10722560D02*
X16728980Y-10762560D01*
X16728980Y-10722560D02*
X16688980Y-10762560D01*
X16871000Y-10648000D02*
X16911000Y-10688000D01*
X16911000Y-10648000D02*
X16871000Y-10688000D01*
X16871000Y-11537000D02*
X16911000Y-11577000D01*
X16911000Y-11537000D02*
X16871000Y-11577000D01*
X16998000Y-8616000D02*
X17038000Y-8656000D01*
X17038000Y-8616000D02*
X16998000Y-8656000D01*
X17506000Y-9124000D02*
X17546000Y-9164000D01*
X17546000Y-9124000D02*
X17506000Y-9164000D01*
X17506000Y-11021060D02*
X17546000Y-11061060D01*
X17546000Y-11021060D02*
X17506000Y-11061060D01*
X18268000Y-10902000D02*
X18308000Y-10942000D01*
X18308000Y-10902000D02*
X18268000Y-10942000D01*
X18268000Y-12934000D02*
X18308000Y-12974000D01*
X18308000Y-12934000D02*
X18268000Y-12974000D01*
X18649000Y-11156000D02*
X18689000Y-11196000D01*
X18689000Y-11156000D02*
X18649000Y-11196000D01*
X18649000Y-12045000D02*
X18689000Y-12085000D01*
X18689000Y-12045000D02*
X18649000Y-12085000D01*
X18776000Y-12426000D02*
X18816000Y-12466000D01*
X18816000Y-12426000D02*
X18776000Y-12466000D01*
X18918350Y-10506590D02*
X18958350Y-10546590D01*
X18958350Y-10506590D02*
X18918350Y-10546590D01*
X19411000Y-13823000D02*
X19451000Y-13863000D01*
X19451000Y-13823000D02*
X19411000Y-13863000D01*
X19411030Y-14034860D02*
X19451030Y-14074860D01*
X19451030Y-14034860D02*
X19411030Y-14074860D01*
X19441720Y-8877230D02*
X19481720Y-8917230D01*
X19481720Y-8877230D02*
X19441720Y-8917230D01*
X19538000Y-11537000D02*
X19578000Y-11577000D01*
X19578000Y-11537000D02*
X19538000Y-11577000D01*
X19545450Y-10020500D02*
X19585450Y-10060500D01*
X19585450Y-10020500D02*
X19545450Y-10060500D01*
X19559000Y-13336000D02*
X19599000Y-13376000D01*
X19599000Y-13336000D02*
X19559000Y-13376000D01*
X19601210Y-9745430D02*
X19641210Y-9785430D01*
X19641210Y-9745430D02*
X19601210Y-9785430D01*
X19667480Y-13564750D02*
X19707480Y-13604750D01*
X19707480Y-13564750D02*
X19667480Y-13604750D01*
X19792000Y-7727000D02*
X19832000Y-7767000D01*
X19832000Y-7727000D02*
X19792000Y-7767000D01*
X19792000Y-9632000D02*
X19832000Y-9672000D01*
X19832000Y-9632000D02*
X19792000Y-9672000D01*
X19811961Y-13905158D02*
X19851961Y-13945158D01*
X19851961Y-13905158D02*
X19811961Y-13945158D01*
X19818500Y-14304500D02*
X19858500Y-14344500D01*
X19858500Y-14304500D02*
X19818500Y-14344500D01*
X19912900Y-13181900D02*
X19952900Y-13221900D01*
X19952900Y-13181900D02*
X19912900Y-13221900D01*
X20173000Y-6584000D02*
X20213000Y-6624000D01*
X20213000Y-6584000D02*
X20173000Y-6624000D01*
X20427000Y-13950000D02*
X20467000Y-13990000D01*
X20467000Y-13950000D02*
X20427000Y-13990000D01*
X20554000Y-14331000D02*
X20594000Y-14371000D01*
X20594000Y-14331000D02*
X20554000Y-14371000D01*
X20990280Y-11537000D02*
X21030280Y-11577000D01*
X21030280Y-11537000D02*
X20990280Y-11577000D01*
X21951000Y-8616000D02*
X21991000Y-8656000D01*
X21991000Y-8616000D02*
X21951000Y-8656000D01*
X21951000Y-8870000D02*
X21991000Y-8910000D01*
X21991000Y-8870000D02*
X21951000Y-8910000D01*
X21976500Y-10812800D02*
X22016500Y-10852800D01*
X22016500Y-10812800D02*
X21976500Y-10852800D01*
X22591370Y-8884410D02*
X22631370Y-8924410D01*
X22631370Y-8884410D02*
X22591370Y-8924410D01*
X23602000Y-10013000D02*
X23642000Y-10053000D01*
X23642000Y-10013000D02*
X23602000Y-10053000D01*
X23729000Y-9454590D02*
X23769000Y-9494590D01*
X23769000Y-9454590D02*
X23729000Y-9494590D01*
X23729000Y-10140000D02*
X23769000Y-10180000D01*
X23769000Y-10140000D02*
X23729000Y-10180000D01*
X23856000Y-9759000D02*
X23896000Y-9799000D01*
X23896000Y-9759000D02*
X23856000Y-9799000D01*
X23856000Y-10267000D02*
X23896000Y-10307000D01*
X23896000Y-10267000D02*
X23856000Y-10307000D01*
X23856000Y-12680000D02*
X23896000Y-12720000D01*
X23896000Y-12680000D02*
X23856000Y-12720000D01*
X23983000Y-8997000D02*
X24023000Y-9037000D01*
X24023000Y-8997000D02*
X23983000Y-9037000D01*
X23983000Y-10394000D02*
X24023000Y-10434000D01*
X24023000Y-10394000D02*
X23983000Y-10434000D01*
X23983000Y-12553000D02*
X24023000Y-12593000D01*
X24023000Y-12553000D02*
X23983000Y-12593000D01*
X24237000Y-10013000D02*
X24277000Y-10053000D01*
X24277000Y-10013000D02*
X24237000Y-10053000D01*
X24820020Y-13505550D02*
X24860020Y-13545550D01*
X24860020Y-13505550D02*
X24820020Y-13545550D01*
X25380000Y-12553000D02*
X25420000Y-12593000D01*
X25420000Y-12553000D02*
X25380000Y-12593000D01*
X25073000Y-5080000D02*
G75*
G03X25073000Y-5080000I-25000J0D01*
G01*
X25138901Y-4920901D02*
G75*
G03X25138901Y-4920901I-25000J0D01*
G01*
X25138901Y-5239099D02*
G75*
G03X25138901Y-5239099I-25000J0D01*
G01*
X25298000Y-4855000D02*
G75*
G03X25298000Y-4855000I-25000J0D01*
G01*
X25298000Y-5305000D02*
G75*
G03X25298000Y-5305000I-25000J0D01*
G01*
X25457099Y-4920901D02*
G75*
G03X25457099Y-4920901I-25000J0D01*
G01*
X25457099Y-5239099D02*
G75*
G03X25457099Y-5239099I-25000J0D01*
G01*
X25523000Y-5080000D02*
G75*
G03X25523000Y-5080000I-25000J0D01*
G01*
X8182000Y-14478000D02*
G75*
G03X8182000Y-14478000I-25000J0D01*
G01*
X8247901Y-14318901D02*
G75*
G03X8247901Y-14318901I-25000J0D01*
G01*
X8247901Y-14637099D02*
G75*
G03X8247901Y-14637099I-25000J0D01*
G01*
X8407000Y-14253000D02*
G75*
G03X8407000Y-14253000I-25000J0D01*
G01*
X8407000Y-14703000D02*
G75*
G03X8407000Y-14703000I-25000J0D01*
G01*
X8566099Y-14318901D02*
G75*
G03X8566099Y-14318901I-25000J0D01*
G01*
X8566099Y-14637099D02*
G75*
G03X8566099Y-14637099I-25000J0D01*
G01*
X8632000Y-14478000D02*
G75*
G03X8632000Y-14478000I-25000J0D01*
G01*
X8182000Y-5080000D02*
G75*
G03X8182000Y-5080000I-25000J0D01*
G01*
X8247901Y-4920901D02*
G75*
G03X8247901Y-4920901I-25000J0D01*
G01*
X8247901Y-5239099D02*
G75*
G03X8247901Y-5239099I-25000J0D01*
G01*
X8407000Y-4855000D02*
G75*
G03X8407000Y-4855000I-25000J0D01*
G01*
X8407000Y-5305000D02*
G75*
G03X8407000Y-5305000I-25000J0D01*
G01*
X8566099Y-4920901D02*
G75*
G03X8566099Y-4920901I-25000J0D01*
G01*
X8566099Y-5239099D02*
G75*
G03X8566099Y-5239099I-25000J0D01*
G01*
X8632000Y-5080000D02*
G75*
G03X8632000Y-5080000I-25000J0D01*
G01*
X24184000Y-14478000D02*
G75*
G03X24184000Y-14478000I-25000J0D01*
G01*
X24249901Y-14318901D02*
G75*
G03X24249901Y-14318901I-25000J0D01*
G01*
X24249901Y-14637099D02*
G75*
G03X24249901Y-14637099I-25000J0D01*
G01*
X24409000Y-14253000D02*
G75*
G03X24409000Y-14253000I-25000J0D01*
G01*
X24409000Y-14703000D02*
G75*
G03X24409000Y-14703000I-25000J0D01*
G01*
X24568099Y-14318901D02*
G75*
G03X24568099Y-14318901I-25000J0D01*
G01*
X24568099Y-14637099D02*
G75*
G03X24568099Y-14637099I-25000J0D01*
G01*
X24634000Y-14478000D02*
G75*
G03X24634000Y-14478000I-25000J0D01*
G01*
X16129000Y-5535000D02*
X16129000Y-5595000D01*
X16099000Y-5565000D02*
X16159000Y-5565000D01*
X16129000Y-5685000D02*
X16129000Y-5745000D01*
X16099000Y-5715000D02*
X16159000Y-5715000D01*
X12853517Y-5868517D02*
X12853517Y-5815483D01*
X12800483Y-5815483D01*
X12800483Y-5868517D01*
X12853517Y-5868517D01*
X12980517Y-5868517D02*
X12980517Y-5815483D01*
X12927483Y-5815483D01*
X12927483Y-5868517D01*
X12980517Y-5868517D01*
X13107517Y-5868517D02*
X13107517Y-5815483D01*
X13054483Y-5815483D01*
X13054483Y-5868517D01*
X13107517Y-5868517D01*
X20193000Y-7025000D02*
X20233000Y-6985000D01*
X20193000Y-6945000D01*
X20153000Y-6985000D01*
X20193000Y-7025000D01*
X20693000Y-7025000D02*
X20733000Y-6985000D01*
X20693000Y-6945000D01*
X20653000Y-6985000D01*
X20693000Y-7025000D01*
X19177000Y-13760000D02*
X19217000Y-13720000D01*
X19177000Y-13680000D01*
X19137000Y-13720000D01*
X19177000Y-13760000D01*
X19177000Y-14010000D02*
X19217000Y-13970000D01*
X19177000Y-13930000D01*
X19137000Y-13970000D01*
X19177000Y-14010000D01*
X24003000Y-6771000D02*
X24043000Y-6731000D01*
X24003000Y-6691000D01*
X23963000Y-6731000D01*
X24003000Y-6771000D01*
X24765000Y-6771000D02*
X24805000Y-6731000D01*
X24765000Y-6691000D01*
X24725000Y-6731000D01*
X24765000Y-6771000D01*
X9652000Y-12964000D02*
X9692000Y-12924000D01*
X9652000Y-12884000D01*
X9612000Y-12924000D01*
X9652000Y-12964000D01*
X9652000Y-13726000D02*
X9692000Y-13686000D01*
X9652000Y-13646000D01*
X9612000Y-13686000D01*
X9652000Y-13726000D01*
X14986000Y-7025000D02*
X15026000Y-6985000D01*
X14986000Y-6945000D01*
X14946000Y-6985000D01*
X14986000Y-7025000D01*
X15486000Y-7025000D02*
X15526000Y-6985000D01*
X15486000Y-6945000D01*
X15446000Y-6985000D01*
X15486000Y-7025000D01*
X9144000Y-12964000D02*
X9184000Y-12924000D01*
X9144000Y-12884000D01*
X9104000Y-12924000D01*
X9144000Y-12964000D01*
X9144000Y-13726000D02*
X9184000Y-13686000D01*
X9144000Y-13646000D01*
X9104000Y-13686000D01*
X9144000Y-13726000D01*
X17780000Y-5628000D02*
X17820000Y-5588000D01*
X17780000Y-5548000D01*
X17740000Y-5588000D01*
X17780000Y-5628000D01*
X18542000Y-5628000D02*
X18582000Y-5588000D01*
X18542000Y-5548000D01*
X18502000Y-5588000D01*
X18542000Y-5628000D01*
X18796000Y-14018000D02*
X18836000Y-13978000D01*
X18796000Y-13938000D01*
X18756000Y-13978000D01*
X18796000Y-14018000D01*
X18796000Y-14518000D02*
X18836000Y-14478000D01*
X18796000Y-14438000D01*
X18756000Y-14478000D01*
X18796000Y-14518000D01*
X21209000Y-13883000D02*
X21249000Y-13843000D01*
X21209000Y-13803000D01*
X21169000Y-13843000D01*
X21209000Y-13883000D01*
X21209000Y-14383000D02*
X21249000Y-14343000D01*
X21209000Y-14303000D01*
X21169000Y-14343000D01*
X21209000Y-14383000D01*
X16510000Y-7406000D02*
X16550000Y-7366000D01*
X16510000Y-7326000D01*
X16470000Y-7366000D01*
X16510000Y-7406000D01*
X16510000Y-7660000D02*
X16550000Y-7620000D01*
X16510000Y-7580000D01*
X16470000Y-7620000D01*
X16510000Y-7660000D01*
X16510000Y-7914000D02*
X16550000Y-7874000D01*
X16510000Y-7834000D01*
X16470000Y-7874000D01*
X16510000Y-7914000D01*
X16510000Y-8168000D02*
X16550000Y-8128000D01*
X16510000Y-8088000D01*
X16470000Y-8128000D01*
X16510000Y-8168000D01*
X16510000Y-8422000D02*
X16550000Y-8382000D01*
X16510000Y-8342000D01*
X16470000Y-8382000D01*
X16510000Y-8422000D01*
X16510000Y-8676000D02*
X16550000Y-8636000D01*
X16510000Y-8596000D01*
X16470000Y-8636000D01*
X16510000Y-8676000D01*
X16510000Y-8930000D02*
X16550000Y-8890000D01*
X16510000Y-8850000D01*
X16470000Y-8890000D01*
X16510000Y-8930000D01*
X16510000Y-9184000D02*
X16550000Y-9144000D01*
X16510000Y-9104000D01*
X16470000Y-9144000D01*
X16510000Y-9184000D01*
X16510000Y-9438000D02*
X16550000Y-9398000D01*
X16510000Y-9358000D01*
X16470000Y-9398000D01*
X16510000Y-9438000D01*
X16510000Y-9692000D02*
X16550000Y-9652000D01*
X16510000Y-9612000D01*
X16470000Y-9652000D01*
X16510000Y-9692000D01*
X16510000Y-9946000D02*
X16550000Y-9906000D01*
X16510000Y-9866000D01*
X16470000Y-9906000D01*
X16510000Y-9946000D01*
X16510000Y-10200000D02*
X16550000Y-10160000D01*
X16510000Y-10120000D01*
X16470000Y-10160000D01*
X16510000Y-10200000D01*
X16510000Y-10454000D02*
X16550000Y-10414000D01*
X16510000Y-10374000D01*
X16470000Y-10414000D01*
X16510000Y-10454000D01*
X16510000Y-10708000D02*
X16550000Y-10668000D01*
X16510000Y-10628000D01*
X16470000Y-10668000D01*
X16510000Y-10708000D01*
X18034000Y-7406000D02*
X18074000Y-7366000D01*
X18034000Y-7326000D01*
X17994000Y-7366000D01*
X18034000Y-7406000D01*
X18034000Y-7660000D02*
X18074000Y-7620000D01*
X18034000Y-7580000D01*
X17994000Y-7620000D01*
X18034000Y-7660000D01*
X18034000Y-7914000D02*
X18074000Y-7874000D01*
X18034000Y-7834000D01*
X17994000Y-7874000D01*
X18034000Y-7914000D01*
X18034000Y-8168000D02*
X18074000Y-8128000D01*
X18034000Y-8088000D01*
X17994000Y-8128000D01*
X18034000Y-8168000D01*
X18034000Y-8422000D02*
X18074000Y-8382000D01*
X18034000Y-8342000D01*
X17994000Y-8382000D01*
X18034000Y-8422000D01*
X18034000Y-8676000D02*
X18074000Y-8636000D01*
X18034000Y-8596000D01*
X17994000Y-8636000D01*
X18034000Y-8676000D01*
X18034000Y-8930000D02*
X18074000Y-8890000D01*
X18034000Y-8850000D01*
X17994000Y-8890000D01*
X18034000Y-8930000D01*
X18034000Y-9184000D02*
X18074000Y-9144000D01*
X18034000Y-9104000D01*
X17994000Y-9144000D01*
X18034000Y-9184000D01*
X18034000Y-9438000D02*
X18074000Y-9398000D01*
X18034000Y-9358000D01*
X17994000Y-9398000D01*
X18034000Y-9438000D01*
X18034000Y-9692000D02*
X18074000Y-9652000D01*
X18034000Y-9612000D01*
X17994000Y-9652000D01*
X18034000Y-9692000D01*
X18034000Y-9946000D02*
X18074000Y-9906000D01*
X18034000Y-9866000D01*
X17994000Y-9906000D01*
X18034000Y-9946000D01*
X18034000Y-10200000D02*
X18074000Y-10160000D01*
X18034000Y-10120000D01*
X17994000Y-10160000D01*
X18034000Y-10200000D01*
X18034000Y-10454000D02*
X18074000Y-10414000D01*
X18034000Y-10374000D01*
X17994000Y-10414000D01*
X18034000Y-10454000D01*
X18034000Y-10708000D02*
X18074000Y-10668000D01*
X18034000Y-10628000D01*
X17994000Y-10668000D01*
X18034000Y-10708000D01*
X11684000Y-6136000D02*
X11724000Y-6096000D01*
X11684000Y-6056000D01*
X11644000Y-6096000D01*
X11684000Y-6136000D01*
X12446000Y-6136000D02*
X12486000Y-6096000D01*
X12446000Y-6056000D01*
X12406000Y-6096000D01*
X12446000Y-6136000D01*
X17534000Y-7025000D02*
X17574000Y-6985000D01*
X17534000Y-6945000D01*
X17494000Y-6985000D01*
X17534000Y-7025000D01*
X18034000Y-7025000D02*
X18074000Y-6985000D01*
X18034000Y-6945000D01*
X17994000Y-6985000D01*
X18034000Y-7025000D01*
X18804000Y-5247000D02*
X18844000Y-5207000D01*
X18804000Y-5167000D01*
X18764000Y-5207000D01*
X18804000Y-5247000D01*
X19304000Y-5247000D02*
X19344000Y-5207000D01*
X19304000Y-5167000D01*
X19264000Y-5207000D01*
X19304000Y-5247000D01*
X20828000Y-6009000D02*
X20868000Y-5969000D01*
X20828000Y-5929000D01*
X20788000Y-5969000D01*
X20828000Y-6009000D01*
X21590000Y-6009000D02*
X21630000Y-5969000D01*
X21590000Y-5929000D01*
X21550000Y-5969000D01*
X21590000Y-6009000D01*
X24003000Y-12232000D02*
X24043000Y-12192000D01*
X24003000Y-12152000D01*
X23963000Y-12192000D01*
X24003000Y-12232000D01*
X24765000Y-12232000D02*
X24805000Y-12192000D01*
X24765000Y-12152000D01*
X24725000Y-12192000D01*
X24765000Y-12232000D01*
X13970000Y-7406000D02*
X14010000Y-7366000D01*
X13970000Y-7326000D01*
X13930000Y-7366000D01*
X13970000Y-7406000D01*
X13970000Y-7660000D02*
X14010000Y-7620000D01*
X13970000Y-7580000D01*
X13930000Y-7620000D01*
X13970000Y-7660000D01*
X13970000Y-7914000D02*
X14010000Y-7874000D01*
X13970000Y-7834000D01*
X13930000Y-7874000D01*
X13970000Y-7914000D01*
X13970000Y-8168000D02*
X14010000Y-8128000D01*
X13970000Y-8088000D01*
X13930000Y-8128000D01*
X13970000Y-8168000D01*
X13970000Y-8422000D02*
X14010000Y-8382000D01*
X13970000Y-8342000D01*
X13930000Y-8382000D01*
X13970000Y-8422000D01*
X13970000Y-8676000D02*
X14010000Y-8636000D01*
X13970000Y-8596000D01*
X13930000Y-8636000D01*
X13970000Y-8676000D01*
X13970000Y-8930000D02*
X14010000Y-8890000D01*
X13970000Y-8850000D01*
X13930000Y-8890000D01*
X13970000Y-8930000D01*
X13970000Y-9184000D02*
X14010000Y-9144000D01*
X13970000Y-9104000D01*
X13930000Y-9144000D01*
X13970000Y-9184000D01*
X13970000Y-9438000D02*
X14010000Y-9398000D01*
X13970000Y-9358000D01*
X13930000Y-9398000D01*
X13970000Y-9438000D01*
X13970000Y-9692000D02*
X14010000Y-9652000D01*
X13970000Y-9612000D01*
X13930000Y-9652000D01*
X13970000Y-9692000D01*
X13970000Y-9946000D02*
X14010000Y-9906000D01*
X13970000Y-9866000D01*
X13930000Y-9906000D01*
X13970000Y-9946000D01*
X13970000Y-10200000D02*
X14010000Y-10160000D01*
X13970000Y-10120000D01*
X13930000Y-10160000D01*
X13970000Y-10200000D01*
X13970000Y-10454000D02*
X14010000Y-10414000D01*
X13970000Y-10374000D01*
X13930000Y-10414000D01*
X13970000Y-10454000D01*
X13970000Y-10708000D02*
X14010000Y-10668000D01*
X13970000Y-10628000D01*
X13930000Y-10668000D01*
X13970000Y-10708000D01*
X15494000Y-7406000D02*
X15534000Y-7366000D01*
X15494000Y-7326000D01*
X15454000Y-7366000D01*
X15494000Y-7406000D01*
X15494000Y-7660000D02*
X15534000Y-7620000D01*
X15494000Y-7580000D01*
X15454000Y-7620000D01*
X15494000Y-7660000D01*
X15494000Y-7914000D02*
X15534000Y-7874000D01*
X15494000Y-7834000D01*
X15454000Y-7874000D01*
X15494000Y-7914000D01*
X15494000Y-8168000D02*
X15534000Y-8128000D01*
X15494000Y-8088000D01*
X15454000Y-8128000D01*
X15494000Y-8168000D01*
X15494000Y-8422000D02*
X15534000Y-8382000D01*
X15494000Y-8342000D01*
X15454000Y-8382000D01*
X15494000Y-8422000D01*
X15494000Y-8676000D02*
X15534000Y-8636000D01*
X15494000Y-8596000D01*
X15454000Y-8636000D01*
X15494000Y-8676000D01*
X15494000Y-8930000D02*
X15534000Y-8890000D01*
X15494000Y-8850000D01*
X15454000Y-8890000D01*
X15494000Y-8930000D01*
X15494000Y-9184000D02*
X15534000Y-9144000D01*
X15494000Y-9104000D01*
X15454000Y-9144000D01*
X15494000Y-9184000D01*
X15494000Y-9438000D02*
X15534000Y-9398000D01*
X15494000Y-9358000D01*
X15454000Y-9398000D01*
X15494000Y-9438000D01*
X15494000Y-9692000D02*
X15534000Y-9652000D01*
X15494000Y-9612000D01*
X15454000Y-9652000D01*
X15494000Y-9692000D01*
X15494000Y-9946000D02*
X15534000Y-9906000D01*
X15494000Y-9866000D01*
X15454000Y-9906000D01*
X15494000Y-9946000D01*
X15494000Y-10200000D02*
X15534000Y-10160000D01*
X15494000Y-10120000D01*
X15454000Y-10160000D01*
X15494000Y-10200000D01*
X15494000Y-10454000D02*
X15534000Y-10414000D01*
X15494000Y-10374000D01*
X15454000Y-10414000D01*
X15494000Y-10454000D01*
X15494000Y-10708000D02*
X15534000Y-10668000D01*
X15494000Y-10628000D01*
X15454000Y-10668000D01*
X15494000Y-10708000D01*
X17780000Y-6136000D02*
X17820000Y-6096000D01*
X17780000Y-6056000D01*
X17740000Y-6096000D01*
X17780000Y-6136000D01*
X18280000Y-6136000D02*
X18320000Y-6096000D01*
X18280000Y-6056000D01*
X18240000Y-6096000D01*
X18280000Y-6136000D01*
X11684000Y-6644000D02*
X11724000Y-6604000D01*
X11684000Y-6564000D01*
X11644000Y-6604000D01*
X11684000Y-6644000D01*
X12446000Y-6644000D02*
X12486000Y-6604000D01*
X12446000Y-6564000D01*
X12406000Y-6604000D01*
X12446000Y-6644000D01*
X13970000Y-12486000D02*
X14010000Y-12446000D01*
X13970000Y-12406000D01*
X13930000Y-12446000D01*
X13970000Y-12486000D01*
X13970000Y-13248000D02*
X14010000Y-13208000D01*
X13970000Y-13168000D01*
X13930000Y-13208000D01*
X13970000Y-13248000D01*
X14224000Y-12486000D02*
X14264000Y-12446000D01*
X14224000Y-12406000D01*
X14184000Y-12446000D01*
X14224000Y-12486000D01*
X14224000Y-13248000D02*
X14264000Y-13208000D01*
X14224000Y-13168000D01*
X14184000Y-13208000D01*
X14224000Y-13248000D01*
X14478000Y-12486000D02*
X14518000Y-12446000D01*
X14478000Y-12406000D01*
X14438000Y-12446000D01*
X14478000Y-12486000D01*
X14478000Y-13248000D02*
X14518000Y-13208000D01*
X14478000Y-13168000D01*
X14438000Y-13208000D01*
X14478000Y-13248000D01*
X14732000Y-12486000D02*
X14772000Y-12446000D01*
X14732000Y-12406000D01*
X14692000Y-12446000D01*
X14732000Y-12486000D01*
X14732000Y-13248000D02*
X14772000Y-13208000D01*
X14732000Y-13168000D01*
X14692000Y-13208000D01*
X14732000Y-13248000D01*
X14986000Y-12486000D02*
X15026000Y-12446000D01*
X14986000Y-12406000D01*
X14946000Y-12446000D01*
X14986000Y-12486000D01*
X14986000Y-13248000D02*
X15026000Y-13208000D01*
X14986000Y-13168000D01*
X14946000Y-13208000D01*
X14986000Y-13248000D01*
X15240000Y-12486000D02*
X15280000Y-12446000D01*
X15240000Y-12406000D01*
X15200000Y-12446000D01*
X15240000Y-12486000D01*
X15240000Y-13248000D02*
X15280000Y-13208000D01*
X15240000Y-13168000D01*
X15200000Y-13208000D01*
X15240000Y-13248000D01*
X15494000Y-12486000D02*
X15534000Y-12446000D01*
X15494000Y-12406000D01*
X15454000Y-12446000D01*
X15494000Y-12486000D01*
X15494000Y-13248000D02*
X15534000Y-13208000D01*
X15494000Y-13168000D01*
X15454000Y-13208000D01*
X15494000Y-13248000D01*
X15748000Y-12486000D02*
X15788000Y-12446000D01*
X15748000Y-12406000D01*
X15708000Y-12446000D01*
X15748000Y-12486000D01*
X15748000Y-13248000D02*
X15788000Y-13208000D01*
X15748000Y-13168000D01*
X15708000Y-13208000D01*
X15748000Y-13248000D01*
X9398000Y-5882000D02*
X9438000Y-5842000D01*
X9398000Y-5802000D01*
X9358000Y-5842000D01*
X9398000Y-5882000D01*
X9398000Y-6644000D02*
X9438000Y-6604000D01*
X9398000Y-6564000D01*
X9358000Y-6604000D01*
X9398000Y-6644000D01*
X10160000Y-5882000D02*
X10200000Y-5842000D01*
X10160000Y-5802000D01*
X10120000Y-5842000D01*
X10160000Y-5882000D01*
X10160000Y-6644000D02*
X10200000Y-6604000D01*
X10160000Y-6564000D01*
X10120000Y-6604000D01*
X10160000Y-6644000D01*
X13589000Y-5382000D02*
X13629000Y-5342000D01*
X13589000Y-5302000D01*
X13549000Y-5342000D01*
X13589000Y-5382000D01*
X13589000Y-5882000D02*
X13629000Y-5842000D01*
X13589000Y-5802000D01*
X13549000Y-5842000D01*
X13589000Y-5882000D01*
X19177000Y-14268000D02*
X19217000Y-14228000D01*
X19177000Y-14188000D01*
X19137000Y-14228000D01*
X19177000Y-14268000D01*
X19177000Y-14518000D02*
X19217000Y-14478000D01*
X19177000Y-14438000D01*
X19137000Y-14478000D01*
X19177000Y-14518000D01*
X9525000Y-7922000D02*
X9565000Y-7882000D01*
X9525000Y-7842000D01*
X9485000Y-7882000D01*
X9525000Y-7922000D01*
X9525000Y-8422000D02*
X9565000Y-8382000D01*
X9525000Y-8342000D01*
X9485000Y-8382000D01*
X9525000Y-8422000D01*
X21635000Y-7418000D02*
X21675000Y-7378000D01*
X21635000Y-7338000D01*
X21595000Y-7378000D01*
X21635000Y-7418000D01*
X21635000Y-7672000D02*
X21675000Y-7632000D01*
X21635000Y-7592000D01*
X21595000Y-7632000D01*
X21635000Y-7672000D01*
X21635000Y-7926000D02*
X21675000Y-7886000D01*
X21635000Y-7846000D01*
X21595000Y-7886000D01*
X21635000Y-7926000D01*
X21635000Y-8180000D02*
X21675000Y-8140000D01*
X21635000Y-8100000D01*
X21595000Y-8140000D01*
X21635000Y-8180000D01*
X21635000Y-8434000D02*
X21675000Y-8394000D01*
X21635000Y-8354000D01*
X21595000Y-8394000D01*
X21635000Y-8434000D01*
X21635000Y-8688000D02*
X21675000Y-8648000D01*
X21635000Y-8608000D01*
X21595000Y-8648000D01*
X21635000Y-8688000D01*
X21635000Y-8942000D02*
X21675000Y-8902000D01*
X21635000Y-8862000D01*
X21595000Y-8902000D01*
X21635000Y-8942000D01*
X21635000Y-9196000D02*
X21675000Y-9156000D01*
X21635000Y-9116000D01*
X21595000Y-9156000D01*
X21635000Y-9196000D01*
X21635000Y-9450000D02*
X21675000Y-9410000D01*
X21635000Y-9370000D01*
X21595000Y-9410000D01*
X21635000Y-9450000D01*
X21635000Y-9704000D02*
X21675000Y-9664000D01*
X21635000Y-9624000D01*
X21595000Y-9664000D01*
X21635000Y-9704000D01*
X21635000Y-9958000D02*
X21675000Y-9918000D01*
X21635000Y-9878000D01*
X21595000Y-9918000D01*
X21635000Y-9958000D01*
X21635000Y-10212000D02*
X21675000Y-10172000D01*
X21635000Y-10132000D01*
X21595000Y-10172000D01*
X21635000Y-10212000D01*
X21635000Y-10466000D02*
X21675000Y-10426000D01*
X21635000Y-10386000D01*
X21595000Y-10426000D01*
X21635000Y-10466000D01*
X21635000Y-10720000D02*
X21675000Y-10680000D01*
X21635000Y-10640000D01*
X21595000Y-10680000D01*
X21635000Y-10720000D01*
X21635000Y-10974000D02*
X21675000Y-10934000D01*
X21635000Y-10894000D01*
X21595000Y-10934000D01*
X21635000Y-10974000D01*
X21635000Y-11228000D02*
X21675000Y-11188000D01*
X21635000Y-11148000D01*
X21595000Y-11188000D01*
X21635000Y-11228000D01*
X21635000Y-11482000D02*
X21675000Y-11442000D01*
X21635000Y-11402000D01*
X21595000Y-11442000D01*
X21635000Y-11482000D01*
X21635000Y-11736000D02*
X21675000Y-11696000D01*
X21635000Y-11656000D01*
X21595000Y-11696000D01*
X21635000Y-11736000D01*
X21635000Y-11990000D02*
X21675000Y-11950000D01*
X21635000Y-11910000D01*
X21595000Y-11950000D01*
X21635000Y-11990000D01*
X21635000Y-12244000D02*
X21675000Y-12204000D01*
X21635000Y-12164000D01*
X21595000Y-12204000D01*
X21635000Y-12244000D01*
X23159000Y-7418000D02*
X23199000Y-7378000D01*
X23159000Y-7338000D01*
X23119000Y-7378000D01*
X23159000Y-7418000D01*
X23159000Y-7672000D02*
X23199000Y-7632000D01*
X23159000Y-7592000D01*
X23119000Y-7632000D01*
X23159000Y-7672000D01*
X23159000Y-7926000D02*
X23199000Y-7886000D01*
X23159000Y-7846000D01*
X23119000Y-7886000D01*
X23159000Y-7926000D01*
X23159000Y-8180000D02*
X23199000Y-8140000D01*
X23159000Y-8100000D01*
X23119000Y-8140000D01*
X23159000Y-8180000D01*
X23159000Y-8434000D02*
X23199000Y-8394000D01*
X23159000Y-8354000D01*
X23119000Y-8394000D01*
X23159000Y-8434000D01*
X23159000Y-8688000D02*
X23199000Y-8648000D01*
X23159000Y-8608000D01*
X23119000Y-8648000D01*
X23159000Y-8688000D01*
X23159000Y-8942000D02*
X23199000Y-8902000D01*
X23159000Y-8862000D01*
X23119000Y-8902000D01*
X23159000Y-8942000D01*
X23159000Y-9196000D02*
X23199000Y-9156000D01*
X23159000Y-9116000D01*
X23119000Y-9156000D01*
X23159000Y-9196000D01*
X23159000Y-9450000D02*
X23199000Y-9410000D01*
X23159000Y-9370000D01*
X23119000Y-9410000D01*
X23159000Y-9450000D01*
X23159000Y-9704000D02*
X23199000Y-9664000D01*
X23159000Y-9624000D01*
X23119000Y-9664000D01*
X23159000Y-9704000D01*
X23159000Y-9958000D02*
X23199000Y-9918000D01*
X23159000Y-9878000D01*
X23119000Y-9918000D01*
X23159000Y-9958000D01*
X23159000Y-10212000D02*
X23199000Y-10172000D01*
X23159000Y-10132000D01*
X23119000Y-10172000D01*
X23159000Y-10212000D01*
X23159000Y-10466000D02*
X23199000Y-10426000D01*
X23159000Y-10386000D01*
X23119000Y-10426000D01*
X23159000Y-10466000D01*
X23159000Y-10720000D02*
X23199000Y-10680000D01*
X23159000Y-10640000D01*
X23119000Y-10680000D01*
X23159000Y-10720000D01*
X23159000Y-10974000D02*
X23199000Y-10934000D01*
X23159000Y-10894000D01*
X23119000Y-10934000D01*
X23159000Y-10974000D01*
X23159000Y-11228000D02*
X23199000Y-11188000D01*
X23159000Y-11148000D01*
X23119000Y-11188000D01*
X23159000Y-11228000D01*
X23159000Y-11482000D02*
X23199000Y-11442000D01*
X23159000Y-11402000D01*
X23119000Y-11442000D01*
X23159000Y-11482000D01*
X23159000Y-11736000D02*
X23199000Y-11696000D01*
X23159000Y-11656000D01*
X23119000Y-11696000D01*
X23159000Y-11736000D01*
X23159000Y-11990000D02*
X23199000Y-11950000D01*
X23159000Y-11910000D01*
X23119000Y-11950000D01*
X23159000Y-11990000D01*
X23159000Y-12244000D02*
X23199000Y-12204000D01*
X23159000Y-12164000D01*
X23119000Y-12204000D01*
X23159000Y-12244000D01*
X16637000Y-5374000D02*
X16677000Y-5334000D01*
X16637000Y-5294000D01*
X16597000Y-5334000D01*
X16637000Y-5374000D01*
X16637000Y-6136000D02*
X16677000Y-6096000D01*
X16637000Y-6056000D01*
X16597000Y-6096000D01*
X16637000Y-6136000D01*
X16891000Y-5374000D02*
X16931000Y-5334000D01*
X16891000Y-5294000D01*
X16851000Y-5334000D01*
X16891000Y-5374000D01*
X16891000Y-6136000D02*
X16931000Y-6096000D01*
X16891000Y-6056000D01*
X16851000Y-6096000D01*
X16891000Y-6136000D01*
X17145000Y-5374000D02*
X17185000Y-5334000D01*
X17145000Y-5294000D01*
X17105000Y-5334000D01*
X17145000Y-5374000D01*
X17145000Y-6136000D02*
X17185000Y-6096000D01*
X17145000Y-6056000D01*
X17105000Y-6096000D01*
X17145000Y-6136000D01*
X17399000Y-5374000D02*
X17439000Y-5334000D01*
X17399000Y-5294000D01*
X17359000Y-5334000D01*
X17399000Y-5374000D01*
X17399000Y-6136000D02*
X17439000Y-6096000D01*
X17399000Y-6056000D01*
X17359000Y-6096000D01*
X17399000Y-6136000D01*
X13970000Y-12105000D02*
X14010000Y-12065000D01*
X13970000Y-12025000D01*
X13930000Y-12065000D01*
X13970000Y-12105000D01*
X14470000Y-12105000D02*
X14510000Y-12065000D01*
X14470000Y-12025000D01*
X14430000Y-12065000D01*
X14470000Y-12105000D01*
X22098000Y-5247000D02*
X22138000Y-5207000D01*
X22098000Y-5167000D01*
X22058000Y-5207000D01*
X22098000Y-5247000D01*
X22098000Y-5501000D02*
X22138000Y-5461000D01*
X22098000Y-5421000D01*
X22058000Y-5461000D01*
X22098000Y-5501000D01*
X22098000Y-5755000D02*
X22138000Y-5715000D01*
X22098000Y-5675000D01*
X22058000Y-5715000D01*
X22098000Y-5755000D01*
X22098000Y-6009000D02*
X22138000Y-5969000D01*
X22098000Y-5929000D01*
X22058000Y-5969000D01*
X22098000Y-6009000D01*
X22860000Y-5247000D02*
X22900000Y-5207000D01*
X22860000Y-5167000D01*
X22820000Y-5207000D01*
X22860000Y-5247000D01*
X22860000Y-5501000D02*
X22900000Y-5461000D01*
X22860000Y-5421000D01*
X22820000Y-5461000D01*
X22860000Y-5501000D01*
X22860000Y-5755000D02*
X22900000Y-5715000D01*
X22860000Y-5675000D01*
X22820000Y-5715000D01*
X22860000Y-5755000D01*
X22860000Y-6009000D02*
X22900000Y-5969000D01*
X22860000Y-5929000D01*
X22820000Y-5969000D01*
X22860000Y-6009000D01*
X24003000Y-11597000D02*
X24043000Y-11557000D01*
X24003000Y-11517000D01*
X23963000Y-11557000D01*
X24003000Y-11597000D01*
X24765000Y-11597000D02*
X24805000Y-11557000D01*
X24765000Y-11517000D01*
X24725000Y-11557000D01*
X24765000Y-11597000D01*
X8636000Y-12964000D02*
X8676000Y-12924000D01*
X8636000Y-12884000D01*
X8596000Y-12924000D01*
X8636000Y-12964000D01*
X8636000Y-13726000D02*
X8676000Y-13686000D01*
X8636000Y-13646000D01*
X8596000Y-13686000D01*
X8636000Y-13726000D01*
X24392000Y-11089000D02*
X24432000Y-11049000D01*
X24392000Y-11009000D01*
X24352000Y-11049000D01*
X24392000Y-11089000D01*
X24892000Y-11089000D02*
X24932000Y-11049000D01*
X24892000Y-11009000D01*
X24852000Y-11049000D01*
X24892000Y-11089000D01*
X17780000Y-5247000D02*
X17820000Y-5207000D01*
X17780000Y-5167000D01*
X17740000Y-5207000D01*
X17780000Y-5247000D01*
X18542000Y-5247000D02*
X18582000Y-5207000D01*
X18542000Y-5167000D01*
X18502000Y-5207000D01*
X18542000Y-5247000D01*
X13970000Y-5374000D02*
X14010000Y-5334000D01*
X13970000Y-5294000D01*
X13930000Y-5334000D01*
X13970000Y-5374000D01*
X13970000Y-6136000D02*
X14010000Y-6096000D01*
X13970000Y-6056000D01*
X13930000Y-6096000D01*
X13970000Y-6136000D01*
X14224000Y-5374000D02*
X14264000Y-5334000D01*
X14224000Y-5294000D01*
X14184000Y-5334000D01*
X14224000Y-5374000D01*
X14224000Y-6136000D02*
X14264000Y-6096000D01*
X14224000Y-6056000D01*
X14184000Y-6096000D01*
X14224000Y-6136000D01*
X14478000Y-5374000D02*
X14518000Y-5334000D01*
X14478000Y-5294000D01*
X14438000Y-5334000D01*
X14478000Y-5374000D01*
X14478000Y-6136000D02*
X14518000Y-6096000D01*
X14478000Y-6056000D01*
X14438000Y-6096000D01*
X14478000Y-6136000D01*
X14732000Y-5374000D02*
X14772000Y-5334000D01*
X14732000Y-5294000D01*
X14692000Y-5334000D01*
X14732000Y-5374000D01*
X14732000Y-6136000D02*
X14772000Y-6096000D01*
X14732000Y-6056000D01*
X14692000Y-6096000D01*
X14732000Y-6136000D01*
X14986000Y-5374000D02*
X15026000Y-5334000D01*
X14986000Y-5294000D01*
X14946000Y-5334000D01*
X14986000Y-5374000D01*
X14986000Y-6136000D02*
X15026000Y-6096000D01*
X14986000Y-6056000D01*
X14946000Y-6096000D01*
X14986000Y-6136000D01*
X15240000Y-5374000D02*
X15280000Y-5334000D01*
X15240000Y-5294000D01*
X15200000Y-5334000D01*
X15240000Y-5374000D01*
X15240000Y-6136000D02*
X15280000Y-6096000D01*
X15240000Y-6056000D01*
X15200000Y-6096000D01*
X15240000Y-6136000D01*
X15494000Y-5374000D02*
X15534000Y-5334000D01*
X15494000Y-5294000D01*
X15454000Y-5334000D01*
X15494000Y-5374000D01*
X15494000Y-6136000D02*
X15534000Y-6096000D01*
X15494000Y-6056000D01*
X15454000Y-6096000D01*
X15494000Y-6136000D01*
X25023000Y-12994000D02*
X25063000Y-12954000D01*
X25023000Y-12914000D01*
X24983000Y-12954000D01*
X25023000Y-12994000D01*
X25273000Y-12994000D02*
X25313000Y-12954000D01*
X25273000Y-12914000D01*
X25233000Y-12954000D01*
X25273000Y-12994000D01*
X9652000Y-5374000D02*
X9692000Y-5334000D01*
X9652000Y-5294000D01*
X9612000Y-5334000D01*
X9652000Y-5374000D01*
X10152000Y-5374000D02*
X10192000Y-5334000D01*
X10152000Y-5294000D01*
X10112000Y-5334000D01*
X10152000Y-5374000D01*
X20828000Y-13891000D02*
X20868000Y-13851000D01*
X20828000Y-13811000D01*
X20788000Y-13851000D01*
X20828000Y-13891000D01*
X20828000Y-14391000D02*
X20868000Y-14351000D01*
X20828000Y-14311000D01*
X20788000Y-14351000D01*
X20828000Y-14391000D01*
X11049000Y-7406000D02*
X11089000Y-7366000D01*
X11049000Y-7326000D01*
X11009000Y-7366000D01*
X11049000Y-7406000D01*
X11049000Y-7660000D02*
X11089000Y-7620000D01*
X11049000Y-7580000D01*
X11009000Y-7620000D01*
X11049000Y-7660000D01*
X11049000Y-7914000D02*
X11089000Y-7874000D01*
X11049000Y-7834000D01*
X11009000Y-7874000D01*
X11049000Y-7914000D01*
X11049000Y-8168000D02*
X11089000Y-8128000D01*
X11049000Y-8088000D01*
X11009000Y-8128000D01*
X11049000Y-8168000D01*
X11049000Y-8422000D02*
X11089000Y-8382000D01*
X11049000Y-8342000D01*
X11009000Y-8382000D01*
X11049000Y-8422000D01*
X11049000Y-8676000D02*
X11089000Y-8636000D01*
X11049000Y-8596000D01*
X11009000Y-8636000D01*
X11049000Y-8676000D01*
X11049000Y-8930000D02*
X11089000Y-8890000D01*
X11049000Y-8850000D01*
X11009000Y-8890000D01*
X11049000Y-8930000D01*
X11049000Y-9184000D02*
X11089000Y-9144000D01*
X11049000Y-9104000D01*
X11009000Y-9144000D01*
X11049000Y-9184000D01*
X11049000Y-9438000D02*
X11089000Y-9398000D01*
X11049000Y-9358000D01*
X11009000Y-9398000D01*
X11049000Y-9438000D01*
X11049000Y-9692000D02*
X11089000Y-9652000D01*
X11049000Y-9612000D01*
X11009000Y-9652000D01*
X11049000Y-9692000D01*
X11049000Y-9946000D02*
X11089000Y-9906000D01*
X11049000Y-9866000D01*
X11009000Y-9906000D01*
X11049000Y-9946000D01*
X11049000Y-10200000D02*
X11089000Y-10160000D01*
X11049000Y-10120000D01*
X11009000Y-10160000D01*
X11049000Y-10200000D01*
X11049000Y-10454000D02*
X11089000Y-10414000D01*
X11049000Y-10374000D01*
X11009000Y-10414000D01*
X11049000Y-10454000D01*
X11049000Y-10708000D02*
X11089000Y-10668000D01*
X11049000Y-10628000D01*
X11009000Y-10668000D01*
X11049000Y-10708000D01*
X11049000Y-10962000D02*
X11089000Y-10922000D01*
X11049000Y-10882000D01*
X11009000Y-10922000D01*
X11049000Y-10962000D01*
X11049000Y-11216000D02*
X11089000Y-11176000D01*
X11049000Y-11136000D01*
X11009000Y-11176000D01*
X11049000Y-11216000D01*
X11049000Y-11470000D02*
X11089000Y-11430000D01*
X11049000Y-11390000D01*
X11009000Y-11430000D01*
X11049000Y-11470000D01*
X11049000Y-11724000D02*
X11089000Y-11684000D01*
X11049000Y-11644000D01*
X11009000Y-11684000D01*
X11049000Y-11724000D01*
X11049000Y-11978000D02*
X11089000Y-11938000D01*
X11049000Y-11898000D01*
X11009000Y-11938000D01*
X11049000Y-11978000D01*
X11049000Y-12232000D02*
X11089000Y-12192000D01*
X11049000Y-12152000D01*
X11009000Y-12192000D01*
X11049000Y-12232000D01*
X12573000Y-7406000D02*
X12613000Y-7366000D01*
X12573000Y-7326000D01*
X12533000Y-7366000D01*
X12573000Y-7406000D01*
X12573000Y-7660000D02*
X12613000Y-7620000D01*
X12573000Y-7580000D01*
X12533000Y-7620000D01*
X12573000Y-7660000D01*
X12573000Y-7914000D02*
X12613000Y-7874000D01*
X12573000Y-7834000D01*
X12533000Y-7874000D01*
X12573000Y-7914000D01*
X12573000Y-8168000D02*
X12613000Y-8128000D01*
X12573000Y-8088000D01*
X12533000Y-8128000D01*
X12573000Y-8168000D01*
X12573000Y-8422000D02*
X12613000Y-8382000D01*
X12573000Y-8342000D01*
X12533000Y-8382000D01*
X12573000Y-8422000D01*
X12573000Y-8676000D02*
X12613000Y-8636000D01*
X12573000Y-8596000D01*
X12533000Y-8636000D01*
X12573000Y-8676000D01*
X12573000Y-8930000D02*
X12613000Y-8890000D01*
X12573000Y-8850000D01*
X12533000Y-8890000D01*
X12573000Y-8930000D01*
X12573000Y-9184000D02*
X12613000Y-9144000D01*
X12573000Y-9104000D01*
X12533000Y-9144000D01*
X12573000Y-9184000D01*
X12573000Y-9438000D02*
X12613000Y-9398000D01*
X12573000Y-9358000D01*
X12533000Y-9398000D01*
X12573000Y-9438000D01*
X12573000Y-9692000D02*
X12613000Y-9652000D01*
X12573000Y-9612000D01*
X12533000Y-9652000D01*
X12573000Y-9692000D01*
X12573000Y-9946000D02*
X12613000Y-9906000D01*
X12573000Y-9866000D01*
X12533000Y-9906000D01*
X12573000Y-9946000D01*
X12573000Y-10200000D02*
X12613000Y-10160000D01*
X12573000Y-10120000D01*
X12533000Y-10160000D01*
X12573000Y-10200000D01*
X12573000Y-10454000D02*
X12613000Y-10414000D01*
X12573000Y-10374000D01*
X12533000Y-10414000D01*
X12573000Y-10454000D01*
X12573000Y-10708000D02*
X12613000Y-10668000D01*
X12573000Y-10628000D01*
X12533000Y-10668000D01*
X12573000Y-10708000D01*
X12573000Y-10962000D02*
X12613000Y-10922000D01*
X12573000Y-10882000D01*
X12533000Y-10922000D01*
X12573000Y-10962000D01*
X12573000Y-11216000D02*
X12613000Y-11176000D01*
X12573000Y-11136000D01*
X12533000Y-11176000D01*
X12573000Y-11216000D01*
X12573000Y-11470000D02*
X12613000Y-11430000D01*
X12573000Y-11390000D01*
X12533000Y-11430000D01*
X12573000Y-11470000D01*
X12573000Y-11724000D02*
X12613000Y-11684000D01*
X12573000Y-11644000D01*
X12533000Y-11684000D01*
X12573000Y-11724000D01*
X12573000Y-11978000D02*
X12613000Y-11938000D01*
X12573000Y-11898000D01*
X12533000Y-11938000D01*
X12573000Y-11978000D01*
X12573000Y-12232000D02*
X12613000Y-12192000D01*
X12573000Y-12152000D01*
X12533000Y-12192000D01*
X12573000Y-12232000D01*
X19177000Y-7406000D02*
X19217000Y-7366000D01*
X19177000Y-7326000D01*
X19137000Y-7366000D01*
X19177000Y-7406000D01*
X19177000Y-7660000D02*
X19217000Y-7620000D01*
X19177000Y-7580000D01*
X19137000Y-7620000D01*
X19177000Y-7660000D01*
X19177000Y-7914000D02*
X19217000Y-7874000D01*
X19177000Y-7834000D01*
X19137000Y-7874000D01*
X19177000Y-7914000D01*
X19177000Y-8168000D02*
X19217000Y-8128000D01*
X19177000Y-8088000D01*
X19137000Y-8128000D01*
X19177000Y-8168000D01*
X19177000Y-8422000D02*
X19217000Y-8382000D01*
X19177000Y-8342000D01*
X19137000Y-8382000D01*
X19177000Y-8422000D01*
X19177000Y-8676000D02*
X19217000Y-8636000D01*
X19177000Y-8596000D01*
X19137000Y-8636000D01*
X19177000Y-8676000D01*
X19177000Y-8930000D02*
X19217000Y-8890000D01*
X19177000Y-8850000D01*
X19137000Y-8890000D01*
X19177000Y-8930000D01*
X19177000Y-9184000D02*
X19217000Y-9144000D01*
X19177000Y-9104000D01*
X19137000Y-9144000D01*
X19177000Y-9184000D01*
X19177000Y-9438000D02*
X19217000Y-9398000D01*
X19177000Y-9358000D01*
X19137000Y-9398000D01*
X19177000Y-9438000D01*
X19177000Y-9692000D02*
X19217000Y-9652000D01*
X19177000Y-9612000D01*
X19137000Y-9652000D01*
X19177000Y-9692000D01*
X19177000Y-9946000D02*
X19217000Y-9906000D01*
X19177000Y-9866000D01*
X19137000Y-9906000D01*
X19177000Y-9946000D01*
X19177000Y-10200000D02*
X19217000Y-10160000D01*
X19177000Y-10120000D01*
X19137000Y-10160000D01*
X19177000Y-10200000D01*
X19177000Y-10454000D02*
X19217000Y-10414000D01*
X19177000Y-10374000D01*
X19137000Y-10414000D01*
X19177000Y-10454000D01*
X19177000Y-10708000D02*
X19217000Y-10668000D01*
X19177000Y-10628000D01*
X19137000Y-10668000D01*
X19177000Y-10708000D01*
X19177000Y-10962000D02*
X19217000Y-10922000D01*
X19177000Y-10882000D01*
X19137000Y-10922000D01*
X19177000Y-10962000D01*
X19177000Y-11216000D02*
X19217000Y-11176000D01*
X19177000Y-11136000D01*
X19137000Y-11176000D01*
X19177000Y-11216000D01*
X19177000Y-11470000D02*
X19217000Y-11430000D01*
X19177000Y-11390000D01*
X19137000Y-11430000D01*
X19177000Y-11470000D01*
X19177000Y-11724000D02*
X19217000Y-11684000D01*
X19177000Y-11644000D01*
X19137000Y-11684000D01*
X19177000Y-11724000D01*
X19177000Y-11978000D02*
X19217000Y-11938000D01*
X19177000Y-11898000D01*
X19137000Y-11938000D01*
X19177000Y-11978000D01*
X19177000Y-12232000D02*
X19217000Y-12192000D01*
X19177000Y-12152000D01*
X19137000Y-12192000D01*
X19177000Y-12232000D01*
X20701000Y-7406000D02*
X20741000Y-7366000D01*
X20701000Y-7326000D01*
X20661000Y-7366000D01*
X20701000Y-7406000D01*
X20701000Y-7660000D02*
X20741000Y-7620000D01*
X20701000Y-7580000D01*
X20661000Y-7620000D01*
X20701000Y-7660000D01*
X20701000Y-7914000D02*
X20741000Y-7874000D01*
X20701000Y-7834000D01*
X20661000Y-7874000D01*
X20701000Y-7914000D01*
X20701000Y-8168000D02*
X20741000Y-8128000D01*
X20701000Y-8088000D01*
X20661000Y-8128000D01*
X20701000Y-8168000D01*
X20701000Y-8422000D02*
X20741000Y-8382000D01*
X20701000Y-8342000D01*
X20661000Y-8382000D01*
X20701000Y-8422000D01*
X20701000Y-8676000D02*
X20741000Y-8636000D01*
X20701000Y-8596000D01*
X20661000Y-8636000D01*
X20701000Y-8676000D01*
X20701000Y-8930000D02*
X20741000Y-8890000D01*
X20701000Y-8850000D01*
X20661000Y-8890000D01*
X20701000Y-8930000D01*
X20701000Y-9184000D02*
X20741000Y-9144000D01*
X20701000Y-9104000D01*
X20661000Y-9144000D01*
X20701000Y-9184000D01*
X20701000Y-9438000D02*
X20741000Y-9398000D01*
X20701000Y-9358000D01*
X20661000Y-9398000D01*
X20701000Y-9438000D01*
X20701000Y-9692000D02*
X20741000Y-9652000D01*
X20701000Y-9612000D01*
X20661000Y-9652000D01*
X20701000Y-9692000D01*
X20701000Y-9946000D02*
X20741000Y-9906000D01*
X20701000Y-9866000D01*
X20661000Y-9906000D01*
X20701000Y-9946000D01*
X20701000Y-10200000D02*
X20741000Y-10160000D01*
X20701000Y-10120000D01*
X20661000Y-10160000D01*
X20701000Y-10200000D01*
X20701000Y-10454000D02*
X20741000Y-10414000D01*
X20701000Y-10374000D01*
X20661000Y-10414000D01*
X20701000Y-10454000D01*
X20701000Y-10708000D02*
X20741000Y-10668000D01*
X20701000Y-10628000D01*
X20661000Y-10668000D01*
X20701000Y-10708000D01*
X20701000Y-10962000D02*
X20741000Y-10922000D01*
X20701000Y-10882000D01*
X20661000Y-10922000D01*
X20701000Y-10962000D01*
X20701000Y-11216000D02*
X20741000Y-11176000D01*
X20701000Y-11136000D01*
X20661000Y-11176000D01*
X20701000Y-11216000D01*
X20701000Y-11470000D02*
X20741000Y-11430000D01*
X20701000Y-11390000D01*
X20661000Y-11430000D01*
X20701000Y-11470000D01*
X20701000Y-11724000D02*
X20741000Y-11684000D01*
X20701000Y-11644000D01*
X20661000Y-11684000D01*
X20701000Y-11724000D01*
X20701000Y-11978000D02*
X20741000Y-11938000D01*
X20701000Y-11898000D01*
X20661000Y-11938000D01*
X20701000Y-11978000D01*
X20701000Y-12232000D02*
X20741000Y-12192000D01*
X20701000Y-12152000D01*
X20661000Y-12192000D01*
X20701000Y-12232000D01*
X11684000Y-4993000D02*
X11724000Y-4953000D01*
X11684000Y-4913000D01*
X11644000Y-4953000D01*
X11684000Y-4993000D01*
X12446000Y-4993000D02*
X12486000Y-4953000D01*
X12446000Y-4913000D01*
X12406000Y-4953000D01*
X12446000Y-4993000D01*
X20828000Y-6390000D02*
X20868000Y-6350000D01*
X20828000Y-6310000D01*
X20788000Y-6350000D01*
X20828000Y-6390000D01*
X21590000Y-6390000D02*
X21630000Y-6350000D01*
X21590000Y-6310000D01*
X21550000Y-6350000D01*
X21590000Y-6390000D01*
X20828000Y-5628000D02*
X20868000Y-5588000D01*
X20828000Y-5548000D01*
X20788000Y-5588000D01*
X20828000Y-5628000D01*
X21590000Y-5628000D02*
X21630000Y-5588000D01*
X21590000Y-5548000D01*
X21550000Y-5588000D01*
X21590000Y-5628000D01*
X20828000Y-5247000D02*
X20868000Y-5207000D01*
X20828000Y-5167000D01*
X20788000Y-5207000D01*
X20828000Y-5247000D01*
X21590000Y-5247000D02*
X21630000Y-5207000D01*
X21590000Y-5167000D01*
X21550000Y-5207000D01*
X21590000Y-5247000D01*
X24974000Y-11512000D02*
X25064000Y-11602000D01*
X25064000Y-11512000D02*
X24974000Y-11602000D01*
X25064000Y-11557000D02*
G75*
G03X25064000Y-11557000I-45000J0D01*
G01*
X25228000Y-11512000D02*
X25318000Y-11602000D01*
X25318000Y-11512000D02*
X25228000Y-11602000D01*
X25318000Y-11557000D02*
G75*
G03X25318000Y-11557000I-45000J0D01*
G01*
X24974000Y-6686000D02*
X25064000Y-6776000D01*
X25064000Y-6686000D02*
X24974000Y-6776000D01*
X25064000Y-6731000D02*
G75*
G03X25064000Y-6731000I-45000J0D01*
G01*
X25228000Y-6686000D02*
X25318000Y-6776000D01*
X25318000Y-6686000D02*
X25228000Y-6776000D01*
X25318000Y-6731000D02*
G75*
G03X25318000Y-6731000I-45000J0D01*
G01*
X12782000Y-4908000D02*
X12872000Y-4998000D01*
X12872000Y-4908000D02*
X12782000Y-4998000D01*
X12872000Y-4953000D02*
G75*
G03X12872000Y-4953000I-45000J0D01*
G01*
X13036000Y-4908000D02*
X13126000Y-4998000D01*
X13126000Y-4908000D02*
X13036000Y-4998000D01*
X13126000Y-4953000D02*
G75*
G03X13126000Y-4953000I-45000J0D01*
G01*
X24974000Y-12147000D02*
X25064000Y-12237000D01*
X25064000Y-12147000D02*
X24974000Y-12237000D01*
X25064000Y-12192000D02*
G75*
G03X25064000Y-12192000I-45000J0D01*
G01*
X25228000Y-12147000D02*
X25318000Y-12237000D01*
X25318000Y-12147000D02*
X25228000Y-12237000D01*
X25318000Y-12192000D02*
G75*
G03X25318000Y-12192000I-45000J0D01*
G01*
X24460200Y-7950200D02*
X24561800Y-8051800D01*
X24561800Y-7950200D02*
X24460200Y-8051800D01*
X24511000Y-7950200D02*
X24511000Y-8051800D01*
X24460200Y-8001000D02*
X24561800Y-8001000D01*
X24460200Y-8204200D02*
X24561800Y-8305800D01*
X24561800Y-8204200D02*
X24460200Y-8305800D01*
X24511000Y-8204200D02*
X24511000Y-8305800D01*
X24460200Y-8255000D02*
X24561800Y-8255000D01*
X24460200Y-8458200D02*
X24561800Y-8559800D01*
X24561800Y-8458200D02*
X24460200Y-8559800D01*
X24511000Y-8458200D02*
X24511000Y-8559800D01*
X24460200Y-8509000D02*
X24561800Y-8509000D01*
X24460200Y-8712200D02*
X24561800Y-8813800D01*
X24561800Y-8712200D02*
X24460200Y-8813800D01*
X24511000Y-8712200D02*
X24511000Y-8813800D01*
X24460200Y-8763000D02*
X24561800Y-8763000D01*
X24460200Y-8966200D02*
X24561800Y-9067800D01*
X24561800Y-8966200D02*
X24460200Y-9067800D01*
X24511000Y-8966200D02*
X24511000Y-9067800D01*
X24460200Y-9017000D02*
X24561800Y-9017000D01*
X24460200Y-9220200D02*
X24561800Y-9321800D01*
X24561800Y-9220200D02*
X24460200Y-9321800D01*
X24511000Y-9220200D02*
X24511000Y-9321800D01*
X24460200Y-9271000D02*
X24561800Y-9271000D01*
X24460200Y-9474200D02*
X24561800Y-9575800D01*
X24561800Y-9474200D02*
X24460200Y-9575800D01*
X24511000Y-9474200D02*
X24511000Y-9575800D01*
X24460200Y-9525000D02*
X24561800Y-9525000D01*
X24460200Y-9728200D02*
X24561800Y-9829800D01*
X24561800Y-9728200D02*
X24460200Y-9829800D01*
X24511000Y-9728200D02*
X24511000Y-9829800D01*
X24460200Y-9779000D02*
X24561800Y-9779000D01*
X24460200Y-9982200D02*
X24561800Y-10083800D01*
X24561800Y-9982200D02*
X24460200Y-10083800D01*
X24511000Y-9982200D02*
X24511000Y-10083800D01*
X24460200Y-10033000D02*
X24561800Y-10033000D01*
X24460200Y-10236200D02*
X24561800Y-10337800D01*
X24561800Y-10236200D02*
X24460200Y-10337800D01*
X24511000Y-10236200D02*
X24511000Y-10337800D01*
X24460200Y-10287000D02*
X24561800Y-10287000D01*
X24714200Y-7950200D02*
X24815800Y-8051800D01*
X24815800Y-7950200D02*
X24714200Y-8051800D01*
X24765000Y-7950200D02*
X24765000Y-8051800D01*
X24714200Y-8001000D02*
X24815800Y-8001000D01*
X24714200Y-8204200D02*
X24815800Y-8305800D01*
X24815800Y-8204200D02*
X24714200Y-8305800D01*
X24765000Y-8204200D02*
X24765000Y-8305800D01*
X24714200Y-8255000D02*
X24815800Y-8255000D01*
X24714200Y-8458200D02*
X24815800Y-8559800D01*
X24815800Y-8458200D02*
X24714200Y-8559800D01*
X24765000Y-8458200D02*
X24765000Y-8559800D01*
X24714200Y-8509000D02*
X24815800Y-8509000D01*
X24714200Y-8712200D02*
X24815800Y-8813800D01*
X24815800Y-8712200D02*
X24714200Y-8813800D01*
X24765000Y-8712200D02*
X24765000Y-8813800D01*
X24714200Y-8763000D02*
X24815800Y-8763000D01*
X24714200Y-8966200D02*
X24815800Y-9067800D01*
X24815800Y-8966200D02*
X24714200Y-9067800D01*
X24765000Y-8966200D02*
X24765000Y-9067800D01*
X24714200Y-9017000D02*
X24815800Y-9017000D01*
X24714200Y-9220200D02*
X24815800Y-9321800D01*
X24815800Y-9220200D02*
X24714200Y-9321800D01*
X24765000Y-9220200D02*
X24765000Y-9321800D01*
X24714200Y-9271000D02*
X24815800Y-9271000D01*
X24714200Y-9474200D02*
X24815800Y-9575800D01*
X24815800Y-9474200D02*
X24714200Y-9575800D01*
X24765000Y-9474200D02*
X24765000Y-9575800D01*
X24714200Y-9525000D02*
X24815800Y-9525000D01*
X24714200Y-9728200D02*
X24815800Y-9829800D01*
X24815800Y-9728200D02*
X24714200Y-9829800D01*
X24765000Y-9728200D02*
X24765000Y-9829800D01*
X24714200Y-9779000D02*
X24815800Y-9779000D01*
X24714200Y-9982200D02*
X24815800Y-10083800D01*
X24815800Y-9982200D02*
X24714200Y-10083800D01*
X24765000Y-9982200D02*
X24765000Y-10083800D01*
X24714200Y-10033000D02*
X24815800Y-10033000D01*
X24714200Y-10236200D02*
X24815800Y-10337800D01*
X24815800Y-10236200D02*
X24714200Y-10337800D01*
X24765000Y-10236200D02*
X24765000Y-10337800D01*
X24714200Y-10287000D02*
X24815800Y-10287000D01*
X24583000Y-5660000D02*
X24693000Y-5770000D01*
X24693000Y-5660000D02*
X24583000Y-5770000D01*
X24676891Y-5753891D02*
X24676891Y-5676109D01*
X24599109Y-5676109D01*
X24599109Y-5753891D01*
X24676891Y-5753891D01*
X24583000Y-6110000D02*
X24693000Y-6220000D01*
X24693000Y-6110000D02*
X24583000Y-6220000D01*
X24676891Y-6203891D02*
X24676891Y-6126109D01*
X24599109Y-6126109D01*
X24599109Y-6203891D01*
X24676891Y-6203891D01*
X25233000Y-5660000D02*
X25343000Y-5770000D01*
X25343000Y-5660000D02*
X25233000Y-5770000D01*
X25326891Y-5753891D02*
X25326891Y-5676109D01*
X25249109Y-5676109D01*
X25249109Y-5753891D01*
X25326891Y-5753891D01*
X25233000Y-6110000D02*
X25343000Y-6220000D01*
X25343000Y-6110000D02*
X25233000Y-6220000D01*
X25326891Y-6203891D02*
X25326891Y-6126109D01*
X25249109Y-6126109D01*
X25249109Y-6203891D01*
X25326891Y-6203891D01*
X24234000Y-14328000D02*
X24534000Y-14628000D01*
X24534000Y-14328000D02*
X24234000Y-14628000D01*
X24384000Y-14628000D02*
X24534000Y-14478000D01*
X24384000Y-14328000D01*
X24234000Y-14478000D01*
X24384000Y-14628000D01*
X25123000Y-4930000D02*
X25423000Y-5230000D01*
X25423000Y-4930000D02*
X25123000Y-5230000D01*
X25273000Y-5230000D02*
X25423000Y-5080000D01*
X25273000Y-4930000D01*
X25123000Y-5080000D01*
X25273000Y-5230000D01*
X8232000Y-14328000D02*
X8532000Y-14628000D01*
X8532000Y-14328000D02*
X8232000Y-14628000D01*
X8382000Y-14628000D02*
X8532000Y-14478000D01*
X8382000Y-14328000D01*
X8232000Y-14478000D01*
X8382000Y-14628000D01*
X8232000Y-4930000D02*
X8532000Y-5230000D01*
X8532000Y-4930000D02*
X8232000Y-5230000D01*
X8382000Y-5230000D02*
X8532000Y-5080000D01*
X8382000Y-4930000D01*
X8232000Y-5080000D01*
X8382000Y-5230000D01*
D12*
X6760928Y-15454214D02*
X6760928Y-15154214D01*
X6832357Y-15154214D01*
X6875214Y-15168500D01*
X6903786Y-15197071D01*
X6918071Y-15225643D01*
X6932357Y-15282786D01*
X6932357Y-15325643D01*
X6918071Y-15382786D01*
X6903786Y-15411357D01*
X6875214Y-15439929D01*
X6832357Y-15454214D01*
X6760928Y-15454214D01*
X7060928Y-15454214D02*
X7060928Y-15254214D01*
X7060928Y-15311357D02*
X7075214Y-15282786D01*
X7089500Y-15268500D01*
X7118071Y-15254214D01*
X7146643Y-15254214D01*
X7246643Y-15454214D02*
X7246643Y-15254214D01*
X7246643Y-15154214D02*
X7232357Y-15168500D01*
X7246643Y-15182786D01*
X7260928Y-15168500D01*
X7246643Y-15154214D01*
X7246643Y-15182786D01*
X7432357Y-15454214D02*
X7403786Y-15439929D01*
X7389500Y-15411357D01*
X7389500Y-15154214D01*
X7589500Y-15454214D02*
X7560928Y-15439929D01*
X7546643Y-15411357D01*
X7546643Y-15154214D01*
X7932357Y-15454214D02*
X7932357Y-15154214D01*
X8032357Y-15368500D01*
X8132357Y-15154214D01*
X8132357Y-15454214D01*
X8403786Y-15454214D02*
X8403786Y-15297071D01*
X8389500Y-15268500D01*
X8360928Y-15254214D01*
X8303786Y-15254214D01*
X8275214Y-15268500D01*
X8403786Y-15439929D02*
X8375214Y-15454214D01*
X8303786Y-15454214D01*
X8275214Y-15439929D01*
X8260928Y-15411357D01*
X8260928Y-15382786D01*
X8275214Y-15354214D01*
X8303786Y-15339929D01*
X8375214Y-15339929D01*
X8403786Y-15325643D01*
X8546643Y-15254214D02*
X8546643Y-15554214D01*
X8546643Y-15268500D02*
X8575214Y-15254214D01*
X8632357Y-15254214D01*
X8660928Y-15268500D01*
X8675214Y-15282786D01*
X8689500Y-15311357D01*
X8689500Y-15397071D01*
X8675214Y-15425643D01*
X8660928Y-15439929D01*
X8632357Y-15454214D01*
X8575214Y-15454214D01*
X8546643Y-15439929D01*
X8818071Y-15425643D02*
X8832357Y-15439929D01*
X8818071Y-15454214D01*
X8803786Y-15439929D01*
X8818071Y-15425643D01*
X8818071Y-15454214D01*
X8818071Y-15268500D02*
X8832357Y-15282786D01*
X8818071Y-15297071D01*
X8803786Y-15282786D01*
X8818071Y-15268500D01*
X8818071Y-15297071D01*
X6434500Y-15928500D02*
X6474500Y-15968500D01*
X6474500Y-15928500D02*
X6434500Y-15968500D01*
X6818071Y-15784214D02*
X6846643Y-15784214D01*
X6875214Y-15798500D01*
X6889500Y-15812786D01*
X6903786Y-15841357D01*
X6918071Y-15898500D01*
X6918071Y-15969929D01*
X6903786Y-16027071D01*
X6889500Y-16055643D01*
X6875214Y-16069929D01*
X6846643Y-16084214D01*
X6818071Y-16084214D01*
X6789500Y-16069929D01*
X6775214Y-16055643D01*
X6760928Y-16027071D01*
X6746643Y-15969929D01*
X6746643Y-15898500D01*
X6760928Y-15841357D01*
X6775214Y-15812786D01*
X6789500Y-15798500D01*
X6818071Y-15784214D01*
X7046643Y-16055643D02*
X7060928Y-16069929D01*
X7046643Y-16084214D01*
X7032357Y-16069929D01*
X7046643Y-16055643D01*
X7046643Y-16084214D01*
X7318071Y-15884214D02*
X7318071Y-16084214D01*
X7246643Y-15769929D02*
X7175214Y-15984214D01*
X7360928Y-15984214D01*
X7532357Y-15784214D02*
X7560928Y-15784214D01*
X7589500Y-15798500D01*
X7603786Y-15812786D01*
X7618071Y-15841357D01*
X7632357Y-15898500D01*
X7632357Y-15969929D01*
X7618071Y-16027071D01*
X7603786Y-16055643D01*
X7589500Y-16069929D01*
X7560928Y-16084214D01*
X7532357Y-16084214D01*
X7503786Y-16069929D01*
X7489500Y-16055643D01*
X7475214Y-16027071D01*
X7460928Y-15969929D01*
X7460928Y-15898500D01*
X7475214Y-15841357D01*
X7489500Y-15812786D01*
X7503786Y-15798500D01*
X7532357Y-15784214D01*
X7760928Y-16084214D02*
X7760928Y-15884214D01*
X7760928Y-15912786D02*
X7775214Y-15898500D01*
X7803786Y-15884214D01*
X7846643Y-15884214D01*
X7875214Y-15898500D01*
X7889500Y-15927071D01*
X7889500Y-16084214D01*
X7889500Y-15927071D02*
X7903786Y-15898500D01*
X7932357Y-15884214D01*
X7975214Y-15884214D01*
X8003786Y-15898500D01*
X8018071Y-15927071D01*
X8018071Y-16084214D01*
X8160928Y-16084214D02*
X8160928Y-15884214D01*
X8160928Y-15912786D02*
X8175214Y-15898500D01*
X8203786Y-15884214D01*
X8246643Y-15884214D01*
X8275214Y-15898500D01*
X8289500Y-15927071D01*
X8289500Y-16084214D01*
X8289500Y-15927071D02*
X8303786Y-15898500D01*
X8332357Y-15884214D01*
X8375214Y-15884214D01*
X8403786Y-15898500D01*
X8418071Y-15927071D01*
X8418071Y-16084214D01*
X9003786Y-15769929D02*
X8746643Y-16155643D01*
X9389500Y-15784214D02*
X9418071Y-15784214D01*
X9446643Y-15798500D01*
X9460928Y-15812786D01*
X9475214Y-15841357D01*
X9489500Y-15898500D01*
X9489500Y-15969929D01*
X9475214Y-16027071D01*
X9460928Y-16055643D01*
X9446643Y-16069929D01*
X9418071Y-16084214D01*
X9389500Y-16084214D01*
X9360928Y-16069929D01*
X9346643Y-16055643D01*
X9332357Y-16027071D01*
X9318071Y-15969929D01*
X9318071Y-15898500D01*
X9332357Y-15841357D01*
X9346643Y-15812786D01*
X9360928Y-15798500D01*
X9389500Y-15784214D01*
X9618071Y-16055643D02*
X9632357Y-16069929D01*
X9618071Y-16084214D01*
X9603786Y-16069929D01*
X9618071Y-16055643D01*
X9618071Y-16084214D01*
X9818071Y-15784214D02*
X9846643Y-15784214D01*
X9875214Y-15798500D01*
X9889500Y-15812786D01*
X9903786Y-15841357D01*
X9918071Y-15898500D01*
X9918071Y-15969929D01*
X9903786Y-16027071D01*
X9889500Y-16055643D01*
X9875214Y-16069929D01*
X9846643Y-16084214D01*
X9818071Y-16084214D01*
X9789500Y-16069929D01*
X9775214Y-16055643D01*
X9760928Y-16027071D01*
X9746643Y-15969929D01*
X9746643Y-15898500D01*
X9760928Y-15841357D01*
X9775214Y-15812786D01*
X9789500Y-15798500D01*
X9818071Y-15784214D01*
X10203786Y-16084214D02*
X10032357Y-16084214D01*
X10118071Y-16084214D02*
X10118071Y-15784214D01*
X10089500Y-15827071D01*
X10060928Y-15855643D01*
X10032357Y-15869929D01*
X10460928Y-15784214D02*
X10403786Y-15784214D01*
X10375214Y-15798500D01*
X10360928Y-15812786D01*
X10332357Y-15855643D01*
X10318071Y-15912786D01*
X10318071Y-16027071D01*
X10332357Y-16055643D01*
X10346643Y-16069929D01*
X10375214Y-16084214D01*
X10432357Y-16084214D01*
X10460928Y-16069929D01*
X10475214Y-16055643D01*
X10489500Y-16027071D01*
X10489500Y-15955643D01*
X10475214Y-15927071D01*
X10460928Y-15912786D01*
X10432357Y-15898500D01*
X10375214Y-15898500D01*
X10346643Y-15912786D01*
X10332357Y-15927071D01*
X10318071Y-15955643D01*
X10603786Y-15784214D02*
X10603786Y-15841357D01*
X10718071Y-15784214D02*
X10718071Y-15841357D01*
X11160928Y-16198500D02*
X11146643Y-16184214D01*
X11118071Y-16141357D01*
X11103786Y-16112786D01*
X11089500Y-16069929D01*
X11075214Y-15998500D01*
X11075214Y-15941357D01*
X11089500Y-15869929D01*
X11103786Y-15827071D01*
X11118071Y-15798500D01*
X11146643Y-15755643D01*
X11160928Y-15741357D01*
X11432357Y-16084214D02*
X11260928Y-16084214D01*
X11346643Y-16084214D02*
X11346643Y-15784214D01*
X11318071Y-15827071D01*
X11289500Y-15855643D01*
X11260928Y-15869929D01*
X11618071Y-15784214D02*
X11646643Y-15784214D01*
X11675214Y-15798500D01*
X11689500Y-15812786D01*
X11703786Y-15841357D01*
X11718071Y-15898500D01*
X11718071Y-15969929D01*
X11703786Y-16027071D01*
X11689500Y-16055643D01*
X11675214Y-16069929D01*
X11646643Y-16084214D01*
X11618071Y-16084214D01*
X11589500Y-16069929D01*
X11575214Y-16055643D01*
X11560928Y-16027071D01*
X11546643Y-15969929D01*
X11546643Y-15898500D01*
X11560928Y-15841357D01*
X11575214Y-15812786D01*
X11589500Y-15798500D01*
X11618071Y-15784214D01*
X11975214Y-15884214D02*
X11975214Y-16084214D01*
X11903786Y-15769929D02*
X11832357Y-15984214D01*
X12018071Y-15984214D01*
X12360928Y-16084214D02*
X12360928Y-15784214D01*
X12489500Y-16084214D02*
X12489500Y-15927071D01*
X12475214Y-15898500D01*
X12446643Y-15884214D01*
X12403786Y-15884214D01*
X12375214Y-15898500D01*
X12360928Y-15912786D01*
X12675214Y-16084214D02*
X12646643Y-16069929D01*
X12632357Y-16055643D01*
X12618071Y-16027071D01*
X12618071Y-15941357D01*
X12632357Y-15912786D01*
X12646643Y-15898500D01*
X12675214Y-15884214D01*
X12718071Y-15884214D01*
X12746643Y-15898500D01*
X12760928Y-15912786D01*
X12775214Y-15941357D01*
X12775214Y-16027071D01*
X12760928Y-16055643D01*
X12746643Y-16069929D01*
X12718071Y-16084214D01*
X12675214Y-16084214D01*
X12946643Y-16084214D02*
X12918071Y-16069929D01*
X12903786Y-16041357D01*
X12903786Y-15784214D01*
X13175214Y-16069929D02*
X13146643Y-16084214D01*
X13089500Y-16084214D01*
X13060928Y-16069929D01*
X13046643Y-16041357D01*
X13046643Y-15927071D01*
X13060928Y-15898500D01*
X13089500Y-15884214D01*
X13146643Y-15884214D01*
X13175214Y-15898500D01*
X13189500Y-15927071D01*
X13189500Y-15955643D01*
X13046643Y-15984214D01*
X13303786Y-16069929D02*
X13332357Y-16084214D01*
X13389500Y-16084214D01*
X13418071Y-16069929D01*
X13432357Y-16041357D01*
X13432357Y-16027071D01*
X13418071Y-15998500D01*
X13389500Y-15984214D01*
X13346643Y-15984214D01*
X13318071Y-15969929D01*
X13303786Y-15941357D01*
X13303786Y-15927071D01*
X13318071Y-15898500D01*
X13346643Y-15884214D01*
X13389500Y-15884214D01*
X13418071Y-15898500D01*
X13532357Y-16198500D02*
X13546643Y-16184214D01*
X13575214Y-16141357D01*
X13589500Y-16112786D01*
X13603786Y-16069929D01*
X13618071Y-15998500D01*
X13618071Y-15941357D01*
X13603786Y-15869929D01*
X13589500Y-15827071D01*
X13575214Y-15798500D01*
X13546643Y-15755643D01*
X13532357Y-15741357D01*
X6474500Y-16344500D02*
G75*
G03X6474500Y-16344500I-25000J0D01*
G01*
X6818071Y-16180214D02*
X6846643Y-16180214D01*
X6875214Y-16194500D01*
X6889500Y-16208786D01*
X6903786Y-16237357D01*
X6918071Y-16294500D01*
X6918071Y-16365929D01*
X6903786Y-16423071D01*
X6889500Y-16451643D01*
X6875214Y-16465929D01*
X6846643Y-16480214D01*
X6818071Y-16480214D01*
X6789500Y-16465929D01*
X6775214Y-16451643D01*
X6760928Y-16423071D01*
X6746643Y-16365929D01*
X6746643Y-16294500D01*
X6760928Y-16237357D01*
X6775214Y-16208786D01*
X6789500Y-16194500D01*
X6818071Y-16180214D01*
X7046643Y-16451643D02*
X7060928Y-16465929D01*
X7046643Y-16480214D01*
X7032357Y-16465929D01*
X7046643Y-16451643D01*
X7046643Y-16480214D01*
X7332357Y-16180214D02*
X7189500Y-16180214D01*
X7175214Y-16323071D01*
X7189500Y-16308786D01*
X7218071Y-16294500D01*
X7289500Y-16294500D01*
X7318071Y-16308786D01*
X7332357Y-16323071D01*
X7346643Y-16351643D01*
X7346643Y-16423071D01*
X7332357Y-16451643D01*
X7318071Y-16465929D01*
X7289500Y-16480214D01*
X7218071Y-16480214D01*
X7189500Y-16465929D01*
X7175214Y-16451643D01*
X7532357Y-16180214D02*
X7560928Y-16180214D01*
X7589500Y-16194500D01*
X7603786Y-16208786D01*
X7618071Y-16237357D01*
X7632357Y-16294500D01*
X7632357Y-16365929D01*
X7618071Y-16423071D01*
X7603786Y-16451643D01*
X7589500Y-16465929D01*
X7560928Y-16480214D01*
X7532357Y-16480214D01*
X7503786Y-16465929D01*
X7489500Y-16451643D01*
X7475214Y-16423071D01*
X7460928Y-16365929D01*
X7460928Y-16294500D01*
X7475214Y-16237357D01*
X7489500Y-16208786D01*
X7503786Y-16194500D01*
X7532357Y-16180214D01*
X7760928Y-16480214D02*
X7760928Y-16280214D01*
X7760928Y-16308786D02*
X7775214Y-16294500D01*
X7803786Y-16280214D01*
X7846643Y-16280214D01*
X7875214Y-16294500D01*
X7889500Y-16323071D01*
X7889500Y-16480214D01*
X7889500Y-16323071D02*
X7903786Y-16294500D01*
X7932357Y-16280214D01*
X7975214Y-16280214D01*
X8003786Y-16294500D01*
X8018071Y-16323071D01*
X8018071Y-16480214D01*
X8160928Y-16480214D02*
X8160928Y-16280214D01*
X8160928Y-16308786D02*
X8175214Y-16294500D01*
X8203786Y-16280214D01*
X8246643Y-16280214D01*
X8275214Y-16294500D01*
X8289500Y-16323071D01*
X8289500Y-16480214D01*
X8289500Y-16323071D02*
X8303786Y-16294500D01*
X8332357Y-16280214D01*
X8375214Y-16280214D01*
X8403786Y-16294500D01*
X8418071Y-16323071D01*
X8418071Y-16480214D01*
X9003786Y-16165929D02*
X8746643Y-16551643D01*
X9389500Y-16180214D02*
X9418071Y-16180214D01*
X9446643Y-16194500D01*
X9460928Y-16208786D01*
X9475214Y-16237357D01*
X9489500Y-16294500D01*
X9489500Y-16365929D01*
X9475214Y-16423071D01*
X9460928Y-16451643D01*
X9446643Y-16465929D01*
X9418071Y-16480214D01*
X9389500Y-16480214D01*
X9360928Y-16465929D01*
X9346643Y-16451643D01*
X9332357Y-16423071D01*
X9318071Y-16365929D01*
X9318071Y-16294500D01*
X9332357Y-16237357D01*
X9346643Y-16208786D01*
X9360928Y-16194500D01*
X9389500Y-16180214D01*
X9618071Y-16451643D02*
X9632357Y-16465929D01*
X9618071Y-16480214D01*
X9603786Y-16465929D01*
X9618071Y-16451643D01*
X9618071Y-16480214D01*
X9818071Y-16180214D02*
X9846643Y-16180214D01*
X9875214Y-16194500D01*
X9889500Y-16208786D01*
X9903786Y-16237357D01*
X9918071Y-16294500D01*
X9918071Y-16365929D01*
X9903786Y-16423071D01*
X9889500Y-16451643D01*
X9875214Y-16465929D01*
X9846643Y-16480214D01*
X9818071Y-16480214D01*
X9789500Y-16465929D01*
X9775214Y-16451643D01*
X9760928Y-16423071D01*
X9746643Y-16365929D01*
X9746643Y-16294500D01*
X9760928Y-16237357D01*
X9775214Y-16208786D01*
X9789500Y-16194500D01*
X9818071Y-16180214D01*
X10032357Y-16208786D02*
X10046643Y-16194500D01*
X10075214Y-16180214D01*
X10146643Y-16180214D01*
X10175214Y-16194500D01*
X10189500Y-16208786D01*
X10203786Y-16237357D01*
X10203786Y-16265929D01*
X10189500Y-16308786D01*
X10018071Y-16480214D01*
X10203786Y-16480214D01*
X10389500Y-16180214D02*
X10418071Y-16180214D01*
X10446643Y-16194500D01*
X10460928Y-16208786D01*
X10475214Y-16237357D01*
X10489500Y-16294500D01*
X10489500Y-16365929D01*
X10475214Y-16423071D01*
X10460928Y-16451643D01*
X10446643Y-16465929D01*
X10418071Y-16480214D01*
X10389500Y-16480214D01*
X10360928Y-16465929D01*
X10346643Y-16451643D01*
X10332357Y-16423071D01*
X10318071Y-16365929D01*
X10318071Y-16294500D01*
X10332357Y-16237357D01*
X10346643Y-16208786D01*
X10360928Y-16194500D01*
X10389500Y-16180214D01*
X10603786Y-16180214D02*
X10603786Y-16237357D01*
X10718071Y-16180214D02*
X10718071Y-16237357D01*
X11160928Y-16594500D02*
X11146643Y-16580214D01*
X11118071Y-16537357D01*
X11103786Y-16508786D01*
X11089500Y-16465929D01*
X11075214Y-16394500D01*
X11075214Y-16337357D01*
X11089500Y-16265929D01*
X11103786Y-16223071D01*
X11118071Y-16194500D01*
X11146643Y-16151643D01*
X11160928Y-16137357D01*
X11246643Y-16180214D02*
X11432357Y-16180214D01*
X11332357Y-16294500D01*
X11375214Y-16294500D01*
X11403786Y-16308786D01*
X11418071Y-16323071D01*
X11432357Y-16351643D01*
X11432357Y-16423071D01*
X11418071Y-16451643D01*
X11403786Y-16465929D01*
X11375214Y-16480214D01*
X11289500Y-16480214D01*
X11260928Y-16465929D01*
X11246643Y-16451643D01*
X11546643Y-16208786D02*
X11560928Y-16194500D01*
X11589500Y-16180214D01*
X11660928Y-16180214D01*
X11689500Y-16194500D01*
X11703786Y-16208786D01*
X11718071Y-16237357D01*
X11718071Y-16265929D01*
X11703786Y-16308786D01*
X11532357Y-16480214D01*
X11718071Y-16480214D01*
X12075214Y-16480214D02*
X12075214Y-16180214D01*
X12203786Y-16480214D02*
X12203786Y-16323071D01*
X12189500Y-16294500D01*
X12160928Y-16280214D01*
X12118071Y-16280214D01*
X12089500Y-16294500D01*
X12075214Y-16308786D01*
X12389500Y-16480214D02*
X12360928Y-16465929D01*
X12346643Y-16451643D01*
X12332357Y-16423071D01*
X12332357Y-16337357D01*
X12346643Y-16308786D01*
X12360928Y-16294500D01*
X12389500Y-16280214D01*
X12432357Y-16280214D01*
X12460928Y-16294500D01*
X12475214Y-16308786D01*
X12489500Y-16337357D01*
X12489500Y-16423071D01*
X12475214Y-16451643D01*
X12460928Y-16465929D01*
X12432357Y-16480214D01*
X12389500Y-16480214D01*
X12660928Y-16480214D02*
X12632357Y-16465929D01*
X12618071Y-16437357D01*
X12618071Y-16180214D01*
X12889500Y-16465929D02*
X12860928Y-16480214D01*
X12803786Y-16480214D01*
X12775214Y-16465929D01*
X12760928Y-16437357D01*
X12760928Y-16323071D01*
X12775214Y-16294500D01*
X12803786Y-16280214D01*
X12860928Y-16280214D01*
X12889500Y-16294500D01*
X12903786Y-16323071D01*
X12903786Y-16351643D01*
X12760928Y-16380214D01*
X13018071Y-16465929D02*
X13046643Y-16480214D01*
X13103786Y-16480214D01*
X13132357Y-16465929D01*
X13146643Y-16437357D01*
X13146643Y-16423071D01*
X13132357Y-16394500D01*
X13103786Y-16380214D01*
X13060928Y-16380214D01*
X13032357Y-16365929D01*
X13018071Y-16337357D01*
X13018071Y-16323071D01*
X13032357Y-16294500D01*
X13060928Y-16280214D01*
X13103786Y-16280214D01*
X13132357Y-16294500D01*
X13246643Y-16594500D02*
X13260928Y-16580214D01*
X13289500Y-16537357D01*
X13303786Y-16508786D01*
X13318071Y-16465929D01*
X13332357Y-16394500D01*
X13332357Y-16337357D01*
X13318071Y-16265929D01*
X13303786Y-16223071D01*
X13289500Y-16194500D01*
X13260928Y-16151643D01*
X13246643Y-16137357D01*
X6444500Y-16710500D02*
X6444500Y-16770500D01*
X6414500Y-16740500D02*
X6474500Y-16740500D01*
X6818071Y-16576214D02*
X6846643Y-16576214D01*
X6875214Y-16590500D01*
X6889500Y-16604786D01*
X6903786Y-16633357D01*
X6918071Y-16690500D01*
X6918071Y-16761929D01*
X6903786Y-16819072D01*
X6889500Y-16847643D01*
X6875214Y-16861929D01*
X6846643Y-16876214D01*
X6818071Y-16876214D01*
X6789500Y-16861929D01*
X6775214Y-16847643D01*
X6760928Y-16819072D01*
X6746643Y-16761929D01*
X6746643Y-16690500D01*
X6760928Y-16633357D01*
X6775214Y-16604786D01*
X6789500Y-16590500D01*
X6818071Y-16576214D01*
X7046643Y-16847643D02*
X7060928Y-16861929D01*
X7046643Y-16876214D01*
X7032357Y-16861929D01*
X7046643Y-16847643D01*
X7046643Y-16876214D01*
X7318071Y-16576214D02*
X7260928Y-16576214D01*
X7232357Y-16590500D01*
X7218071Y-16604786D01*
X7189500Y-16647643D01*
X7175214Y-16704786D01*
X7175214Y-16819072D01*
X7189500Y-16847643D01*
X7203786Y-16861929D01*
X7232357Y-16876214D01*
X7289500Y-16876214D01*
X7318071Y-16861929D01*
X7332357Y-16847643D01*
X7346643Y-16819072D01*
X7346643Y-16747643D01*
X7332357Y-16719071D01*
X7318071Y-16704786D01*
X7289500Y-16690500D01*
X7232357Y-16690500D01*
X7203786Y-16704786D01*
X7189500Y-16719071D01*
X7175214Y-16747643D01*
X7532357Y-16576214D02*
X7560928Y-16576214D01*
X7589500Y-16590500D01*
X7603786Y-16604786D01*
X7618071Y-16633357D01*
X7632357Y-16690500D01*
X7632357Y-16761929D01*
X7618071Y-16819072D01*
X7603786Y-16847643D01*
X7589500Y-16861929D01*
X7560928Y-16876214D01*
X7532357Y-16876214D01*
X7503786Y-16861929D01*
X7489500Y-16847643D01*
X7475214Y-16819072D01*
X7460928Y-16761929D01*
X7460928Y-16690500D01*
X7475214Y-16633357D01*
X7489500Y-16604786D01*
X7503786Y-16590500D01*
X7532357Y-16576214D01*
X7760928Y-16876214D02*
X7760928Y-16676214D01*
X7760928Y-16704786D02*
X7775214Y-16690500D01*
X7803786Y-16676214D01*
X7846643Y-16676214D01*
X7875214Y-16690500D01*
X7889500Y-16719071D01*
X7889500Y-16876214D01*
X7889500Y-16719071D02*
X7903786Y-16690500D01*
X7932357Y-16676214D01*
X7975214Y-16676214D01*
X8003786Y-16690500D01*
X8018071Y-16719071D01*
X8018071Y-16876214D01*
X8160928Y-16876214D02*
X8160928Y-16676214D01*
X8160928Y-16704786D02*
X8175214Y-16690500D01*
X8203786Y-16676214D01*
X8246643Y-16676214D01*
X8275214Y-16690500D01*
X8289500Y-16719071D01*
X8289500Y-16876214D01*
X8289500Y-16719071D02*
X8303786Y-16690500D01*
X8332357Y-16676214D01*
X8375214Y-16676214D01*
X8403786Y-16690500D01*
X8418071Y-16719071D01*
X8418071Y-16876214D01*
X9003786Y-16561929D02*
X8746643Y-16947643D01*
X9389500Y-16576214D02*
X9418071Y-16576214D01*
X9446643Y-16590500D01*
X9460928Y-16604786D01*
X9475214Y-16633357D01*
X9489500Y-16690500D01*
X9489500Y-16761929D01*
X9475214Y-16819072D01*
X9460928Y-16847643D01*
X9446643Y-16861929D01*
X9418071Y-16876214D01*
X9389500Y-16876214D01*
X9360928Y-16861929D01*
X9346643Y-16847643D01*
X9332357Y-16819072D01*
X9318071Y-16761929D01*
X9318071Y-16690500D01*
X9332357Y-16633357D01*
X9346643Y-16604786D01*
X9360928Y-16590500D01*
X9389500Y-16576214D01*
X9618071Y-16847643D02*
X9632357Y-16861929D01*
X9618071Y-16876214D01*
X9603786Y-16861929D01*
X9618071Y-16847643D01*
X9618071Y-16876214D01*
X9818071Y-16576214D02*
X9846643Y-16576214D01*
X9875214Y-16590500D01*
X9889500Y-16604786D01*
X9903786Y-16633357D01*
X9918071Y-16690500D01*
X9918071Y-16761929D01*
X9903786Y-16819072D01*
X9889500Y-16847643D01*
X9875214Y-16861929D01*
X9846643Y-16876214D01*
X9818071Y-16876214D01*
X9789500Y-16861929D01*
X9775214Y-16847643D01*
X9760928Y-16819072D01*
X9746643Y-16761929D01*
X9746643Y-16690500D01*
X9760928Y-16633357D01*
X9775214Y-16604786D01*
X9789500Y-16590500D01*
X9818071Y-16576214D01*
X10032357Y-16604786D02*
X10046643Y-16590500D01*
X10075214Y-16576214D01*
X10146643Y-16576214D01*
X10175214Y-16590500D01*
X10189500Y-16604786D01*
X10203786Y-16633357D01*
X10203786Y-16661929D01*
X10189500Y-16704786D01*
X10018071Y-16876214D01*
X10203786Y-16876214D01*
X10460928Y-16676214D02*
X10460928Y-16876214D01*
X10389500Y-16561929D02*
X10318071Y-16776214D01*
X10503786Y-16776214D01*
X10603786Y-16576214D02*
X10603786Y-16633357D01*
X10718071Y-16576214D02*
X10718071Y-16633357D01*
X11160928Y-16990500D02*
X11146643Y-16976214D01*
X11118071Y-16933357D01*
X11103786Y-16904786D01*
X11089500Y-16861929D01*
X11075214Y-16790500D01*
X11075214Y-16733357D01*
X11089500Y-16661929D01*
X11103786Y-16619071D01*
X11118071Y-16590500D01*
X11146643Y-16547643D01*
X11160928Y-16533357D01*
X11260928Y-16604786D02*
X11275214Y-16590500D01*
X11303786Y-16576214D01*
X11375214Y-16576214D01*
X11403786Y-16590500D01*
X11418071Y-16604786D01*
X11432357Y-16633357D01*
X11432357Y-16661929D01*
X11418071Y-16704786D01*
X11246643Y-16876214D01*
X11432357Y-16876214D01*
X11789500Y-16876214D02*
X11789500Y-16576214D01*
X11918071Y-16876214D02*
X11918071Y-16719071D01*
X11903786Y-16690500D01*
X11875214Y-16676214D01*
X11832357Y-16676214D01*
X11803786Y-16690500D01*
X11789500Y-16704786D01*
X12103786Y-16876214D02*
X12075214Y-16861929D01*
X12060928Y-16847643D01*
X12046643Y-16819072D01*
X12046643Y-16733357D01*
X12060928Y-16704786D01*
X12075214Y-16690500D01*
X12103786Y-16676214D01*
X12146643Y-16676214D01*
X12175214Y-16690500D01*
X12189500Y-16704786D01*
X12203786Y-16733357D01*
X12203786Y-16819072D01*
X12189500Y-16847643D01*
X12175214Y-16861929D01*
X12146643Y-16876214D01*
X12103786Y-16876214D01*
X12375214Y-16876214D02*
X12346643Y-16861929D01*
X12332357Y-16833357D01*
X12332357Y-16576214D01*
X12603786Y-16861929D02*
X12575214Y-16876214D01*
X12518071Y-16876214D01*
X12489500Y-16861929D01*
X12475214Y-16833357D01*
X12475214Y-16719071D01*
X12489500Y-16690500D01*
X12518071Y-16676214D01*
X12575214Y-16676214D01*
X12603786Y-16690500D01*
X12618071Y-16719071D01*
X12618071Y-16747643D01*
X12475214Y-16776214D01*
X12732357Y-16861929D02*
X12760928Y-16876214D01*
X12818071Y-16876214D01*
X12846643Y-16861929D01*
X12860928Y-16833357D01*
X12860928Y-16819072D01*
X12846643Y-16790500D01*
X12818071Y-16776214D01*
X12775214Y-16776214D01*
X12746643Y-16761929D01*
X12732357Y-16733357D01*
X12732357Y-16719071D01*
X12746643Y-16690500D01*
X12775214Y-16676214D01*
X12818071Y-16676214D01*
X12846643Y-16690500D01*
X12960928Y-16990500D02*
X12975214Y-16976214D01*
X13003786Y-16933357D01*
X13018071Y-16904786D01*
X13032357Y-16861929D01*
X13046643Y-16790500D01*
X13046643Y-16733357D01*
X13032357Y-16661929D01*
X13018071Y-16619071D01*
X13003786Y-16590500D01*
X12975214Y-16547643D01*
X12960928Y-16533357D01*
X6463517Y-17163017D02*
X6463517Y-17109983D01*
X6410483Y-17109983D01*
X6410483Y-17163017D01*
X6463517Y-17163017D01*
X6818071Y-16972214D02*
X6846643Y-16972214D01*
X6875214Y-16986500D01*
X6889500Y-17000786D01*
X6903786Y-17029357D01*
X6918071Y-17086500D01*
X6918071Y-17157929D01*
X6903786Y-17215072D01*
X6889500Y-17243643D01*
X6875214Y-17257929D01*
X6846643Y-17272214D01*
X6818071Y-17272214D01*
X6789500Y-17257929D01*
X6775214Y-17243643D01*
X6760928Y-17215072D01*
X6746643Y-17157929D01*
X6746643Y-17086500D01*
X6760928Y-17029357D01*
X6775214Y-17000786D01*
X6789500Y-16986500D01*
X6818071Y-16972214D01*
X7046643Y-17243643D02*
X7060928Y-17257929D01*
X7046643Y-17272214D01*
X7032357Y-17257929D01*
X7046643Y-17243643D01*
X7046643Y-17272214D01*
X7160928Y-16972214D02*
X7360928Y-16972214D01*
X7232357Y-17272214D01*
X7618071Y-16972214D02*
X7475214Y-16972214D01*
X7460928Y-17115072D01*
X7475214Y-17100786D01*
X7503786Y-17086500D01*
X7575214Y-17086500D01*
X7603786Y-17100786D01*
X7618071Y-17115072D01*
X7632357Y-17143643D01*
X7632357Y-17215072D01*
X7618071Y-17243643D01*
X7603786Y-17257929D01*
X7575214Y-17272214D01*
X7503786Y-17272214D01*
X7475214Y-17257929D01*
X7460928Y-17243643D01*
X7760928Y-17272214D02*
X7760928Y-17072214D01*
X7760928Y-17100786D02*
X7775214Y-17086500D01*
X7803786Y-17072214D01*
X7846643Y-17072214D01*
X7875214Y-17086500D01*
X7889500Y-17115072D01*
X7889500Y-17272214D01*
X7889500Y-17115072D02*
X7903786Y-17086500D01*
X7932357Y-17072214D01*
X7975214Y-17072214D01*
X8003786Y-17086500D01*
X8018071Y-17115072D01*
X8018071Y-17272214D01*
X8160928Y-17272214D02*
X8160928Y-17072214D01*
X8160928Y-17100786D02*
X8175214Y-17086500D01*
X8203786Y-17072214D01*
X8246643Y-17072214D01*
X8275214Y-17086500D01*
X8289500Y-17115072D01*
X8289500Y-17272214D01*
X8289500Y-17115072D02*
X8303786Y-17086500D01*
X8332357Y-17072214D01*
X8375214Y-17072214D01*
X8403786Y-17086500D01*
X8418071Y-17115072D01*
X8418071Y-17272214D01*
X9003786Y-16957929D02*
X8746643Y-17343643D01*
X9389500Y-16972214D02*
X9418071Y-16972214D01*
X9446643Y-16986500D01*
X9460928Y-17000786D01*
X9475214Y-17029357D01*
X9489500Y-17086500D01*
X9489500Y-17157929D01*
X9475214Y-17215072D01*
X9460928Y-17243643D01*
X9446643Y-17257929D01*
X9418071Y-17272214D01*
X9389500Y-17272214D01*
X9360928Y-17257929D01*
X9346643Y-17243643D01*
X9332357Y-17215072D01*
X9318071Y-17157929D01*
X9318071Y-17086500D01*
X9332357Y-17029357D01*
X9346643Y-17000786D01*
X9360928Y-16986500D01*
X9389500Y-16972214D01*
X9618071Y-17243643D02*
X9632357Y-17257929D01*
X9618071Y-17272214D01*
X9603786Y-17257929D01*
X9618071Y-17243643D01*
X9618071Y-17272214D01*
X9818071Y-16972214D02*
X9846643Y-16972214D01*
X9875214Y-16986500D01*
X9889500Y-17000786D01*
X9903786Y-17029357D01*
X9918071Y-17086500D01*
X9918071Y-17157929D01*
X9903786Y-17215072D01*
X9889500Y-17243643D01*
X9875214Y-17257929D01*
X9846643Y-17272214D01*
X9818071Y-17272214D01*
X9789500Y-17257929D01*
X9775214Y-17243643D01*
X9760928Y-17215072D01*
X9746643Y-17157929D01*
X9746643Y-17086500D01*
X9760928Y-17029357D01*
X9775214Y-17000786D01*
X9789500Y-16986500D01*
X9818071Y-16972214D01*
X10018071Y-16972214D02*
X10203786Y-16972214D01*
X10103786Y-17086500D01*
X10146643Y-17086500D01*
X10175214Y-17100786D01*
X10189500Y-17115072D01*
X10203786Y-17143643D01*
X10203786Y-17215072D01*
X10189500Y-17243643D01*
X10175214Y-17257929D01*
X10146643Y-17272214D01*
X10060928Y-17272214D01*
X10032357Y-17257929D01*
X10018071Y-17243643D01*
X10389500Y-16972214D02*
X10418071Y-16972214D01*
X10446643Y-16986500D01*
X10460928Y-17000786D01*
X10475214Y-17029357D01*
X10489500Y-17086500D01*
X10489500Y-17157929D01*
X10475214Y-17215072D01*
X10460928Y-17243643D01*
X10446643Y-17257929D01*
X10418071Y-17272214D01*
X10389500Y-17272214D01*
X10360928Y-17257929D01*
X10346643Y-17243643D01*
X10332357Y-17215072D01*
X10318071Y-17157929D01*
X10318071Y-17086500D01*
X10332357Y-17029357D01*
X10346643Y-17000786D01*
X10360928Y-16986500D01*
X10389500Y-16972214D01*
X10603786Y-16972214D02*
X10603786Y-17029357D01*
X10718071Y-16972214D02*
X10718071Y-17029357D01*
X11160928Y-17386500D02*
X11146643Y-17372214D01*
X11118071Y-17329357D01*
X11103786Y-17300786D01*
X11089500Y-17257929D01*
X11075214Y-17186500D01*
X11075214Y-17129357D01*
X11089500Y-17057929D01*
X11103786Y-17015072D01*
X11118071Y-16986500D01*
X11146643Y-16943643D01*
X11160928Y-16929357D01*
X11246643Y-16972214D02*
X11432357Y-16972214D01*
X11332357Y-17086500D01*
X11375214Y-17086500D01*
X11403786Y-17100786D01*
X11418071Y-17115072D01*
X11432357Y-17143643D01*
X11432357Y-17215072D01*
X11418071Y-17243643D01*
X11403786Y-17257929D01*
X11375214Y-17272214D01*
X11289500Y-17272214D01*
X11260928Y-17257929D01*
X11246643Y-17243643D01*
X11789500Y-17272214D02*
X11789500Y-16972214D01*
X11918071Y-17272214D02*
X11918071Y-17115072D01*
X11903786Y-17086500D01*
X11875214Y-17072214D01*
X11832357Y-17072214D01*
X11803786Y-17086500D01*
X11789500Y-17100786D01*
X12103786Y-17272214D02*
X12075214Y-17257929D01*
X12060928Y-17243643D01*
X12046643Y-17215072D01*
X12046643Y-17129357D01*
X12060928Y-17100786D01*
X12075214Y-17086500D01*
X12103786Y-17072214D01*
X12146643Y-17072214D01*
X12175214Y-17086500D01*
X12189500Y-17100786D01*
X12203786Y-17129357D01*
X12203786Y-17215072D01*
X12189500Y-17243643D01*
X12175214Y-17257929D01*
X12146643Y-17272214D01*
X12103786Y-17272214D01*
X12375214Y-17272214D02*
X12346643Y-17257929D01*
X12332357Y-17229357D01*
X12332357Y-16972214D01*
X12603786Y-17257929D02*
X12575214Y-17272214D01*
X12518071Y-17272214D01*
X12489500Y-17257929D01*
X12475214Y-17229357D01*
X12475214Y-17115072D01*
X12489500Y-17086500D01*
X12518071Y-17072214D01*
X12575214Y-17072214D01*
X12603786Y-17086500D01*
X12618071Y-17115072D01*
X12618071Y-17143643D01*
X12475214Y-17172214D01*
X12732357Y-17257929D02*
X12760928Y-17272214D01*
X12818071Y-17272214D01*
X12846643Y-17257929D01*
X12860928Y-17229357D01*
X12860928Y-17215072D01*
X12846643Y-17186500D01*
X12818071Y-17172214D01*
X12775214Y-17172214D01*
X12746643Y-17157929D01*
X12732357Y-17129357D01*
X12732357Y-17115072D01*
X12746643Y-17086500D01*
X12775214Y-17072214D01*
X12818071Y-17072214D01*
X12846643Y-17086500D01*
X12960928Y-17386500D02*
X12975214Y-17372214D01*
X13003786Y-17329357D01*
X13018071Y-17300786D01*
X13032357Y-17257929D01*
X13046643Y-17186500D01*
X13046643Y-17129357D01*
X13032357Y-17057929D01*
X13018071Y-17015072D01*
X13003786Y-16986500D01*
X12975214Y-16943643D01*
X12960928Y-16929357D01*
X6434500Y-17572500D02*
X6474500Y-17532500D01*
X6434500Y-17492500D01*
X6394500Y-17532500D01*
X6434500Y-17572500D01*
X6818071Y-17368214D02*
X6846643Y-17368214D01*
X6875214Y-17382500D01*
X6889500Y-17396786D01*
X6903786Y-17425357D01*
X6918071Y-17482500D01*
X6918071Y-17553929D01*
X6903786Y-17611072D01*
X6889500Y-17639643D01*
X6875214Y-17653929D01*
X6846643Y-17668214D01*
X6818071Y-17668214D01*
X6789500Y-17653929D01*
X6775214Y-17639643D01*
X6760928Y-17611072D01*
X6746643Y-17553929D01*
X6746643Y-17482500D01*
X6760928Y-17425357D01*
X6775214Y-17396786D01*
X6789500Y-17382500D01*
X6818071Y-17368214D01*
X7046643Y-17639643D02*
X7060928Y-17653929D01*
X7046643Y-17668214D01*
X7032357Y-17653929D01*
X7046643Y-17639643D01*
X7046643Y-17668214D01*
X7232357Y-17496786D02*
X7203786Y-17482500D01*
X7189500Y-17468214D01*
X7175214Y-17439643D01*
X7175214Y-17425357D01*
X7189500Y-17396786D01*
X7203786Y-17382500D01*
X7232357Y-17368214D01*
X7289500Y-17368214D01*
X7318071Y-17382500D01*
X7332357Y-17396786D01*
X7346643Y-17425357D01*
X7346643Y-17439643D01*
X7332357Y-17468214D01*
X7318071Y-17482500D01*
X7289500Y-17496786D01*
X7232357Y-17496786D01*
X7203786Y-17511072D01*
X7189500Y-17525357D01*
X7175214Y-17553929D01*
X7175214Y-17611072D01*
X7189500Y-17639643D01*
X7203786Y-17653929D01*
X7232357Y-17668214D01*
X7289500Y-17668214D01*
X7318071Y-17653929D01*
X7332357Y-17639643D01*
X7346643Y-17611072D01*
X7346643Y-17553929D01*
X7332357Y-17525357D01*
X7318071Y-17511072D01*
X7289500Y-17496786D01*
X7532357Y-17368214D02*
X7560928Y-17368214D01*
X7589500Y-17382500D01*
X7603786Y-17396786D01*
X7618071Y-17425357D01*
X7632357Y-17482500D01*
X7632357Y-17553929D01*
X7618071Y-17611072D01*
X7603786Y-17639643D01*
X7589500Y-17653929D01*
X7560928Y-17668214D01*
X7532357Y-17668214D01*
X7503786Y-17653929D01*
X7489500Y-17639643D01*
X7475214Y-17611072D01*
X7460928Y-17553929D01*
X7460928Y-17482500D01*
X7475214Y-17425357D01*
X7489500Y-17396786D01*
X7503786Y-17382500D01*
X7532357Y-17368214D01*
X7760928Y-17668214D02*
X7760928Y-17468214D01*
X7760928Y-17496786D02*
X7775214Y-17482500D01*
X7803786Y-17468214D01*
X7846643Y-17468214D01*
X7875214Y-17482500D01*
X7889500Y-17511072D01*
X7889500Y-17668214D01*
X7889500Y-17511072D02*
X7903786Y-17482500D01*
X7932357Y-17468214D01*
X7975214Y-17468214D01*
X8003786Y-17482500D01*
X8018071Y-17511072D01*
X8018071Y-17668214D01*
X8160928Y-17668214D02*
X8160928Y-17468214D01*
X8160928Y-17496786D02*
X8175214Y-17482500D01*
X8203786Y-17468214D01*
X8246643Y-17468214D01*
X8275214Y-17482500D01*
X8289500Y-17511072D01*
X8289500Y-17668214D01*
X8289500Y-17511072D02*
X8303786Y-17482500D01*
X8332357Y-17468214D01*
X8375214Y-17468214D01*
X8403786Y-17482500D01*
X8418071Y-17511072D01*
X8418071Y-17668214D01*
X9003786Y-17353929D02*
X8746643Y-17739643D01*
X9389500Y-17368214D02*
X9418071Y-17368214D01*
X9446643Y-17382500D01*
X9460928Y-17396786D01*
X9475214Y-17425357D01*
X9489500Y-17482500D01*
X9489500Y-17553929D01*
X9475214Y-17611072D01*
X9460928Y-17639643D01*
X9446643Y-17653929D01*
X9418071Y-17668214D01*
X9389500Y-17668214D01*
X9360928Y-17653929D01*
X9346643Y-17639643D01*
X9332357Y-17611072D01*
X9318071Y-17553929D01*
X9318071Y-17482500D01*
X9332357Y-17425357D01*
X9346643Y-17396786D01*
X9360928Y-17382500D01*
X9389500Y-17368214D01*
X9618071Y-17639643D02*
X9632357Y-17653929D01*
X9618071Y-17668214D01*
X9603786Y-17653929D01*
X9618071Y-17639643D01*
X9618071Y-17668214D01*
X9818071Y-17368214D02*
X9846643Y-17368214D01*
X9875214Y-17382500D01*
X9889500Y-17396786D01*
X9903786Y-17425357D01*
X9918071Y-17482500D01*
X9918071Y-17553929D01*
X9903786Y-17611072D01*
X9889500Y-17639643D01*
X9875214Y-17653929D01*
X9846643Y-17668214D01*
X9818071Y-17668214D01*
X9789500Y-17653929D01*
X9775214Y-17639643D01*
X9760928Y-17611072D01*
X9746643Y-17553929D01*
X9746643Y-17482500D01*
X9760928Y-17425357D01*
X9775214Y-17396786D01*
X9789500Y-17382500D01*
X9818071Y-17368214D01*
X10018071Y-17368214D02*
X10203786Y-17368214D01*
X10103786Y-17482500D01*
X10146643Y-17482500D01*
X10175214Y-17496786D01*
X10189500Y-17511072D01*
X10203786Y-17539643D01*
X10203786Y-17611072D01*
X10189500Y-17639643D01*
X10175214Y-17653929D01*
X10146643Y-17668214D01*
X10060928Y-17668214D01*
X10032357Y-17653929D01*
X10018071Y-17639643D01*
X10489500Y-17668214D02*
X10318071Y-17668214D01*
X10403786Y-17668214D02*
X10403786Y-17368214D01*
X10375214Y-17411072D01*
X10346643Y-17439643D01*
X10318071Y-17453929D01*
X10603786Y-17368214D02*
X10603786Y-17425357D01*
X10718071Y-17368214D02*
X10718071Y-17425357D01*
X11160928Y-17782500D02*
X11146643Y-17768214D01*
X11118071Y-17725357D01*
X11103786Y-17696786D01*
X11089500Y-17653929D01*
X11075214Y-17582500D01*
X11075214Y-17525357D01*
X11089500Y-17453929D01*
X11103786Y-17411072D01*
X11118071Y-17382500D01*
X11146643Y-17339643D01*
X11160928Y-17325357D01*
X11260928Y-17396786D02*
X11275214Y-17382500D01*
X11303786Y-17368214D01*
X11375214Y-17368214D01*
X11403786Y-17382500D01*
X11418071Y-17396786D01*
X11432357Y-17425357D01*
X11432357Y-17453929D01*
X11418071Y-17496786D01*
X11246643Y-17668214D01*
X11432357Y-17668214D01*
X11603786Y-17496786D02*
X11575214Y-17482500D01*
X11560928Y-17468214D01*
X11546643Y-17439643D01*
X11546643Y-17425357D01*
X11560928Y-17396786D01*
X11575214Y-17382500D01*
X11603786Y-17368214D01*
X11660928Y-17368214D01*
X11689500Y-17382500D01*
X11703786Y-17396786D01*
X11718071Y-17425357D01*
X11718071Y-17439643D01*
X11703786Y-17468214D01*
X11689500Y-17482500D01*
X11660928Y-17496786D01*
X11603786Y-17496786D01*
X11575214Y-17511072D01*
X11560928Y-17525357D01*
X11546643Y-17553929D01*
X11546643Y-17611072D01*
X11560928Y-17639643D01*
X11575214Y-17653929D01*
X11603786Y-17668214D01*
X11660928Y-17668214D01*
X11689500Y-17653929D01*
X11703786Y-17639643D01*
X11718071Y-17611072D01*
X11718071Y-17553929D01*
X11703786Y-17525357D01*
X11689500Y-17511072D01*
X11660928Y-17496786D01*
X11889500Y-17496786D02*
X11860928Y-17482500D01*
X11846643Y-17468214D01*
X11832357Y-17439643D01*
X11832357Y-17425357D01*
X11846643Y-17396786D01*
X11860928Y-17382500D01*
X11889500Y-17368214D01*
X11946643Y-17368214D01*
X11975214Y-17382500D01*
X11989500Y-17396786D01*
X12003786Y-17425357D01*
X12003786Y-17439643D01*
X11989500Y-17468214D01*
X11975214Y-17482500D01*
X11946643Y-17496786D01*
X11889500Y-17496786D01*
X11860928Y-17511072D01*
X11846643Y-17525357D01*
X11832357Y-17553929D01*
X11832357Y-17611072D01*
X11846643Y-17639643D01*
X11860928Y-17653929D01*
X11889500Y-17668214D01*
X11946643Y-17668214D01*
X11975214Y-17653929D01*
X11989500Y-17639643D01*
X12003786Y-17611072D01*
X12003786Y-17553929D01*
X11989500Y-17525357D01*
X11975214Y-17511072D01*
X11946643Y-17496786D01*
X12360928Y-17668214D02*
X12360928Y-17368214D01*
X12489500Y-17668214D02*
X12489500Y-17511072D01*
X12475214Y-17482500D01*
X12446643Y-17468214D01*
X12403786Y-17468214D01*
X12375214Y-17482500D01*
X12360928Y-17496786D01*
X12675214Y-17668214D02*
X12646643Y-17653929D01*
X12632357Y-17639643D01*
X12618071Y-17611072D01*
X12618071Y-17525357D01*
X12632357Y-17496786D01*
X12646643Y-17482500D01*
X12675214Y-17468214D01*
X12718071Y-17468214D01*
X12746643Y-17482500D01*
X12760928Y-17496786D01*
X12775214Y-17525357D01*
X12775214Y-17611072D01*
X12760928Y-17639643D01*
X12746643Y-17653929D01*
X12718071Y-17668214D01*
X12675214Y-17668214D01*
X12946643Y-17668214D02*
X12918071Y-17653929D01*
X12903786Y-17625357D01*
X12903786Y-17368214D01*
X13175214Y-17653929D02*
X13146643Y-17668214D01*
X13089500Y-17668214D01*
X13060928Y-17653929D01*
X13046643Y-17625357D01*
X13046643Y-17511072D01*
X13060928Y-17482500D01*
X13089500Y-17468214D01*
X13146643Y-17468214D01*
X13175214Y-17482500D01*
X13189500Y-17511072D01*
X13189500Y-17539643D01*
X13046643Y-17568214D01*
X13303786Y-17653929D02*
X13332357Y-17668214D01*
X13389500Y-17668214D01*
X13418071Y-17653929D01*
X13432357Y-17625357D01*
X13432357Y-17611072D01*
X13418071Y-17582500D01*
X13389500Y-17568214D01*
X13346643Y-17568214D01*
X13318071Y-17553929D01*
X13303786Y-17525357D01*
X13303786Y-17511072D01*
X13318071Y-17482500D01*
X13346643Y-17468214D01*
X13389500Y-17468214D01*
X13418071Y-17482500D01*
X13532357Y-17782500D02*
X13546643Y-17768214D01*
X13575214Y-17725357D01*
X13589500Y-17696786D01*
X13603786Y-17653929D01*
X13618071Y-17582500D01*
X13618071Y-17525357D01*
X13603786Y-17453929D01*
X13589500Y-17411072D01*
X13575214Y-17382500D01*
X13546643Y-17339643D01*
X13532357Y-17325357D01*
X6384500Y-17883500D02*
X6474500Y-17973500D01*
X6474500Y-17883500D02*
X6384500Y-17973500D01*
X6474500Y-17928500D02*
G75*
G03X6474500Y-17928500I-45000J0D01*
G01*
X6818071Y-17764214D02*
X6846643Y-17764214D01*
X6875214Y-17778500D01*
X6889500Y-17792786D01*
X6903786Y-17821357D01*
X6918071Y-17878500D01*
X6918071Y-17949929D01*
X6903786Y-18007072D01*
X6889500Y-18035643D01*
X6875214Y-18049929D01*
X6846643Y-18064214D01*
X6818071Y-18064214D01*
X6789500Y-18049929D01*
X6775214Y-18035643D01*
X6760928Y-18007072D01*
X6746643Y-17949929D01*
X6746643Y-17878500D01*
X6760928Y-17821357D01*
X6775214Y-17792786D01*
X6789500Y-17778500D01*
X6818071Y-17764214D01*
X7046643Y-18035643D02*
X7060928Y-18049929D01*
X7046643Y-18064214D01*
X7032357Y-18049929D01*
X7046643Y-18035643D01*
X7046643Y-18064214D01*
X7203786Y-18064214D02*
X7260928Y-18064214D01*
X7289500Y-18049929D01*
X7303786Y-18035643D01*
X7332357Y-17992786D01*
X7346643Y-17935643D01*
X7346643Y-17821357D01*
X7332357Y-17792786D01*
X7318071Y-17778500D01*
X7289500Y-17764214D01*
X7232357Y-17764214D01*
X7203786Y-17778500D01*
X7189500Y-17792786D01*
X7175214Y-17821357D01*
X7175214Y-17892786D01*
X7189500Y-17921357D01*
X7203786Y-17935643D01*
X7232357Y-17949929D01*
X7289500Y-17949929D01*
X7318071Y-17935643D01*
X7332357Y-17921357D01*
X7346643Y-17892786D01*
X7532357Y-17764214D02*
X7560928Y-17764214D01*
X7589500Y-17778500D01*
X7603786Y-17792786D01*
X7618071Y-17821357D01*
X7632357Y-17878500D01*
X7632357Y-17949929D01*
X7618071Y-18007072D01*
X7603786Y-18035643D01*
X7589500Y-18049929D01*
X7560928Y-18064214D01*
X7532357Y-18064214D01*
X7503786Y-18049929D01*
X7489500Y-18035643D01*
X7475214Y-18007072D01*
X7460928Y-17949929D01*
X7460928Y-17878500D01*
X7475214Y-17821357D01*
X7489500Y-17792786D01*
X7503786Y-17778500D01*
X7532357Y-17764214D01*
X7760928Y-18064214D02*
X7760928Y-17864214D01*
X7760928Y-17892786D02*
X7775214Y-17878500D01*
X7803786Y-17864214D01*
X7846643Y-17864214D01*
X7875214Y-17878500D01*
X7889500Y-17907072D01*
X7889500Y-18064214D01*
X7889500Y-17907072D02*
X7903786Y-17878500D01*
X7932357Y-17864214D01*
X7975214Y-17864214D01*
X8003786Y-17878500D01*
X8018071Y-17907072D01*
X8018071Y-18064214D01*
X8160928Y-18064214D02*
X8160928Y-17864214D01*
X8160928Y-17892786D02*
X8175214Y-17878500D01*
X8203786Y-17864214D01*
X8246643Y-17864214D01*
X8275214Y-17878500D01*
X8289500Y-17907072D01*
X8289500Y-18064214D01*
X8289500Y-17907072D02*
X8303786Y-17878500D01*
X8332357Y-17864214D01*
X8375214Y-17864214D01*
X8403786Y-17878500D01*
X8418071Y-17907072D01*
X8418071Y-18064214D01*
X9003786Y-17749929D02*
X8746643Y-18135643D01*
X9389500Y-17764214D02*
X9418071Y-17764214D01*
X9446643Y-17778500D01*
X9460928Y-17792786D01*
X9475214Y-17821357D01*
X9489500Y-17878500D01*
X9489500Y-17949929D01*
X9475214Y-18007072D01*
X9460928Y-18035643D01*
X9446643Y-18049929D01*
X9418071Y-18064214D01*
X9389500Y-18064214D01*
X9360928Y-18049929D01*
X9346643Y-18035643D01*
X9332357Y-18007072D01*
X9318071Y-17949929D01*
X9318071Y-17878500D01*
X9332357Y-17821357D01*
X9346643Y-17792786D01*
X9360928Y-17778500D01*
X9389500Y-17764214D01*
X9618071Y-18035643D02*
X9632357Y-18049929D01*
X9618071Y-18064214D01*
X9603786Y-18049929D01*
X9618071Y-18035643D01*
X9618071Y-18064214D01*
X9818071Y-17764214D02*
X9846643Y-17764214D01*
X9875214Y-17778500D01*
X9889500Y-17792786D01*
X9903786Y-17821357D01*
X9918071Y-17878500D01*
X9918071Y-17949929D01*
X9903786Y-18007072D01*
X9889500Y-18035643D01*
X9875214Y-18049929D01*
X9846643Y-18064214D01*
X9818071Y-18064214D01*
X9789500Y-18049929D01*
X9775214Y-18035643D01*
X9760928Y-18007072D01*
X9746643Y-17949929D01*
X9746643Y-17878500D01*
X9760928Y-17821357D01*
X9775214Y-17792786D01*
X9789500Y-17778500D01*
X9818071Y-17764214D01*
X10018071Y-17764214D02*
X10203786Y-17764214D01*
X10103786Y-17878500D01*
X10146643Y-17878500D01*
X10175214Y-17892786D01*
X10189500Y-17907072D01*
X10203786Y-17935643D01*
X10203786Y-18007072D01*
X10189500Y-18035643D01*
X10175214Y-18049929D01*
X10146643Y-18064214D01*
X10060928Y-18064214D01*
X10032357Y-18049929D01*
X10018071Y-18035643D01*
X10475214Y-17764214D02*
X10332357Y-17764214D01*
X10318071Y-17907072D01*
X10332357Y-17892786D01*
X10360928Y-17878500D01*
X10432357Y-17878500D01*
X10460928Y-17892786D01*
X10475214Y-17907072D01*
X10489500Y-17935643D01*
X10489500Y-18007072D01*
X10475214Y-18035643D01*
X10460928Y-18049929D01*
X10432357Y-18064214D01*
X10360928Y-18064214D01*
X10332357Y-18049929D01*
X10318071Y-18035643D01*
X10603786Y-17764214D02*
X10603786Y-17821357D01*
X10718071Y-17764214D02*
X10718071Y-17821357D01*
X11160928Y-18178500D02*
X11146643Y-18164214D01*
X11118071Y-18121357D01*
X11103786Y-18092786D01*
X11089500Y-18049929D01*
X11075214Y-17978500D01*
X11075214Y-17921357D01*
X11089500Y-17849929D01*
X11103786Y-17807072D01*
X11118071Y-17778500D01*
X11146643Y-17735643D01*
X11160928Y-17721357D01*
X11318071Y-17892786D02*
X11289500Y-17878500D01*
X11275214Y-17864214D01*
X11260928Y-17835643D01*
X11260928Y-17821357D01*
X11275214Y-17792786D01*
X11289500Y-17778500D01*
X11318071Y-17764214D01*
X11375214Y-17764214D01*
X11403786Y-17778500D01*
X11418071Y-17792786D01*
X11432357Y-17821357D01*
X11432357Y-17835643D01*
X11418071Y-17864214D01*
X11403786Y-17878500D01*
X11375214Y-17892786D01*
X11318071Y-17892786D01*
X11289500Y-17907072D01*
X11275214Y-17921357D01*
X11260928Y-17949929D01*
X11260928Y-18007072D01*
X11275214Y-18035643D01*
X11289500Y-18049929D01*
X11318071Y-18064214D01*
X11375214Y-18064214D01*
X11403786Y-18049929D01*
X11418071Y-18035643D01*
X11432357Y-18007072D01*
X11432357Y-17949929D01*
X11418071Y-17921357D01*
X11403786Y-17907072D01*
X11375214Y-17892786D01*
X11789500Y-18064214D02*
X11789500Y-17764214D01*
X11918071Y-18064214D02*
X11918071Y-17907072D01*
X11903786Y-17878500D01*
X11875214Y-17864214D01*
X11832357Y-17864214D01*
X11803786Y-17878500D01*
X11789500Y-17892786D01*
X12103786Y-18064214D02*
X12075214Y-18049929D01*
X12060928Y-18035643D01*
X12046643Y-18007072D01*
X12046643Y-17921357D01*
X12060928Y-17892786D01*
X12075214Y-17878500D01*
X12103786Y-17864214D01*
X12146643Y-17864214D01*
X12175214Y-17878500D01*
X12189500Y-17892786D01*
X12203786Y-17921357D01*
X12203786Y-18007072D01*
X12189500Y-18035643D01*
X12175214Y-18049929D01*
X12146643Y-18064214D01*
X12103786Y-18064214D01*
X12375214Y-18064214D02*
X12346643Y-18049929D01*
X12332357Y-18021357D01*
X12332357Y-17764214D01*
X12603786Y-18049929D02*
X12575214Y-18064214D01*
X12518071Y-18064214D01*
X12489500Y-18049929D01*
X12475214Y-18021357D01*
X12475214Y-17907072D01*
X12489500Y-17878500D01*
X12518071Y-17864214D01*
X12575214Y-17864214D01*
X12603786Y-17878500D01*
X12618071Y-17907072D01*
X12618071Y-17935643D01*
X12475214Y-17964214D01*
X12732357Y-18049929D02*
X12760928Y-18064214D01*
X12818071Y-18064214D01*
X12846643Y-18049929D01*
X12860928Y-18021357D01*
X12860928Y-18007072D01*
X12846643Y-17978500D01*
X12818071Y-17964214D01*
X12775214Y-17964214D01*
X12746643Y-17949929D01*
X12732357Y-17921357D01*
X12732357Y-17907072D01*
X12746643Y-17878500D01*
X12775214Y-17864214D01*
X12818071Y-17864214D01*
X12846643Y-17878500D01*
X12960928Y-18178500D02*
X12975214Y-18164214D01*
X13003786Y-18121357D01*
X13018071Y-18092786D01*
X13032357Y-18049929D01*
X13046643Y-17978500D01*
X13046643Y-17921357D01*
X13032357Y-17849929D01*
X13018071Y-17807072D01*
X13003786Y-17778500D01*
X12975214Y-17735643D01*
X12960928Y-17721357D01*
X6372900Y-18273700D02*
X6474500Y-18375300D01*
X6474500Y-18273700D02*
X6372900Y-18375300D01*
X6423700Y-18273700D02*
X6423700Y-18375300D01*
X6372900Y-18324500D02*
X6474500Y-18324500D01*
X6918071Y-18460214D02*
X6746643Y-18460214D01*
X6832357Y-18460214D02*
X6832357Y-18160214D01*
X6803786Y-18203072D01*
X6775214Y-18231643D01*
X6746643Y-18245929D01*
X7046643Y-18431643D02*
X7060928Y-18445929D01*
X7046643Y-18460214D01*
X7032357Y-18445929D01*
X7046643Y-18431643D01*
X7046643Y-18460214D01*
X7246643Y-18160214D02*
X7275214Y-18160214D01*
X7303786Y-18174500D01*
X7318071Y-18188786D01*
X7332357Y-18217357D01*
X7346643Y-18274500D01*
X7346643Y-18345929D01*
X7332357Y-18403072D01*
X7318071Y-18431643D01*
X7303786Y-18445929D01*
X7275214Y-18460214D01*
X7246643Y-18460214D01*
X7218071Y-18445929D01*
X7203786Y-18431643D01*
X7189500Y-18403072D01*
X7175214Y-18345929D01*
X7175214Y-18274500D01*
X7189500Y-18217357D01*
X7203786Y-18188786D01*
X7218071Y-18174500D01*
X7246643Y-18160214D01*
X7460928Y-18188786D02*
X7475214Y-18174500D01*
X7503786Y-18160214D01*
X7575214Y-18160214D01*
X7603786Y-18174500D01*
X7618071Y-18188786D01*
X7632357Y-18217357D01*
X7632357Y-18245929D01*
X7618071Y-18288786D01*
X7446643Y-18460214D01*
X7632357Y-18460214D01*
X7760928Y-18460214D02*
X7760928Y-18260214D01*
X7760928Y-18288786D02*
X7775214Y-18274500D01*
X7803786Y-18260214D01*
X7846643Y-18260214D01*
X7875214Y-18274500D01*
X7889500Y-18303072D01*
X7889500Y-18460214D01*
X7889500Y-18303072D02*
X7903786Y-18274500D01*
X7932357Y-18260214D01*
X7975214Y-18260214D01*
X8003786Y-18274500D01*
X8018071Y-18303072D01*
X8018071Y-18460214D01*
X8160928Y-18460214D02*
X8160928Y-18260214D01*
X8160928Y-18288786D02*
X8175214Y-18274500D01*
X8203786Y-18260214D01*
X8246643Y-18260214D01*
X8275214Y-18274500D01*
X8289500Y-18303072D01*
X8289500Y-18460214D01*
X8289500Y-18303072D02*
X8303786Y-18274500D01*
X8332357Y-18260214D01*
X8375214Y-18260214D01*
X8403786Y-18274500D01*
X8418071Y-18303072D01*
X8418071Y-18460214D01*
X9003786Y-18145929D02*
X8746643Y-18531643D01*
X9389500Y-18160214D02*
X9418071Y-18160214D01*
X9446643Y-18174500D01*
X9460928Y-18188786D01*
X9475214Y-18217357D01*
X9489500Y-18274500D01*
X9489500Y-18345929D01*
X9475214Y-18403072D01*
X9460928Y-18431643D01*
X9446643Y-18445929D01*
X9418071Y-18460214D01*
X9389500Y-18460214D01*
X9360928Y-18445929D01*
X9346643Y-18431643D01*
X9332357Y-18403072D01*
X9318071Y-18345929D01*
X9318071Y-18274500D01*
X9332357Y-18217357D01*
X9346643Y-18188786D01*
X9360928Y-18174500D01*
X9389500Y-18160214D01*
X9618071Y-18431643D02*
X9632357Y-18445929D01*
X9618071Y-18460214D01*
X9603786Y-18445929D01*
X9618071Y-18431643D01*
X9618071Y-18460214D01*
X9818071Y-18160214D02*
X9846643Y-18160214D01*
X9875214Y-18174500D01*
X9889500Y-18188786D01*
X9903786Y-18217357D01*
X9918071Y-18274500D01*
X9918071Y-18345929D01*
X9903786Y-18403072D01*
X9889500Y-18431643D01*
X9875214Y-18445929D01*
X9846643Y-18460214D01*
X9818071Y-18460214D01*
X9789500Y-18445929D01*
X9775214Y-18431643D01*
X9760928Y-18403072D01*
X9746643Y-18345929D01*
X9746643Y-18274500D01*
X9760928Y-18217357D01*
X9775214Y-18188786D01*
X9789500Y-18174500D01*
X9818071Y-18160214D01*
X10175214Y-18260214D02*
X10175214Y-18460214D01*
X10103786Y-18145929D02*
X10032357Y-18360214D01*
X10218071Y-18360214D01*
X10389500Y-18160214D02*
X10418071Y-18160214D01*
X10446643Y-18174500D01*
X10460928Y-18188786D01*
X10475214Y-18217357D01*
X10489500Y-18274500D01*
X10489500Y-18345929D01*
X10475214Y-18403072D01*
X10460928Y-18431643D01*
X10446643Y-18445929D01*
X10418071Y-18460214D01*
X10389500Y-18460214D01*
X10360928Y-18445929D01*
X10346643Y-18431643D01*
X10332357Y-18403072D01*
X10318071Y-18345929D01*
X10318071Y-18274500D01*
X10332357Y-18217357D01*
X10346643Y-18188786D01*
X10360928Y-18174500D01*
X10389500Y-18160214D01*
X10603786Y-18160214D02*
X10603786Y-18217357D01*
X10718071Y-18160214D02*
X10718071Y-18217357D01*
X11160928Y-18574500D02*
X11146643Y-18560214D01*
X11118071Y-18517357D01*
X11103786Y-18488786D01*
X11089500Y-18445929D01*
X11075214Y-18374500D01*
X11075214Y-18317357D01*
X11089500Y-18245929D01*
X11103786Y-18203072D01*
X11118071Y-18174500D01*
X11146643Y-18131643D01*
X11160928Y-18117357D01*
X11260928Y-18188786D02*
X11275214Y-18174500D01*
X11303786Y-18160214D01*
X11375214Y-18160214D01*
X11403786Y-18174500D01*
X11418071Y-18188786D01*
X11432357Y-18217357D01*
X11432357Y-18245929D01*
X11418071Y-18288786D01*
X11246643Y-18460214D01*
X11432357Y-18460214D01*
X11618071Y-18160214D02*
X11646643Y-18160214D01*
X11675214Y-18174500D01*
X11689500Y-18188786D01*
X11703786Y-18217357D01*
X11718071Y-18274500D01*
X11718071Y-18345929D01*
X11703786Y-18403072D01*
X11689500Y-18431643D01*
X11675214Y-18445929D01*
X11646643Y-18460214D01*
X11618071Y-18460214D01*
X11589500Y-18445929D01*
X11575214Y-18431643D01*
X11560928Y-18403072D01*
X11546643Y-18345929D01*
X11546643Y-18274500D01*
X11560928Y-18217357D01*
X11575214Y-18188786D01*
X11589500Y-18174500D01*
X11618071Y-18160214D01*
X12075214Y-18460214D02*
X12075214Y-18160214D01*
X12203786Y-18460214D02*
X12203786Y-18303072D01*
X12189500Y-18274500D01*
X12160928Y-18260214D01*
X12118071Y-18260214D01*
X12089500Y-18274500D01*
X12075214Y-18288786D01*
X12389500Y-18460214D02*
X12360928Y-18445929D01*
X12346643Y-18431643D01*
X12332357Y-18403072D01*
X12332357Y-18317357D01*
X12346643Y-18288786D01*
X12360928Y-18274500D01*
X12389500Y-18260214D01*
X12432357Y-18260214D01*
X12460928Y-18274500D01*
X12475214Y-18288786D01*
X12489500Y-18317357D01*
X12489500Y-18403072D01*
X12475214Y-18431643D01*
X12460928Y-18445929D01*
X12432357Y-18460214D01*
X12389500Y-18460214D01*
X12660928Y-18460214D02*
X12632357Y-18445929D01*
X12618071Y-18417357D01*
X12618071Y-18160214D01*
X12889500Y-18445929D02*
X12860928Y-18460214D01*
X12803786Y-18460214D01*
X12775214Y-18445929D01*
X12760928Y-18417357D01*
X12760928Y-18303072D01*
X12775214Y-18274500D01*
X12803786Y-18260214D01*
X12860928Y-18260214D01*
X12889500Y-18274500D01*
X12903786Y-18303072D01*
X12903786Y-18331643D01*
X12760928Y-18360214D01*
X13018071Y-18445929D02*
X13046643Y-18460214D01*
X13103786Y-18460214D01*
X13132357Y-18445929D01*
X13146643Y-18417357D01*
X13146643Y-18403072D01*
X13132357Y-18374500D01*
X13103786Y-18360214D01*
X13060928Y-18360214D01*
X13032357Y-18345929D01*
X13018071Y-18317357D01*
X13018071Y-18303072D01*
X13032357Y-18274500D01*
X13060928Y-18260214D01*
X13103786Y-18260214D01*
X13132357Y-18274500D01*
X13246643Y-18574500D02*
X13260928Y-18560214D01*
X13289500Y-18517357D01*
X13303786Y-18488786D01*
X13318071Y-18445929D01*
X13332357Y-18374500D01*
X13332357Y-18317357D01*
X13318071Y-18245929D01*
X13303786Y-18203072D01*
X13289500Y-18174500D01*
X13260928Y-18131643D01*
X13246643Y-18117357D01*
X6364500Y-18665500D02*
X6474500Y-18775500D01*
X6474500Y-18665500D02*
X6364500Y-18775500D01*
X6458391Y-18759391D02*
X6458391Y-18681609D01*
X6380609Y-18681609D01*
X6380609Y-18759391D01*
X6458391Y-18759391D01*
X6918071Y-18856214D02*
X6746643Y-18856214D01*
X6832357Y-18856214D02*
X6832357Y-18556214D01*
X6803786Y-18599072D01*
X6775214Y-18627643D01*
X6746643Y-18641929D01*
X7046643Y-18827643D02*
X7060928Y-18841929D01*
X7046643Y-18856214D01*
X7032357Y-18841929D01*
X7046643Y-18827643D01*
X7046643Y-18856214D01*
X7346643Y-18856214D02*
X7175214Y-18856214D01*
X7260928Y-18856214D02*
X7260928Y-18556214D01*
X7232357Y-18599072D01*
X7203786Y-18627643D01*
X7175214Y-18641929D01*
X7532357Y-18556214D02*
X7560928Y-18556214D01*
X7589500Y-18570500D01*
X7603786Y-18584786D01*
X7618071Y-18613357D01*
X7632357Y-18670500D01*
X7632357Y-18741929D01*
X7618071Y-18799072D01*
X7603786Y-18827643D01*
X7589500Y-18841929D01*
X7560928Y-18856214D01*
X7532357Y-18856214D01*
X7503786Y-18841929D01*
X7489500Y-18827643D01*
X7475214Y-18799072D01*
X7460928Y-18741929D01*
X7460928Y-18670500D01*
X7475214Y-18613357D01*
X7489500Y-18584786D01*
X7503786Y-18570500D01*
X7532357Y-18556214D01*
X7760928Y-18856214D02*
X7760928Y-18656214D01*
X7760928Y-18684786D02*
X7775214Y-18670500D01*
X7803786Y-18656214D01*
X7846643Y-18656214D01*
X7875214Y-18670500D01*
X7889500Y-18699072D01*
X7889500Y-18856214D01*
X7889500Y-18699072D02*
X7903786Y-18670500D01*
X7932357Y-18656214D01*
X7975214Y-18656214D01*
X8003786Y-18670500D01*
X8018071Y-18699072D01*
X8018071Y-18856214D01*
X8160928Y-18856214D02*
X8160928Y-18656214D01*
X8160928Y-18684786D02*
X8175214Y-18670500D01*
X8203786Y-18656214D01*
X8246643Y-18656214D01*
X8275214Y-18670500D01*
X8289500Y-18699072D01*
X8289500Y-18856214D01*
X8289500Y-18699072D02*
X8303786Y-18670500D01*
X8332357Y-18656214D01*
X8375214Y-18656214D01*
X8403786Y-18670500D01*
X8418071Y-18699072D01*
X8418071Y-18856214D01*
X9003786Y-18541929D02*
X8746643Y-18927643D01*
X9389500Y-18556214D02*
X9418071Y-18556214D01*
X9446643Y-18570500D01*
X9460928Y-18584786D01*
X9475214Y-18613357D01*
X9489500Y-18670500D01*
X9489500Y-18741929D01*
X9475214Y-18799072D01*
X9460928Y-18827643D01*
X9446643Y-18841929D01*
X9418071Y-18856214D01*
X9389500Y-18856214D01*
X9360928Y-18841929D01*
X9346643Y-18827643D01*
X9332357Y-18799072D01*
X9318071Y-18741929D01*
X9318071Y-18670500D01*
X9332357Y-18613357D01*
X9346643Y-18584786D01*
X9360928Y-18570500D01*
X9389500Y-18556214D01*
X9618071Y-18827643D02*
X9632357Y-18841929D01*
X9618071Y-18856214D01*
X9603786Y-18841929D01*
X9618071Y-18827643D01*
X9618071Y-18856214D01*
X9818071Y-18556214D02*
X9846643Y-18556214D01*
X9875214Y-18570500D01*
X9889500Y-18584786D01*
X9903786Y-18613357D01*
X9918071Y-18670500D01*
X9918071Y-18741929D01*
X9903786Y-18799072D01*
X9889500Y-18827643D01*
X9875214Y-18841929D01*
X9846643Y-18856214D01*
X9818071Y-18856214D01*
X9789500Y-18841929D01*
X9775214Y-18827643D01*
X9760928Y-18799072D01*
X9746643Y-18741929D01*
X9746643Y-18670500D01*
X9760928Y-18613357D01*
X9775214Y-18584786D01*
X9789500Y-18570500D01*
X9818071Y-18556214D01*
X10175214Y-18656214D02*
X10175214Y-18856214D01*
X10103786Y-18541929D02*
X10032357Y-18756214D01*
X10218071Y-18756214D01*
X10303786Y-18556214D02*
X10489500Y-18556214D01*
X10389500Y-18670500D01*
X10432357Y-18670500D01*
X10460928Y-18684786D01*
X10475214Y-18699072D01*
X10489500Y-18727643D01*
X10489500Y-18799072D01*
X10475214Y-18827643D01*
X10460928Y-18841929D01*
X10432357Y-18856214D01*
X10346643Y-18856214D01*
X10318071Y-18841929D01*
X10303786Y-18827643D01*
X10603786Y-18556214D02*
X10603786Y-18613357D01*
X10718071Y-18556214D02*
X10718071Y-18613357D01*
X11160928Y-18970500D02*
X11146643Y-18956214D01*
X11118071Y-18913357D01*
X11103786Y-18884786D01*
X11089500Y-18841929D01*
X11075214Y-18770500D01*
X11075214Y-18713357D01*
X11089500Y-18641929D01*
X11103786Y-18599072D01*
X11118071Y-18570500D01*
X11146643Y-18527643D01*
X11160928Y-18513357D01*
X11403786Y-18656214D02*
X11403786Y-18856214D01*
X11332357Y-18541929D02*
X11260928Y-18756214D01*
X11446643Y-18756214D01*
X11789500Y-18856214D02*
X11789500Y-18556214D01*
X11918071Y-18856214D02*
X11918071Y-18699072D01*
X11903786Y-18670500D01*
X11875214Y-18656214D01*
X11832357Y-18656214D01*
X11803786Y-18670500D01*
X11789500Y-18684786D01*
X12103786Y-18856214D02*
X12075214Y-18841929D01*
X12060928Y-18827643D01*
X12046643Y-18799072D01*
X12046643Y-18713357D01*
X12060928Y-18684786D01*
X12075214Y-18670500D01*
X12103786Y-18656214D01*
X12146643Y-18656214D01*
X12175214Y-18670500D01*
X12189500Y-18684786D01*
X12203786Y-18713357D01*
X12203786Y-18799072D01*
X12189500Y-18827643D01*
X12175214Y-18841929D01*
X12146643Y-18856214D01*
X12103786Y-18856214D01*
X12375214Y-18856214D02*
X12346643Y-18841929D01*
X12332357Y-18813357D01*
X12332357Y-18556214D01*
X12603786Y-18841929D02*
X12575214Y-18856214D01*
X12518071Y-18856214D01*
X12489500Y-18841929D01*
X12475214Y-18813357D01*
X12475214Y-18699072D01*
X12489500Y-18670500D01*
X12518071Y-18656214D01*
X12575214Y-18656214D01*
X12603786Y-18670500D01*
X12618071Y-18699072D01*
X12618071Y-18727643D01*
X12475214Y-18756214D01*
X12732357Y-18841929D02*
X12760928Y-18856214D01*
X12818071Y-18856214D01*
X12846643Y-18841929D01*
X12860928Y-18813357D01*
X12860928Y-18799072D01*
X12846643Y-18770500D01*
X12818071Y-18756214D01*
X12775214Y-18756214D01*
X12746643Y-18741929D01*
X12732357Y-18713357D01*
X12732357Y-18699072D01*
X12746643Y-18670500D01*
X12775214Y-18656214D01*
X12818071Y-18656214D01*
X12846643Y-18670500D01*
X12960928Y-18970500D02*
X12975214Y-18956214D01*
X13003786Y-18913357D01*
X13018071Y-18884786D01*
X13032357Y-18841929D01*
X13046643Y-18770500D01*
X13046643Y-18713357D01*
X13032357Y-18641929D01*
X13018071Y-18599072D01*
X13003786Y-18570500D01*
X12975214Y-18527643D01*
X12960928Y-18513357D01*
X6174500Y-18966500D02*
X6474500Y-19266500D01*
X6474500Y-18966500D02*
X6174500Y-19266500D01*
X6324500Y-19266500D02*
X6474500Y-19116500D01*
X6324500Y-18966500D01*
X6174500Y-19116500D01*
X6324500Y-19266500D01*
X6732357Y-18952214D02*
X6918071Y-18952214D01*
X6818071Y-19066500D01*
X6860928Y-19066500D01*
X6889500Y-19080786D01*
X6903786Y-19095072D01*
X6918071Y-19123643D01*
X6918071Y-19195072D01*
X6903786Y-19223643D01*
X6889500Y-19237929D01*
X6860928Y-19252214D01*
X6775214Y-19252214D01*
X6746643Y-19237929D01*
X6732357Y-19223643D01*
X7046643Y-19223643D02*
X7060928Y-19237929D01*
X7046643Y-19252214D01*
X7032357Y-19237929D01*
X7046643Y-19223643D01*
X7046643Y-19252214D01*
X7246643Y-18952214D02*
X7275214Y-18952214D01*
X7303786Y-18966500D01*
X7318071Y-18980786D01*
X7332357Y-19009357D01*
X7346643Y-19066500D01*
X7346643Y-19137929D01*
X7332357Y-19195072D01*
X7318071Y-19223643D01*
X7303786Y-19237929D01*
X7275214Y-19252214D01*
X7246643Y-19252214D01*
X7218071Y-19237929D01*
X7203786Y-19223643D01*
X7189500Y-19195072D01*
X7175214Y-19137929D01*
X7175214Y-19066500D01*
X7189500Y-19009357D01*
X7203786Y-18980786D01*
X7218071Y-18966500D01*
X7246643Y-18952214D01*
X7532357Y-18952214D02*
X7560928Y-18952214D01*
X7589500Y-18966500D01*
X7603786Y-18980786D01*
X7618071Y-19009357D01*
X7632357Y-19066500D01*
X7632357Y-19137929D01*
X7618071Y-19195072D01*
X7603786Y-19223643D01*
X7589500Y-19237929D01*
X7560928Y-19252214D01*
X7532357Y-19252214D01*
X7503786Y-19237929D01*
X7489500Y-19223643D01*
X7475214Y-19195072D01*
X7460928Y-19137929D01*
X7460928Y-19066500D01*
X7475214Y-19009357D01*
X7489500Y-18980786D01*
X7503786Y-18966500D01*
X7532357Y-18952214D01*
X7760928Y-19252214D02*
X7760928Y-19052214D01*
X7760928Y-19080786D02*
X7775214Y-19066500D01*
X7803786Y-19052214D01*
X7846643Y-19052214D01*
X7875214Y-19066500D01*
X7889500Y-19095072D01*
X7889500Y-19252214D01*
X7889500Y-19095072D02*
X7903786Y-19066500D01*
X7932357Y-19052214D01*
X7975214Y-19052214D01*
X8003786Y-19066500D01*
X8018071Y-19095072D01*
X8018071Y-19252214D01*
X8160928Y-19252214D02*
X8160928Y-19052214D01*
X8160928Y-19080786D02*
X8175214Y-19066500D01*
X8203786Y-19052214D01*
X8246643Y-19052214D01*
X8275214Y-19066500D01*
X8289500Y-19095072D01*
X8289500Y-19252214D01*
X8289500Y-19095072D02*
X8303786Y-19066500D01*
X8332357Y-19052214D01*
X8375214Y-19052214D01*
X8403786Y-19066500D01*
X8418071Y-19095072D01*
X8418071Y-19252214D01*
X9003786Y-18937929D02*
X8746643Y-19323643D01*
X9389500Y-18952214D02*
X9418071Y-18952214D01*
X9446643Y-18966500D01*
X9460928Y-18980786D01*
X9475214Y-19009357D01*
X9489500Y-19066500D01*
X9489500Y-19137929D01*
X9475214Y-19195072D01*
X9460928Y-19223643D01*
X9446643Y-19237929D01*
X9418071Y-19252214D01*
X9389500Y-19252214D01*
X9360928Y-19237929D01*
X9346643Y-19223643D01*
X9332357Y-19195072D01*
X9318071Y-19137929D01*
X9318071Y-19066500D01*
X9332357Y-19009357D01*
X9346643Y-18980786D01*
X9360928Y-18966500D01*
X9389500Y-18952214D01*
X9618071Y-19223643D02*
X9632357Y-19237929D01*
X9618071Y-19252214D01*
X9603786Y-19237929D01*
X9618071Y-19223643D01*
X9618071Y-19252214D01*
X9918071Y-19252214D02*
X9746643Y-19252214D01*
X9832357Y-19252214D02*
X9832357Y-18952214D01*
X9803786Y-18995072D01*
X9775214Y-19023643D01*
X9746643Y-19037929D01*
X10203786Y-19252214D02*
X10032357Y-19252214D01*
X10118071Y-19252214D02*
X10118071Y-18952214D01*
X10089500Y-18995072D01*
X10060928Y-19023643D01*
X10032357Y-19037929D01*
X10375214Y-19080786D02*
X10346643Y-19066500D01*
X10332357Y-19052214D01*
X10318071Y-19023643D01*
X10318071Y-19009357D01*
X10332357Y-18980786D01*
X10346643Y-18966500D01*
X10375214Y-18952214D01*
X10432357Y-18952214D01*
X10460928Y-18966500D01*
X10475214Y-18980786D01*
X10489500Y-19009357D01*
X10489500Y-19023643D01*
X10475214Y-19052214D01*
X10460928Y-19066500D01*
X10432357Y-19080786D01*
X10375214Y-19080786D01*
X10346643Y-19095072D01*
X10332357Y-19109357D01*
X10318071Y-19137929D01*
X10318071Y-19195072D01*
X10332357Y-19223643D01*
X10346643Y-19237929D01*
X10375214Y-19252214D01*
X10432357Y-19252214D01*
X10460928Y-19237929D01*
X10475214Y-19223643D01*
X10489500Y-19195072D01*
X10489500Y-19137929D01*
X10475214Y-19109357D01*
X10460928Y-19095072D01*
X10432357Y-19080786D01*
X10603786Y-18952214D02*
X10603786Y-19009357D01*
X10718071Y-18952214D02*
X10718071Y-19009357D01*
X11160928Y-19366500D02*
X11146643Y-19352214D01*
X11118071Y-19309357D01*
X11103786Y-19280786D01*
X11089500Y-19237929D01*
X11075214Y-19166500D01*
X11075214Y-19109357D01*
X11089500Y-19037929D01*
X11103786Y-18995072D01*
X11118071Y-18966500D01*
X11146643Y-18923643D01*
X11160928Y-18909357D01*
X11403786Y-19052214D02*
X11403786Y-19252214D01*
X11332357Y-18937929D02*
X11260928Y-19152214D01*
X11446643Y-19152214D01*
X11789500Y-19252214D02*
X11789500Y-18952214D01*
X11918071Y-19252214D02*
X11918071Y-19095072D01*
X11903786Y-19066500D01*
X11875214Y-19052214D01*
X11832357Y-19052214D01*
X11803786Y-19066500D01*
X11789500Y-19080786D01*
X12103786Y-19252214D02*
X12075214Y-19237929D01*
X12060928Y-19223643D01*
X12046643Y-19195072D01*
X12046643Y-19109357D01*
X12060928Y-19080786D01*
X12075214Y-19066500D01*
X12103786Y-19052214D01*
X12146643Y-19052214D01*
X12175214Y-19066500D01*
X12189500Y-19080786D01*
X12203786Y-19109357D01*
X12203786Y-19195072D01*
X12189500Y-19223643D01*
X12175214Y-19237929D01*
X12146643Y-19252214D01*
X12103786Y-19252214D01*
X12375214Y-19252214D02*
X12346643Y-19237929D01*
X12332357Y-19209357D01*
X12332357Y-18952214D01*
X12603786Y-19237929D02*
X12575214Y-19252214D01*
X12518071Y-19252214D01*
X12489500Y-19237929D01*
X12475214Y-19209357D01*
X12475214Y-19095072D01*
X12489500Y-19066500D01*
X12518071Y-19052214D01*
X12575214Y-19052214D01*
X12603786Y-19066500D01*
X12618071Y-19095072D01*
X12618071Y-19123643D01*
X12475214Y-19152214D01*
X12732357Y-19237929D02*
X12760928Y-19252214D01*
X12818071Y-19252214D01*
X12846643Y-19237929D01*
X12860928Y-19209357D01*
X12860928Y-19195072D01*
X12846643Y-19166500D01*
X12818071Y-19152214D01*
X12775214Y-19152214D01*
X12746643Y-19137929D01*
X12732357Y-19109357D01*
X12732357Y-19095072D01*
X12746643Y-19066500D01*
X12775214Y-19052214D01*
X12818071Y-19052214D01*
X12846643Y-19066500D01*
X12960928Y-19366500D02*
X12975214Y-19352214D01*
X13003786Y-19309357D01*
X13018071Y-19280786D01*
X13032357Y-19237929D01*
X13046643Y-19166500D01*
X13046643Y-19109357D01*
X13032357Y-19037929D01*
X13018071Y-18995072D01*
X13003786Y-18966500D01*
X12975214Y-18923643D01*
X12960928Y-18909357D01*
M02*
