G04 #@! TF.GenerationSoftware,KiCad,Pcbnew,(5.1.4)-1*
G04 #@! TF.CreationDate,2019-12-01T00:46:25+01:00*
G04 #@! TF.ProjectId,Z80Mini,5a38304d-696e-4692-9e6b-696361645f70,rev?*
G04 #@! TF.SameCoordinates,Original*
G04 #@! TF.FileFunction,Paste,Top*
G04 #@! TF.FilePolarity,Positive*
%FSLAX46Y46*%
G04 Gerber Fmt 4.6, Leading zero omitted, Abs format (unit mm)*
G04 Created by KiCad (PCBNEW (5.1.4)-1) date 2019-12-01 00:46:25*
%MOMM*%
%LPD*%
G04 APERTURE LIST*
%ADD10C,0.100000*%
%ADD11C,0.975000*%
%ADD12R,1.700000X2.000000*%
%ADD13R,2.000000X0.500000*%
%ADD14R,1.750000X0.450000*%
G04 APERTURE END LIST*
D10*
G36*
X212357642Y-133921174D02*
G01*
X212381303Y-133924684D01*
X212404507Y-133930496D01*
X212427029Y-133938554D01*
X212448653Y-133948782D01*
X212469170Y-133961079D01*
X212488383Y-133975329D01*
X212506107Y-133991393D01*
X212522171Y-134009117D01*
X212536421Y-134028330D01*
X212548718Y-134048847D01*
X212558946Y-134070471D01*
X212567004Y-134092993D01*
X212572816Y-134116197D01*
X212576326Y-134139858D01*
X212577500Y-134163750D01*
X212577500Y-135076250D01*
X212576326Y-135100142D01*
X212572816Y-135123803D01*
X212567004Y-135147007D01*
X212558946Y-135169529D01*
X212548718Y-135191153D01*
X212536421Y-135211670D01*
X212522171Y-135230883D01*
X212506107Y-135248607D01*
X212488383Y-135264671D01*
X212469170Y-135278921D01*
X212448653Y-135291218D01*
X212427029Y-135301446D01*
X212404507Y-135309504D01*
X212381303Y-135315316D01*
X212357642Y-135318826D01*
X212333750Y-135320000D01*
X211846250Y-135320000D01*
X211822358Y-135318826D01*
X211798697Y-135315316D01*
X211775493Y-135309504D01*
X211752971Y-135301446D01*
X211731347Y-135291218D01*
X211710830Y-135278921D01*
X211691617Y-135264671D01*
X211673893Y-135248607D01*
X211657829Y-135230883D01*
X211643579Y-135211670D01*
X211631282Y-135191153D01*
X211621054Y-135169529D01*
X211612996Y-135147007D01*
X211607184Y-135123803D01*
X211603674Y-135100142D01*
X211602500Y-135076250D01*
X211602500Y-134163750D01*
X211603674Y-134139858D01*
X211607184Y-134116197D01*
X211612996Y-134092993D01*
X211621054Y-134070471D01*
X211631282Y-134048847D01*
X211643579Y-134028330D01*
X211657829Y-134009117D01*
X211673893Y-133991393D01*
X211691617Y-133975329D01*
X211710830Y-133961079D01*
X211731347Y-133948782D01*
X211752971Y-133938554D01*
X211775493Y-133930496D01*
X211798697Y-133924684D01*
X211822358Y-133921174D01*
X211846250Y-133920000D01*
X212333750Y-133920000D01*
X212357642Y-133921174D01*
X212357642Y-133921174D01*
G37*
D11*
X212090000Y-134620000D03*
D10*
G36*
X210482642Y-133921174D02*
G01*
X210506303Y-133924684D01*
X210529507Y-133930496D01*
X210552029Y-133938554D01*
X210573653Y-133948782D01*
X210594170Y-133961079D01*
X210613383Y-133975329D01*
X210631107Y-133991393D01*
X210647171Y-134009117D01*
X210661421Y-134028330D01*
X210673718Y-134048847D01*
X210683946Y-134070471D01*
X210692004Y-134092993D01*
X210697816Y-134116197D01*
X210701326Y-134139858D01*
X210702500Y-134163750D01*
X210702500Y-135076250D01*
X210701326Y-135100142D01*
X210697816Y-135123803D01*
X210692004Y-135147007D01*
X210683946Y-135169529D01*
X210673718Y-135191153D01*
X210661421Y-135211670D01*
X210647171Y-135230883D01*
X210631107Y-135248607D01*
X210613383Y-135264671D01*
X210594170Y-135278921D01*
X210573653Y-135291218D01*
X210552029Y-135301446D01*
X210529507Y-135309504D01*
X210506303Y-135315316D01*
X210482642Y-135318826D01*
X210458750Y-135320000D01*
X209971250Y-135320000D01*
X209947358Y-135318826D01*
X209923697Y-135315316D01*
X209900493Y-135309504D01*
X209877971Y-135301446D01*
X209856347Y-135291218D01*
X209835830Y-135278921D01*
X209816617Y-135264671D01*
X209798893Y-135248607D01*
X209782829Y-135230883D01*
X209768579Y-135211670D01*
X209756282Y-135191153D01*
X209746054Y-135169529D01*
X209737996Y-135147007D01*
X209732184Y-135123803D01*
X209728674Y-135100142D01*
X209727500Y-135076250D01*
X209727500Y-134163750D01*
X209728674Y-134139858D01*
X209732184Y-134116197D01*
X209737996Y-134092993D01*
X209746054Y-134070471D01*
X209756282Y-134048847D01*
X209768579Y-134028330D01*
X209782829Y-134009117D01*
X209798893Y-133991393D01*
X209816617Y-133975329D01*
X209835830Y-133961079D01*
X209856347Y-133948782D01*
X209877971Y-133938554D01*
X209900493Y-133930496D01*
X209923697Y-133924684D01*
X209947358Y-133921174D01*
X209971250Y-133920000D01*
X210458750Y-133920000D01*
X210482642Y-133921174D01*
X210482642Y-133921174D01*
G37*
D11*
X210215000Y-134620000D03*
D12*
X255580000Y-132710000D03*
X250130000Y-132710000D03*
X255580000Y-141610000D03*
X250130000Y-141610000D03*
D13*
X250030000Y-135560000D03*
X250030000Y-136360000D03*
X250030000Y-137160000D03*
X250030000Y-137960000D03*
X250030000Y-138760000D03*
D14*
X202990000Y-136745000D03*
X202990000Y-137395000D03*
X202990000Y-138045000D03*
X202990000Y-138695000D03*
X202990000Y-139345000D03*
X202990000Y-139995000D03*
X202990000Y-140645000D03*
X202990000Y-141295000D03*
X202990000Y-141945000D03*
X202990000Y-142595000D03*
X202990000Y-143245000D03*
X202990000Y-143895000D03*
X202990000Y-144545000D03*
X202990000Y-145195000D03*
X195790000Y-145195000D03*
X195790000Y-144545000D03*
X195790000Y-143895000D03*
X195790000Y-143245000D03*
X195790000Y-142595000D03*
X195790000Y-141945000D03*
X195790000Y-141295000D03*
X195790000Y-140645000D03*
X195790000Y-139995000D03*
X195790000Y-139345000D03*
X195790000Y-138695000D03*
X195790000Y-138045000D03*
X195790000Y-137395000D03*
X195790000Y-136745000D03*
M02*
